# 3ds Max Wavefront OBJ Exporter v0.99 - (c)2007 guruware
# File Created: 26.04.2026 13:22:48

mtllib Columnas.mtl

#
# object Columnas
#

v  -3.5000 0.0000 -0.0000
v  -3.2181 0.0000 -0.1026
v  -3.2000 0.0000 -0.0000
v  -3.2702 0.0000 -0.1928
v  -3.3500 0.0000 -0.2598
v  -3.4479 0.0000 -0.2954
v  -3.5521 0.0000 -0.2954
v  -3.6500 0.0000 -0.2598
v  -3.7298 0.0000 -0.1928
v  -3.7819 0.0000 -0.1026
v  -3.8000 0.0000 -0.0000
v  -3.7819 0.0000 0.1026
v  -3.7298 0.0000 0.1928
v  -3.6500 0.0000 0.2598
v  -3.5521 0.0000 0.2954
v  -3.4479 0.0000 0.2954
v  -3.3500 0.0000 0.2598
v  -3.2702 0.0000 0.1928
v  -3.2181 0.0000 0.1026
v  -3.2181 4.8000 -0.1026
v  -3.2702 4.8000 -0.1928
v  -3.3500 4.8000 -0.2598
v  -3.4479 2.4000 -0.2954
v  -3.5521 4.8000 -0.2954
v  -3.6500 4.8000 -0.2598
v  -3.7298 1.2000 -0.1928
v  -3.7819 4.8000 -0.1026
v  -3.8000 2.4000 -0.0000
v  -3.7819 4.8000 0.1026
v  -3.7298 2.4000 0.1928
v  -3.6500 4.8000 0.2598
v  -3.5521 4.8000 0.2954
v  -3.4479 4.8000 0.2954
v  -3.3500 4.8000 0.2598
v  -3.2702 4.8000 0.1928
v  -3.2181 4.8000 0.1026
v  -3.2000 4.8000 -0.0000
v  -3.2181 6.0000 -0.1026
v  -3.2000 6.0000 -0.0000
v  -3.2702 6.0000 -0.1928
v  -3.3500 6.0000 -0.2598
v  -3.4479 6.0000 -0.2954
v  -3.4479 4.8000 -0.2954
v  -3.5521 6.0000 -0.2954
v  -3.6500 6.0000 -0.2598
v  -3.7298 6.0000 -0.1928
v  -3.7298 4.8000 -0.1928
v  -3.7819 6.0000 -0.1026
v  -3.8000 6.0000 -0.0000
v  -3.8000 4.8000 -0.0000
v  -3.7819 6.0000 0.1026
v  -3.7298 6.0000 0.1928
v  -3.7298 4.8000 0.1928
v  -3.6500 6.0000 0.2598
v  -3.5521 6.0000 0.2954
v  -3.4479 6.0000 0.2954
v  -3.3500 6.0000 0.2598
v  -3.2702 6.0000 0.1928
v  -3.2181 6.0000 0.1026
v  -3.5000 6.0000 -0.0000
v  3.5000 0.0000 -0.0000
v  3.7819 0.0000 -0.1026
v  3.8000 0.0000 -0.0000
v  3.7298 0.0000 -0.1928
v  3.6500 0.0000 -0.2598
v  3.5521 0.0000 -0.2954
v  3.4479 0.0000 -0.2954
v  3.3500 0.0000 -0.2598
v  3.2702 0.0000 -0.1928
v  3.2181 0.0000 -0.1026
v  3.2000 0.0000 -0.0000
v  3.2181 0.0000 0.1026
v  3.2702 0.0000 0.1928
v  3.3500 0.0000 0.2598
v  3.4479 0.0000 0.2954
v  3.5521 0.0000 0.2954
v  3.6500 0.0000 0.2598
v  3.7298 0.0000 0.1928
v  3.7819 0.0000 0.1026
v  3.7819 4.8000 -0.1026
v  3.7298 4.8000 -0.1928
v  3.6500 4.8000 -0.2598
v  3.5521 2.4000 -0.2954
v  3.4479 4.8000 -0.2954
v  3.3500 4.8000 -0.2598
v  3.2702 1.2000 -0.1928
v  3.2181 4.8000 -0.1026
v  3.2000 2.4000 -0.0000
v  3.2181 4.8000 0.1026
v  3.2702 2.4000 0.1928
v  3.3500 4.8000 0.2598
v  3.4479 4.8000 0.2954
v  3.5521 4.8000 0.2954
v  3.6500 4.8000 0.2598
v  3.7298 4.8000 0.1928
v  3.7819 4.8000 0.1026
v  3.8000 4.8000 -0.0000
v  3.7819 6.0000 -0.1026
v  3.8000 6.0000 -0.0000
v  3.7298 6.0000 -0.1928
v  3.6500 6.0000 -0.2598
v  3.5521 6.0000 -0.2954
v  3.5521 4.8000 -0.2954
v  3.4479 6.0000 -0.2954
v  3.3500 6.0000 -0.2598
v  3.2702 6.0000 -0.1928
v  3.2702 4.8000 -0.1928
v  3.2181 6.0000 -0.1026
v  3.2000 6.0000 -0.0000
v  3.2000 4.8000 -0.0000
v  3.2181 6.0000 0.1026
v  3.2702 6.0000 0.1928
v  3.2702 4.8000 0.1928
v  3.3500 6.0000 0.2598
v  3.4479 6.0000 0.2954
v  3.5521 6.0000 0.2954
v  3.6500 6.0000 0.2598
v  3.7298 6.0000 0.1928
v  3.7819 6.0000 0.1026
v  3.5000 6.0000 -0.0000
v  -3.5000 0.0000 -6.9000
v  -3.2181 0.0000 -7.0026
v  -3.2000 0.0000 -6.9000
v  -3.2702 0.0000 -7.0928
v  -3.3500 0.0000 -7.1598
v  -3.4479 0.0000 -7.1954
v  -3.5521 0.0000 -7.1954
v  -3.6500 0.0000 -7.1598
v  -3.7298 0.0000 -7.0928
v  -3.7819 0.0000 -7.0026
v  -3.8000 0.0000 -6.9000
v  -3.7819 0.0000 -6.7974
v  -3.7298 0.0000 -6.7072
v  -3.6500 0.0000 -6.6402
v  -3.5521 0.0000 -6.6046
v  -3.4479 0.0000 -6.6046
v  -3.3500 0.0000 -6.6402
v  -3.2702 0.0000 -6.7072
v  -3.2181 0.0000 -6.7974
v  -3.2181 4.8000 -7.0026
v  -3.2702 4.8000 -7.0928
v  -3.3500 4.8000 -7.1598
v  -3.4479 2.4000 -7.1954
v  -3.5521 4.8000 -7.1954
v  -3.6500 4.8000 -7.1598
v  -3.7298 1.2000 -7.0928
v  -3.7819 4.8000 -7.0026
v  -3.8000 2.4000 -6.9000
v  -3.7819 4.8000 -6.7974
v  -3.7298 2.4000 -6.7072
v  -3.6500 4.8000 -6.6402
v  -3.5521 4.8000 -6.6046
v  -3.4479 4.8000 -6.6046
v  -3.3500 4.8000 -6.6402
v  -3.2702 4.8000 -6.7072
v  -3.2181 4.8000 -6.7974
v  -3.2000 4.8000 -6.9000
v  -3.2181 6.0000 -7.0026
v  -3.2000 6.0000 -6.9000
v  -3.2702 6.0000 -7.0928
v  -3.3500 6.0000 -7.1598
v  -3.4479 6.0000 -7.1954
v  -3.4479 4.8000 -7.1954
v  -3.5521 6.0000 -7.1954
v  -3.6500 6.0000 -7.1598
v  -3.7298 6.0000 -7.0928
v  -3.7298 4.8000 -7.0928
v  -3.7819 6.0000 -7.0026
v  -3.8000 6.0000 -6.9000
v  -3.8000 4.8000 -6.9000
v  -3.7819 6.0000 -6.7974
v  -3.7298 6.0000 -6.7072
v  -3.7298 4.8000 -6.7072
v  -3.6500 6.0000 -6.6402
v  -3.5521 6.0000 -6.6046
v  -3.4479 6.0000 -6.6046
v  -3.3500 6.0000 -6.6402
v  -3.2702 6.0000 -6.7072
v  -3.2181 6.0000 -6.7974
v  -3.5000 6.0000 -6.9000
v  3.5000 0.0000 -6.9000
v  3.7819 0.0000 -7.0026
v  3.8000 0.0000 -6.9000
v  3.7298 0.0000 -7.0928
v  3.6500 0.0000 -7.1598
v  3.5521 0.0000 -7.1954
v  3.4479 0.0000 -7.1954
v  3.3500 0.0000 -7.1598
v  3.2702 0.0000 -7.0928
v  3.2181 0.0000 -7.0026
v  3.2000 0.0000 -6.9000
v  3.2181 0.0000 -6.7974
v  3.2702 0.0000 -6.7072
v  3.3500 0.0000 -6.6402
v  3.4479 0.0000 -6.6046
v  3.5521 0.0000 -6.6046
v  3.6500 0.0000 -6.6402
v  3.7298 0.0000 -6.7072
v  3.7819 0.0000 -6.7974
v  3.7819 4.8000 -7.0026
v  3.7298 4.8000 -7.0928
v  3.6500 4.8000 -7.1598
v  3.5521 2.4000 -7.1954
v  3.4479 4.8000 -7.1954
v  3.3500 4.8000 -7.1598
v  3.2702 1.2000 -7.0928
v  3.2181 4.8000 -7.0026
v  3.2000 2.4000 -6.9000
v  3.2181 4.8000 -6.7974
v  3.2702 2.4000 -6.7072
v  3.3500 4.8000 -6.6402
v  3.4479 4.8000 -6.6046
v  3.5521 4.8000 -6.6046
v  3.6500 4.8000 -6.6402
v  3.7298 4.8000 -6.7072
v  3.7819 4.8000 -6.7974
v  3.8000 4.8000 -6.9000
v  3.7819 6.0000 -7.0026
v  3.8000 6.0000 -6.9000
v  3.7298 6.0000 -7.0928
v  3.6500 6.0000 -7.1598
v  3.5521 6.0000 -7.1954
v  3.5521 4.8000 -7.1954
v  3.4479 6.0000 -7.1954
v  3.3500 6.0000 -7.1598
v  3.2702 6.0000 -7.0928
v  3.2702 4.8000 -7.0928
v  3.2181 6.0000 -7.0026
v  3.2000 6.0000 -6.9000
v  3.2000 4.8000 -6.9000
v  3.2181 6.0000 -6.7974
v  3.2702 6.0000 -6.7072
v  3.2702 4.8000 -6.7072
v  3.3500 6.0000 -6.6402
v  3.4479 6.0000 -6.6046
v  3.5521 6.0000 -6.6046
v  3.6500 6.0000 -6.6402
v  3.7298 6.0000 -6.7072
v  3.7819 6.0000 -6.7974
v  3.5000 6.0000 -6.9000
v  -3.5000 0.0000 -13.8000
v  -3.2181 0.0000 -13.9026
v  -3.2000 0.0000 -13.8000
v  -3.2702 0.0000 -13.9928
v  -3.3500 0.0000 -14.0598
v  -3.4479 0.0000 -14.0954
v  -3.5521 0.0000 -14.0954
v  -3.6500 0.0000 -14.0598
v  -3.7298 0.0000 -13.9928
v  -3.7819 0.0000 -13.9026
v  -3.8000 0.0000 -13.8000
v  -3.7819 0.0000 -13.6974
v  -3.7298 0.0000 -13.6072
v  -3.6500 0.0000 -13.5402
v  -3.5521 0.0000 -13.5046
v  -3.4479 0.0000 -13.5046
v  -3.3500 0.0000 -13.5402
v  -3.2702 0.0000 -13.6072
v  -3.2181 0.0000 -13.6974
v  -3.2181 4.8000 -13.9026
v  -3.2702 4.8000 -13.9928
v  -3.3500 4.8000 -14.0598
v  -3.4479 2.4000 -14.0954
v  -3.5521 4.8000 -14.0954
v  -3.6500 4.8000 -14.0598
v  -3.7298 1.2000 -13.9928
v  -3.7819 4.8000 -13.9026
v  -3.8000 2.4000 -13.8000
v  -3.7819 4.8000 -13.6974
v  -3.7298 2.4000 -13.6072
v  -3.6500 4.8000 -13.5402
v  -3.5521 4.8000 -13.5046
v  -3.4479 4.8000 -13.5046
v  -3.3500 4.8000 -13.5402
v  -3.2702 4.8000 -13.6072
v  -3.2181 4.8000 -13.6974
v  -3.2000 4.8000 -13.8000
v  -3.2181 6.0000 -13.9026
v  -3.2000 6.0000 -13.8000
v  -3.2702 6.0000 -13.9928
v  -3.3500 6.0000 -14.0598
v  -3.4479 6.0000 -14.0954
v  -3.4479 4.8000 -14.0954
v  -3.5521 6.0000 -14.0954
v  -3.6500 6.0000 -14.0598
v  -3.7298 6.0000 -13.9928
v  -3.7298 4.8000 -13.9928
v  -3.7819 6.0000 -13.9026
v  -3.8000 6.0000 -13.8000
v  -3.8000 4.8000 -13.8000
v  -3.7819 6.0000 -13.6974
v  -3.7298 6.0000 -13.6072
v  -3.7298 4.8000 -13.6072
v  -3.6500 6.0000 -13.5402
v  -3.5521 6.0000 -13.5046
v  -3.4479 6.0000 -13.5046
v  -3.3500 6.0000 -13.5402
v  -3.2702 6.0000 -13.6072
v  -3.2181 6.0000 -13.6974
v  -3.5000 6.0000 -13.8000
v  3.5000 0.0000 -13.8000
v  3.7819 0.0000 -13.9026
v  3.8000 0.0000 -13.8000
v  3.7298 0.0000 -13.9928
v  3.6500 0.0000 -14.0598
v  3.5521 0.0000 -14.0954
v  3.4479 0.0000 -14.0954
v  3.3500 0.0000 -14.0598
v  3.2702 0.0000 -13.9928
v  3.2181 0.0000 -13.9026
v  3.2000 0.0000 -13.8000
v  3.2181 0.0000 -13.6974
v  3.2702 0.0000 -13.6072
v  3.3500 0.0000 -13.5402
v  3.4479 0.0000 -13.5046
v  3.5521 0.0000 -13.5046
v  3.6500 0.0000 -13.5402
v  3.7298 0.0000 -13.6072
v  3.7819 0.0000 -13.6974
v  3.7819 4.8000 -13.9026
v  3.7298 4.8000 -13.9928
v  3.6500 4.8000 -14.0598
v  3.5521 2.4000 -14.0954
v  3.4479 4.8000 -14.0954
v  3.3500 4.8000 -14.0598
v  3.2702 1.2000 -13.9928
v  3.2181 4.8000 -13.9026
v  3.2000 2.4000 -13.8000
v  3.2181 4.8000 -13.6974
v  3.2702 2.4000 -13.6072
v  3.3500 4.8000 -13.5402
v  3.4479 4.8000 -13.5046
v  3.5521 4.8000 -13.5046
v  3.6500 4.8000 -13.5402
v  3.7298 4.8000 -13.6072
v  3.7819 4.8000 -13.6974
v  3.8000 4.8000 -13.8000
v  3.7819 6.0000 -13.9026
v  3.8000 6.0000 -13.8000
v  3.7298 6.0000 -13.9928
v  3.6500 6.0000 -14.0598
v  3.5521 6.0000 -14.0954
v  3.5521 4.8000 -14.0954
v  3.4479 6.0000 -14.0954
v  3.3500 6.0000 -14.0598
v  3.2702 6.0000 -13.9928
v  3.2702 4.8000 -13.9928
v  3.2181 6.0000 -13.9026
v  3.2000 6.0000 -13.8000
v  3.2000 4.8000 -13.8000
v  3.2181 6.0000 -13.6974
v  3.2702 6.0000 -13.6072
v  3.2702 4.8000 -13.6072
v  3.3500 6.0000 -13.5402
v  3.4479 6.0000 -13.5046
v  3.5521 6.0000 -13.5046
v  3.6500 6.0000 -13.5402
v  3.7298 6.0000 -13.6072
v  3.7819 6.0000 -13.6974
v  3.5000 6.0000 -13.8000
v  -3.5000 0.0000 -20.7000
v  -3.2181 0.0000 -20.8026
v  -3.2000 0.0000 -20.7000
v  -3.2702 0.0000 -20.8928
v  -3.3500 0.0000 -20.9598
v  -3.4479 0.0000 -20.9954
v  -3.5521 0.0000 -20.9954
v  -3.6500 0.0000 -20.9598
v  -3.7298 0.0000 -20.8928
v  -3.7819 0.0000 -20.8026
v  -3.8000 0.0000 -20.7000
v  -3.7819 0.0000 -20.5974
v  -3.7298 0.0000 -20.5072
v  -3.6500 0.0000 -20.4402
v  -3.5521 0.0000 -20.4046
v  -3.4479 0.0000 -20.4046
v  -3.3500 0.0000 -20.4402
v  -3.2702 0.0000 -20.5072
v  -3.2181 0.0000 -20.5974
v  -3.2181 4.8000 -20.8026
v  -3.2702 4.8000 -20.8928
v  -3.3500 4.8000 -20.9598
v  -3.4479 2.4000 -20.9954
v  -3.5521 4.8000 -20.9954
v  -3.6500 4.8000 -20.9598
v  -3.7298 1.2000 -20.8928
v  -3.7819 4.8000 -20.8026
v  -3.8000 2.4000 -20.7000
v  -3.7819 4.8000 -20.5974
v  -3.7298 2.4000 -20.5072
v  -3.6500 4.8000 -20.4402
v  -3.5521 4.8000 -20.4046
v  -3.4479 4.8000 -20.4046
v  -3.3500 4.8000 -20.4402
v  -3.2702 4.8000 -20.5072
v  -3.2181 4.8000 -20.5974
v  -3.2000 4.8000 -20.7000
v  -3.2181 6.0000 -20.8026
v  -3.2000 6.0000 -20.7000
v  -3.2702 6.0000 -20.8928
v  -3.3500 6.0000 -20.9598
v  -3.4479 6.0000 -20.9954
v  -3.4479 4.8000 -20.9954
v  -3.5521 6.0000 -20.9954
v  -3.6500 6.0000 -20.9598
v  -3.7298 6.0000 -20.8928
v  -3.7298 4.8000 -20.8928
v  -3.7819 6.0000 -20.8026
v  -3.8000 6.0000 -20.7000
v  -3.8000 4.8000 -20.7000
v  -3.7819 6.0000 -20.5974
v  -3.7298 6.0000 -20.5072
v  -3.7298 4.8000 -20.5072
v  -3.6500 6.0000 -20.4402
v  -3.5521 6.0000 -20.4046
v  -3.4479 6.0000 -20.4046
v  -3.3500 6.0000 -20.4402
v  -3.2702 6.0000 -20.5072
v  -3.2181 6.0000 -20.5974
v  -3.5000 6.0000 -20.7000
v  3.5000 0.0000 -20.7000
v  3.7819 0.0000 -20.8026
v  3.8000 0.0000 -20.7000
v  3.7298 0.0000 -20.8928
v  3.6500 0.0000 -20.9598
v  3.5521 0.0000 -20.9954
v  3.4479 0.0000 -20.9954
v  3.3500 0.0000 -20.9598
v  3.2702 0.0000 -20.8928
v  3.2181 0.0000 -20.8026
v  3.2000 0.0000 -20.7000
v  3.2181 0.0000 -20.5974
v  3.2702 0.0000 -20.5072
v  3.3500 0.0000 -20.4402
v  3.4479 0.0000 -20.4046
v  3.5521 0.0000 -20.4046
v  3.6500 0.0000 -20.4402
v  3.7298 0.0000 -20.5072
v  3.7819 0.0000 -20.5974
v  3.7819 4.8000 -20.8026
v  3.7298 4.8000 -20.8928
v  3.6500 4.8000 -20.9598
v  3.5521 2.4000 -20.9954
v  3.4479 4.8000 -20.9954
v  3.3500 4.8000 -20.9598
v  3.2702 1.2000 -20.8928
v  3.2181 4.8000 -20.8026
v  3.2000 2.4000 -20.7000
v  3.2181 4.8000 -20.5974
v  3.2702 2.4000 -20.5072
v  3.3500 4.8000 -20.4402
v  3.4479 4.8000 -20.4046
v  3.5521 4.8000 -20.4046
v  3.6500 4.8000 -20.4402
v  3.7298 4.8000 -20.5072
v  3.7819 4.8000 -20.5974
v  3.8000 4.8000 -20.7000
v  3.7819 6.0000 -20.8026
v  3.8000 6.0000 -20.7000
v  3.7298 6.0000 -20.8928
v  3.6500 6.0000 -20.9598
v  3.5521 6.0000 -20.9954
v  3.5521 4.8000 -20.9954
v  3.4479 6.0000 -20.9954
v  3.3500 6.0000 -20.9598
v  3.2702 6.0000 -20.8928
v  3.2702 4.8000 -20.8928
v  3.2181 6.0000 -20.8026
v  3.2000 6.0000 -20.7000
v  3.2000 4.8000 -20.7000
v  3.2181 6.0000 -20.5974
v  3.2702 6.0000 -20.5072
v  3.2702 4.8000 -20.5072
v  3.3500 6.0000 -20.4402
v  3.4479 6.0000 -20.4046
v  3.5521 6.0000 -20.4046
v  3.6500 6.0000 -20.4402
v  3.7298 6.0000 -20.5072
v  3.7819 6.0000 -20.5974
v  3.5000 6.0000 -20.7000
v  -3.5000 0.0000 -27.6000
v  -3.2181 0.0000 -27.7026
v  -3.2000 0.0000 -27.6000
v  -3.2702 0.0000 -27.7928
v  -3.3500 0.0000 -27.8598
v  -3.4479 0.0000 -27.8954
v  -3.5521 0.0000 -27.8954
v  -3.6500 0.0000 -27.8598
v  -3.7298 0.0000 -27.7928
v  -3.7819 0.0000 -27.7026
v  -3.8000 0.0000 -27.6000
v  -3.7819 0.0000 -27.4974
v  -3.7298 0.0000 -27.4072
v  -3.6500 0.0000 -27.3402
v  -3.5521 0.0000 -27.3046
v  -3.4479 0.0000 -27.3046
v  -3.3500 0.0000 -27.3402
v  -3.2702 0.0000 -27.4072
v  -3.2181 0.0000 -27.4974
v  -3.2181 4.8000 -27.7026
v  -3.2702 4.8000 -27.7928
v  -3.3500 4.8000 -27.8598
v  -3.4479 2.4000 -27.8954
v  -3.5521 4.8000 -27.8954
v  -3.6500 4.8000 -27.8598
v  -3.7298 1.2000 -27.7928
v  -3.7819 4.8000 -27.7026
v  -3.8000 2.4000 -27.6000
v  -3.7819 4.8000 -27.4974
v  -3.7298 2.4000 -27.4072
v  -3.6500 4.8000 -27.3402
v  -3.5521 4.8000 -27.3046
v  -3.4479 4.8000 -27.3046
v  -3.3500 4.8000 -27.3402
v  -3.2702 4.8000 -27.4072
v  -3.2181 4.8000 -27.4974
v  -3.2000 4.8000 -27.6000
v  -3.2181 6.0000 -27.7026
v  -3.2000 6.0000 -27.6000
v  -3.2702 6.0000 -27.7928
v  -3.3500 6.0000 -27.8598
v  -3.4479 6.0000 -27.8954
v  -3.4479 4.8000 -27.8954
v  -3.5521 6.0000 -27.8954
v  -3.6500 6.0000 -27.8598
v  -3.7298 6.0000 -27.7928
v  -3.7298 4.8000 -27.7928
v  -3.7819 6.0000 -27.7026
v  -3.8000 6.0000 -27.6000
v  -3.8000 4.8000 -27.6000
v  -3.7819 6.0000 -27.4974
v  -3.7298 6.0000 -27.4072
v  -3.7298 4.8000 -27.4072
v  -3.6500 6.0000 -27.3402
v  -3.5521 6.0000 -27.3046
v  -3.4479 6.0000 -27.3046
v  -3.3500 6.0000 -27.3402
v  -3.2702 6.0000 -27.4072
v  -3.2181 6.0000 -27.4974
v  -3.5000 6.0000 -27.6000
v  3.5000 0.0000 -27.6000
v  3.7819 0.0000 -27.7026
v  3.8000 0.0000 -27.6000
v  3.7298 0.0000 -27.7928
v  3.6500 0.0000 -27.8598
v  3.5521 0.0000 -27.8954
v  3.4479 0.0000 -27.8954
v  3.3500 0.0000 -27.8598
v  3.2702 0.0000 -27.7928
v  3.2181 0.0000 -27.7026
v  3.2000 0.0000 -27.6000
v  3.2181 0.0000 -27.4974
v  3.2702 0.0000 -27.4072
v  3.3500 0.0000 -27.3402
v  3.4479 0.0000 -27.3046
v  3.5521 0.0000 -27.3046
v  3.6500 0.0000 -27.3402
v  3.7298 0.0000 -27.4072
v  3.7819 0.0000 -27.4974
v  3.7819 4.8000 -27.7026
v  3.7298 4.8000 -27.7928
v  3.6500 4.8000 -27.8598
v  3.5521 2.4000 -27.8954
v  3.4479 4.8000 -27.8954
v  3.3500 4.8000 -27.8598
v  3.2702 1.2000 -27.7928
v  3.2181 4.8000 -27.7026
v  3.2000 2.4000 -27.6000
v  3.2181 4.8000 -27.4974
v  3.2702 2.4000 -27.4072
v  3.3500 4.8000 -27.3402
v  3.4479 4.8000 -27.3046
v  3.5521 4.8000 -27.3046
v  3.6500 4.8000 -27.3402
v  3.7298 4.8000 -27.4072
v  3.7819 4.8000 -27.4974
v  3.8000 4.8000 -27.6000
v  3.7819 6.0000 -27.7026
v  3.8000 6.0000 -27.6000
v  3.7298 6.0000 -27.7928
v  3.6500 6.0000 -27.8598
v  3.5521 6.0000 -27.8954
v  3.5521 4.8000 -27.8954
v  3.4479 6.0000 -27.8954
v  3.3500 6.0000 -27.8598
v  3.2702 6.0000 -27.7928
v  3.2702 4.8000 -27.7928
v  3.2181 6.0000 -27.7026
v  3.2000 6.0000 -27.6000
v  3.2000 4.8000 -27.6000
v  3.2181 6.0000 -27.4974
v  3.2702 6.0000 -27.4072
v  3.2702 4.8000 -27.4072
v  3.3500 6.0000 -27.3402
v  3.4479 6.0000 -27.3046
v  3.5521 6.0000 -27.3046
v  3.6500 6.0000 -27.3402
v  3.7298 6.0000 -27.4072
v  3.7819 6.0000 -27.4974
v  3.5000 6.0000 -27.6000
v  -3.5000 0.0000 6.9000
v  -3.2181 0.0000 6.7974
v  -3.2000 0.0000 6.9000
v  -3.2702 0.0000 6.7072
v  -3.3500 0.0000 6.6402
v  -3.4479 0.0000 6.6046
v  -3.5521 0.0000 6.6046
v  -3.6500 0.0000 6.6402
v  -3.7298 0.0000 6.7072
v  -3.7819 0.0000 6.7974
v  -3.8000 0.0000 6.9000
v  -3.7819 0.0000 7.0026
v  -3.7298 0.0000 7.0928
v  -3.6500 0.0000 7.1598
v  -3.5521 0.0000 7.1954
v  -3.4479 0.0000 7.1954
v  -3.3500 0.0000 7.1598
v  -3.2702 0.0000 7.0928
v  -3.2181 0.0000 7.0026
v  -3.2181 4.8000 6.7974
v  -3.2702 4.8000 6.7072
v  -3.3500 4.8000 6.6402
v  -3.4479 2.4000 6.6046
v  -3.5521 4.8000 6.6046
v  -3.6500 4.8000 6.6402
v  -3.7298 1.2000 6.7072
v  -3.7819 4.8000 6.7974
v  -3.8000 2.4000 6.9000
v  -3.7819 4.8000 7.0026
v  -3.7298 2.4000 7.0928
v  -3.6500 4.8000 7.1598
v  -3.5521 4.8000 7.1954
v  -3.4479 4.8000 7.1954
v  -3.3500 4.8000 7.1598
v  -3.2702 4.8000 7.0928
v  -3.2181 4.8000 7.0026
v  -3.2000 4.8000 6.9000
v  -3.2181 6.0000 6.7974
v  -3.2000 6.0000 6.9000
v  -3.2702 6.0000 6.7072
v  -3.3500 6.0000 6.6402
v  -3.4479 6.0000 6.6046
v  -3.4479 4.8000 6.6046
v  -3.5521 6.0000 6.6046
v  -3.6500 6.0000 6.6402
v  -3.7298 6.0000 6.7072
v  -3.7298 4.8000 6.7072
v  -3.7819 6.0000 6.7974
v  -3.8000 6.0000 6.9000
v  -3.8000 4.8000 6.9000
v  -3.7819 6.0000 7.0026
v  -3.7298 6.0000 7.0928
v  -3.7298 4.8000 7.0928
v  -3.6500 6.0000 7.1598
v  -3.5521 6.0000 7.1954
v  -3.4479 6.0000 7.1954
v  -3.3500 6.0000 7.1598
v  -3.2702 6.0000 7.0928
v  -3.2181 6.0000 7.0026
v  -3.5000 6.0000 6.9000
v  3.5000 0.0000 6.9000
v  3.7819 0.0000 6.7974
v  3.8000 0.0000 6.9000
v  3.7298 0.0000 6.7072
v  3.6500 0.0000 6.6402
v  3.5521 0.0000 6.6046
v  3.4479 0.0000 6.6046
v  3.3500 0.0000 6.6402
v  3.2702 0.0000 6.7072
v  3.2181 0.0000 6.7974
v  3.2000 0.0000 6.9000
v  3.2181 0.0000 7.0026
v  3.2702 0.0000 7.0928
v  3.3500 0.0000 7.1598
v  3.4479 0.0000 7.1954
v  3.5521 0.0000 7.1954
v  3.6500 0.0000 7.1598
v  3.7298 0.0000 7.0928
v  3.7819 0.0000 7.0026
v  3.7819 4.8000 6.7974
v  3.7298 4.8000 6.7072
v  3.6500 4.8000 6.6402
v  3.5521 2.4000 6.6046
v  3.4479 4.8000 6.6046
v  3.3500 4.8000 6.6402
v  3.2702 1.2000 6.7072
v  3.2181 4.8000 6.7974
v  3.2000 2.4000 6.9000
v  3.2181 4.8000 7.0026
v  3.2702 2.4000 7.0928
v  3.3500 4.8000 7.1598
v  3.4479 4.8000 7.1954
v  3.5521 4.8000 7.1954
v  3.6500 4.8000 7.1598
v  3.7298 4.8000 7.0928
v  3.7819 4.8000 7.0026
v  3.8000 4.8000 6.9000
v  3.7819 6.0000 6.7974
v  3.8000 6.0000 6.9000
v  3.7298 6.0000 6.7072
v  3.6500 6.0000 6.6402
v  3.5521 6.0000 6.6046
v  3.5521 4.8000 6.6046
v  3.4479 6.0000 6.6046
v  3.3500 6.0000 6.6402
v  3.2702 6.0000 6.7072
v  3.2702 4.8000 6.7072
v  3.2181 6.0000 6.7974
v  3.2000 6.0000 6.9000
v  3.2000 4.8000 6.9000
v  3.2181 6.0000 7.0026
v  3.2702 6.0000 7.0928
v  3.2702 4.8000 7.0928
v  3.3500 6.0000 7.1598
v  3.4479 6.0000 7.1954
v  3.5521 6.0000 7.1954
v  3.6500 6.0000 7.1598
v  3.7298 6.0000 7.0928
v  3.7819 6.0000 7.0026
v  3.5000 6.0000 6.9000
v  -3.5000 0.0000 13.8000
v  -3.2181 0.0000 13.6974
v  -3.2000 0.0000 13.8000
v  -3.2702 0.0000 13.6072
v  -3.3500 0.0000 13.5402
v  -3.4479 0.0000 13.5046
v  -3.5521 0.0000 13.5046
v  -3.6500 0.0000 13.5402
v  -3.7298 0.0000 13.6072
v  -3.7819 0.0000 13.6974
v  -3.8000 0.0000 13.8000
v  -3.7819 0.0000 13.9026
v  -3.7298 0.0000 13.9928
v  -3.6500 0.0000 14.0598
v  -3.5521 0.0000 14.0954
v  -3.4479 0.0000 14.0954
v  -3.3500 0.0000 14.0598
v  -3.2702 0.0000 13.9928
v  -3.2181 0.0000 13.9026
v  -3.2181 4.8000 13.6974
v  -3.2702 4.8000 13.6072
v  -3.3500 4.8000 13.5402
v  -3.4479 2.4000 13.5046
v  -3.5521 4.8000 13.5046
v  -3.6500 4.8000 13.5402
v  -3.7298 1.2000 13.6072
v  -3.7819 4.8000 13.6974
v  -3.8000 2.4000 13.8000
v  -3.7819 4.8000 13.9026
v  -3.7298 2.4000 13.9928
v  -3.6500 4.8000 14.0598
v  -3.5521 4.8000 14.0954
v  -3.4479 4.8000 14.0954
v  -3.3500 4.8000 14.0598
v  -3.2702 4.8000 13.9928
v  -3.2181 4.8000 13.9026
v  -3.2000 4.8000 13.8000
v  -3.2181 6.0000 13.6974
v  -3.2000 6.0000 13.8000
v  -3.2702 6.0000 13.6072
v  -3.3500 6.0000 13.5402
v  -3.4479 6.0000 13.5046
v  -3.4479 4.8000 13.5046
v  -3.5521 6.0000 13.5046
v  -3.6500 6.0000 13.5402
v  -3.7298 6.0000 13.6072
v  -3.7298 4.8000 13.6072
v  -3.7819 6.0000 13.6974
v  -3.8000 6.0000 13.8000
v  -3.8000 4.8000 13.8000
v  -3.7819 6.0000 13.9026
v  -3.7298 6.0000 13.9928
v  -3.7298 4.8000 13.9928
v  -3.6500 6.0000 14.0598
v  -3.5521 6.0000 14.0954
v  -3.4479 6.0000 14.0954
v  -3.3500 6.0000 14.0598
v  -3.2702 6.0000 13.9928
v  -3.2181 6.0000 13.9026
v  -3.5000 6.0000 13.8000
v  3.5000 0.0000 13.8000
v  3.7819 0.0000 13.6974
v  3.8000 0.0000 13.8000
v  3.7298 0.0000 13.6072
v  3.6500 0.0000 13.5402
v  3.5521 0.0000 13.5046
v  3.4479 0.0000 13.5046
v  3.3500 0.0000 13.5402
v  3.2702 0.0000 13.6072
v  3.2181 0.0000 13.6974
v  3.2000 0.0000 13.8000
v  3.2181 0.0000 13.9026
v  3.2702 0.0000 13.9928
v  3.3500 0.0000 14.0598
v  3.4479 0.0000 14.0954
v  3.5521 0.0000 14.0954
v  3.6500 0.0000 14.0598
v  3.7298 0.0000 13.9928
v  3.7819 0.0000 13.9026
v  3.7819 4.8000 13.6974
v  3.7298 4.8000 13.6072
v  3.6500 4.8000 13.5402
v  3.5521 2.4000 13.5046
v  3.4479 4.8000 13.5046
v  3.3500 4.8000 13.5402
v  3.2702 1.2000 13.6072
v  3.2181 4.8000 13.6974
v  3.2000 2.4000 13.8000
v  3.2181 4.8000 13.9026
v  3.2702 2.4000 13.9928
v  3.3500 4.8000 14.0598
v  3.4479 4.8000 14.0954
v  3.5521 4.8000 14.0954
v  3.6500 4.8000 14.0598
v  3.7298 4.8000 13.9928
v  3.7819 4.8000 13.9026
v  3.8000 4.8000 13.8000
v  3.7819 6.0000 13.6974
v  3.8000 6.0000 13.8000
v  3.7298 6.0000 13.6072
v  3.6500 6.0000 13.5402
v  3.5521 6.0000 13.5046
v  3.5521 4.8000 13.5046
v  3.4479 6.0000 13.5046
v  3.3500 6.0000 13.5402
v  3.2702 6.0000 13.6072
v  3.2702 4.8000 13.6072
v  3.2181 6.0000 13.6974
v  3.2000 6.0000 13.8000
v  3.2000 4.8000 13.8000
v  3.2181 6.0000 13.9026
v  3.2702 6.0000 13.9928
v  3.2702 4.8000 13.9928
v  3.3500 6.0000 14.0598
v  3.4479 6.0000 14.0954
v  3.5521 6.0000 14.0954
v  3.6500 6.0000 14.0598
v  3.7298 6.0000 13.9928
v  3.7819 6.0000 13.9026
v  3.5000 6.0000 13.8000
v  -3.5000 0.0000 20.7000
v  -3.2181 0.0000 20.5974
v  -3.2000 0.0000 20.7000
v  -3.2702 0.0000 20.5072
v  -3.3500 0.0000 20.4402
v  -3.4479 0.0000 20.4046
v  -3.5521 0.0000 20.4046
v  -3.6500 0.0000 20.4402
v  -3.7298 0.0000 20.5072
v  -3.7819 0.0000 20.5974
v  -3.8000 0.0000 20.7000
v  -3.7819 0.0000 20.8026
v  -3.7298 0.0000 20.8928
v  -3.6500 0.0000 20.9598
v  -3.5521 0.0000 20.9954
v  -3.4479 0.0000 20.9954
v  -3.3500 0.0000 20.9598
v  -3.2702 0.0000 20.8928
v  -3.2181 0.0000 20.8026
v  -3.2181 4.8000 20.5974
v  -3.2702 4.8000 20.5072
v  -3.3500 4.8000 20.4402
v  -3.4479 2.4000 20.4046
v  -3.5521 4.8000 20.4046
v  -3.6500 4.8000 20.4402
v  -3.7298 1.2000 20.5072
v  -3.7819 4.8000 20.5974
v  -3.8000 2.4000 20.7000
v  -3.7819 4.8000 20.8026
v  -3.7298 2.4000 20.8928
v  -3.6500 4.8000 20.9598
v  -3.5521 4.8000 20.9954
v  -3.4479 4.8000 20.9954
v  -3.3500 4.8000 20.9598
v  -3.2702 4.8000 20.8928
v  -3.2181 4.8000 20.8026
v  -3.2000 4.8000 20.7000
v  -3.2181 6.0000 20.5974
v  -3.2000 6.0000 20.7000
v  -3.2702 6.0000 20.5072
v  -3.3500 6.0000 20.4402
v  -3.4479 6.0000 20.4046
v  -3.4479 4.8000 20.4046
v  -3.5521 6.0000 20.4046
v  -3.6500 6.0000 20.4402
v  -3.7298 6.0000 20.5072
v  -3.7298 4.8000 20.5072
v  -3.7819 6.0000 20.5974
v  -3.8000 6.0000 20.7000
v  -3.8000 4.8000 20.7000
v  -3.7819 6.0000 20.8026
v  -3.7298 6.0000 20.8928
v  -3.7298 4.8000 20.8928
v  -3.6500 6.0000 20.9598
v  -3.5521 6.0000 20.9954
v  -3.4479 6.0000 20.9954
v  -3.3500 6.0000 20.9598
v  -3.2702 6.0000 20.8928
v  -3.2181 6.0000 20.8026
v  -3.5000 6.0000 20.7000
v  3.5000 0.0000 20.7000
v  3.7819 0.0000 20.5974
v  3.8000 0.0000 20.7000
v  3.7298 0.0000 20.5072
v  3.6500 0.0000 20.4402
v  3.5521 0.0000 20.4046
v  3.4479 0.0000 20.4046
v  3.3500 0.0000 20.4402
v  3.2702 0.0000 20.5072
v  3.2181 0.0000 20.5974
v  3.2000 0.0000 20.7000
v  3.2181 0.0000 20.8026
v  3.2702 0.0000 20.8928
v  3.3500 0.0000 20.9598
v  3.4479 0.0000 20.9954
v  3.5521 0.0000 20.9954
v  3.6500 0.0000 20.9598
v  3.7298 0.0000 20.8928
v  3.7819 0.0000 20.8026
v  3.7819 4.8000 20.5974
v  3.7298 4.8000 20.5072
v  3.6500 4.8000 20.4402
v  3.5521 2.4000 20.4046
v  3.4479 4.8000 20.4046
v  3.3500 4.8000 20.4402
v  3.2702 1.2000 20.5072
v  3.2181 4.8000 20.5974
v  3.2000 2.4000 20.7000
v  3.2181 4.8000 20.8026
v  3.2702 2.4000 20.8928
v  3.3500 4.8000 20.9598
v  3.4479 4.8000 20.9954
v  3.5521 4.8000 20.9954
v  3.6500 4.8000 20.9598
v  3.7298 4.8000 20.8928
v  3.7819 4.8000 20.8026
v  3.8000 4.8000 20.7000
v  3.7819 6.0000 20.5974
v  3.8000 6.0000 20.7000
v  3.7298 6.0000 20.5072
v  3.6500 6.0000 20.4402
v  3.5521 6.0000 20.4046
v  3.5521 4.8000 20.4046
v  3.4479 6.0000 20.4046
v  3.3500 6.0000 20.4402
v  3.2702 6.0000 20.5072
v  3.2702 4.8000 20.5072
v  3.2181 6.0000 20.5974
v  3.2000 6.0000 20.7000
v  3.2000 4.8000 20.7000
v  3.2181 6.0000 20.8026
v  3.2702 6.0000 20.8928
v  3.2702 4.8000 20.8928
v  3.3500 6.0000 20.9598
v  3.4479 6.0000 20.9954
v  3.5521 6.0000 20.9954
v  3.6500 6.0000 20.9598
v  3.7298 6.0000 20.8928
v  3.7819 6.0000 20.8026
v  3.5000 6.0000 20.7000
v  -3.5000 0.0000 27.6000
v  -3.2181 0.0000 27.4974
v  -3.2000 0.0000 27.6000
v  -3.2702 0.0000 27.4072
v  -3.3500 0.0000 27.3402
v  -3.4479 0.0000 27.3046
v  -3.5521 0.0000 27.3046
v  -3.6500 0.0000 27.3402
v  -3.7298 0.0000 27.4072
v  -3.7819 0.0000 27.4974
v  -3.8000 0.0000 27.6000
v  -3.7819 0.0000 27.7026
v  -3.7298 0.0000 27.7928
v  -3.6500 0.0000 27.8598
v  -3.5521 0.0000 27.8954
v  -3.4479 0.0000 27.8954
v  -3.3500 0.0000 27.8598
v  -3.2702 0.0000 27.7928
v  -3.2181 0.0000 27.7026
v  -3.2181 4.8000 27.4974
v  -3.2702 4.8000 27.4072
v  -3.3500 4.8000 27.3402
v  -3.4479 2.4000 27.3046
v  -3.5521 4.8000 27.3046
v  -3.6500 4.8000 27.3402
v  -3.7298 1.2000 27.4072
v  -3.7819 4.8000 27.4974
v  -3.8000 2.4000 27.6000
v  -3.7819 4.8000 27.7026
v  -3.7298 2.4000 27.7928
v  -3.6500 4.8000 27.8598
v  -3.5521 4.8000 27.8954
v  -3.4479 4.8000 27.8954
v  -3.3500 4.8000 27.8598
v  -3.2702 4.8000 27.7928
v  -3.2181 4.8000 27.7026
v  -3.2000 4.8000 27.6000
v  -3.2181 6.0000 27.4974
v  -3.2000 6.0000 27.6000
v  -3.2702 6.0000 27.4072
v  -3.3500 6.0000 27.3402
v  -3.4479 6.0000 27.3046
v  -3.4479 4.8000 27.3046
v  -3.5521 6.0000 27.3046
v  -3.6500 6.0000 27.3402
v  -3.7298 6.0000 27.4072
v  -3.7298 4.8000 27.4072
v  -3.7819 6.0000 27.4974
v  -3.8000 6.0000 27.6000
v  -3.8000 4.8000 27.6000
v  -3.7819 6.0000 27.7026
v  -3.7298 6.0000 27.7928
v  -3.7298 4.8000 27.7928
v  -3.6500 6.0000 27.8598
v  -3.5521 6.0000 27.8954
v  -3.4479 6.0000 27.8954
v  -3.3500 6.0000 27.8598
v  -3.2702 6.0000 27.7928
v  -3.2181 6.0000 27.7026
v  -3.5000 6.0000 27.6000
v  3.5000 0.0000 27.6000
v  3.7819 0.0000 27.4974
v  3.8000 0.0000 27.6000
v  3.7298 0.0000 27.4072
v  3.6500 0.0000 27.3402
v  3.5521 0.0000 27.3046
v  3.4479 0.0000 27.3046
v  3.3500 0.0000 27.3402
v  3.2702 0.0000 27.4072
v  3.2181 0.0000 27.4974
v  3.2000 0.0000 27.6000
v  3.2181 0.0000 27.7026
v  3.2702 0.0000 27.7928
v  3.3500 0.0000 27.8598
v  3.4479 0.0000 27.8954
v  3.5521 0.0000 27.8954
v  3.6500 0.0000 27.8598
v  3.7298 0.0000 27.7928
v  3.7819 0.0000 27.7026
v  3.7819 4.8000 27.4974
v  3.7298 4.8000 27.4072
v  3.6500 4.8000 27.3402
v  3.5521 2.4000 27.3046
v  3.4479 4.8000 27.3046
v  3.3500 4.8000 27.3402
v  3.2702 1.2000 27.4072
v  3.2181 4.8000 27.4974
v  3.2000 2.4000 27.6000
v  3.2181 4.8000 27.7026
v  3.2702 2.4000 27.7928
v  3.3500 4.8000 27.8598
v  3.4479 4.8000 27.8954
v  3.5521 4.8000 27.8954
v  3.6500 4.8000 27.8598
v  3.7298 4.8000 27.7928
v  3.7819 4.8000 27.7026
v  3.8000 4.8000 27.6000
v  3.7819 6.0000 27.4974
v  3.8000 6.0000 27.6000
v  3.7298 6.0000 27.4072
v  3.6500 6.0000 27.3402
v  3.5521 6.0000 27.3046
v  3.5521 4.8000 27.3046
v  3.4479 6.0000 27.3046
v  3.3500 6.0000 27.3402
v  3.2702 6.0000 27.4072
v  3.2702 4.8000 27.4072
v  3.2181 6.0000 27.4974
v  3.2000 6.0000 27.6000
v  3.2000 4.8000 27.6000
v  3.2181 6.0000 27.7026
v  3.2702 6.0000 27.7928
v  3.2702 4.8000 27.7928
v  3.3500 6.0000 27.8598
v  3.4479 6.0000 27.8954
v  3.5521 6.0000 27.8954
v  3.6500 6.0000 27.8598
v  3.7298 6.0000 27.7928
v  3.7819 6.0000 27.7026
v  3.5000 6.0000 27.6000
# 1080 vertices

vn 0.0000 -1.0000 -0.0000
vn 1.0000 0.0000 0.0000
vn 0.9397 0.0000 -0.3420
vn 0.7660 0.0000 -0.6428
vn 0.5000 0.0000 -0.8660
vn 0.1736 0.0000 -0.9848
vn -0.1736 0.0000 -0.9848
vn -0.5000 0.0000 -0.8660
vn -0.7660 0.0000 -0.6428
vn -0.9397 0.0000 -0.3420
vn -1.0000 0.0000 -0.0000
vn -0.9397 0.0000 0.3420
vn -0.7660 0.0000 0.6428
vn -0.5000 0.0000 0.8660
vn -0.1736 0.0000 0.9848
vn 0.1736 0.0000 0.9848
vn 0.5000 0.0000 0.8660
vn 0.7660 0.0000 0.6428
vn 0.9397 0.0000 0.3420
vn 0.0000 1.0000 -0.0000
vn -1.0000 0.0000 0.0000
vn 1.0000 0.0000 -0.0000
vn 0.1737 0.0000 0.9848
# 23 vertex normals

vt 0.5000 0.0000 0.0000
vt 0.8048 0.0000 1.0136
vt 0.7500 0.0000 1.0154
vt 0.8599 0.0000 1.0091
vt 0.9156 0.0000 1.0039
vt 0.9718 0.0000 1.0005
vt 0.0282 0.0000 1.0005
vt -0.0282 0.0000 1.0005
vt 0.0844 0.0000 1.0039
vt 0.1401 0.0000 1.0091
vt 0.1952 0.0000 1.0136
vt 0.2500 0.0000 1.0154
vt 0.3048 0.0000 1.0136
vt 0.3599 0.0000 1.0091
vt 0.4156 0.0000 1.0039
vt 0.4718 0.0000 1.0005
vt 0.5282 0.0000 1.0005
vt 0.5844 0.0000 1.0039
vt 0.6401 0.0000 1.0091
vt 0.6952 0.0000 1.0136
vt 0.8048 1.4400 1.0136
vt 0.8599 1.4400 1.0091
vt 0.9156 1.4400 1.0039
vt 0.9718 0.7200 1.0005
vt 0.0282 1.4400 1.0005
vt 0.0844 1.4400 1.0039
vt 0.1401 0.3600 1.0091
vt 0.1952 1.4400 1.0136
vt 0.2500 0.7200 1.0154
vt 0.3048 1.4400 1.0136
vt 0.3599 0.7200 1.0091
vt 0.4156 1.4400 1.0039
vt 0.4718 1.4400 1.0005
vt 0.5282 1.4400 1.0005
vt 0.5844 1.4400 1.0039
vt 0.6401 1.4400 1.0091
vt 0.6952 1.4400 1.0136
vt 0.7500 1.4400 1.0154
vt 0.8048 1.8000 1.0136
vt 0.7500 1.8000 1.0154
vt 0.8599 1.8000 1.0091
vt 0.9156 1.8000 1.0039
vt 0.9718 1.8000 1.0005
vt -0.0282 1.4400 1.0005
vt 0.0282 1.8000 1.0005
vt -0.0282 1.8000 1.0005
vt 0.0844 1.8000 1.0039
vt 0.1401 1.8000 1.0091
vt 0.1401 1.4400 1.0091
vt 0.1952 1.8000 1.0136
vt 0.2500 1.8000 1.0154
vt 0.2500 1.4400 1.0154
vt 0.3048 1.8000 1.0136
vt 0.3599 1.8000 1.0091
vt 0.3599 1.4400 1.0091
vt 0.4156 1.8000 1.0039
vt 0.4718 1.8000 1.0005
vt 0.5282 1.8000 1.0005
vt 0.5844 1.8000 1.0039
vt 0.6401 1.8000 1.0091
vt 0.6952 1.8000 1.0136
vt 0.5000 1.8000 0.0000
vt -0.0282 0.7200 1.0005
vt 0.9718 1.4400 1.0005
# 64 texture coords

o Columnas
g Columnas
usemtl Material__57
s 1
f 1/1/1 2/2/1 3/3/1 
f 1/1/1 4/4/1 2/2/1 
f 1/1/1 5/5/1 4/4/1 
f 1/1/1 6/6/1 5/5/1 
f 1/1/1 7/7/1 6/8/1 
f 1/1/1 8/9/1 7/7/1 
f 1/1/1 9/10/1 8/9/1 
f 1/1/1 10/11/1 9/10/1 
f 1/1/1 11/12/1 10/11/1 
f 1/1/1 12/13/1 11/12/1 
f 1/1/1 13/14/1 12/13/1 
f 1/1/1 14/15/1 13/14/1 
f 1/1/1 15/16/1 14/15/1 
f 1/1/1 16/17/1 15/16/1 
f 1/1/1 17/18/1 16/17/1 
f 1/1/1 18/19/1 17/18/1 
f 1/1/1 19/20/1 18/19/1 
f 1/1/1 3/3/1 19/20/1 
s 8
f 3/3/2 2/2/3 20/21/3 
f 2/2/3 4/4/4 21/22/4 
f 4/4/4 5/5/5 22/23/5 
f 5/5/5 6/6/6 23/24/6 
f 6/8/6 7/7/7 24/25/7 
f 7/7/7 8/9/8 25/26/8 
f 8/9/8 9/10/9 26/27/9 
f 9/10/9 10/11/10 27/28/10 
f 10/11/10 11/12/11 28/29/11 
f 11/12/11 12/13/12 29/30/12 
f 12/13/12 13/14/13 30/31/13 
f 13/14/13 14/15/14 31/32/14 
f 14/15/14 15/16/15 32/33/15 
f 15/16/15 16/17/16 33/34/16 
f 16/17/16 17/18/17 34/35/17 
f 17/18/17 18/19/18 35/36/18 
f 18/19/18 19/20/19 36/37/19 
f 19/20/19 3/3/2 37/38/2 
f 37/38/2 38/39/3 39/40/2 
f 20/21/3 40/41/4 38/39/3 
f 21/22/4 41/42/5 40/41/4 
f 22/23/5 42/43/6 41/42/5 
f 43/44/6 44/45/7 42/46/6 
f 24/25/7 45/47/8 44/45/7 
f 25/26/8 46/48/9 45/47/8 
f 47/49/9 48/50/10 46/48/9 
f 27/28/10 49/51/11 48/50/10 
f 50/52/11 51/53/12 49/51/11 
f 29/30/12 52/54/13 51/53/12 
f 53/55/13 54/56/14 52/54/13 
f 31/32/14 55/57/15 54/56/14 
f 32/33/15 56/58/16 55/57/15 
f 33/34/16 57/59/17 56/58/16 
f 34/35/17 58/60/18 57/59/17 
f 35/36/18 59/61/19 58/60/18 
f 36/37/19 39/40/2 59/61/19 
s 1
f 60/62/20 39/40/20 38/39/20 
f 60/62/20 38/39/20 40/41/20 
f 60/62/20 40/41/20 41/42/20 
f 60/62/20 41/42/20 42/43/20 
f 60/62/20 42/46/20 44/45/20 
f 60/62/20 44/45/20 45/47/20 
f 60/62/20 45/47/20 46/48/20 
f 60/62/20 46/48/20 48/50/20 
f 60/62/20 48/50/20 49/51/20 
f 60/62/20 49/51/20 51/53/20 
f 60/62/20 51/53/20 52/54/20 
f 60/62/20 52/54/20 54/56/20 
f 60/62/20 54/56/20 55/57/20 
f 60/62/20 55/57/20 56/58/20 
f 60/62/20 56/58/20 57/59/20 
f 60/62/20 57/59/20 58/60/20 
f 60/62/20 58/60/20 59/61/20 
f 60/62/20 59/61/20 39/40/20 
s 8
f 8/9/8 26/27/9 25/26/8 
f 19/20/19 37/38/2 36/37/19 
f 36/37/19 37/38/2 39/40/2 
f 47/49/9 27/28/10 48/50/10 
f 14/15/14 32/33/15 31/32/14 
f 31/32/14 32/33/15 55/57/15 
f 5/5/5 23/24/6 22/23/5 
f 43/44/6 24/25/7 44/45/7 
f 16/17/16 34/35/17 33/34/16 
f 33/34/16 34/35/17 57/59/17 
f 2/2/3 21/22/4 20/21/3 
f 20/21/3 21/22/4 40/41/4 
f 11/12/11 29/30/12 28/29/11 
f 50/52/11 29/30/12 51/53/12 
f 53/55/13 31/32/14 54/56/14 
f 12/13/12 30/31/13 29/30/12 
f 7/7/7 25/26/8 24/25/7 
f 24/25/7 25/26/8 45/47/8 
f 18/19/18 36/37/19 35/36/18 
f 35/36/18 36/37/19 59/61/19 
f 4/4/4 22/23/5 21/22/4 
f 21/22/4 22/23/5 41/42/5 
f 26/27/9 27/28/10 47/49/9 
f 9/10/9 27/28/10 26/27/9 
f 3/3/2 20/21/3 37/38/2 
f 37/38/2 20/21/3 38/39/3 
f 10/11/10 28/29/11 27/28/10 
f 28/29/11 29/30/12 50/52/11 
f 15/16/15 33/34/16 32/33/15 
f 32/33/15 33/34/16 56/58/16 
f 17/18/17 35/36/18 34/35/17 
f 34/35/17 35/36/18 58/60/18 
f 25/26/8 47/49/9 46/48/9 
f 25/26/8 26/27/9 47/49/9 
f 23/63/6 24/25/7 43/44/6 
f 6/8/6 24/25/7 23/63/6 
f 22/23/5 43/64/6 42/43/6 
f 22/23/5 23/24/6 43/64/6 
f 30/31/13 31/32/14 53/55/13 
f 13/14/13 31/32/14 30/31/13 
f 29/30/12 53/55/13 52/54/13 
f 29/30/12 30/31/13 53/55/13 
f 27/28/10 28/29/11 50/52/11 
f 27/28/10 50/52/11 49/51/11 
s 1
f 61/1/1 62/2/1 63/3/1 
f 61/1/1 64/4/1 62/2/1 
f 61/1/1 65/5/1 64/4/1 
f 61/1/1 66/6/1 65/5/1 
f 61/1/1 67/7/1 66/8/1 
f 61/1/1 68/9/1 67/7/1 
f 61/1/1 69/10/1 68/9/1 
f 61/1/1 70/11/1 69/10/1 
f 61/1/1 71/12/1 70/11/1 
f 61/1/1 72/13/1 71/12/1 
f 61/1/1 73/14/1 72/13/1 
f 61/1/1 74/15/1 73/14/1 
f 61/1/1 75/16/1 74/15/1 
f 61/1/1 76/17/1 75/16/1 
f 61/1/1 77/18/1 76/17/1 
f 61/1/1 78/19/1 77/18/1 
f 61/1/1 79/20/1 78/19/1 
f 61/1/1 63/3/1 79/20/1 
s 8
f 63/3/2 62/2/3 80/21/3 
f 62/2/3 64/4/4 81/22/4 
f 64/4/4 65/5/5 82/23/5 
f 65/5/5 66/6/6 83/24/6 
f 66/8/6 67/7/7 84/25/7 
f 67/7/7 68/9/8 85/26/8 
f 68/9/8 69/10/9 86/27/9 
f 69/10/9 70/11/10 87/28/10 
f 70/11/10 71/12/21 88/29/11 
f 71/12/21 72/13/12 89/30/12 
f 72/13/12 73/14/13 90/31/13 
f 73/14/13 74/15/14 91/32/14 
f 74/15/14 75/16/15 92/33/15 
f 75/16/15 76/17/16 93/34/16 
f 76/17/16 77/18/17 94/35/17 
f 77/18/17 78/19/18 95/36/18 
f 78/19/18 79/20/19 96/37/19 
f 79/20/19 63/3/2 97/38/2 
f 97/38/2 98/39/3 99/40/2 
f 80/21/3 100/41/4 98/39/3 
f 81/22/4 101/42/5 100/41/4 
f 82/23/5 102/43/6 101/42/5 
f 103/44/6 104/45/7 102/46/6 
f 84/25/7 105/47/8 104/45/7 
f 85/26/8 106/48/9 105/47/8 
f 107/49/9 108/50/10 106/48/9 
f 87/28/10 109/51/11 108/50/10 
f 110/52/11 111/53/12 109/51/11 
f 89/30/12 112/54/13 111/53/12 
f 113/55/13 114/56/14 112/54/13 
f 91/32/14 115/57/15 114/56/14 
f 92/33/15 116/58/16 115/57/15 
f 93/34/16 117/59/17 116/58/16 
f 94/35/17 118/60/18 117/59/17 
f 95/36/18 119/61/19 118/60/18 
f 96/37/19 99/40/2 119/61/19 
s 1
f 120/62/20 99/40/20 98/39/20 
f 120/62/20 98/39/20 100/41/20 
f 120/62/20 100/41/20 101/42/20 
f 120/62/20 101/42/20 102/43/20 
f 120/62/20 102/46/20 104/45/20 
f 120/62/20 104/45/20 105/47/20 
f 120/62/20 105/47/20 106/48/20 
f 120/62/20 106/48/20 108/50/20 
f 120/62/20 108/50/20 109/51/20 
f 120/62/20 109/51/20 111/53/20 
f 120/62/20 111/53/20 112/54/20 
f 120/62/20 112/54/20 114/56/20 
f 120/62/20 114/56/20 115/57/20 
f 120/62/20 115/57/20 116/58/20 
f 120/62/20 116/58/20 117/59/20 
f 120/62/20 117/59/20 118/60/20 
f 120/62/20 118/60/20 119/61/20 
f 120/62/20 119/61/20 99/40/20 
s 8
f 68/9/8 86/27/9 85/26/8 
f 79/20/19 97/38/2 96/37/19 
f 96/37/19 97/38/2 99/40/2 
f 107/49/9 87/28/10 108/50/10 
f 74/15/14 92/33/15 91/32/14 
f 91/32/14 92/33/15 115/57/15 
f 65/5/5 83/24/6 82/23/5 
f 103/44/6 84/25/7 104/45/7 
f 76/17/16 94/35/17 93/34/16 
f 93/34/16 94/35/17 117/59/17 
f 62/2/3 81/22/4 80/21/3 
f 80/21/3 81/22/4 100/41/4 
f 71/12/21 89/30/12 88/29/11 
f 110/52/11 89/30/12 111/53/12 
f 113/55/13 91/32/14 114/56/14 
f 72/13/12 90/31/13 89/30/12 
f 67/7/7 85/26/8 84/25/7 
f 84/25/7 85/26/8 105/47/8 
f 78/19/18 96/37/19 95/36/18 
f 95/36/18 96/37/19 119/61/19 
f 64/4/4 82/23/5 81/22/4 
f 81/22/4 82/23/5 101/42/5 
f 86/27/9 87/28/10 107/49/9 
f 69/10/9 87/28/10 86/27/9 
f 63/3/2 80/21/3 97/38/2 
f 97/38/2 80/21/3 98/39/3 
f 70/11/10 88/29/11 87/28/10 
f 88/29/11 89/30/12 110/52/11 
f 75/16/15 93/34/16 92/33/15 
f 92/33/15 93/34/16 116/58/16 
f 77/18/17 95/36/18 94/35/17 
f 94/35/17 95/36/18 118/60/18 
f 85/26/8 107/49/9 106/48/9 
f 85/26/8 86/27/9 107/49/9 
f 83/63/6 84/25/7 103/44/6 
f 66/8/6 84/25/7 83/63/6 
f 82/23/5 103/64/6 102/43/6 
f 82/23/5 83/24/6 103/64/6 
f 90/31/13 91/32/14 113/55/13 
f 73/14/13 91/32/14 90/31/13 
f 89/30/12 113/55/13 112/54/13 
f 89/30/12 90/31/13 113/55/13 
f 87/28/10 88/29/11 110/52/11 
f 87/28/10 110/52/11 109/51/11 
s 1
f 121/1/1 122/2/1 123/3/1 
f 121/1/1 124/4/1 122/2/1 
f 121/1/1 125/5/1 124/4/1 
f 121/1/1 126/6/1 125/5/1 
f 121/1/1 127/7/1 126/8/1 
f 121/1/1 128/9/1 127/7/1 
f 121/1/1 129/10/1 128/9/1 
f 121/1/1 130/11/1 129/10/1 
f 121/1/1 131/12/1 130/11/1 
f 121/1/1 132/13/1 131/12/1 
f 121/1/1 133/14/1 132/13/1 
f 121/1/1 134/15/1 133/14/1 
f 121/1/1 135/16/1 134/15/1 
f 121/1/1 136/17/1 135/16/1 
f 121/1/1 137/18/1 136/17/1 
f 121/1/1 138/19/1 137/18/1 
f 121/1/1 139/20/1 138/19/1 
f 121/1/1 123/3/1 139/20/1 
s 8
f 123/3/22 122/2/3 140/21/3 
f 122/2/3 124/4/4 141/22/4 
f 124/4/4 125/5/5 142/23/5 
f 125/5/5 126/6/6 143/24/6 
f 126/8/6 127/7/7 144/25/7 
f 127/7/7 128/9/8 145/26/8 
f 128/9/8 129/10/9 146/27/9 
f 129/10/9 130/11/10 147/28/10 
f 130/11/10 131/12/21 148/29/21 
f 131/12/21 132/13/12 149/30/12 
f 132/13/12 133/14/13 150/31/13 
f 133/14/13 134/15/14 151/32/14 
f 134/15/14 135/16/15 152/33/15 
f 135/16/15 136/17/16 153/34/16 
f 136/17/16 137/18/17 154/35/17 
f 137/18/17 138/19/18 155/36/18 
f 138/19/18 139/20/19 156/37/19 
f 139/20/19 123/3/22 157/38/22 
f 157/38/22 158/39/3 159/40/22 
f 140/21/3 160/41/4 158/39/3 
f 141/22/4 161/42/5 160/41/4 
f 142/23/5 162/43/6 161/42/5 
f 163/44/6 164/45/7 162/46/6 
f 144/25/7 165/47/8 164/45/7 
f 145/26/8 166/48/9 165/47/8 
f 167/49/9 168/50/10 166/48/9 
f 147/28/10 169/51/21 168/50/10 
f 170/52/21 171/53/12 169/51/21 
f 149/30/12 172/54/13 171/53/12 
f 173/55/13 174/56/14 172/54/13 
f 151/32/14 175/57/15 174/56/14 
f 152/33/15 176/58/16 175/57/15 
f 153/34/16 177/59/17 176/58/16 
f 154/35/17 178/60/18 177/59/17 
f 155/36/18 179/61/19 178/60/18 
f 156/37/19 159/40/22 179/61/19 
s 1
f 180/62/20 159/40/20 158/39/20 
f 180/62/20 158/39/20 160/41/20 
f 180/62/20 160/41/20 161/42/20 
f 180/62/20 161/42/20 162/43/20 
f 180/62/20 162/46/20 164/45/20 
f 180/62/20 164/45/20 165/47/20 
f 180/62/20 165/47/20 166/48/20 
f 180/62/20 166/48/20 168/50/20 
f 180/62/20 168/50/20 169/51/20 
f 180/62/20 169/51/20 171/53/20 
f 180/62/20 171/53/20 172/54/20 
f 180/62/20 172/54/20 174/56/20 
f 180/62/20 174/56/20 175/57/20 
f 180/62/20 175/57/20 176/58/20 
f 180/62/20 176/58/20 177/59/20 
f 180/62/20 177/59/20 178/60/20 
f 180/62/20 178/60/20 179/61/20 
f 180/62/20 179/61/20 159/40/20 
s 8
f 128/9/8 146/27/9 145/26/8 
f 139/20/19 157/38/22 156/37/19 
f 156/37/19 157/38/22 159/40/22 
f 167/49/9 147/28/10 168/50/10 
f 134/15/14 152/33/15 151/32/14 
f 151/32/14 152/33/15 175/57/15 
f 125/5/5 143/24/6 142/23/5 
f 163/44/6 144/25/7 164/45/7 
f 136/17/16 154/35/17 153/34/16 
f 153/34/16 154/35/17 177/59/17 
f 122/2/3 141/22/4 140/21/3 
f 140/21/3 141/22/4 160/41/4 
f 131/12/21 149/30/12 148/29/21 
f 170/52/21 149/30/12 171/53/12 
f 173/55/13 151/32/14 174/56/14 
f 132/13/12 150/31/13 149/30/12 
f 127/7/7 145/26/8 144/25/7 
f 144/25/7 145/26/8 165/47/8 
f 138/19/18 156/37/19 155/36/18 
f 155/36/18 156/37/19 179/61/19 
f 124/4/4 142/23/5 141/22/4 
f 141/22/4 142/23/5 161/42/5 
f 146/27/9 147/28/10 167/49/9 
f 129/10/9 147/28/10 146/27/9 
f 123/3/22 140/21/3 157/38/22 
f 157/38/22 140/21/3 158/39/3 
f 130/11/10 148/29/21 147/28/10 
f 148/29/21 149/30/12 170/52/21 
f 135/16/15 153/34/16 152/33/15 
f 152/33/15 153/34/16 176/58/16 
f 137/18/17 155/36/18 154/35/17 
f 154/35/17 155/36/18 178/60/18 
f 145/26/8 167/49/9 166/48/9 
f 145/26/8 146/27/9 167/49/9 
f 143/63/6 144/25/7 163/44/6 
f 126/8/6 144/25/7 143/63/6 
f 142/23/5 163/64/6 162/43/6 
f 142/23/5 143/24/6 163/64/6 
f 150/31/13 151/32/14 173/55/13 
f 133/14/13 151/32/14 150/31/13 
f 149/30/12 173/55/13 172/54/13 
f 149/30/12 150/31/13 173/55/13 
f 147/28/10 148/29/21 170/52/21 
f 147/28/10 170/52/21 169/51/21 
s 1
f 181/1/1 182/2/1 183/3/1 
f 181/1/1 184/4/1 182/2/1 
f 181/1/1 185/5/1 184/4/1 
f 181/1/1 186/6/1 185/5/1 
f 181/1/1 187/7/1 186/8/1 
f 181/1/1 188/9/1 187/7/1 
f 181/1/1 189/10/1 188/9/1 
f 181/1/1 190/11/1 189/10/1 
f 181/1/1 191/12/1 190/11/1 
f 181/1/1 192/13/1 191/12/1 
f 181/1/1 193/14/1 192/13/1 
f 181/1/1 194/15/1 193/14/1 
f 181/1/1 195/16/1 194/15/1 
f 181/1/1 196/17/1 195/16/1 
f 181/1/1 197/18/1 196/17/1 
f 181/1/1 198/19/1 197/18/1 
f 181/1/1 199/20/1 198/19/1 
f 181/1/1 183/3/1 199/20/1 
s 8
f 183/3/2 182/2/3 200/21/3 
f 182/2/3 184/4/4 201/22/4 
f 184/4/4 185/5/5 202/23/5 
f 185/5/5 186/6/6 203/24/6 
f 186/8/6 187/7/7 204/25/7 
f 187/7/7 188/9/8 205/26/8 
f 188/9/8 189/10/9 206/27/9 
f 189/10/9 190/11/10 207/28/10 
f 190/11/10 191/12/21 208/29/21 
f 191/12/21 192/13/12 209/30/12 
f 192/13/12 193/14/13 210/31/13 
f 193/14/13 194/15/14 211/32/14 
f 194/15/14 195/16/15 212/33/15 
f 195/16/15 196/17/16 213/34/16 
f 196/17/16 197/18/17 214/35/17 
f 197/18/17 198/19/18 215/36/18 
f 198/19/18 199/20/19 216/37/19 
f 199/20/19 183/3/2 217/38/2 
f 217/38/2 218/39/3 219/40/2 
f 200/21/3 220/41/4 218/39/3 
f 201/22/4 221/42/5 220/41/4 
f 202/23/5 222/43/6 221/42/5 
f 223/44/6 224/45/7 222/46/6 
f 204/25/7 225/47/8 224/45/7 
f 205/26/8 226/48/9 225/47/8 
f 227/49/9 228/50/10 226/48/9 
f 207/28/10 229/51/21 228/50/10 
f 230/52/21 231/53/12 229/51/21 
f 209/30/12 232/54/13 231/53/12 
f 233/55/13 234/56/14 232/54/13 
f 211/32/14 235/57/15 234/56/14 
f 212/33/15 236/58/16 235/57/15 
f 213/34/16 237/59/17 236/58/16 
f 214/35/17 238/60/18 237/59/17 
f 215/36/18 239/61/19 238/60/18 
f 216/37/19 219/40/2 239/61/19 
s 1
f 240/62/20 219/40/20 218/39/20 
f 240/62/20 218/39/20 220/41/20 
f 240/62/20 220/41/20 221/42/20 
f 240/62/20 221/42/20 222/43/20 
f 240/62/20 222/46/20 224/45/20 
f 240/62/20 224/45/20 225/47/20 
f 240/62/20 225/47/20 226/48/20 
f 240/62/20 226/48/20 228/50/20 
f 240/62/20 228/50/20 229/51/20 
f 240/62/20 229/51/20 231/53/20 
f 240/62/20 231/53/20 232/54/20 
f 240/62/20 232/54/20 234/56/20 
f 240/62/20 234/56/20 235/57/20 
f 240/62/20 235/57/20 236/58/20 
f 240/62/20 236/58/20 237/59/20 
f 240/62/20 237/59/20 238/60/20 
f 240/62/20 238/60/20 239/61/20 
f 240/62/20 239/61/20 219/40/20 
s 8
f 188/9/8 206/27/9 205/26/8 
f 199/20/19 217/38/2 216/37/19 
f 216/37/19 217/38/2 219/40/2 
f 227/49/9 207/28/10 228/50/10 
f 194/15/14 212/33/15 211/32/14 
f 211/32/14 212/33/15 235/57/15 
f 185/5/5 203/24/6 202/23/5 
f 223/44/6 204/25/7 224/45/7 
f 196/17/16 214/35/17 213/34/16 
f 213/34/16 214/35/17 237/59/17 
f 182/2/3 201/22/4 200/21/3 
f 200/21/3 201/22/4 220/41/4 
f 191/12/21 209/30/12 208/29/21 
f 230/52/21 209/30/12 231/53/12 
f 233/55/13 211/32/14 234/56/14 
f 192/13/12 210/31/13 209/30/12 
f 187/7/7 205/26/8 204/25/7 
f 204/25/7 205/26/8 225/47/8 
f 198/19/18 216/37/19 215/36/18 
f 215/36/18 216/37/19 239/61/19 
f 184/4/4 202/23/5 201/22/4 
f 201/22/4 202/23/5 221/42/5 
f 206/27/9 207/28/10 227/49/9 
f 189/10/9 207/28/10 206/27/9 
f 183/3/2 200/21/3 217/38/2 
f 217/38/2 200/21/3 218/39/3 
f 190/11/10 208/29/21 207/28/10 
f 208/29/21 209/30/12 230/52/21 
f 195/16/15 213/34/16 212/33/15 
f 212/33/15 213/34/16 236/58/16 
f 197/18/17 215/36/18 214/35/17 
f 214/35/17 215/36/18 238/60/18 
f 205/26/8 227/49/9 226/48/9 
f 205/26/8 206/27/9 227/49/9 
f 203/63/6 204/25/7 223/44/6 
f 186/8/6 204/25/7 203/63/6 
f 202/23/5 223/64/6 222/43/6 
f 202/23/5 203/24/6 223/64/6 
f 210/31/13 211/32/14 233/55/13 
f 193/14/13 211/32/14 210/31/13 
f 209/30/12 233/55/13 232/54/13 
f 209/30/12 210/31/13 233/55/13 
f 207/28/10 208/29/21 230/52/21 
f 207/28/10 230/52/21 229/51/21 
s 1
f 241/1/1 242/2/1 243/3/1 
f 241/1/1 244/4/1 242/2/1 
f 241/1/1 245/5/1 244/4/1 
f 241/1/1 246/6/1 245/5/1 
f 241/1/1 247/7/1 246/8/1 
f 241/1/1 248/9/1 247/7/1 
f 241/1/1 249/10/1 248/9/1 
f 241/1/1 250/11/1 249/10/1 
f 241/1/1 251/12/1 250/11/1 
f 241/1/1 252/13/1 251/12/1 
f 241/1/1 253/14/1 252/13/1 
f 241/1/1 254/15/1 253/14/1 
f 241/1/1 255/16/1 254/15/1 
f 241/1/1 256/17/1 255/16/1 
f 241/1/1 257/18/1 256/17/1 
f 241/1/1 258/19/1 257/18/1 
f 241/1/1 259/20/1 258/19/1 
f 241/1/1 243/3/1 259/20/1 
s 8
f 243/3/2 242/2/3 260/21/3 
f 242/2/3 244/4/4 261/22/4 
f 244/4/4 245/5/5 262/23/5 
f 245/5/5 246/6/6 263/24/6 
f 246/8/6 247/7/7 264/25/7 
f 247/7/7 248/9/8 265/26/8 
f 248/9/8 249/10/9 266/27/9 
f 249/10/9 250/11/10 267/28/10 
f 250/11/10 251/12/11 268/29/11 
f 251/12/11 252/13/12 269/30/12 
f 252/13/12 253/14/13 270/31/13 
f 253/14/13 254/15/14 271/32/14 
f 254/15/14 255/16/15 272/33/15 
f 255/16/15 256/17/16 273/34/16 
f 256/17/16 257/18/17 274/35/17 
f 257/18/17 258/19/18 275/36/18 
f 258/19/18 259/20/19 276/37/19 
f 259/20/19 243/3/2 277/38/2 
f 277/38/2 278/39/3 279/40/2 
f 260/21/3 280/41/4 278/39/3 
f 261/22/4 281/42/5 280/41/4 
f 262/23/5 282/43/6 281/42/5 
f 283/44/6 284/45/7 282/46/6 
f 264/25/7 285/47/8 284/45/7 
f 265/26/8 286/48/9 285/47/8 
f 287/49/9 288/50/10 286/48/9 
f 267/28/10 289/51/11 288/50/10 
f 290/52/11 291/53/12 289/51/11 
f 269/30/12 292/54/13 291/53/12 
f 293/55/13 294/56/14 292/54/13 
f 271/32/14 295/57/15 294/56/14 
f 272/33/15 296/58/16 295/57/15 
f 273/34/16 297/59/17 296/58/16 
f 274/35/17 298/60/18 297/59/17 
f 275/36/18 299/61/19 298/60/18 
f 276/37/19 279/40/2 299/61/19 
s 1
f 300/62/20 279/40/20 278/39/20 
f 300/62/20 278/39/20 280/41/20 
f 300/62/20 280/41/20 281/42/20 
f 300/62/20 281/42/20 282/43/20 
f 300/62/20 282/46/20 284/45/20 
f 300/62/20 284/45/20 285/47/20 
f 300/62/20 285/47/20 286/48/20 
f 300/62/20 286/48/20 288/50/20 
f 300/62/20 288/50/20 289/51/20 
f 300/62/20 289/51/20 291/53/20 
f 300/62/20 291/53/20 292/54/20 
f 300/62/20 292/54/20 294/56/20 
f 300/62/20 294/56/20 295/57/20 
f 300/62/20 295/57/20 296/58/20 
f 300/62/20 296/58/20 297/59/20 
f 300/62/20 297/59/20 298/60/20 
f 300/62/20 298/60/20 299/61/20 
f 300/62/20 299/61/20 279/40/20 
s 8
f 248/9/8 266/27/9 265/26/8 
f 259/20/19 277/38/2 276/37/19 
f 276/37/19 277/38/2 279/40/2 
f 287/49/9 267/28/10 288/50/10 
f 254/15/14 272/33/15 271/32/14 
f 271/32/14 272/33/15 295/57/15 
f 245/5/5 263/24/6 262/23/5 
f 283/44/6 264/25/7 284/45/7 
f 256/17/16 274/35/17 273/34/16 
f 273/34/16 274/35/17 297/59/17 
f 242/2/3 261/22/4 260/21/3 
f 260/21/3 261/22/4 280/41/4 
f 251/12/11 269/30/12 268/29/11 
f 290/52/11 269/30/12 291/53/12 
f 293/55/13 271/32/14 294/56/14 
f 252/13/12 270/31/13 269/30/12 
f 247/7/7 265/26/8 264/25/7 
f 264/25/7 265/26/8 285/47/8 
f 258/19/18 276/37/19 275/36/18 
f 275/36/18 276/37/19 299/61/19 
f 244/4/4 262/23/5 261/22/4 
f 261/22/4 262/23/5 281/42/5 
f 266/27/9 267/28/10 287/49/9 
f 249/10/9 267/28/10 266/27/9 
f 243/3/2 260/21/3 277/38/2 
f 277/38/2 260/21/3 278/39/3 
f 250/11/10 268/29/11 267/28/10 
f 268/29/11 269/30/12 290/52/11 
f 255/16/15 273/34/16 272/33/15 
f 272/33/15 273/34/16 296/58/16 
f 257/18/17 275/36/18 274/35/17 
f 274/35/17 275/36/18 298/60/18 
f 265/26/8 287/49/9 286/48/9 
f 265/26/8 266/27/9 287/49/9 
f 263/63/6 264/25/7 283/44/6 
f 246/8/6 264/25/7 263/63/6 
f 262/23/5 283/64/6 282/43/6 
f 262/23/5 263/24/6 283/64/6 
f 270/31/13 271/32/14 293/55/13 
f 253/14/13 271/32/14 270/31/13 
f 269/30/12 293/55/13 292/54/13 
f 269/30/12 270/31/13 293/55/13 
f 267/28/10 268/29/11 290/52/11 
f 267/28/10 290/52/11 289/51/11 
s 1
f 301/1/1 302/2/1 303/3/1 
f 301/1/1 304/4/1 302/2/1 
f 301/1/1 305/5/1 304/4/1 
f 301/1/1 306/6/1 305/5/1 
f 301/1/1 307/7/1 306/8/1 
f 301/1/1 308/9/1 307/7/1 
f 301/1/1 309/10/1 308/9/1 
f 301/1/1 310/11/1 309/10/1 
f 301/1/1 311/12/1 310/11/1 
f 301/1/1 312/13/1 311/12/1 
f 301/1/1 313/14/1 312/13/1 
f 301/1/1 314/15/1 313/14/1 
f 301/1/1 315/16/1 314/15/1 
f 301/1/1 316/17/1 315/16/1 
f 301/1/1 317/18/1 316/17/1 
f 301/1/1 318/19/1 317/18/1 
f 301/1/1 319/20/1 318/19/1 
f 301/1/1 303/3/1 319/20/1 
s 8
f 303/3/2 302/2/3 320/21/3 
f 302/2/3 304/4/4 321/22/4 
f 304/4/4 305/5/5 322/23/5 
f 305/5/5 306/6/6 323/24/6 
f 306/8/6 307/7/7 324/25/7 
f 307/7/7 308/9/8 325/26/8 
f 308/9/8 309/10/9 326/27/9 
f 309/10/9 310/11/10 327/28/10 
f 310/11/10 311/12/21 328/29/11 
f 311/12/21 312/13/12 329/30/12 
f 312/13/12 313/14/13 330/31/13 
f 313/14/13 314/15/14 331/32/14 
f 314/15/14 315/16/15 332/33/15 
f 315/16/15 316/17/23 333/34/23 
f 316/17/23 317/18/17 334/35/17 
f 317/18/17 318/19/18 335/36/18 
f 318/19/18 319/20/19 336/37/19 
f 319/20/19 303/3/2 337/38/2 
f 337/38/2 338/39/3 339/40/2 
f 320/21/3 340/41/4 338/39/3 
f 321/22/4 341/42/5 340/41/4 
f 322/23/5 342/43/6 341/42/5 
f 343/44/6 344/45/7 342/46/6 
f 324/25/7 345/47/8 344/45/7 
f 325/26/8 346/48/9 345/47/8 
f 347/49/9 348/50/10 346/48/9 
f 327/28/10 349/51/11 348/50/10 
f 350/52/21 351/53/12 349/51/11 
f 329/30/12 352/54/13 351/53/12 
f 353/55/13 354/56/14 352/54/13 
f 331/32/14 355/57/15 354/56/14 
f 332/33/15 356/58/23 355/57/15 
f 333/34/23 357/59/17 356/58/23 
f 334/35/17 358/60/18 357/59/17 
f 335/36/18 359/61/19 358/60/18 
f 336/37/19 339/40/2 359/61/19 
s 1
f 360/62/20 339/40/20 338/39/20 
f 360/62/20 338/39/20 340/41/20 
f 360/62/20 340/41/20 341/42/20 
f 360/62/20 341/42/20 342/43/20 
f 360/62/20 342/46/20 344/45/20 
f 360/62/20 344/45/20 345/47/20 
f 360/62/20 345/47/20 346/48/20 
f 360/62/20 346/48/20 348/50/20 
f 360/62/20 348/50/20 349/51/20 
f 360/62/20 349/51/20 351/53/20 
f 360/62/20 351/53/20 352/54/20 
f 360/62/20 352/54/20 354/56/20 
f 360/62/20 354/56/20 355/57/20 
f 360/62/20 355/57/20 356/58/20 
f 360/62/20 356/58/20 357/59/20 
f 360/62/20 357/59/20 358/60/20 
f 360/62/20 358/60/20 359/61/20 
f 360/62/20 359/61/20 339/40/20 
s 8
f 308/9/8 326/27/9 325/26/8 
f 319/20/19 337/38/2 336/37/19 
f 336/37/19 337/38/2 339/40/2 
f 347/49/9 327/28/10 348/50/10 
f 314/15/14 332/33/15 331/32/14 
f 331/32/14 332/33/15 355/57/15 
f 305/5/5 323/24/6 322/23/5 
f 343/44/6 324/25/7 344/45/7 
f 316/17/23 334/35/17 333/34/23 
f 333/34/23 334/35/17 357/59/17 
f 302/2/3 321/22/4 320/21/3 
f 320/21/3 321/22/4 340/41/4 
f 311/12/21 329/30/12 328/29/11 
f 350/52/21 329/30/12 351/53/12 
f 353/55/13 331/32/14 354/56/14 
f 312/13/12 330/31/13 329/30/12 
f 307/7/7 325/26/8 324/25/7 
f 324/25/7 325/26/8 345/47/8 
f 318/19/18 336/37/19 335/36/18 
f 335/36/18 336/37/19 359/61/19 
f 304/4/4 322/23/5 321/22/4 
f 321/22/4 322/23/5 341/42/5 
f 326/27/9 327/28/10 347/49/9 
f 309/10/9 327/28/10 326/27/9 
f 303/3/2 320/21/3 337/38/2 
f 337/38/2 320/21/3 338/39/3 
f 310/11/10 328/29/11 327/28/10 
f 328/29/11 329/30/12 350/52/21 
f 315/16/15 333/34/23 332/33/15 
f 332/33/15 333/34/23 356/58/23 
f 317/18/17 335/36/18 334/35/17 
f 334/35/17 335/36/18 358/60/18 
f 325/26/8 347/49/9 346/48/9 
f 325/26/8 326/27/9 347/49/9 
f 323/63/6 324/25/7 343/44/6 
f 306/8/6 324/25/7 323/63/6 
f 322/23/5 343/64/6 342/43/6 
f 322/23/5 323/24/6 343/64/6 
f 330/31/13 331/32/14 353/55/13 
f 313/14/13 331/32/14 330/31/13 
f 329/30/12 353/55/13 352/54/13 
f 329/30/12 330/31/13 353/55/13 
f 327/28/10 328/29/11 350/52/21 
f 327/28/10 350/52/21 349/51/11 
s 1
f 361/1/1 362/2/1 363/3/1 
f 361/1/1 364/4/1 362/2/1 
f 361/1/1 365/5/1 364/4/1 
f 361/1/1 366/6/1 365/5/1 
f 361/1/1 367/7/1 366/8/1 
f 361/1/1 368/9/1 367/7/1 
f 361/1/1 369/10/1 368/9/1 
f 361/1/1 370/11/1 369/10/1 
f 361/1/1 371/12/1 370/11/1 
f 361/1/1 372/13/1 371/12/1 
f 361/1/1 373/14/1 372/13/1 
f 361/1/1 374/15/1 373/14/1 
f 361/1/1 375/16/1 374/15/1 
f 361/1/1 376/17/1 375/16/1 
f 361/1/1 377/18/1 376/17/1 
f 361/1/1 378/19/1 377/18/1 
f 361/1/1 379/20/1 378/19/1 
f 361/1/1 363/3/1 379/20/1 
s 8
f 363/3/2 362/2/3 380/21/3 
f 362/2/3 364/4/4 381/22/4 
f 364/4/4 365/5/5 382/23/5 
f 365/5/5 366/6/6 383/24/6 
f 366/8/6 367/7/7 384/25/7 
f 367/7/7 368/9/8 385/26/8 
f 368/9/8 369/10/9 386/27/9 
f 369/10/9 370/11/10 387/28/10 
f 370/11/10 371/12/11 388/29/11 
f 371/12/11 372/13/12 389/30/12 
f 372/13/12 373/14/13 390/31/13 
f 373/14/13 374/15/14 391/32/14 
f 374/15/14 375/16/15 392/33/15 
f 375/16/15 376/17/16 393/34/16 
f 376/17/16 377/18/17 394/35/17 
f 377/18/17 378/19/18 395/36/18 
f 378/19/18 379/20/19 396/37/19 
f 379/20/19 363/3/2 397/38/2 
f 397/38/2 398/39/3 399/40/2 
f 380/21/3 400/41/4 398/39/3 
f 381/22/4 401/42/5 400/41/4 
f 382/23/5 402/43/6 401/42/5 
f 403/44/6 404/45/7 402/46/6 
f 384/25/7 405/47/8 404/45/7 
f 385/26/8 406/48/9 405/47/8 
f 407/49/9 408/50/10 406/48/9 
f 387/28/10 409/51/11 408/50/10 
f 410/52/11 411/53/12 409/51/11 
f 389/30/12 412/54/13 411/53/12 
f 413/55/13 414/56/14 412/54/13 
f 391/32/14 415/57/15 414/56/14 
f 392/33/15 416/58/16 415/57/15 
f 393/34/16 417/59/17 416/58/16 
f 394/35/17 418/60/18 417/59/17 
f 395/36/18 419/61/19 418/60/18 
f 396/37/19 399/40/2 419/61/19 
s 1
f 420/62/20 399/40/20 398/39/20 
f 420/62/20 398/39/20 400/41/20 
f 420/62/20 400/41/20 401/42/20 
f 420/62/20 401/42/20 402/43/20 
f 420/62/20 402/46/20 404/45/20 
f 420/62/20 404/45/20 405/47/20 
f 420/62/20 405/47/20 406/48/20 
f 420/62/20 406/48/20 408/50/20 
f 420/62/20 408/50/20 409/51/20 
f 420/62/20 409/51/20 411/53/20 
f 420/62/20 411/53/20 412/54/20 
f 420/62/20 412/54/20 414/56/20 
f 420/62/20 414/56/20 415/57/20 
f 420/62/20 415/57/20 416/58/20 
f 420/62/20 416/58/20 417/59/20 
f 420/62/20 417/59/20 418/60/20 
f 420/62/20 418/60/20 419/61/20 
f 420/62/20 419/61/20 399/40/20 
s 8
f 368/9/8 386/27/9 385/26/8 
f 379/20/19 397/38/2 396/37/19 
f 396/37/19 397/38/2 399/40/2 
f 407/49/9 387/28/10 408/50/10 
f 374/15/14 392/33/15 391/32/14 
f 391/32/14 392/33/15 415/57/15 
f 365/5/5 383/24/6 382/23/5 
f 403/44/6 384/25/7 404/45/7 
f 376/17/16 394/35/17 393/34/16 
f 393/34/16 394/35/17 417/59/17 
f 362/2/3 381/22/4 380/21/3 
f 380/21/3 381/22/4 400/41/4 
f 371/12/11 389/30/12 388/29/11 
f 410/52/11 389/30/12 411/53/12 
f 413/55/13 391/32/14 414/56/14 
f 372/13/12 390/31/13 389/30/12 
f 367/7/7 385/26/8 384/25/7 
f 384/25/7 385/26/8 405/47/8 
f 378/19/18 396/37/19 395/36/18 
f 395/36/18 396/37/19 419/61/19 
f 364/4/4 382/23/5 381/22/4 
f 381/22/4 382/23/5 401/42/5 
f 386/27/9 387/28/10 407/49/9 
f 369/10/9 387/28/10 386/27/9 
f 363/3/2 380/21/3 397/38/2 
f 397/38/2 380/21/3 398/39/3 
f 370/11/10 388/29/11 387/28/10 
f 388/29/11 389/30/12 410/52/11 
f 375/16/15 393/34/16 392/33/15 
f 392/33/15 393/34/16 416/58/16 
f 377/18/17 395/36/18 394/35/17 
f 394/35/17 395/36/18 418/60/18 
f 385/26/8 407/49/9 406/48/9 
f 385/26/8 386/27/9 407/49/9 
f 383/63/6 384/25/7 403/44/6 
f 366/8/6 384/25/7 383/63/6 
f 382/23/5 403/64/6 402/43/6 
f 382/23/5 383/24/6 403/64/6 
f 390/31/13 391/32/14 413/55/13 
f 373/14/13 391/32/14 390/31/13 
f 389/30/12 413/55/13 412/54/13 
f 389/30/12 390/31/13 413/55/13 
f 387/28/10 388/29/11 410/52/11 
f 387/28/10 410/52/11 409/51/11 
s 1
f 421/1/1 422/2/1 423/3/1 
f 421/1/1 424/4/1 422/2/1 
f 421/1/1 425/5/1 424/4/1 
f 421/1/1 426/6/1 425/5/1 
f 421/1/1 427/7/1 426/8/1 
f 421/1/1 428/9/1 427/7/1 
f 421/1/1 429/10/1 428/9/1 
f 421/1/1 430/11/1 429/10/1 
f 421/1/1 431/12/1 430/11/1 
f 421/1/1 432/13/1 431/12/1 
f 421/1/1 433/14/1 432/13/1 
f 421/1/1 434/15/1 433/14/1 
f 421/1/1 435/16/1 434/15/1 
f 421/1/1 436/17/1 435/16/1 
f 421/1/1 437/18/1 436/17/1 
f 421/1/1 438/19/1 437/18/1 
f 421/1/1 439/20/1 438/19/1 
f 421/1/1 423/3/1 439/20/1 
s 8
f 423/3/2 422/2/3 440/21/3 
f 422/2/3 424/4/4 441/22/4 
f 424/4/4 425/5/5 442/23/5 
f 425/5/5 426/6/6 443/24/6 
f 426/8/6 427/7/7 444/25/7 
f 427/7/7 428/9/8 445/26/8 
f 428/9/8 429/10/9 446/27/9 
f 429/10/9 430/11/10 447/28/10 
f 430/11/10 431/12/21 448/29/11 
f 431/12/21 432/13/12 449/30/12 
f 432/13/12 433/14/13 450/31/13 
f 433/14/13 434/15/14 451/32/14 
f 434/15/14 435/16/15 452/33/15 
f 435/16/15 436/17/23 453/34/23 
f 436/17/23 437/18/17 454/35/17 
f 437/18/17 438/19/18 455/36/18 
f 438/19/18 439/20/19 456/37/19 
f 439/20/19 423/3/2 457/38/2 
f 457/38/2 458/39/3 459/40/2 
f 440/21/3 460/41/4 458/39/3 
f 441/22/4 461/42/5 460/41/4 
f 442/23/5 462/43/6 461/42/5 
f 463/44/6 464/45/7 462/46/6 
f 444/25/7 465/47/8 464/45/7 
f 445/26/8 466/48/9 465/47/8 
f 467/49/9 468/50/10 466/48/9 
f 447/28/10 469/51/11 468/50/10 
f 470/52/21 471/53/12 469/51/11 
f 449/30/12 472/54/13 471/53/12 
f 473/55/13 474/56/14 472/54/13 
f 451/32/14 475/57/15 474/56/14 
f 452/33/15 476/58/23 475/57/15 
f 453/34/23 477/59/17 476/58/23 
f 454/35/17 478/60/18 477/59/17 
f 455/36/18 479/61/19 478/60/18 
f 456/37/19 459/40/2 479/61/19 
s 1
f 480/62/20 459/40/20 458/39/20 
f 480/62/20 458/39/20 460/41/20 
f 480/62/20 460/41/20 461/42/20 
f 480/62/20 461/42/20 462/43/20 
f 480/62/20 462/46/20 464/45/20 
f 480/62/20 464/45/20 465/47/20 
f 480/62/20 465/47/20 466/48/20 
f 480/62/20 466/48/20 468/50/20 
f 480/62/20 468/50/20 469/51/20 
f 480/62/20 469/51/20 471/53/20 
f 480/62/20 471/53/20 472/54/20 
f 480/62/20 472/54/20 474/56/20 
f 480/62/20 474/56/20 475/57/20 
f 480/62/20 475/57/20 476/58/20 
f 480/62/20 476/58/20 477/59/20 
f 480/62/20 477/59/20 478/60/20 
f 480/62/20 478/60/20 479/61/20 
f 480/62/20 479/61/20 459/40/20 
s 8
f 428/9/8 446/27/9 445/26/8 
f 439/20/19 457/38/2 456/37/19 
f 456/37/19 457/38/2 459/40/2 
f 467/49/9 447/28/10 468/50/10 
f 434/15/14 452/33/15 451/32/14 
f 451/32/14 452/33/15 475/57/15 
f 425/5/5 443/24/6 442/23/5 
f 463/44/6 444/25/7 464/45/7 
f 436/17/23 454/35/17 453/34/23 
f 453/34/23 454/35/17 477/59/17 
f 422/2/3 441/22/4 440/21/3 
f 440/21/3 441/22/4 460/41/4 
f 431/12/21 449/30/12 448/29/11 
f 470/52/21 449/30/12 471/53/12 
f 473/55/13 451/32/14 474/56/14 
f 432/13/12 450/31/13 449/30/12 
f 427/7/7 445/26/8 444/25/7 
f 444/25/7 445/26/8 465/47/8 
f 438/19/18 456/37/19 455/36/18 
f 455/36/18 456/37/19 479/61/19 
f 424/4/4 442/23/5 441/22/4 
f 441/22/4 442/23/5 461/42/5 
f 446/27/9 447/28/10 467/49/9 
f 429/10/9 447/28/10 446/27/9 
f 423/3/2 440/21/3 457/38/2 
f 457/38/2 440/21/3 458/39/3 
f 430/11/10 448/29/11 447/28/10 
f 448/29/11 449/30/12 470/52/21 
f 435/16/15 453/34/23 452/33/15 
f 452/33/15 453/34/23 476/58/23 
f 437/18/17 455/36/18 454/35/17 
f 454/35/17 455/36/18 478/60/18 
f 445/26/8 467/49/9 466/48/9 
f 445/26/8 446/27/9 467/49/9 
f 443/63/6 444/25/7 463/44/6 
f 426/8/6 444/25/7 443/63/6 
f 442/23/5 463/64/6 462/43/6 
f 442/23/5 443/24/6 463/64/6 
f 450/31/13 451/32/14 473/55/13 
f 433/14/13 451/32/14 450/31/13 
f 449/30/12 473/55/13 472/54/13 
f 449/30/12 450/31/13 473/55/13 
f 447/28/10 448/29/11 470/52/21 
f 447/28/10 470/52/21 469/51/11 
s 1
f 481/1/1 482/2/1 483/3/1 
f 481/1/1 484/4/1 482/2/1 
f 481/1/1 485/5/1 484/4/1 
f 481/1/1 486/6/1 485/5/1 
f 481/1/1 487/7/1 486/8/1 
f 481/1/1 488/9/1 487/7/1 
f 481/1/1 489/10/1 488/9/1 
f 481/1/1 490/11/1 489/10/1 
f 481/1/1 491/12/1 490/11/1 
f 481/1/1 492/13/1 491/12/1 
f 481/1/1 493/14/1 492/13/1 
f 481/1/1 494/15/1 493/14/1 
f 481/1/1 495/16/1 494/15/1 
f 481/1/1 496/17/1 495/16/1 
f 481/1/1 497/18/1 496/17/1 
f 481/1/1 498/19/1 497/18/1 
f 481/1/1 499/20/1 498/19/1 
f 481/1/1 483/3/1 499/20/1 
s 8
f 483/3/2 482/2/3 500/21/3 
f 482/2/3 484/4/4 501/22/4 
f 484/4/4 485/5/5 502/23/5 
f 485/5/5 486/6/6 503/24/6 
f 486/8/6 487/7/7 504/25/7 
f 487/7/7 488/9/8 505/26/8 
f 488/9/8 489/10/9 506/27/9 
f 489/10/9 490/11/10 507/28/10 
f 490/11/10 491/12/11 508/29/11 
f 491/12/11 492/13/12 509/30/12 
f 492/13/12 493/14/13 510/31/13 
f 493/14/13 494/15/14 511/32/14 
f 494/15/14 495/16/15 512/33/15 
f 495/16/15 496/17/16 513/34/16 
f 496/17/16 497/18/17 514/35/17 
f 497/18/17 498/19/18 515/36/18 
f 498/19/18 499/20/19 516/37/19 
f 499/20/19 483/3/2 517/38/2 
f 517/38/2 518/39/3 519/40/2 
f 500/21/3 520/41/4 518/39/3 
f 501/22/4 521/42/5 520/41/4 
f 502/23/5 522/43/6 521/42/5 
f 523/44/6 524/45/7 522/46/6 
f 504/25/7 525/47/8 524/45/7 
f 505/26/8 526/48/9 525/47/8 
f 527/49/9 528/50/10 526/48/9 
f 507/28/10 529/51/11 528/50/10 
f 530/52/11 531/53/12 529/51/11 
f 509/30/12 532/54/13 531/53/12 
f 533/55/13 534/56/14 532/54/13 
f 511/32/14 535/57/15 534/56/14 
f 512/33/15 536/58/16 535/57/15 
f 513/34/16 537/59/17 536/58/16 
f 514/35/17 538/60/18 537/59/17 
f 515/36/18 539/61/19 538/60/18 
f 516/37/19 519/40/2 539/61/19 
s 1
f 540/62/20 519/40/20 518/39/20 
f 540/62/20 518/39/20 520/41/20 
f 540/62/20 520/41/20 521/42/20 
f 540/62/20 521/42/20 522/43/20 
f 540/62/20 522/46/20 524/45/20 
f 540/62/20 524/45/20 525/47/20 
f 540/62/20 525/47/20 526/48/20 
f 540/62/20 526/48/20 528/50/20 
f 540/62/20 528/50/20 529/51/20 
f 540/62/20 529/51/20 531/53/20 
f 540/62/20 531/53/20 532/54/20 
f 540/62/20 532/54/20 534/56/20 
f 540/62/20 534/56/20 535/57/20 
f 540/62/20 535/57/20 536/58/20 
f 540/62/20 536/58/20 537/59/20 
f 540/62/20 537/59/20 538/60/20 
f 540/62/20 538/60/20 539/61/20 
f 540/62/20 539/61/20 519/40/20 
s 8
f 488/9/8 506/27/9 505/26/8 
f 499/20/19 517/38/2 516/37/19 
f 516/37/19 517/38/2 519/40/2 
f 527/49/9 507/28/10 528/50/10 
f 494/15/14 512/33/15 511/32/14 
f 511/32/14 512/33/15 535/57/15 
f 485/5/5 503/24/6 502/23/5 
f 523/44/6 504/25/7 524/45/7 
f 496/17/16 514/35/17 513/34/16 
f 513/34/16 514/35/17 537/59/17 
f 482/2/3 501/22/4 500/21/3 
f 500/21/3 501/22/4 520/41/4 
f 491/12/11 509/30/12 508/29/11 
f 530/52/11 509/30/12 531/53/12 
f 533/55/13 511/32/14 534/56/14 
f 492/13/12 510/31/13 509/30/12 
f 487/7/7 505/26/8 504/25/7 
f 504/25/7 505/26/8 525/47/8 
f 498/19/18 516/37/19 515/36/18 
f 515/36/18 516/37/19 539/61/19 
f 484/4/4 502/23/5 501/22/4 
f 501/22/4 502/23/5 521/42/5 
f 506/27/9 507/28/10 527/49/9 
f 489/10/9 507/28/10 506/27/9 
f 483/3/2 500/21/3 517/38/2 
f 517/38/2 500/21/3 518/39/3 
f 490/11/10 508/29/11 507/28/10 
f 508/29/11 509/30/12 530/52/11 
f 495/16/15 513/34/16 512/33/15 
f 512/33/15 513/34/16 536/58/16 
f 497/18/17 515/36/18 514/35/17 
f 514/35/17 515/36/18 538/60/18 
f 505/26/8 527/49/9 526/48/9 
f 505/26/8 506/27/9 527/49/9 
f 503/63/6 504/25/7 523/44/6 
f 486/8/6 504/25/7 503/63/6 
f 502/23/5 523/64/6 522/43/6 
f 502/23/5 503/24/6 523/64/6 
f 510/31/13 511/32/14 533/55/13 
f 493/14/13 511/32/14 510/31/13 
f 509/30/12 533/55/13 532/54/13 
f 509/30/12 510/31/13 533/55/13 
f 507/28/10 508/29/11 530/52/11 
f 507/28/10 530/52/11 529/51/11 
s 1
f 541/1/1 542/2/1 543/3/1 
f 541/1/1 544/4/1 542/2/1 
f 541/1/1 545/5/1 544/4/1 
f 541/1/1 546/6/1 545/5/1 
f 541/1/1 547/7/1 546/8/1 
f 541/1/1 548/9/1 547/7/1 
f 541/1/1 549/10/1 548/9/1 
f 541/1/1 550/11/1 549/10/1 
f 541/1/1 551/12/1 550/11/1 
f 541/1/1 552/13/1 551/12/1 
f 541/1/1 553/14/1 552/13/1 
f 541/1/1 554/15/1 553/14/1 
f 541/1/1 555/16/1 554/15/1 
f 541/1/1 556/17/1 555/16/1 
f 541/1/1 557/18/1 556/17/1 
f 541/1/1 558/19/1 557/18/1 
f 541/1/1 559/20/1 558/19/1 
f 541/1/1 543/3/1 559/20/1 
s 8
f 543/3/2 542/2/3 560/21/3 
f 542/2/3 544/4/4 561/22/4 
f 544/4/4 545/5/5 562/23/5 
f 545/5/5 546/6/6 563/24/6 
f 546/8/6 547/7/7 564/25/7 
f 547/7/7 548/9/8 565/26/8 
f 548/9/8 549/10/9 566/27/9 
f 549/10/9 550/11/10 567/28/10 
f 550/11/10 551/12/21 568/29/11 
f 551/12/21 552/13/12 569/30/12 
f 552/13/12 553/14/13 570/31/13 
f 553/14/13 554/15/14 571/32/14 
f 554/15/14 555/16/15 572/33/15 
f 555/16/15 556/17/23 573/34/23 
f 556/17/23 557/18/17 574/35/17 
f 557/18/17 558/19/18 575/36/18 
f 558/19/18 559/20/19 576/37/19 
f 559/20/19 543/3/2 577/38/2 
f 577/38/2 578/39/3 579/40/2 
f 560/21/3 580/41/4 578/39/3 
f 561/22/4 581/42/5 580/41/4 
f 562/23/5 582/43/6 581/42/5 
f 583/44/6 584/45/7 582/46/6 
f 564/25/7 585/47/8 584/45/7 
f 565/26/8 586/48/9 585/47/8 
f 587/49/9 588/50/10 586/48/9 
f 567/28/10 589/51/11 588/50/10 
f 590/52/21 591/53/12 589/51/11 
f 569/30/12 592/54/13 591/53/12 
f 593/55/13 594/56/14 592/54/13 
f 571/32/14 595/57/15 594/56/14 
f 572/33/15 596/58/23 595/57/15 
f 573/34/23 597/59/17 596/58/23 
f 574/35/17 598/60/18 597/59/17 
f 575/36/18 599/61/19 598/60/18 
f 576/37/19 579/40/2 599/61/19 
s 1
f 600/62/20 579/40/20 578/39/20 
f 600/62/20 578/39/20 580/41/20 
f 600/62/20 580/41/20 581/42/20 
f 600/62/20 581/42/20 582/43/20 
f 600/62/20 582/46/20 584/45/20 
f 600/62/20 584/45/20 585/47/20 
f 600/62/20 585/47/20 586/48/20 
f 600/62/20 586/48/20 588/50/20 
f 600/62/20 588/50/20 589/51/20 
f 600/62/20 589/51/20 591/53/20 
f 600/62/20 591/53/20 592/54/20 
f 600/62/20 592/54/20 594/56/20 
f 600/62/20 594/56/20 595/57/20 
f 600/62/20 595/57/20 596/58/20 
f 600/62/20 596/58/20 597/59/20 
f 600/62/20 597/59/20 598/60/20 
f 600/62/20 598/60/20 599/61/20 
f 600/62/20 599/61/20 579/40/20 
s 8
f 548/9/8 566/27/9 565/26/8 
f 559/20/19 577/38/2 576/37/19 
f 576/37/19 577/38/2 579/40/2 
f 587/49/9 567/28/10 588/50/10 
f 554/15/14 572/33/15 571/32/14 
f 571/32/14 572/33/15 595/57/15 
f 545/5/5 563/24/6 562/23/5 
f 583/44/6 564/25/7 584/45/7 
f 556/17/23 574/35/17 573/34/23 
f 573/34/23 574/35/17 597/59/17 
f 542/2/3 561/22/4 560/21/3 
f 560/21/3 561/22/4 580/41/4 
f 551/12/21 569/30/12 568/29/11 
f 590/52/21 569/30/12 591/53/12 
f 593/55/13 571/32/14 594/56/14 
f 552/13/12 570/31/13 569/30/12 
f 547/7/7 565/26/8 564/25/7 
f 564/25/7 565/26/8 585/47/8 
f 558/19/18 576/37/19 575/36/18 
f 575/36/18 576/37/19 599/61/19 
f 544/4/4 562/23/5 561/22/4 
f 561/22/4 562/23/5 581/42/5 
f 566/27/9 567/28/10 587/49/9 
f 549/10/9 567/28/10 566/27/9 
f 543/3/2 560/21/3 577/38/2 
f 577/38/2 560/21/3 578/39/3 
f 550/11/10 568/29/11 567/28/10 
f 568/29/11 569/30/12 590/52/21 
f 555/16/15 573/34/23 572/33/15 
f 572/33/15 573/34/23 596/58/23 
f 557/18/17 575/36/18 574/35/17 
f 574/35/17 575/36/18 598/60/18 
f 565/26/8 587/49/9 586/48/9 
f 565/26/8 566/27/9 587/49/9 
f 563/63/6 564/25/7 583/44/6 
f 546/8/6 564/25/7 563/63/6 
f 562/23/5 583/64/6 582/43/6 
f 562/23/5 563/24/6 583/64/6 
f 570/31/13 571/32/14 593/55/13 
f 553/14/13 571/32/14 570/31/13 
f 569/30/12 593/55/13 592/54/13 
f 569/30/12 570/31/13 593/55/13 
f 567/28/10 568/29/11 590/52/21 
f 567/28/10 590/52/21 589/51/11 
s 1
f 601/1/1 602/2/1 603/3/1 
f 601/1/1 604/4/1 602/2/1 
f 601/1/1 605/5/1 604/4/1 
f 601/1/1 606/6/1 605/5/1 
f 601/1/1 607/7/1 606/8/1 
f 601/1/1 608/9/1 607/7/1 
f 601/1/1 609/10/1 608/9/1 
f 601/1/1 610/11/1 609/10/1 
f 601/1/1 611/12/1 610/11/1 
f 601/1/1 612/13/1 611/12/1 
f 601/1/1 613/14/1 612/13/1 
f 601/1/1 614/15/1 613/14/1 
f 601/1/1 615/16/1 614/15/1 
f 601/1/1 616/17/1 615/16/1 
f 601/1/1 617/18/1 616/17/1 
f 601/1/1 618/19/1 617/18/1 
f 601/1/1 619/20/1 618/19/1 
f 601/1/1 603/3/1 619/20/1 
s 8
f 603/3/22 602/2/3 620/21/3 
f 602/2/3 604/4/4 621/22/4 
f 604/4/4 605/5/5 622/23/5 
f 605/5/5 606/6/6 623/24/6 
f 606/8/6 607/7/7 624/25/7 
f 607/7/7 608/9/8 625/26/8 
f 608/9/8 609/10/9 626/27/9 
f 609/10/9 610/11/10 627/28/10 
f 610/11/10 611/12/21 628/29/21 
f 611/12/21 612/13/12 629/30/12 
f 612/13/12 613/14/13 630/31/13 
f 613/14/13 614/15/14 631/32/14 
f 614/15/14 615/16/15 632/33/15 
f 615/16/15 616/17/16 633/34/16 
f 616/17/16 617/18/17 634/35/17 
f 617/18/17 618/19/18 635/36/18 
f 618/19/18 619/20/19 636/37/19 
f 619/20/19 603/3/22 637/38/22 
f 637/38/22 638/39/3 639/40/22 
f 620/21/3 640/41/4 638/39/3 
f 621/22/4 641/42/5 640/41/4 
f 622/23/5 642/43/6 641/42/5 
f 643/44/6 644/45/7 642/46/6 
f 624/25/7 645/47/8 644/45/7 
f 625/26/8 646/48/9 645/47/8 
f 647/49/9 648/50/10 646/48/9 
f 627/28/10 649/51/21 648/50/10 
f 650/52/21 651/53/12 649/51/21 
f 629/30/12 652/54/13 651/53/12 
f 653/55/13 654/56/14 652/54/13 
f 631/32/14 655/57/15 654/56/14 
f 632/33/15 656/58/16 655/57/15 
f 633/34/16 657/59/17 656/58/16 
f 634/35/17 658/60/18 657/59/17 
f 635/36/18 659/61/19 658/60/18 
f 636/37/19 639/40/22 659/61/19 
s 1
f 660/62/20 639/40/20 638/39/20 
f 660/62/20 638/39/20 640/41/20 
f 660/62/20 640/41/20 641/42/20 
f 660/62/20 641/42/20 642/43/20 
f 660/62/20 642/46/20 644/45/20 
f 660/62/20 644/45/20 645/47/20 
f 660/62/20 645/47/20 646/48/20 
f 660/62/20 646/48/20 648/50/20 
f 660/62/20 648/50/20 649/51/20 
f 660/62/20 649/51/20 651/53/20 
f 660/62/20 651/53/20 652/54/20 
f 660/62/20 652/54/20 654/56/20 
f 660/62/20 654/56/20 655/57/20 
f 660/62/20 655/57/20 656/58/20 
f 660/62/20 656/58/20 657/59/20 
f 660/62/20 657/59/20 658/60/20 
f 660/62/20 658/60/20 659/61/20 
f 660/62/20 659/61/20 639/40/20 
s 8
f 608/9/8 626/27/9 625/26/8 
f 619/20/19 637/38/22 636/37/19 
f 636/37/19 637/38/22 639/40/22 
f 647/49/9 627/28/10 648/50/10 
f 614/15/14 632/33/15 631/32/14 
f 631/32/14 632/33/15 655/57/15 
f 605/5/5 623/24/6 622/23/5 
f 643/44/6 624/25/7 644/45/7 
f 616/17/16 634/35/17 633/34/16 
f 633/34/16 634/35/17 657/59/17 
f 602/2/3 621/22/4 620/21/3 
f 620/21/3 621/22/4 640/41/4 
f 611/12/21 629/30/12 628/29/21 
f 650/52/21 629/30/12 651/53/12 
f 653/55/13 631/32/14 654/56/14 
f 612/13/12 630/31/13 629/30/12 
f 607/7/7 625/26/8 624/25/7 
f 624/25/7 625/26/8 645/47/8 
f 618/19/18 636/37/19 635/36/18 
f 635/36/18 636/37/19 659/61/19 
f 604/4/4 622/23/5 621/22/4 
f 621/22/4 622/23/5 641/42/5 
f 626/27/9 627/28/10 647/49/9 
f 609/10/9 627/28/10 626/27/9 
f 603/3/22 620/21/3 637/38/22 
f 637/38/22 620/21/3 638/39/3 
f 610/11/10 628/29/21 627/28/10 
f 628/29/21 629/30/12 650/52/21 
f 615/16/15 633/34/16 632/33/15 
f 632/33/15 633/34/16 656/58/16 
f 617/18/17 635/36/18 634/35/17 
f 634/35/17 635/36/18 658/60/18 
f 625/26/8 647/49/9 646/48/9 
f 625/26/8 626/27/9 647/49/9 
f 623/63/6 624/25/7 643/44/6 
f 606/8/6 624/25/7 623/63/6 
f 622/23/5 643/64/6 642/43/6 
f 622/23/5 623/24/6 643/64/6 
f 630/31/13 631/32/14 653/55/13 
f 613/14/13 631/32/14 630/31/13 
f 629/30/12 653/55/13 652/54/13 
f 629/30/12 630/31/13 653/55/13 
f 627/28/10 628/29/21 650/52/21 
f 627/28/10 650/52/21 649/51/21 
s 1
f 661/1/1 662/2/1 663/3/1 
f 661/1/1 664/4/1 662/2/1 
f 661/1/1 665/5/1 664/4/1 
f 661/1/1 666/6/1 665/5/1 
f 661/1/1 667/7/1 666/8/1 
f 661/1/1 668/9/1 667/7/1 
f 661/1/1 669/10/1 668/9/1 
f 661/1/1 670/11/1 669/10/1 
f 661/1/1 671/12/1 670/11/1 
f 661/1/1 672/13/1 671/12/1 
f 661/1/1 673/14/1 672/13/1 
f 661/1/1 674/15/1 673/14/1 
f 661/1/1 675/16/1 674/15/1 
f 661/1/1 676/17/1 675/16/1 
f 661/1/1 677/18/1 676/17/1 
f 661/1/1 678/19/1 677/18/1 
f 661/1/1 679/20/1 678/19/1 
f 661/1/1 663/3/1 679/20/1 
s 8
f 663/3/2 662/2/3 680/21/3 
f 662/2/3 664/4/4 681/22/4 
f 664/4/4 665/5/5 682/23/5 
f 665/5/5 666/6/6 683/24/6 
f 666/8/6 667/7/7 684/25/7 
f 667/7/7 668/9/8 685/26/8 
f 668/9/8 669/10/9 686/27/9 
f 669/10/9 670/11/10 687/28/10 
f 670/11/10 671/12/21 688/29/21 
f 671/12/21 672/13/12 689/30/12 
f 672/13/12 673/14/13 690/31/13 
f 673/14/13 674/15/14 691/32/14 
f 674/15/14 675/16/15 692/33/15 
f 675/16/15 676/17/16 693/34/16 
f 676/17/16 677/18/17 694/35/17 
f 677/18/17 678/19/18 695/36/18 
f 678/19/18 679/20/19 696/37/19 
f 679/20/19 663/3/2 697/38/2 
f 697/38/2 698/39/3 699/40/2 
f 680/21/3 700/41/4 698/39/3 
f 681/22/4 701/42/5 700/41/4 
f 682/23/5 702/43/6 701/42/5 
f 703/44/6 704/45/7 702/46/6 
f 684/25/7 705/47/8 704/45/7 
f 685/26/8 706/48/9 705/47/8 
f 707/49/9 708/50/10 706/48/9 
f 687/28/10 709/51/21 708/50/10 
f 710/52/21 711/53/12 709/51/21 
f 689/30/12 712/54/13 711/53/12 
f 713/55/13 714/56/14 712/54/13 
f 691/32/14 715/57/15 714/56/14 
f 692/33/15 716/58/16 715/57/15 
f 693/34/16 717/59/17 716/58/16 
f 694/35/17 718/60/18 717/59/17 
f 695/36/18 719/61/19 718/60/18 
f 696/37/19 699/40/2 719/61/19 
s 1
f 720/62/20 699/40/20 698/39/20 
f 720/62/20 698/39/20 700/41/20 
f 720/62/20 700/41/20 701/42/20 
f 720/62/20 701/42/20 702/43/20 
f 720/62/20 702/46/20 704/45/20 
f 720/62/20 704/45/20 705/47/20 
f 720/62/20 705/47/20 706/48/20 
f 720/62/20 706/48/20 708/50/20 
f 720/62/20 708/50/20 709/51/20 
f 720/62/20 709/51/20 711/53/20 
f 720/62/20 711/53/20 712/54/20 
f 720/62/20 712/54/20 714/56/20 
f 720/62/20 714/56/20 715/57/20 
f 720/62/20 715/57/20 716/58/20 
f 720/62/20 716/58/20 717/59/20 
f 720/62/20 717/59/20 718/60/20 
f 720/62/20 718/60/20 719/61/20 
f 720/62/20 719/61/20 699/40/20 
s 8
f 668/9/8 686/27/9 685/26/8 
f 679/20/19 697/38/2 696/37/19 
f 696/37/19 697/38/2 699/40/2 
f 707/49/9 687/28/10 708/50/10 
f 674/15/14 692/33/15 691/32/14 
f 691/32/14 692/33/15 715/57/15 
f 665/5/5 683/24/6 682/23/5 
f 703/44/6 684/25/7 704/45/7 
f 676/17/16 694/35/17 693/34/16 
f 693/34/16 694/35/17 717/59/17 
f 662/2/3 681/22/4 680/21/3 
f 680/21/3 681/22/4 700/41/4 
f 671/12/21 689/30/12 688/29/21 
f 710/52/21 689/30/12 711/53/12 
f 713/55/13 691/32/14 714/56/14 
f 672/13/12 690/31/13 689/30/12 
f 667/7/7 685/26/8 684/25/7 
f 684/25/7 685/26/8 705/47/8 
f 678/19/18 696/37/19 695/36/18 
f 695/36/18 696/37/19 719/61/19 
f 664/4/4 682/23/5 681/22/4 
f 681/22/4 682/23/5 701/42/5 
f 686/27/9 687/28/10 707/49/9 
f 669/10/9 687/28/10 686/27/9 
f 663/3/2 680/21/3 697/38/2 
f 697/38/2 680/21/3 698/39/3 
f 670/11/10 688/29/21 687/28/10 
f 688/29/21 689/30/12 710/52/21 
f 675/16/15 693/34/16 692/33/15 
f 692/33/15 693/34/16 716/58/16 
f 677/18/17 695/36/18 694/35/17 
f 694/35/17 695/36/18 718/60/18 
f 685/26/8 707/49/9 706/48/9 
f 685/26/8 686/27/9 707/49/9 
f 683/63/6 684/25/7 703/44/6 
f 666/8/6 684/25/7 683/63/6 
f 682/23/5 703/64/6 702/43/6 
f 682/23/5 683/24/6 703/64/6 
f 690/31/13 691/32/14 713/55/13 
f 673/14/13 691/32/14 690/31/13 
f 689/30/12 713/55/13 712/54/13 
f 689/30/12 690/31/13 713/55/13 
f 687/28/10 688/29/21 710/52/21 
f 687/28/10 710/52/21 709/51/21 
s 1
f 721/1/1 722/2/1 723/3/1 
f 721/1/1 724/4/1 722/2/1 
f 721/1/1 725/5/1 724/4/1 
f 721/1/1 726/6/1 725/5/1 
f 721/1/1 727/7/1 726/8/1 
f 721/1/1 728/9/1 727/7/1 
f 721/1/1 729/10/1 728/9/1 
f 721/1/1 730/11/1 729/10/1 
f 721/1/1 731/12/1 730/11/1 
f 721/1/1 732/13/1 731/12/1 
f 721/1/1 733/14/1 732/13/1 
f 721/1/1 734/15/1 733/14/1 
f 721/1/1 735/16/1 734/15/1 
f 721/1/1 736/17/1 735/16/1 
f 721/1/1 737/18/1 736/17/1 
f 721/1/1 738/19/1 737/18/1 
f 721/1/1 739/20/1 738/19/1 
f 721/1/1 723/3/1 739/20/1 
s 8
f 723/3/2 722/2/3 740/21/3 
f 722/2/3 724/4/4 741/22/4 
f 724/4/4 725/5/5 742/23/5 
f 725/5/5 726/6/6 743/24/6 
f 726/8/6 727/7/7 744/25/7 
f 727/7/7 728/9/8 745/26/8 
f 728/9/8 729/10/9 746/27/9 
f 729/10/9 730/11/10 747/28/10 
f 730/11/10 731/12/11 748/29/11 
f 731/12/11 732/13/12 749/30/12 
f 732/13/12 733/14/13 750/31/13 
f 733/14/13 734/15/14 751/32/14 
f 734/15/14 735/16/15 752/33/15 
f 735/16/15 736/17/16 753/34/16 
f 736/17/16 737/18/17 754/35/17 
f 737/18/17 738/19/18 755/36/18 
f 738/19/18 739/20/19 756/37/19 
f 739/20/19 723/3/2 757/38/2 
f 757/38/2 758/39/3 759/40/2 
f 740/21/3 760/41/4 758/39/3 
f 741/22/4 761/42/5 760/41/4 
f 742/23/5 762/43/6 761/42/5 
f 763/44/6 764/45/7 762/46/6 
f 744/25/7 765/47/8 764/45/7 
f 745/26/8 766/48/9 765/47/8 
f 767/49/9 768/50/10 766/48/9 
f 747/28/10 769/51/11 768/50/10 
f 770/52/11 771/53/12 769/51/11 
f 749/30/12 772/54/13 771/53/12 
f 773/55/13 774/56/14 772/54/13 
f 751/32/14 775/57/15 774/56/14 
f 752/33/15 776/58/16 775/57/15 
f 753/34/16 777/59/17 776/58/16 
f 754/35/17 778/60/18 777/59/17 
f 755/36/18 779/61/19 778/60/18 
f 756/37/19 759/40/2 779/61/19 
s 1
f 780/62/20 759/40/20 758/39/20 
f 780/62/20 758/39/20 760/41/20 
f 780/62/20 760/41/20 761/42/20 
f 780/62/20 761/42/20 762/43/20 
f 780/62/20 762/46/20 764/45/20 
f 780/62/20 764/45/20 765/47/20 
f 780/62/20 765/47/20 766/48/20 
f 780/62/20 766/48/20 768/50/20 
f 780/62/20 768/50/20 769/51/20 
f 780/62/20 769/51/20 771/53/20 
f 780/62/20 771/53/20 772/54/20 
f 780/62/20 772/54/20 774/56/20 
f 780/62/20 774/56/20 775/57/20 
f 780/62/20 775/57/20 776/58/20 
f 780/62/20 776/58/20 777/59/20 
f 780/62/20 777/59/20 778/60/20 
f 780/62/20 778/60/20 779/61/20 
f 780/62/20 779/61/20 759/40/20 
s 8
f 728/9/8 746/27/9 745/26/8 
f 739/20/19 757/38/2 756/37/19 
f 756/37/19 757/38/2 759/40/2 
f 767/49/9 747/28/10 768/50/10 
f 734/15/14 752/33/15 751/32/14 
f 751/32/14 752/33/15 775/57/15 
f 725/5/5 743/24/6 742/23/5 
f 763/44/6 744/25/7 764/45/7 
f 736/17/16 754/35/17 753/34/16 
f 753/34/16 754/35/17 777/59/17 
f 722/2/3 741/22/4 740/21/3 
f 740/21/3 741/22/4 760/41/4 
f 731/12/11 749/30/12 748/29/11 
f 770/52/11 749/30/12 771/53/12 
f 773/55/13 751/32/14 774/56/14 
f 732/13/12 750/31/13 749/30/12 
f 727/7/7 745/26/8 744/25/7 
f 744/25/7 745/26/8 765/47/8 
f 738/19/18 756/37/19 755/36/18 
f 755/36/18 756/37/19 779/61/19 
f 724/4/4 742/23/5 741/22/4 
f 741/22/4 742/23/5 761/42/5 
f 746/27/9 747/28/10 767/49/9 
f 729/10/9 747/28/10 746/27/9 
f 723/3/2 740/21/3 757/38/2 
f 757/38/2 740/21/3 758/39/3 
f 730/11/10 748/29/11 747/28/10 
f 748/29/11 749/30/12 770/52/11 
f 735/16/15 753/34/16 752/33/15 
f 752/33/15 753/34/16 776/58/16 
f 737/18/17 755/36/18 754/35/17 
f 754/35/17 755/36/18 778/60/18 
f 745/26/8 767/49/9 766/48/9 
f 745/26/8 746/27/9 767/49/9 
f 743/63/6 744/25/7 763/44/6 
f 726/8/6 744/25/7 743/63/6 
f 742/23/5 763/64/6 762/43/6 
f 742/23/5 743/24/6 763/64/6 
f 750/31/13 751/32/14 773/55/13 
f 733/14/13 751/32/14 750/31/13 
f 749/30/12 773/55/13 772/54/13 
f 749/30/12 750/31/13 773/55/13 
f 747/28/10 748/29/11 770/52/11 
f 747/28/10 770/52/11 769/51/11 
s 1
f 781/1/1 782/2/1 783/3/1 
f 781/1/1 784/4/1 782/2/1 
f 781/1/1 785/5/1 784/4/1 
f 781/1/1 786/6/1 785/5/1 
f 781/1/1 787/7/1 786/8/1 
f 781/1/1 788/9/1 787/7/1 
f 781/1/1 789/10/1 788/9/1 
f 781/1/1 790/11/1 789/10/1 
f 781/1/1 791/12/1 790/11/1 
f 781/1/1 792/13/1 791/12/1 
f 781/1/1 793/14/1 792/13/1 
f 781/1/1 794/15/1 793/14/1 
f 781/1/1 795/16/1 794/15/1 
f 781/1/1 796/17/1 795/16/1 
f 781/1/1 797/18/1 796/17/1 
f 781/1/1 798/19/1 797/18/1 
f 781/1/1 799/20/1 798/19/1 
f 781/1/1 783/3/1 799/20/1 
s 8
f 783/3/2 782/2/3 800/21/3 
f 782/2/3 784/4/4 801/22/4 
f 784/4/4 785/5/5 802/23/5 
f 785/5/5 786/6/6 803/24/6 
f 786/8/6 787/7/7 804/25/7 
f 787/7/7 788/9/8 805/26/8 
f 788/9/8 789/10/9 806/27/9 
f 789/10/9 790/11/10 807/28/10 
f 790/11/10 791/12/21 808/29/11 
f 791/12/21 792/13/12 809/30/12 
f 792/13/12 793/14/13 810/31/13 
f 793/14/13 794/15/14 811/32/14 
f 794/15/14 795/16/15 812/33/15 
f 795/16/15 796/17/23 813/34/23 
f 796/17/23 797/18/17 814/35/17 
f 797/18/17 798/19/18 815/36/18 
f 798/19/18 799/20/19 816/37/19 
f 799/20/19 783/3/2 817/38/2 
f 817/38/2 818/39/3 819/40/2 
f 800/21/3 820/41/4 818/39/3 
f 801/22/4 821/42/5 820/41/4 
f 802/23/5 822/43/6 821/42/5 
f 823/44/6 824/45/7 822/46/6 
f 804/25/7 825/47/8 824/45/7 
f 805/26/8 826/48/9 825/47/8 
f 827/49/9 828/50/10 826/48/9 
f 807/28/10 829/51/11 828/50/10 
f 830/52/21 831/53/12 829/51/11 
f 809/30/12 832/54/13 831/53/12 
f 833/55/13 834/56/14 832/54/13 
f 811/32/14 835/57/15 834/56/14 
f 812/33/15 836/58/23 835/57/15 
f 813/34/23 837/59/17 836/58/23 
f 814/35/17 838/60/18 837/59/17 
f 815/36/18 839/61/19 838/60/18 
f 816/37/19 819/40/2 839/61/19 
s 1
f 840/62/20 819/40/20 818/39/20 
f 840/62/20 818/39/20 820/41/20 
f 840/62/20 820/41/20 821/42/20 
f 840/62/20 821/42/20 822/43/20 
f 840/62/20 822/46/20 824/45/20 
f 840/62/20 824/45/20 825/47/20 
f 840/62/20 825/47/20 826/48/20 
f 840/62/20 826/48/20 828/50/20 
f 840/62/20 828/50/20 829/51/20 
f 840/62/20 829/51/20 831/53/20 
f 840/62/20 831/53/20 832/54/20 
f 840/62/20 832/54/20 834/56/20 
f 840/62/20 834/56/20 835/57/20 
f 840/62/20 835/57/20 836/58/20 
f 840/62/20 836/58/20 837/59/20 
f 840/62/20 837/59/20 838/60/20 
f 840/62/20 838/60/20 839/61/20 
f 840/62/20 839/61/20 819/40/20 
s 8
f 788/9/8 806/27/9 805/26/8 
f 799/20/19 817/38/2 816/37/19 
f 816/37/19 817/38/2 819/40/2 
f 827/49/9 807/28/10 828/50/10 
f 794/15/14 812/33/15 811/32/14 
f 811/32/14 812/33/15 835/57/15 
f 785/5/5 803/24/6 802/23/5 
f 823/44/6 804/25/7 824/45/7 
f 796/17/23 814/35/17 813/34/23 
f 813/34/23 814/35/17 837/59/17 
f 782/2/3 801/22/4 800/21/3 
f 800/21/3 801/22/4 820/41/4 
f 791/12/21 809/30/12 808/29/11 
f 830/52/21 809/30/12 831/53/12 
f 833/55/13 811/32/14 834/56/14 
f 792/13/12 810/31/13 809/30/12 
f 787/7/7 805/26/8 804/25/7 
f 804/25/7 805/26/8 825/47/8 
f 798/19/18 816/37/19 815/36/18 
f 815/36/18 816/37/19 839/61/19 
f 784/4/4 802/23/5 801/22/4 
f 801/22/4 802/23/5 821/42/5 
f 806/27/9 807/28/10 827/49/9 
f 789/10/9 807/28/10 806/27/9 
f 783/3/2 800/21/3 817/38/2 
f 817/38/2 800/21/3 818/39/3 
f 790/11/10 808/29/11 807/28/10 
f 808/29/11 809/30/12 830/52/21 
f 795/16/15 813/34/23 812/33/15 
f 812/33/15 813/34/23 836/58/23 
f 797/18/17 815/36/18 814/35/17 
f 814/35/17 815/36/18 838/60/18 
f 805/26/8 827/49/9 826/48/9 
f 805/26/8 806/27/9 827/49/9 
f 803/63/6 804/25/7 823/44/6 
f 786/8/6 804/25/7 803/63/6 
f 802/23/5 823/64/6 822/43/6 
f 802/23/5 803/24/6 823/64/6 
f 810/31/13 811/32/14 833/55/13 
f 793/14/13 811/32/14 810/31/13 
f 809/30/12 833/55/13 832/54/13 
f 809/30/12 810/31/13 833/55/13 
f 807/28/10 808/29/11 830/52/21 
f 807/28/10 830/52/21 829/51/11 
s 1
f 841/1/1 842/2/1 843/3/1 
f 841/1/1 844/4/1 842/2/1 
f 841/1/1 845/5/1 844/4/1 
f 841/1/1 846/6/1 845/5/1 
f 841/1/1 847/7/1 846/8/1 
f 841/1/1 848/9/1 847/7/1 
f 841/1/1 849/10/1 848/9/1 
f 841/1/1 850/11/1 849/10/1 
f 841/1/1 851/12/1 850/11/1 
f 841/1/1 852/13/1 851/12/1 
f 841/1/1 853/14/1 852/13/1 
f 841/1/1 854/15/1 853/14/1 
f 841/1/1 855/16/1 854/15/1 
f 841/1/1 856/17/1 855/16/1 
f 841/1/1 857/18/1 856/17/1 
f 841/1/1 858/19/1 857/18/1 
f 841/1/1 859/20/1 858/19/1 
f 841/1/1 843/3/1 859/20/1 
s 8
f 843/3/2 842/2/3 860/21/3 
f 842/2/3 844/4/4 861/22/4 
f 844/4/4 845/5/5 862/23/5 
f 845/5/5 846/6/6 863/24/6 
f 846/8/6 847/7/7 864/25/7 
f 847/7/7 848/9/8 865/26/8 
f 848/9/8 849/10/9 866/27/9 
f 849/10/9 850/11/10 867/28/10 
f 850/11/10 851/12/11 868/29/11 
f 851/12/11 852/13/12 869/30/12 
f 852/13/12 853/14/13 870/31/13 
f 853/14/13 854/15/14 871/32/14 
f 854/15/14 855/16/15 872/33/15 
f 855/16/15 856/17/16 873/34/16 
f 856/17/16 857/18/17 874/35/17 
f 857/18/17 858/19/18 875/36/18 
f 858/19/18 859/20/19 876/37/19 
f 859/20/19 843/3/2 877/38/2 
f 877/38/2 878/39/3 879/40/2 
f 860/21/3 880/41/4 878/39/3 
f 861/22/4 881/42/5 880/41/4 
f 862/23/5 882/43/6 881/42/5 
f 883/44/6 884/45/7 882/46/6 
f 864/25/7 885/47/8 884/45/7 
f 865/26/8 886/48/9 885/47/8 
f 887/49/9 888/50/10 886/48/9 
f 867/28/10 889/51/11 888/50/10 
f 890/52/11 891/53/12 889/51/11 
f 869/30/12 892/54/13 891/53/12 
f 893/55/13 894/56/14 892/54/13 
f 871/32/14 895/57/15 894/56/14 
f 872/33/15 896/58/16 895/57/15 
f 873/34/16 897/59/17 896/58/16 
f 874/35/17 898/60/18 897/59/17 
f 875/36/18 899/61/19 898/60/18 
f 876/37/19 879/40/2 899/61/19 
s 1
f 900/62/20 879/40/20 878/39/20 
f 900/62/20 878/39/20 880/41/20 
f 900/62/20 880/41/20 881/42/20 
f 900/62/20 881/42/20 882/43/20 
f 900/62/20 882/46/20 884/45/20 
f 900/62/20 884/45/20 885/47/20 
f 900/62/20 885/47/20 886/48/20 
f 900/62/20 886/48/20 888/50/20 
f 900/62/20 888/50/20 889/51/20 
f 900/62/20 889/51/20 891/53/20 
f 900/62/20 891/53/20 892/54/20 
f 900/62/20 892/54/20 894/56/20 
f 900/62/20 894/56/20 895/57/20 
f 900/62/20 895/57/20 896/58/20 
f 900/62/20 896/58/20 897/59/20 
f 900/62/20 897/59/20 898/60/20 
f 900/62/20 898/60/20 899/61/20 
f 900/62/20 899/61/20 879/40/20 
s 8
f 848/9/8 866/27/9 865/26/8 
f 859/20/19 877/38/2 876/37/19 
f 876/37/19 877/38/2 879/40/2 
f 887/49/9 867/28/10 888/50/10 
f 854/15/14 872/33/15 871/32/14 
f 871/32/14 872/33/15 895/57/15 
f 845/5/5 863/24/6 862/23/5 
f 883/44/6 864/25/7 884/45/7 
f 856/17/16 874/35/17 873/34/16 
f 873/34/16 874/35/17 897/59/17 
f 842/2/3 861/22/4 860/21/3 
f 860/21/3 861/22/4 880/41/4 
f 851/12/11 869/30/12 868/29/11 
f 890/52/11 869/30/12 891/53/12 
f 893/55/13 871/32/14 894/56/14 
f 852/13/12 870/31/13 869/30/12 
f 847/7/7 865/26/8 864/25/7 
f 864/25/7 865/26/8 885/47/8 
f 858/19/18 876/37/19 875/36/18 
f 875/36/18 876/37/19 899/61/19 
f 844/4/4 862/23/5 861/22/4 
f 861/22/4 862/23/5 881/42/5 
f 866/27/9 867/28/10 887/49/9 
f 849/10/9 867/28/10 866/27/9 
f 843/3/2 860/21/3 877/38/2 
f 877/38/2 860/21/3 878/39/3 
f 850/11/10 868/29/11 867/28/10 
f 868/29/11 869/30/12 890/52/11 
f 855/16/15 873/34/16 872/33/15 
f 872/33/15 873/34/16 896/58/16 
f 857/18/17 875/36/18 874/35/17 
f 874/35/17 875/36/18 898/60/18 
f 865/26/8 887/49/9 886/48/9 
f 865/26/8 866/27/9 887/49/9 
f 863/63/6 864/25/7 883/44/6 
f 846/8/6 864/25/7 863/63/6 
f 862/23/5 883/64/6 882/43/6 
f 862/23/5 863/24/6 883/64/6 
f 870/31/13 871/32/14 893/55/13 
f 853/14/13 871/32/14 870/31/13 
f 869/30/12 893/55/13 892/54/13 
f 869/30/12 870/31/13 893/55/13 
f 867/28/10 868/29/11 890/52/11 
f 867/28/10 890/52/11 889/51/11 
s 1
f 901/1/1 902/2/1 903/3/1 
f 901/1/1 904/4/1 902/2/1 
f 901/1/1 905/5/1 904/4/1 
f 901/1/1 906/6/1 905/5/1 
f 901/1/1 907/7/1 906/8/1 
f 901/1/1 908/9/1 907/7/1 
f 901/1/1 909/10/1 908/9/1 
f 901/1/1 910/11/1 909/10/1 
f 901/1/1 911/12/1 910/11/1 
f 901/1/1 912/13/1 911/12/1 
f 901/1/1 913/14/1 912/13/1 
f 901/1/1 914/15/1 913/14/1 
f 901/1/1 915/16/1 914/15/1 
f 901/1/1 916/17/1 915/16/1 
f 901/1/1 917/18/1 916/17/1 
f 901/1/1 918/19/1 917/18/1 
f 901/1/1 919/20/1 918/19/1 
f 901/1/1 903/3/1 919/20/1 
s 8
f 903/3/2 902/2/3 920/21/3 
f 902/2/3 904/4/4 921/22/4 
f 904/4/4 905/5/5 922/23/5 
f 905/5/5 906/6/6 923/24/6 
f 906/8/6 907/7/7 924/25/7 
f 907/7/7 908/9/8 925/26/8 
f 908/9/8 909/10/9 926/27/9 
f 909/10/9 910/11/10 927/28/10 
f 910/11/10 911/12/21 928/29/11 
f 911/12/21 912/13/12 929/30/12 
f 912/13/12 913/14/13 930/31/13 
f 913/14/13 914/15/14 931/32/14 
f 914/15/14 915/16/15 932/33/15 
f 915/16/15 916/17/23 933/34/23 
f 916/17/23 917/18/17 934/35/17 
f 917/18/17 918/19/18 935/36/18 
f 918/19/18 919/20/19 936/37/19 
f 919/20/19 903/3/2 937/38/2 
f 937/38/2 938/39/3 939/40/2 
f 920/21/3 940/41/4 938/39/3 
f 921/22/4 941/42/5 940/41/4 
f 922/23/5 942/43/6 941/42/5 
f 943/44/6 944/45/7 942/46/6 
f 924/25/7 945/47/8 944/45/7 
f 925/26/8 946/48/9 945/47/8 
f 947/49/9 948/50/10 946/48/9 
f 927/28/10 949/51/11 948/50/10 
f 950/52/21 951/53/12 949/51/11 
f 929/30/12 952/54/13 951/53/12 
f 953/55/13 954/56/14 952/54/13 
f 931/32/14 955/57/15 954/56/14 
f 932/33/15 956/58/23 955/57/15 
f 933/34/23 957/59/17 956/58/23 
f 934/35/17 958/60/18 957/59/17 
f 935/36/18 959/61/19 958/60/18 
f 936/37/19 939/40/2 959/61/19 
s 1
f 960/62/20 939/40/20 938/39/20 
f 960/62/20 938/39/20 940/41/20 
f 960/62/20 940/41/20 941/42/20 
f 960/62/20 941/42/20 942/43/20 
f 960/62/20 942/46/20 944/45/20 
f 960/62/20 944/45/20 945/47/20 
f 960/62/20 945/47/20 946/48/20 
f 960/62/20 946/48/20 948/50/20 
f 960/62/20 948/50/20 949/51/20 
f 960/62/20 949/51/20 951/53/20 
f 960/62/20 951/53/20 952/54/20 
f 960/62/20 952/54/20 954/56/20 
f 960/62/20 954/56/20 955/57/20 
f 960/62/20 955/57/20 956/58/20 
f 960/62/20 956/58/20 957/59/20 
f 960/62/20 957/59/20 958/60/20 
f 960/62/20 958/60/20 959/61/20 
f 960/62/20 959/61/20 939/40/20 
s 8
f 908/9/8 926/27/9 925/26/8 
f 919/20/19 937/38/2 936/37/19 
f 936/37/19 937/38/2 939/40/2 
f 947/49/9 927/28/10 948/50/10 
f 914/15/14 932/33/15 931/32/14 
f 931/32/14 932/33/15 955/57/15 
f 905/5/5 923/24/6 922/23/5 
f 943/44/6 924/25/7 944/45/7 
f 916/17/23 934/35/17 933/34/23 
f 933/34/23 934/35/17 957/59/17 
f 902/2/3 921/22/4 920/21/3 
f 920/21/3 921/22/4 940/41/4 
f 911/12/21 929/30/12 928/29/11 
f 950/52/21 929/30/12 951/53/12 
f 953/55/13 931/32/14 954/56/14 
f 912/13/12 930/31/13 929/30/12 
f 907/7/7 925/26/8 924/25/7 
f 924/25/7 925/26/8 945/47/8 
f 918/19/18 936/37/19 935/36/18 
f 935/36/18 936/37/19 959/61/19 
f 904/4/4 922/23/5 921/22/4 
f 921/22/4 922/23/5 941/42/5 
f 926/27/9 927/28/10 947/49/9 
f 909/10/9 927/28/10 926/27/9 
f 903/3/2 920/21/3 937/38/2 
f 937/38/2 920/21/3 938/39/3 
f 910/11/10 928/29/11 927/28/10 
f 928/29/11 929/30/12 950/52/21 
f 915/16/15 933/34/23 932/33/15 
f 932/33/15 933/34/23 956/58/23 
f 917/18/17 935/36/18 934/35/17 
f 934/35/17 935/36/18 958/60/18 
f 925/26/8 947/49/9 946/48/9 
f 925/26/8 926/27/9 947/49/9 
f 923/63/6 924/25/7 943/44/6 
f 906/8/6 924/25/7 923/63/6 
f 922/23/5 943/64/6 942/43/6 
f 922/23/5 923/24/6 943/64/6 
f 930/31/13 931/32/14 953/55/13 
f 913/14/13 931/32/14 930/31/13 
f 929/30/12 953/55/13 952/54/13 
f 929/30/12 930/31/13 953/55/13 
f 927/28/10 928/29/11 950/52/21 
f 927/28/10 950/52/21 949/51/11 
s 1
f 961/1/1 962/2/1 963/3/1 
f 961/1/1 964/4/1 962/2/1 
f 961/1/1 965/5/1 964/4/1 
f 961/1/1 966/6/1 965/5/1 
f 961/1/1 967/7/1 966/8/1 
f 961/1/1 968/9/1 967/7/1 
f 961/1/1 969/10/1 968/9/1 
f 961/1/1 970/11/1 969/10/1 
f 961/1/1 971/12/1 970/11/1 
f 961/1/1 972/13/1 971/12/1 
f 961/1/1 973/14/1 972/13/1 
f 961/1/1 974/15/1 973/14/1 
f 961/1/1 975/16/1 974/15/1 
f 961/1/1 976/17/1 975/16/1 
f 961/1/1 977/18/1 976/17/1 
f 961/1/1 978/19/1 977/18/1 
f 961/1/1 979/20/1 978/19/1 
f 961/1/1 963/3/1 979/20/1 
s 8
f 963/3/2 962/2/3 980/21/3 
f 962/2/3 964/4/4 981/22/4 
f 964/4/4 965/5/5 982/23/5 
f 965/5/5 966/6/6 983/24/6 
f 966/8/6 967/7/7 984/25/7 
f 967/7/7 968/9/8 985/26/8 
f 968/9/8 969/10/9 986/27/9 
f 969/10/9 970/11/10 987/28/10 
f 970/11/10 971/12/11 988/29/11 
f 971/12/11 972/13/12 989/30/12 
f 972/13/12 973/14/13 990/31/13 
f 973/14/13 974/15/14 991/32/14 
f 974/15/14 975/16/15 992/33/15 
f 975/16/15 976/17/16 993/34/16 
f 976/17/16 977/18/17 994/35/17 
f 977/18/17 978/19/18 995/36/18 
f 978/19/18 979/20/19 996/37/19 
f 979/20/19 963/3/2 997/38/2 
f 997/38/2 998/39/3 999/40/2 
f 980/21/3 1000/41/4 998/39/3 
f 981/22/4 1001/42/5 1000/41/4 
f 982/23/5 1002/43/6 1001/42/5 
f 1003/44/6 1004/45/7 1002/46/6 
f 984/25/7 1005/47/8 1004/45/7 
f 985/26/8 1006/48/9 1005/47/8 
f 1007/49/9 1008/50/10 1006/48/9 
f 987/28/10 1009/51/11 1008/50/10 
f 1010/52/11 1011/53/12 1009/51/11 
f 989/30/12 1012/54/13 1011/53/12 
f 1013/55/13 1014/56/14 1012/54/13 
f 991/32/14 1015/57/15 1014/56/14 
f 992/33/15 1016/58/16 1015/57/15 
f 993/34/16 1017/59/17 1016/58/16 
f 994/35/17 1018/60/18 1017/59/17 
f 995/36/18 1019/61/19 1018/60/18 
f 996/37/19 999/40/2 1019/61/19 
s 1
f 1020/62/20 999/40/20 998/39/20 
f 1020/62/20 998/39/20 1000/41/20 
f 1020/62/20 1000/41/20 1001/42/20 
f 1020/62/20 1001/42/20 1002/43/20 
f 1020/62/20 1002/46/20 1004/45/20 
f 1020/62/20 1004/45/20 1005/47/20 
f 1020/62/20 1005/47/20 1006/48/20 
f 1020/62/20 1006/48/20 1008/50/20 
f 1020/62/20 1008/50/20 1009/51/20 
f 1020/62/20 1009/51/20 1011/53/20 
f 1020/62/20 1011/53/20 1012/54/20 
f 1020/62/20 1012/54/20 1014/56/20 
f 1020/62/20 1014/56/20 1015/57/20 
f 1020/62/20 1015/57/20 1016/58/20 
f 1020/62/20 1016/58/20 1017/59/20 
f 1020/62/20 1017/59/20 1018/60/20 
f 1020/62/20 1018/60/20 1019/61/20 
f 1020/62/20 1019/61/20 999/40/20 
s 8
f 968/9/8 986/27/9 985/26/8 
f 979/20/19 997/38/2 996/37/19 
f 996/37/19 997/38/2 999/40/2 
f 1007/49/9 987/28/10 1008/50/10 
f 974/15/14 992/33/15 991/32/14 
f 991/32/14 992/33/15 1015/57/15 
f 965/5/5 983/24/6 982/23/5 
f 1003/44/6 984/25/7 1004/45/7 
f 976/17/16 994/35/17 993/34/16 
f 993/34/16 994/35/17 1017/59/17 
f 962/2/3 981/22/4 980/21/3 
f 980/21/3 981/22/4 1000/41/4 
f 971/12/11 989/30/12 988/29/11 
f 1010/52/11 989/30/12 1011/53/12 
f 1013/55/13 991/32/14 1014/56/14 
f 972/13/12 990/31/13 989/30/12 
f 967/7/7 985/26/8 984/25/7 
f 984/25/7 985/26/8 1005/47/8 
f 978/19/18 996/37/19 995/36/18 
f 995/36/18 996/37/19 1019/61/19 
f 964/4/4 982/23/5 981/22/4 
f 981/22/4 982/23/5 1001/42/5 
f 986/27/9 987/28/10 1007/49/9 
f 969/10/9 987/28/10 986/27/9 
f 963/3/2 980/21/3 997/38/2 
f 997/38/2 980/21/3 998/39/3 
f 970/11/10 988/29/11 987/28/10 
f 988/29/11 989/30/12 1010/52/11 
f 975/16/15 993/34/16 992/33/15 
f 992/33/15 993/34/16 1016/58/16 
f 977/18/17 995/36/18 994/35/17 
f 994/35/17 995/36/18 1018/60/18 
f 985/26/8 1007/49/9 1006/48/9 
f 985/26/8 986/27/9 1007/49/9 
f 983/63/6 984/25/7 1003/44/6 
f 966/8/6 984/25/7 983/63/6 
f 982/23/5 1003/64/6 1002/43/6 
f 982/23/5 983/24/6 1003/64/6 
f 990/31/13 991/32/14 1013/55/13 
f 973/14/13 991/32/14 990/31/13 
f 989/30/12 1013/55/13 1012/54/13 
f 989/30/12 990/31/13 1013/55/13 
f 987/28/10 988/29/11 1010/52/11 
f 987/28/10 1010/52/11 1009/51/11 
s 1
f 1021/1/1 1022/2/1 1023/3/1 
f 1021/1/1 1024/4/1 1022/2/1 
f 1021/1/1 1025/5/1 1024/4/1 
f 1021/1/1 1026/6/1 1025/5/1 
f 1021/1/1 1027/7/1 1026/8/1 
f 1021/1/1 1028/9/1 1027/7/1 
f 1021/1/1 1029/10/1 1028/9/1 
f 1021/1/1 1030/11/1 1029/10/1 
f 1021/1/1 1031/12/1 1030/11/1 
f 1021/1/1 1032/13/1 1031/12/1 
f 1021/1/1 1033/14/1 1032/13/1 
f 1021/1/1 1034/15/1 1033/14/1 
f 1021/1/1 1035/16/1 1034/15/1 
f 1021/1/1 1036/17/1 1035/16/1 
f 1021/1/1 1037/18/1 1036/17/1 
f 1021/1/1 1038/19/1 1037/18/1 
f 1021/1/1 1039/20/1 1038/19/1 
f 1021/1/1 1023/3/1 1039/20/1 
s 8
f 1023/3/2 1022/2/3 1040/21/3 
f 1022/2/3 1024/4/4 1041/22/4 
f 1024/4/4 1025/5/5 1042/23/5 
f 1025/5/5 1026/6/6 1043/24/6 
f 1026/8/6 1027/7/7 1044/25/7 
f 1027/7/7 1028/9/8 1045/26/8 
f 1028/9/8 1029/10/9 1046/27/9 
f 1029/10/9 1030/11/10 1047/28/10 
f 1030/11/10 1031/12/21 1048/29/11 
f 1031/12/21 1032/13/12 1049/30/12 
f 1032/13/12 1033/14/13 1050/31/13 
f 1033/14/13 1034/15/14 1051/32/14 
f 1034/15/14 1035/16/15 1052/33/15 
f 1035/16/15 1036/17/23 1053/34/23 
f 1036/17/23 1037/18/17 1054/35/17 
f 1037/18/17 1038/19/18 1055/36/18 
f 1038/19/18 1039/20/19 1056/37/19 
f 1039/20/19 1023/3/2 1057/38/2 
f 1057/38/2 1058/39/3 1059/40/2 
f 1040/21/3 1060/41/4 1058/39/3 
f 1041/22/4 1061/42/5 1060/41/4 
f 1042/23/5 1062/43/6 1061/42/5 
f 1063/44/6 1064/45/7 1062/46/6 
f 1044/25/7 1065/47/8 1064/45/7 
f 1045/26/8 1066/48/9 1065/47/8 
f 1067/49/9 1068/50/10 1066/48/9 
f 1047/28/10 1069/51/11 1068/50/10 
f 1070/52/21 1071/53/12 1069/51/11 
f 1049/30/12 1072/54/13 1071/53/12 
f 1073/55/13 1074/56/14 1072/54/13 
f 1051/32/14 1075/57/15 1074/56/14 
f 1052/33/15 1076/58/23 1075/57/15 
f 1053/34/23 1077/59/17 1076/58/23 
f 1054/35/17 1078/60/18 1077/59/17 
f 1055/36/18 1079/61/19 1078/60/18 
f 1056/37/19 1059/40/2 1079/61/19 
s 1
f 1080/62/20 1059/40/20 1058/39/20 
f 1080/62/20 1058/39/20 1060/41/20 
f 1080/62/20 1060/41/20 1061/42/20 
f 1080/62/20 1061/42/20 1062/43/20 
f 1080/62/20 1062/46/20 1064/45/20 
f 1080/62/20 1064/45/20 1065/47/20 
f 1080/62/20 1065/47/20 1066/48/20 
f 1080/62/20 1066/48/20 1068/50/20 
f 1080/62/20 1068/50/20 1069/51/20 
f 1080/62/20 1069/51/20 1071/53/20 
f 1080/62/20 1071/53/20 1072/54/20 
f 1080/62/20 1072/54/20 1074/56/20 
f 1080/62/20 1074/56/20 1075/57/20 
f 1080/62/20 1075/57/20 1076/58/20 
f 1080/62/20 1076/58/20 1077/59/20 
f 1080/62/20 1077/59/20 1078/60/20 
f 1080/62/20 1078/60/20 1079/61/20 
f 1080/62/20 1079/61/20 1059/40/20 
s 8
f 1028/9/8 1046/27/9 1045/26/8 
f 1039/20/19 1057/38/2 1056/37/19 
f 1056/37/19 1057/38/2 1059/40/2 
f 1067/49/9 1047/28/10 1068/50/10 
f 1034/15/14 1052/33/15 1051/32/14 
f 1051/32/14 1052/33/15 1075/57/15 
f 1025/5/5 1043/24/6 1042/23/5 
f 1063/44/6 1044/25/7 1064/45/7 
f 1036/17/23 1054/35/17 1053/34/23 
f 1053/34/23 1054/35/17 1077/59/17 
f 1022/2/3 1041/22/4 1040/21/3 
f 1040/21/3 1041/22/4 1060/41/4 
f 1031/12/21 1049/30/12 1048/29/11 
f 1070/52/21 1049/30/12 1071/53/12 
f 1073/55/13 1051/32/14 1074/56/14 
f 1032/13/12 1050/31/13 1049/30/12 
f 1027/7/7 1045/26/8 1044/25/7 
f 1044/25/7 1045/26/8 1065/47/8 
f 1038/19/18 1056/37/19 1055/36/18 
f 1055/36/18 1056/37/19 1079/61/19 
f 1024/4/4 1042/23/5 1041/22/4 
f 1041/22/4 1042/23/5 1061/42/5 
f 1046/27/9 1047/28/10 1067/49/9 
f 1029/10/9 1047/28/10 1046/27/9 
f 1023/3/2 1040/21/3 1057/38/2 
f 1057/38/2 1040/21/3 1058/39/3 
f 1030/11/10 1048/29/11 1047/28/10 
f 1048/29/11 1049/30/12 1070/52/21 
f 1035/16/15 1053/34/23 1052/33/15 
f 1052/33/15 1053/34/23 1076/58/23 
f 1037/18/17 1055/36/18 1054/35/17 
f 1054/35/17 1055/36/18 1078/60/18 
f 1045/26/8 1067/49/9 1066/48/9 
f 1045/26/8 1046/27/9 1067/49/9 
f 1043/63/6 1044/25/7 1063/44/6 
f 1026/8/6 1044/25/7 1043/63/6 
f 1042/23/5 1063/64/6 1062/43/6 
f 1042/23/5 1043/24/6 1063/64/6 
f 1050/31/13 1051/32/14 1073/55/13 
f 1033/14/13 1051/32/14 1050/31/13 
f 1049/30/12 1073/55/13 1072/54/13 
f 1049/30/12 1050/31/13 1073/55/13 
f 1047/28/10 1048/29/11 1070/52/21 
f 1047/28/10 1070/52/21 1069/51/11 
# 0 polygons - 2088 triangles

