# 3ds Max Wavefront OBJ Exporter v0.99 - (c)2007 guruware
# File Created: 28.04.2026 14:24:59

mtllib Logo_Stand1.mtl

#
# object Logo_Stand1
#

v  -4.0667 1.8779 18.5112
v  -4.0667 1.0990 18.5112
v  -4.0667 1.1161 18.5124
v  -4.0667 1.8607 18.5124
v  -4.0667 1.8947 18.5079
v  -4.0667 1.0821 18.5079
v  -4.0667 1.9110 18.5023
v  -4.0667 1.0658 18.5023
v  -4.0667 1.9264 18.4947
v  -4.0667 1.0504 18.4947
v  -4.0667 1.9407 18.4852
v  -4.0667 1.0361 18.4852
v  -4.0667 1.9536 18.4739
v  -4.0667 1.0232 18.4739
v  -4.0667 1.9650 18.4609
v  -4.0667 1.0118 18.4609
v  -4.0667 1.9745 18.4466
v  -4.0667 1.8587 18.4509
v  -4.0667 1.8788 18.4483
v  -4.0667 1.8698 18.4501
v  -4.0667 1.9821 18.4312
v  -4.0667 1.8874 18.4454
v  -4.0667 1.9032 18.4363
v  -4.0667 1.8956 18.4414
v  -4.0667 1.9877 18.4149
v  -4.0667 1.9101 18.4303
v  -4.0667 1.9212 18.4158
v  -4.0667 1.9161 18.4234
v  -4.0667 1.9910 18.3981
v  -4.0667 1.9252 18.4076
v  -4.0667 1.9299 18.3900
v  -4.0667 1.9281 18.3990
v  -4.0667 1.9921 18.3809
v  -4.0667 1.9307 18.3789
v  -4.0667 1.9921 16.8589
v  -4.0667 1.9307 16.8609
v  -4.0667 1.9910 16.8417
v  -4.0667 1.9299 16.8497
v  -4.0667 1.9877 16.8248
v  -4.0667 1.9281 16.8408
v  -4.0667 1.9212 16.8239
v  -4.0667 1.9252 16.8321
v  -4.0667 1.9821 16.8086
v  -4.0667 1.9161 16.8163
v  -4.0667 1.9032 16.8035
v  -4.0667 1.9101 16.8095
v  -4.0667 1.9745 16.7931
v  -4.0667 1.8956 16.7984
v  -4.0667 1.8788 16.7914
v  -4.0667 1.8874 16.7943
v  -4.0667 1.9650 16.7788
v  -4.0667 1.8698 16.7896
v  -4.0667 1.1181 16.7889
v  -4.0667 1.8587 16.7889
v  -4.0667 1.1181 18.4509
v  -4.0667 1.0023 18.4466
v  -4.0667 1.1070 18.4501
v  -4.0667 1.0981 18.4483
v  -4.0667 1.0894 18.4454
v  -4.0667 0.9947 18.4312
v  -4.0667 1.0812 18.4414
v  -4.0667 1.0736 18.4363
v  -4.0667 1.0668 18.4303
v  -4.0667 0.9892 18.4149
v  -4.0667 1.0607 18.4234
v  -4.0667 1.0557 18.4158
v  -4.0667 1.0516 18.4076
v  -4.0667 0.9858 18.3981
v  -4.0667 1.0487 18.3990
v  -4.0667 1.0469 18.3900
v  -4.0667 1.0462 18.3789
v  -4.0667 0.9847 18.3809
v  -4.0667 1.0462 16.8609
v  -4.0667 0.9847 16.8589
v  -4.0667 1.0469 16.8497
v  -4.0667 0.9858 16.8417
v  -4.0667 1.0487 16.8408
v  -4.0667 0.9892 16.8248
v  -4.0667 1.0516 16.8321
v  -4.0667 1.0557 16.8239
v  -4.0667 1.0607 16.8163
v  -4.0667 0.9947 16.8086
v  -4.0667 1.0668 16.8095
v  -4.0667 1.0736 16.8035
v  -4.0667 1.0812 16.7984
v  -4.0667 1.0023 16.7931
v  -4.0667 1.0894 16.7943
v  -4.0667 1.0981 16.7914
v  -4.0667 1.1070 16.7896
v  -4.0667 1.0118 16.7788
v  -4.0667 1.9536 16.7659
v  -4.0667 1.0232 16.7659
v  -4.0667 1.9407 16.7546
v  -4.0667 1.0361 16.7546
v  -4.0667 1.9264 16.7450
v  -4.0667 1.0504 16.7450
v  -4.0667 1.9110 16.7374
v  -4.0667 1.0658 16.7374
v  -4.0667 1.8947 16.7319
v  -4.0667 1.0821 16.7319
v  -4.0667 1.8779 16.7285
v  -4.0667 1.0990 16.7285
v  -4.0667 1.8607 16.7274
v  -4.0667 1.1161 16.7274
v  -4.0052 1.1161 18.5124
v  -4.0052 1.0990 18.5112
v  -4.0052 1.8779 18.5112
v  -4.0052 1.8607 18.5124
v  -4.0052 1.0821 18.5079
v  -4.0052 1.8947 18.5079
v  -4.0052 1.0658 18.5023
v  -4.0052 1.9110 18.5023
v  -4.0052 1.0504 18.4947
v  -4.0052 1.9264 18.4947
v  -4.0052 1.0361 18.4852
v  -4.0052 1.9407 18.4852
v  -4.0052 1.0232 18.4739
v  -4.0052 1.9536 18.4739
v  -4.0052 1.0118 18.4609
v  -4.0052 1.9650 18.4609
v  -4.0052 1.0023 18.4466
v  -4.0052 1.1181 18.4509
v  -4.0052 1.8587 18.4509
v  -4.0052 1.9745 18.4466
v  -4.0052 1.0981 18.4483
v  -4.0052 1.1070 18.4501
v  -4.0052 0.9947 18.4312
v  -4.0052 1.0894 18.4454
v  -4.0052 1.0736 18.4363
v  -4.0052 1.0812 18.4414
v  -4.0052 0.9892 18.4149
v  -4.0052 1.0668 18.4303
v  -4.0052 1.0557 18.4158
v  -4.0052 1.0607 18.4234
v  -4.0052 0.9858 18.3981
v  -4.0052 1.0516 18.4076
v  -4.0052 1.0469 18.3900
v  -4.0052 1.0487 18.3990
v  -4.0052 0.9847 18.3809
v  -4.0052 1.0462 18.3789
v  -4.0052 0.9847 16.8589
v  -4.0052 1.0462 16.8609
v  -4.0052 0.9858 16.8417
v  -4.0052 1.0469 16.8497
v  -4.0052 0.9892 16.8248
v  -4.0052 1.0487 16.8408
v  -4.0052 1.0557 16.8239
v  -4.0052 1.0516 16.8321
v  -4.0052 0.9947 16.8086
v  -4.0052 1.0607 16.8163
v  -4.0052 1.0736 16.8035
v  -4.0052 1.0668 16.8095
v  -4.0052 1.0023 16.7931
v  -4.0052 1.0812 16.7984
v  -4.0052 1.0981 16.7914
v  -4.0052 1.0894 16.7943
v  -4.0052 1.0118 16.7788
v  -4.0052 1.1070 16.7896
v  -4.0052 1.8587 16.7889
v  -4.0052 1.1181 16.7889
v  -4.0052 1.8698 18.4501
v  -4.0052 1.8788 18.4483
v  -4.0052 1.8874 18.4454
v  -4.0052 1.9821 18.4312
v  -4.0052 1.8956 18.4414
v  -4.0052 1.9032 18.4363
v  -4.0052 1.9101 18.4303
v  -4.0052 1.9877 18.4149
v  -4.0052 1.9161 18.4234
v  -4.0052 1.9212 18.4158
v  -4.0052 1.9252 18.4076
v  -4.0052 1.9910 18.3981
v  -4.0052 1.9281 18.3990
v  -4.0052 1.9299 18.3900
v  -4.0052 1.9307 18.3789
v  -4.0052 1.9921 18.3809
v  -4.0052 1.9307 16.8609
v  -4.0052 1.9921 16.8589
v  -4.0052 1.9299 16.8497
v  -4.0052 1.9910 16.8417
v  -4.0052 1.9281 16.8408
v  -4.0052 1.9877 16.8248
v  -4.0052 1.9252 16.8321
v  -4.0052 1.9212 16.8239
v  -4.0052 1.9161 16.8163
v  -4.0052 1.9821 16.8086
v  -4.0052 1.9101 16.8095
v  -4.0052 1.9032 16.8035
v  -4.0052 1.8956 16.7984
v  -4.0052 1.9745 16.7931
v  -4.0052 1.8874 16.7943
v  -4.0052 1.8788 16.7914
v  -4.0052 1.8698 16.7896
v  -4.0052 1.9650 16.7788
v  -4.0052 1.0232 16.7659
v  -4.0052 1.9536 16.7659
v  -4.0052 1.0361 16.7546
v  -4.0052 1.9407 16.7546
v  -4.0052 1.0504 16.7450
v  -4.0052 1.9264 16.7450
v  -4.0052 1.0658 16.7374
v  -4.0052 1.9110 16.7374
v  -4.0052 1.0821 16.7319
v  -4.0052 1.8947 16.7319
v  -4.0052 1.0990 16.7285
v  -4.0052 1.8779 16.7285
v  -4.0052 1.1161 16.7274
v  -4.0052 1.8607 16.7274
v  -4.0359 1.9252 16.8321
v  -4.0359 1.9212 16.8239
v  -4.0359 1.9161 16.8163
v  -4.0359 1.9101 16.8095
v  -4.0359 1.9032 16.8035
v  -4.0359 1.8956 16.7984
v  -4.0359 1.8874 16.7943
v  -4.0359 1.8788 16.7914
v  -4.0359 1.8698 16.7896
v  -4.0359 1.8587 16.7889
v  -4.0359 1.1181 16.7889
v  -4.0359 1.1070 16.7896
v  -4.0359 1.0981 16.7914
v  -4.0359 1.0894 16.7943
v  -4.0359 1.0812 16.7984
v  -4.0359 1.0736 16.8035
v  -4.0359 1.0668 16.8095
v  -4.0359 1.0607 16.8163
v  -4.0359 1.0557 16.8239
v  -4.0359 1.0516 16.8321
v  -4.0359 1.0487 16.8408
v  -4.0359 1.0469 16.8497
v  -4.0359 1.0462 16.8609
v  -4.0359 1.0462 18.3789
v  -4.0359 1.0469 18.3900
v  -4.0359 1.0487 18.3990
v  -4.0359 1.0516 18.4076
v  -4.0359 1.0557 18.4158
v  -4.0359 1.0607 18.4234
v  -4.0359 1.0668 18.4303
v  -4.0359 1.0736 18.4363
v  -4.0359 1.0812 18.4414
v  -4.0359 1.0894 18.4454
v  -4.0359 1.0981 18.4483
v  -4.0359 1.1070 18.4501
v  -4.0359 1.1181 18.4509
v  -4.0359 1.8587 18.4509
v  -4.0359 1.8698 18.4501
v  -4.0359 1.8788 18.4483
v  -4.0359 1.8874 18.4454
v  -4.0359 1.8956 18.4414
v  -4.0359 1.9032 18.4363
v  -4.0359 1.9101 18.4303
v  -4.0359 1.9161 18.4234
v  -4.0359 1.9212 18.4158
v  -4.0359 1.9252 18.4076
v  -4.0359 1.9281 18.3990
v  -4.0359 1.9299 18.3900
v  -4.0359 1.9307 18.3789
v  -4.0359 1.9307 16.8609
v  -4.0359 1.9299 16.8497
v  -4.0359 1.9281 16.8408
# 260 vertices

vn -1.0000 -0.0000 -0.0000
vn 1.0000 0.0000 0.0000
vn 0.0000 -1.0000 -0.0000
vn 0.0000 -0.9979 -0.0654
vn 0.0000 -0.9808 -0.1951
vn 0.0000 -0.9469 -0.3214
vn 0.0000 -0.8969 -0.4423
vn 0.0000 -0.8315 -0.5556
vn 0.0000 -0.7518 -0.6593
vn 0.0000 -0.6593 -0.7518
vn 0.0000 -0.5556 -0.8315
vn 0.0000 -0.4423 -0.8969
vn 0.0000 -0.3214 -0.9469
vn 0.0000 -0.1951 -0.9808
vn 0.0000 -0.0654 -0.9979
vn 0.0000 -0.0000 -1.0000
vn -0.0000 0.0654 -0.9979
vn -0.0000 0.1951 -0.9808
vn -0.0000 0.3214 -0.9469
vn -0.0000 0.4423 -0.8969
vn -0.0000 0.5556 -0.8315
vn -0.0000 0.6593 -0.7518
vn -0.0000 0.7518 -0.6593
vn -0.0000 0.8315 -0.5556
vn -0.0000 0.8969 -0.4423
vn -0.0000 0.9469 -0.3214
vn -0.0000 0.9808 -0.1951
vn -0.0000 0.9979 -0.0654
vn -0.0000 1.0000 0.0000
vn -0.0000 0.9979 0.0654
vn -0.0000 0.9808 0.1951
vn -0.0000 0.9469 0.3214
vn -0.0000 0.8969 0.4423
vn -0.0000 0.8315 0.5556
vn -0.0000 0.7518 0.6593
vn -0.0000 0.6593 0.7518
vn -0.0000 0.5556 0.8315
vn -0.0000 0.4423 0.8969
vn -0.0000 0.3214 0.9469
vn -0.0000 0.1951 0.9808
vn -0.0000 0.0654 0.9979
vn -0.0000 -0.0000 1.0000
vn 0.0000 -0.0654 0.9979
vn 0.0000 -0.1951 0.9808
vn 0.0000 -0.3214 0.9469
vn 0.0000 -0.4423 0.8969
vn 0.0000 -0.5556 0.8315
vn 0.0000 -0.6593 0.7518
vn 0.0000 -0.7518 0.6593
vn 0.0000 -0.8315 0.5556
vn 0.0000 -0.8969 0.4423
vn 0.0000 -0.9469 0.3214
vn 0.0000 -0.9808 0.1951
vn 0.0000 -0.9979 0.0654
vn -0.0000 -0.9808 0.1951
vn -0.0000 -0.9979 -0.0654
vn -0.0000 -0.9469 -0.3214
vn -0.0000 -0.8315 -0.5556
vn -0.0000 -0.7518 -0.6593
vn -0.0000 -0.6593 -0.7518
vn -0.0000 -0.0654 -0.9979
vn -0.0000 0.0000 -1.0000
vn 0.0000 0.3214 -0.9469
vn 0.0000 0.4423 -0.8969
vn 0.0000 0.6593 -0.7518
vn 0.0000 1.0000 -0.0000
vn 0.0000 0.9808 0.1951
vn 0.0000 0.8315 0.5556
vn 0.0000 0.7518 0.6593
vn 0.0000 0.6593 0.7518
vn 0.0000 0.5556 0.8315
vn 0.0000 0.1951 0.9808
vn 0.0000 0.0654 0.9979
vn 0.0000 -0.0000 1.0000
vn -0.0000 -0.1951 0.9808
vn -0.0000 -0.7518 0.6593
# 76 vertex normals

vt 0.0000 0.0000 0.0000
vt 0.0000 0.0814 0.0000
vt 0.0004 0.0688 0.0000
vt 0.0004 0.9313 0.0000
vt -0.0000 0.9187 0.0000
vt 0.0015 0.0587 0.0000
vt 0.0015 0.9414 0.0000
vt 0.0033 0.0489 0.0000
vt 0.0033 0.9512 0.0000
vt 0.0057 0.0396 0.0000
vt 0.0057 0.9604 0.0000
vt 0.0088 0.0310 0.0000
vt 0.0088 0.9690 0.0000
vt 0.0124 0.0233 0.0000
vt 0.0124 0.9768 0.0000
vt 0.0165 0.0165 0.0000
vt 0.0165 0.9836 0.0000
vt 0.0211 0.0107 0.0000
vt 0.0211 0.9893 0.0000
vt 0.0260 0.0062 0.0000
vt 0.0260 0.9939 0.0000
vt 0.0312 0.0028 0.0000
vt 0.0312 0.9972 0.0000
vt 0.0366 0.0008 0.0000
vt 0.0366 0.9992 0.0000
vt 0.0433 0.0000 0.0000
vt 0.0433 1.0001 0.0000
vt 0.9567 -0.0000 0.0000
vt 0.9567 1.0001 0.0000
vt 0.9634 0.0008 0.0000
vt 0.9634 0.9992 0.0000
vt 0.9688 0.0028 0.0000
vt 0.9688 0.9972 0.0000
vt 0.9740 0.0062 0.0000
vt 0.9740 0.9939 0.0000
vt 0.9789 0.0107 0.0000
vt 0.9789 0.9893 0.0000
vt 0.9835 0.0165 0.0000
vt 0.9835 0.9836 0.0000
vt 0.9876 0.0233 0.0000
vt 0.9876 0.9768 0.0000
vt 0.9912 0.0310 0.0000
vt 0.9912 0.9690 0.0000
vt 0.9943 0.0396 0.0000
vt 0.9943 0.9604 0.0000
vt 0.9967 0.0489 0.0000
vt 0.9967 0.9512 0.0000
vt 0.9985 0.0587 0.0000
vt 0.9985 0.9414 0.0000
vt 0.9996 0.0688 0.0000
vt 0.9996 0.9313 0.0000
vt 1.0000 0.0814 0.0000
vt 1.0000 0.9187 0.0000
vt 0.0241 -2.9930 0.0000
vt 0.0056 -2.9827 0.0000
vt 0.0056 -2.9930 0.0000
vt 0.0241 -2.9827 0.0000
vt 0.0241 -3.4626 0.0000
vt 0.0056 -3.4523 0.0000
vt 0.0056 -3.4626 0.0000
vt 0.0241 -3.4523 0.0000
vt 0.0241 -3.9053 0.0000
vt 0.0056 -3.8950 0.0000
vt 0.0056 -3.9053 0.0000
vt 0.0241 -3.8950 0.0000
vt 0.0241 -4.3135 0.0000
vt 0.0056 -4.3008 0.0000
vt 0.0056 -4.3135 0.0000
vt 0.0241 -4.3008 0.0000
vt -0.8918 0.7312 0.0000
vt -0.8733 -0.9853 0.0000
vt -0.8733 0.7312 0.0000
vt -0.8918 -0.9853 0.0000
vt -0.8918 -0.7987 0.0000
vt -0.8733 -0.8113 0.0000
vt -0.8733 -0.7987 0.0000
vt -0.8918 -0.8113 0.0000
vt -0.8918 -0.4527 0.0000
vt -0.8733 -0.4631 0.0000
vt -0.8733 -0.4527 0.0000
vt -0.8918 -0.4631 0.0000
vt -0.8918 -0.1289 0.0000
vt -0.8733 -0.1392 0.0000
vt -0.8733 -0.1289 0.0000
vt -0.8918 -0.1392 0.0000
vt -0.8918 0.1651 0.0000
vt -0.8733 0.1547 0.0000
vt -0.8733 0.1651 0.0000
vt -0.8918 0.1547 0.0000
vt -0.8918 0.4241 0.0000
vt -0.8733 0.4138 0.0000
vt -0.8733 0.4241 0.0000
vt -0.8918 0.4138 0.0000
vt -0.8918 0.6437 0.0000
vt -0.8733 0.6334 0.0000
vt -0.8733 0.6437 0.0000
vt -0.8918 0.6334 0.0000
vt -0.8733 0.8203 0.0000
vt -0.8918 0.8099 0.0000
vt -0.8733 0.8099 0.0000
vt -0.8918 0.8203 0.0000
vt -0.8733 0.9506 0.0000
vt -0.8918 0.9403 0.0000
vt -0.8733 0.9403 0.0000
vt -0.8918 0.9506 0.0000
vt -0.8733 1.0326 0.0000
vt -0.8918 1.0223 0.0000
vt -0.8733 1.0223 0.0000
vt -0.8918 1.0326 0.0000
vt -0.8733 1.0649 0.0000
vt -0.8918 1.0545 0.0000
vt -0.8733 1.0545 0.0000
vt -0.8918 1.0649 0.0000
vt -0.8733 1.0468 0.0000
vt -0.8918 1.0364 0.0000
vt -0.8733 1.0364 0.0000
vt -0.8918 1.0468 0.0000
vt -0.8733 0.9786 0.0000
vt -0.8918 0.9660 0.0000
vt -0.8733 0.9660 0.0000
vt -0.8918 0.9786 0.0000
vt -0.8733 0.9187 0.0000
vt -0.8918 0.0814 0.0000
vt -0.8733 0.0814 0.0000
vt -0.8918 0.9187 0.0000
vt -0.8733 0.0239 0.0000
vt -0.8918 0.0112 0.0000
vt -0.8733 0.0112 0.0000
vt -0.8918 0.0239 0.0000
vt -0.8733 -0.3073 0.0000
vt -0.8918 -0.3176 0.0000
vt -0.8733 -0.3176 0.0000
vt -0.8918 -0.3073 0.0000
vt -0.8733 -0.5135 0.0000
vt -0.8918 -0.5239 0.0000
vt -0.8733 -0.5239 0.0000
vt -0.8918 -0.5135 0.0000
vt -0.8733 -0.7431 0.0000
vt -0.8918 -0.7534 0.0000
vt -0.8733 -0.7534 0.0000
vt -0.8918 -0.7431 0.0000
vt -0.8733 -0.9921 0.0000
vt -0.8918 -1.0024 0.0000
vt -0.8733 -1.0024 0.0000
vt -0.8918 -0.9921 0.0000
vt -0.8918 -1.2562 0.0000
vt -0.8733 -1.2665 0.0000
vt -0.8733 -1.2562 0.0000
vt -0.8918 -1.2665 0.0000
vt -0.8918 -1.5309 0.0000
vt -0.8733 -1.5412 0.0000
vt -0.8733 -1.5309 0.0000
vt -0.8918 -1.5412 0.0000
vt -0.8918 -1.8115 0.0000
vt -0.8733 -1.8218 0.0000
vt -0.8733 -1.8115 0.0000
vt -0.8918 -1.8218 0.0000
vt -0.8918 -2.0933 0.0000
vt -0.8733 -2.1036 0.0000
vt -0.8733 -2.0933 0.0000
vt -0.8918 -2.1036 0.0000
vt -0.8918 -2.3713 0.0000
vt -0.8733 -2.3817 0.0000
vt -0.8733 -2.3713 0.0000
vt -0.8918 -2.3817 0.0000
vt -0.8918 -2.6409 0.0000
vt -0.8733 -2.6535 0.0000
vt -0.8733 -2.6409 0.0000
vt -0.8918 -2.6535 0.0000
vt 0.0241 -0.9853 0.0000
vt 0.0056 0.7312 0.0000
vt 0.0056 -0.9853 0.0000
vt 0.0241 0.7312 0.0000
vt 0.0241 0.8486 0.0000
vt 0.0056 0.8612 0.0000
vt 0.0056 0.8486 0.0000
vt 0.0241 0.8612 0.0000
vt 0.0241 1.0606 0.0000
vt 0.0056 1.0709 0.0000
vt 0.0056 1.0606 0.0000
vt 0.0241 1.0709 0.0000
vt 0.0241 1.2198 0.0000
vt 0.0056 1.2301 0.0000
vt 0.0056 1.2198 0.0000
vt 0.0241 1.2301 0.0000
vt 0.0241 1.3259 0.0000
vt 0.0056 1.3362 0.0000
vt 0.0056 1.3259 0.0000
vt 0.0241 1.3362 0.0000
vt 0.0241 1.3770 0.0000
vt 0.0056 1.3873 0.0000
vt 0.0056 1.3770 0.0000
vt 0.0241 1.3873 0.0000
vt 0.0241 1.3722 0.0000
vt 0.0056 1.3825 0.0000
vt 0.0056 1.3722 0.0000
vt 0.0241 1.3825 0.0000
vt 0.0241 1.3220 0.0000
vt 0.0056 1.3117 0.0000
vt 0.0241 1.3117 0.0000
vt 0.0056 1.3220 0.0000
vt 0.0241 1.2068 0.0000
vt 0.0056 1.1964 0.0000
vt 0.0241 1.1964 0.0000
vt 0.0056 1.2068 0.0000
vt 0.0241 1.0388 0.0000
vt 0.0056 1.0284 0.0000
vt 0.0241 1.0284 0.0000
vt 0.0056 1.0388 0.0000
vt 0.0241 0.8209 0.0000
vt 0.0056 0.8105 0.0000
vt 0.0241 0.8105 0.0000
vt 0.0056 0.8209 0.0000
vt 0.0241 0.5568 0.0000
vt 0.0056 0.5465 0.0000
vt 0.0241 0.5465 0.0000
vt 0.0056 0.5568 0.0000
vt 0.0241 0.2534 0.0000
vt 0.0056 0.2408 0.0000
vt 0.0241 0.2408 0.0000
vt 0.0056 0.2534 0.0000
vt 0.0241 0.9187 0.0000
vt 0.0056 0.0814 0.0000
vt 0.0241 0.0814 0.0000
vt 0.0056 0.9187 0.0000
vt 0.0241 0.7491 0.0000
vt 0.0056 0.7365 0.0000
vt 0.0241 0.7365 0.0000
vt 0.0056 0.7491 0.0000
vt 0.0241 0.3621 0.0000
vt 0.0056 0.3517 0.0000
vt 0.0241 0.3517 0.0000
vt 0.0056 0.3621 0.0000
vt 0.0241 -0.0633 0.0000
vt 0.0056 -0.0736 0.0000
vt 0.0241 -0.0736 0.0000
vt 0.0056 -0.0633 0.0000
vt 0.0241 -0.5196 0.0000
vt 0.0056 -0.5300 0.0000
vt 0.0241 -0.5300 0.0000
vt 0.0056 -0.5196 0.0000
vt 0.0241 -0.9992 0.0000
vt 0.0056 -1.0096 0.0000
vt 0.0241 -1.0096 0.0000
vt 0.0056 -0.9992 0.0000
vt 0.0241 -1.4938 0.0000
vt 0.0056 -1.5041 0.0000
vt 0.0241 -1.5041 0.0000
vt 0.0056 -1.4938 0.0000
vt 0.0241 -2.0053 0.0000
vt 0.0056 -1.9950 0.0000
vt 0.0056 -2.0053 0.0000
vt 0.0241 -1.9950 0.0000
vt 0.0241 -2.5044 0.0000
vt 0.0056 -2.4941 0.0000
vt 0.0056 -2.5044 0.0000
vt 0.0241 -2.4941 0.0000
# 257 texture coords

o Logo_Stand1
g Logo_Stand1
usemtl Material__61
s off
f 1/1/1 2/1/1 3/1/1 4/1/1 
f 2/1/1 1/1/1 5/1/1 6/1/1 
f 6/1/1 5/1/1 7/1/1 8/1/1 
f 8/1/1 7/1/1 9/1/1 10/1/1 
f 10/1/1 9/1/1 11/1/1 12/1/1 
f 12/1/1 11/1/1 13/1/1 14/1/1 
f 14/1/1 13/1/1 15/1/1 16/1/1 
f 16/1/1 15/1/1 17/1/1 18/1/1 
f 18/1/1 17/1/1 19/1/1 20/1/1 
f 19/1/1 17/1/1 21/1/1 22/1/1 
f 22/1/1 21/1/1 23/1/1 24/1/1 
f 23/1/1 21/1/1 25/1/1 26/1/1 
f 26/1/1 25/1/1 27/1/1 28/1/1 
f 27/1/1 25/1/1 29/1/1 30/1/1 
f 30/1/1 29/1/1 31/1/1 32/1/1 
f 31/1/1 29/1/1 33/1/1 34/1/1 
f 34/1/1 33/1/1 35/1/1 36/1/1 
f 36/1/1 35/1/1 37/1/1 38/1/1 
f 38/1/1 37/1/1 39/1/1 40/1/1 
f 40/1/1 39/1/1 41/1/1 42/1/1 
f 41/1/1 39/1/1 43/1/1 44/1/1 
f 44/1/1 43/1/1 45/1/1 46/1/1 
f 45/1/1 43/1/1 47/1/1 48/1/1 
f 48/1/1 47/1/1 49/1/1 50/1/1 
f 49/1/1 47/1/1 51/1/1 52/1/1 
f 52/1/1 51/1/1 53/1/1 54/1/1 
f 16/1/1 18/1/1 55/1/1 56/1/1 
f 56/1/1 55/1/1 57/1/1 58/1/1 
f 56/1/1 58/1/1 59/1/1 60/1/1 
f 60/1/1 59/1/1 61/1/1 62/1/1 
f 60/1/1 62/1/1 63/1/1 64/1/1 
f 64/1/1 63/1/1 65/1/1 66/1/1 
f 64/1/1 66/1/1 67/1/1 68/1/1 
f 68/1/1 67/1/1 69/1/1 70/1/1 
f 68/1/1 70/1/1 71/1/1 72/1/1 
f 72/1/1 71/1/1 73/1/1 74/1/1 
f 74/1/1 73/1/1 75/1/1 76/1/1 
f 76/1/1 75/1/1 77/1/1 78/1/1 
f 78/1/1 77/1/1 79/1/1 80/1/1 
f 78/1/1 80/1/1 81/1/1 82/1/1 
f 82/1/1 81/1/1 83/1/1 84/1/1 
f 82/1/1 84/1/1 85/1/1 86/1/1 
f 86/1/1 85/1/1 87/1/1 88/1/1 
f 86/1/1 88/1/1 89/1/1 90/1/1 
f 90/1/1 89/1/1 53/1/1 51/1/1 
f 90/1/1 51/1/1 91/1/1 92/1/1 
f 92/1/1 91/1/1 93/1/1 94/1/1 
f 94/1/1 93/1/1 95/1/1 96/1/1 
f 96/1/1 95/1/1 97/1/1 98/1/1 
f 98/1/1 97/1/1 99/1/1 100/1/1 
f 100/1/1 99/1/1 101/1/1 102/1/1 
f 102/1/1 101/1/1 103/1/1 104/1/1 
f 105/1/2 106/1/2 107/1/2 108/1/2 
f 107/1/2 106/1/2 109/1/2 110/1/2 
f 110/1/2 109/1/2 111/1/2 112/1/2 
f 112/1/2 111/1/2 113/1/2 114/1/2 
f 114/1/2 113/1/2 115/1/2 116/1/2 
f 116/1/2 115/1/2 117/1/2 118/1/2 
f 118/1/2 117/1/2 119/1/2 120/1/2 
f 120/1/2 119/1/2 121/1/2 122/1/2 
f 120/1/2 122/1/2 123/1/2 124/1/2 
f 122/1/2 121/1/2 125/1/2 126/1/2 
f 125/1/2 121/1/2 127/1/2 128/1/2 
f 128/1/2 127/1/2 129/1/2 130/1/2 
f 129/1/2 127/1/2 131/1/2 132/1/2 
f 132/1/2 131/1/2 133/1/2 134/1/2 
f 133/1/2 131/1/2 135/1/2 136/1/2 
f 136/1/2 135/1/2 137/1/2 138/1/2 
f 137/1/2 135/1/2 139/1/2 140/1/2 
f 140/1/2 139/1/2 141/1/2 142/1/2 
f 142/1/2 141/1/2 143/1/2 144/1/2 
f 144/1/2 143/1/2 145/1/2 146/1/2 
f 146/1/2 145/1/2 147/1/2 148/1/2 
f 147/1/2 145/1/2 149/1/2 150/1/2 
f 150/1/2 149/1/2 151/1/2 152/1/2 
f 151/1/2 149/1/2 153/1/2 154/1/2 
f 154/1/2 153/1/2 155/1/2 156/1/2 
f 155/1/2 153/1/2 157/1/2 158/1/2 
f 158/1/2 157/1/2 159/1/2 160/1/2 
f 124/1/2 123/1/2 161/1/2 162/1/2 
f 124/1/2 162/1/2 163/1/2 164/1/2 
f 164/1/2 163/1/2 165/1/2 166/1/2 
f 164/1/2 166/1/2 167/1/2 168/1/2 
f 168/1/2 167/1/2 169/1/2 170/1/2 
f 168/1/2 170/1/2 171/1/2 172/1/2 
f 172/1/2 171/1/2 173/1/2 174/1/2 
f 172/1/2 174/1/2 175/1/2 176/1/2 
f 176/1/2 175/1/2 177/1/2 178/1/2 
f 178/1/2 177/1/2 179/1/2 180/1/2 
f 180/1/2 179/1/2 181/1/2 182/1/2 
f 182/1/2 181/1/2 183/1/2 184/1/2 
f 182/1/2 184/1/2 185/1/2 186/1/2 
f 186/1/2 185/1/2 187/1/2 188/1/2 
f 186/1/2 188/1/2 189/1/2 190/1/2 
f 190/1/2 189/1/2 191/1/2 192/1/2 
f 190/1/2 192/1/2 193/1/2 194/1/2 
f 194/1/2 193/1/2 159/1/2 157/1/2 
f 194/1/2 157/1/2 195/1/2 196/1/2 
f 196/1/2 195/1/2 197/1/2 198/1/2 
f 198/1/2 197/1/2 199/1/2 200/1/2 
f 200/1/2 199/1/2 201/1/2 202/1/2 
f 202/1/2 201/1/2 203/1/2 204/1/2 
f 204/1/2 203/1/2 205/1/2 206/1/2 
f 206/1/2 205/1/2 207/1/2 208/1/2 
f 141/1/3 139/1/3 72/1/3 74/1/3 
f 143/1/4 141/1/4 74/1/4 76/1/4 
f 145/1/5 143/1/5 76/1/5 78/1/5 
f 149/1/6 145/1/6 78/1/6 82/1/6 
f 153/1/7 149/1/7 82/1/7 86/1/7 
f 157/1/8 153/1/8 86/1/8 90/1/8 
f 195/1/9 157/1/9 90/1/9 92/1/9 
f 94/1/10 197/1/10 195/1/10 92/1/10 
f 96/1/11 199/1/11 197/1/11 94/1/11 
f 98/1/12 201/1/12 199/1/12 96/1/12 
f 100/1/13 203/1/13 201/1/13 98/1/13 
f 102/1/14 205/1/14 203/1/14 100/1/14 
f 104/1/15 207/1/15 205/1/15 102/1/15 
f 103/1/16 208/1/16 207/1/16 104/1/16 
f 101/1/17 206/1/17 208/1/17 103/1/17 
f 99/1/18 204/1/18 206/1/18 101/1/18 
f 97/1/19 202/1/19 204/1/19 99/1/19 
f 95/1/20 200/1/20 202/1/20 97/1/20 
f 93/1/21 198/1/21 200/1/21 95/1/21 
f 91/1/22 196/1/22 198/1/22 93/1/22 
f 194/1/23 196/1/23 91/1/23 51/1/23 
f 190/1/24 194/1/24 51/1/24 47/1/24 
f 186/1/25 190/1/25 47/1/25 43/1/25 
f 182/1/26 186/1/26 43/1/26 39/1/26 
f 180/1/27 182/1/27 39/1/27 37/1/27 
f 178/1/28 180/1/28 37/1/28 35/1/28 
f 33/1/29 176/1/29 178/1/29 35/1/29 
f 172/1/30 176/1/30 33/1/30 29/1/30 
f 168/1/31 172/1/31 29/1/31 25/1/31 
f 164/1/32 168/1/32 25/1/32 21/1/32 
f 124/1/33 164/1/33 21/1/33 17/1/33 
f 120/1/34 124/1/34 17/1/34 15/1/34 
f 118/1/35 120/1/35 15/1/35 13/1/35 
f 118/1/36 13/1/36 11/1/36 116/1/36 
f 116/1/37 11/1/37 9/1/37 114/1/37 
f 114/1/38 9/1/38 7/1/38 112/1/38 
f 112/1/39 7/1/39 5/1/39 110/1/39 
f 110/1/40 5/1/40 1/1/40 107/1/40 
f 107/1/41 1/1/41 4/1/41 108/1/41 
f 108/1/42 4/1/42 3/1/42 105/1/42 
f 105/1/43 3/1/43 2/1/43 106/1/43 
f 106/1/44 2/1/44 6/1/44 109/1/44 
f 109/1/45 6/1/45 8/1/45 111/1/45 
f 111/1/46 8/1/46 10/1/46 113/1/46 
f 113/1/47 10/1/47 12/1/47 115/1/47 
f 115/1/48 12/1/48 14/1/48 117/1/48 
f 119/1/49 117/1/49 14/1/49 16/1/49 
f 121/1/50 119/1/50 16/1/50 56/1/50 
f 127/1/51 121/1/51 56/1/51 60/1/51 
f 131/1/52 127/1/52 60/1/52 64/1/52 
f 135/1/53 131/1/53 64/1/53 68/1/53 
f 139/1/54 135/1/54 68/1/54 72/1/54 
f 184/1/51 183/1/51 209/1/51 210/1/51 
f 185/1/50 184/1/50 210/1/50 211/1/50 
f 187/1/49 185/1/49 211/1/49 212/1/49 
f 187/1/48 212/1/48 213/1/48 188/1/48 
f 188/1/47 213/1/47 214/1/47 189/1/47 
f 189/1/46 214/1/46 215/1/46 191/1/46 
f 191/1/45 215/1/45 216/1/45 192/1/45 
f 192/1/44 216/1/44 217/1/44 193/1/44 
f 193/1/43 217/1/43 218/1/43 159/1/43 
f 159/1/42 218/1/42 219/1/42 160/1/42 
f 160/1/41 219/1/41 220/1/41 158/1/41 
f 158/1/40 220/1/40 221/1/40 155/1/40 
f 155/1/39 221/1/39 222/1/39 156/1/39 
f 156/1/38 222/1/38 223/1/38 154/1/38 
f 154/1/37 223/1/37 224/1/37 151/1/37 
f 151/1/36 224/1/36 225/1/36 152/1/36 
f 226/1/35 150/1/35 152/1/35 225/1/35 
f 147/1/34 150/1/34 226/1/34 227/1/34 
f 148/1/33 147/1/33 227/1/33 228/1/33 
f 146/1/32 148/1/32 228/1/32 229/1/32 
f 144/1/31 146/1/31 229/1/31 230/1/31 
f 142/1/30 144/1/30 230/1/30 231/1/30 
f 140/1/29 142/1/29 231/1/29 232/1/29 
f 137/1/28 140/1/28 232/1/28 233/1/28 
f 138/1/27 137/1/27 233/1/27 234/1/27 
f 136/1/26 138/1/26 234/1/26 235/1/26 
f 133/1/25 136/1/25 235/1/25 236/1/25 
f 134/1/24 133/1/24 236/1/24 237/1/24 
f 132/1/23 134/1/23 237/1/23 238/1/23 
f 239/1/22 129/1/22 132/1/22 238/1/22 
f 240/1/21 130/1/21 129/1/21 239/1/21 
f 241/1/20 128/1/20 130/1/20 240/1/20 
f 242/1/19 125/1/19 128/1/19 241/1/19 
f 243/1/18 126/1/18 125/1/18 242/1/18 
f 244/1/17 122/1/17 126/1/17 243/1/17 
f 245/1/16 123/1/16 122/1/16 244/1/16 
f 246/1/15 161/1/15 123/1/15 245/1/15 
f 247/1/14 162/1/14 161/1/14 246/1/14 
f 248/1/13 163/1/13 162/1/13 247/1/13 
f 249/1/12 165/1/12 163/1/12 248/1/12 
f 250/1/11 166/1/11 165/1/11 249/1/11 
f 251/1/10 167/1/10 166/1/10 250/1/10 
f 252/1/9 169/1/9 167/1/9 251/1/9 
f 170/1/8 169/1/8 252/1/8 253/1/8 
f 171/1/7 170/1/7 253/1/7 254/1/7 
f 173/1/6 171/1/6 254/1/6 255/1/6 
f 174/1/5 173/1/5 255/1/5 256/1/5 
f 175/1/4 174/1/4 256/1/4 257/1/4 
f 177/1/3 175/1/3 257/1/3 258/1/3 
f 179/1/54 177/1/54 258/1/54 259/1/54 
f 181/1/53 179/1/53 259/1/53 260/1/53 
f 183/1/52 181/1/52 260/1/52 209/1/52 
f 244/2/2 243/3/2 246/4/2 245/5/2 
f 246/4/2 243/3/2 242/6/2 247/7/2 
f 247/7/2 242/6/2 241/8/2 248/9/2 
f 248/9/2 241/8/2 240/10/2 249/11/2 
f 249/11/2 240/10/2 239/12/2 250/13/2 
f 250/13/2 239/12/2 238/14/2 251/15/2 
f 251/15/2 238/14/2 237/16/2 252/17/2 
f 252/17/2 237/16/2 236/18/2 253/19/2 
f 253/19/2 236/18/2 235/20/2 254/21/2 
f 254/21/2 235/20/2 234/22/2 255/23/2 
f 255/23/2 234/22/2 233/24/2 256/25/2 
f 256/25/2 233/24/2 232/26/2 257/27/2 
f 257/27/2 232/26/2 231/28/2 258/29/2 
f 258/29/2 231/28/2 230/30/2 259/31/2 
f 259/31/2 230/30/2 229/32/2 260/33/2 
f 260/33/2 229/32/2 228/34/2 209/35/2 
f 209/35/2 228/34/2 227/36/2 210/37/2 
f 210/37/2 227/36/2 226/38/2 211/39/2 
f 211/39/2 226/38/2 225/40/2 212/41/2 
f 212/41/2 225/40/2 224/42/2 213/43/2 
f 213/43/2 224/42/2 223/44/2 214/45/2 
f 214/45/2 223/44/2 222/46/2 215/47/2 
f 215/47/2 222/46/2 221/48/2 216/49/2 
f 216/49/2 221/48/2 220/50/2 217/51/2 
f 217/51/2 220/50/2 219/52/2 218/53/2 
f 210/54/51 42/55/51 41/56/51 
f 42/55/51 210/54/51 209/57/51 
f 209/58/52 40/59/52 42/60/52 
f 40/59/52 209/58/52 260/61/52 
f 260/62/55 38/63/55 40/64/55 
f 38/63/55 260/62/55 259/65/55 
f 259/66/54 36/67/54 38/68/54 
f 36/67/54 259/66/54 258/69/54 
f 258/70/3 34/71/3 36/72/3 
f 34/71/3 258/70/3 257/73/3 
f 257/74/56 31/75/56 34/76/56 
f 31/75/56 257/74/56 256/77/56 
f 256/78/5 32/79/5 31/80/5 
f 32/79/5 256/78/5 255/81/5 
f 255/82/57 30/83/57 32/84/57 
f 30/83/57 255/82/57 254/85/57 
f 254/86/7 27/87/7 30/88/7 
f 27/87/7 254/86/7 253/89/7 
f 253/90/58 28/91/58 27/92/58 
f 28/91/58 253/90/58 252/93/58 
f 252/94/59 26/95/59 28/96/59 
f 26/95/59 252/94/59 251/97/59 
f 26/98/60 250/99/60 23/100/60 
f 250/99/60 26/98/60 251/101/60 
f 23/102/11 249/103/11 24/104/11 
f 249/103/11 23/102/11 250/105/11 
f 24/106/12 248/107/12 22/108/12 
f 248/107/12 24/106/12 249/109/12 
f 22/110/13 247/111/13 19/112/13 
f 247/111/13 22/110/13 248/113/13 
f 19/114/14 246/115/14 20/116/14 
f 246/115/14 19/114/14 247/117/14 
f 20/118/61 245/119/61 18/120/61 
f 245/119/61 20/118/61 246/121/61 
f 18/122/62 244/123/62 55/124/62 
f 244/123/62 18/122/62 245/125/62 
f 55/126/17 243/127/17 57/128/17 
f 243/127/17 55/126/17 244/129/17 
f 57/84/18 242/85/18 58/83/18 
f 242/85/18 57/84/18 243/82/18 
f 58/130/63 241/131/63 59/132/63 
f 241/131/63 58/130/63 242/133/63 
f 59/134/64 240/135/64 61/136/64 
f 240/135/64 59/134/64 241/137/64 
f 61/138/21 239/139/21 62/140/21 
f 239/139/21 61/138/21 240/141/21 
f 62/142/65 238/143/65 63/144/65 
f 238/143/65 62/142/65 239/145/65 
f 238/146/23 65/147/23 63/148/23 
f 65/147/23 238/146/23 237/149/23 
f 237/150/24 66/151/24 65/152/24 
f 66/151/24 237/150/24 236/153/24 
f 236/154/25 67/155/25 66/156/25 
f 67/155/25 236/154/25 235/157/25 
f 235/158/26 69/159/26 67/160/26 
f 69/159/26 235/158/26 234/161/26 
f 234/162/27 70/163/27 69/164/27 
f 70/163/27 234/162/27 233/165/27 
f 233/166/28 71/167/28 70/168/28 
f 71/167/28 233/166/28 232/169/28 
f 232/170/66 73/171/66 71/172/66 
f 73/171/66 232/170/66 231/173/66 
f 231/174/30 75/175/30 73/176/30 
f 75/175/30 231/174/30 230/177/30 
f 230/178/67 77/179/67 75/180/67 
f 77/179/67 230/178/67 229/181/67 
f 229/182/32 79/183/32 77/184/32 
f 79/183/32 229/182/32 228/185/32 
f 228/186/33 80/187/33 79/188/33 
f 80/187/33 228/186/33 227/189/33 
f 227/190/68 81/191/68 80/192/68 
f 81/191/68 227/190/68 226/193/68 
f 226/194/69 83/195/69 81/196/69 
f 83/195/69 226/194/69 225/197/69 
f 224/198/70 83/199/70 225/200/70 
f 83/199/70 224/198/70 84/201/70 
f 223/202/71 84/203/71 224/204/71 
f 84/203/71 223/202/71 85/205/71 
f 222/206/38 85/207/38 223/208/38 
f 85/207/38 222/206/38 87/209/38 
f 221/210/39 87/211/39 222/212/39 
f 87/211/39 221/210/39 88/213/39 
f 220/214/72 88/215/72 221/216/72 
f 88/215/72 220/214/72 89/217/72 
f 219/218/73 89/219/73 220/220/73 
f 89/219/73 219/218/73 53/221/73 
f 218/222/74 53/223/74 219/224/74 
f 53/223/74 218/222/74 54/225/74 
f 217/226/43 54/227/43 218/228/43 
f 54/227/43 217/226/43 52/229/43 
f 216/230/75 52/231/75 217/232/75 
f 52/231/75 216/230/75 49/233/75 
f 215/234/45 49/235/45 216/236/45 
f 49/235/45 215/234/45 50/237/45 
f 214/238/46 50/239/46 215/240/46 
f 50/239/46 214/238/46 48/241/46 
f 213/242/47 48/243/47 214/244/47 
f 48/243/47 213/242/47 45/245/47 
f 212/246/48 45/247/48 213/248/48 
f 45/247/48 212/246/48 46/249/48 
f 212/250/76 44/251/76 46/252/76 
f 44/251/76 212/250/76 211/253/76 
f 211/254/50 41/255/50 44/256/50 
f 41/255/50 211/254/50 210/257/50 
# 233 polygons - 104 triangles

