# 3ds Max Wavefront OBJ Exporter v0.99 - (c)2007 guruware
# File Created: 28.04.2026 14:26:50

mtllib Silla_Stand1.mtl

#
# object Silla_Stand1
#

v  -3.5219 0.5205 18.9842
v  -3.4371 0.5612 18.8910
v  -3.3406 0.4911 18.9514
v  -3.4286 0.4527 19.0426
v  -3.5927 0.5059 19.0952
v  -3.5090 0.4451 19.1475
v  -3.6797 0.6200 19.4560
v  -3.6744 0.5575 19.3394
v  -3.6257 0.5221 19.3699
v  -3.6541 0.6014 19.4721
v  -3.6611 0.7029 19.5579
v  -3.7032 0.6450 19.4464
v  -3.6603 0.7020 19.5582
v  -3.6587 0.7055 19.5612
v  -3.1656 0.6477 18.8339
v  -3.2493 0.7085 18.7815
v  -3.2527 0.7185 18.8050
v  -3.1732 0.6607 18.8547
v  -3.2509 0.5576 18.8802
v  -3.3441 0.6253 18.8219
v  -3.5253 0.6550 18.8550
v  -3.4294 0.7159 18.7870
v  -3.6071 0.6111 18.9494
v  -3.6692 0.5872 19.0640
v  -3.6447 0.5185 19.2164
v  -3.7074 0.5851 19.1908
v  -3.7189 0.6048 19.3212
v  -3.5008 0.8232 18.7781
v  -3.3899 0.8861 18.7422
v  -3.3258 0.7898 18.7503
v  -3.6539 0.8866 18.8639
v  -3.5536 0.9398 18.7956
v  -3.5993 0.7660 18.8457
v  -3.5762 0.4687 19.2592
v  -3.3254 0.7957 18.7753
v  -3.6786 0.7183 18.9405
v  -2.9191 1.1210 19.4303
v  -2.9800 1.2124 19.4226
v  -2.9622 1.2286 19.4318
v  -2.8980 1.1323 19.4398
v  -3.0243 1.2047 19.5463
v  -2.9528 1.0975 19.5553
v  -2.9000 0.9809 19.5377
v  -3.0321 1.0498 19.6500
v  -2.9775 0.9291 19.6319
v  -3.1306 0.9926 19.7176
v  -3.0778 0.8760 19.7001
v  -3.2415 0.9297 19.7535
v  -3.1941 0.8250 19.7378
v  -3.3573 0.8654 19.7551
v  -3.3185 0.7797 19.7423
v  -3.4700 0.8041 19.7225
v  -3.4425 0.7431 19.7133
v  -3.5721 0.7499 19.6577
v  -3.5576 0.7178 19.6529
v  -3.6565 0.7066 19.5653
v  -3.6560 0.7055 19.5651
v  -3.6594 0.7014 19.5588
v  -3.2976 1.4034 19.3753
v  -3.3877 1.4135 19.2833
v  -3.4822 1.3769 19.3685
v  -3.3890 1.3665 19.4638
v  -3.5655 1.3087 19.4457
v  -3.4754 1.2985 19.5377
v  -3.6318 1.2134 19.5094
v  -3.5510 1.2043 19.5920
v  -3.6767 1.0976 19.5553
v  -3.6106 1.0901 19.6230
v  -3.6972 0.9691 19.5804
v  -3.6501 0.9639 19.6285
v  -3.6917 0.8368 19.5829
v  -3.6669 0.8340 19.6082
v  -3.6607 0.7097 19.5627
v  -3.6598 0.7096 19.5636
v  -3.2131 1.3818 19.2769
v  -3.2898 1.3905 19.1984
v  -3.2884 1.4160 19.1957
v  -3.2075 1.4069 19.2783
v  -3.2027 1.3631 19.4532
v  -3.2908 1.3247 19.5444
v  -3.3805 1.2582 19.6156
v  -3.4658 1.1681 19.6619
v  -3.5409 1.0605 19.6801
v  -3.6006 0.9428 19.6692
v  -3.6408 0.8230 19.6297
v  -3.6589 0.7092 19.5643
v  -3.1322 1.3474 19.3432
v  -3.1224 1.3707 19.3482
v  -3.1095 1.2953 19.5115
v  -3.1943 1.2546 19.6047
v  -3.2873 1.1904 19.6739
v  -3.3821 1.1073 19.7142
v  -3.4724 1.0107 19.7230
v  -3.5519 0.9074 19.6996
v  -3.6152 0.8043 19.6457
v  -3.6580 0.7085 19.5649
v  -3.0527 1.2897 19.3930
v  -3.0387 1.3099 19.4005
v  -3.1061 1.1608 19.6408
v  -3.2020 1.0998 19.7087
v  -3.3056 1.0259 19.7455
v  -3.4097 0.9442 19.7486
v  -3.5073 0.8601 19.7178
v  -3.5917 0.7794 19.6553
v  -3.6572 0.7076 19.5652
v  -3.4373 0.9908 18.7580
v  -3.4647 1.0967 18.7964
v  -3.4573 1.0872 18.8191
v  -3.4313 0.9866 18.7826
v  -3.5841 1.0578 18.8385
v  -3.6918 1.1240 18.9756
v  -3.5902 1.1692 18.9036
v  -3.6855 1.0088 18.9082
v  -3.7680 1.0643 19.0660
v  -3.7619 0.9529 19.0008
v  -3.8136 0.9940 19.1686
v  -3.8081 0.8941 19.1101
v  -3.8255 0.9180 19.2764
v  -3.8210 0.8362 19.2285
v  -3.8030 0.8415 19.3821
v  -3.7997 0.7833 19.3481
v  -3.7457 0.7390 19.4606
v  -3.7474 0.7696 19.4785
v  -3.6626 0.7062 19.5584
v  -3.6627 0.7073 19.5590
v  -3.4702 1.1966 18.8549
v  -3.4625 1.1821 18.8747
v  -3.6726 1.2245 19.0617
v  -3.5716 1.2663 18.9868
v  -3.7494 1.1614 19.1491
v  -3.7969 1.0812 19.2432
v  -3.8119 0.9894 19.3375
v  -3.7932 0.8922 19.4255
v  -3.7423 0.7963 19.5014
v  -3.6625 0.7082 19.5598
v  -3.4535 1.2838 18.9295
v  -3.4467 1.2649 18.9456
v  -3.5295 1.3426 19.0821
v  -3.6290 1.3035 19.1604
v  -3.7073 1.2377 19.2445
v  -3.7591 1.1497 19.3288
v  -3.7809 1.0454 19.4076
v  -3.7712 0.9321 19.4754
v  -3.7307 0.8173 19.5276
v  -3.6621 0.7090 19.5607
v  -3.4157 1.3523 19.0151
v  -3.4108 1.3299 19.0269
v  -3.4668 1.3928 19.1833
v  -3.5641 1.3555 19.2650
v  -3.6446 1.2879 19.3456
v  -3.7028 1.1947 19.4196
v  -3.7348 1.0823 19.4819
v  -3.7385 0.9583 19.5282
v  -3.7134 0.8311 19.5554
v  -3.6615 0.7095 19.5617
v  -3.3594 1.3974 19.1059
v  -3.3573 1.3728 19.1131
v  -3.3863 0.8871 18.7677
v  -3.6623 0.7051 19.5579
v  -3.7373 0.7065 19.4488
v  -3.7228 0.6745 19.4440
v  -3.6618 0.7040 19.5578
v  -3.7314 0.8349 18.9580
v  -3.7807 0.7882 19.0717
v  -3.7986 0.7495 19.1971
v  -3.7838 0.7217 19.3257
v  -3.7334 0.6835 19.0559
v  -3.7598 0.6639 19.1842
v  -3.7562 0.6608 19.3166
v  -2.8741 1.0216 19.4153
v  -2.8507 1.0276 19.4241
v  -2.8695 0.8629 19.4949
v  -2.9459 0.8070 19.5876
v  -3.0473 0.7580 19.6573
v  -3.1667 0.7191 19.6993
v  -3.2961 0.6930 19.7108
v  -3.4265 0.6815 19.6910
v  -3.5492 0.6854 19.6411
v  -3.6557 0.7043 19.5647
v  -2.8481 0.9210 19.3788
v  -2.8233 0.9217 19.3856
v  -2.8634 0.7515 19.4297
v  -2.9396 0.6918 19.5201
v  -3.0412 0.6466 19.5921
v  -3.1612 0.6192 19.6408
v  -3.2916 0.6112 19.6629
v  -3.4233 0.6234 19.6569
v  -3.5475 0.6547 19.6232
v  -3.6556 0.7033 19.5641
v  -2.8178 0.8218 19.3271
v  -2.8428 0.8260 19.3232
v  -2.8820 0.6544 19.3466
v  -2.9588 0.5913 19.4341
v  -3.0598 0.5495 19.5090
v  -3.1779 0.5320 19.5662
v  -3.3052 0.5399 19.6019
v  -3.4330 0.5726 19.6135
v  -3.5526 0.6280 19.6003
v  -3.6558 0.7023 19.5633
v  -2.8345 0.7346 19.2525
v  -2.8587 0.7432 19.2524
v  -2.9241 0.5781 19.2512
v  -3.0024 0.5123 19.3354
v  -3.1019 0.4732 19.4136
v  -3.2157 0.4635 19.4806
v  -3.3362 0.4838 19.5318
v  -3.4550 0.5328 19.5637
v  -3.5642 0.6071 19.5741
v  -3.6562 0.7016 19.5624
v  -2.8723 0.6661 19.1669
v  -2.8946 0.6782 19.1711
v  -3.0673 0.4603 19.2307
v  -2.9868 0.5279 19.1501
v  -3.1646 0.4230 19.3125
v  -3.2720 0.4184 19.3898
v  -3.3823 0.4469 19.4575
v  -3.4878 0.5065 19.5109
v  -3.5814 0.5932 19.5463
v  -3.6568 0.7011 19.5614
v  -2.9286 0.6210 19.0761
v  -2.9481 0.6354 19.0848
v  -3.1492 0.4388 19.1272
v  -3.0659 0.5071 19.0501
v  -3.2437 0.4022 19.2125
v  -3.3430 0.3998 19.3001
v  -3.4404 0.4317 19.3840
v  -3.5291 0.4957 19.4586
v  -3.6032 0.5875 19.5188
v  -3.6576 0.7009 19.5604
v  -2.9996 0.6024 18.9864
v  -3.0155 0.6177 18.9996
v  -3.2424 0.4493 19.0319
v  -3.1560 0.5172 18.9580
v  -3.3338 0.4124 19.1204
v  -3.4239 0.4089 19.2174
v  -3.5065 0.4391 19.3164
v  -3.5761 0.5010 19.4105
v  -3.6280 0.5903 19.4935
v  -3.6585 0.7010 19.5595
v  -3.0804 0.6115 18.9037
v  -3.0923 0.6263 18.9211
v  -3.3566 0.2834 19.3813
v  -3.3214 0.2834 19.3860
v  -3.3214 0.2655 19.4122
v  -3.3634 0.2655 19.4067
v  -3.3214 0.4157 19.2498
v  -3.3015 0.3909 19.2498
v  -3.3021 0.3909 19.2549
v  -3.2781 0.3229 19.3247
v  -3.2602 0.3229 19.3109
v  -3.2429 0.3025 19.3282
v  -3.2659 0.3025 19.3458
v  -3.2501 0.2075 19.5157
v  -3.1837 0.2075 19.4882
v  -3.1688 0.1965 19.5140
v  -3.2424 0.1965 19.5445
v  -3.0837 0.2199 19.1861
v  -3.0554 0.2075 19.1785
v  -3.0461 0.2075 19.2498
v  -3.0753 0.2199 19.2498
v  -3.2924 0.3671 19.2208
v  -3.2767 0.3445 19.2051
v  -3.2666 0.3445 19.2181
v  -3.2859 0.3671 19.2293
v  -3.3320 0.3671 19.2893
v  -3.3214 0.3671 19.2907
v  -3.3214 0.3445 19.3130
v  -3.3377 0.3445 19.3108
v  -3.4783 0.2655 19.2077
v  -3.4529 0.2834 19.2145
v  -3.4576 0.2834 19.2498
v  -3.4838 0.2655 19.2498
v  -3.2818 0.3671 19.2391
v  -3.2603 0.3445 19.2334
v  -3.2582 0.3445 19.2498
v  -3.2804 0.3671 19.2498
v  -3.2990 0.3229 19.1662
v  -3.2781 0.3229 19.1748
v  -3.2898 0.3445 19.1950
v  -3.3050 0.3445 19.1887
v  -3.3660 0.3445 19.2944
v  -3.3503 0.3671 19.2787
v  -3.3418 0.3671 19.2852
v  -3.3530 0.3445 19.3045
v  -3.1837 0.2075 19.0113
v  -3.1688 0.1965 18.9855
v  -3.1056 0.1965 19.0340
v  -3.1267 0.2075 19.0551
v  -3.3386 0.3909 19.2398
v  -3.3354 0.3909 19.2357
v  -3.3009 0.3671 19.2852
v  -3.2924 0.3671 19.2787
v  -3.2767 0.3445 19.2944
v  -3.2898 0.3445 19.3045
v  -3.3437 0.3229 19.1662
v  -3.3214 0.3229 19.1632
v  -3.3214 0.3445 19.1865
v  -3.3377 0.3445 19.1887
v  -3.3501 0.3025 19.1426
v  -3.3214 0.3025 19.1389
v  -3.1113 0.2337 19.1935
v  -3.1039 0.2337 19.2498
v  -3.0266 0.1965 19.1708
v  -3.0162 0.1965 19.2498
v  -3.3041 0.3909 19.2398
v  -3.3073 0.3909 19.2357
v  -3.3998 0.3025 19.3282
v  -3.3825 0.3229 19.3109
v  -3.3646 0.3229 19.3247
v  -3.3768 0.3025 19.3458
v  -3.3566 0.2834 19.1182
v  -3.3214 0.2834 19.1135
v  -3.2250 0.2834 19.3461
v  -3.2532 0.2834 19.3677
v  -3.3501 0.3025 19.3569
v  -3.3214 0.3025 19.3606
v  -3.3214 0.1965 18.9446
v  -3.2424 0.1965 18.9550
v  -3.2501 0.2075 18.9838
v  -3.3214 0.2075 18.9745
v  -3.3162 0.3909 19.2690
v  -3.3214 0.3909 19.2696
v  -3.3108 0.3671 19.2893
v  -3.3050 0.3445 19.3108
v  -3.5873 0.2075 19.1785
v  -3.5590 0.2199 19.1861
v  -3.5674 0.2199 19.2498
v  -3.5966 0.2075 19.2498
v  -3.5873 0.2075 19.3210
v  -3.5590 0.2199 19.3134
v  -3.5344 0.2199 19.3728
v  -3.5598 0.2075 19.3874
v  -3.3776 0.2337 19.0397
v  -3.3214 0.2337 19.0323
v  -3.3214 0.2489 19.0602
v  -3.3704 0.2489 19.0666
v  -3.5045 0.2489 19.2007
v  -3.5109 0.2489 19.2498
v  -3.2401 0.2655 19.3904
v  -3.2065 0.2655 19.3646
v  -3.1873 0.2489 19.3838
v  -3.2266 0.2489 19.4139
v  -3.4285 0.3025 19.2211
v  -3.4322 0.3025 19.2498
v  -3.1983 0.2199 19.0367
v  -3.1474 0.2199 19.0758
v  -3.3162 0.3909 19.2305
v  -3.3108 0.3671 19.2102
v  -3.3009 0.3671 19.2143
v  -3.3114 0.3909 19.2325
v  -3.2577 0.2199 19.0121
v  -3.3214 0.2199 19.0037
v  -3.3568 0.3671 19.2293
v  -3.3503 0.3671 19.2208
v  -3.2143 0.3025 19.2211
v  -3.1898 0.2834 19.2145
v  -3.1851 0.2834 19.2498
v  -3.2105 0.3025 19.2498
v  -3.2378 0.3229 19.2274
v  -3.2348 0.3229 19.2498
v  -3.5598 0.2075 19.1121
v  -3.5344 0.2199 19.1267
v  -3.5097 0.2337 19.1410
v  -3.5314 0.2337 19.1935
v  -3.2651 0.2337 19.4598
v  -3.2126 0.2337 19.4381
v  -3.1983 0.2199 19.4628
v  -3.2577 0.2199 19.4874
v  -3.2266 0.2489 19.0856
v  -3.2126 0.2337 19.0614
v  -3.1676 0.2337 19.0960
v  -3.1873 0.2489 19.1157
v  -3.3320 0.3671 19.2102
v  -3.3214 0.3671 19.2088
v  -3.3214 0.3909 19.2299
v  -3.3265 0.3909 19.2305
v  -3.2659 0.3025 19.1537
v  -3.2532 0.2834 19.1318
v  -3.2250 0.2834 19.1534
v  -3.2429 0.3025 19.1713
v  -3.2651 0.2337 19.0397
v  -3.2723 0.2489 19.0666
v  -3.5314 0.2337 19.3060
v  -3.5045 0.2489 19.2988
v  -3.4855 0.2489 19.3445
v  -3.5097 0.2337 19.3585
v  -3.2602 0.3229 19.1886
v  -3.4444 0.2199 19.4628
v  -3.3850 0.2199 19.4874
v  -3.3926 0.2075 19.5157
v  -3.4590 0.2075 19.4882
v  -3.4855 0.2489 19.1550
v  -3.3406 0.3909 19.2446
v  -3.3412 0.3909 19.2498
v  -3.3623 0.3671 19.2498
v  -3.3609 0.3671 19.2391
v  -3.2401 0.2655 19.1091
v  -3.2065 0.2655 19.1349
v  -3.2723 0.2489 19.4329
v  -3.4783 0.2655 19.2918
v  -3.4621 0.2655 19.3310
v  -3.3824 0.3445 19.2334
v  -3.3846 0.3445 19.2498
v  -3.5388 0.2337 19.2498
v  -3.1267 0.2075 19.4444
v  -3.1056 0.1965 19.4655
v  -3.4554 0.2489 19.1157
v  -3.4362 0.2655 19.1349
v  -3.4621 0.2655 19.1685
v  -3.3214 0.3229 19.3363
v  -3.3437 0.3229 19.3333
v  -3.2861 0.2834 19.3813
v  -3.2793 0.2655 19.4067
v  -3.2603 0.3445 19.2661
v  -3.2818 0.3671 19.2604
v  -3.1898 0.2834 19.2850
v  -3.2143 0.3025 19.2784
v  -3.4079 0.3229 19.2498
v  -3.3824 0.3445 19.2661
v  -3.4049 0.3229 19.2721
v  -3.2793 0.2655 19.0928
v  -3.2861 0.2834 19.1182
v  -3.6161 0.1965 19.1708
v  -3.6265 0.1965 19.2498
v  -3.4554 0.2489 19.3838
v  -3.4362 0.2655 19.3646
v  -3.4026 0.2655 19.3904
v  -3.4161 0.2489 19.4139
v  -3.4751 0.2337 19.0960
v  -3.5160 0.2075 19.4444
v  -3.4953 0.2199 19.4237
v  -3.4177 0.2834 19.3461
v  -3.3895 0.2834 19.3677
v  -3.3265 0.3909 19.2690
v  -3.4285 0.3025 19.2784
v  -3.0829 0.2075 19.1121
v  -3.1083 0.2199 19.1267
v  -3.3073 0.3909 19.2638
v  -3.3114 0.3909 19.2670
v  -3.3926 0.2075 18.9838
v  -3.3850 0.2199 19.0121
v  -3.1330 0.2337 19.1410
v  -3.1572 0.2489 19.1550
v  -3.2666 0.3445 19.2813
v  -3.2464 0.3229 19.2930
v  -3.1807 0.2655 19.1685
v  -3.2927 0.3025 19.1426
v  -3.2378 0.3229 19.2721
v  -3.2034 0.2834 19.3179
v  -3.1807 0.2655 19.3310
v  -3.3021 0.3909 19.2446
v  -3.3704 0.2489 19.4329
v  -3.3776 0.2337 19.4598
v  -3.4301 0.2337 19.4381
v  -3.3214 0.2655 19.0873
v  -3.0829 0.2075 19.3874
v  -3.0571 0.1965 19.4023
v  -3.3406 0.3909 19.2549
v  -3.3609 0.3671 19.2604
v  -3.4751 0.2337 19.4035
v  -3.2990 0.3229 19.3333
v  -3.2927 0.3025 19.3569
v  -3.1474 0.2199 19.4237
v  -3.1083 0.2199 19.3728
v  -3.1676 0.2337 19.4035
v  -3.1330 0.2337 19.3585
v  -3.0571 0.1965 19.0972
v  -3.2253 0.3025 19.3052
v  -3.2034 0.2834 19.1816
v  -3.2253 0.3025 19.1943
v  -3.3214 0.2489 19.4393
v  -3.1572 0.2489 19.3445
v  -3.3214 0.2199 19.4958
v  -3.3214 0.2075 19.5250
v  -3.1644 0.2655 19.2077
v  -3.1589 0.2655 19.2498
v  -3.2464 0.3229 19.2065
v  -3.4049 0.3229 19.2274
v  -3.5856 0.1965 19.0972
v  -3.1383 0.2489 19.2007
v  -3.1318 0.2489 19.2498
v  -3.4529 0.2834 19.2850
v  -3.4393 0.2834 19.3179
v  -3.4003 0.1965 19.5445
v  -3.4739 0.1965 19.5140
v  -3.6161 0.1965 19.3287
v  -3.5856 0.1965 19.4023
v  -3.3634 0.2655 19.0928
v  -3.3998 0.3025 19.1713
v  -3.3825 0.3229 19.1886
v  -3.3963 0.3229 19.2065
v  -3.4174 0.3025 19.1943
v  -3.3214 0.2337 19.4672
v  -3.4393 0.2834 19.1816
v  -3.4177 0.2834 19.1534
v  -3.3214 0.1965 19.5549
v  -3.3895 0.2834 19.1318
v  -3.3768 0.3025 19.1537
v  -3.4161 0.2489 19.0856
v  -3.4026 0.2655 19.1091
v  -3.3313 0.3909 19.2325
v  -3.3646 0.3229 19.1748
v  -3.3418 0.3671 19.2143
v  -3.3530 0.3445 19.1950
v  -3.3660 0.3445 19.2051
v  -3.4301 0.2337 19.0614
v  -3.4953 0.2199 19.0758
v  -3.5160 0.2075 19.0551
v  -3.4444 0.2199 19.0367
v  -3.5371 0.1965 19.0340
v  -3.4590 0.2075 19.0113
v  -3.4739 0.1965 18.9855
v  -3.4003 0.1965 18.9550
v  -3.3761 0.3445 19.2181
v  -3.3354 0.3909 19.2638
v  -3.3313 0.3909 19.2670
v  -3.3386 0.3909 19.2597
v  -3.3568 0.3671 19.2702
v  -3.2859 0.3671 19.2702
v  -3.3963 0.3229 19.2930
v  -3.4174 0.3025 19.3052
v  -3.3041 0.3909 19.2597
v  -3.0554 0.2075 19.3210
v  -3.0266 0.1965 19.3287
v  -3.0837 0.2199 19.3134
v  -3.5371 0.1965 19.4655
v  -3.1113 0.2337 19.3060
v  -3.1644 0.2655 19.2918
v  -3.1383 0.2489 19.2988
v  -3.3761 0.3445 19.2814
v  -3.6915 0.6971 19.3058
v  -3.7151 0.7492 19.3137
v  -3.6754 0.7363 19.4186
v  -3.6630 0.7088 19.4144
v  -3.3369 0.5521 18.9948
v  -3.4193 0.6120 18.9433
v  -3.4916 0.5773 19.0227
v  -3.4120 0.5194 19.0725
v  -3.6203 1.1782 19.0889
v  -3.5831 1.2455 19.1732
v  -3.6498 1.1895 19.2449
v  -3.6858 1.1244 19.1635
v  -3.4946 0.6920 18.9125
v  -3.5577 0.7868 18.9046
v  -3.6253 0.7461 18.9854
v  -3.5643 0.6546 18.9930
v  -3.7231 0.8950 19.3990
v  -3.7390 0.9778 19.3240
v  -3.7126 1.0256 19.3838
v  -3.7043 0.9290 19.4416
v  -3.6797 0.8133 19.4636
v  -3.6698 0.8313 19.4861
v  -3.5519 0.5649 19.1173
v  -3.4805 0.5129 19.1620
v  -3.4198 0.9785 18.8299
v  -3.4431 1.0689 18.8627
v  -3.5449 1.0358 18.8985
v  -3.5189 0.9350 18.8620
v  -3.6095 0.7320 19.5118
v  -3.6079 0.7355 19.5148
v  -3.6086 0.7313 19.5124
v  -3.6043 0.8898 18.9201
v  -3.6313 0.9940 18.9579
v  -3.6964 0.9464 19.0369
v  -3.6704 0.8457 19.0003
v  -3.5502 1.1308 18.9542
v  -3.5343 1.2137 19.0251
v  -3.6367 1.0924 19.0155
v  -3.6054 0.7315 19.5160
v  -3.6060 0.7310 19.5150
v  -3.4738 0.8355 18.8470
v  -3.6049 0.7343 19.5183
v  -3.6048 0.7332 19.5177
v  -2.9855 0.6628 19.1015
v  -2.9374 0.7013 19.1790
v  -3.1037 0.5259 19.2332
v  -3.1736 0.5075 19.1449
v  -3.2541 0.4764 19.2175
v  -3.1866 0.4941 19.3029
v  -3.0351 0.5834 19.1645
v  -2.9816 0.6263 19.2509
v  -3.4479 1.1542 18.9127
v  -3.2593 0.7375 18.8500
v  -3.3401 0.6666 18.8844
v  -3.2605 0.6088 18.9341
v  -3.1878 0.6856 18.8947
v  -2.9456 0.6914 19.3323
v  -2.9051 0.7598 19.2521
v  -3.7017 1.0415 19.0925
v  -3.7124 0.8058 19.0972
v  -3.6720 0.7165 19.0837
v  -3.3793 0.8891 18.8164
v  -3.4128 0.7440 18.8546
v  -3.3246 0.8069 18.8233
v  -3.7405 0.9816 19.1799
v  -3.7358 0.8963 19.1300
v  -3.4096 0.7148 19.6259
v  -3.4232 0.7675 19.6450
v  -3.3176 0.7987 19.6697
v  -3.2985 0.7247 19.6428
v  -3.0111 0.6376 19.4068
v  -3.0483 0.5703 19.3226
v  -3.6117 0.7382 19.5134
v  -3.6113 0.7389 19.5143
v  -3.6172 0.6343 19.0906
v  -3.6946 0.6998 19.1931
v  -3.6497 0.6325 19.1987
v  -3.6596 0.6492 19.3098
v  -3.7468 0.8470 19.2309
v  -3.7277 0.7729 19.2041
v  -3.6115 0.7350 19.5116
v  -3.6110 0.7339 19.5114
v  -3.4336 1.2287 18.9763
v  -3.1978 0.5871 19.5194
v  -3.2301 0.5287 19.4463
v  -3.3327 0.5460 19.4899
v  -3.3063 0.5938 19.5498
v  -3.5605 0.6342 19.4786
v  -3.6068 0.7308 19.5140
v  -3.5418 0.6391 19.5021
v  -3.4013 1.2871 19.0494
v  -3.6841 0.7904 19.4440
v  -3.7314 0.8516 19.3619
v  -3.7263 1.0560 19.2436
v  -3.4620 0.5653 19.4719
v  -3.5270 0.6510 19.5260
v  -3.4340 0.5877 19.5171
v  -3.6119 0.7373 19.5126
v  -3.6077 0.7309 19.5131
v  -3.5817 0.6366 19.4569
v  -3.4973 0.5560 19.4273
v  -3.5375 0.5605 19.3862
v  -3.4217 0.5014 19.3637
v  -3.4782 0.5078 19.3060
v  -3.3387 0.4743 19.2922
v  -3.4078 0.4820 19.2216
v  -3.3310 0.4850 19.1389
v  -3.2531 0.5165 19.0636
v  -3.1026 0.5657 19.0792
v  -3.1795 0.5744 19.0006
v  -3.1151 0.6547 18.9543
v  -3.0461 0.6469 19.0249
v  -3.6041 0.6461 19.4385
v  -3.5799 0.5785 19.3514
v  -3.5377 0.5331 19.2571
v  -3.6215 0.6088 19.3254
v  -3.6261 0.6621 19.4247
v  -3.7507 0.9168 19.2718
v  -3.6940 1.1145 19.3167
v  -3.4983 1.2788 19.1065
v  -3.5962 0.5756 19.2205
v  -3.6103 0.7329 19.5115
v  -3.6462 0.6835 19.4165
v  -3.7287 0.8019 19.3328
v  -3.1331 0.5369 19.3892
v  -3.0971 0.6021 19.4706
v  -3.6107 0.7394 19.5153
v  -3.6099 0.7396 19.5163
v  -3.6550 0.8431 19.5100
v  -3.6363 0.8480 19.5336
v  -3.6763 0.9515 19.4868
v  -3.6410 0.9607 19.5314
v  -3.6732 1.0572 19.4473
v  -3.6236 1.0702 19.5100
v  -3.6459 1.1530 19.3942
v  -3.5853 1.1689 19.4709
v  -3.5127 0.6919 19.5681
v  -3.5141 0.7181 19.5835
v  -3.4069 0.6651 19.5968
v  -3.2946 0.6548 19.6019
v  -3.1835 0.6615 19.5831
v  -3.1883 0.7469 19.6330
v  -3.0865 0.7800 19.5972
v  -3.0812 0.6850 19.5416
v  -3.0001 0.8218 19.5378
v  -2.9947 0.7234 19.4802
v  -2.9350 0.8694 19.4589
v  -2.9297 0.7743 19.4032
v  -2.8956 0.9195 19.3657
v  -2.8909 0.8342 19.3158
v  -3.6050 0.7323 19.5169
v  -3.5171 0.6690 19.5485
v  -3.4152 0.6218 19.5597
v  -3.2781 0.4902 19.3688
v  -3.3721 0.5145 19.4265
v  -3.6118 0.7362 19.5120
v  -3.1576 0.9803 19.6487
v  -3.0737 1.0290 19.5911
v  -3.0270 0.9260 19.5756
v  -3.1125 0.8807 19.6338
v  -3.0061 1.0696 19.5104
v  -2.9610 0.9701 19.4954
v  -2.9594 1.0993 19.4120
v  -2.9190 1.0100 19.3986
v  -3.6052 0.7354 19.5188
v  -3.5213 0.7460 19.5936
v  -3.6064 0.7376 19.5188
v  -3.6057 0.7366 19.5189
v  -3.1398 1.2385 19.4730
v  -3.0795 1.2509 19.3785
v  -3.0141 1.1815 19.4051
v  -3.0671 1.1612 19.5027
v  -3.5506 0.7987 19.5956
v  -3.5338 0.7735 19.5977
v  -3.4787 0.8675 19.6489
v  -3.4468 0.8196 19.6529
v  -3.3956 0.9392 19.6751
v  -3.3507 0.8719 19.6807
v  -3.1368 1.1238 19.5832
v  -3.6072 0.7385 19.5185
v  -3.3068 1.0088 19.6724
v  -3.2521 0.9267 19.6793
v  -3.2186 1.0718 19.6411
v  -3.5168 0.9079 19.6333
v  -3.4490 0.9960 19.6532
v  -3.3721 1.0783 19.6458
v  -3.4436 1.1302 19.6011
v  -3.3709 1.2070 19.5616
v  -3.2913 1.1491 19.6114
v  -3.2944 1.2637 19.5009
v  -3.2121 1.2038 19.5525
v  -3.2194 1.2964 19.4232
v  -3.6081 0.7391 19.5179
v  -3.5927 0.8361 19.5736
v  -3.5707 0.8201 19.5874
v  -3.5584 0.9382 19.6073
v  -3.5075 1.0385 19.6166
v  -3.4448 1.3217 19.1928
v  -3.5277 1.2899 19.2625
v  -3.3533 1.3256 19.1269
v  -3.2116 0.8373 19.6659
v  -3.1509 1.3029 19.3338
v  -3.5963 1.2323 19.3312
v  -3.5163 1.1611 19.5414
v  -3.5288 1.2501 19.4166
v  -3.4519 1.2414 19.4952
v  -3.4578 1.3082 19.3509
v  -3.3783 1.2993 19.4322
v  -3.3773 1.3394 19.2782
v  -3.3004 1.3308 19.3568
v  -3.2926 1.3415 19.2036
v  -3.2236 1.3338 19.2741
v  -3.6091 0.7395 19.5172
v  -3.6151 0.8456 19.5553
v  -3.6008 0.9562 19.5725
v  -3.5671 1.0638 19.5678
v  -3.6826 0.7641 19.4287
# 747 vertices

vn 0.2449 -0.7567 -0.6062
vn 0.4849 -0.6770 -0.5537
vn 0.4771 -0.8139 -0.3316
vn 0.2373 -0.8890 -0.3915
vn -0.0116 -0.7859 -0.6183
vn -0.0185 -0.9049 -0.4253
vn -0.7113 -0.5667 -0.4158
vn -0.5063 -0.6879 -0.5200
vn -0.5103 -0.7575 -0.4072
vn -0.7134 -0.6035 -0.3561
vn -0.8689 -0.4047 -0.2851
vn -0.7181 -0.5175 -0.4654
vn -0.8686 -0.4067 -0.2831
vn -0.8739 -0.3994 -0.2771
vn 0.5183 0.7528 0.4058
vn 0.5144 0.6843 0.5168
vn 0.6850 -0.6845 -0.2495
vn 0.6926 -0.5521 -0.4642
vn 0.7825 -0.4726 -0.4055
vn 0.7752 -0.5991 -0.2003
vn 0.4597 -0.4939 -0.7381
vn 0.6682 -0.3751 -0.6425
vn 0.2205 -0.5797 -0.7844
vn -0.0335 -0.6268 -0.7784
vn -0.2677 -0.7625 -0.5889
vn -0.2857 -0.6321 -0.7203
vn -0.5191 -0.5949 -0.6137
vn 0.6136 -0.1656 -0.7721
vn 0.7069 -0.1032 -0.6997
vn 0.7592 -0.3034 -0.5758
vn 0.3192 -0.0415 -0.9468
vn 0.5324 0.0622 -0.8442
vn 0.4032 -0.2771 -0.8721
vn -0.2733 -0.8601 -0.4307
vn 0.5270 0.5928 0.6090
vn 0.1659 -0.3702 -0.9140
vn 0.9584 0.2073 -0.1961
vn 0.9867 0.0989 -0.1290
vn -0.0381 0.4089 0.9118
vn -0.0903 0.6091 0.7879
vn -0.2205 0.5797 0.7844
vn -0.1659 0.3702 0.9140
vn -0.0847 0.1424 0.9862
vn -0.4032 0.2771 0.8721
vn -0.3192 0.0415 0.9468
vn -0.6136 0.1656 0.7721
vn -0.5324 -0.0622 0.8442
vn -0.7832 0.0429 0.6203
vn -0.7102 -0.1618 0.6852
vn -0.9005 -0.0828 0.4269
vn -0.8407 -0.2507 0.4801
vn -0.9576 -0.2032 0.2044
vn -0.9149 -0.3229 0.2423
vn -0.9501 -0.3101 -0.0324
vn -0.9276 -0.3735 -0.0123
vn -0.8782 -0.3963 -0.2676
vn -0.8773 -0.3989 -0.2668
vn -0.8687 -0.4082 -0.2807
vn -0.1983 0.9678 0.1550
vn -0.1305 0.9876 -0.0873
vn -0.3666 0.9159 -0.1637
vn -0.4367 0.8954 0.0869
vn -0.5782 0.7830 -0.2293
vn -0.6460 0.7632 0.0130
vn -0.7514 0.5978 -0.2795
vn -0.8123 0.5800 -0.0618
vn -0.8744 0.3723 -0.3111
vn -0.9244 0.3577 -0.1326
vn -0.9390 0.1213 -0.3219
vn -0.9746 0.1109 -0.1946
vn -0.9403 -0.1384 -0.3109
vn -0.9592 -0.1439 -0.2436
vn -0.8778 -0.3894 -0.2789
vn -0.8786 -0.3896 -0.2762
vn 0.9752 -0.1018 0.1966
vn 0.9401 -0.1121 0.3219
vn -0.0691 0.9801 0.1863
vn -0.0043 0.9990 -0.0452
vn -0.2373 0.8890 0.3915
vn -0.4771 0.8139 0.3316
vn -0.6850 0.6845 0.2495
vn -0.8473 0.5092 0.1508
vn -0.9531 0.2996 0.0418
vn -0.9951 0.0695 -0.0702
vn -0.9700 -0.1658 -0.1778
vn -0.8790 -0.3905 -0.2735
vn 0.9954 -0.0611 0.0742
vn -0.1063 0.9048 0.4124
vn -0.2449 0.7567 0.6062
vn -0.4849 0.6770 0.5537
vn -0.6926 0.5521 0.4642
vn -0.8542 0.3902 0.3437
vn -0.9587 0.2021 0.2000
vn -0.9991 -0.0000 0.0426
vn -0.9721 -0.2026 -0.1180
vn -0.8791 -0.3920 -0.2711
vn 0.9993 0.0074 -0.0368
vn -0.1136 0.7782 0.6176
vn -0.4597 0.4939 0.7381
vn -0.6682 0.3751 0.6425
vn -0.8323 0.2312 0.5039
vn -0.9408 0.0716 0.3314
vn -0.9863 -0.0931 0.1363
vn -0.9653 -0.2518 -0.0684
vn -0.8789 -0.3940 -0.2691
vn 0.5972 0.3666 0.7134
vn 0.6501 0.2474 0.7184
vn 0.4302 0.2927 -0.8540
vn 0.5316 0.3348 -0.7780
vn 0.6293 0.1145 -0.7687
vn 0.0931 0.4220 -0.9018
vn 0.3139 0.5102 -0.8007
vn 0.2134 0.1970 -0.9569
vn -0.1338 0.3056 -0.9427
vn -0.0175 0.0881 -0.9960
vn -0.3520 0.1688 -0.9207
vn -0.2475 -0.0267 -0.9685
vn -0.5469 0.0204 -0.8370
vn -0.4612 -0.1399 -0.8762
vn -0.7054 -0.1296 -0.6969
vn -0.6443 -0.2439 -0.7249
vn -0.7843 -0.3317 -0.5242
vn -0.8167 -0.2712 -0.5094
vn -0.8715 -0.3972 -0.2875
vn -0.8728 -0.3947 -0.2869
vn 0.7103 0.1349 0.6909
vn 0.4205 0.5427 -0.7271
vn -0.0335 0.6183 -0.7853
vn 0.1914 0.6999 -0.6881
vn -0.2563 0.4953 -0.8300
vn -0.4620 0.3393 -0.8194
vn -0.6371 0.1603 -0.7539
vn -0.7697 -0.0299 -0.6377
vn -0.8507 -0.2184 -0.4781
vn -0.8742 -0.3926 -0.2856
vn 0.7736 0.0367 0.6326
vn 0.3035 0.7240 -0.6194
vn 0.0712 0.8489 -0.5237
vn -0.1579 0.7724 -0.6152
vn -0.3765 0.6443 -0.6657
vn -0.5701 0.4732 -0.6717
vn -0.7257 0.2701 -0.6328
vn -0.8329 0.0485 -0.5513
vn -0.8842 -0.1769 -0.4323
vn -0.8756 -0.3909 -0.2838
vn 0.8358 -0.0403 0.5476
vn 0.1886 0.8664 -0.4623
vn -0.0386 0.9470 -0.3188
vn -0.2715 0.8739 -0.4032
vn -0.4863 0.7425 -0.4607
vn -0.6687 0.5613 -0.4875
vn -0.8067 0.3424 -0.4817
vn -0.8907 0.1000 -0.4435
vn -0.9147 -0.1496 -0.3753
vn -0.8768 -0.3898 -0.2815
vn 0.8926 -0.0911 0.4416
vn 0.0836 0.9602 -0.2665
vn 0.5552 0.4844 0.6761
vn -0.8704 -0.3998 -0.2874
vn -0.7559 -0.3958 -0.5215
vn -0.7333 -0.4592 -0.5014
vn -0.8695 -0.4023 -0.2866
vn 0.0847 -0.1424 -0.9862
vn -0.1556 -0.2339 -0.9597
vn -0.3858 -0.3098 -0.8690
vn -0.5905 -0.3651 -0.7197
vn -0.0826 -0.4386 -0.8949
vn -0.3260 -0.4777 -0.8158
vn -0.5479 -0.4848 -0.6818
vn 0.9164 0.3251 -0.2334
vn 0.0395 0.1912 0.9808
vn 0.0175 -0.0881 0.9960
vn -0.2134 -0.1970 0.9569
vn -0.4302 -0.2927 0.8540
vn -0.6183 -0.3689 0.6940
vn -0.7653 -0.4206 0.4873
vn -0.8612 -0.4440 0.2475
vn -0.8991 -0.4376 -0.0096
vn -0.8762 -0.4015 -0.2667
vn 0.8635 0.4443 -0.2385
vn 0.1372 -0.0291 0.9901
vn 0.1338 -0.3056 0.9427
vn -0.0931 -0.4220 0.9018
vn -0.3139 -0.5102 0.8007
vn -0.5138 -0.5644 0.6461
vn -0.6796 -0.5809 0.4480
vn -0.8000 -0.5584 0.2195
vn -0.8668 -0.4981 -0.0244
vn -0.8749 -0.4039 -0.2673
vn 0.8034 0.5568 -0.2109
vn 0.2484 -0.2370 0.9392
vn 0.2563 -0.4953 0.8300
vn 0.0335 -0.6183 0.7853
vn -0.1914 -0.6999 0.6881
vn -0.4038 -0.7349 0.5449
vn -0.5894 -0.7207 0.3650
vn -0.7357 -0.6581 0.1603
vn -0.8327 -0.5509 -0.0558
vn -0.8735 -0.4061 -0.2686
vn 0.7401 0.6550 -0.1526
vn 0.3654 -0.4184 0.8315
vn 0.3765 -0.6443 0.6657
vn 0.1579 -0.7724 0.6152
vn -0.0712 -0.8489 0.5237
vn -0.2957 -0.8688 0.3971
vn -0.5007 -0.8305 0.2438
vn -0.6725 -0.7364 0.0739
vn -0.7993 -0.5924 -0.1015
vn -0.8721 -0.4077 -0.2704
vn 0.6779 0.7321 -0.0676
vn 0.4803 -0.5608 0.6744
vn 0.2715 -0.8739 0.4032
vn 0.4863 -0.7425 0.4607
vn 0.0386 -0.9470 0.3188
vn -0.1971 -0.9570 0.2130
vn -0.4198 -0.9029 0.0928
vn -0.6148 -0.7880 -0.0338
vn -0.7687 -0.6196 -0.1585
vn -0.8709 -0.4088 -0.2727
vn 0.6211 0.7828 0.0384
vn 0.5853 -0.6546 0.4786
vn 0.3666 -0.9159 0.1637
vn 0.5782 -0.7830 0.2293
vn 0.1305 -0.9876 0.0873
vn -0.1144 -0.9934 0.0050
vn -0.3520 -0.9327 -0.0778
vn -0.5665 -0.8093 -0.1555
vn -0.7431 -0.6309 -0.2229
vn -0.8699 -0.4093 -0.2753
vn 0.5735 0.8038 0.1581
vn 0.6731 -0.6933 0.2573
vn 0.4367 -0.8954 -0.0869
vn 0.6460 -0.7632 -0.0130
vn 0.1983 -0.9678 -0.1550
vn -0.0535 -0.9756 -0.2128
vn -0.3021 -0.9182 -0.2564
vn -0.5308 -0.7989 -0.2828
vn -0.7243 -0.6254 -0.2903
vn -0.8691 -0.4091 -0.2781
vn 0.5385 0.7935 0.2834
vn 0.7379 -0.6744 0.0258
vn 0.5621 -0.8132 -0.1506
vn 0.5040 -0.8132 -0.2910
vn 0.4686 -0.8410 -0.2705
vn 0.5227 -0.8410 -0.1400
vn -0.2994 -0.6228 -0.7228
vn -0.3816 -0.6462 -0.6609
vn -0.1975 -0.6462 -0.7372
vn 0.3297 -0.7518 -0.5710
vn 0.1707 -0.7518 -0.6369
vn 0.1608 -0.7835 -0.6002
vn 0.3107 -0.7835 -0.5382
vn 0.2584 -0.9308 -0.2584
vn 0.1827 -0.9308 -0.3165
vn 0.1721 -0.9389 -0.2981
vn 0.2434 -0.9389 -0.2434
vn -0.2906 -0.9116 -0.2906
vn -0.2584 -0.9308 -0.2584
vn -0.1827 -0.9308 -0.3165
vn -0.2055 -0.9116 -0.3559
vn -0.7055 -0.6831 -0.1890
vn -0.6720 -0.7183 -0.1801
vn -0.6025 -0.7183 -0.3478
vn -0.6325 -0.6831 -0.3652
vn 0.7055 -0.6831 -0.1890
vn 0.6325 -0.6831 -0.3652
vn 0.6025 -0.7183 -0.3478
vn 0.6720 -0.7183 -0.1801
vn 0.1400 -0.8410 0.5227
vn 0.1506 -0.8132 0.5621
vn 0.2910 -0.8132 0.5040
vn 0.2705 -0.8410 0.4686
vn -0.5164 -0.6831 -0.5164
vn -0.4919 -0.7183 -0.4919
vn -0.3478 -0.7183 -0.6025
vn -0.3652 -0.6831 -0.6325
vn -0.6369 -0.7518 0.1707
vn -0.6594 -0.7518 0.0000
vn -0.6957 -0.7183 0.0000
vn -0.6720 -0.7183 0.1801
vn 0.6720 -0.7183 0.1801
vn 0.7055 -0.6831 0.1890
vn 0.7303 -0.6831 0.0000
vn 0.6957 -0.7183 0.0000
vn -0.3655 -0.9308 -0.0000
vn -0.3442 -0.9389 -0.0000
vn -0.3325 -0.9389 -0.0891
vn -0.3530 -0.9308 -0.0946
vn -0.1021 -0.6228 0.7757
vn -0.0000 -0.6462 0.7632
vn -0.1975 -0.6462 0.7372
vn 0.3652 -0.6831 -0.6325
vn 0.1890 -0.6831 -0.7055
vn 0.1801 -0.7183 -0.6720
vn 0.3478 -0.7183 -0.6025
vn -0.4662 -0.7518 0.4662
vn -0.5710 -0.7518 0.3297
vn -0.6025 -0.7183 0.3478
vn -0.4919 -0.7183 0.4919
vn -0.4394 -0.7835 0.4394
vn -0.5382 -0.7835 0.3107
vn -0.3221 -0.8902 -0.3221
vn -0.2278 -0.8902 -0.3945
vn -0.2434 -0.9389 -0.2434
vn -0.1721 -0.9389 -0.2981
vn -0.6609 -0.6462 -0.3816
vn -0.7372 -0.6462 -0.1975
vn 0.6002 -0.7835 0.1608
vn 0.6369 -0.7518 0.1707
vn 0.6594 -0.7518 0.0000
vn 0.6214 -0.7835 0.0000
vn -0.4115 -0.8132 0.4115
vn -0.5040 -0.8132 0.2910
vn 0.1506 -0.8132 -0.5621
vn 0.2910 -0.8132 -0.5040
vn 0.6002 -0.7835 -0.1608
vn 0.5382 -0.7835 -0.3107
vn -0.2981 -0.9389 0.1721
vn -0.3325 -0.9389 0.0891
vn -0.3530 -0.9308 0.0946
vn -0.3165 -0.9308 0.1827
vn 0.6207 -0.6228 -0.4763
vn 0.5397 -0.6462 -0.5397
vn 0.6609 -0.6462 -0.3816
vn 0.5164 -0.6831 -0.5164
vn 0.4919 -0.7183 -0.4919
vn 0.0946 -0.9308 0.3530
vn 0.1064 -0.9116 0.3970
vn 0.2055 -0.9116 0.3559
vn 0.1827 -0.9308 0.3165
vn 0.2584 -0.9308 0.2584
vn 0.2906 -0.9116 0.2906
vn 0.3559 -0.9116 0.2055
vn 0.3165 -0.9308 0.1827
vn -0.3221 -0.8902 0.3221
vn -0.3945 -0.8902 0.2278
vn -0.4321 -0.8667 0.2495
vn -0.3528 -0.8667 0.3528
vn 0.1291 -0.8667 0.4819
vn 0.2495 -0.8667 0.4321
vn 0.2705 -0.8410 -0.4686
vn 0.1400 -0.8410 -0.5227
vn 0.1291 -0.8667 -0.4819
vn 0.2495 -0.8667 -0.4321
vn 0.1608 -0.7835 0.6002
vn 0.3107 -0.7835 0.5382
vn -0.4110 -0.9116 0.0000
vn -0.3970 -0.9116 -0.1064
vn -0.7228 -0.6228 -0.2994
vn -0.7372 -0.6462 0.1975
vn -0.7055 -0.6831 0.1890
vn -0.7303 -0.6831 -0.0000
vn -0.7632 -0.6462 -0.0000
vn -0.3970 -0.9116 0.1064
vn -0.3559 -0.9116 0.2055
vn -0.0000 -0.6831 0.7303
vn -0.1890 -0.6831 0.7055
vn -0.4394 -0.7835 -0.4394
vn -0.4115 -0.8132 -0.4115
vn -0.2910 -0.8132 -0.5040
vn -0.3107 -0.7835 -0.5382
vn -0.4662 -0.7518 -0.4662
vn -0.3297 -0.7518 -0.5710
vn -0.0000 -0.9308 0.3655
vn 0.0000 -0.9116 0.4110
vn 0.0000 -0.8902 0.4555
vn 0.1179 -0.8902 0.4400
vn 0.3221 -0.8902 -0.3221
vn 0.2278 -0.8902 -0.3945
vn 0.2055 -0.9116 -0.3559
vn 0.2906 -0.9116 -0.2906
vn -0.4989 -0.8667 -0.0000
vn -0.4555 -0.8902 0.0000
vn -0.4400 -0.8902 -0.1179
vn -0.4819 -0.8667 -0.1291
vn -0.5164 -0.6831 0.5164
vn -0.6325 -0.6831 0.3652
vn -0.6609 -0.6462 0.3816
vn -0.5397 -0.6462 0.5397
vn -0.6214 -0.7835 -0.0000
vn -0.5820 -0.8132 -0.0000
vn -0.5621 -0.8132 -0.1506
vn -0.6002 -0.7835 -0.1608
vn -0.4400 -0.8902 0.1179
vn -0.4819 -0.8667 0.1291
vn 0.3221 -0.8902 0.3221
vn 0.3528 -0.8667 0.3528
vn 0.4321 -0.8667 0.2495
vn 0.3945 -0.8902 0.2278
vn -0.6369 -0.7518 -0.1707
vn 0.4110 -0.9116 0.0000
vn 0.3970 -0.9116 -0.1064
vn 0.3530 -0.9308 -0.0946
vn 0.3655 -0.9308 0.0000
vn -0.0000 -0.8667 0.4989
vn 0.1975 -0.6462 0.7372
vn 0.3816 -0.6462 0.6609
vn 0.3652 -0.6831 0.6325
vn 0.1890 -0.6831 0.7055
vn -0.5411 -0.8410 0.0000
vn -0.5227 -0.8410 -0.1400
vn 0.3528 -0.8667 -0.3528
vn 0.3826 -0.8410 0.3826
vn 0.4686 -0.8410 0.2705
vn 0.1801 -0.7183 0.6720
vn 0.3478 -0.7183 0.6025
vn 0.2278 -0.8902 0.3945
vn 0.0946 -0.9308 -0.3530
vn 0.0891 -0.9389 -0.3325
vn -0.1291 -0.8667 0.4819
vn -0.1400 -0.8410 0.5227
vn 0.0000 -0.8410 0.5411
vn 0.5710 -0.7518 -0.3297
vn 0.6369 -0.7518 -0.1707
vn 0.4115 -0.8132 -0.4115
vn 0.3826 -0.8410 -0.3826
vn -0.1801 -0.7183 -0.6720
vn -0.1890 -0.6831 -0.7055
vn -0.1506 -0.8132 -0.5621
vn -0.1608 -0.7835 -0.6002
vn 0.3297 -0.7518 0.5710
vn 0.4919 -0.7183 0.4919
vn 0.4662 -0.7518 0.4662
vn -0.5227 -0.8410 0.1400
vn -0.5621 -0.8132 0.1506
vn 0.0891 -0.9389 0.3325
vn 0.1721 -0.9389 0.2981
vn 0.4819 -0.8667 0.1291
vn 0.5227 -0.8410 0.1400
vn 0.5411 -0.8410 0.0000
vn 0.4989 -0.8667 -0.0000
vn -0.1179 -0.8902 0.4400
vn 0.3530 -0.9308 0.0946
vn 0.3970 -0.9116 0.1064
vn 0.5621 -0.8132 0.1506
vn 0.5820 -0.8132 0.0000
vn 0.7372 -0.6462 -0.1975
vn 0.7228 -0.6228 -0.2994
vn 0.4394 -0.7835 0.4394
vn -0.7757 -0.6228 -0.1021
vn -0.3165 -0.9308 -0.1827
vn -0.3559 -0.9116 -0.2055
vn 0.2994 -0.6228 -0.7228
vn 0.1975 -0.6462 -0.7372
vn 0.3816 -0.6462 -0.6609
vn 0.4763 -0.6228 -0.6207
vn -0.2584 -0.9308 0.2584
vn -0.2906 -0.9116 0.2906
vn -0.3945 -0.8902 -0.2278
vn -0.4321 -0.8667 -0.2495
vn 0.0000 -0.7183 -0.6957
vn 0.0000 -0.7518 -0.6594
vn -0.4686 -0.8410 -0.2705
vn -0.6002 -0.7835 0.1608
vn -0.1707 -0.7518 -0.6369
vn 0.0000 -0.8132 -0.5820
vn 0.0000 -0.8410 -0.5411
vn -0.5397 -0.6462 -0.5397
vn -0.6207 -0.6228 -0.4763
vn 0.4819 -0.8667 -0.1291
vn 0.4400 -0.8902 -0.1179
vn 0.4555 -0.8902 0.0000
vn -0.4686 -0.8410 0.2705
vn 0.0000 -0.9308 -0.3655
vn 0.0000 -0.9389 -0.3442
vn 0.5397 -0.6462 0.5397
vn 0.5164 -0.6831 0.5164
vn 0.4400 -0.8902 0.1179
vn 0.4662 -0.7518 -0.4662
vn 0.4394 -0.7835 -0.4394
vn 0.1064 -0.9116 -0.3970
vn 0.0000 -0.9116 -0.4110
vn 0.1179 -0.8902 -0.4400
vn 0.0000 -0.8902 -0.4555
vn -0.2981 -0.9389 -0.1721
vn 0.0000 -0.7835 -0.6214
vn -0.5040 -0.8132 -0.2910
vn -0.5382 -0.7835 -0.3107
vn 0.4321 -0.8667 -0.2495
vn -0.6207 -0.6228 0.4763
vn 0.0000 -0.8667 -0.4989
vn 0.3559 -0.9116 -0.2055
vn 0.3165 -0.9308 -0.1827
vn -0.3826 -0.8410 -0.3826
vn -0.2705 -0.8410 -0.4686
vn -0.5710 -0.7518 -0.3297
vn 0.1707 -0.7518 0.6369
vn 0.0000 -0.9389 0.3442
vn -0.3528 -0.8667 -0.3528
vn -0.2495 -0.8667 -0.4321
vn 0.4115 -0.8132 0.4115
vn 0.5040 -0.8132 0.2910
vn 0.3325 -0.9389 -0.0891
vn 0.3442 -0.9389 0.0000
vn 0.2434 -0.9389 0.2434
vn 0.2981 -0.9389 0.1721
vn -0.3826 -0.8410 0.3826
vn -0.1608 -0.7835 0.6002
vn -0.1707 -0.7518 0.6369
vn 0.0000 -0.7518 0.6594
vn 0.0000 -0.7835 0.6214
vn 0.3945 -0.8902 -0.2278
vn -0.0000 -0.8132 0.5820
vn -0.1506 -0.8132 0.5621
vn 0.4763 -0.6228 0.6207
vn 0.2981 -0.9389 -0.1721
vn -0.2910 -0.8132 0.5040
vn -0.3107 -0.7835 0.5382
vn -0.2495 -0.8667 0.4321
vn -0.2705 -0.8410 0.4686
vn -0.4763 -0.6228 0.6207
vn -0.3816 -0.6462 0.6609
vn -0.3297 -0.7518 0.5710
vn -0.7228 -0.6228 0.2994
vn -0.3652 -0.6831 0.6325
vn -0.3478 -0.7183 0.6025
vn -0.1801 -0.7183 0.6720
vn -0.2278 -0.8902 0.3945
vn -0.1064 -0.9116 0.3970
vn -0.2994 -0.6228 0.7228
vn -0.0946 -0.9308 0.3530
vn -0.2055 -0.9116 0.3559
vn -0.0891 -0.9389 0.3325
vn -0.1827 -0.9308 0.3165
vn -0.1721 -0.9389 0.2981
vn -0.2434 -0.9389 0.2434
vn 0.0000 -0.7183 0.6957
vn -0.7757 -0.6228 0.1021
vn 0.7372 -0.6462 0.1975
vn 0.7757 -0.6228 0.1021
vn 0.7632 -0.6462 0.0000
vn 0.7757 -0.6228 -0.1021
vn 0.6609 -0.6462 0.3816
vn 0.6325 -0.6831 0.3652
vn 0.0000 -0.6831 -0.7303
vn 0.5710 -0.7518 0.3297
vn 0.5382 -0.7835 0.3107
vn -0.0000 -0.6462 -0.7632
vn 0.1021 -0.6228 -0.7757
vn -0.0946 -0.9308 -0.3530
vn -0.0891 -0.9389 -0.3325
vn -0.1064 -0.9116 -0.3970
vn 0.3325 -0.9389 0.0891
vn -0.1179 -0.8902 -0.4400
vn -0.1400 -0.8410 -0.5227
vn -0.1291 -0.8667 -0.4819
vn 0.6025 -0.7183 0.3478
vn 0.1021 -0.6228 0.7757
vn 0.6207 -0.6228 0.4763
vn 0.2994 -0.6228 0.7228
vn 0.7228 -0.6228 0.2994
vn -0.4763 -0.6228 -0.6207
vn -0.1021 -0.6228 -0.7757
vn 0.5479 0.4848 0.6818
vn 0.5905 0.3651 0.7197
vn 0.7559 0.3958 0.5215
vn 0.7333 0.4592 0.5014
vn 0.7697 0.0299 0.6377
vn 0.6371 -0.1603 0.7539
vn 0.7257 -0.2701 0.6328
vn 0.8329 -0.0485 0.5513
vn 0.8507 0.2184 0.4781
vn 0.8842 0.1769 0.4323
vn 0.0116 0.7859 0.6183
vn 0.0185 0.9049 0.4253
vn -0.6293 -0.1145 0.7687
vn -0.5316 -0.3348 0.7780
vn 0.8686 0.4067 0.2831
vn 0.8739 0.3994 0.2771
vn 0.8687 0.4082 0.2807
vn 0.8721 0.4077 0.2704
vn 0.8709 0.4088 0.2727
vn 0.8762 0.4015 0.2667
vn 0.8749 0.4039 0.2673
vn -0.4803 0.5608 -0.6744
vn -0.5853 0.6546 -0.4786
vn -0.4205 -0.5427 0.7271
vn -0.7825 0.4726 0.4055
vn -0.7752 0.5991 0.2003
vn -0.3654 0.4184 -0.8315
vn 0.1556 0.2339 0.9597
vn 0.0826 0.4386 0.8949
vn -0.7069 0.1032 0.6997
vn -0.7592 0.3034 0.5758
vn 0.3520 -0.1688 0.9207
vn 0.2475 0.0267 0.9685
vn 0.8612 0.4440 -0.2475
vn 0.9149 0.3229 -0.2423
vn 0.8407 0.2507 -0.4801
vn 0.7653 0.4206 -0.4873
vn 0.8742 0.3926 0.2856
vn 0.8756 0.3909 0.2838
vn 0.0335 0.6268 0.7784
vn 0.3260 0.4777 0.8158
vn 0.2857 0.6321 0.7203
vn 0.5191 0.5949 0.6137
vn 0.4612 0.1399 0.8762
vn 0.3858 0.3098 0.8690
vn 0.8704 0.3998 0.2874
vn 0.8695 0.4023 0.2866
vn 0.4038 0.7349 -0.5449
vn 0.2957 0.8688 -0.3971
vn 0.5007 0.8305 -0.2438
vn 0.5894 0.7207 -0.3650
vn 0.7431 0.6309 0.2229
vn 0.8699 0.4093 0.2753
vn 0.7687 0.6196 0.1585
vn 0.8167 0.2712 0.5094
vn 0.7054 0.1296 0.6969
vn 0.4620 -0.3393 0.8194
vn 0.6148 0.7880 0.0338
vn 0.7993 0.5924 0.1015
vn 0.6725 0.7364 -0.0739
vn 0.8728 0.3947 0.2869
vn 0.8691 0.4091 0.2781
vn 0.7243 0.6254 0.2903
vn 0.5665 0.8093 0.1555
vn 0.5308 0.7989 0.2828
vn 0.3520 0.9327 0.0778
vn 0.3021 0.9182 0.2564
vn 0.1144 0.9934 -0.0050
vn 0.0535 0.9756 0.2128
vn -0.7379 0.6744 -0.0258
vn -0.6731 0.6933 -0.2573
vn 0.7134 0.6035 0.3561
vn 0.5103 0.7575 0.4072
vn 0.2733 0.8601 0.4307
vn 0.5063 0.6879 0.5200
vn 0.7113 0.5667 0.4158
vn 0.5469 -0.0204 0.8370
vn 0.5701 -0.4732 0.6717
vn 0.2677 0.7625 0.5889
vn 0.8689 0.4047 0.2851
vn 0.7181 0.5175 0.4654
vn 0.6443 0.2439 0.7249
vn 0.8768 0.3898 0.2815
vn 0.8778 0.3894 0.2789
vn 0.9147 0.1496 0.3753
vn 0.9403 0.1384 0.3109
vn 0.8907 -0.1000 0.4435
vn 0.9390 -0.1213 0.3219
vn 0.8067 -0.3424 0.4817
vn 0.8744 -0.3723 0.3111
vn 0.6687 -0.5613 0.4875
vn 0.7514 -0.5978 0.2795
vn 0.8668 0.4981 0.0244
vn 0.8991 0.4376 0.0096
vn 0.8000 0.5584 -0.2195
vn 0.6796 0.5809 -0.4480
vn 0.5138 0.5644 -0.6461
vn 0.6183 0.3689 -0.6940
vn -0.1372 0.0291 -0.9901
vn -0.2484 0.2370 -0.9392
vn 0.8735 0.4061 0.2686
vn 0.8327 0.5509 0.0558
vn 0.7357 0.6581 -0.1603
vn -0.3035 -0.7240 0.6194
vn -0.1886 -0.8664 0.4623
vn 0.1971 0.9570 -0.2130
vn 0.4198 0.9029 -0.0928
vn 0.8715 0.3972 0.2875
vn 0.0381 -0.4089 -0.9118
vn -0.0395 -0.1912 -0.9808
vn 0.8773 0.3989 0.2668
vn 0.9276 0.3735 0.0123
vn 0.8789 0.3940 0.2691
vn 0.8782 0.3963 0.2676
vn 0.1136 -0.7782 -0.6176
vn 0.0903 -0.6091 -0.7879
vn 0.9653 0.2518 0.0684
vn 0.9501 0.3101 0.0324
vn 0.9863 0.0931 -0.1363
vn 0.9576 0.2032 -0.2044
vn 0.9408 -0.0716 -0.3314
vn 0.9005 0.0828 -0.4269
vn 0.8791 0.3920 0.2711
vn 0.8323 -0.2312 -0.5039
vn 0.7832 -0.0429 -0.6203
vn 0.9991 0.0000 -0.0426
vn 0.9587 -0.2021 -0.2000
vn 0.8542 -0.3902 -0.3437
vn 0.8473 -0.5092 -0.1508
vn 0.8790 0.3905 0.2735
vn 0.9700 0.1658 0.1778
vn 0.9721 0.2026 0.1180
vn 0.9951 -0.0695 0.0702
vn 0.9531 -0.2996 -0.0418
vn -0.0836 -0.9602 0.2665
vn 0.7102 0.1618 -0.6852
vn 0.1063 -0.9048 -0.4124
vn 0.8123 -0.5800 0.0618
vn 0.0043 -0.9990 0.0452
vn 0.0691 -0.9801 -0.1863
vn 0.8786 0.3896 0.2762
vn 0.9592 0.1439 0.2436
vn 0.9746 -0.1109 0.1946
vn 0.9244 -0.3577 0.1326
vn 0.7843 0.3317 0.5242
# 698 vertex normals

vt 0.0000 0.0000 0.0000
# 1 texture coords

o Silla_Stand1
g Silla_Stand1
usemtl Material__57
s off
f 1/1/1 2/1/2 3/1/3 4/1/4 
f 5/1/5 1/1/1 4/1/4 6/1/6 
f 7/1/7 8/1/8 9/1/9 10/1/10 
f 11/1/11 12/1/12 7/1/7 13/1/13 
f 11/1/11 13/1/13 14/1/14 
f 15/1/15 16/1/16 17/1/16 18/1/15 
f 19/1/17 20/1/18 16/1/19 15/1/20 
f 21/1/21 22/1/22 20/1/18 2/1/2 
f 23/1/23 21/1/21 2/1/2 1/1/1 
f 24/1/24 23/1/23 1/1/1 5/1/5 
f 24/1/24 5/1/5 25/1/25 26/1/26 
f 26/1/26 25/1/25 8/1/8 27/1/27 
f 12/1/12 27/1/27 8/1/8 7/1/7 
f 22/1/22 28/1/28 29/1/29 30/1/30 
f 31/1/31 32/1/32 28/1/28 33/1/33 
f 25/1/25 5/1/5 6/1/6 34/1/34 
f 17/1/16 16/1/16 30/1/35 35/1/35 
f 20/1/18 22/1/22 30/1/30 16/1/19 
f 33/1/33 28/1/28 22/1/22 21/1/21 
f 36/1/36 33/1/33 21/1/21 23/1/23 
f 2/1/2 20/1/18 19/1/17 3/1/3 
f 8/1/8 25/1/25 34/1/34 9/1/9 
f 37/1/37 38/1/38 39/1/38 40/1/37 
f 40/1/39 39/1/40 41/1/41 42/1/42 
f 43/1/43 42/1/42 44/1/44 45/1/45 
f 45/1/45 44/1/44 46/1/46 47/1/47 
f 47/1/47 46/1/46 48/1/48 49/1/49 
f 48/1/48 50/1/50 51/1/51 49/1/49 
f 50/1/50 52/1/52 53/1/53 51/1/51 
f 52/1/52 54/1/54 55/1/55 53/1/53 
f 54/1/54 56/1/56 57/1/57 55/1/55 
f 14/1/14 57/1/57 56/1/56 
f 13/1/13 7/1/7 10/1/10 58/1/58 
f 59/1/59 60/1/60 61/1/61 62/1/62 
f 62/1/62 61/1/61 63/1/63 64/1/64 
f 63/1/63 65/1/65 66/1/66 64/1/64 
f 65/1/65 67/1/67 68/1/68 66/1/66 
f 67/1/67 69/1/69 70/1/70 68/1/68 
f 69/1/69 71/1/71 72/1/72 70/1/70 
f 71/1/71 73/1/73 74/1/74 72/1/72 
f 73/1/73 14/1/14 74/1/74 
f 75/1/75 76/1/76 77/1/76 78/1/75 
f 78/1/77 77/1/78 60/1/60 59/1/59 
f 79/1/79 59/1/59 62/1/62 80/1/80 
f 80/1/80 62/1/62 64/1/64 81/1/81 
f 64/1/64 66/1/66 82/1/82 81/1/81 
f 66/1/66 68/1/68 83/1/83 82/1/82 
f 68/1/68 70/1/70 84/1/84 83/1/83 
f 70/1/70 72/1/72 85/1/85 84/1/84 
f 72/1/72 74/1/74 86/1/86 85/1/85 
f 14/1/14 86/1/86 74/1/74 
f 87/1/87 75/1/75 78/1/75 88/1/87 
f 88/1/88 78/1/77 59/1/59 79/1/79 
f 89/1/89 79/1/79 80/1/80 90/1/90 
f 90/1/90 80/1/80 81/1/81 91/1/91 
f 81/1/81 82/1/82 92/1/92 91/1/91 
f 82/1/82 83/1/83 93/1/93 92/1/92 
f 83/1/83 84/1/84 94/1/94 93/1/93 
f 84/1/84 85/1/85 95/1/95 94/1/94 
f 85/1/85 86/1/86 96/1/96 95/1/95 
f 14/1/14 96/1/96 86/1/86 
f 97/1/97 87/1/87 88/1/87 98/1/97 
f 98/1/98 88/1/88 79/1/79 89/1/89 
f 41/1/41 89/1/89 90/1/90 99/1/99 
f 99/1/99 90/1/90 91/1/91 100/1/100 
f 91/1/91 92/1/92 101/1/101 100/1/100 
f 92/1/92 93/1/93 102/1/102 101/1/101 
f 93/1/93 94/1/94 103/1/103 102/1/102 
f 94/1/94 95/1/95 104/1/104 103/1/103 
f 95/1/95 96/1/96 105/1/105 104/1/104 
f 14/1/14 105/1/105 96/1/96 
f 38/1/38 97/1/97 98/1/97 39/1/38 
f 39/1/40 98/1/98 89/1/89 41/1/41 
f 42/1/42 41/1/41 99/1/99 44/1/44 
f 44/1/44 99/1/99 100/1/100 46/1/46 
f 100/1/100 101/1/101 48/1/48 46/1/46 
f 101/1/101 102/1/102 50/1/50 48/1/48 
f 102/1/102 103/1/103 52/1/52 50/1/50 
f 103/1/103 104/1/104 54/1/54 52/1/52 
f 106/1/106 107/1/107 108/1/107 109/1/106 
f 110/1/108 107/1/109 106/1/110 32/1/32 
f 111/1/111 112/1/112 110/1/108 113/1/113 
f 114/1/114 111/1/111 113/1/113 115/1/115 
f 116/1/116 114/1/114 115/1/115 117/1/117 
f 118/1/118 116/1/116 117/1/117 119/1/119 
f 120/1/120 118/1/118 119/1/119 121/1/121 
f 120/1/120 121/1/121 122/1/122 123/1/123 
f 123/1/123 122/1/122 124/1/124 125/1/125 
f 124/1/124 14/1/14 125/1/125 
f 107/1/107 126/1/126 127/1/126 108/1/107 
f 112/1/112 126/1/127 107/1/109 110/1/108 
f 128/1/128 129/1/129 112/1/112 111/1/111 
f 130/1/130 128/1/128 111/1/111 114/1/114 
f 131/1/131 130/1/130 114/1/114 116/1/116 
f 132/1/132 131/1/131 116/1/116 118/1/118 
f 133/1/133 132/1/132 118/1/118 120/1/120 
f 133/1/133 120/1/120 123/1/123 134/1/134 
f 134/1/134 123/1/123 125/1/125 135/1/135 
f 125/1/125 14/1/14 135/1/135 
f 127/1/126 126/1/126 136/1/136 137/1/136 
f 129/1/129 136/1/137 126/1/127 112/1/112 
f 138/1/138 129/1/129 128/1/128 139/1/139 
f 140/1/140 139/1/139 128/1/128 130/1/130 
f 141/1/141 140/1/140 130/1/130 131/1/131 
f 142/1/142 141/1/141 131/1/131 132/1/132 
f 142/1/142 132/1/132 133/1/133 143/1/143 
f 143/1/143 133/1/133 134/1/134 144/1/144 
f 144/1/144 134/1/134 135/1/135 145/1/145 
f 135/1/135 14/1/14 145/1/145 
f 137/1/136 136/1/136 146/1/146 147/1/146 
f 146/1/147 136/1/137 129/1/129 138/1/138 
f 148/1/148 138/1/138 139/1/139 149/1/149 
f 149/1/149 139/1/139 140/1/140 150/1/150 
f 150/1/150 140/1/140 141/1/141 151/1/151 
f 151/1/151 141/1/141 142/1/142 152/1/152 
f 152/1/152 142/1/142 143/1/143 153/1/153 
f 153/1/153 143/1/143 144/1/144 154/1/154 
f 154/1/154 144/1/144 145/1/145 155/1/155 
f 145/1/145 14/1/14 155/1/155 
f 147/1/146 146/1/146 156/1/156 157/1/156 
f 156/1/157 146/1/147 138/1/138 148/1/148 
f 60/1/60 148/1/148 149/1/149 61/1/61 
f 61/1/61 149/1/149 150/1/150 63/1/63 
f 63/1/63 150/1/150 151/1/151 65/1/65 
f 151/1/151 152/1/152 67/1/67 65/1/65 
f 152/1/152 153/1/153 69/1/69 67/1/67 
f 69/1/69 153/1/153 154/1/154 71/1/71 
f 71/1/71 154/1/154 155/1/155 73/1/73 
f 155/1/155 14/1/14 73/1/73 
f 106/1/106 109/1/106 158/1/158 29/1/158 
f 159/1/159 160/1/160 161/1/161 162/1/162 
f 32/1/32 106/1/110 29/1/29 28/1/28 
f 113/1/113 110/1/108 32/1/32 31/1/31 
f 115/1/115 113/1/113 31/1/31 163/1/163 
f 159/1/159 162/1/162 14/1/14 
f 117/1/117 115/1/115 163/1/163 164/1/164 
f 119/1/119 117/1/117 164/1/164 165/1/165 
f 121/1/121 119/1/119 165/1/165 166/1/166 
f 122/1/122 121/1/121 166/1/166 160/1/160 
f 124/1/124 122/1/122 160/1/160 159/1/159 
f 124/1/124 159/1/159 14/1/14 
f 29/1/158 158/1/158 35/1/35 30/1/35 
f 13/1/13 58/1/58 14/1/14 
f 167/1/167 36/1/36 23/1/23 24/1/24 
f 168/1/168 167/1/167 24/1/24 26/1/26 
f 27/1/27 169/1/169 168/1/168 26/1/26 
f 161/1/161 169/1/169 27/1/27 12/1/12 
f 162/1/162 161/1/161 12/1/12 11/1/11 
f 162/1/162 11/1/11 14/1/14 
f 163/1/163 31/1/31 33/1/33 36/1/36 
f 164/1/164 163/1/163 36/1/36 167/1/167 
f 165/1/165 164/1/164 167/1/167 168/1/168 
f 166/1/166 165/1/165 168/1/168 169/1/169 
f 160/1/160 166/1/166 169/1/169 161/1/161 
f 157/1/156 156/1/156 77/1/76 76/1/76 
f 77/1/78 156/1/157 148/1/148 60/1/60 
f 104/1/104 105/1/105 56/1/56 54/1/54 
f 14/1/14 56/1/56 105/1/105 
f 170/1/170 37/1/37 40/1/37 171/1/170 
f 171/1/171 40/1/39 42/1/42 43/1/43 
f 172/1/172 43/1/43 45/1/45 173/1/173 
f 173/1/173 45/1/45 47/1/47 174/1/174 
f 174/1/174 47/1/47 49/1/49 175/1/175 
f 49/1/49 51/1/51 176/1/176 175/1/175 
f 51/1/51 53/1/53 177/1/177 176/1/176 
f 53/1/53 55/1/55 178/1/178 177/1/177 
f 55/1/55 57/1/57 179/1/179 178/1/178 
f 14/1/14 179/1/179 57/1/57 
f 180/1/180 170/1/170 171/1/170 181/1/180 
f 181/1/181 171/1/171 43/1/43 172/1/172 
f 182/1/182 172/1/172 173/1/173 183/1/183 
f 183/1/183 173/1/173 174/1/174 184/1/184 
f 184/1/184 174/1/174 175/1/175 185/1/185 
f 176/1/176 186/1/186 185/1/185 175/1/175 
f 177/1/177 187/1/187 186/1/186 176/1/176 
f 178/1/178 188/1/188 187/1/187 177/1/177 
f 179/1/179 189/1/189 188/1/188 178/1/178 
f 14/1/14 189/1/189 179/1/179 
f 190/1/190 191/1/190 180/1/180 181/1/180 
f 190/1/191 181/1/181 172/1/172 182/1/182 
f 192/1/192 182/1/182 183/1/183 193/1/193 
f 193/1/193 183/1/183 184/1/184 194/1/194 
f 194/1/194 184/1/184 185/1/185 195/1/195 
f 196/1/196 195/1/195 185/1/185 186/1/186 
f 187/1/187 197/1/197 196/1/196 186/1/186 
f 188/1/188 198/1/198 197/1/197 187/1/187 
f 189/1/189 199/1/199 198/1/198 188/1/188 
f 14/1/14 199/1/199 189/1/189 
f 200/1/200 201/1/200 191/1/190 190/1/190 
f 200/1/201 190/1/191 182/1/182 192/1/192 
f 202/1/202 192/1/192 193/1/193 203/1/203 
f 204/1/204 203/1/203 193/1/193 194/1/194 
f 205/1/205 204/1/204 194/1/194 195/1/195 
f 206/1/206 205/1/205 195/1/195 196/1/196 
f 207/1/207 206/1/206 196/1/196 197/1/197 
f 198/1/198 208/1/208 207/1/207 197/1/197 
f 199/1/199 209/1/209 208/1/208 198/1/198 
f 14/1/14 209/1/209 199/1/199 
f 210/1/210 211/1/210 201/1/200 200/1/200 
f 210/1/211 200/1/201 192/1/192 202/1/202 
f 212/1/212 213/1/213 202/1/202 203/1/203 
f 214/1/214 212/1/212 203/1/203 204/1/204 
f 215/1/215 214/1/214 204/1/204 205/1/205 
f 216/1/216 215/1/215 205/1/205 206/1/206 
f 217/1/217 216/1/216 206/1/206 207/1/207 
f 208/1/208 218/1/218 217/1/217 207/1/207 
f 209/1/209 219/1/219 218/1/218 208/1/208 
f 14/1/14 219/1/219 209/1/209 
f 210/1/210 220/1/220 221/1/220 211/1/210 
f 213/1/213 220/1/221 210/1/211 202/1/202 
f 222/1/222 223/1/223 213/1/213 212/1/212 
f 224/1/224 222/1/222 212/1/212 214/1/214 
f 225/1/225 224/1/224 214/1/214 215/1/215 
f 226/1/226 225/1/225 215/1/215 216/1/216 
f 227/1/227 226/1/226 216/1/216 217/1/217 
f 228/1/228 227/1/227 217/1/217 218/1/218 
f 219/1/219 229/1/229 228/1/228 218/1/218 
f 14/1/14 229/1/229 219/1/219 
f 220/1/220 230/1/230 231/1/230 221/1/220 
f 223/1/223 230/1/231 220/1/221 213/1/213 
f 232/1/232 233/1/233 223/1/223 222/1/222 
f 234/1/234 232/1/232 222/1/222 224/1/224 
f 235/1/235 234/1/234 224/1/224 225/1/225 
f 236/1/236 235/1/235 225/1/225 226/1/226 
f 237/1/237 236/1/236 226/1/226 227/1/227 
f 238/1/238 237/1/237 227/1/227 228/1/228 
f 229/1/229 239/1/239 238/1/238 228/1/228 
f 239/1/239 229/1/229 14/1/14 
f 230/1/230 240/1/240 241/1/240 231/1/230 
f 223/1/223 233/1/233 240/1/241 230/1/231 
f 3/1/3 19/1/17 233/1/233 232/1/232 
f 4/1/4 3/1/3 232/1/232 234/1/234 
f 6/1/6 4/1/4 234/1/234 235/1/235 
f 34/1/34 6/1/6 235/1/235 236/1/236 
f 9/1/9 34/1/34 236/1/236 237/1/237 
f 10/1/10 9/1/9 237/1/237 238/1/238 
f 58/1/58 10/1/10 238/1/238 239/1/239 
f 58/1/58 239/1/239 14/1/14 
f 240/1/240 15/1/15 18/1/15 241/1/240 
f 233/1/233 19/1/17 15/1/20 240/1/241 
f 242/1/242 243/1/243 244/1/244 245/1/245 
f 246/1/246 247/1/247 248/1/248 
f 249/1/249 250/1/250 251/1/251 252/1/252 
f 253/1/253 254/1/254 255/1/255 256/1/256 
f 257/1/257 258/1/258 259/1/259 260/1/260 
f 261/1/261 262/1/262 263/1/263 264/1/264 
f 265/1/265 266/1/266 267/1/267 268/1/268 
f 269/1/269 270/1/270 271/1/271 272/1/272 
f 273/1/273 274/1/274 275/1/275 276/1/276 
f 277/1/277 278/1/278 279/1/279 280/1/280 
f 281/1/281 282/1/282 283/1/283 284/1/284 
f 285/1/285 286/1/286 287/1/287 288/1/288 
f 246/1/289 289/1/290 290/1/291 
f 291/1/292 292/1/293 293/1/294 294/1/295 
f 295/1/296 296/1/297 297/1/298 298/1/299 
f 299/1/300 300/1/301 296/1/297 295/1/296 
f 301/1/302 257/1/257 260/1/260 302/1/303 
f 258/1/258 303/1/304 304/1/305 259/1/259 
f 305/1/306 306/1/307 261/1/261 264/1/264 
f 307/1/308 308/1/309 309/1/310 310/1/311 
f 311/1/312 312/1/313 300/1/301 299/1/300 
f 252/1/252 251/1/251 313/1/314 314/1/315 
f 315/1/316 316/1/317 243/1/243 242/1/242 
f 308/1/309 281/1/281 284/1/284 309/1/310 
f 317/1/318 318/1/319 319/1/320 320/1/321 
f 246/1/322 321/1/323 322/1/324 
f 266/1/266 323/1/325 324/1/326 267/1/267 
f 325/1/327 326/1/328 327/1/329 328/1/330 
f 322/1/324 321/1/323 323/1/325 266/1/266 
f 329/1/331 330/1/332 331/1/333 332/1/334 
f 333/1/335 334/1/336 335/1/337 336/1/338 
f 337/1/339 269/1/269 272/1/272 338/1/340 
f 339/1/341 340/1/342 341/1/343 342/1/344 
f 270/1/270 343/1/345 344/1/346 271/1/271 
f 345/1/347 285/1/285 288/1/288 346/1/348 
f 246/1/349 306/1/307 305/1/306 
f 347/1/350 348/1/351 349/1/352 350/1/353 
f 320/1/321 319/1/320 351/1/354 352/1/355 
f 314/1/315 313/1/314 340/1/342 339/1/341 
f 290/1/291 289/1/290 353/1/356 354/1/357 
f 355/1/358 356/1/359 357/1/360 358/1/361 
f 359/1/362 355/1/358 358/1/361 360/1/363 
f 361/1/364 362/1/365 326/1/328 325/1/327 
f 362/1/365 363/1/366 364/1/367 326/1/328 
f 365/1/368 366/1/369 367/1/370 368/1/371 
f 369/1/372 370/1/373 371/1/374 372/1/375 
f 373/1/376 374/1/377 375/1/378 376/1/379 
f 377/1/380 378/1/381 379/1/382 380/1/383 
f 274/1/274 359/1/362 360/1/363 275/1/275 
f 334/1/336 381/1/384 382/1/385 335/1/337 
f 383/1/386 384/1/387 385/1/388 386/1/389 
f 278/1/278 377/1/380 380/1/383 387/1/390 
f 388/1/391 389/1/392 390/1/393 391/1/394 
f 363/1/366 392/1/395 337/1/339 364/1/367 
f 393/1/396 394/1/397 395/1/398 396/1/399 
f 397/1/400 369/1/372 372/1/375 398/1/401 
f 370/1/373 345/1/347 346/1/348 371/1/374 
f 399/1/402 342/1/344 366/1/369 365/1/368 
f 384/1/387 400/1/403 401/1/404 385/1/388 
f 348/1/351 280/1/280 279/1/279 349/1/352 
f 318/1/319 286/1/286 285/1/285 319/1/320 
f 402/1/405 396/1/399 395/1/398 403/1/406 
f 326/1/328 364/1/367 404/1/407 327/1/329 
f 254/1/254 405/1/408 406/1/409 255/1/255 
f 381/1/384 370/1/373 369/1/372 382/1/385 
f 294/1/295 293/1/294 250/1/250 249/1/249 
f 392/1/395 407/1/410 408/1/411 409/1/412 
f 268/1/268 267/1/267 410/1/413 411/1/414 
f 412/1/415 314/1/315 339/1/341 413/1/416 
f 276/1/276 275/1/275 414/1/417 415/1/418 
f 358/1/361 357/1/360 416/1/419 417/1/420 
f 418/1/421 403/1/406 419/1/422 420/1/423 
f 382/1/385 369/1/372 397/1/400 421/1/424 
f 330/1/332 383/1/386 386/1/389 331/1/333 
f 421/1/424 397/1/400 378/1/381 422/1/425 
f 423/1/426 325/1/327 328/1/330 424/1/427 
f 425/1/428 426/1/429 427/1/430 428/1/431 
f 429/1/432 407/1/410 392/1/395 363/1/366 
f 430/1/433 431/1/434 388/1/391 391/1/394 
f 426/1/429 432/1/435 433/1/436 427/1/430 
f 265/1/265 434/1/437 322/1/324 266/1/266 
f 246/1/438 322/1/324 434/1/437 
f 344/1/346 418/1/421 420/1/423 435/1/439 
f 350/1/353 306/1/307 246/1/440 
f 346/1/348 288/1/288 436/1/441 437/1/442 
f 246/1/443 438/1/444 439/1/445 
f 264/1/264 263/1/263 274/1/274 273/1/273 
f 323/1/325 291/1/292 294/1/295 324/1/326 
f 246/1/446 439/1/445 321/1/323 
f 440/1/447 320/1/321 352/1/355 441/1/448 
f 371/1/374 346/1/348 437/1/442 442/1/449 
f 372/1/375 371/1/374 442/1/449 443/1/450 
f 293/1/294 444/1/451 445/1/452 250/1/250 
f 398/1/401 372/1/375 443/1/450 446/1/453 
f 321/1/323 439/1/445 291/1/292 323/1/325 
f 422/1/425 378/1/381 377/1/380 447/1/454 
f 360/1/363 358/1/361 417/1/420 448/1/455 
f 313/1/314 449/1/456 450/1/457 340/1/342 
f 305/1/306 451/1/458 246/1/459 
f 428/1/431 452/1/460 453/1/461 454/1/462 
f 335/1/337 382/1/385 421/1/424 455/1/463 
f 405/1/408 456/1/464 457/1/465 406/1/409 
f 395/1/398 394/1/397 458/1/466 459/1/467 
f 413/1/416 339/1/341 342/1/344 399/1/402 
f 431/1/434 460/1/468 454/1/462 388/1/391 
f 461/1/469 249/1/249 252/1/252 462/1/470 
f 319/1/320 285/1/285 345/1/347 351/1/354 
f 463/1/471 464/1/472 456/1/464 405/1/408 
f 465/1/473 466/1/474 464/1/472 463/1/471 
f 288/1/288 287/1/287 467/1/475 436/1/441 
f 250/1/250 445/1/452 468/1/476 251/1/251 
f 380/1/383 379/1/382 469/1/477 470/1/478 
f 244/1/244 413/1/416 399/1/402 471/1/479 
f 375/1/378 246/1/480 376/1/379 
f 341/1/343 472/1/481 466/1/474 465/1/473 
f 379/1/382 398/1/401 446/1/453 469/1/477 
f 261/1/261 349/1/352 279/1/279 262/1/262 
f 389/1/392 473/1/482 474/1/483 390/1/393 
f 340/1/342 450/1/457 472/1/481 341/1/343 
f 356/1/359 475/1/484 476/1/485 357/1/360 
f 351/1/354 345/1/347 370/1/373 381/1/384 
f 460/1/468 425/1/428 428/1/431 454/1/462 
f 324/1/326 294/1/295 249/1/249 461/1/469 
f 263/1/263 477/1/486 359/1/362 274/1/274 
f 306/1/307 350/1/353 349/1/352 261/1/261 
f 478/1/487 402/1/405 403/1/406 418/1/421 
f 262/1/262 387/1/390 477/1/486 263/1/263 
f 479/1/488 361/1/364 325/1/327 423/1/426 
f 475/1/484 480/1/489 481/1/490 476/1/485 
f 352/1/355 351/1/354 381/1/384 334/1/336 
f 400/1/403 482/1/491 483/1/492 401/1/404 
f 391/1/394 390/1/393 484/1/493 485/1/494 
f 343/1/345 478/1/487 418/1/421 344/1/346 
f 486/1/495 329/1/331 332/1/334 487/1/496 
f 336/1/338 335/1/337 455/1/463 488/1/497 
f 267/1/267 324/1/326 461/1/469 410/1/413 
f 245/1/245 244/1/244 471/1/479 452/1/460 
f 432/1/435 307/1/308 310/1/311 433/1/436 
f 367/1/370 463/1/471 405/1/408 254/1/254 
f 316/1/317 462/1/470 412/1/415 243/1/243 
f 489/1/498 490/1/499 491/1/500 492/1/501 
f 452/1/460 471/1/479 493/1/502 453/1/461 
f 480/1/489 301/1/302 302/1/303 481/1/490 
f 441/1/448 352/1/355 334/1/336 333/1/335 
f 453/1/461 493/1/502 473/1/482 389/1/392 
f 447/1/454 377/1/380 278/1/278 277/1/277 
f 494/1/503 495/1/504 489/1/498 492/1/501 
f 342/1/344 341/1/343 465/1/473 366/1/369 
f 246/1/505 458/1/466 394/1/397 
f 296/1/297 277/1/277 280/1/280 297/1/298 
f 474/1/483 253/1/253 256/1/256 496/1/506 
f 471/1/479 399/1/402 365/1/368 493/1/502 
f 497/1/507 311/1/312 299/1/300 498/1/508 
f 407/1/410 499/1/509 500/1/510 408/1/411 
f 376/1/379 246/1/511 501/1/512 
f 489/1/498 498/1/508 502/1/513 490/1/499 
f 300/1/301 447/1/454 277/1/277 296/1/297 
f 473/1/482 368/1/371 253/1/253 474/1/483 
f 312/1/313 422/1/425 447/1/454 300/1/301 
f 408/1/411 500/1/510 497/1/507 495/1/504 
f 375/1/378 347/1/350 246/1/514 
f 495/1/504 497/1/507 498/1/508 489/1/498 
f 503/1/515 373/1/376 376/1/379 501/1/512 
f 504/1/516 298/1/299 373/1/376 503/1/515 
f 490/1/499 502/1/513 504/1/516 505/1/517 
f 429/1/432 506/1/518 499/1/509 407/1/410 
f 498/1/508 299/1/300 295/1/296 502/1/513 
f 501/1/512 290/1/291 354/1/357 503/1/515 
f 507/1/519 429/1/432 363/1/366 362/1/365 
f 246/1/520 290/1/291 501/1/512 
f 499/1/509 336/1/338 488/1/497 500/1/510 
f 505/1/517 504/1/516 503/1/515 354/1/357 
f 506/1/518 333/1/335 336/1/338 499/1/509 
f 361/1/364 508/1/521 507/1/519 362/1/365 
f 509/1/522 441/1/448 333/1/335 506/1/518 
f 510/1/523 508/1/521 361/1/364 479/1/488 
f 507/1/519 509/1/522 506/1/518 429/1/432 
f 511/1/524 440/1/447 441/1/448 509/1/522 
f 500/1/510 488/1/497 311/1/312 497/1/507 
f 512/1/525 513/1/526 440/1/447 511/1/524 
f 508/1/521 511/1/524 509/1/522 507/1/519 
f 513/1/526 317/1/318 320/1/321 440/1/447 
f 502/1/513 295/1/296 298/1/299 504/1/516 
f 490/1/499 505/1/517 514/1/527 491/1/500 
f 378/1/381 397/1/400 398/1/401 379/1/382 
f 298/1/299 297/1/298 374/1/377 373/1/376 
f 364/1/367 337/1/339 338/1/340 404/1/407 
f 347/1/350 350/1/353 246/1/528 
f 410/1/413 461/1/469 462/1/470 316/1/317 
f 411/1/414 410/1/413 316/1/317 315/1/316 
f 439/1/445 438/1/444 292/1/293 291/1/292 
f 515/1/529 246/1/530 516/1/531 
f 368/1/371 367/1/370 254/1/254 253/1/253 
f 248/1/248 247/1/247 276/1/276 415/1/418 
f 424/1/427 328/1/330 329/1/331 486/1/495 
f 246/1/532 434/1/437 516/1/531 
f 459/1/467 458/1/466 517/1/533 518/1/534 
f 292/1/293 519/1/535 444/1/451 293/1/294 
f 328/1/330 327/1/329 330/1/332 329/1/331 
f 435/1/439 420/1/423 520/1/536 521/1/537 
f 493/1/502 365/1/368 368/1/371 473/1/482 
f 401/1/404 483/1/492 432/1/435 426/1/429 
f 327/1/329 404/1/407 383/1/386 330/1/332 
f 438/1/444 522/1/538 519/1/535 292/1/293 
f 246/1/539 522/1/538 438/1/444 
f 353/1/356 396/1/399 402/1/405 514/1/527 
f 284/1/284 268/1/268 411/1/414 309/1/310 
f 523/1/540 524/1/541 457/1/465 456/1/464 
f 404/1/407 338/1/340 384/1/387 383/1/386 
f 464/1/472 525/1/542 523/1/540 456/1/464 
f 283/1/283 516/1/531 434/1/437 265/1/265 
f 487/1/496 332/1/334 430/1/433 526/1/543 
f 427/1/430 245/1/245 452/1/460 428/1/431 
f 289/1/290 393/1/396 396/1/399 353/1/356 
f 466/1/474 527/1/544 525/1/542 464/1/472 
f 482/1/491 435/1/439 521/1/537 483/1/492 
f 468/1/476 417/1/420 416/1/419 449/1/456 
f 375/1/378 374/1/377 348/1/351 347/1/350 
f 528/1/545 529/1/546 472/1/481 450/1/457 
f 529/1/546 527/1/544 466/1/474 472/1/481 
f 420/1/423 419/1/422 530/1/547 520/1/536 
f 491/1/500 514/1/527 402/1/405 478/1/487 
f 433/1/436 242/1/242 245/1/245 427/1/430 
f 246/1/548 393/1/396 289/1/290 
f 332/1/334 331/1/333 431/1/434 430/1/433 
f 246/1/549 517/1/533 458/1/466 
f 310/1/311 315/1/316 242/1/242 433/1/436 
f 409/1/412 494/1/503 270/1/270 269/1/269 
f 416/1/419 528/1/545 450/1/457 449/1/456 
f 309/1/310 411/1/414 315/1/316 310/1/311 
f 284/1/284 283/1/283 265/1/265 268/1/268 
f 331/1/333 386/1/389 460/1/468 431/1/434 
f 448/1/455 417/1/420 468/1/476 445/1/452 
f 305/1/306 264/1/264 273/1/273 451/1/458 
f 492/1/501 491/1/500 478/1/487 343/1/345 
f 338/1/340 272/1/272 400/1/403 384/1/387 
f 386/1/389 385/1/388 425/1/428 460/1/468 
f 251/1/251 468/1/476 449/1/456 313/1/314 
f 446/1/453 443/1/450 480/1/489 475/1/484 
f 477/1/486 470/1/478 355/1/358 359/1/362 
f 483/1/492 521/1/537 307/1/308 432/1/435 
f 414/1/417 448/1/455 445/1/452 444/1/451 
f 519/1/535 415/1/418 414/1/417 444/1/451 
f 246/1/550 394/1/397 393/1/396 
f 526/1/543 430/1/433 391/1/394 485/1/494 
f 297/1/298 280/1/280 348/1/351 374/1/377 
f 522/1/538 248/1/248 415/1/418 519/1/535 
f 272/1/272 271/1/271 482/1/491 400/1/403 
f 517/1/533 246/1/551 515/1/529 
f 451/1/458 247/1/247 246/1/552 
f 437/1/442 436/1/441 258/1/258 257/1/257 
f 357/1/360 476/1/485 528/1/545 416/1/419 
f 259/1/259 304/1/305 524/1/541 523/1/540 
f 282/1/282 518/1/534 517/1/533 515/1/529 
f 442/1/449 437/1/442 257/1/257 301/1/302 
f 521/1/537 520/1/536 308/1/309 307/1/308 
f 494/1/503 492/1/501 343/1/345 270/1/270 
f 451/1/458 273/1/273 276/1/276 247/1/247 
f 271/1/271 344/1/346 435/1/439 482/1/491 
f 390/1/393 474/1/483 496/1/506 484/1/493 
f 530/1/547 518/1/534 282/1/282 281/1/281 
f 260/1/260 259/1/259 523/1/540 525/1/542 
f 476/1/485 481/1/490 529/1/546 528/1/545 
f 510/1/523 512/1/525 511/1/524 508/1/521 
f 443/1/450 442/1/449 301/1/302 480/1/489 
f 436/1/441 467/1/475 303/1/304 258/1/258 
f 246/1/553 248/1/248 522/1/538 
f 302/1/303 260/1/260 525/1/542 527/1/544 
f 520/1/536 530/1/547 281/1/281 308/1/309 
f 462/1/470 252/1/252 314/1/315 412/1/415 
f 481/1/490 302/1/303 527/1/544 529/1/546 
f 470/1/478 469/1/477 356/1/359 355/1/358 
f 469/1/477 446/1/453 475/1/484 356/1/359 
f 282/1/282 515/1/529 516/1/531 283/1/283 
f 366/1/369 465/1/473 463/1/471 367/1/370 
f 243/1/243 412/1/415 413/1/416 244/1/244 
f 403/1/406 395/1/398 459/1/467 419/1/422 
f 454/1/462 453/1/461 389/1/392 388/1/391 
f 279/1/279 278/1/278 387/1/390 262/1/262 
f 385/1/388 401/1/404 426/1/429 425/1/428 
f 455/1/463 421/1/424 422/1/425 312/1/313 
f 419/1/422 459/1/467 518/1/534 530/1/547 
f 392/1/395 409/1/412 269/1/269 337/1/339 
f 408/1/411 495/1/504 494/1/503 409/1/412 
f 488/1/497 455/1/463 312/1/313 311/1/312 
f 354/1/357 353/1/356 514/1/527 505/1/517 
f 275/1/275 360/1/363 448/1/455 414/1/417 
f 387/1/390 380/1/383 470/1/478 477/1/486 
f 531/1/554 532/1/555 533/1/556 534/1/557 
f 535/1/80 536/1/90 537/1/89 538/1/79 
f 539/1/193 540/1/203 541/1/202 542/1/192 
f 543/1/99 544/1/44 545/1/42 546/1/41 
f 547/1/558 548/1/559 549/1/560 550/1/561 
f 551/1/562 547/1/558 550/1/561 552/1/563 
f 538/1/79 537/1/89 553/1/564 554/1/565 
f 555/1/566 556/1/567 557/1/174 558/1/47 
f 559/1/568 560/1/569 561/1/570 
f 562/1/45 563/1/173 564/1/172 565/1/43 
f 566/1/184 567/1/194 539/1/193 568/1/183 
f 560/1/569 569/1/571 570/1/572 
f 571/1/46 558/1/47 562/1/45 544/1/44 
f 560/1/569 572/1/573 573/1/574 
f 211/1/210 221/1/220 574/1/220 575/1/210 
f 576/1/149 577/1/61 578/1/60 579/1/148 
f 575/1/575 574/1/576 580/1/150 581/1/140 
f 556/1/567 582/1/577 566/1/184 557/1/174 
f 583/1/578 584/1/91 585/1/81 586/1/579 
f 587/1/130 588/1/580 575/1/575 581/1/140 
f 563/1/173 568/1/183 589/1/182 564/1/172 
f 545/1/42 565/1/43 590/1/581 591/1/582 
f 592/1/583 571/1/46 593/1/100 594/1/584 
f 564/1/172 589/1/182 595/1/585 596/1/586 
f 597/1/587 598/1/588 599/1/589 600/1/590 
f 568/1/183 539/1/193 542/1/192 589/1/182 
f 601/1/128 587/1/130 581/1/140 602/1/139 
f 603/1/591 604/1/592 560/1/569 
f 109/1/106 555/1/106 592/1/158 158/1/158 
f 605/1/593 591/1/582 606/1/594 607/1/595 
f 606/1/594 531/1/554 608/1/596 607/1/595 
f 590/1/581 596/1/586 609/1/597 610/1/598 
f 611/1/599 560/1/569 612/1/600 
f 582/1/126 127/1/126 137/1/136 613/1/136 
f 603/1/591 551/1/562 552/1/563 604/1/592 
f 546/1/41 545/1/42 591/1/582 605/1/593 
f 614/1/601 615/1/602 616/1/603 617/1/604 
f 618/1/605 619/1/606 570/1/572 620/1/607 
f 613/1/136 137/1/136 147/1/146 621/1/146 
f 581/1/140 580/1/150 576/1/149 602/1/139 
f 622/1/608 623/1/609 547/1/558 551/1/562 
f 589/1/182 542/1/192 624/1/610 595/1/585 
f 625/1/611 620/1/607 626/1/612 627/1/613 
f 560/1/569 570/1/572 619/1/606 
f 628/1/614 603/1/591 560/1/569 
f 628/1/614 622/1/608 551/1/562 603/1/591 
f 629/1/615 560/1/569 619/1/606 
f 630/1/616 629/1/615 619/1/606 618/1/605 
f 631/1/617 632/1/618 630/1/616 618/1/605 
f 633/1/619 634/1/620 632/1/618 631/1/617 
f 635/1/621 636/1/622 634/1/620 633/1/619 
f 578/1/60 637/1/59 636/1/622 635/1/621 
f 577/1/61 638/1/62 637/1/59 578/1/60 
f 639/1/63 640/1/64 638/1/62 577/1/61 
f 641/1/623 640/1/64 639/1/63 642/1/624 
f 231/1/230 241/1/240 641/1/240 642/1/230 
f 561/1/570 560/1/569 629/1/615 
f 630/1/616 643/1/625 561/1/570 629/1/615 
f 632/1/618 644/1/626 643/1/625 630/1/616 
f 634/1/620 645/1/627 644/1/626 632/1/618 
f 636/1/622 554/1/565 645/1/627 634/1/620 
f 637/1/59 538/1/79 554/1/565 636/1/622 
f 638/1/62 535/1/80 538/1/79 637/1/59 
f 640/1/64 585/1/81 535/1/80 638/1/62 
f 586/1/579 585/1/81 640/1/64 641/1/623 
f 241/1/240 18/1/15 586/1/15 641/1/240 
f 644/1/626 646/1/628 647/1/629 643/1/625 
f 606/1/594 610/1/598 532/1/555 531/1/554 
f 596/1/586 595/1/585 648/1/630 609/1/597 
f 542/1/192 541/1/202 649/1/631 624/1/610 
f 539/1/193 567/1/194 650/1/204 540/1/203 
f 624/1/610 649/1/631 549/1/560 548/1/559 
f 646/1/628 651/1/632 607/1/595 608/1/596 
f 544/1/44 562/1/45 565/1/43 545/1/42 
f 554/1/565 553/1/564 651/1/632 645/1/627 
f 612/1/600 560/1/569 652/1/633 
f 158/1/158 592/1/158 594/1/35 35/1/35 
f 585/1/81 584/1/91 536/1/90 535/1/80 
f 594/1/584 593/1/100 584/1/91 583/1/578 
f 647/1/629 653/1/634 652/1/633 559/1/568 
f 653/1/634 534/1/557 612/1/600 652/1/633 
f 18/1/15 17/1/16 583/1/16 586/1/15 
f 652/1/633 560/1/569 559/1/568 
f 646/1/628 608/1/596 653/1/634 647/1/629 
f 651/1/632 553/1/564 605/1/593 607/1/595 
f 537/1/89 546/1/41 605/1/593 553/1/564 
f 595/1/585 624/1/610 548/1/559 648/1/630 
f 536/1/90 543/1/99 546/1/41 537/1/89 
f 583/1/16 17/1/16 35/1/35 594/1/35 
f 584/1/91 593/1/100 543/1/99 536/1/90 
f 645/1/627 651/1/632 646/1/628 644/1/626 
f 609/1/597 648/1/630 623/1/609 654/1/635 
f 534/1/557 533/1/556 611/1/599 612/1/600 
f 601/1/128 602/1/139 655/1/138 656/1/129 
f 656/1/129 655/1/138 615/1/602 614/1/601 
f 657/1/636 658/1/637 560/1/569 
f 657/1/636 659/1/638 660/1/639 658/1/637 
f 659/1/638 661/1/640 662/1/641 660/1/639 
f 662/1/641 661/1/640 663/1/642 664/1/643 
f 664/1/643 663/1/642 665/1/644 666/1/645 
f 667/1/646 573/1/574 572/1/573 668/1/647 
f 669/1/648 667/1/646 668/1/647 597/1/587 
f 670/1/649 669/1/648 597/1/587 600/1/590 
f 671/1/650 670/1/649 600/1/590 672/1/651 
f 672/1/651 673/1/108 674/1/112 671/1/650 
f 673/1/108 675/1/113 676/1/111 674/1/112 
f 675/1/113 677/1/115 678/1/114 676/1/111 
f 677/1/115 679/1/652 680/1/653 678/1/114 
f 191/1/190 680/1/190 679/1/180 180/1/180 
f 560/1/569 573/1/574 681/1/654 
f 682/1/655 681/1/654 573/1/574 667/1/646 
f 683/1/656 682/1/655 667/1/646 669/1/648 
f 617/1/604 683/1/656 669/1/648 670/1/649 
f 671/1/650 614/1/601 617/1/604 670/1/649 
f 671/1/650 674/1/112 656/1/129 614/1/601 
f 674/1/112 676/1/111 601/1/128 656/1/129 
f 676/1/111 678/1/114 587/1/130 601/1/128 
f 678/1/114 680/1/653 588/1/580 587/1/130 
f 201/1/200 588/1/200 680/1/190 191/1/190 
f 567/1/194 613/1/657 621/1/658 650/1/204 
f 592/1/583 555/1/566 558/1/47 571/1/46 
f 574/1/576 642/1/624 639/1/63 580/1/150 
f 221/1/220 231/1/230 642/1/230 574/1/220 
f 593/1/100 571/1/46 544/1/44 543/1/99 
f 558/1/47 557/1/174 563/1/173 562/1/45 
f 557/1/174 566/1/184 568/1/183 563/1/173 
f 615/1/602 684/1/659 685/1/660 616/1/603 
f 655/1/138 579/1/148 684/1/659 615/1/602 
f 602/1/139 576/1/149 579/1/148 655/1/138 
f 565/1/43 564/1/172 596/1/586 590/1/581 
f 582/1/577 613/1/657 567/1/194 566/1/184 
f 686/1/661 628/1/614 560/1/569 
f 608/1/596 531/1/554 534/1/557 653/1/634 
f 643/1/625 647/1/629 559/1/568 561/1/570 
f 620/1/607 570/1/572 569/1/571 626/1/612 
f 687/1/28 688/1/33 689/1/31 690/1/32 
f 688/1/33 691/1/36 692/1/163 689/1/31 
f 691/1/36 693/1/662 694/1/663 692/1/163 
f 694/1/170 693/1/37 37/1/37 170/1/170 
f 560/1/569 695/1/664 572/1/573 
f 572/1/573 695/1/664 696/1/665 668/1/647 
f 668/1/647 696/1/665 598/1/588 597/1/587 
f 560/1/569 697/1/666 698/1/667 
f 699/1/1 700/1/668 701/1/669 702/1/23 
f 701/1/38 700/1/97 97/1/97 38/1/38 
f 698/1/667 697/1/666 703/1/670 704/1/671 
f 704/1/671 703/1/670 705/1/672 706/1/673 
f 706/1/673 705/1/672 707/1/674 708/1/675 
f 709/1/21 702/1/23 691/1/36 688/1/33 
f 560/1/569 710/1/676 697/1/666 
f 708/1/675 707/1/674 711/1/677 712/1/678 
f 712/1/678 711/1/677 713/1/22 687/1/28 
f 713/1/22 709/1/21 688/1/33 687/1/28 
f 705/1/672 714/1/679 715/1/680 707/1/674 
f 716/1/681 717/1/682 718/1/17 719/1/18 
f 718/1/17 720/1/3 721/1/2 719/1/18 
f 720/1/3 722/1/4 699/1/1 721/1/2 
f 710/1/676 723/1/683 724/1/684 725/1/685 
f 725/1/685 724/1/684 726/1/686 714/1/679 
f 714/1/679 726/1/686 727/1/687 715/1/680 
f 715/1/680 727/1/687 717/1/682 716/1/681 
f 540/1/203 650/1/204 728/1/214 729/1/212 
f 650/1/204 621/1/658 730/1/688 728/1/214 
f 621/1/146 147/1/146 157/1/156 730/1/156 
f 108/1/107 127/1/126 582/1/126 556/1/107 
f 719/1/18 721/1/2 709/1/21 713/1/22 
f 690/1/32 689/1/31 675/1/113 673/1/108 
f 689/1/31 692/1/163 677/1/115 675/1/113 
f 692/1/163 694/1/663 679/1/652 677/1/115 
f 600/1/590 599/1/589 731/1/689 672/1/651 
f 731/1/689 690/1/32 673/1/108 672/1/651 
f 693/1/37 701/1/38 38/1/38 37/1/37 
f 679/1/180 694/1/170 170/1/170 180/1/180 
f 560/1/569 723/1/683 710/1/676 
f 702/1/23 701/1/669 693/1/662 691/1/36 
f 697/1/666 710/1/676 725/1/685 703/1/670 
f 703/1/670 725/1/685 714/1/679 705/1/672 
f 580/1/150 639/1/63 577/1/61 576/1/149 
f 721/1/2 699/1/1 702/1/23 709/1/21 
f 707/1/674 715/1/680 716/1/681 711/1/677 
f 711/1/677 716/1/681 719/1/18 713/1/22 
f 700/1/97 732/1/87 87/1/87 97/1/97 
f 722/1/4 732/1/690 700/1/668 699/1/1 
f 560/1/569 698/1/667 695/1/664 
f 695/1/664 698/1/667 704/1/671 696/1/665 
f 696/1/665 704/1/671 706/1/673 598/1/588 
f 598/1/588 706/1/673 708/1/675 599/1/589 
f 599/1/589 708/1/675 712/1/678 731/1/689 
f 604/1/592 657/1/636 560/1/569 
f 604/1/592 552/1/563 659/1/638 657/1/636 
f 552/1/563 550/1/561 661/1/640 659/1/638 
f 550/1/561 549/1/560 663/1/642 661/1/640 
f 549/1/560 649/1/631 665/1/644 663/1/642 
f 649/1/631 541/1/202 733/1/213 665/1/644 
f 541/1/202 540/1/203 729/1/212 733/1/213 
f 560/1/569 681/1/654 569/1/571 
f 626/1/612 569/1/571 681/1/654 682/1/655 
f 627/1/613 626/1/612 682/1/655 683/1/656 
f 617/1/604 616/1/603 627/1/613 683/1/656 
f 734/1/691 666/1/645 735/1/223 736/1/233 
f 735/1/223 737/1/222 738/1/232 736/1/233 
f 737/1/222 739/1/224 740/1/234 738/1/232 
f 739/1/224 741/1/692 742/1/693 740/1/234 
f 742/1/75 741/1/76 76/1/76 75/1/75 
f 560/1/569 743/1/694 723/1/683 
f 723/1/683 743/1/694 744/1/695 724/1/684 
f 724/1/684 744/1/695 745/1/696 726/1/686 
f 726/1/686 745/1/696 746/1/697 727/1/687 
f 727/1/687 746/1/697 734/1/691 717/1/682 
f 717/1/682 734/1/691 736/1/233 718/1/17 
f 736/1/233 738/1/232 720/1/3 718/1/17 
f 738/1/232 740/1/234 722/1/4 720/1/3 
f 740/1/234 742/1/693 732/1/690 722/1/4 
f 732/1/87 742/1/75 75/1/75 87/1/87 
f 665/1/644 733/1/213 735/1/223 666/1/645 
f 733/1/213 729/1/212 737/1/222 735/1/223 
f 729/1/212 728/1/214 739/1/224 737/1/222 
f 728/1/214 730/1/688 741/1/692 739/1/224 
f 730/1/156 157/1/156 76/1/76 741/1/76 
f 658/1/637 743/1/694 560/1/569 
f 743/1/694 658/1/637 660/1/639 744/1/695 
f 744/1/695 660/1/639 662/1/641 745/1/696 
f 745/1/696 662/1/641 664/1/643 746/1/697 
f 746/1/697 664/1/643 666/1/645 734/1/691 
f 591/1/582 590/1/581 610/1/598 606/1/594 
f 747/1/698 654/1/635 623/1/609 622/1/608 
f 532/1/555 654/1/635 747/1/698 533/1/556 
f 109/1/106 108/1/107 556/1/107 555/1/106 
f 610/1/598 609/1/597 654/1/635 532/1/555 
f 686/1/661 560/1/569 611/1/599 
f 533/1/556 747/1/698 686/1/661 611/1/599 
f 648/1/630 548/1/559 547/1/558 623/1/609 
f 616/1/603 685/1/660 625/1/611 627/1/613 
f 712/1/678 687/1/28 690/1/32 731/1/689 
f 625/1/611 631/1/617 618/1/605 620/1/607 
f 685/1/660 633/1/619 631/1/617 625/1/611 
f 684/1/659 635/1/621 633/1/619 685/1/660 
f 579/1/148 578/1/60 635/1/621 684/1/659 
f 211/1/210 575/1/210 588/1/200 201/1/200 
f 686/1/661 747/1/698 622/1/608 628/1/614 
# 696 polygons - 72 triangles

