# 3ds Max Wavefront OBJ Exporter v0.99 - (c)2007 guruware
# File Created: 08.05.2026 15:39:52

mtllib Lampara.mtl

#
# object Lampara
#

v  -0.1052 -0.0149 -0.0000
v  -0.0267 -0.0149 -0.6605
v  -0.0005 -0.0149 -0.6605
v  -0.0005 0.0910 -0.6605
v  -0.1051 0.0910 -0.0000
v  0.1040 0.0910 -0.0000
v  0.1040 -0.0149 -0.0000
v  0.0423 -0.0218 0.6605
v  0.0255 -0.0149 0.6605
v  -0.0006 0.0910 0.6605
v  -0.1053 0.0670 0.6605
v  -0.1054 0.0670 -0.6605
v  -0.1051 -0.0149 -0.6605
v  -0.1054 -0.0659 -0.6854
v  -0.1054 0.0670 -0.6854
v  0.0963 0.0799 -0.6854
v  0.0791 -0.0922 -0.6854
v  -0.0791 -0.0922 -0.6854
v  0.1040 0.0330 0.6605
v  0.1040 0.0450 -0.6605
v  -0.0007 -0.0149 0.6605
v  -0.1054 0.0670 0.6854
v  -0.1054 -0.0659 0.6854
v  0.1054 -0.0659 0.6854
v  0.1054 0.0670 0.6854
v  -0.1054 0.0907 0.6854
v  0.1040 0.0091 0.6605
v  0.1040 -0.0149 0.6605
v  -0.1056 -0.0149 0.6605
v  -0.1053 -0.0149 0.4403
v  -0.1052 -0.0149 -0.2202
v  0.1040 0.0091 -0.6605
v  -0.0791 -0.0922 -0.6605
v  0.0490 -0.0762 -0.6605
v  -0.0474 -0.0760 -0.6605
v  0.0253 -0.0481 0.6605
v  -0.0176 -0.0744 0.6605
v  -0.0924 -0.0792 0.6854
v  -0.0791 -0.0922 0.6854
v  0.1056 -0.0649 0.6605
v  0.1054 0.0670 0.6605
v  0.0274 -0.0371 0.6605
v  0.0331 -0.0283 0.6605
v  -0.0252 -0.0571 0.6013
v  -0.0308 -0.0640 0.6013
v  -0.0284 -0.0596 -0.0068
v  -0.0727 -0.0703 0.6013
v  -0.0799 -0.0607 0.6013
v  -0.0729 -0.0678 -0.0068
v  0.0817 -0.0571 0.6013
v  0.0761 -0.0640 0.6013
v  0.0785 -0.0596 -0.0068
v  0.0342 -0.0703 0.6013
v  0.0270 -0.0607 0.6013
v  0.0340 -0.0678 -0.0068
v  0.0270 -0.0607 -0.6156
v  0.0342 -0.0702 -0.6156
v  0.0730 -0.0294 -0.0068
v  0.0803 -0.0354 -0.6156
v  0.0689 -0.0260 -0.6156
v  -0.0799 -0.0607 -0.6156
v  -0.0727 -0.0702 -0.6156
v  -0.0340 -0.0294 -0.0068
v  -0.0266 -0.0354 -0.6156
v  -0.0381 -0.0260 -0.6156
v  0.0343 0.0910 -0.6605
v  -0.1051 0.0910 -0.2202
v  -0.1051 0.0910 0.2202
v  -0.1052 0.0910 0.4403
v  0.0261 -0.0540 -0.6605
v  -0.0293 -0.0635 -0.6605
v  0.0779 -0.0149 -0.6605
v  0.1040 -0.0149 -0.6605
v  -0.0659 -0.0305 0.6605
v  -0.0359 -0.0354 0.6605
v  -0.0651 -0.0660 0.6605
v  -0.0651 -0.0218 0.6605
v  -0.0792 -0.0149 0.6605
v  0.0803 -0.0354 -0.6571
v  0.0270 -0.0607 -0.6571
v  -0.0239 -0.0461 -0.6571
v  -0.0799 -0.0607 -0.6571
v  0.0656 -0.0299 0.6605
v  0.0364 -0.0605 0.6605
v  0.0358 -0.0363 0.6605
v  0.0779 -0.0149 0.6605
v  0.0648 -0.0214 0.6605
v  -0.1054 -0.0659 -0.6605
v  -0.0815 -0.0540 -0.6605
v  -0.0775 -0.0324 -0.6605
v  -0.0790 -0.0149 -0.6605
v  0.0748 -0.0676 0.6605
v  0.0781 -0.0924 0.6605
v  0.0541 -0.0766 0.6605
v  0.0176 -0.0744 0.6605
v  -0.0252 -0.0571 0.6428
v  -0.0727 -0.0703 0.6428
v  0.0817 -0.0571 0.6428
v  0.0342 -0.0703 0.6428
v  -0.0424 -0.0236 -0.0068
v  -0.0424 -0.0236 0.6013
v  -0.0789 -0.0585 -0.0068
v  0.0645 -0.0236 -0.0068
v  0.0645 -0.0236 0.6013
v  0.0280 -0.0585 -0.0068
v  0.0386 -0.0721 -0.6709
v  0.0777 -0.0316 -0.6709
v  0.0697 -0.0239 -0.6709
v  0.1054 0.0670 -0.6854
v  0.1054 -0.0659 -0.6854
v  -0.1054 -0.0659 0.6605
v  -0.0815 -0.0540 0.6605
v  -0.0924 -0.0792 0.6605
v  -0.0923 -0.0149 0.6605
v  -0.0379 -0.0239 -0.6605
v  -0.0252 -0.0531 -0.6605
v  -0.0298 -0.0316 -0.6709
v  -0.0690 -0.0721 -0.6605
v  -0.0586 -0.0762 -0.6605
v  0.1054 0.0907 -0.6854
v  -0.1039 0.0922 -0.6854
v  -0.1039 0.0922 -0.6605
v  -0.1051 0.0910 -0.4403
v  -0.1051 0.0765 -0.6852
v  0.1039 0.0922 0.6854
v  0.1039 0.0922 0.6605
v  0.1043 0.0846 0.6605
v  -0.0791 -0.0922 0.6605
v  -0.0489 -0.0690 0.6605
v  -0.0353 -0.0596 0.6605
v  -0.0367 -0.0713 0.6472
v  0.0410 -0.0215 0.6013
v  0.0315 -0.0287 0.6013
v  0.0315 -0.0287 0.6428
v  0.0343 -0.0291 -0.0068
v  -0.0659 -0.0215 0.6013
v  -0.0755 -0.0287 0.6013
v  -0.0755 -0.0287 0.6428
v  -0.0727 -0.0291 -0.0068
v  -0.0924 -0.0792 -0.6854
v  0.1039 0.0922 -0.6605
v  0.1054 0.0670 -0.6605
v  -0.0799 -0.0607 0.6428
v  -0.0814 -0.0391 0.6013
v  -0.0406 -0.0747 0.6428
v  0.0270 -0.0607 0.6428
v  0.0256 -0.0391 0.6013
v  0.0663 -0.0747 0.6428
v  0.0750 -0.0521 0.6605
v  0.0801 -0.0363 0.6605
v  0.0805 -0.0589 0.6605
v  -0.0311 -0.0675 -0.6571
v  -0.0268 -0.0549 -0.6156
v  -0.0659 -0.0214 -0.6571
v  -0.0814 -0.0390 -0.6571
v  -0.0755 -0.0286 -0.6156
v  0.0256 -0.0390 -0.6571
v  0.0242 -0.0500 -0.6156
v  0.0758 -0.0675 -0.6571
v  0.0831 -0.0461 -0.6571
v  0.0801 -0.0549 -0.6156
v  -0.1054 0.0904 0.6605
v  0.0791 -0.0922 0.6854
v  0.0791 -0.0922 -0.6605
v  0.1054 -0.0659 -0.6605
v  0.0782 -0.0635 -0.6605
v  0.0387 -0.0149 -0.6605
v  0.0517 -0.0149 -0.6605
v  0.0306 -0.0643 -0.6709
v  -0.0659 -0.0214 -0.6156
v  0.0315 -0.0286 -0.6156
v  0.0410 -0.0214 -0.6156
v  0.0410 -0.0214 -0.6571
v  0.0727 -0.0681 -0.0068
v  0.0634 -0.0741 -0.0068
v  0.0663 -0.0747 -0.6156
v  0.0663 -0.0747 0.6013
v  -0.0342 -0.0681 -0.0068
v  -0.0435 -0.0741 -0.0068
v  -0.0406 -0.0747 -0.6156
v  -0.0406 -0.0747 0.6013
v  -0.0530 -0.0149 0.6605
v  -0.1053 -0.0149 0.2202
v  -0.0425 -0.0214 0.6605
v  -0.0338 -0.0271 0.6605
v  -0.0301 -0.0313 0.6472
v  -0.0418 -0.0299 0.6472
v  0.1043 0.0846 0.6854
v  0.0761 -0.0640 -0.6156
v  -0.0308 -0.0640 -0.6156
v  -0.0924 -0.0792 -0.6605
v  -0.0770 -0.0643 -0.6709
v  -0.0532 -0.0766 0.6605
v  -0.0731 -0.0688 0.6605
v  0.0329 -0.0525 0.6472
v  0.0298 -0.0324 0.6472
v  0.0258 -0.0424 0.6472
v  -0.0398 -0.0149 -0.6605
v  -0.0697 -0.0244 -0.6709
v  -0.0815 -0.0540 -0.6709
v  -0.0379 -0.0239 -0.6709
v  0.1043 0.0846 -0.6854
v  0.1054 0.0860 -0.6605
v  -0.1056 -0.0649 0.6730
v  -0.0492 -0.0269 0.6605
v  -0.0595 -0.0199 0.6472
v  -0.0254 -0.0419 0.6472
v  -0.0323 -0.0521 0.6605
v  0.0705 -0.0715 -0.6709
v  -0.1000 0.0742 0.6845
v  0.0736 -0.0271 0.6605
v  0.0824 -0.0531 -0.6605
v  -0.1052 -0.0149 -0.4403
v  -0.0595 -0.0199 -0.6605
v  -0.0744 -0.0525 0.6605
v  -0.0799 -0.0371 0.6605
v  -0.0821 -0.0481 0.6605
v  -0.1054 -0.0399 0.6605
v  0.0300 -0.0324 -0.6605
v  0.0261 -0.0540 -0.6709
v  0.0378 -0.0244 -0.6709
v  -0.0266 -0.0355 0.6013
v  -0.0339 -0.0259 0.6013
v  -0.0339 -0.0259 0.6428
v  0.0803 -0.0355 0.6013
v  0.0731 -0.0259 0.6013
v  0.0731 -0.0259 0.6428
v  -0.1051 0.0854 -0.6605
v  -0.0703 0.0910 -0.6605
v  0.0343 -0.0688 0.6605
v  0.0497 -0.0691 0.6605
v  -0.0269 -0.0589 0.6605
v  -0.0272 -0.0363 0.6605
v  -0.0268 -0.0149 0.6605
v  -0.0474 -0.0760 -0.6709
v  -0.0252 -0.0531 -0.6709
v  -0.0474 -0.0760 0.6472
v  -0.0325 -0.0676 0.6605
v  -0.0535 -0.0349 -0.6571
v  -0.0531 -0.0606 -0.6571
v  -0.0727 -0.0702 -0.6571
v  -0.0513 -0.0775 -0.6571
v  -0.0597 -0.0752 -0.6156
v  0.0436 -0.0231 -0.0068
v  -0.0634 -0.0231 -0.0068
v  -0.0552 -0.0187 0.6428
v  -0.0523 -0.0386 0.6428
v  -0.0542 -0.0569 0.6428
v  -0.0266 -0.0355 0.6428
v  0.0546 -0.0386 0.6428
v  0.0527 -0.0569 0.6428
v  0.0517 -0.0187 0.6428
v  0.0556 -0.0584 -0.6571
v  0.0627 -0.0200 -0.6571
v  0.0695 -0.0239 0.6472
v  0.0656 -0.0299 0.6472
v  0.0750 -0.0434 0.6472
v  0.0446 -0.0762 0.6013
v  0.0556 -0.0775 0.6013
v  0.0446 -0.0762 0.6428
v  0.0525 -0.0759 -0.0068
v  -0.0623 -0.0762 0.6013
v  -0.0513 -0.0775 0.6013
v  -0.0623 -0.0762 0.6428
v  -0.0545 -0.0759 -0.0068
v  -0.0513 -0.0775 -0.6156
v  0.0556 -0.0775 -0.6156
v  0.0556 -0.0775 -0.6571
v  -0.1054 0.0860 0.6854
v  -0.0963 0.0806 0.6849
v  0.0581 -0.0269 0.6472
v  0.0479 -0.0199 0.6472
v  0.0517 -0.0149 0.6605
v  -0.0513 -0.0584 -0.6571
v  -0.0514 -0.0375 -0.6571
v  -0.0443 -0.0200 -0.6571
v  -0.0767 -0.0647 0.6472
v  -0.0576 -0.0691 0.6472
v  -0.0253 -0.0535 0.6472
v  -0.0353 -0.0596 0.6472
v  0.0342 -0.0702 -0.6571
v  0.0472 -0.0752 -0.6156
v  -0.0965 0.0812 -0.6852
v  -0.0744 -0.0525 0.6472
v  -0.0816 -0.0424 0.6472
v  -0.0659 -0.0305 0.6472
v  -0.0492 -0.0269 0.6472
v  0.0665 -0.0655 0.6472
v  0.0821 -0.0535 0.6472
v  0.0600 -0.0760 0.6472
v  0.0706 -0.0713 0.6472
v  -0.0697 -0.0244 -0.6605
v  0.0490 -0.0216 -0.6156
v  0.0535 -0.0349 -0.6571
v  0.0262 -0.0476 -0.0068
v  0.0284 -0.0376 -0.0068
v  0.0256 -0.0390 -0.6156
v  -0.0808 -0.0476 -0.0068
v  -0.0785 -0.0376 -0.0068
v  -0.0814 -0.0390 -0.6156
v  0.0256 -0.0149 -0.6605
v  0.0259 -0.0540 0.6472
v  0.0306 -0.0647 0.6472
v  0.1050 0.0678 0.6730
v  0.0963 0.0806 0.6854
v  0.1050 0.0678 -0.6730
v  0.0692 0.0910 -0.6605
v  0.0593 -0.0198 -0.6605
v  -0.0743 -0.0283 0.6605
v  -0.0775 -0.0324 0.6472
v  -0.0524 -0.0213 -0.0068
v  -0.0472 -0.0220 -0.6156
v  -0.0579 -0.0216 -0.6156
v  0.0545 -0.0213 -0.0068
v  0.0598 -0.0220 -0.6156
v  0.0790 -0.0387 -0.0068
v  0.0831 -0.0461 0.6013
v  0.0808 -0.0496 -0.0068
v  0.0831 -0.0461 -0.6156
v  -0.0279 -0.0387 -0.0068
v  -0.0239 -0.0461 0.6013
v  -0.0261 -0.0496 -0.0068
v  -0.0239 -0.0461 -0.6156
v  -0.0552 -0.0187 0.6013
v  0.0517 -0.0187 0.6013
v  0.0358 -0.0363 0.6472
v  0.0494 -0.0269 0.6472
v  0.0414 -0.0305 0.6605
v  0.0242 -0.0501 0.6013
v  -0.0827 -0.0501 0.6013
v  -0.0827 -0.0500 -0.6156
v  0.0527 -0.0351 0.6428
v  -0.0542 -0.0351 0.6428
v  0.0602 -0.0760 -0.6709
v  0.0720 -0.0596 0.6605
v  0.0497 -0.0691 0.6472
v  0.0820 -0.0419 0.6472
v  0.0772 -0.0313 0.6472
v  -0.0715 -0.0363 0.6605
v  -0.0528 -0.0149 -0.6605
v  -0.1050 0.0852 -0.6854
v  0.0538 -0.0606 -0.6571
v  -0.0523 -0.0603 0.6428
v  0.0546 -0.0603 0.6428
v  -0.0354 0.0910 -0.6605
v  0.0822 -0.0419 -0.6709
v  0.0777 -0.0316 -0.6605
v  0.0803 -0.0355 0.6428
v  -0.0645 -0.0736 -0.0068
v  0.0425 -0.0736 -0.0068
v  0.0384 -0.0721 0.6472
v  0.0484 -0.0761 0.6472
v  -0.0690 -0.0721 0.6472
v  -0.0643 -0.0745 0.6605
v  0.0555 -0.0375 -0.6571
v  0.0372 -0.0246 0.6472
v  0.1056 0.0868 0.6730
v  0.1056 0.0868 -0.6730
v  0.0527 -0.0351 -0.6670
v  0.0538 -0.0388 -0.6670
v  -0.0542 -0.0351 -0.6670
v  -0.0531 -0.0388 -0.6670
v  0.0554 -0.0577 -0.6670
v  0.0519 -0.0596 -0.6670
v  -0.0515 -0.0577 -0.6670
v  -0.0550 -0.0596 -0.6670
v  -0.0513 -0.0584 0.6537
v  0.0556 -0.0584 0.6537
v  -0.0527 -0.0350 0.6537
v  0.0543 -0.0350 0.6537
# 370 vertices

vn 0.0000 0.0000 1.0000
vn 0.0000 0.0000 -1.0000
vn -0.0000 -1.0000 0.0000
vn 0.0000 -1.0000 0.0000
vn 1.0000 0.0000 0.0000
vn 0.0000 1.0000 0.0000
vn -1.0000 -0.0000 -0.0000
vn 0.0000 0.9734 0.2291
vn 0.0000 0.9155 0.4024
vn 0.0000 -0.7111 0.7031
vn 0.0000 -0.8378 0.5460
vn 0.0000 0.7111 -0.7031
vn 0.0000 0.8378 -0.5460
vn 0.0000 0.6587 -0.7524
vn 0.0000 0.9034 -0.4288
vn 0.0000 -0.6587 0.7524
vn 0.0000 -0.9034 0.4288
vn 0.0000 0.7524 0.6587
vn 0.0000 0.9521 0.3057
vn 0.0000 0.4024 -0.9155
vn 0.0000 0.5623 -0.8270
vn 0.0000 -0.9319 0.3628
vn -1.0000 0.0000 0.0000
vn 0.0000 -0.2112 -0.9774
vn 0.0000 -0.5821 -0.8132
vn 0.0000 -0.4288 -0.9034
vn 0.0000 -0.7524 -0.6587
vn 0.0000 -0.7031 -0.7111
vn 0.0000 -0.5460 -0.8378
vn -0.0000 1.0000 -0.0000
vn 0.0000 -0.9978 0.0662
vn 0.0000 -0.9521 -0.3057
vn 0.0000 0.7031 0.7111
vn 0.0000 0.3628 0.9319
vn 0.0000 0.5460 0.8378
vn 0.0000 0.6857 -0.7279
vn 0.0000 0.8132 -0.5821
vn 0.0000 0.5418 -0.8405
vn -0.0000 1.0000 0.0000
vn 0.0000 0.9809 0.1944
vn 0.0000 0.9774 -0.2112
vn 0.0000 -0.8405 -0.5418
vn 0.0000 -0.9809 -0.1944
vn 0.0000 -0.9251 -0.3798
vn -0.0000 -0.7071 0.7071
vn 0.0000 -1.0000 -0.0000
vn 0.0000 -0.1944 0.9809
vn 0.0000 0.2112 0.9774
vn 0.0000 -0.8132 0.5821
vn 0.0000 -0.9774 0.2112
vn 0.0000 1.0000 -0.0064
vn 0.0000 0.4070 0.9134
vn 1.0000 0.0000 -0.0000
vn 0.0000 -0.3057 0.9521
vn 0.0000 -0.3628 -0.9319
vn 0.0000 -0.0662 -0.9978
vn 0.0000 0.3057 -0.9521
vn 0.0000 0.3798 -0.9251
vn 0.0000 0.0662 0.9978
vn 0.0000 -0.0372 0.9993
vn 0.0000 -0.2291 0.9734
vn 0.0000 0.4288 0.9034
vn 0.0000 0.1641 0.9864
vn 0.0000 0.1944 -0.9809
vn 0.0000 -0.0064 -1.0000
vn -0.0000 0.7071 0.7071
vn -0.0000 -0.0000 1.0000
vn 0.0000 -0.9134 0.4070
vn 0.0000 0.0064 1.0000
vn 0.0000 -0.4070 -0.9134
vn 0.0000 0.5821 0.8132
vn 0.0000 -0.1789 0.9839
vn 0.0000 -0.9993 -0.0372
vn 0.0000 -0.9155 -0.4024
vn 0.0000 -0.9734 -0.2291
vn 0.0000 -0.7279 -0.6857
vn 0.0000 0.0372 -0.9993
vn 0.0000 -0.1641 -0.9864
vn 0.0000 0.9319 -0.3628
vn 0.0000 0.9864 -0.1641
vn 0.0000 0.9993 0.0372
vn 0.0000 0.2291 -0.9734
vn 0.0000 0.8405 0.5418
vn -1.0000 -0.0000 0.0000
vn 0.0000 0.7279 0.6857
vn 0.0000 -0.8222 0.5692
vn 0.0000 0.9978 -0.0662
vn 0.0000 -0.4024 0.9155
vn 0.0000 -0.3798 0.9251
vn 0.0000 -0.5418 0.8405
vn 0.0000 0.8270 0.5623
vn 0.0000 -1.0000 0.0064
vn 0.0000 0.9134 -0.4070
vn 0.0000 -0.5692 -0.8222
vn 0.0000 -0.5623 0.8270
vn 0.0000 -0.6857 0.7279
vn -0.0000 0.9456 0.3254
vn -0.0000 1.0000 -0.0005
vn 0.0000 -0.9703 -0.2421
vn 0.0000 -0.9298 -0.3681
vn 0.0000 0.9251 0.3798
vn 1.0000 -0.0000 0.0000
vn 0.0000 0.5692 0.8222
vn 0.0000 -0.9239 0.3827
vn 0.0000 0.9839 0.1789
vn 0.0000 0.8222 -0.5692
vn 0.0000 -0.8016 -0.5979
vn 0.0000 -0.7790 -0.6271
vn 0.0000 -0.9702 -0.2425
vn 0.0000 0.1789 -0.9839
vn 0.0000 -0.8270 -0.5623
vn 0.0000 -0.9839 -0.1789
vn 0.0000 -0.9864 0.1641
vn 0.0000 -0.7750 0.6320
vn 0.0000 -0.8303 0.5574
vn 0.0000 -0.9456 0.3254
vn 0.0000 -0.9959 0.0905
vn 0.0000 -0.8780 0.4786
vn 0.0000 0.9499 0.3125
vn 0.0000 0.9959 -0.0905
vn 0.0000 -0.0905 -0.9959
vn 0.0000 -0.4786 -0.8780
vn 0.0000 0.0905 0.9959
vn 0.0000 0.4786 0.8780
vn -0.0000 0.9298 -0.3681
vn 0.0000 -0.3125 0.9499
vn 0.0000 -0.6402 0.7682
vn 0.0000 0.8780 -0.4786
vn 0.0000 -0.7682 -0.6402
vn 0.0000 0.7682 0.6402
vn -0.0000 0.9431 -0.3324
vn -0.0000 0.7790 -0.6270
# 132 vertex normals

vt 5.0000 0.0047 0.4196
vt 9.8182 1.1208 0.4196
vt 9.8182 1.4922 0.4196
vt 0.1818 1.4923 0.9924
vt 5.0000 0.0060 0.9925
vt 5.0000 2.9782 0.9924
vt 5.0000 2.9782 0.4196
vt 0.1818 2.0485 0.4196
vt 0.1818 1.8625 0.4196
vt 9.8181 1.4919 0.9925
vt 9.8181 2.5873 0.0014
vt 0.1818 2.5881 0.0007
vt 0.1818 1.2588 0.0021
vt 1.4331 0.0029 1.0000
vt 8.6272 0.0021 1.0000
vt 9.3273 2.8686 1.0000
vt 0.0109 2.6238 1.0000
vt 0.0109 0.3762 1.0000
vt 0.1819 2.0367 0.9927
vt 5.0000 1.2588 0.9927
vt 9.8182 2.2311 0.9927
vt 0.1818 1.4907 0.4196
vt 1.3728 0.0021 0.0000
vt 8.5669 0.0029 0.0000
vt 8.5669 2.9971 0.0000
vt 1.3728 2.9979 0.0000
vt 0.0903 0.0026 0.0000
vt 0.1819 1.6477 0.9927
vt 0.1818 1.2588 0.9927
vt 9.8181 1.2588 0.0000
vt 8.2121 1.2588 0.0012
vt 3.3939 1.2588 0.0018
vt 5.0000 1.2588 0.0016
vt 9.8182 1.6477 0.9927
vt 6.6061 0.0053 0.4196
vt 9.9891 0.3762 0.9818
vt 9.1236 2.1965 0.9818
vt 9.1136 0.8269 0.9818
vt 4.1960 1.4907 0.0182
vt 2.3936 1.8589 0.0182
vt 0.9704 1.2500 0.0182
vt 9.2857 0.1875 0.0000
vt 9.9891 0.3762 0.0000
vt 1.4878 3.0000 0.0182
vt 4.1960 2.9782 0.0182
vt 8.6272 2.9979 0.0182
vt 2.9932 1.8894 0.0182
vt 3.4680 1.9697 0.0182
vt 2.4967 6.5349 20.6569
vt 2.4974 7.7007 20.6569
vt -0.3006 6.9583 0.0384
vt 2.5023 8.7711 20.6569
vt 2.5031 7.1512 20.6569
vt 5.3787 8.3547 0.0306
vt 7.4969 7.1431 20.6919
vt 7.4977 8.7629 20.6919
vt 9.6153 1.8240 0.0301
vt 7.5031 2.8488 20.6919
vt 7.5018 1.2486 20.6919
vt 0.1818 1.9876 0.9924
vt 5.0000 2.9772 0.9927
vt 5.0000 2.9774 0.0020
vt 3.3939 2.9774 0.0020
vt 6.6060 0.0058 0.9925
vt 8.2121 0.0057 0.9925
vt 7.9242 1.8711 0.9818
vt 8.4374 1.0834 0.9818
vt 9.8182 2.6067 0.4196
vt 9.8182 2.9782 0.4196
vt 3.3506 0.5629 0.0182
vt 3.0815 0.9894 0.0182
vt 1.4249 0.5753 0.0182
vt 1.7879 0.0037 0.4196
vt 0.1818 0.5610 0.4196
vt 0.1818 0.3751 0.4196
vt 7.5029 2.8488 22.1022
vt 7.4971 7.1431 22.1022
vt 7.5032 4.6645 22.1022
vt 3.3824 2.4320 0.0182
vt 1.7258 2.0178 0.0182
vt 3.0346 2.0094 0.0182
vt 0.1818 2.6063 0.4196
vt 0.1818 2.4204 0.4196
vt 5.8040 0.0063 0.9818
vt 1.3728 0.0021 0.9818
vt 8.5669 0.0029 0.9818
vt 7.9242 0.3426 0.9818
vt 6.7553 0.3984 0.9818
vt 5.8040 0.3778 0.9818
vt 1.3392 2.5629 0.0182
vt 0.0000 2.6095 0.0182
vt 0.8514 2.2690 0.0182
vt 0.9704 1.7500 0.0182
vt 2.4969 6.5349 22.0672
vt 2.5021 8.7711 22.0672
vt 9.3424 0.8376 0.0179
vt 2.4987 0.8376 20.6569
vt -0.3847 1.8240 0.0301
vt -0.6576 0.8376 0.0179
vt 5.2918 6.7743 0.0395
vt 8.9011 2.0487 0.9894
vt 6.7128 2.6045 0.9894
vt 6.2917 2.4902 0.9894
vt 8.6272 2.9979 1.0000
vt 1.4331 2.9971 1.0000
vt 1.4331 0.0029 0.0182
vt 2.0758 0.3426 0.0182
vt 0.7143 0.1875 0.0182
vt 0.1818 0.1891 0.4196
vt 0.1818 0.0000 0.4196
vt 6.2917 0.9616 0.9818
vt 7.8741 1.1418 0.9818
vt 6.7128 1.0759 0.9894
vt 8.9011 0.5201 0.9894
vt 9.1236 0.6680 0.9894
vt 0.0000 2.9890 0.9958
vt 0.0000 0.0237 0.9990
vt 0.1818 0.0237 0.9990
vt 1.7879 2.9773 0.0021
vt 0.0017 2.7421 0.0021
vt 10.0000 0.0110 0.9958
vt 10.0000 2.9763 0.9990
vt 9.8181 2.9763 0.9990
vt 0.1819 2.8684 0.9900
vt 0.1819 2.5882 0.9993
vt 0.0109 0.3762 0.0182
vt 9.8181 0.8054 0.1265
vt 9.8181 0.9978 0.1773
vt 9.7211 0.9188 0.1457
vt 2.5015 0.4809 20.6569
vt 2.5026 1.7058 20.6569
vt 2.5024 1.7058 22.0672
vt 5.3828 1.7866 0.0302
vt 0.7143 0.1875 1.0000
vt 0.1818 2.9763 0.9990
vt 10.0000 0.4299 0.9990
vt 10.0000 2.5881 0.9993
vt 9.8182 2.5881 0.9993
vt 2.5029 7.1512 22.0672
vt 2.5033 3.4733 20.6569
vt 2.4986 9.5272 22.0672
vt 2.1773 2.5662 0.0182
vt 3.0354 2.6385 0.0182
vt 1.8140 2.6433 0.0182
vt 7.5024 8.2942 22.1022
vt 7.5031 6.1534 20.6919
vt 7.4986 0.4728 22.1022
vt 7.4969 3.4651 22.1022
vt 7.4974 1.6976 20.6919
vt 7.4966 5.3274 20.6919
vt 6.6060 2.9775 0.0019
vt 8.2121 2.9776 0.0019
vt 9.8181 0.0110 0.9958
vt 9.9891 2.6238 0.0000
vt 9.9891 2.6238 0.9818
vt 8.5669 2.9971 0.9818
vt 8.4374 2.6119 0.9818
vt 1.3728 2.9979 0.9818
vt 5.8040 2.9782 0.9818
vt 9.8182 2.0495 0.4196
vt 9.8182 2.2352 0.4196
vt 8.4799 1.9344 0.9894
vt 3.3939 0.0061 0.9925
vt 0.0100 2.9763 0.9818
vt 0.0100 0.0237 0.9818
vt 0.0760 1.4923 0.9818
vt 7.4985 0.4728 20.6919
vt 9.6110 8.3921 0.0298
vt 9.2786 9.4173 0.0165
vt 7.5015 9.5191 20.6919
vt -0.3890 8.3921 0.0298
vt 2.4985 9.5272 20.6569
vt -0.7214 9.4173 0.0165
vt 0.1818 0.7469 0.4196
vt 3.3940 0.0042 0.4196
vt 0.1818 0.9329 0.4196
vt 9.8181 1.0203 0.3534
vt 9.7211 1.0722 0.3307
vt 9.7211 0.9616 0.3708
vt 0.0066 2.8684 0.9914
vt 0.1818 0.4463 1.0000
vt 0.0000 2.5882 0.9993
vt 7.5026 7.7007 20.6919
vt 9.6994 6.9583 0.0384
vt 9.2857 0.1875 0.9818
vt 8.4799 0.4058 0.9818
vt 9.1236 0.6680 0.9818
vt 8.9011 0.5201 0.9818
vt 9.8181 2.9782 0.9924
vt 9.9248 1.4919 0.0182
vt 9.9273 0.0048 0.0182
vt 9.9900 2.9763 0.0182
vt 0.8514 0.7435 0.0182
vt 1.2738 0.4615 0.0182
vt 0.1818 0.9104 0.6698
vt 0.1818 0.5177 0.6726
vt 0.2789 0.6473 0.6558
vt 9.7211 0.9734 0.6413
vt 9.7211 0.8116 0.6222
vt 9.8181 0.8980 0.6298
vt 9.8182 0.9350 0.4196
vt 6.3201 0.5089 0.9894
vt 7.9242 0.3426 0.9894
vt 6.2917 0.9616 0.9894
vt 9.9983 2.8715 0.9927
vt 9.8182 2.8715 0.9927
vt 0.0000 0.0110 0.1387
vt 0.1818 0.0110 0.1387
vt 0.1818 0.1875 0.0714
vt 10.0000 2.5882 0.0007
vt 9.9091 0.4463 0.0000
vt 0.1818 0.8003 0.3546
vt 0.1818 0.5629 0.3351
vt 0.2789 0.6763 0.3542
vt 9.7211 0.9244 0.3298
vt 9.7211 0.7949 0.3466
vt 9.8181 0.6532 0.3469
vt 8.8727 2.5014 0.9818
vt 9.9934 2.7437 0.0023
vt 9.8181 2.5882 0.0007
vt 3.5335 2.5457 0.0182
vt 3.8396 2.4211 0.0182
vt 4.1960 2.6063 0.0182
vt 7.8741 2.6703 0.9818
vt 5.8040 2.6067 0.9818
vt 0.1818 0.4299 0.0010
vt 0.0000 2.5881 0.0007
vt 1.7879 1.2588 0.0019
vt 8.2121 0.0058 0.4196
vt 9.8182 0.3778 0.4196
vt 9.8182 0.5635 0.4196
vt 2.1577 0.4421 0.0182
vt 2.9932 0.3639 0.0182
vt 2.3936 0.3334 0.0182
vt 2.8419 0.0016 0.0182
vt 6.7553 1.9269 0.9818
vt 5.8040 1.1208 0.9818
vt 7.9242 1.8711 0.9894
vt 6.3201 2.0375 0.9894
vt 2.4969 2.8569 20.6569
vt 2.4977 1.2371 20.6569
vt 2.4979 1.2371 22.0672
vt 6.6060 1.2588 0.0014
vt 0.1818 2.8865 0.0021
vt 0.1818 0.5016 0.9924
vt 0.1818 0.0063 0.9924
vt 1.7879 0.0062 0.9924
vt 1.2738 1.9869 0.0182
vt 1.2613 2.2069 0.0182
vt 1.8140 1.1178 0.0182
vt 3.0354 1.1131 0.0182
vt 0.1818 1.1188 0.4196
vt 9.1136 0.8269 0.9894
vt 7.8741 1.1418 0.9894
vt 0.2789 0.8194 0.3797
vt 0.1818 0.9106 0.3710
vt 0.1818 0.5442 0.3726
vt 0.2789 0.8269 0.0886
vt 0.1818 1.0375 0.1339
vt 0.1818 0.7435 0.0851
vt 7.5000 2.7602 22.1022
vt 7.5000 7.1230 22.1022
vt 7.4979 8.7629 22.1022
vt 7.5002 9.9918 22.1022
vt 7.4993 9.6102 20.6919
vt 5.7015 0.7614 0.0169
vt 2.5002 0.0082 22.0672
vt 2.4999 3.3926 22.0672
vt 2.5001 6.4905 22.0672
vt 2.4971 2.8569 22.0672
vt 7.5002 6.7563 22.1022
vt 7.5010 0.2288 22.1022
vt 9.8181 2.4211 0.3840
vt 9.8181 2.5457 0.3534
vt 9.7211 2.4871 0.3708
vt 9.7211 0.9244 0.8383
vt 9.7211 0.7949 0.8550
vt 9.8181 0.6532 0.8554
vt 2.5011 9.7712 20.6569
vt 2.4998 10.0000 20.6568
vt 2.5010 9.7712 22.0672
vt 7.1144 9.7305 0.0074
vt 7.5002 9.9918 20.6919
vt 10.0000 2.8965 0.0007
vt 9.8181 2.9674 0.0005
vt 0.6726 0.1314 0.0000
vt 9.8181 1.0404 0.6566
vt 9.7211 2.3455 0.3926
vt 9.7211 2.1803 0.3921
vt 9.8181 2.2637 0.3956
vt 0.1818 2.6095 0.0000
vt 0.1818 2.9890 0.1387
vt 0.0000 2.9890 0.1387
vt 0.0000 0.4299 0.9990
vt 7.5002 3.2017 22.1022
vt 9.8182 0.1875 0.0714
vt 9.8182 0.0110 0.1387
vt 10.0000 0.0110 0.1387
vt 0.0000 0.4299 0.0010
vt 9.8182 2.6238 0.0011
vt 9.8182 0.3762 0.0011
vt 10.0000 0.3762 0.0011
vt 10.0000 0.1875 0.0714
vt 9.7211 0.4500 0.1365
vt 9.8181 0.3821 0.1538
vt 9.8181 0.6227 0.1142
vt 0.2789 0.6617 0.0881
vt 0.0000 2.6238 0.0011
vt 0.0000 0.3762 0.0011
vt 0.1818 0.3762 0.0011
vt 0.0000 0.1875 0.0714
vt 0.2789 0.6306 0.3802
vt 9.7211 0.5318 0.3326
vt 10.0000 2.6238 0.0011
vt 10.0000 2.9890 0.1387
vt 9.8182 2.9890 0.1387
vt 9.8182 0.4299 0.9990
vt 9.3973 0.1287 1.0000
vt 5.4925 2.9782 0.0182
vt 9.7211 0.6227 0.1142
vt 9.7211 0.8116 0.1137
vt 9.8181 0.7181 0.1111
vt 9.8181 0.8980 0.1213
vt 9.7211 0.6548 0.3921
vt 9.7211 0.5037 0.3666
vt 9.8181 0.5750 0.3822
vt 9.7211 0.8201 0.3926
vt 9.8181 0.7383 0.3956
vt 9.8181 0.8956 0.3840
vt 1.4567 2.4443 0.0279
vt 2.6496 2.5651 0.0279
vt 2.1019 2.6660 0.0279
vt 0.1818 2.2690 0.0851
vt 0.2789 2.3524 0.0886
vt 0.2789 2.5035 0.1141
vt 6.3201 0.5089 0.9818
vt 6.0791 0.6548 0.9818
vt 9.8182 0.6548 0.3921
vt 9.8941 0.5089 0.3680
vt 9.8941 0.9616 0.3708
vt 7.4995 0.5080 20.6919
vt 9.8181 0.0048 0.9927
vt 5.2726 4.9167 0.0423
vt 5.2969 3.2204 0.0388
vt 7.4967 3.4651 20.6919
vt 5.8040 1.4922 0.9818
vt 9.8182 1.8637 0.4196
vt 9.7211 0.6227 0.6227
vt 9.7211 0.4500 0.6450
vt 9.8181 0.7181 0.6196
vt 0.0909 2.6008 0.9972
vt 0.6367 2.8680 0.0000
vt 9.7211 0.8054 0.1265
vt 9.7211 0.6815 0.1261
vt 0.1818 0.6473 0.1474
vt 0.1818 0.5177 0.1641
vt 0.2789 0.5177 0.1641
vt 9.9091 2.6008 0.9972
vt 9.8181 0.8526 0.0005
vt 9.8181 0.4299 0.0010
vt 0.1818 2.4829 0.9924
vt 0.1818 2.9782 0.9924
vt 0.0760 1.9876 0.9818
vt 8.4799 0.4058 0.9894
vt 9.8182 2.4209 0.4196
vt 9.8182 2.1834 0.3921
vt 9.8941 2.0375 0.3680
vt 9.8941 2.4902 0.3708
vt 9.8181 0.4443 0.3468
vt 9.7211 0.3984 0.3245
vt 7.7840 0.4482 0.0073
vt 7.5007 0.5685 20.6919
vt -0.2954 3.4044 0.0390
vt 2.4966 4.6726 20.6569
vt -0.2758 5.2620 0.0418
vt 9.7046 3.4044 0.0390
vt 9.7242 5.2620 0.0418
vt 7.5034 4.6645 20.6919
vt 2.5002 0.0082 20.6568
vt -2.2160 0.4482 0.0073
vt 0.2789 2.0094 0.3035
vt 0.2789 2.2018 0.3542
vt 0.1818 2.0884 0.3351
vt 0.2789 2.3258 0.3546
vt 0.1818 2.2344 0.4196
vt 9.8181 2.1005 0.3822
vt 2.5034 5.3355 20.6569
vt 2.1773 1.0407 0.0182
vt 9.8181 0.9244 0.3298
vt 0.3783 0.0064 0.0007
vt 0.9810 0.0796 0.0007
vt 0.6367 0.1320 0.0007
vt 2.5001 2.7999 22.0672
vt 9.1136 2.3555 0.9818
vt 9.1136 2.3555 0.9894
vt 9.8181 2.5233 0.1773
vt 9.7211 2.4443 0.1457
vt 9.7211 2.2069 0.1261
vt 9.7211 0.5318 0.8411
vt 9.8181 0.5318 0.8411
vt 0.2789 0.8194 0.8882
vt 0.1818 0.9106 0.8795
vt 0.2789 0.6306 0.8887
vt 3.3824 2.4320 0.0279
vt 3.3071 2.5977 0.0279
vt 5.8040 0.9350 0.9818
vt 0.2789 0.7890 0.1470
vt 0.2789 0.9104 0.1613
vt 0.1818 0.9104 0.1613
vt 0.2789 0.6473 0.1474
vt 9.8182 0.7493 0.4196
vt 0.0000 2.8833 0.0028
vt 9.9900 0.0237 1.0000
vt 2.4999 7.0832 22.0672
vt 0.1818 0.9970 0.9924
vt 0.0760 0.9970 0.9818
vt 9.7211 0.9978 0.1773
vt 0.2789 0.9780 0.1141
vt 0.2789 1.0834 0.1563
vt 7.2685 2.6677 0.9894
vt 8.8727 2.5014 0.9894
vt 8.4374 2.6119 0.9894
vt 0.1059 0.8194 0.8892
vt 0.1818 0.6378 0.8901
vt 0.1818 0.9861 0.8682
vt 2.5628 2.9782 0.9818
vt 4.5076 2.9782 0.9818
vt 1.1414 2.5035 0.0279
vt 6.7128 2.6045 0.9818
vt 6.0691 2.3423 0.9818
vt 5.6409 9.3411 0.0184
vt 9.7211 2.1007 0.1425
vt 9.7211 2.0178 0.1726
vt 9.8181 2.0178 0.1726
vt 9.8181 2.2069 0.1261
vt 0.0100 2.9763 0.0000
vt 0.4385 2.9741 0.0007
vt 0.6367 2.8681 0.0007
vt 1.2664 2.9782 0.0007
vt 0.2789 2.1871 0.0881
vt 0.1818 1.9869 0.1274
vt 9.7211 0.4923 0.1726
vt 9.8181 0.5753 0.1425
vt 0.2789 0.5201 0.1099
vt 0.1818 0.5861 0.0968
vt 0.1818 2.4320 0.3382
vt 9.8181 0.9244 0.8383
vt 8.7336 2.9782 0.9998
vt 9.3273 2.8686 0.9998
vt 9.5784 2.9816 1.0000
vt 9.9097 2.9974 1.0000
vt 5.8040 2.0495 0.9818
vt 5.8040 1.8637 0.9818
vt 6.7553 1.9269 0.9894
vt 4.1960 0.1891 0.0182
vt 3.4680 0.4443 0.0182
vt 4.1960 0.3751 0.0182
vt 3.8215 0.5750 0.0182
vt 3.5335 1.0203 0.0182
vt 4.1960 1.1188 0.0182
vt 0.1818 2.9782 0.4196
vt 0.2789 2.0456 0.1099
vt 9.8181 0.3821 0.6623
vt 0.2789 0.9104 0.6698
vt 0.2789 0.8003 0.3546
vt 0.2789 0.9065 0.3382
vt 0.1818 0.4839 0.3035
vt 0.2789 0.5629 0.3351
vt 0.1818 0.9861 0.3586
vt 0.1059 0.9861 0.3586
vt 0.1059 0.6378 0.3806
vt 9.8182 0.9616 0.3708
vt 9.8182 0.8138 0.3931
vt 9.8182 0.0063 0.4196
vt 0.2789 0.9921 0.8659
vt 4.1960 1.8625 0.0182
vt 0.1059 0.8269 0.0886
vt 0.1818 0.8269 0.0886
vt 0.1818 1.0834 0.1563
vt 9.7211 2.0292 0.3666
vt 3.5419 2.2018 0.0279
vt 3.0346 2.0094 0.0279
vt 3.2447 1.9239 0.0279
vt 0.1818 0.6378 0.3806
vt 8.4374 1.0834 0.9894
vt 0.9677 0.5861 0.0182
vt 0.1818 0.4615 0.1274
vt 0.0000 2.8965 0.9993
vt 0.1819 2.8833 0.9972
vt 0.0909 2.9104 1.0000
vt 0.4215 2.9816 0.0000
vt 9.8182 2.6045 0.3287
vt 9.8941 2.6045 0.3287
vt 9.8182 2.3423 0.3931
vt 9.8182 1.2588 0.9927
vt 9.8182 2.8965 0.9993
vt 10.0000 2.8833 0.9972
vt 9.9091 2.9104 1.0000
vt 0.3451 0.0020 0.0000
vt 10.0000 2.9729 0.0009
vt 1.3392 1.0375 0.0182
vt 0.2789 0.4688 0.3611
vt 0.1818 0.4018 0.3458
vt 9.1405 0.0064 0.9998
vt 9.3973 0.1287 0.9998
vt 8.6593 0.0064 0.9998
vt 9.6217 0.0064 0.9998
vt 4.1960 0.0000 0.0182
vt 6.7553 0.3984 0.9894
vt 9.8182 0.5089 0.3680
vt 0.1819 2.9772 0.9927
vt 0.1819 2.9874 0.9963
vt 0.2789 2.4320 0.3382
vt 10.0000 0.4299 0.0010
vt 9.8941 0.6227 0.6237
vt 9.8182 0.9734 0.6423
vt 9.8182 0.6227 0.6237
vt 0.1059 1.9344 0.1520
vt 0.1818 1.9344 0.1520
vt 0.1818 2.1965 0.0876
vt 9.8182 2.0375 0.3680
vt 9.8182 1.9269 0.3245
vt 0.1818 2.5629 0.1339
vt 0.2789 0.4688 0.8696
vt 0.1818 0.5442 0.8811
vt 0.1818 0.4018 0.8543
vt 9.8182 2.9772 0.9927
vt 9.8182 2.9874 0.9963
vt 9.9934 2.7057 0.0265
vt 9.9957 2.8090 0.0440
vt 0.1818 2.9874 0.0037
vt 0.0000 2.9874 0.0037
vt 9.8182 0.6227 0.1142
vt 9.8941 0.6227 0.1142
vt 9.8182 0.9734 0.1328
vt 9.8941 0.4560 0.1353
vt 0.0760 2.4829 0.9818
vt 0.0760 0.5016 0.9818
vt 3.3506 2.0884 0.0182
vt 0.1818 2.0094 0.3035
vt 0.1059 2.0487 0.1099
vt 0.1059 2.3555 0.0886
vt 0.8864 2.3524 0.0279
vt 1.2613 2.2069 0.0279
vt 0.1818 1.0601 0.8486
vt 9.7211 2.5977 0.3307
vt 3.8215 2.1005 0.0182
vt 9.8181 1.9697 0.3468
vt 6.7889 2.9782 0.0182
vt 9.8941 1.0759 0.3287
vt 1.2654 0.8054 0.0182
vt 0.1818 0.4688 0.8706
vt 1.7727 2.5233 0.0182
vt 0.1818 0.6680 0.0876
vt 2.7315 1.1392 0.0279
vt 2.1019 1.1406 0.0279
vt 1.7727 0.9978 0.0279
vt 1.0989 2.0456 0.0279
vt 1.5001 1.9350 0.0279
vt 2.1577 1.9675 0.0279
vt 0.2789 1.9350 0.1500
vt 3.8396 0.8956 0.0182
vt 2.0758 1.8681 0.0279
vt 2.7054 1.8666 0.0279
vt 0.2789 0.9921 0.3574
vt 3.3824 0.9065 0.0279
vt 3.3071 1.0722 0.0279
vt 9.6111 0.0084 1.0000
vt 0.1059 0.9861 0.8682
vt 3.5459 0.8003 0.0182
vt 0.1818 0.9894 0.3081
vt 0.1818 0.4688 0.3611
vt 1.7727 0.9978 0.0182
vt 9.8181 0.5318 0.3326
vt 9.7211 0.9734 0.1328
vt 2.7054 0.3412 0.0279
vt 3.2447 0.3984 0.0279
vt 3.3506 0.5629 0.0279
vt 1.5001 0.4095 0.0279
vt 1.2613 0.6815 0.0279
vt 1.0989 0.5201 0.0279
vt 0.2789 0.4095 0.1500
vt 9.8941 0.4560 0.6448
vt 7.4999 2.7999 22.4371
vt 7.5000 3.4324 22.4371
vt 7.5002 6.6253 22.4371
vt 7.4998 6.9484 22.4371
vt 3.0346 0.4839 0.0182
vt 0.1818 1.0601 0.3401
vt 9.8181 1.0404 0.1481
vt 9.8182 0.3984 0.3245
vt 0.0000 2.9874 0.9963
vt 2.4998 6.7563 22.4371
vt 2.4999 2.7757 22.4371
vt 5.8040 0.7493 0.9818
vt 2.7315 2.6646 0.0279
vt 0.8810 2.1871 0.0279
vt 9.7211 1.9239 0.3245
vt 3.6659 2.0292 0.0279
vt 3.9209 2.1803 0.0279
vt 3.5459 2.3258 0.0279
vt 10.0000 2.9729 0.9991
vt 3.7083 2.4871 0.0279
# 603 texture coords

o Lampara
g Lampara
usemtl Material__25
s 1
f 1/1/1 2/2/1 3/3/1 
f 4/4/2 5/5/2 6/6/2 
f 7/7/1 8/8/1 9/9/1 
f 5/5/2 10/10/2 6/6/2 
f 11/11/3 12/12/3 13/13/4 
f 14/14/5 15/15/5 16/16/5 
f 17/17/5 18/18/5 16/16/5 
f 19/19/6 7/20/6 20/21/6 
f 1/1/1 7/7/1 21/22/1 
f 22/23/7 23/24/7 24/25/7 
f 25/26/7 26/27/7 24/25/7 
f 27/28/6 28/29/6 7/20/6 
f 29/30/4 11/11/3 30/31/4 
f 31/32/4 1/33/4 11/11/3 
f 7/20/6 32/34/6 20/21/6 
f 3/3/1 7/7/1 1/1/1 
f 1/1/1 31/35/1 2/2/1 
f 33/36/7 34/37/7 35/38/7 
f 21/39/5 36/40/5 37/41/5 
f 38/42/7 39/43/7 24/25/7 
f 40/44/5 28/45/5 41/46/5 
f 42/47/5 21/39/5 43/48/5 
usemtl Material__26
f 44/49/8 45/50/9 46/51/9 
f 47/52/10 48/53/11 49/54/10 
f 50/49/8 51/50/9 52/51/9 
f 53/52/10 54/53/11 55/54/10 
f 55/54/10 56/55/11 57/56/10 
f 58/57/12 59/58/13 60/59/12 
f 49/54/10 61/55/11 62/56/10 
f 63/57/12 64/58/13 65/59/12 
usemtl Material__25
f 4/4/2 6/6/2 66/60/2 
f 6/61/6 19/19/6 20/21/6 
f 11/11/3 5/62/4 67/63/4 
f 10/10/2 68/64/2 69/65/2 
f 70/66/7 71/67/7 34/37/7 
f 72/68/1 73/69/1 7/7/1 
f 74/70/5 75/71/5 76/72/5 
f 30/73/1 77/74/1 78/75/1 
usemtl Material__26
f 60/59/14 59/58/15 79/76/15 
f 57/56/16 56/55/17 80/77/17 
f 65/59/14 64/58/15 81/78/15 
f 62/56/16 61/55/17 82/77/17 
usemtl Material__25
f 83/79/5 84/80/5 85/81/5 
f 7/7/1 86/82/1 87/83/1 
f 13/84/7 12/85/7 88/86/7 
f 89/87/7 90/88/7 91/89/7 
f 92/90/5 93/91/5 94/92/5 
f 93/91/5 95/93/5 94/92/5 
usemtl Material__26
f 45/50/18 44/49/19 96/94/19 
f 48/53/17 47/52/16 97/95/16 
f 51/50/18 50/49/19 98/94/19 
f 54/53/17 53/52/16 99/95/16 
f 100/96/20 63/57/12 65/59/21 
f 101/97/21 63/98/12 100/99/20 
f 49/54/10 48/53/11 102/100/22 
f 102/100/22 61/55/11 49/54/10 
f 103/96/20 58/57/12 60/59/21 
f 104/97/21 58/98/12 103/99/20 
f 55/54/10 54/53/11 105/100/22 
f 105/100/22 56/55/11 55/54/10 
usemtl Material__25
f 106/101/23 107/102/23 108/103/23 
f 109/104/5 110/105/5 17/17/5 
f 111/106/5 112/107/5 113/108/5 
f 30/73/1 114/109/1 29/110/1 
f 70/66/7 115/111/7 116/112/7 
f 117/113/23 118/114/23 119/115/23 
f 120/116/2 121/117/2 122/118/2 
f 123/119/4 124/120/4 11/11/3 
f 26/121/2 125/122/2 126/123/2 
f 127/124/6 41/125/6 6/61/6 
f 93/91/5 128/126/5 95/93/5 
f 129/127/24 130/128/25 131/129/25 
usemtl Material__26
f 132/130/26 133/131/27 134/132/27 
f 135/133/28 133/131/28 132/130/29 
f 136/130/26 137/131/27 138/132/27 
f 139/133/28 137/131/28 136/130/29 
usemtl Material__25
f 89/87/7 13/84/7 88/86/7 
f 140/134/5 16/16/5 18/18/5 
f 122/118/2 141/135/2 120/116/2 
f 110/136/30 109/137/30 142/138/30 
usemtl Material__26
f 143/139/31 138/132/32 144/140/32 
f 96/94/19 145/141/18 45/50/18 
f 146/139/31 134/132/32 147/140/32 
f 98/94/19 148/141/18 51/50/18 
usemtl Material__25
f 149/142/5 84/80/5 83/79/5 
f 150/143/5 40/44/5 151/144/5 
usemtl Material__26
f 152/145/18 81/78/19 153/146/19 
f 154/147/26 155/148/27 156/149/27 
f 157/148/32 80/77/31 158/150/31 
f 159/145/18 160/78/19 161/146/19 
usemtl Material__25
f 68/151/4 11/11/3 69/152/4 
f 126/123/2 162/153/2 26/121/2 
f 39/43/7 163/154/7 24/25/7 
f 92/90/5 40/44/5 93/91/5 
f 164/155/7 165/156/7 166/157/7 
f 165/156/7 142/158/7 73/159/7 
f 167/160/1 168/161/1 7/7/1 
f 106/101/23 108/103/23 169/162/23 
f 67/163/2 5/5/2 4/4/2 
f 141/164/7 122/165/7 4/166/7 
usemtl Material__26
f 156/149/27 170/167/26 154/147/26 
f 139/133/28 170/167/29 156/149/28 
f 171/149/27 172/167/26 173/147/26 
f 135/133/28 172/167/29 171/149/28 
f 174/168/33 175/169/34 176/170/35 
f 174/171/33 177/172/35 175/173/34 
f 178/168/33 179/169/34 180/170/35 
f 178/171/33 181/172/35 179/173/34 
usemtl Material__25
f 182/174/1 183/175/1 184/176/1 
f 185/177/36 186/178/37 187/179/38 
f 127/124/6 188/180/39 41/125/6 
f 40/181/30 41/125/30 25/182/30 
usemtl Material__26
f 161/146/19 189/183/18 159/145/18 
f 189/183/9 161/146/8 52/184/9 
f 153/146/19 190/183/18 152/145/18 
f 190/183/9 153/146/8 46/184/9 
usemtl Material__25
f 88/86/7 191/185/7 192/186/7 
f 33/36/7 119/187/7 118/188/7 
f 6/6/2 10/10/2 126/189/2 
f 10/190/5 162/191/5 126/192/5 
f 37/41/5 128/126/5 193/193/5 
f 194/194/5 113/108/5 112/107/5 
f 85/195/40 84/196/41 195/197/41 
f 196/198/42 197/199/43 42/200/44 
f 31/35/1 198/201/1 2/2/1 
f 199/202/23 200/203/23 201/204/23 
f 202/205/6 203/206/39 142/138/39 
f 142/138/39 203/206/39 6/61/6 
f 23/207/45 111/208/45 113/209/45 
f 22/210/46 29/30/46 204/211/4 
f 205/212/47 74/213/48 206/214/48 
f 187/215/49 207/216/50 208/217/50 
f 164/155/7 166/157/7 209/218/7 
f 33/36/7 164/155/7 34/37/7 
f 210/219/3 69/152/4 11/11/3 
f 22/210/46 11/220/46 29/30/46 
f 211/221/5 87/222/5 86/223/5 
f 150/143/5 28/45/5 40/44/5 
f 212/224/7 165/156/7 73/159/7 
f 73/159/7 72/225/7 212/224/7 
f 11/11/3 124/120/4 12/12/3 
f 88/226/4 12/12/46 15/227/46 
f 13/13/4 213/228/4 11/11/3 
f 213/229/1 91/230/1 214/231/1 
f 74/70/5 76/72/5 215/232/5 
f 216/233/5 217/234/5 218/235/5 
f 219/236/7 2/237/7 70/66/7 
f 220/238/23 108/103/23 221/239/23 
usemtl Material__26
f 222/240/15 223/241/14 224/242/14 
f 63/98/12 223/241/12 222/240/13 
f 225/240/15 226/241/14 227/242/14 
f 58/98/12 226/241/12 225/240/13 
usemtl Material__25
f 11/11/3 1/33/4 183/243/4 
f 183/175/1 1/1/1 21/22/1 
f 228/244/4 124/120/4 123/119/4 
f 229/245/2 122/246/2 123/247/2 
f 95/93/5 230/248/5 94/92/5 
f 84/80/5 149/142/5 231/249/5 
f 232/250/5 233/251/5 21/39/5 
f 183/175/1 21/22/1 234/252/1 
f 34/37/7 71/67/7 35/38/7 
f 117/113/23 235/253/23 236/254/23 
f 207/255/41 233/256/41 232/257/51 
f 237/258/48 238/259/52 193/260/48 
usemtl Material__26
f 155/148/53 239/261/53 240/262/53 
f 241/263/16 242/264/54 243/265/54 
f 135/133/28 244/266/55 172/167/29 
f 132/130/29 244/266/55 135/133/28 
f 139/133/28 245/266/55 170/167/29 
f 136/130/29 245/266/55 139/133/28 
f 246/267/56 224/242/57 101/97/57 
f 247/268/7 248/269/7 249/270/7 
f 250/268/7 251/269/7 98/94/7 
f 252/267/56 227/242/57 104/97/57 
f 253/271/53 254/272/53 160/78/53 
f 79/76/15 254/272/14 60/59/14 
usemtl Material__25
f 87/273/58 211/274/38 255/275/38 
f 256/276/49 257/277/50 149/278/50 
usemtl Material__26
f 258/279/54 259/280/59 260/281/59 
f 261/282/60 259/280/60 258/279/61 
f 262/279/54 263/280/59 264/281/59 
f 265/282/60 263/280/60 262/279/61 
f 180/170/62 266/283/59 242/264/59 
f 265/282/60 266/283/63 180/170/34 
f 176/170/62 267/283/59 268/264/59 
f 261/282/60 267/283/63 176/170/34 
usemtl Material__25
f 210/219/3 269/284/4 162/285/3 
f 270/286/7 24/25/7 26/27/7 
f 196/198/42 42/200/44 43/287/42 
f 271/288/64 272/289/24 273/290/65 
f 93/291/66 40/292/66 24/293/66 
f 25/182/30 24/294/30 40/181/30 
usemtl Material__26
f 81/78/53 274/271/53 275/295/53 
f 81/78/15 276/272/14 65/59/14 
usemtl Material__25
f 191/296/45 88/297/45 14/298/45 
f 15/227/46 14/299/4 88/226/4 
f 164/300/67 33/301/67 18/302/67 
f 140/303/45 18/302/45 191/296/45 
f 277/304/49 194/305/49 112/306/68 
f 278/307/47 237/258/48 193/260/69 
f 163/308/67 39/309/67 128/310/67 
f 113/209/45 39/309/45 38/311/45 
f 207/255/41 232/257/51 279/312/40 
f 207/216/50 280/313/43 208/217/43 
f 128/310/67 93/291/67 163/308/67 
f 24/293/66 163/308/66 93/291/66 
f 17/314/66 110/315/66 165/316/66 
f 142/138/30 165/317/30 110/136/30 
f 18/302/67 17/314/67 164/300/67 
f 165/316/66 164/300/66 17/314/66 
usemtl Material__26
f 99/95/7 251/269/7 134/132/7 
f 260/281/54 99/95/16 53/52/16 
f 248/269/7 247/268/7 97/95/7 
f 264/281/54 97/95/16 47/52/16 
f 253/271/53 80/77/53 173/147/53 
f 281/263/16 268/264/54 282/265/54 
usemtl Material__25
f 15/227/4 12/12/3 124/120/4 
f 283/318/5 16/16/5 15/15/5 
f 28/45/5 27/319/5 41/46/5 
f 19/19/6 6/61/6 41/125/6 
f 284/320/50 277/304/49 112/306/68 
f 285/321/43 217/322/43 216/323/44 
f 206/324/24 286/325/25 77/326/70 
f 287/327/64 182/328/65 184/329/64 
f 288/330/5 257/331/5 289/332/5 
f 94/333/52 290/334/48 291/335/71 
f 91/89/7 292/336/7 214/337/7 
f 214/338/48 199/339/48 201/340/72 
usemtl Material__26
f 254/272/57 173/147/56 293/341/56 
f 173/147/53 294/261/53 253/271/53 
usemtl Material__25
f 210/219/3 162/285/3 69/152/4 
f 10/10/2 69/65/2 162/342/2 
usemtl Material__26
f 295/343/73 296/344/74 297/345/75 
f 147/140/75 296/344/74 295/343/73 
f 298/343/73 299/344/74 300/345/75 
f 144/140/75 299/344/74 298/343/73 
usemtl Material__25
f 219/236/7 3/346/7 2/237/7 
f 301/347/1 167/160/1 7/7/1 
f 302/348/50 303/349/49 36/350/68 
f 36/40/5 230/248/5 95/93/5 
f 188/180/39 25/182/39 304/351/6 
f 25/26/7 305/352/7 26/27/7 
f 237/353/24 278/354/64 129/127/64 
f 215/355/41 76/356/37 277/357/37 
f 202/205/6 306/358/6 109/137/39 
f 109/104/5 17/17/5 16/16/5 
f 204/211/4 218/359/46 111/360/4 
f 217/234/5 111/106/5 218/235/5 
f 307/361/2 6/6/2 141/362/2 
f 4/166/7 66/363/7 141/164/7 
f 201/204/23 200/203/23 192/364/23 
f 192/186/7 89/87/7 88/86/7 
f 308/365/1 72/68/1 7/7/1 
f 168/366/48 221/367/48 108/368/72 
f 286/325/25 309/369/25 77/326/70 
f 286/325/25 310/370/42 309/369/76 
usemtl Material__26
f 311/371/77 312/372/77 313/341/78 
f 313/341/56 312/372/57 276/272/57 
f 314/371/77 315/372/77 293/341/78 
f 293/341/56 315/372/57 254/272/57 
f 316/373/79 317/374/80 318/375/81 
f 316/376/79 318/377/81 319/378/80 
f 320/373/79 321/374/80 322/375/81 
f 320/376/79 322/377/81 323/378/80 
f 101/97/57 324/379/56 246/267/56 
f 324/379/77 101/97/82 311/380/77 
f 104/97/57 325/379/56 252/267/56 
f 325/379/77 104/97/82 314/380/77 
usemtl Material__25
f 326/381/83 327/382/71 328/383/71 
f 328/383/48 327/382/48 271/384/47 
f 7/7/1 273/385/1 8/8/1 
f 272/289/24 8/386/24 273/290/65 
usemtl Material__26
f 147/140/32 329/387/31 146/139/31 
f 295/343/73 329/387/73 147/140/75 
f 144/140/32 330/387/31 143/139/31 
f 298/343/73 330/387/73 144/140/75 
f 295/343/73 297/345/75 158/150/73 
f 158/150/31 297/345/32 157/148/32 
f 298/343/73 300/345/75 331/150/73 
f 331/150/31 300/345/32 155/148/32 
usemtl Material__25
f 75/71/5 208/388/5 76/72/5 
f 208/217/50 75/389/49 187/215/49 
f 269/390/84 210/391/23 270/392/84 
f 270/286/7 22/23/7 24/25/7 
usemtl Material__26
f 251/269/7 250/268/7 134/132/7 
f 252/267/7 332/393/7 227/242/7 
f 97/95/7 247/268/7 138/132/7 
f 224/242/7 138/132/7 333/393/7 
usemtl Material__25
f 34/37/7 164/155/7 334/394/7 
f 106/101/23 334/395/23 107/102/23 
f 335/396/25 288/397/25 336/398/24 
f 257/277/43 288/399/42 335/400/42 
f 337/401/41 150/402/51 289/403/40 
f 257/331/5 256/404/5 338/405/5 
f 2/237/7 198/406/7 115/111/7 
f 70/66/7 2/237/7 115/111/7 
usemtl Material__26
f 155/148/53 154/147/53 239/261/53 
f 81/78/53 275/295/53 276/272/53 
usemtl Material__25
f 285/407/40 286/408/83 339/409/83 
f 277/357/37 284/410/41 215/355/41 
f 31/32/4 11/11/3 213/228/4 
f 340/411/1 31/35/1 213/229/1 
f 124/120/4 228/244/4 341/412/4 
f 283/318/5 121/413/5 16/16/5 
f 11/11/3 183/243/4 30/31/4 
f 30/73/1 183/175/1 182/174/1 
usemtl Material__26
f 81/78/53 242/264/53 274/271/53 
f 240/262/53 242/264/53 241/263/53 
f 160/78/53 268/264/53 342/262/53 
f 342/262/53 268/264/53 80/77/53 
f 248/269/7 145/141/7 249/270/7 
f 343/414/7 97/95/7 264/281/7 
f 344/414/7 99/95/7 260/281/7 
f 344/414/7 260/281/7 98/94/7 
usemtl Material__25
f 67/163/2 4/4/2 345/415/2 
f 4/166/7 122/165/7 345/416/7 
f 280/417/42 131/129/25 130/128/25 
f 131/418/71 280/419/83 238/259/85 
f 346/420/23 209/421/23 166/422/23 
f 346/423/50 212/424/50 347/425/86 
f 142/138/39 6/61/6 20/21/6 
f 142/158/7 20/426/7 32/427/7 
f 151/144/5 40/44/5 92/90/5 
f 289/332/5 291/428/5 288/330/5 
f 347/429/7 72/225/7 308/430/7 
f 212/224/7 72/225/7 347/429/7 
usemtl Material__26
f 227/242/7 250/268/7 98/94/7 
f 348/270/15 98/94/87 317/374/87 
f 249/270/15 96/94/87 321/374/87 
f 249/270/7 145/141/7 96/94/7 
f 262/279/61 349/431/88 265/282/60 
f 265/282/60 349/431/88 243/265/61 
f 258/279/61 350/431/88 261/282/60 
f 261/282/60 350/431/88 282/265/61 
usemtl Material__25
f 351/432/38 195/433/37 84/434/37 
f 351/432/38 84/434/38 231/435/64 
f 11/11/3 67/63/4 123/119/4 
f 123/247/2 67/163/2 345/415/2 
usemtl Material__26
f 155/148/32 82/77/31 331/150/31 
f 240/262/53 241/263/53 155/148/53 
usemtl Material__25
f 26/27/7 305/352/7 125/436/7 
f 188/437/84 305/438/23 25/439/23 
f 352/440/47 94/333/47 230/441/89 
f 352/440/47 290/334/48 94/333/69 
f 278/354/38 277/442/37 76/443/37 
f 353/444/90 278/307/47 354/445/89 
f 271/384/47 83/446/47 328/383/48 
f 149/278/50 83/447/49 256/276/49 
f 109/448/5 16/449/5 202/450/5 
f 16/16/5 121/413/5 120/451/5 
f 219/236/7 167/452/7 301/453/7 
f 221/239/23 219/454/23 220/238/23 
usemtl Material__26
f 52/51/9 51/50/91 174/171/33 
f 52/184/9 174/168/33 189/183/91 
f 46/51/9 45/50/91 178/171/33 
f 46/184/9 178/168/33 190/183/91 
usemtl Material__25
f 216/233/5 218/235/5 114/455/5 
f 309/456/5 78/457/5 77/458/5 
f 21/39/5 185/459/5 234/460/5 
f 184/329/58 185/177/38 187/179/38 
f 28/461/1 86/82/1 7/7/1 
f 28/45/5 150/143/5 86/223/5 
usemtl Material__26
f 173/147/53 254/272/53 294/261/53 
f 254/272/53 253/271/53 355/295/53 
usemtl Material__25
f 351/462/90 352/440/47 230/441/89 
f 303/349/49 230/463/49 36/350/68 
f 302/348/50 36/350/92 197/199/43 
f 195/197/41 326/464/40 85/195/40 
f 68/151/4 5/62/4 11/11/3 
f 10/10/2 5/5/2 68/64/2 
usemtl Material__26
f 45/50/33 181/172/35 178/171/33 
f 181/172/62 45/50/18 145/141/18 
f 51/50/33 177/172/35 174/171/33 
f 177/172/62 51/50/18 148/141/18 
usemtl Material__25
f 287/465/47 187/466/90 205/212/90 
f 187/179/38 287/327/64 184/329/58 
f 74/213/71 339/467/83 286/468/83 
f 286/468/71 206/214/48 74/213/48 
f 115/469/86 117/470/86 236/471/50 
f 201/340/90 115/472/90 340/473/72 
f 91/230/1 213/229/1 13/474/1 
f 91/89/7 13/84/7 89/87/7 
f 150/143/5 211/221/5 86/223/5 
f 337/401/41 338/475/37 150/402/93 
f 7/7/1 9/9/1 21/22/1 
f 21/39/5 9/476/5 43/48/5 
f 235/477/94 35/478/94 71/479/42 
f 235/253/23 117/113/23 119/115/23 
f 113/108/5 194/194/5 128/126/5 
f 39/309/45 113/209/45 128/310/45 
f 8/386/70 272/289/24 356/480/25 
f 327/481/5 326/482/5 196/483/5 
usemtl Material__26
f 350/431/88 57/56/95 282/265/88 
f 282/265/54 57/56/16 281/263/16 
f 349/431/88 62/56/95 243/265/88 
f 243/265/54 62/56/16 241/263/16 
usemtl Material__25
f 236/471/50 116/484/50 115/469/86 
f 235/253/23 71/485/23 236/254/23 
f 354/486/5 128/126/5 194/194/5 
f 353/444/90 354/445/90 194/487/96 
f 188/488/97 127/489/97 357/490/98 
f 305/352/7 188/491/7 125/436/7 
f 347/492/90 108/368/90 107/493/86 
f 108/368/90 347/492/90 308/494/72 
usemtl Material__26
f 178/168/33 180/170/35 190/183/33 
f 190/183/18 180/170/62 152/145/62 
f 174/168/33 176/170/35 189/183/33 
f 189/183/18 176/170/62 159/145/62 
usemtl Material__25
f 284/320/50 217/322/92 285/321/43 
f 284/410/41 285/407/40 339/409/40 
f 142/158/7 32/427/7 73/159/7 
f 7/20/6 73/495/6 32/34/6 
f 203/496/97 202/497/97 358/498/98 
f 16/16/5 120/451/5 202/450/5 
usemtl Material__26
f 321/374/87 222/240/15 249/270/15 
f 222/240/79 321/374/80 320/373/79 
f 317/374/87 225/240/15 348/270/15 
f 225/240/79 317/374/80 316/373/79 
f 173/147/53 80/77/53 157/148/53 
f 173/147/26 157/148/27 171/149/27 
f 320/376/79 323/378/80 64/58/79 
f 64/58/15 323/378/87 81/78/87 
f 316/376/79 319/378/80 59/58/79 
f 59/58/15 319/378/87 160/78/87 
usemtl Material__25
f 270/286/7 26/27/7 269/499/7 
f 162/285/99 269/284/4 26/500/100 
usemtl Material__26
f 134/132/27 252/267/26 132/130/26 
f 332/393/7 252/267/7 134/132/7 
f 138/132/27 246/267/26 136/130/26 
f 138/132/7 224/242/7 246/267/7 
usemtl Material__25
f 128/126/5 37/41/5 95/93/5 
f 36/40/5 95/93/5 37/41/5 
f 232/250/5 21/39/5 37/41/5 
f 193/193/5 238/501/5 37/41/5 
f 280/502/83 232/257/101 238/503/83 
f 238/501/5 232/250/5 37/41/5 
f 124/504/5 283/505/102 15/506/5 
f 283/505/102 124/504/5 341/507/102 
f 192/364/23 118/114/23 201/204/23 
f 192/186/7 191/185/7 118/188/7 
f 29/30/46 218/359/46 204/211/4 
f 29/508/5 114/455/5 218/235/5 
f 199/202/23 90/509/23 200/203/23 
f 199/339/48 214/338/48 292/510/103 
f 191/185/7 33/36/7 118/188/7 
f 18/302/45 33/301/45 191/296/45 
f 301/453/7 3/346/7 219/236/7 
f 3/3/1 301/347/1 7/7/1 
usemtl Material__26
f 242/264/59 152/145/62 180/170/62 
f 152/145/53 242/264/53 81/78/53 
f 268/264/59 159/145/62 176/170/62 
f 159/145/53 268/264/53 160/78/53 
f 154/147/53 276/272/53 239/261/53 
f 276/272/57 154/147/56 313/341/56 
f 145/141/7 343/414/7 264/281/7 
f 145/141/62 264/281/59 263/280/59 
f 98/94/7 260/281/7 148/141/7 
f 148/141/62 260/281/59 259/280/59 
usemtl Material__25
f 126/511/6 127/124/6 6/61/6 
f 127/489/30 126/512/30 357/490/30 
usemtl Material__26
f 293/341/78 244/266/55 314/371/77 
f 325/379/77 314/380/77 244/266/55 
f 313/341/78 245/266/55 311/371/77 
f 324/379/77 311/380/77 245/266/55 
usemtl Material__25
f 271/384/47 256/513/90 83/446/90 
f 255/275/38 271/288/64 87/273/58 
f 22/210/46 204/211/4 23/514/4 
f 111/360/104 23/514/104 204/211/46 
f 220/515/105 219/516/105 70/517/41 
f 169/518/106 70/519/106 34/520/38 
f 221/367/48 168/366/48 167/521/103 
f 221/367/103 167/521/103 219/522/83 
f 291/335/71 92/523/71 94/333/52 
f 291/524/83 151/525/101 92/526/83 
f 336/398/24 231/435/24 335/396/25 
f 231/435/64 336/398/64 351/432/38 
f 203/206/39 141/527/6 6/61/6 
f 141/528/30 203/496/30 358/498/30 
f 334/395/23 209/421/23 346/420/23 
f 164/155/7 209/218/7 334/394/7 
f 210/219/3 11/220/3 22/210/3 
f 210/529/107 22/210/108 270/530/109 
f 122/531/100 121/532/100 228/244/4 
f 228/244/4 123/119/4 122/531/4 
f 89/533/105 200/534/105 90/535/83 
f 200/534/41 89/533/41 192/536/106 
f 206/324/24 77/326/24 182/328/65 
f 30/73/1 182/174/1 77/74/1 
f 7/7/1 87/83/1 273/385/1 
f 271/288/64 273/290/65 87/273/64 
f 66/60/2 6/6/2 307/361/2 
f 66/363/7 307/537/7 141/164/7 
f 123/247/2 345/415/2 229/245/2 
f 229/538/7 345/416/7 122/165/7 
f 328/539/5 83/79/5 85/81/5 
f 328/383/71 85/540/83 326/381/83 
f 238/259/52 237/258/48 131/418/71 
f 131/129/25 237/353/24 129/127/24 
f 201/340/72 340/473/72 214/338/48 
f 213/229/1 214/231/1 340/411/1 
f 34/520/38 106/541/38 169/518/106 
f 106/541/110 34/520/110 334/542/24 
usemtl Material__26
f 100/96/20 65/59/20 312/372/82 
f 312/372/57 65/59/14 276/272/14 
f 103/96/20 60/59/20 315/372/82 
f 315/372/57 60/59/14 254/272/14 
usemtl Material__25
f 290/543/5 336/544/5 288/330/5 
f 288/330/5 291/428/5 290/543/5 
f 338/475/37 211/545/37 150/402/93 
f 338/546/37 255/275/38 211/274/36 
usemtl Material__26
f 245/266/55 136/130/55 324/379/78 
f 324/379/56 136/130/26 246/267/26 
f 244/266/55 132/130/55 325/379/78 
f 325/379/56 132/130/26 252/267/26 
usemtl Material__25
f 8/547/5 43/48/5 9/476/5 
f 356/480/25 43/548/25 8/386/70 
f 206/214/48 287/465/47 205/212/47 
f 287/327/64 206/324/24 182/328/65 
f 27/319/5 19/549/5 41/46/5 
f 27/28/6 7/20/6 19/19/6 
usemtl Material__26
f 300/345/32 156/149/27 155/148/27 
f 156/149/111 300/345/74 299/344/74 
f 297/345/32 171/149/27 157/148/27 
f 171/149/111 297/345/74 296/344/74 
f 137/131/27 144/140/32 138/132/32 
f 299/344/74 144/140/74 137/131/111 
f 133/131/27 147/140/32 134/132/32 
f 296/344/74 147/140/74 133/131/111 
usemtl Material__25
f 115/472/90 201/340/90 117/550/86 
f 118/114/23 117/113/23 201/204/23 
f 289/403/40 150/402/51 151/525/40 
f 291/524/83 289/403/40 151/525/101 
f 76/443/38 129/127/64 278/354/64 
f 129/551/5 76/72/5 208/388/5 
f 212/424/112 346/423/112 166/552/42 
f 165/156/7 212/224/7 166/157/7 
f 335/400/42 149/278/43 257/277/43 
f 231/249/5 149/142/5 335/553/5 
usemtl Material__26
f 53/52/16 258/279/54 260/281/54 
f 350/431/88 258/279/88 53/52/95 
f 47/52/16 262/279/54 264/281/54 
f 349/431/88 262/279/88 47/52/95 
usemtl Material__25
f 35/478/24 235/477/24 119/554/110 
f 33/36/7 35/38/7 119/187/7 
f 207/555/5 279/556/5 280/557/5 
f 280/502/83 279/312/40 232/257/101 
usemtl Material__26
f 102/100/22 48/53/22 330/387/113 
f 330/387/31 48/53/17 143/139/17 
f 105/100/22 54/53/22 329/387/113 
f 329/387/31 54/53/17 146/139/17 
usemtl Material__25
f 351/558/5 303/559/5 195/560/5 
f 303/561/49 351/462/90 230/441/96 
usemtl Material__26
f 61/55/17 331/150/31 82/77/31 
f 102/100/22 331/150/113 61/55/22 
f 56/55/17 158/150/31 80/77/31 
f 105/100/22 158/150/113 56/55/22 
usemtl Material__25
f 184/562/5 234/460/5 185/459/5 
f 183/175/1 234/252/1 184/176/1 
f 278/307/47 193/260/69 354/445/47 
f 128/126/5 354/486/5 193/193/5 
usemtl Material__26
f 175/173/34 177/172/34 259/280/63 
f 259/280/59 177/172/62 148/141/62 
f 179/173/34 181/172/34 263/280/63 
f 263/280/59 181/172/62 145/141/62 
usemtl Material__25
f 23/207/45 113/209/45 38/311/45 
f 24/25/7 23/24/7 38/42/7 
f 14/298/45 140/303/45 191/296/45 
f 16/16/5 140/134/5 14/14/5 
usemtl Material__26
f 58/98/12 225/240/13 316/373/79 
f 316/376/79 59/58/13 58/57/12 
f 63/98/12 222/240/13 320/373/79 
f 320/376/79 64/58/13 63/57/12 
f 102/100/22 298/343/73 331/150/113 
f 102/100/22 330/387/113 298/343/73 
f 105/100/22 295/343/73 158/150/113 
f 105/100/22 329/387/113 295/343/73 
usemtl Material__25
f 302/563/5 197/564/5 326/482/5 
f 197/564/5 196/483/5 326/482/5 
f 207/255/41 186/565/37 233/256/93 
f 207/555/5 187/566/5 186/567/5 
f 108/368/72 308/494/72 168/366/48 
f 168/161/1 308/365/1 7/7/1 
f 341/412/114 228/244/115 121/532/116 
f 283/318/5 341/568/5 121/413/5 
f 347/425/86 107/569/86 346/423/50 
f 107/102/23 334/395/23 346/420/23 
f 205/570/5 75/71/5 74/70/5 
f 75/571/49 205/212/90 187/466/90 
f 71/67/7 70/66/7 116/112/7 
f 116/484/112 236/471/112 71/572/42 
f 208/388/5 130/573/5 129/551/5 
f 130/574/42 208/217/43 280/313/43 
f 310/575/42 285/321/43 216/323/44 
f 285/576/5 310/577/5 286/578/5 
usemtl Material__26
f 318/375/81 317/374/81 50/49/8 
f 50/49/19 317/374/87 98/94/87 
f 322/375/81 321/374/81 44/49/8 
f 44/49/19 321/374/87 96/94/87 
usemtl Material__25
f 277/579/5 278/580/5 353/581/5 
f 277/582/49 353/444/90 194/487/96 
usemtl Material__26
f 318/377/81 161/146/81 319/378/80 
f 319/378/87 161/146/19 160/78/19 
f 322/377/81 153/146/81 323/378/80 
f 323/378/87 153/146/19 81/78/19 
usemtl Material__25
f 70/517/106 169/583/106 220/515/41 
f 220/238/23 169/162/23 108/103/23 
usemtl Material__26
f 349/431/88 47/52/95 49/54/10 
f 349/431/88 49/54/10 62/56/95 
f 350/431/88 53/52/95 55/54/10 
f 350/431/88 55/54/10 57/56/95 
f 223/241/14 101/97/57 224/242/57 
f 101/97/21 223/241/12 63/98/12 
f 226/241/14 104/97/57 227/242/57 
f 104/97/21 226/241/12 58/98/12 
f 171/149/111 296/344/74 135/133/28 
f 296/344/74 133/131/111 135/133/28 
f 156/149/111 299/344/74 139/133/28 
f 299/344/74 137/131/111 139/133/28 
f 294/261/117 359/584/117 360/585/118 
f 355/295/119 360/585/119 359/584/120 
f 239/261/117 361/584/117 362/585/118 
f 275/295/119 362/585/119 361/584/120 
f 263/280/63 265/282/60 179/173/34 
f 180/170/34 179/169/34 265/282/60 
f 259/280/63 261/282/60 175/173/34 
f 176/170/34 175/169/34 261/282/60 
f 318/375/81 50/49/8 52/51/9 
f 318/377/81 52/184/9 161/146/8 
f 322/375/81 44/49/8 46/51/9 
f 322/377/81 46/184/9 153/146/8 
f 253/271/121 363/586/121 364/587/122 
f 342/262/123 364/587/123 363/586/124 
f 274/271/121 365/586/121 366/587/122 
f 240/262/123 366/587/123 365/586/124 
usemtl Material__25
f 339/409/40 215/355/41 284/410/41 
f 74/70/5 215/232/5 339/588/5 
f 186/565/37 185/589/37 233/256/93 
f 185/459/5 21/39/5 233/251/5 
usemtl Material__26
f 245/266/55 313/341/78 170/167/55 
f 170/167/26 313/341/56 154/147/56 
f 244/266/55 293/341/78 172/167/55 
f 172/167/26 293/341/56 173/147/56 
usemtl Material__25
f 310/575/42 216/323/42 309/590/76 
f 309/456/5 216/233/5 78/457/5 
usemtl Material__26
f 224/242/14 249/270/15 222/240/15 
f 249/270/7 224/242/7 247/268/7 
f 227/242/14 348/270/15 225/240/15 
f 227/242/7 98/94/7 348/270/7 
usemtl Material__25
f 326/482/5 195/560/5 302/563/5 
f 303/559/5 302/563/5 195/560/5 
f 199/339/103 292/510/103 90/591/83 
f 292/336/7 91/89/7 90/88/7 
usemtl Material__26
f 101/97/20 100/99/20 311/380/77 
f 311/371/77 100/96/20 312/372/82 
f 104/97/20 103/99/20 314/380/77 
f 314/371/77 103/96/20 315/372/82 
usemtl Material__25
f 125/592/30 188/488/30 357/490/30 
f 126/512/125 125/592/125 357/490/30 
f 42/47/5 36/40/5 21/39/5 
f 197/199/43 36/350/92 42/200/43 
usemtl Material__26
f 248/269/120 367/593/120 343/414/119 
f 343/414/7 248/269/7 97/95/7 
f 343/414/118 367/593/117 248/269/117 
f 145/141/7 248/269/7 343/414/7 
f 251/269/120 368/593/120 344/414/119 
f 99/95/7 344/414/7 251/269/7 
f 344/414/118 368/593/117 251/269/117 
f 251/269/7 344/414/7 98/94/7 
f 247/268/118 369/594/117 333/393/117 
f 333/393/7 138/132/7 247/268/7 
f 224/242/7 333/393/7 247/268/7 
f 369/594/120 247/268/119 333/393/120 
f 134/132/7 250/268/7 332/393/7 
f 250/268/118 370/594/117 332/393/117 
f 227/242/7 332/393/7 250/268/7 
f 370/594/120 250/268/119 332/393/120 
usemtl Material__25
f 115/111/7 198/406/7 340/595/7 
f 31/35/1 340/411/1 198/201/1 
usemtl Material__26
f 253/271/53 294/261/53 355/295/53 
f 355/295/126 294/261/127 360/585/127 
f 254/272/53 355/295/53 294/261/53 
f 359/584/128 294/261/128 355/295/120 
f 240/262/53 239/261/53 275/295/53 
f 275/295/126 239/261/127 362/585/127 
f 276/272/53 275/295/53 239/261/53 
f 361/584/128 239/261/128 275/295/120 
f 160/78/53 342/262/53 253/271/53 
f 364/587/129 342/262/129 253/271/122 
f 80/77/53 253/271/53 342/262/53 
f 253/271/119 342/262/130 363/586/130 
f 366/587/129 240/262/129 274/271/122 
f 274/271/53 242/264/53 240/262/53 
f 240/262/53 275/295/53 274/271/53 
f 274/271/119 240/262/130 365/586/130 
usemtl Material__25
f 338/405/5 337/596/5 257/331/5 
f 289/332/5 257/331/5 337/596/5 
f 352/597/5 336/544/5 290/543/5 
f 336/544/5 352/597/5 351/558/5 
usemtl Material__26
f 80/77/53 268/264/53 281/263/53 
f 80/77/17 281/263/16 57/56/16 
f 82/77/53 155/148/53 241/263/53 
f 82/77/17 241/263/16 62/56/16 
f 146/139/7 99/95/7 134/132/7 
f 99/95/16 146/139/17 54/53/17 
f 143/139/7 97/95/7 138/132/7 
f 97/95/16 143/139/17 48/53/17 
usemtl Material__25
f 284/320/50 112/306/50 217/322/92 
f 217/234/5 112/107/5 111/106/5 
f 356/480/25 196/598/42 43/548/76 
f 196/483/5 356/599/5 327/481/5 
f 109/137/131 306/358/132 142/138/131 
f 202/205/6 142/138/39 306/358/6 
f 327/481/5 356/599/5 272/600/5 
f 327/481/5 272/600/5 271/601/5 
f 120/602/125 141/528/125 358/498/30 
f 202/497/30 120/602/30 358/498/30 
f 256/404/5 271/601/5 255/603/5 
f 256/404/5 255/603/5 338/405/5 
f 78/75/1 114/109/1 30/73/1 
f 114/455/5 78/457/5 216/233/5 
usemtl Material__26
f 266/283/59 243/265/54 242/264/54 
f 265/282/60 243/265/60 266/283/63 
f 267/283/59 282/265/54 268/264/54 
f 261/282/60 282/265/60 267/283/63 
usemtl Material__25
f 41/125/131 304/351/132 25/182/131 
f 41/125/6 188/180/39 304/351/6 
usemtl Material__26
f 254/272/53 79/76/53 160/78/53 
f 160/78/87 79/76/15 59/58/15 
# 0 polygons - 728 triangles

