# 3ds Max Wavefront OBJ Exporter v0.99 - (c)2007 guruware
# File Created: 14.04.2026 19:24:45

mtllib PisoPuente.mtl

#
# object Plane009
#

v  -1.0000 0.0000 -1.0750
v  -1.0000 0.0000 -1.0000
v  -0.7500 0.0000 -1.0000
v  -0.7500 0.0000 -1.0750
v  -0.5000 0.0000 -1.0000
v  -0.5000 0.0000 -1.0750
v  -0.2500 0.0000 -1.0000
v  -0.2500 0.0000 -1.0750
v  0.0000 0.0000 -1.0000
v  0.0000 0.0000 -1.0750
v  -1.0000 0.0000 -1.1500
v  -0.7500 0.0000 -1.1500
v  -0.5000 0.0000 -1.1500
v  -0.2500 0.0000 -1.1500
v  0.0000 0.0000 -1.1500
v  -1.0000 0.0000 -1.2250
v  -0.7500 0.0000 -1.2250
v  -0.5000 0.0000 -1.2250
v  -0.2500 0.0000 -1.2250
v  0.0000 0.0000 -1.2250
v  -1.0000 0.0000 -1.3000
v  -0.7500 0.0000 -1.3000
v  -0.5000 0.0000 -1.3000
v  -0.2500 0.0000 -1.3000
v  0.0000 0.0000 -1.3000
# 25 vertices

vn 0.0000 1.0000 -0.0000
# 1 vertex normals

vt 0.0000 0.2500 0.0000
vt 0.0000 0.0000 0.0000
vt 0.2500 0.0000 0.0000
vt 0.2500 0.2500 0.0000
vt 0.5000 0.0000 0.0000
vt 0.5000 0.2500 0.0000
vt 0.7500 0.0000 0.0000
vt 0.7500 0.2500 0.0000
vt 1.0000 0.0000 0.0000
vt 1.0000 0.2500 0.0000
vt 0.0000 0.5000 0.0000
vt 0.2500 0.5000 0.0000
vt 0.5000 0.5000 0.0000
vt 0.7500 0.5000 0.0000
vt 1.0000 0.5000 0.0000
vt 0.0000 0.7500 0.0000
vt 0.2500 0.7500 0.0000
vt 0.5000 0.7500 0.0000
vt 0.7500 0.7500 0.0000
vt 1.0000 0.7500 0.0000
vt 0.0000 1.0000 0.0000
vt 0.2500 1.0000 0.0000
vt 0.5000 1.0000 0.0000
vt 0.7500 1.0000 0.0000
vt 1.0000 1.0000 0.0000
# 25 texture coords

o Plane009
g Plane009
usemtl Material__3
s 1
f 1/1/1 2/2/1 3/3/1 4/4/1 
f 4/4/1 3/3/1 5/5/1 6/6/1 
f 6/6/1 5/5/1 7/7/1 8/8/1 
f 8/8/1 7/7/1 9/9/1 10/10/1 
f 11/11/1 1/1/1 4/4/1 12/12/1 
f 12/12/1 4/4/1 6/6/1 13/13/1 
f 13/13/1 6/6/1 8/8/1 14/14/1 
f 14/14/1 8/8/1 10/10/1 15/15/1 
f 16/16/1 11/11/1 12/12/1 17/17/1 
f 17/17/1 12/12/1 13/13/1 18/18/1 
f 18/18/1 13/13/1 14/14/1 19/19/1 
f 19/19/1 14/14/1 15/15/1 20/20/1 
f 21/21/1 16/16/1 17/17/1 22/22/1 
f 22/22/1 17/17/1 18/18/1 23/23/1 
f 23/23/1 18/18/1 19/19/1 24/24/1 
f 24/24/1 19/19/1 20/20/1 25/25/1 
# 16 polygons

#
# object Plane012
#

v  1.0750 0.0000 -1.0000
v  1.0000 0.0000 -1.0000
v  1.0000 0.0000 -0.7500
v  1.0750 0.0000 -0.7500
v  1.0000 0.0000 -0.5000
v  1.0750 0.0000 -0.5000
v  1.0000 0.0000 -0.2500
v  1.0750 0.0000 -0.2500
v  1.0000 0.0000 -0.0000
v  1.0750 0.0000 -0.0000
v  1.1500 0.0000 -1.0000
v  1.1500 0.0000 -0.7500
v  1.1500 0.0000 -0.5000
v  1.1500 0.0000 -0.2500
v  1.1500 0.0000 -0.0000
v  1.2250 0.0000 -1.0000
v  1.2250 0.0000 -0.7500
v  1.2250 0.0000 -0.5000
v  1.2250 0.0000 -0.2500
v  1.2250 0.0000 -0.0000
v  1.3000 0.0000 -1.0000
v  1.3000 0.0000 -0.7500
v  1.3000 0.0000 -0.5000
v  1.3000 0.0000 -0.2500
v  1.3000 0.0000 -0.0000
# 25 vertices

vn 0.0000 1.0000 -0.0000
# 1 vertex normals

vt 0.0000 0.2500 0.0000
vt 0.0000 0.0000 0.0000
vt 0.2500 0.0000 0.0000
vt 0.2500 0.2500 0.0000
vt 0.5000 0.0000 0.0000
vt 0.5000 0.2500 0.0000
vt 0.7500 0.0000 0.0000
vt 0.7500 0.2500 0.0000
vt 1.0000 0.0000 0.0000
vt 1.0000 0.2500 0.0000
vt 0.0000 0.5000 0.0000
vt 0.2500 0.5000 0.0000
vt 0.5000 0.5000 0.0000
vt 0.7500 0.5000 0.0000
vt 1.0000 0.5000 0.0000
vt 0.0000 0.7500 0.0000
vt 0.2500 0.7500 0.0000
vt 0.5000 0.7500 0.0000
vt 0.7500 0.7500 0.0000
vt 1.0000 0.7500 0.0000
vt 0.0000 1.0000 0.0000
vt 0.2500 1.0000 0.0000
vt 0.5000 1.0000 0.0000
vt 0.7500 1.0000 0.0000
vt 1.0000 1.0000 0.0000
# 25 texture coords

o Plane012
g Plane012
usemtl Material__3
s 1
f 26/26/2 27/27/2 28/28/2 29/29/2 
f 29/29/2 28/28/2 30/30/2 31/31/2 
f 31/31/2 30/30/2 32/32/2 33/33/2 
f 33/33/2 32/32/2 34/34/2 35/35/2 
f 36/36/2 26/26/2 29/29/2 37/37/2 
f 37/37/2 29/29/2 31/31/2 38/38/2 
f 38/38/2 31/31/2 33/33/2 39/39/2 
f 39/39/2 33/33/2 35/35/2 40/40/2 
f 41/41/2 36/36/2 37/37/2 42/42/2 
f 42/42/2 37/37/2 38/38/2 43/43/2 
f 43/43/2 38/38/2 39/39/2 44/44/2 
f 44/44/2 39/39/2 40/40/2 45/45/2 
f 46/46/2 41/41/2 42/42/2 47/47/2 
f 47/47/2 42/42/2 43/43/2 48/48/2 
f 48/48/2 43/43/2 44/44/2 49/49/2 
f 49/49/2 44/44/2 45/45/2 50/50/2 
# 16 polygons

#
# object Plane013
#

v  -1.3000 0.0000 -1.0750
v  -1.3000 0.0000 -1.0000
v  -1.2250 0.0000 -1.0000
v  -1.2250 0.0000 -1.0750
v  -1.1500 0.0000 -1.0000
v  -1.1500 0.0000 -1.0750
v  -1.0750 0.0000 -1.0000
v  -1.0750 0.0000 -1.0750
v  -1.0000 0.0000 -1.0000
v  -1.0000 0.0000 -1.0750
v  -1.3000 0.0000 -1.1500
v  -1.2250 0.0000 -1.1500
v  -1.1500 0.0000 -1.1500
v  -1.0750 0.0000 -1.1500
v  -1.0000 0.0000 -1.1500
v  -1.3000 0.0000 -1.2250
v  -1.2250 0.0000 -1.2250
v  -1.1500 0.0000 -1.2250
v  -1.0750 0.0000 -1.2250
v  -1.0000 0.0000 -1.2250
v  -1.3000 0.0000 -1.3000
v  -1.2250 0.0000 -1.3000
v  -1.1500 0.0000 -1.3000
v  -1.0750 0.0000 -1.3000
v  -1.0000 0.0000 -1.3000
# 25 vertices

vn 0.0000 1.0000 -0.0000
# 1 vertex normals

vt 0.0000 0.2500 0.0000
vt 0.0000 0.0000 0.0000
vt 0.2500 0.0000 0.0000
vt 0.2500 0.2500 0.0000
vt 0.5000 0.0000 0.0000
vt 0.5000 0.2500 0.0000
vt 0.7500 0.0000 0.0000
vt 0.7500 0.2500 0.0000
vt 1.0000 0.0000 0.0000
vt 1.0000 0.2500 0.0000
vt 0.0000 0.5000 0.0000
vt 0.2500 0.5000 0.0000
vt 0.5000 0.5000 0.0000
vt 0.7500 0.5000 0.0000
vt 1.0000 0.5000 0.0000
vt 0.0000 0.7500 0.0000
vt 0.2500 0.7500 0.0000
vt 0.5000 0.7500 0.0000
vt 0.7500 0.7500 0.0000
vt 1.0000 0.7500 0.0000
vt 0.0000 1.0000 0.0000
vt 0.2500 1.0000 0.0000
vt 0.5000 1.0000 0.0000
vt 0.7500 1.0000 0.0000
vt 1.0000 1.0000 0.0000
# 25 texture coords

o Plane013
g Plane013
usemtl Material__3
s 1
f 51/51/3 52/52/3 53/53/3 54/54/3 
f 54/54/3 53/53/3 55/55/3 56/56/3 
f 56/56/3 55/55/3 57/57/3 58/58/3 
f 58/58/3 57/57/3 59/59/3 60/60/3 
f 61/61/3 51/51/3 54/54/3 62/62/3 
f 62/62/3 54/54/3 56/56/3 63/63/3 
f 63/63/3 56/56/3 58/58/3 64/64/3 
f 64/64/3 58/58/3 60/60/3 65/65/3 
f 66/66/3 61/61/3 62/62/3 67/67/3 
f 67/67/3 62/62/3 63/63/3 68/68/3 
f 68/68/3 63/63/3 64/64/3 69/69/3 
f 69/69/3 64/64/3 65/65/3 70/70/3 
f 71/71/3 66/66/3 67/67/3 72/72/3 
f 72/72/3 67/67/3 68/68/3 73/73/3 
f 73/73/3 68/68/3 69/69/3 74/74/3 
f 74/74/3 69/69/3 70/70/3 75/75/3 
# 16 polygons

#
# object Plane014
#

v  -1.3000 0.0000 1.2250
v  -1.3000 0.0000 1.3000
v  -1.2250 0.0000 1.3000
v  -1.2250 0.0000 1.2250
v  -1.1500 0.0000 1.3000
v  -1.1500 0.0000 1.2250
v  -1.0750 0.0000 1.3000
v  -1.0750 0.0000 1.2250
v  -1.0000 0.0000 1.3000
v  -1.0000 0.0000 1.2250
v  -1.3000 0.0000 1.1500
v  -1.2250 0.0000 1.1500
v  -1.1500 0.0000 1.1500
v  -1.0750 0.0000 1.1500
v  -1.0000 0.0000 1.1500
v  -1.3000 0.0000 1.0750
v  -1.2250 0.0000 1.0750
v  -1.1500 0.0000 1.0750
v  -1.0750 0.0000 1.0750
v  -1.0000 0.0000 1.0750
v  -1.3000 0.0000 1.0000
v  -1.2250 0.0000 1.0000
v  -1.1500 0.0000 1.0000
v  -1.0750 0.0000 1.0000
v  -1.0000 0.0000 1.0000
# 25 vertices

vn 0.0000 1.0000 -0.0000
# 1 vertex normals

vt 0.0000 0.2500 0.0000
vt 0.0000 0.0000 0.0000
vt 0.2500 0.0000 0.0000
vt 0.2500 0.2500 0.0000
vt 0.5000 0.0000 0.0000
vt 0.5000 0.2500 0.0000
vt 0.7500 0.0000 0.0000
vt 0.7500 0.2500 0.0000
vt 1.0000 0.0000 0.0000
vt 1.0000 0.2500 0.0000
vt 0.0000 0.5000 0.0000
vt 0.2500 0.5000 0.0000
vt 0.5000 0.5000 0.0000
vt 0.7500 0.5000 0.0000
vt 1.0000 0.5000 0.0000
vt 0.0000 0.7500 0.0000
vt 0.2500 0.7500 0.0000
vt 0.5000 0.7500 0.0000
vt 0.7500 0.7500 0.0000
vt 1.0000 0.7500 0.0000
vt 0.0000 1.0000 0.0000
vt 0.2500 1.0000 0.0000
vt 0.5000 1.0000 0.0000
vt 0.7500 1.0000 0.0000
vt 1.0000 1.0000 0.0000
# 25 texture coords

o Plane014
g Plane014
usemtl Material__3
s 1
f 76/76/4 77/77/4 78/78/4 79/79/4 
f 79/79/4 78/78/4 80/80/4 81/81/4 
f 81/81/4 80/80/4 82/82/4 83/83/4 
f 83/83/4 82/82/4 84/84/4 85/85/4 
f 86/86/4 76/76/4 79/79/4 87/87/4 
f 87/87/4 79/79/4 81/81/4 88/88/4 
f 88/88/4 81/81/4 83/83/4 89/89/4 
f 89/89/4 83/83/4 85/85/4 90/90/4 
f 91/91/4 86/86/4 87/87/4 92/92/4 
f 92/92/4 87/87/4 88/88/4 93/93/4 
f 93/93/4 88/88/4 89/89/4 94/94/4 
f 94/94/4 89/89/4 90/90/4 95/95/4 
f 96/96/4 91/91/4 92/92/4 97/97/4 
f 97/97/4 92/92/4 93/93/4 98/98/4 
f 98/98/4 93/93/4 94/94/4 99/99/4 
f 99/99/4 94/94/4 95/95/4 100/100/4 
# 16 polygons

#
# object Plane015
#

v  1.0000 0.0000 -1.0750
v  1.0000 0.0000 -1.0000
v  1.0750 0.0000 -1.0000
v  1.0750 0.0000 -1.0750
v  1.1500 0.0000 -1.0000
v  1.1500 0.0000 -1.0750
v  1.2250 0.0000 -1.0000
v  1.2250 0.0000 -1.0750
v  1.3000 0.0000 -1.0000
v  1.3000 0.0000 -1.0750
v  1.0000 0.0000 -1.1500
v  1.0750 0.0000 -1.1500
v  1.1500 0.0000 -1.1500
v  1.2250 0.0000 -1.1500
v  1.3000 0.0000 -1.1500
v  1.0000 0.0000 -1.2250
v  1.0750 0.0000 -1.2250
v  1.1500 0.0000 -1.2250
v  1.2250 0.0000 -1.2250
v  1.3000 0.0000 -1.2250
v  1.0000 0.0000 -1.3000
v  1.0750 0.0000 -1.3000
v  1.1500 0.0000 -1.3000
v  1.2250 0.0000 -1.3000
v  1.3000 0.0000 -1.3000
# 25 vertices

vn 0.0000 1.0000 -0.0000
# 1 vertex normals

vt 0.0000 0.2500 0.0000
vt 0.0000 0.0000 0.0000
vt 0.2500 0.0000 0.0000
vt 0.2500 0.2500 0.0000
vt 0.5000 0.0000 0.0000
vt 0.5000 0.2500 0.0000
vt 0.7500 0.0000 0.0000
vt 0.7500 0.2500 0.0000
vt 1.0000 0.0000 0.0000
vt 1.0000 0.2500 0.0000
vt 0.0000 0.5000 0.0000
vt 0.2500 0.5000 0.0000
vt 0.5000 0.5000 0.0000
vt 0.7500 0.5000 0.0000
vt 1.0000 0.5000 0.0000
vt 0.0000 0.7500 0.0000
vt 0.2500 0.7500 0.0000
vt 0.5000 0.7500 0.0000
vt 0.7500 0.7500 0.0000
vt 1.0000 0.7500 0.0000
vt 0.0000 1.0000 0.0000
vt 0.2500 1.0000 0.0000
vt 0.5000 1.0000 0.0000
vt 0.7500 1.0000 0.0000
vt 1.0000 1.0000 0.0000
# 25 texture coords

o Plane015
g Plane015
usemtl Material__3
s 1
f 101/101/5 102/102/5 103/103/5 104/104/5 
f 104/104/5 103/103/5 105/105/5 106/106/5 
f 106/106/5 105/105/5 107/107/5 108/108/5 
f 108/108/5 107/107/5 109/109/5 110/110/5 
f 111/111/5 101/101/5 104/104/5 112/112/5 
f 112/112/5 104/104/5 106/106/5 113/113/5 
f 113/113/5 106/106/5 108/108/5 114/114/5 
f 114/114/5 108/108/5 110/110/5 115/115/5 
f 116/116/5 111/111/5 112/112/5 117/117/5 
f 117/117/5 112/112/5 113/113/5 118/118/5 
f 118/118/5 113/113/5 114/114/5 119/119/5 
f 119/119/5 114/114/5 115/115/5 120/120/5 
f 121/121/5 116/116/5 117/117/5 122/122/5 
f 122/122/5 117/117/5 118/118/5 123/123/5 
f 123/123/5 118/118/5 119/119/5 124/124/5 
f 124/124/5 119/119/5 120/120/5 125/125/5 
# 16 polygons

#
# object Plane016
#

v  1.0000 0.0000 1.2250
v  1.0000 0.0000 1.3000
v  1.0750 0.0000 1.3000
v  1.0750 0.0000 1.2250
v  1.1500 0.0000 1.3000
v  1.1500 0.0000 1.2250
v  1.2250 0.0000 1.3000
v  1.2250 0.0000 1.2250
v  1.3000 0.0000 1.3000
v  1.3000 0.0000 1.2250
v  1.0000 0.0000 1.1500
v  1.0750 0.0000 1.1500
v  1.1500 0.0000 1.1500
v  1.2250 0.0000 1.1500
v  1.3000 0.0000 1.1500
v  1.0000 0.0000 1.0750
v  1.0750 0.0000 1.0750
v  1.1500 0.0000 1.0750
v  1.2250 0.0000 1.0750
v  1.3000 0.0000 1.0750
v  1.0000 0.0000 1.0000
v  1.0750 0.0000 1.0000
v  1.1500 0.0000 1.0000
v  1.2250 0.0000 1.0000
v  1.3000 0.0000 1.0000
# 25 vertices

vn 0.0000 1.0000 -0.0000
# 1 vertex normals

vt 0.0000 0.2500 0.0000
vt 0.0000 0.0000 0.0000
vt 0.2500 0.0000 0.0000
vt 0.2500 0.2500 0.0000
vt 0.5000 0.0000 0.0000
vt 0.5000 0.2500 0.0000
vt 0.7500 0.0000 0.0000
vt 0.7500 0.2500 0.0000
vt 1.0000 0.0000 0.0000
vt 1.0000 0.2500 0.0000
vt 0.0000 0.5000 0.0000
vt 0.2500 0.5000 0.0000
vt 0.5000 0.5000 0.0000
vt 0.7500 0.5000 0.0000
vt 1.0000 0.5000 0.0000
vt 0.0000 0.7500 0.0000
vt 0.2500 0.7500 0.0000
vt 0.5000 0.7500 0.0000
vt 0.7500 0.7500 0.0000
vt 1.0000 0.7500 0.0000
vt 0.0000 1.0000 0.0000
vt 0.2500 1.0000 0.0000
vt 0.5000 1.0000 0.0000
vt 0.7500 1.0000 0.0000
vt 1.0000 1.0000 0.0000
# 25 texture coords

o Plane016
g Plane016
usemtl Material__3
s 1
f 126/126/6 127/127/6 128/128/6 129/129/6 
f 129/129/6 128/128/6 130/130/6 131/131/6 
f 131/131/6 130/130/6 132/132/6 133/133/6 
f 133/133/6 132/132/6 134/134/6 135/135/6 
f 136/136/6 126/126/6 129/129/6 137/137/6 
f 137/137/6 129/129/6 131/131/6 138/138/6 
f 138/138/6 131/131/6 133/133/6 139/139/6 
f 139/139/6 133/133/6 135/135/6 140/140/6 
f 141/141/6 136/136/6 137/137/6 142/142/6 
f 142/142/6 137/137/6 138/138/6 143/143/6 
f 143/143/6 138/138/6 139/139/6 144/144/6 
f 144/144/6 139/139/6 140/140/6 145/145/6 
f 146/146/6 141/141/6 142/142/6 147/147/6 
f 147/147/6 142/142/6 143/143/6 148/148/6 
f 148/148/6 143/143/6 144/144/6 149/149/6 
f 149/149/6 144/144/6 145/145/6 150/150/6 
# 16 polygons

#
# object Plane002
#

v  0.5000 0.0000 0.7496
v  0.5000 0.0000 0.9996
v  0.6250 0.0000 0.9996
v  0.6250 0.0000 0.7496
v  0.7500 0.0000 0.9996
v  0.7500 0.0000 0.7496
v  0.8750 0.0000 0.9996
v  0.8750 0.0000 0.7496
v  1.0000 0.0000 0.9996
v  1.0000 0.0000 0.7496
v  0.5000 0.0000 0.4996
v  0.6250 0.0000 0.4996
v  0.7500 0.0000 0.4996
v  0.8750 0.0000 0.4996
v  1.0000 0.0000 0.4996
v  0.5000 0.0000 0.2496
v  0.6250 0.0000 0.2496
v  0.7500 0.0000 0.2496
v  0.8750 0.0000 0.2496
v  1.0000 0.0000 0.2496
v  0.5000 0.0000 -0.0004
v  0.6250 0.0000 -0.0004
v  0.7500 0.0000 -0.0004
v  0.8750 0.0000 -0.0004
v  1.0000 0.0000 -0.0004
# 25 vertices

vn 0.0000 1.0000 -0.0000
# 1 vertex normals

vt 0.0000 0.2500 0.0000
vt 0.0000 0.0000 0.0000
vt 0.2500 0.0000 0.0000
vt 0.2500 0.2500 0.0000
vt 0.5000 0.0000 0.0000
vt 0.5000 0.2500 0.0000
vt 0.7500 0.0000 0.0000
vt 0.7500 0.2500 0.0000
vt 1.0000 0.0000 0.0000
vt 1.0000 0.2500 0.0000
vt 0.0000 0.5000 0.0000
vt 0.2500 0.5000 0.0000
vt 0.5000 0.5000 0.0000
vt 0.7500 0.5000 0.0000
vt 1.0000 0.5000 0.0000
vt 0.0000 0.7500 0.0000
vt 0.2500 0.7500 0.0000
vt 0.5000 0.7500 0.0000
vt 0.7500 0.7500 0.0000
vt 1.0000 0.7500 0.0000
vt 0.0000 1.0000 0.0000
vt 0.2500 1.0000 0.0000
vt 0.5000 1.0000 0.0000
vt 0.7500 1.0000 0.0000
vt 1.0000 1.0000 0.0000
# 25 texture coords

o Plane002
g Plane002
usemtl Material__2
s 1
f 151/151/7 152/152/7 153/153/7 154/154/7 
f 154/154/7 153/153/7 155/155/7 156/156/7 
f 156/156/7 155/155/7 157/157/7 158/158/7 
f 158/158/7 157/157/7 159/159/7 160/160/7 
f 161/161/7 151/151/7 154/154/7 162/162/7 
f 162/162/7 154/154/7 156/156/7 163/163/7 
f 163/163/7 156/156/7 158/158/7 164/164/7 
f 164/164/7 158/158/7 160/160/7 165/165/7 
f 166/166/7 161/161/7 162/162/7 167/167/7 
f 167/167/7 162/162/7 163/163/7 168/168/7 
f 168/168/7 163/163/7 164/164/7 169/169/7 
f 169/169/7 164/164/7 165/165/7 170/170/7 
f 171/171/7 166/166/7 167/167/7 172/172/7 
f 172/172/7 167/167/7 168/168/7 173/173/7 
f 173/173/7 168/168/7 169/169/7 174/174/7 
f 174/174/7 169/169/7 170/170/7 175/175/7 
# 16 polygons

#
# object Plane003
#

v  0.2500 0.0000 -0.5000
v  0.0000 0.0000 -0.5000
v  0.0000 0.0000 -0.3750
v  0.2500 0.0000 -0.3750
v  0.0000 0.0000 -0.2500
v  0.2500 0.0000 -0.2500
v  0.0000 0.0000 -0.1250
v  0.2500 0.0000 -0.1250
v  0.0000 0.0000 -0.0000
v  0.2500 0.0000 -0.0000
v  0.5000 0.0000 -0.5000
v  0.5000 0.0000 -0.3750
v  0.5000 0.0000 -0.2500
v  0.5000 0.0000 -0.1250
v  0.5000 0.0000 -0.0000
v  0.7500 0.0000 -0.5000
v  0.7500 0.0000 -0.3750
v  0.7500 0.0000 -0.2500
v  0.7500 0.0000 -0.1250
v  0.7500 0.0000 0.0000
v  1.0000 0.0000 -0.5000
v  1.0000 0.0000 -0.3750
v  1.0000 0.0000 -0.2500
v  1.0000 0.0000 -0.1250
v  1.0000 0.0000 0.0000
# 25 vertices

vn 0.0000 1.0000 -0.0000
# 1 vertex normals

vt 0.0000 0.2500 0.0000
vt 0.0000 0.0000 0.0000
vt 0.2500 0.0000 0.0000
vt 0.2500 0.2500 0.0000
vt 0.5000 0.0000 0.0000
vt 0.5000 0.2500 0.0000
vt 0.7500 0.0000 0.0000
vt 0.7500 0.2500 0.0000
vt 1.0000 0.0000 0.0000
vt 1.0000 0.2500 0.0000
vt 0.0000 0.5000 0.0000
vt 0.2500 0.5000 0.0000
vt 0.5000 0.5000 0.0000
vt 0.7500 0.5000 0.0000
vt 1.0000 0.5000 0.0000
vt 0.0000 0.7500 0.0000
vt 0.2500 0.7500 0.0000
vt 0.5000 0.7500 0.0000
vt 0.7500 0.7500 0.0000
vt 1.0000 0.7500 0.0000
vt 0.0000 1.0000 0.0000
vt 0.2500 1.0000 0.0000
vt 0.5000 1.0000 0.0000
vt 0.7500 1.0000 0.0000
vt 1.0000 1.0000 0.0000
# 25 texture coords

o Plane003
g Plane003
usemtl Material__2
s 1
f 176/176/8 177/177/8 178/178/8 179/179/8 
f 179/179/8 178/178/8 180/180/8 181/181/8 
f 181/181/8 180/180/8 182/182/8 183/183/8 
f 183/183/8 182/182/8 184/184/8 185/185/8 
f 186/186/8 176/176/8 179/179/8 187/187/8 
f 187/187/8 179/179/8 181/181/8 188/188/8 
f 188/188/8 181/181/8 183/183/8 189/189/8 
f 189/189/8 183/183/8 185/185/8 190/190/8 
f 191/191/8 186/186/8 187/187/8 192/192/8 
f 192/192/8 187/187/8 188/188/8 193/193/8 
f 193/193/8 188/188/8 189/189/8 194/194/8 
f 194/194/8 189/189/8 190/190/8 195/195/8 
f 196/196/8 191/191/8 192/192/8 197/197/8 
f 197/197/8 192/192/8 193/193/8 198/198/8 
f 198/198/8 193/193/8 194/194/8 199/199/8 
f 199/199/8 194/194/8 195/195/8 200/200/8 
# 16 polygons

#
# object Plane004
#

v  0.2500 0.0000 -1.0000
v  0.0000 0.0000 -1.0000
v  0.0000 0.0000 -0.8750
v  0.2500 0.0000 -0.8750
v  0.0000 0.0000 -0.7500
v  0.2500 0.0000 -0.7500
v  0.0000 0.0000 -0.6250
v  0.2500 0.0000 -0.6250
v  0.0000 0.0000 -0.5000
v  0.2500 0.0000 -0.5000
v  0.5000 0.0000 -1.0000
v  0.5000 0.0000 -0.8750
v  0.5000 0.0000 -0.7500
v  0.5000 0.0000 -0.6250
v  0.5000 0.0000 -0.5000
v  0.7500 0.0000 -1.0000
v  0.7500 0.0000 -0.8750
v  0.7500 0.0000 -0.7500
v  0.7500 0.0000 -0.6250
v  0.7500 0.0000 -0.5000
v  1.0000 0.0000 -1.0000
v  1.0000 0.0000 -0.8750
v  1.0000 0.0000 -0.7500
v  1.0000 0.0000 -0.6250
v  1.0000 0.0000 -0.5000
# 25 vertices

vn 0.0000 1.0000 -0.0000
# 1 vertex normals

vt 0.0000 0.2500 0.0000
vt 0.0000 0.0000 0.0000
vt 0.2500 0.0000 0.0000
vt 0.2500 0.2500 0.0000
vt 0.5000 0.0000 0.0000
vt 0.5000 0.2500 0.0000
vt 0.7500 0.0000 0.0000
vt 0.7500 0.2500 0.0000
vt 1.0000 0.0000 0.0000
vt 1.0000 0.2500 0.0000
vt 0.0000 0.5000 0.0000
vt 0.2500 0.5000 0.0000
vt 0.5000 0.5000 0.0000
vt 0.7500 0.5000 0.0000
vt 1.0000 0.5000 0.0000
vt 0.0000 0.7500 0.0000
vt 0.2500 0.7500 0.0000
vt 0.5000 0.7500 0.0000
vt 0.7500 0.7500 0.0000
vt 1.0000 0.7500 0.0000
vt 0.0000 1.0000 0.0000
vt 0.2500 1.0000 0.0000
vt 0.5000 1.0000 0.0000
vt 0.7500 1.0000 0.0000
vt 1.0000 1.0000 0.0000
# 25 texture coords

o Plane004
g Plane004
usemtl Material__2
s 1
f 201/201/9 202/202/9 203/203/9 204/204/9 
f 204/204/9 203/203/9 205/205/9 206/206/9 
f 206/206/9 205/205/9 207/207/9 208/208/9 
f 208/208/9 207/207/9 209/209/9 210/210/9 
f 211/211/9 201/201/9 204/204/9 212/212/9 
f 212/212/9 204/204/9 206/206/9 213/213/9 
f 213/213/9 206/206/9 208/208/9 214/214/9 
f 214/214/9 208/208/9 210/210/9 215/215/9 
f 216/216/9 211/211/9 212/212/9 217/217/9 
f 217/217/9 212/212/9 213/213/9 218/218/9 
f 218/218/9 213/213/9 214/214/9 219/219/9 
f 219/219/9 214/214/9 215/215/9 220/220/9 
f 221/221/9 216/216/9 217/217/9 222/222/9 
f 222/222/9 217/217/9 218/218/9 223/223/9 
f 223/223/9 218/218/9 219/219/9 224/224/9 
f 224/224/9 219/219/9 220/220/9 225/225/9 
# 16 polygons

#
# object Plane005
#

v  -0.5000 0.0000 -0.2500
v  -0.5000 0.0000 -0.0000
v  -0.3750 0.0000 -0.0000
v  -0.3750 0.0000 -0.2500
v  -0.2500 0.0000 -0.0000
v  -0.2500 0.0000 -0.2500
v  -0.1250 0.0000 0.0000
v  -0.1250 0.0000 -0.2500
v  -0.0000 0.0000 0.0000
v  -0.0000 0.0000 -0.2500
v  -0.5000 0.0000 -0.5000
v  -0.3750 0.0000 -0.5000
v  -0.2500 0.0000 -0.5000
v  -0.1250 0.0000 -0.5000
v  0.0000 0.0000 -0.5000
v  -0.5000 0.0000 -0.7500
v  -0.3750 0.0000 -0.7500
v  -0.2500 0.0000 -0.7500
v  -0.1250 0.0000 -0.7500
v  0.0000 0.0000 -0.7500
v  -0.5000 0.0000 -1.0000
v  -0.3750 0.0000 -1.0000
v  -0.2500 0.0000 -1.0000
v  -0.1250 0.0000 -1.0000
v  0.0000 0.0000 -1.0000
# 25 vertices

vn 0.0000 1.0000 -0.0000
# 1 vertex normals

vt 0.0000 0.2500 0.0000
vt 0.0000 0.0000 0.0000
vt 0.2500 0.0000 0.0000
vt 0.2500 0.2500 0.0000
vt 0.5000 0.0000 0.0000
vt 0.5000 0.2500 0.0000
vt 0.7500 0.0000 0.0000
vt 0.7500 0.2500 0.0000
vt 1.0000 0.0000 0.0000
vt 1.0000 0.2500 0.0000
vt 0.0000 0.5000 0.0000
vt 0.2500 0.5000 0.0000
vt 0.5000 0.5000 0.0000
vt 0.7500 0.5000 0.0000
vt 1.0000 0.5000 0.0000
vt 0.0000 0.7500 0.0000
vt 0.2500 0.7500 0.0000
vt 0.5000 0.7500 0.0000
vt 0.7500 0.7500 0.0000
vt 1.0000 0.7500 0.0000
vt 0.0000 1.0000 0.0000
vt 0.2500 1.0000 0.0000
vt 0.5000 1.0000 0.0000
vt 0.7500 1.0000 0.0000
vt 1.0000 1.0000 0.0000
# 25 texture coords

o Plane005
g Plane005
usemtl Material__2
s 1
f 226/226/10 227/227/10 228/228/10 229/229/10 
f 229/229/10 228/228/10 230/230/10 231/231/10 
f 231/231/10 230/230/10 232/232/10 233/233/10 
f 233/233/10 232/232/10 234/234/10 235/235/10 
f 236/236/10 226/226/10 229/229/10 237/237/10 
f 237/237/10 229/229/10 231/231/10 238/238/10 
f 238/238/10 231/231/10 233/233/10 239/239/10 
f 239/239/10 233/233/10 235/235/10 240/240/10 
f 241/241/10 236/236/10 237/237/10 242/242/10 
f 242/242/10 237/237/10 238/238/10 243/243/10 
f 243/243/10 238/238/10 239/239/10 244/244/10 
f 244/244/10 239/239/10 240/240/10 245/245/10 
f 246/246/10 241/241/10 242/242/10 247/247/10 
f 247/247/10 242/242/10 243/243/10 248/248/10 
f 248/248/10 243/243/10 244/244/10 249/249/10 
f 249/249/10 244/244/10 245/245/10 250/250/10 
# 16 polygons

#
# object Plane006
#

v  -0.2500 0.0000 0.5000
v  0.0000 0.0000 0.5000
v  0.0000 0.0000 0.3750
v  -0.2500 0.0000 0.3750
v  0.0000 0.0000 0.2500
v  -0.2500 0.0000 0.2500
v  0.0000 0.0000 0.1250
v  -0.2500 0.0000 0.1250
v  0.0000 0.0000 -0.0000
v  -0.2500 0.0000 -0.0000
v  -0.5000 0.0000 0.5000
v  -0.5000 0.0000 0.3750
v  -0.5000 0.0000 0.2500
v  -0.5000 0.0000 0.1250
v  -0.5000 0.0000 -0.0000
v  -0.7500 0.0000 0.5000
v  -0.7500 0.0000 0.3750
v  -0.7500 0.0000 0.2500
v  -0.7500 0.0000 0.1250
v  -0.7500 0.0000 -0.0000
v  -1.0000 0.0000 0.5000
v  -1.0000 0.0000 0.3750
v  -1.0000 0.0000 0.2500
v  -1.0000 0.0000 0.1250
v  -1.0000 0.0000 -0.0000
# 25 vertices

vn 0.0000 1.0000 -0.0000
# 1 vertex normals

vt 0.0000 0.2500 0.0000
vt 0.0000 0.0000 0.0000
vt 0.2500 0.0000 0.0000
vt 0.2500 0.2500 0.0000
vt 0.5000 0.0000 0.0000
vt 0.5000 0.2500 0.0000
vt 0.7500 0.0000 0.0000
vt 0.7500 0.2500 0.0000
vt 1.0000 0.0000 0.0000
vt 1.0000 0.2500 0.0000
vt 0.0000 0.5000 0.0000
vt 0.2500 0.5000 0.0000
vt 0.5000 0.5000 0.0000
vt 0.7500 0.5000 0.0000
vt 1.0000 0.5000 0.0000
vt 0.0000 0.7500 0.0000
vt 0.2500 0.7500 0.0000
vt 0.5000 0.7500 0.0000
vt 0.7500 0.7500 0.0000
vt 1.0000 0.7500 0.0000
vt 0.0000 1.0000 0.0000
vt 0.2500 1.0000 0.0000
vt 0.5000 1.0000 0.0000
vt 0.7500 1.0000 0.0000
vt 1.0000 1.0000 0.0000
# 25 texture coords

o Plane006
g Plane006
usemtl Material__2
s 1
f 251/251/11 252/252/11 253/253/11 254/254/11 
f 254/254/11 253/253/11 255/255/11 256/256/11 
f 256/256/11 255/255/11 257/257/11 258/258/11 
f 258/258/11 257/257/11 259/259/11 260/260/11 
f 261/261/11 251/251/11 254/254/11 262/262/11 
f 262/262/11 254/254/11 256/256/11 263/263/11 
f 263/263/11 256/256/11 258/258/11 264/264/11 
f 264/264/11 258/258/11 260/260/11 265/265/11 
f 266/266/11 261/261/11 262/262/11 267/267/11 
f 267/267/11 262/262/11 263/263/11 268/268/11 
f 268/268/11 263/263/11 264/264/11 269/269/11 
f 269/269/11 264/264/11 265/265/11 270/270/11 
f 271/271/11 266/266/11 267/267/11 272/272/11 
f 272/272/11 267/267/11 268/268/11 273/273/11 
f 273/273/11 268/268/11 269/269/11 274/274/11 
f 274/274/11 269/269/11 270/270/11 275/275/11 
# 16 polygons

#
# object Plane007
#

v  -0.2500 0.0000 1.0000
v  0.0000 0.0000 1.0000
v  0.0000 0.0000 0.8750
v  -0.2500 0.0000 0.8750
v  0.0000 0.0000 0.7500
v  -0.2500 0.0000 0.7500
v  0.0000 0.0000 0.6250
v  -0.2500 0.0000 0.6250
v  0.0000 0.0000 0.5000
v  -0.2500 0.0000 0.5000
v  -0.5000 0.0000 1.0000
v  -0.5000 0.0000 0.8750
v  -0.5000 0.0000 0.7500
v  -0.5000 0.0000 0.6250
v  -0.5000 0.0000 0.5000
v  -0.7500 0.0000 1.0000
v  -0.7500 0.0000 0.8750
v  -0.7500 0.0000 0.7500
v  -0.7500 0.0000 0.6250
v  -0.7500 0.0000 0.5000
v  -1.0000 0.0000 1.0000
v  -1.0000 0.0000 0.8750
v  -1.0000 0.0000 0.7500
v  -1.0000 0.0000 0.6250
v  -1.0000 0.0000 0.5000
# 25 vertices

vn 0.0000 1.0000 -0.0000
# 1 vertex normals

vt 0.0000 0.2500 0.0000
vt 0.0000 0.0000 0.0000
vt 0.2500 0.0000 0.0000
vt 0.2500 0.2500 0.0000
vt 0.5000 0.0000 0.0000
vt 0.5000 0.2500 0.0000
vt 0.7500 0.0000 0.0000
vt 0.7500 0.2500 0.0000
vt 1.0000 0.0000 0.0000
vt 1.0000 0.2500 0.0000
vt 0.0000 0.5000 0.0000
vt 0.2500 0.5000 0.0000
vt 0.5000 0.5000 0.0000
vt 0.7500 0.5000 0.0000
vt 1.0000 0.5000 0.0000
vt 0.0000 0.7500 0.0000
vt 0.2500 0.7500 0.0000
vt 0.5000 0.7500 0.0000
vt 0.7500 0.7500 0.0000
vt 1.0000 0.7500 0.0000
vt 0.0000 1.0000 0.0000
vt 0.2500 1.0000 0.0000
vt 0.5000 1.0000 0.0000
vt 0.7500 1.0000 0.0000
vt 1.0000 1.0000 0.0000
# 25 texture coords

o Plane007
g Plane007
usemtl Material__2
s 1
f 276/276/12 277/277/12 278/278/12 279/279/12 
f 279/279/12 278/278/12 280/280/12 281/281/12 
f 281/281/12 280/280/12 282/282/12 283/283/12 
f 283/283/12 282/282/12 284/284/12 285/285/12 
f 286/286/12 276/276/12 279/279/12 287/287/12 
f 287/287/12 279/279/12 281/281/12 288/288/12 
f 288/288/12 281/281/12 283/283/12 289/289/12 
f 289/289/12 283/283/12 285/285/12 290/290/12 
f 291/291/12 286/286/12 287/287/12 292/292/12 
f 292/292/12 287/287/12 288/288/12 293/293/12 
f 293/293/12 288/288/12 289/289/12 294/294/12 
f 294/294/12 289/289/12 290/290/12 295/295/12 
f 296/296/12 291/291/12 292/292/12 297/297/12 
f 297/297/12 292/292/12 293/293/12 298/298/12 
f 298/298/12 293/293/12 294/294/12 299/299/12 
f 299/299/12 294/294/12 295/295/12 300/300/12 
# 16 polygons

#
# object Plane008
#

v  -1.0000 0.0000 -0.2500
v  -1.0000 0.0000 -0.0000
v  -0.8750 0.0000 -0.0000
v  -0.8750 0.0000 -0.2500
v  -0.7500 0.0000 -0.0000
v  -0.7500 0.0000 -0.2500
v  -0.6250 0.0000 0.0000
v  -0.6250 0.0000 -0.2500
v  -0.5000 0.0000 0.0000
v  -0.5000 0.0000 -0.2500
v  -1.0000 0.0000 -0.5000
v  -0.8750 0.0000 -0.5000
v  -0.7500 0.0000 -0.5000
v  -0.6250 0.0000 -0.5000
v  -0.5000 0.0000 -0.5000
v  -1.0000 0.0000 -0.7500
v  -0.8750 0.0000 -0.7500
v  -0.7500 0.0000 -0.7500
v  -0.6250 0.0000 -0.7500
v  -0.5000 0.0000 -0.7500
v  -1.0000 0.0000 -1.0000
v  -0.8750 0.0000 -1.0000
v  -0.7500 0.0000 -1.0000
v  -0.6250 0.0000 -1.0000
v  -0.5000 0.0000 -1.0000
# 25 vertices

vn 0.0000 1.0000 -0.0000
# 1 vertex normals

vt 0.0000 0.2500 0.0000
vt 0.0000 0.0000 0.0000
vt 0.2500 0.0000 0.0000
vt 0.2500 0.2500 0.0000
vt 0.5000 0.0000 0.0000
vt 0.5000 0.2500 0.0000
vt 0.7500 0.0000 0.0000
vt 0.7500 0.2500 0.0000
vt 1.0000 0.0000 0.0000
vt 1.0000 0.2500 0.0000
vt 0.0000 0.5000 0.0000
vt 0.2500 0.5000 0.0000
vt 0.5000 0.5000 0.0000
vt 0.7500 0.5000 0.0000
vt 1.0000 0.5000 0.0000
vt 0.0000 0.7500 0.0000
vt 0.2500 0.7500 0.0000
vt 0.5000 0.7500 0.0000
vt 0.7500 0.7500 0.0000
vt 1.0000 0.7500 0.0000
vt 0.0000 1.0000 0.0000
vt 0.2500 1.0000 0.0000
vt 0.5000 1.0000 0.0000
vt 0.7500 1.0000 0.0000
vt 1.0000 1.0000 0.0000
# 25 texture coords

o Plane008
g Plane008
usemtl Material__2
s 1
f 301/301/13 302/302/13 303/303/13 304/304/13 
f 304/304/13 303/303/13 305/305/13 306/306/13 
f 306/306/13 305/305/13 307/307/13 308/308/13 
f 308/308/13 307/307/13 309/309/13 310/310/13 
f 311/311/13 301/301/13 304/304/13 312/312/13 
f 312/312/13 304/304/13 306/306/13 313/313/13 
f 313/313/13 306/306/13 308/308/13 314/314/13 
f 314/314/13 308/308/13 310/310/13 315/315/13 
f 316/316/13 311/311/13 312/312/13 317/317/13 
f 317/317/13 312/312/13 313/313/13 318/318/13 
f 318/318/13 313/313/13 314/314/13 319/319/13 
f 319/319/13 314/314/13 315/315/13 320/320/13 
f 321/321/13 316/316/13 317/317/13 322/322/13 
f 322/322/13 317/317/13 318/318/13 323/323/13 
f 323/323/13 318/318/13 319/319/13 324/324/13 
f 324/324/13 319/319/13 320/320/13 325/325/13 
# 16 polygons

#
# object Plane001
#

v  0.0000 0.0000 0.7496
v  0.0000 0.0000 0.9996
v  0.1250 0.0000 0.9996
v  0.1250 0.0000 0.7496
v  0.2500 0.0000 0.9996
v  0.2500 0.0000 0.7496
v  0.3750 0.0000 0.9996
v  0.3750 0.0000 0.7496
v  0.5000 0.0000 0.9996
v  0.5000 0.0000 0.7496
v  0.0000 0.0000 0.4996
v  0.1250 0.0000 0.4996
v  0.2500 0.0000 0.4996
v  0.3750 0.0000 0.4996
v  0.5000 0.0000 0.4996
v  0.0000 0.0000 0.2496
v  0.1250 0.0000 0.2496
v  0.2500 0.0000 0.2496
v  0.3750 0.0000 0.2496
v  0.5000 0.0000 0.2496
v  0.0000 0.0000 -0.0004
v  0.1250 0.0000 -0.0004
v  0.2500 0.0000 -0.0004
v  0.3750 0.0000 -0.0004
v  0.5000 0.0000 -0.0004
# 25 vertices

vn 0.0000 1.0000 -0.0000
# 1 vertex normals

vt 0.0000 0.2500 0.0000
vt 0.0000 0.0000 0.0000
vt 0.2500 0.0000 0.0000
vt 0.2500 0.2500 0.0000
vt 0.5000 0.0000 0.0000
vt 0.5000 0.2500 0.0000
vt 0.7500 0.0000 0.0000
vt 0.7500 0.2500 0.0000
vt 1.0000 0.0000 0.0000
vt 1.0000 0.2500 0.0000
vt 0.0000 0.5000 0.0000
vt 0.2500 0.5000 0.0000
vt 0.5000 0.5000 0.0000
vt 0.7500 0.5000 0.0000
vt 1.0000 0.5000 0.0000
vt 0.0000 0.7500 0.0000
vt 0.2500 0.7500 0.0000
vt 0.5000 0.7500 0.0000
vt 0.7500 0.7500 0.0000
vt 1.0000 0.7500 0.0000
vt 0.0000 1.0000 0.0000
vt 0.2500 1.0000 0.0000
vt 0.5000 1.0000 0.0000
vt 0.7500 1.0000 0.0000
vt 1.0000 1.0000 0.0000
# 25 texture coords

o Plane001
g Plane001
usemtl Material__2
s 1
f 326/326/14 327/327/14 328/328/14 329/329/14 
f 329/329/14 328/328/14 330/330/14 331/331/14 
f 331/331/14 330/330/14 332/332/14 333/333/14 
f 333/333/14 332/332/14 334/334/14 335/335/14 
f 336/336/14 326/326/14 329/329/14 337/337/14 
f 337/337/14 329/329/14 331/331/14 338/338/14 
f 338/338/14 331/331/14 333/333/14 339/339/14 
f 339/339/14 333/333/14 335/335/14 340/340/14 
f 341/341/14 336/336/14 337/337/14 342/342/14 
f 342/342/14 337/337/14 338/338/14 343/343/14 
f 343/343/14 338/338/14 339/339/14 344/344/14 
f 344/344/14 339/339/14 340/340/14 345/345/14 
f 346/346/14 341/341/14 342/342/14 347/347/14 
f 347/347/14 342/342/14 343/343/14 348/348/14 
f 348/348/14 343/343/14 344/344/14 349/349/14 
f 349/349/14 344/344/14 345/345/14 350/350/14 
# 16 polygons

#
# object Plane017
#

v  0.0000 0.0000 -1.0750
v  0.0000 0.0000 -1.0000
v  0.2500 0.0000 -1.0000
v  0.2500 0.0000 -1.0750
v  0.5000 0.0000 -1.0000
v  0.5000 0.0000 -1.0750
v  0.7500 0.0000 -1.0000
v  0.7500 0.0000 -1.0750
v  1.0000 0.0000 -1.0000
v  1.0000 0.0000 -1.0750
v  0.0000 0.0000 -1.1500
v  0.2500 0.0000 -1.1500
v  0.5000 0.0000 -1.1500
v  0.7500 0.0000 -1.1500
v  1.0000 0.0000 -1.1500
v  0.0000 0.0000 -1.2250
v  0.2500 0.0000 -1.2250
v  0.5000 0.0000 -1.2250
v  0.7500 0.0000 -1.2250
v  1.0000 0.0000 -1.2250
v  0.0000 0.0000 -1.3000
v  0.2500 0.0000 -1.3000
v  0.5000 0.0000 -1.3000
v  0.7500 0.0000 -1.3000
v  1.0000 0.0000 -1.3000
# 25 vertices

vn 0.0000 1.0000 -0.0000
# 1 vertex normals

vt 0.0000 0.2500 0.0000
vt 0.0000 0.0000 0.0000
vt 0.2500 0.0000 0.0000
vt 0.2500 0.2500 0.0000
vt 0.5000 0.0000 0.0000
vt 0.5000 0.2500 0.0000
vt 0.7500 0.0000 0.0000
vt 0.7500 0.2500 0.0000
vt 1.0000 0.0000 0.0000
vt 1.0000 0.2500 0.0000
vt 0.0000 0.5000 0.0000
vt 0.2500 0.5000 0.0000
vt 0.5000 0.5000 0.0000
vt 0.7500 0.5000 0.0000
vt 1.0000 0.5000 0.0000
vt 0.0000 0.7500 0.0000
vt 0.2500 0.7500 0.0000
vt 0.5000 0.7500 0.0000
vt 0.7500 0.7500 0.0000
vt 1.0000 0.7500 0.0000
vt 0.0000 1.0000 0.0000
vt 0.2500 1.0000 0.0000
vt 0.5000 1.0000 0.0000
vt 0.7500 1.0000 0.0000
vt 1.0000 1.0000 0.0000
# 25 texture coords

o Plane017
g Plane017
usemtl Material__3
s 1
f 351/351/15 352/352/15 353/353/15 354/354/15 
f 354/354/15 353/353/15 355/355/15 356/356/15 
f 356/356/15 355/355/15 357/357/15 358/358/15 
f 358/358/15 357/357/15 359/359/15 360/360/15 
f 361/361/15 351/351/15 354/354/15 362/362/15 
f 362/362/15 354/354/15 356/356/15 363/363/15 
f 363/363/15 356/356/15 358/358/15 364/364/15 
f 364/364/15 358/358/15 360/360/15 365/365/15 
f 366/366/15 361/361/15 362/362/15 367/367/15 
f 367/367/15 362/362/15 363/363/15 368/368/15 
f 368/368/15 363/363/15 364/364/15 369/369/15 
f 369/369/15 364/364/15 365/365/15 370/370/15 
f 371/371/15 366/366/15 367/367/15 372/372/15 
f 372/372/15 367/367/15 368/368/15 373/373/15 
f 373/373/15 368/368/15 369/369/15 374/374/15 
f 374/374/15 369/369/15 370/370/15 375/375/15 
# 16 polygons

#
# object Plane018
#

v  -1.0000 0.0000 1.2250
v  -1.0000 0.0000 1.3000
v  -0.7500 0.0000 1.3000
v  -0.7500 0.0000 1.2250
v  -0.5000 0.0000 1.3000
v  -0.5000 0.0000 1.2250
v  -0.2500 0.0000 1.3000
v  -0.2500 0.0000 1.2250
v  0.0000 0.0000 1.3000
v  0.0000 0.0000 1.2250
v  -1.0000 0.0000 1.1500
v  -0.7500 0.0000 1.1500
v  -0.5000 0.0000 1.1500
v  -0.2500 0.0000 1.1500
v  0.0000 0.0000 1.1500
v  -1.0000 0.0000 1.0750
v  -0.7500 0.0000 1.0750
v  -0.5000 0.0000 1.0750
v  -0.2500 0.0000 1.0750
v  0.0000 0.0000 1.0750
v  -1.0000 0.0000 1.0000
v  -0.7500 0.0000 1.0000
v  -0.5000 0.0000 1.0000
v  -0.2500 0.0000 1.0000
v  0.0000 0.0000 1.0000
# 25 vertices

vn 0.0000 1.0000 -0.0000
# 1 vertex normals

vt 0.0000 0.2500 0.0000
vt 0.0000 0.0000 0.0000
vt 0.2500 0.0000 0.0000
vt 0.2500 0.2500 0.0000
vt 0.5000 0.0000 0.0000
vt 0.5000 0.2500 0.0000
vt 0.7500 0.0000 0.0000
vt 0.7500 0.2500 0.0000
vt 1.0000 0.0000 0.0000
vt 1.0000 0.2500 0.0000
vt 0.0000 0.5000 0.0000
vt 0.2500 0.5000 0.0000
vt 0.5000 0.5000 0.0000
vt 0.7500 0.5000 0.0000
vt 1.0000 0.5000 0.0000
vt 0.0000 0.7500 0.0000
vt 0.2500 0.7500 0.0000
vt 0.5000 0.7500 0.0000
vt 0.7500 0.7500 0.0000
vt 1.0000 0.7500 0.0000
vt 0.0000 1.0000 0.0000
vt 0.2500 1.0000 0.0000
vt 0.5000 1.0000 0.0000
vt 0.7500 1.0000 0.0000
vt 1.0000 1.0000 0.0000
# 25 texture coords

o Plane018
g Plane018
usemtl Material__3
s 1
f 376/376/16 377/377/16 378/378/16 379/379/16 
f 379/379/16 378/378/16 380/380/16 381/381/16 
f 381/381/16 380/380/16 382/382/16 383/383/16 
f 383/383/16 382/382/16 384/384/16 385/385/16 
f 386/386/16 376/376/16 379/379/16 387/387/16 
f 387/387/16 379/379/16 381/381/16 388/388/16 
f 388/388/16 381/381/16 383/383/16 389/389/16 
f 389/389/16 383/383/16 385/385/16 390/390/16 
f 391/391/16 386/386/16 387/387/16 392/392/16 
f 392/392/16 387/387/16 388/388/16 393/393/16 
f 393/393/16 388/388/16 389/389/16 394/394/16 
f 394/394/16 389/389/16 390/390/16 395/395/16 
f 396/396/16 391/391/16 392/392/16 397/397/16 
f 397/397/16 392/392/16 393/393/16 398/398/16 
f 398/398/16 393/393/16 394/394/16 399/399/16 
f 399/399/16 394/394/16 395/395/16 400/400/16 
# 16 polygons

#
# object Plane019
#

v  0.0000 0.0000 1.2250
v  0.0000 0.0000 1.3000
v  0.2500 0.0000 1.3000
v  0.2500 0.0000 1.2250
v  0.5000 0.0000 1.3000
v  0.5000 0.0000 1.2250
v  0.7500 0.0000 1.3000
v  0.7500 0.0000 1.2250
v  1.0000 0.0000 1.3000
v  1.0000 0.0000 1.2250
v  0.0000 0.0000 1.1500
v  0.2500 0.0000 1.1500
v  0.5000 0.0000 1.1500
v  0.7500 0.0000 1.1500
v  1.0000 0.0000 1.1500
v  0.0000 0.0000 1.0750
v  0.2500 0.0000 1.0750
v  0.5000 0.0000 1.0750
v  0.7500 0.0000 1.0750
v  1.0000 0.0000 1.0750
v  0.0000 0.0000 1.0000
v  0.2500 0.0000 1.0000
v  0.5000 0.0000 1.0000
v  0.7500 0.0000 1.0000
v  1.0000 0.0000 1.0000
# 25 vertices

vn 0.0000 1.0000 -0.0000
# 1 vertex normals

vt 0.0000 0.2500 0.0000
vt 0.0000 0.0000 0.0000
vt 0.2500 0.0000 0.0000
vt 0.2500 0.2500 0.0000
vt 0.5000 0.0000 0.0000
vt 0.5000 0.2500 0.0000
vt 0.7500 0.0000 0.0000
vt 0.7500 0.2500 0.0000
vt 1.0000 0.0000 0.0000
vt 1.0000 0.2500 0.0000
vt 0.0000 0.5000 0.0000
vt 0.2500 0.5000 0.0000
vt 0.5000 0.5000 0.0000
vt 0.7500 0.5000 0.0000
vt 1.0000 0.5000 0.0000
vt 0.0000 0.7500 0.0000
vt 0.2500 0.7500 0.0000
vt 0.5000 0.7500 0.0000
vt 0.7500 0.7500 0.0000
vt 1.0000 0.7500 0.0000
vt 0.0000 1.0000 0.0000
vt 0.2500 1.0000 0.0000
vt 0.5000 1.0000 0.0000
vt 0.7500 1.0000 0.0000
vt 1.0000 1.0000 0.0000
# 25 texture coords

o Plane019
g Plane019
usemtl Material__3
s 1
f 401/401/17 402/402/17 403/403/17 404/404/17 
f 404/404/17 403/403/17 405/405/17 406/406/17 
f 406/406/17 405/405/17 407/407/17 408/408/17 
f 408/408/17 407/407/17 409/409/17 410/410/17 
f 411/411/17 401/401/17 404/404/17 412/412/17 
f 412/412/17 404/404/17 406/406/17 413/413/17 
f 413/413/17 406/406/17 408/408/17 414/414/17 
f 414/414/17 408/408/17 410/410/17 415/415/17 
f 416/416/17 411/411/17 412/412/17 417/417/17 
f 417/417/17 412/412/17 413/413/17 418/418/17 
f 418/418/17 413/413/17 414/414/17 419/419/17 
f 419/419/17 414/414/17 415/415/17 420/420/17 
f 421/421/17 416/416/17 417/417/17 422/422/17 
f 422/422/17 417/417/17 418/418/17 423/423/17 
f 423/423/17 418/418/17 419/419/17 424/424/17 
f 424/424/17 419/419/17 420/420/17 425/425/17 
# 16 polygons

#
# object Plane020
#

v  1.0750 0.0000 -0.0000
v  1.0000 0.0000 -0.0000
v  1.0000 0.0000 0.2500
v  1.0750 0.0000 0.2500
v  1.0000 0.0000 0.5000
v  1.0750 0.0000 0.5000
v  1.0000 0.0000 0.7500
v  1.0750 0.0000 0.7500
v  1.0000 0.0000 1.0000
v  1.0750 0.0000 1.0000
v  1.1500 0.0000 -0.0000
v  1.1500 0.0000 0.2500
v  1.1500 0.0000 0.5000
v  1.1500 0.0000 0.7500
v  1.1500 0.0000 1.0000
v  1.2250 0.0000 -0.0000
v  1.2250 0.0000 0.2500
v  1.2250 0.0000 0.5000
v  1.2250 0.0000 0.7500
v  1.2250 0.0000 1.0000
v  1.3000 0.0000 -0.0000
v  1.3000 0.0000 0.2500
v  1.3000 0.0000 0.5000
v  1.3000 0.0000 0.7500
v  1.3000 0.0000 1.0000
# 25 vertices

vn 0.0000 1.0000 -0.0000
# 1 vertex normals

vt 0.0000 0.2500 0.0000
vt 0.0000 0.0000 0.0000
vt 0.2500 0.0000 0.0000
vt 0.2500 0.2500 0.0000
vt 0.5000 0.0000 0.0000
vt 0.5000 0.2500 0.0000
vt 0.7500 0.0000 0.0000
vt 0.7500 0.2500 0.0000
vt 1.0000 0.0000 0.0000
vt 1.0000 0.2500 0.0000
vt 0.0000 0.5000 0.0000
vt 0.2500 0.5000 0.0000
vt 0.5000 0.5000 0.0000
vt 0.7500 0.5000 0.0000
vt 1.0000 0.5000 0.0000
vt 0.0000 0.7500 0.0000
vt 0.2500 0.7500 0.0000
vt 0.5000 0.7500 0.0000
vt 0.7500 0.7500 0.0000
vt 1.0000 0.7500 0.0000
vt 0.0000 1.0000 0.0000
vt 0.2500 1.0000 0.0000
vt 0.5000 1.0000 0.0000
vt 0.7500 1.0000 0.0000
vt 1.0000 1.0000 0.0000
# 25 texture coords

o Plane020
g Plane020
usemtl Material__3
s 1
f 426/426/18 427/427/18 428/428/18 429/429/18 
f 429/429/18 428/428/18 430/430/18 431/431/18 
f 431/431/18 430/430/18 432/432/18 433/433/18 
f 433/433/18 432/432/18 434/434/18 435/435/18 
f 436/436/18 426/426/18 429/429/18 437/437/18 
f 437/437/18 429/429/18 431/431/18 438/438/18 
f 438/438/18 431/431/18 433/433/18 439/439/18 
f 439/439/18 433/433/18 435/435/18 440/440/18 
f 441/441/18 436/436/18 437/437/18 442/442/18 
f 442/442/18 437/437/18 438/438/18 443/443/18 
f 443/443/18 438/438/18 439/439/18 444/444/18 
f 444/444/18 439/439/18 440/440/18 445/445/18 
f 446/446/18 441/441/18 442/442/18 447/447/18 
f 447/447/18 442/442/18 443/443/18 448/448/18 
f 448/448/18 443/443/18 444/444/18 449/449/18 
f 449/449/18 444/444/18 445/445/18 450/450/18 
# 16 polygons

#
# object Plane021
#

v  -1.2250 0.0000 -1.0000
v  -1.3000 0.0000 -1.0000
v  -1.3000 0.0000 -0.7500
v  -1.2250 0.0000 -0.7500
v  -1.3000 0.0000 -0.5000
v  -1.2250 0.0000 -0.5000
v  -1.3000 0.0000 -0.2500
v  -1.2250 0.0000 -0.2500
v  -1.3000 0.0000 -0.0000
v  -1.2250 0.0000 -0.0000
v  -1.1500 0.0000 -1.0000
v  -1.1500 0.0000 -0.7500
v  -1.1500 0.0000 -0.5000
v  -1.1500 0.0000 -0.2500
v  -1.1500 0.0000 -0.0000
v  -1.0750 0.0000 -1.0000
v  -1.0750 0.0000 -0.7500
v  -1.0750 0.0000 -0.5000
v  -1.0750 0.0000 -0.2500
v  -1.0750 0.0000 -0.0000
v  -1.0000 0.0000 -1.0000
v  -1.0000 0.0000 -0.7500
v  -1.0000 0.0000 -0.5000
v  -1.0000 0.0000 -0.2500
v  -1.0000 0.0000 -0.0000
# 25 vertices

vn 0.0000 1.0000 -0.0000
# 1 vertex normals

vt 0.0000 0.2500 0.0000
vt 0.0000 0.0000 0.0000
vt 0.2500 0.0000 0.0000
vt 0.2500 0.2500 0.0000
vt 0.5000 0.0000 0.0000
vt 0.5000 0.2500 0.0000
vt 0.7500 0.0000 0.0000
vt 0.7500 0.2500 0.0000
vt 1.0000 0.0000 0.0000
vt 1.0000 0.2500 0.0000
vt 0.0000 0.5000 0.0000
vt 0.2500 0.5000 0.0000
vt 0.5000 0.5000 0.0000
vt 0.7500 0.5000 0.0000
vt 1.0000 0.5000 0.0000
vt 0.0000 0.7500 0.0000
vt 0.2500 0.7500 0.0000
vt 0.5000 0.7500 0.0000
vt 0.7500 0.7500 0.0000
vt 1.0000 0.7500 0.0000
vt 0.0000 1.0000 0.0000
vt 0.2500 1.0000 0.0000
vt 0.5000 1.0000 0.0000
vt 0.7500 1.0000 0.0000
vt 1.0000 1.0000 0.0000
# 25 texture coords

o Plane021
g Plane021
usemtl Material__3
s 1
f 451/451/19 452/452/19 453/453/19 454/454/19 
f 454/454/19 453/453/19 455/455/19 456/456/19 
f 456/456/19 455/455/19 457/457/19 458/458/19 
f 458/458/19 457/457/19 459/459/19 460/460/19 
f 461/461/19 451/451/19 454/454/19 462/462/19 
f 462/462/19 454/454/19 456/456/19 463/463/19 
f 463/463/19 456/456/19 458/458/19 464/464/19 
f 464/464/19 458/458/19 460/460/19 465/465/19 
f 466/466/19 461/461/19 462/462/19 467/467/19 
f 467/467/19 462/462/19 463/463/19 468/468/19 
f 468/468/19 463/463/19 464/464/19 469/469/19 
f 469/469/19 464/464/19 465/465/19 470/470/19 
f 471/471/19 466/466/19 467/467/19 472/472/19 
f 472/472/19 467/467/19 468/468/19 473/473/19 
f 473/473/19 468/468/19 469/469/19 474/474/19 
f 474/474/19 469/469/19 470/470/19 475/475/19 
# 16 polygons

#
# object Plane022
#

v  -1.2250 0.0000 -0.0000
v  -1.3000 0.0000 -0.0000
v  -1.3000 0.0000 0.2500
v  -1.2250 0.0000 0.2500
v  -1.3000 0.0000 0.5000
v  -1.2250 0.0000 0.5000
v  -1.3000 0.0000 0.7500
v  -1.2250 0.0000 0.7500
v  -1.3000 0.0000 1.0000
v  -1.2250 0.0000 1.0000
v  -1.1500 0.0000 -0.0000
v  -1.1500 0.0000 0.2500
v  -1.1500 0.0000 0.5000
v  -1.1500 0.0000 0.7500
v  -1.1500 0.0000 1.0000
v  -1.0750 0.0000 -0.0000
v  -1.0750 0.0000 0.2500
v  -1.0750 0.0000 0.5000
v  -1.0750 0.0000 0.7500
v  -1.0750 0.0000 1.0000
v  -1.0000 0.0000 -0.0000
v  -1.0000 0.0000 0.2500
v  -1.0000 0.0000 0.5000
v  -1.0000 0.0000 0.7500
v  -1.0000 0.0000 1.0000
# 25 vertices

vn 0.0000 1.0000 -0.0000
# 1 vertex normals

vt 0.0000 0.2500 0.0000
vt 0.0000 0.0000 0.0000
vt 0.2500 0.0000 0.0000
vt 0.2500 0.2500 0.0000
vt 0.5000 0.0000 0.0000
vt 0.5000 0.2500 0.0000
vt 0.7500 0.0000 0.0000
vt 0.7500 0.2500 0.0000
vt 1.0000 0.0000 0.0000
vt 1.0000 0.2500 0.0000
vt 0.0000 0.5000 0.0000
vt 0.2500 0.5000 0.0000
vt 0.5000 0.5000 0.0000
vt 0.7500 0.5000 0.0000
vt 1.0000 0.5000 0.0000
vt 0.0000 0.7500 0.0000
vt 0.2500 0.7500 0.0000
vt 0.5000 0.7500 0.0000
vt 0.7500 0.7500 0.0000
vt 1.0000 0.7500 0.0000
vt 0.0000 1.0000 0.0000
vt 0.2500 1.0000 0.0000
vt 0.5000 1.0000 0.0000
vt 0.7500 1.0000 0.0000
vt 1.0000 1.0000 0.0000
# 25 texture coords

o Plane022
g Plane022
usemtl Material__3
s 1
f 476/476/20 477/477/20 478/478/20 479/479/20 
f 479/479/20 478/478/20 480/480/20 481/481/20 
f 481/481/20 480/480/20 482/482/20 483/483/20 
f 483/483/20 482/482/20 484/484/20 485/485/20 
f 486/486/20 476/476/20 479/479/20 487/487/20 
f 487/487/20 479/479/20 481/481/20 488/488/20 
f 488/488/20 481/481/20 483/483/20 489/489/20 
f 489/489/20 483/483/20 485/485/20 490/490/20 
f 491/491/20 486/486/20 487/487/20 492/492/20 
f 492/492/20 487/487/20 488/488/20 493/493/20 
f 493/493/20 488/488/20 489/489/20 494/494/20 
f 494/494/20 489/489/20 490/490/20 495/495/20 
f 496/496/20 491/491/20 492/492/20 497/497/20 
f 497/497/20 492/492/20 493/493/20 498/498/20 
f 498/498/20 493/493/20 494/494/20 499/499/20 
f 499/499/20 494/494/20 495/495/20 500/500/20 
# 16 polygons

