# 3ds Max Wavefront OBJ Exporter v0.99 - (c)2007 guruware
# File Created: 28.04.2026 21:57:42

mtllib Caja_Stand2.mtl

#
# object Caja_Stand2
#

v  1.1265 2.3927 6.2059
v  1.1280 2.4058 6.2059
v  1.1516 2.4003 6.2059
v  1.1506 2.3913 6.2059
v  1.1516 2.4003 6.3262
v  1.1506 2.3913 6.3262
v  1.1280 2.4058 6.3262
v  1.1265 2.3927 6.3262
v  1.1326 2.4185 6.2059
v  1.1543 2.4078 6.2059
v  1.1543 2.4078 6.3262
v  1.1326 2.4185 6.3262
v  1.1397 2.4296 6.2059
v  1.1586 2.4145 6.2059
v  1.1586 2.4145 6.3262
v  1.1397 2.4296 6.3262
v  1.1490 2.4390 6.2059
v  1.1641 2.4201 6.2059
v  1.1641 2.4201 6.3262
v  1.1490 2.4390 6.3262
v  1.1602 2.4461 6.2059
v  1.1708 2.4243 6.2059
v  1.1708 2.4243 6.3262
v  1.1602 2.4461 6.3262
v  1.1729 2.4506 6.2059
v  1.1784 2.4270 6.2059
v  1.1784 2.4270 6.3262
v  1.1729 2.4506 6.3262
v  1.1860 2.4521 6.2059
v  1.1873 2.4281 6.2059
v  1.1873 2.4281 6.3262
v  1.1860 2.4521 6.3262
v  3.4959 2.4521 6.2059
v  3.4946 2.4281 6.2059
v  3.4946 2.4281 6.3262
v  3.4959 2.4521 6.3262
v  3.5090 2.4506 6.2059
v  3.5035 2.4270 6.2059
v  3.5035 2.4270 6.3262
v  3.5090 2.4506 6.3262
v  3.5217 2.4461 6.2059
v  3.5111 2.4243 6.2059
v  3.5111 2.4243 6.3262
v  3.5217 2.4461 6.3262
v  3.5329 2.4390 6.2059
v  3.5178 2.4201 6.2059
v  3.5178 2.4201 6.3262
v  3.5329 2.4390 6.3262
v  3.5422 2.4296 6.2059
v  3.5233 2.4145 6.2059
v  3.5233 2.4145 6.3262
v  3.5422 2.4296 6.3262
v  3.5493 2.4185 6.2059
v  3.5276 2.4078 6.2059
v  3.5276 2.4078 6.3262
v  3.5493 2.4185 6.3262
v  3.5539 2.4058 6.2059
v  3.5303 2.4003 6.2059
v  3.5303 2.4003 6.3262
v  3.5539 2.4058 6.3262
v  3.5554 2.3927 6.2059
v  3.5313 2.3913 6.2059
v  3.5313 2.3913 6.3262
v  3.5554 2.3927 6.3262
v  3.5554 1.2851 6.2059
v  3.5313 1.2865 6.2059
v  3.5313 1.2865 6.3262
v  3.5554 1.2851 6.3262
v  3.5539 1.2720 6.2059
v  3.5303 1.2775 6.2059
v  3.5303 1.2775 6.3262
v  3.5539 1.2720 6.3262
v  3.5493 1.2593 6.2059
v  3.5276 1.2700 6.2059
v  3.5276 1.2700 6.3262
v  3.5493 1.2593 6.3262
v  3.5422 1.2482 6.2059
v  3.5233 1.2633 6.2059
v  3.5233 1.2633 6.3262
v  3.5422 1.2482 6.3262
v  3.5329 1.2388 6.2059
v  3.5178 1.2577 6.2059
v  3.5178 1.2577 6.3262
v  3.5329 1.2388 6.3262
v  3.5217 1.2317 6.2059
v  3.5111 1.2535 6.2059
v  3.5111 1.2535 6.3262
v  3.5217 1.2317 6.3262
v  3.5090 1.2272 6.2059
v  3.5035 1.2508 6.2059
v  3.5035 1.2508 6.3262
v  3.5090 1.2272 6.3262
v  3.4959 1.2257 6.2059
v  3.4946 1.2497 6.2059
v  3.4946 1.2497 6.3262
v  3.4959 1.2257 6.3262
v  1.1860 1.2257 6.2059
v  1.1873 1.2497 6.2059
v  1.1873 1.2497 6.3262
v  1.1860 1.2257 6.3262
v  1.1729 1.2272 6.2059
v  1.1784 1.2508 6.2059
v  1.1784 1.2508 6.3262
v  1.1729 1.2272 6.3262
v  1.1602 1.2317 6.2059
v  1.1708 1.2535 6.2059
v  1.1708 1.2535 6.3262
v  1.1602 1.2317 6.3262
v  1.1490 1.2388 6.2059
v  1.1641 1.2577 6.2059
v  1.1641 1.2577 6.3262
v  1.1490 1.2388 6.3262
v  1.1397 1.2482 6.2059
v  1.1586 1.2633 6.2059
v  1.1586 1.2633 6.3262
v  1.1397 1.2482 6.3262
v  1.1326 1.2593 6.2059
v  1.1543 1.2700 6.2059
v  1.1543 1.2700 6.3262
v  1.1326 1.2593 6.3262
v  1.1280 1.2720 6.2059
v  1.1516 1.2775 6.2059
v  1.1516 1.2775 6.3262
v  1.1280 1.2720 6.3262
v  1.1265 1.2851 6.2059
v  1.1506 1.2865 6.2059
v  1.1506 1.2865 6.3262
v  1.1265 1.2851 6.3262
# 128 vertices

vn -0.7184 0.0413 -0.6944
vn -0.7119 0.1661 -0.6823
vn 0.6617 -0.1544 -0.7337
vn 0.6926 -0.0398 -0.7203
vn 0.6617 -0.1544 0.7337
vn 0.6926 -0.0398 0.7203
vn -0.7119 0.1661 0.6823
vn -0.7184 0.0413 0.6944
vn -0.6561 0.3211 -0.6829
vn 0.6110 -0.2990 -0.7330
vn 0.6110 -0.2990 0.7330
vn -0.6561 0.3210 0.6830
vn -0.5696 0.4568 -0.6833
vn 0.5310 -0.4259 -0.7325
vn 0.5310 -0.4259 0.7325
vn -0.5695 0.4568 0.6834
vn -0.4568 0.5696 -0.6833
vn 0.4259 -0.5310 -0.7325
vn 0.4259 -0.5310 0.7325
vn -0.4568 0.5696 0.6833
vn -0.3211 0.6561 -0.6829
vn 0.2990 -0.6110 -0.7330
vn 0.2990 -0.6110 0.7330
vn -0.3211 0.6561 0.6829
vn -0.1661 0.7119 -0.6823
vn 0.1544 -0.6617 -0.7337
vn 0.1544 -0.6617 0.7337
vn -0.1661 0.7119 0.6823
vn -0.0413 0.7184 -0.6944
vn 0.0398 -0.6926 -0.7203
vn 0.0398 -0.6926 0.7203
vn -0.0413 0.7184 0.6944
vn 0.0413 0.7184 -0.6945
vn -0.0398 -0.6926 -0.7203
vn -0.0398 -0.6925 0.7203
vn 0.0413 0.7184 0.6945
vn 0.1661 0.7119 -0.6823
vn -0.1544 -0.6617 -0.7337
vn -0.1544 -0.6616 0.7338
vn 0.1661 0.7119 0.6823
vn 0.3211 0.6562 -0.6829
vn -0.2990 -0.6110 -0.7330
vn -0.2990 -0.6110 0.7330
vn 0.3211 0.6562 0.6829
vn 0.4568 0.5696 -0.6833
vn -0.4259 -0.5310 -0.7325
vn -0.4259 -0.5310 0.7325
vn 0.4568 0.5696 0.6833
vn 0.5696 0.4568 -0.6833
vn -0.5310 -0.4259 -0.7325
vn -0.5310 -0.4259 0.7325
vn 0.5696 0.4568 0.6833
vn 0.6562 0.3211 -0.6829
vn -0.6110 -0.2990 -0.7330
vn -0.6110 -0.2990 0.7330
vn 0.6562 0.3211 0.6829
vn 0.7120 0.1661 -0.6823
vn -0.6616 -0.1544 -0.7338
vn -0.6616 -0.1544 0.7338
vn 0.7120 0.1661 0.6823
vn 0.7184 0.0413 -0.6944
vn -0.6926 -0.0398 -0.7202
vn -0.6925 -0.0398 0.7203
vn 0.7184 0.0413 0.6944
vn 0.7184 -0.0413 -0.6945
vn -0.6926 0.0398 -0.7203
vn -0.6926 0.0398 0.7203
vn 0.7184 -0.0413 0.6944
vn 0.7120 -0.1661 -0.6823
vn -0.6617 0.1544 -0.7337
vn -0.6617 0.1544 0.7337
vn 0.7120 -0.1661 0.6823
vn 0.6562 -0.3211 -0.6829
vn -0.6110 0.2990 -0.7330
vn -0.6110 0.2990 0.7330
vn 0.6561 -0.3211 0.6829
vn 0.5696 -0.4568 -0.6833
vn -0.5310 0.4259 -0.7325
vn -0.5310 0.4259 0.7325
vn 0.5696 -0.4568 0.6833
vn 0.4568 -0.5696 -0.6833
vn -0.4259 0.5310 -0.7325
vn -0.4259 0.5310 0.7325
vn 0.4568 -0.5696 0.6833
vn 0.3211 -0.6561 -0.6829
vn -0.2990 0.6110 -0.7330
vn -0.2990 0.6110 0.7330
vn 0.3211 -0.6561 0.6829
vn 0.1661 -0.7119 -0.6823
vn -0.1544 0.6617 -0.7337
vn -0.1544 0.6617 0.7337
vn 0.1661 -0.7119 0.6823
vn 0.0413 -0.7184 -0.6944
vn -0.0398 0.6926 -0.7203
vn -0.0398 0.6926 0.7203
vn 0.0413 -0.7184 0.6944
vn -0.0413 -0.7184 -0.6944
vn 0.0398 0.6926 -0.7203
vn 0.0398 0.6926 0.7203
vn -0.0413 -0.7184 0.6944
vn -0.1661 -0.7120 -0.6823
vn 0.1544 0.6617 -0.7337
vn 0.1544 0.6617 0.7337
vn -0.1661 -0.7119 0.6823
vn -0.3211 -0.6562 -0.6829
vn 0.2990 0.6110 -0.7330
vn 0.2990 0.6110 0.7330
vn -0.3211 -0.6562 0.6829
vn -0.4568 -0.5696 -0.6833
vn 0.4259 0.5310 -0.7325
vn 0.4259 0.5310 0.7325
vn -0.4568 -0.5696 0.6833
vn -0.5696 -0.4568 -0.6833
vn 0.5310 0.4259 -0.7325
vn 0.5310 0.4259 0.7325
vn -0.5696 -0.4568 0.6833
vn -0.6562 -0.3211 -0.6829
vn 0.6110 0.2990 -0.7330
vn 0.6110 0.2990 0.7330
vn -0.6562 -0.3211 0.6829
vn -0.7120 -0.1661 -0.6823
vn 0.6616 0.1544 -0.7338
vn 0.6616 0.1544 0.7338
vn -0.7120 -0.1661 0.6823
vn -0.7184 -0.0413 -0.6944
vn 0.6925 0.0398 -0.7203
vn 0.6925 0.0398 0.7203
vn -0.7184 -0.0413 0.6944
# 128 vertex normals

o Caja_Stand2
g Caja_Stand2
usemtl Material__38
s 1
f 1//1 2//2 3//3 4//4 
s 2
f 4//4 3//3 5//5 6//6 
s 1
f 6//6 5//5 7//7 8//8 
s 2
f 8//8 7//7 2//2 1//1 
s 1
f 2//2 9//9 10//10 3//3 
s 2
f 3//3 10//10 11//11 5//5 
s 1
f 5//5 11//11 12//12 7//7 
s 2
f 7//7 12//12 9//9 2//2 
s 1
f 9//9 13//13 14//14 10//10 
s 2
f 10//10 14//14 15//15 11//11 
s 1
f 11//11 15//15 16//16 12//12 
s 2
f 12//12 16//16 13//13 9//9 
s 1
f 13//13 17//17 18//18 14//14 
s 2
f 14//14 18//18 19//19 15//15 
s 1
f 15//15 19//19 20//20 16//16 
s 2
f 16//16 20//20 17//17 13//13 
s 1
f 17//17 21//21 22//22 18//18 
s 2
f 18//18 22//22 23//23 19//19 
s 1
f 19//19 23//23 24//24 20//20 
s 2
f 20//20 24//24 21//21 17//17 
s 1
f 21//21 25//25 26//26 22//22 
s 2
f 22//22 26//26 27//27 23//23 
s 1
f 23//23 27//27 28//28 24//24 
s 2
f 24//24 28//28 25//25 21//21 
s 1
f 25//25 29//29 30//30 26//26 
s 2
f 26//26 30//30 31//31 27//27 
s 1
f 27//27 31//31 32//32 28//28 
s 2
f 28//28 32//32 29//29 25//25 
s 1
f 29//29 33//33 34//34 30//30 
s 2
f 30//30 34//34 35//35 31//31 
s 1
f 31//31 35//35 36//36 32//32 
s 2
f 32//32 36//36 33//33 29//29 
s 1
f 33//33 37//37 38//38 34//34 
s 2
f 34//34 38//38 39//39 35//35 
s 1
f 35//35 39//39 40//40 36//36 
s 2
f 36//36 40//40 37//37 33//33 
s 1
f 37//37 41//41 42//42 38//38 
s 2
f 38//38 42//42 43//43 39//39 
s 1
f 39//39 43//43 44//44 40//40 
s 2
f 40//40 44//44 41//41 37//37 
s 1
f 41//41 45//45 46//46 42//42 
s 2
f 42//42 46//46 47//47 43//43 
s 1
f 43//43 47//47 48//48 44//44 
s 2
f 44//44 48//48 45//45 41//41 
s 1
f 45//45 49//49 50//50 46//46 
s 2
f 46//46 50//50 51//51 47//47 
s 1
f 47//47 51//51 52//52 48//48 
s 2
f 48//48 52//52 49//49 45//45 
s 1
f 49//49 53//53 54//54 50//50 
s 2
f 50//50 54//54 55//55 51//51 
s 1
f 51//51 55//55 56//56 52//52 
s 2
f 52//52 56//56 53//53 49//49 
s 1
f 53//53 57//57 58//58 54//54 
s 2
f 54//54 58//58 59//59 55//55 
s 1
f 55//55 59//59 60//60 56//56 
s 2
f 56//56 60//60 57//57 53//53 
s 1
f 57//57 61//61 62//62 58//58 
s 2
f 58//58 62//62 63//63 59//59 
s 1
f 59//59 63//63 64//64 60//60 
s 2
f 60//60 64//64 61//61 57//57 
s 1
f 61//61 65//65 66//66 62//62 
s 2
f 62//62 66//66 67//67 63//63 
s 1
f 63//63 67//67 68//68 64//64 
s 2
f 64//64 68//68 65//65 61//61 
s 1
f 65//65 69//69 70//70 66//66 
s 2
f 66//66 70//70 71//71 67//67 
s 1
f 67//67 71//71 72//72 68//68 
s 2
f 68//68 72//72 69//69 65//65 
s 1
f 69//69 73//73 74//74 70//70 
s 2
f 70//70 74//74 75//75 71//71 
s 1
f 71//71 75//75 76//76 72//72 
s 2
f 72//72 76//76 73//73 69//69 
s 1
f 73//73 77//77 78//78 74//74 
s 2
f 74//74 78//78 79//79 75//75 
s 1
f 75//75 79//79 80//80 76//76 
s 2
f 76//76 80//80 77//77 73//73 
s 1
f 77//77 81//81 82//82 78//78 
s 2
f 78//78 82//82 83//83 79//79 
s 1
f 79//79 83//83 84//84 80//80 
s 2
f 80//80 84//84 81//81 77//77 
s 1
f 81//81 85//85 86//86 82//82 
s 2
f 82//82 86//86 87//87 83//83 
s 1
f 83//83 87//87 88//88 84//84 
s 2
f 84//84 88//88 85//85 81//81 
s 1
f 85//85 89//89 90//90 86//86 
s 2
f 86//86 90//90 91//91 87//87 
s 1
f 87//87 91//91 92//92 88//88 
s 2
f 88//88 92//92 89//89 85//85 
s 1
f 89//89 93//93 94//94 90//90 
s 2
f 90//90 94//94 95//95 91//91 
s 1
f 91//91 95//95 96//96 92//92 
s 2
f 92//92 96//96 93//93 89//89 
s 1
f 93//93 97//97 98//98 94//94 
s 2
f 94//94 98//98 99//99 95//95 
s 1
f 95//95 99//99 100//100 96//96 
s 2
f 96//96 100//100 97//97 93//93 
s 1
f 97//97 101//101 102//102 98//98 
s 2
f 98//98 102//102 103//103 99//99 
s 1
f 99//99 103//103 104//104 100//100 
s 2
f 100//100 104//104 101//101 97//97 
s 1
f 101//101 105//105 106//106 102//102 
s 2
f 102//102 106//106 107//107 103//103 
s 1
f 103//103 107//107 108//108 104//104 
s 2
f 104//104 108//108 105//105 101//101 
s 1
f 105//105 109//109 110//110 106//106 
s 2
f 106//106 110//110 111//111 107//107 
s 1
f 107//107 111//111 112//112 108//108 
s 2
f 108//108 112//112 109//109 105//105 
s 1
f 109//109 113//113 114//114 110//110 
s 2
f 110//110 114//114 115//115 111//111 
s 1
f 111//111 115//115 116//116 112//112 
s 2
f 112//112 116//116 113//113 109//109 
s 1
f 113//113 117//117 118//118 114//114 
s 2
f 114//114 118//118 119//119 115//115 
s 1
f 115//115 119//119 120//120 116//116 
s 2
f 116//116 120//120 117//117 113//113 
s 1
f 117//117 121//121 122//122 118//118 
s 2
f 118//118 122//122 123//123 119//119 
s 1
f 119//119 123//123 124//124 120//120 
s 2
f 120//120 124//124 121//121 117//117 
s 1
f 121//121 125//125 126//126 122//122 
s 2
f 122//122 126//126 127//127 123//123 
s 1
f 123//123 127//127 128//128 124//124 
s 2
f 124//124 128//128 125//125 121//121 
s 1
f 125//125 1//1 4//4 126//126 
s 2
f 126//126 4//4 6//6 127//127 
s 1
f 127//127 6//6 8//8 128//128 
s 2
f 128//128 8//8 1//1 125//125 
# 128 polygons

