# 3ds Max Wavefront OBJ Exporter v0.99 - (c)2007 guruware
# File Created: 28.04.2026 21:58:09

mtllib Escritorio_Stand2.mtl

#
# object Escritorio_Stand2
#

v  1.1259 0.8018 4.8423
v  3.4030 0.2485 5.3162
v  4.0806 1.0600 5.3162
v  0.5796 1.0600 4.8832
v  1.2883 0.7269 4.4680
v  2.8961 0.3559 4.4680
v  3.4030 0.2485 4.5644
v  3.7419 0.6544 4.4680
v  0.5796 1.0600 4.4085
v  0.5796 1.0600 4.4447
v  4.0806 1.0600 4.4446
v  4.0806 1.0600 4.3716
v  0.5881 0.5590 4.8819
v  0.8020 0.4484 4.9189
v  0.7865 0.4193 4.4680
v  1.4109 0.6704 4.1855
v  0.7817 0.4102 4.3276
v  0.5722 0.5291 4.4184
v  0.5731 0.5308 4.4447
v  4.0806 0.0181 5.3162
v  3.4030 0.0181 5.3162
v  3.4030 0.1333 4.4680
v  3.4030 0.0181 4.4680
v  3.8240 0.7526 4.4446
v  4.0806 0.0181 4.3716
v  3.4030 0.1054 4.4447
v  3.4030 0.0181 4.3716
v  4.0806 0.0181 4.4446
v  0.5739 0.5323 4.4680
v  1.2984 0.7222 4.4447
v  2.7735 0.3819 4.4446
v  0.5796 1.0600 4.4680
v  4.0806 1.0600 4.4680
v  0.7857 0.4178 4.4447
v  3.4030 0.0181 4.4447
v  4.0806 0.0181 4.4680
# 36 vertices

vn 0.0544 -0.7458 0.6640
vn -0.4419 -0.2072 0.8728
vn 0.5547 0.5830 0.5937
vn -0.5834 0.5610 0.5872
vn 0.1422 -0.9569 0.2531
vn -0.0724 -0.8338 -0.5474
vn -0.7637 -0.2752 -0.5840
vn -0.3674 0.0869 -0.9260
vn -0.6147 0.6006 -0.5113
vn -0.7028 0.7114 -0.0000
vn 0.7071 0.7071 -0.0000
vn 0.5518 0.5504 -0.6266
vn -0.7193 -0.4001 0.5679
vn 0.1369 -0.6860 0.7146
vn 0.0312 -0.9975 0.0633
vn 0.0194 -0.4255 -0.9048
vn -0.1861 -0.7359 -0.6510
vn -0.8062 -0.4228 -0.4140
vn -0.8589 -0.5083 0.0623
vn 0.7071 0.0000 0.7071
vn -0.7071 -0.0000 0.7071
vn -0.9226 0.2476 -0.2959
vn -1.0000 -0.0000 0.0000
vn 0.6706 0.0506 -0.7401
vn -0.7897 0.2803 -0.5457
vn -0.4863 0.5607 -0.6702
vn 1.0000 0.0000 -0.0000
vn -0.8586 -0.5089 0.0623
vn 0.1361 -0.9585 0.2507
vn -0.7033 0.7109 -0.0000
vn 0.0241 -0.9977 0.0636
# 31 vertex normals

vt 0.3613 -0.1339 0.5483
vt 0.6534 1.0685 0.7986
vt 0.2249 1.4263 0.7986
vt 0.2249 -0.4224 0.5699
vt -0.1339 0.5483 0.3613
vt -0.0482 0.3506 0.4008
vt 0.8009 0.3506 0.5967
vt 1.0685 0.4015 0.6534
vt 1.0685 0.7986 0.6534
vt 0.3466 1.0685 0.4015
vt 0.4033 0.8009 0.3506
vt 0.5609 1.2475 0.3506
vt 1.4224 0.3192 0.2249
vt 1.4224 0.3383 0.2249
vt -0.4263 0.3383 0.2249
vt -0.4263 0.2998 0.2249
vt 0.4895 -0.4179 0.5692
vt 0.5479 -0.3050 0.5888
vt -0.3437 0.5593 0.4847
vt -0.3132 0.3506 0.5632
vt 0.5694 0.0165 0.2014
vt 0.4320 -0.3157 0.2765
vt 0.4947 -0.4263 0.3244
vt 0.7751 -0.4224 0.3192
vt 0.5053 0.3244 -0.4263
vt 0.5044 0.3383 -0.4259
vt 0.2249 0.3383 -0.4224
vt 0.2249 0.3192 -0.4224
vt 0.7751 1.4263 0.7986
vt 0.7751 1.0685 0.7986
vt 0.6534 0.4015 1.0685
vt 0.7143 0.3506 1.0685
vt 0.7751 0.3506 1.0685
vt 0.6534 0.7986 1.0685
vt 0.7751 0.7986 1.0685
vt 0.6128 1.2908 0.3383
vt 0.7751 1.4263 0.2998
vt 0.2249 1.4263 0.2998
vt 0.2710 1.0685 0.3383
vt 0.2249 1.0685 0.2998
vt 0.7751 0.2998 1.4263
vt 0.7751 0.3383 1.4263
vt 0.2249 0.3383 1.4263
vt 0.2249 0.2998 1.4263
vt -0.4179 0.5692 0.4895
vt -0.4254 0.3506 0.5036
vt -0.3050 0.5888 0.5479
vt -0.0429 0.3383 0.4033
vt 0.0165 0.2014 0.4306
vt 0.7361 0.3383 0.5830
vt 0.4170 0.7361 0.3383
vt 1.4224 0.3506 0.2249
vt -0.4263 0.3506 0.2249
vt -0.3157 0.2765 0.5680
vt -0.3136 0.3383 0.5640
vt 0.5036 0.3506 -0.4254
vt 0.2249 0.3506 -0.4224
vt 0.7290 0.3383 1.0685
vt 0.7751 0.2998 1.0685
vt 0.7751 0.3383 1.0685
vt 0.4391 0.3506 1.2475
vt 0.3872 0.3383 1.2908
vt 0.7751 0.3506 1.4263
vt 0.2249 0.3506 1.4263
vt -0.4263 0.3244 0.5053
vt -0.4259 0.3383 0.5044
vt 1.4224 0.5699 0.2249
vt -0.4263 0.7986 0.2249
vt 0.4895 0.5692 -0.4179
vt 0.2249 0.5699 -0.4224
vt 0.7751 0.7986 1.4263
vt 0.2249 0.7986 1.4263
# 72 texture coords

o Escritorio_Stand2
g Escritorio_Stand2
usemtl Material__36
s off
f 1/1/1 2/2/2 3/3/3 4/4/4 
f 1/5/1 5/6/5 6/7/6 7/8/7 
f 2/9/2 1/5/1 7/8/7 
f 7/10/7 6/11/6 8/12/8 
f 9/13/9 10/14/10 11/15/11 12/16/12 
f 13/17/13 14/18/14 1/1/1 4/4/4 
f 1/5/1 14/19/14 15/20/15 5/6/5 
f 16/21/16 17/22/17 18/23/18 9/24/9 
f 18/25/18 19/26/19 10/27/10 9/28/9 
f 20/29/20 3/3/3 2/2/2 21/30/21 
f 7/31/7 22/32/22 23/33/23 2/34/2 
f 21/35/21 2/34/2 23/33/23 
f 24/36/8 12/37/12 25/38/24 26/39/25 
f 27/40/26 26/39/25 25/38/24 
f 12/41/12 11/42/11 28/43/27 25/44/24 
f 13/45/13 29/46/28 15/20/15 14/47/14 
f 30/48/29 16/49/16 31/50/6 
f 16/21/16 9/24/9 12/37/12 24/36/8 
f 31/51/6 16/21/16 24/36/8 
f 32/52/30 33/53/11 11/15/11 10/14/10 
f 17/54/17 16/49/16 30/48/29 34/55/31 
f 29/56/28 32/57/30 10/27/10 19/26/19 
f 26/58/25 27/59/26 35/60/23 
f 22/32/22 8/61/8 24/62/8 26/58/25 
f 33/63/11 36/64/27 28/43/27 11/42/11 
f 18/65/18 17/54/17 34/55/31 19/66/19 
f 5/6/5 30/48/29 31/50/6 6/7/6 
f 8/12/8 6/11/6 31/51/6 24/36/8 
f 34/55/31 30/48/29 5/6/5 15/20/15 
f 26/58/25 35/60/23 23/33/23 22/32/22 
f 19/66/19 34/55/31 15/20/15 29/46/28 
f 4/67/4 3/68/3 33/53/11 32/52/30 
f 13/69/13 4/70/4 32/57/30 29/56/28 
f 22/32/22 7/31/7 8/61/8 
f 3/71/3 20/72/20 36/64/27 33/63/11 
# 27 polygons - 8 triangles

