# 3ds Max Wavefront OBJ Exporter v0.99 - (c)2007 guruware
# File Created: 28.04.2026 21:58:39

mtllib Logo_Stand2.mtl

#
# object Logo_Stand2
#

v  3.5610 1.5478 6.2660
v  3.5610 1.2566 6.2660
v  2.9510 1.2566 6.2660
v  2.9510 1.5478 6.2660
v  2.3410 1.2566 6.2660
v  2.3410 1.5478 6.2660
v  1.7310 1.2566 6.2660
v  1.7310 1.5478 6.2660
v  1.1210 1.2566 6.2660
v  1.1210 1.5478 6.2660
v  3.5610 1.8390 6.2660
v  2.9510 1.8390 6.2660
v  2.3410 1.8390 6.2660
v  1.7310 1.8390 6.2660
v  1.1210 1.8390 6.2660
v  3.5610 2.1302 6.2660
v  2.9510 2.1302 6.2660
v  2.3410 2.1302 6.2660
v  1.7310 2.1302 6.2660
v  1.1210 2.1302 6.2660
v  3.5610 2.4214 6.2660
v  2.9510 2.4214 6.2660
v  2.3410 2.4214 6.2660
v  1.7310 2.4214 6.2660
v  1.1210 2.4214 6.2660
# 25 vertices

vn -0.0000 0.0000 -1.0000
# 1 vertex normals

vt 0.0000 0.2500 0.0000
vt 0.0000 0.0000 0.0000
vt 0.2500 0.0000 0.0000
vt 0.2500 0.2500 0.0000
vt 0.5000 0.0000 0.0000
vt 0.5000 0.2500 0.0000
vt 0.7500 0.0000 0.0000
vt 0.7500 0.2500 0.0000
vt 1.0000 0.0000 0.0000
vt 1.0000 0.2500 0.0000
vt 0.0000 0.5000 0.0000
vt 0.2500 0.5000 0.0000
vt 0.5000 0.5000 0.0000
vt 0.7500 0.5000 0.0000
vt 1.0000 0.5000 0.0000
vt 0.0000 0.7500 0.0000
vt 0.2500 0.7500 0.0000
vt 0.5000 0.7500 0.0000
vt 0.7500 0.7500 0.0000
vt 1.0000 0.7500 0.0000
vt 0.0000 1.0000 0.0000
vt 0.2500 1.0000 0.0000
vt 0.5000 1.0000 0.0000
vt 0.7500 1.0000 0.0000
vt 1.0000 1.0000 0.0000
# 25 texture coords

o Logo_Stand2
g Logo_Stand2
usemtl Material__39
s 1
f 1/1/1 2/2/1 3/3/1 4/4/1 
f 4/4/1 3/3/1 5/5/1 6/6/1 
f 6/6/1 5/5/1 7/7/1 8/8/1 
f 8/8/1 7/7/1 9/9/1 10/10/1 
f 11/11/1 1/1/1 4/4/1 12/12/1 
f 12/12/1 4/4/1 6/6/1 13/13/1 
f 13/13/1 6/6/1 8/8/1 14/14/1 
f 14/14/1 8/8/1 10/10/1 15/15/1 
f 16/16/1 11/11/1 12/12/1 17/17/1 
f 17/17/1 12/12/1 13/13/1 18/18/1 
f 18/18/1 13/13/1 14/14/1 19/19/1 
f 19/19/1 14/14/1 15/15/1 20/20/1 
f 21/21/1 16/16/1 17/17/1 22/22/1 
f 22/22/1 17/17/1 18/18/1 23/23/1 
f 23/23/1 18/18/1 19/19/1 24/24/1 
f 24/24/1 19/19/1 20/20/1 25/25/1 
# 16 polygons

