# 3ds Max Wavefront OBJ Exporter v0.99 - (c)2007 guruware
# File Created: 28.04.2026 21:59:02

mtllib Mesa_Stand2.mtl

#
# object Mesa_Stand2
#

v  1.1259 0.7897 1.0275
v  3.4030 0.6851 0.9221
v  4.0806 0.6851 1.2299
v  0.5796 0.8213 1.2299
v  1.2883 0.8664 0.9689
v  2.8961 0.8664 0.8498
v  3.4030 0.8360 0.9221
v  3.7419 0.8664 1.0838
v  0.5796 0.8851 1.2299
v  0.5796 0.8737 1.2299
v  4.0806 0.8737 1.2299
v  4.0806 0.8967 1.2299
v  0.5881 0.8217 1.0087
v  0.9992 0.8101 0.7583
v  0.9837 0.8664 0.7354
v  1.4109 0.8759 1.0745
v  0.9789 0.8900 0.7283
v  0.5722 0.8820 0.9853
v  0.5731 0.8737 0.9866
v  4.0806 0.6851 0.7266
v  3.4030 0.6851 0.7266
v  3.4030 0.8664 0.8318
v  3.4030 0.8664 0.7266
v  3.8239 0.8737 1.1607
v  4.0806 0.8967 0.7266
v  3.4030 0.8737 0.8099
v  3.4030 0.8967 0.7266
v  4.0806 0.8737 0.7266
v  0.5739 0.8664 0.9878
v  1.2984 0.8737 0.9652
v  2.7735 0.8737 0.8701
v  0.5796 0.8664 1.2299
v  4.0806 0.8664 1.2299
v  0.9829 0.8737 0.7343
v  3.4030 0.8737 0.7266
v  4.0806 0.8664 0.7266
# 36 vertices

vn 0.0340 -0.9611 -0.2740
vn -0.3930 -0.9035 -0.1709
vn 0.5629 -0.5861 0.5828
vn -0.6259 -0.5215 0.5800
vn 0.2720 -0.3723 -0.8873
vn 0.0649 0.1337 -0.9889
vn -0.5803 0.5755 -0.5763
vn -0.6900 0.5857 0.4252
vn -0.5631 0.5960 0.5724
vn -0.6997 -0.0000 0.7144
vn 0.7071 0.0000 0.7071
vn 0.5210 0.6493 0.5541
vn -0.6945 -0.6514 -0.3056
vn 0.2499 -0.5773 -0.7774
vn 0.0454 -0.1084 -0.9931
vn 0.0239 0.9973 -0.0698
vn 0.0242 0.5716 -0.8202
vn -0.7497 0.5586 -0.3548
vn -0.9026 -0.0585 -0.4266
vn 0.7071 -0.7071 -0.0000
vn -0.7071 -0.7071 0.0000
vn -0.8717 0.3758 0.3144
vn -1.0000 0.0000 0.0000
vn -0.1771 0.9620 -0.2076
vn 0.6714 0.7394 0.0504
vn -0.7697 0.5691 0.2893
vn -0.5251 0.7016 0.4816
vn 1.0000 0.0000 -0.0000
vn -0.8935 -0.1137 -0.4344
vn 0.2653 0.6194 -0.7389
vn -0.0225 0.8817 -0.4713
vn -0.7006 0.0000 0.7136
vn 0.7071 -0.0000 0.7071
vn 0.0546 -0.1021 -0.9933
# 34 vertex normals

vt 0.4021 0.1578 0.5054
vt 0.6115 0.8069 1.0000
vt 0.0000 1.0000 1.0000
vt 0.0000 0.0021 0.3562
vt 0.1578 0.5054 0.4021
vt 0.2041 0.1432 0.5186
vt 0.6624 0.1432 0.7553
vt 0.8069 0.2866 0.6115
vt 0.8069 1.0000 0.6115
vt 0.9035 0.1432 0.2904
vt 0.9979 0.0548 0.0000
vt 0.9979 0.1085 0.0000
vt 0.0000 0.1085 0.0000
vt 0.0000 0.0000 0.0000
vt 0.4395 0.0045 0.3542
vt 0.9371 0.1217 0.4093
vt 0.1217 0.4093 0.9371
vt 0.1173 0.1432 0.9824
vt 0.6911 0.2390 0.0980
vt 0.0035 0.1159 0.0313
vt 0.5140 0.0000 0.0694
vt 1.0000 0.0021 0.0548
vt 0.4860 0.0694 0.0000
vt 0.4834 0.1085 0.0003
vt 0.0000 0.1085 0.0021
vt 0.0000 0.0548 0.0021
vt 1.0000 1.0000 1.0000
vt 1.0000 0.8069 1.0000
vt 0.6115 0.2866 0.8069
vt 0.7910 0.1432 0.8069
vt 1.0000 0.1432 0.8069
vt 0.6115 1.0000 0.8069
vt 1.0000 1.0000 0.8069
vt 0.8625 0.9268 0.1085
vt 1.0000 1.0000 0.0000
vt 0.0000 1.0000 0.0000
vt 0.1656 0.8069 0.1085
vt 0.0000 0.8069 0.0000
vt 1.0000 0.0000 1.0000
vt 1.0000 0.1085 1.0000
vt 0.0000 0.1085 1.0000
vt 0.0000 0.0000 1.0000
vt 0.0045 0.3542 0.4395
vt 0.0005 0.1432 0.4811
vt 0.4741 0.2070 0.1085
vt 0.2852 0.6274 0.1085
vt 0.8472 0.9267 0.0318
vt 0.9979 0.1432 0.0000
vt 0.0000 0.1432 0.0000
vt 0.1159 0.0313 0.9965
vt 0.2440 0.1000 0.3378
vt 0.2070 0.1085 0.5259
vt 0.1171 0.1085 0.9847
vt 0.4811 0.1432 0.0005
vt 0.0000 0.1432 0.0021
vt 0.8344 0.1085 0.8069
vt 1.0000 0.0000 0.8069
vt 1.0000 0.1085 0.8069
vt 0.2090 0.8069 0.1432
vt 0.7266 0.9002 0.1238
vt 1.0000 0.1432 1.0000
vt 0.0000 0.1432 1.0000
vt 0.0000 0.0694 0.4860
vt 0.0003 0.1085 0.4834
vt 0.6274 0.1085 0.7148
vt 0.7096 0.9035 0.1432
vt 0.2447 0.6624 0.1432
vt 0.9979 0.3562 0.0000
vt 0.4395 0.3542 0.0045
vt 0.0000 0.3562 0.0021
vt 0.3885 0.8069 0.2866
# 71 texture coords

o Mesa_Stand2
g Mesa_Stand2
usemtl Material__37
s off
f 1/1/1 2/2/2 3/3/3 4/4/4 
f 1/5/1 5/6/5 6/7/6 7/8/7 
f 2/9/2 1/5/1 7/8/7 
f 7/8/7 6/7/6 8/10/8 
f 9/11/9 10/12/10 11/13/11 12/14/12 
f 13/15/13 14/16/14 1/1/1 4/4/4 
f 1/5/1 14/17/14 15/18/15 5/6/5 
f 16/19/16 17/20/17 18/21/18 9/22/9 
f 18/23/18 19/24/19 10/25/10 9/26/9 
f 20/27/20 3/3/3 2/2/2 21/28/21 
f 7/29/7 22/30/22 23/31/23 2/32/2 
f 21/33/21 2/32/2 23/31/23 
f 24/34/24 12/35/12 25/36/25 26/37/26 
f 27/38/27 26/37/26 25/36/25 
f 12/39/12 11/40/11 28/41/28 25/42/25 
f 13/43/13 29/44/29 15/18/15 14/17/14 
f 30/45/30 16/19/16 31/46/31 
f 16/19/16 9/22/9 12/35/12 24/47/24 
f 31/46/31 16/19/16 24/34/24 
f 32/48/32 33/49/33 11/13/11 10/12/10 
f 17/50/17 16/51/16 30/52/30 34/53/34 
f 29/54/29 32/55/32 10/25/10 19/24/19 
f 26/56/26 27/57/27 35/58/23 
f 22/59/22 8/60/8 24/34/24 26/37/26 
f 33/61/33 36/62/28 28/41/28 11/40/11 
f 18/63/18 17/50/17 34/53/34 19/64/19 
f 5/6/5 30/52/30 31/65/31 6/7/6 
f 8/66/8 6/67/6 31/46/31 24/34/24 
f 34/53/34 30/52/30 5/6/5 15/18/15 
f 26/56/26 35/58/23 23/31/23 22/30/22 
f 19/64/19 34/53/34 15/18/15 29/44/29 
f 4/68/4 3/36/3 33/49/33 32/48/32 
f 13/69/13 4/70/4 32/55/32 29/54/29 
f 22/59/22 7/71/7 8/66/8 
f 3/27/3 20/3/20 36/62/28 33/61/33 
# 27 polygons - 8 triangles

