# 3ds Max Wavefront OBJ Exporter v0.99 - (c)2007 guruware
# File Created: 03.05.2026 22:43:59

mtllib Piso_Stand4.mtl

#
# object Piso_Stand4
#

v  4.2912 0.0584 -27.1752
v  4.2912 0.0584 -21.1347
v  4.2912 0.0548 -21.1347
v  4.2912 0.0548 -27.1752
v  0.6669 0.0584 -27.1752
v  0.6669 0.0548 -27.1752
v  0.6669 0.0584 -21.1347
v  0.6669 0.0548 -21.1347
# 8 vertices

vn 0.5774 0.5774 -0.5774
vn 0.5774 0.5774 0.5774
vn 0.5774 -0.5774 0.5774
vn 0.5774 -0.5774 -0.5774
vn -0.5774 0.5774 -0.5774
vn -0.5774 -0.5774 -0.5774
vn -0.5774 0.5774 0.5774
vn -0.5774 -0.5774 0.5774
# 8 vertex normals

vt -2.4323 2.6614 2.6614
vt 3.4323 2.6614 2.6614
vt 3.4323 2.6614 -1.6614
vt -2.4323 2.6614 -1.6614
vt -2.4323 -1.6614 2.6614
vt -2.4323 -1.6614 -1.6614
vt 3.4323 -1.6614 2.6614
vt 3.4323 -1.6614 -1.6614
# 8 texture coords

o Piso_Stand4
g Piso_Stand4
usemtl Material__67
s 1
f 1/1/1 2/2/2 3/3/3 4/4/4 
s 4
f 5/5/5 1/1/1 4/4/4 6/6/6 
s 2
f 7/7/7 5/5/5 6/6/6 8/8/8 
s 4
f 2/2/2 7/7/7 8/8/8 3/3/3 
s 16
f 6/6/6 4/4/4 3/3/3 8/8/8 
f 2/2/2 1/1/1 5/5/5 7/7/7 
# 6 polygons

