# 3ds Max Wavefront OBJ Exporter v0.99 - (c)2007 guruware
# File Created: 16.05.2026 16:21:21

mtllib Motor4_Dron.mtl

#
# object Motor4_Dron
#

v  0.0172 -0.0002 -0.0016
v  0.0164 -0.0002 0.0055
v  0.0163 0.0009 0.0055
v  0.0172 0.0010 -0.0016
v  0.0234 0.0011 0.0077
v  0.0237 0.0006 0.0119
v  0.0238 0.0011 0.0119
v  0.0255 0.0011 -0.0008
v  0.0251 0.0011 -0.0011
v  0.0249 0.0011 -0.0010
v  0.0242 0.0011 0.0000
v  0.0235 0.0011 0.0050
v  0.0247 0.0006 0.0130
v  0.0404 0.0008 0.0141
v  0.0667 0.0018 0.0050
v  0.0676 0.0018 0.0031
v  0.0260 0.0011 -0.0012
v  0.0236 -0.0000 -0.0008
v  0.0242 -0.0000 0.0000
v  0.0236 -0.0000 0.0050
v  0.0220 -0.0001 0.0062
v  0.0251 -0.0000 -0.0011
v  0.0255 -0.0000 -0.0008
v  0.0239 -0.0000 0.0119
v  0.0235 -0.0000 0.0077
v  0.0237 0.0002 0.0119
v  0.0249 -0.0000 -0.0010
v  0.0220 0.0010 0.0062
v  0.0260 -0.0000 -0.0012
v  0.0676 0.0007 0.0031
v  0.0667 0.0007 0.0050
v  0.0404 0.0005 0.0141
v  0.0247 0.0003 0.0130
v  0.0684 0.0007 0.0056
v  0.0563 0.0008 0.0146
v  0.0748 0.0008 0.0040
v  0.1082 0.0017 0.0088
v  0.1081 0.0017 0.0096
v  0.1073 0.0016 0.0112
v  0.1056 0.0016 0.0120
v  0.0907 0.0014 0.0134
v  0.0743 0.0008 0.0051
v  0.0907 0.0017 0.0134
v  0.1056 0.0019 0.0120
v  0.1073 0.0020 0.0112
v  0.1081 0.0020 0.0096
v  0.1082 0.0020 0.0088
v  0.0748 0.0019 0.0040
v  0.0743 0.0019 0.0051
v  0.0723 0.0008 0.0068
v  0.0748 0.0011 0.0144
v  0.0723 0.0019 0.0068
v  0.0748 0.0014 0.0144
v  0.0684 0.0018 0.0056
v  0.0563 0.0011 0.0146
v  0.0236 0.0011 -0.0008
v  0.0230 -0.0001 0.0067
v  0.0230 0.0011 0.0067
v  0.0240 0.0003 0.0126
v  0.0240 0.0006 0.0126
v  0.0243 -0.0000 -0.0008
v  0.0242 0.0011 -0.0008
v  0.0011 -0.0004 0.0172
v  -0.0059 -0.0006 0.0163
v  -0.0059 0.0006 0.0163
v  0.0011 0.0007 0.0172
v  -0.0123 0.0005 0.0238
v  0.0004 0.0007 0.0254
v  0.0006 0.0007 0.0251
v  -0.0005 0.0007 0.0241
v  0.0005 0.0007 0.0248
v  -0.0123 -0.0000 0.0236
v  -0.0082 0.0006 0.0234
v  -0.0055 0.0006 0.0235
v  -0.0134 -0.0000 0.0247
v  -0.0145 -0.0001 0.0403
v  -0.0055 0.0006 0.0666
v  -0.0036 0.0007 0.0675
v  0.0008 0.0007 0.0259
v  0.0003 -0.0005 0.0236
v  -0.0005 -0.0005 0.0241
v  -0.0054 -0.0006 0.0235
v  -0.0066 -0.0006 0.0220
v  0.0005 -0.0005 0.0248
v  0.0006 -0.0005 0.0251
v  0.0004 -0.0005 0.0254
v  -0.0123 -0.0004 0.0236
v  -0.0123 -0.0007 0.0238
v  -0.0082 -0.0006 0.0234
v  -0.0066 0.0006 0.0220
v  0.0008 -0.0004 0.0259
v  -0.0036 -0.0005 0.0675
v  -0.0055 -0.0005 0.0666
v  -0.0145 -0.0004 0.0403
v  -0.0134 -0.0004 0.0247
v  -0.0060 -0.0005 0.0683
v  -0.0150 -0.0004 0.0562
v  -0.0045 -0.0005 0.0746
v  -0.0092 -0.0003 0.1080
v  -0.0100 -0.0003 0.1079
v  -0.0117 -0.0003 0.1071
v  -0.0125 -0.0003 0.1054
v  -0.0139 -0.0004 0.0905
v  -0.0055 -0.0005 0.0742
v  -0.0139 -0.0000 0.0905
v  -0.0125 -0.0000 0.1054
v  -0.0117 0.0000 0.1071
v  -0.0100 0.0000 0.1079
v  -0.0092 0.0001 0.1080
v  -0.0045 0.0006 0.0746
v  -0.0055 0.0006 0.0742
v  -0.0073 -0.0006 0.0722
v  -0.0148 -0.0004 0.0746
v  -0.0073 0.0006 0.0722
v  -0.0148 -0.0001 0.0746
v  -0.0061 0.0006 0.0683
v  -0.0150 -0.0001 0.0562
v  0.0003 0.0007 0.0236
v  -0.0071 -0.0006 0.0230
v  -0.0072 0.0006 0.0230
v  -0.0131 -0.0004 0.0240
v  -0.0131 -0.0000 0.0240
v  0.0003 -0.0005 0.0242
v  0.0003 0.0007 0.0242
v  -0.0176 -0.0008 0.0011
v  -0.0167 -0.0008 -0.0059
v  -0.0167 0.0004 -0.0059
v  -0.0176 0.0004 0.0011
v  -0.0238 0.0003 -0.0081
v  -0.0240 -0.0002 -0.0123
v  -0.0242 0.0003 -0.0123
v  -0.0258 0.0003 0.0004
v  -0.0255 0.0003 0.0006
v  -0.0253 0.0003 0.0005
v  -0.0246 0.0003 -0.0005
v  -0.0239 0.0003 -0.0054
v  -0.0251 -0.0002 -0.0134
v  -0.0407 -0.0005 -0.0145
v  -0.0669 -0.0004 -0.0055
v  -0.0678 -0.0004 -0.0036
v  -0.0263 0.0003 0.0008
v  -0.0239 -0.0009 0.0003
v  -0.0245 -0.0009 -0.0005
v  -0.0239 -0.0009 -0.0054
v  -0.0224 -0.0009 -0.0066
v  -0.0255 -0.0009 0.0006
v  -0.0258 -0.0009 0.0004
v  -0.0242 -0.0009 -0.0123
v  -0.0238 -0.0009 -0.0081
v  -0.0240 -0.0006 -0.0123
v  -0.0252 -0.0009 0.0005
v  -0.0224 0.0004 -0.0066
v  -0.0263 -0.0009 0.0008
v  -0.0678 -0.0016 -0.0036
v  -0.0669 -0.0016 -0.0055
v  -0.0407 -0.0009 -0.0145
v  -0.0251 -0.0006 -0.0134
v  -0.0686 -0.0016 -0.0060
v  -0.0566 -0.0011 -0.0150
v  -0.0749 -0.0018 -0.0044
v  -0.1082 -0.0020 -0.0092
v  -0.1081 -0.0020 -0.0100
v  -0.1073 -0.0020 -0.0116
v  -0.1056 -0.0020 -0.0124
v  -0.0908 -0.0017 -0.0138
v  -0.0744 -0.0017 -0.0055
v  -0.0908 -0.0013 -0.0138
v  -0.1056 -0.0016 -0.0124
v  -0.1073 -0.0016 -0.0116
v  -0.1081 -0.0016 -0.0100
v  -0.1082 -0.0016 -0.0092
v  -0.0749 -0.0005 -0.0044
v  -0.0745 -0.0005 -0.0055
v  -0.0724 -0.0017 -0.0073
v  -0.0749 -0.0014 -0.0148
v  -0.0725 -0.0005 -0.0073
v  -0.0749 -0.0011 -0.0148
v  -0.0686 -0.0004 -0.0060
v  -0.0566 -0.0008 -0.0150
v  -0.0240 0.0003 0.0003
v  -0.0234 -0.0009 -0.0071
v  -0.0234 0.0003 -0.0071
v  -0.0244 -0.0006 -0.0130
v  -0.0244 -0.0002 -0.0130
v  -0.0246 -0.0009 0.0003
v  -0.0246 0.0003 0.0003
v  -0.0016 -0.0006 -0.0176
v  0.0054 -0.0004 -0.0167
v  0.0054 0.0008 -0.0167
v  -0.0016 0.0007 -0.0176
v  0.0077 0.0009 -0.0238
v  0.0118 0.0004 -0.0240
v  0.0118 0.0010 -0.0242
v  -0.0009 0.0007 -0.0258
v  -0.0011 0.0007 -0.0254
v  -0.0010 0.0007 -0.0252
v  -0.0000 0.0008 -0.0245
v  0.0050 0.0008 -0.0239
v  0.0140 0.0004 -0.0406
v  0.0050 0.0008 -0.0668
v  0.0031 0.0008 -0.0677
v  -0.0012 0.0007 -0.0263
v  0.0129 0.0004 -0.0250
v  -0.0008 -0.0006 -0.0239
v  0.0000 -0.0005 -0.0245
v  0.0050 -0.0005 -0.0239
v  0.0062 -0.0004 -0.0223
v  -0.0010 -0.0006 -0.0252
v  -0.0011 -0.0006 -0.0254
v  -0.0008 -0.0006 -0.0258
v  0.0118 -0.0003 -0.0242
v  0.0118 -0.0000 -0.0240
v  0.0077 -0.0004 -0.0238
v  0.0061 0.0009 -0.0223
v  -0.0012 -0.0006 -0.0263
v  0.0031 -0.0005 -0.0677
v  0.0050 -0.0005 -0.0668
v  0.0140 0.0000 -0.0406
v  0.0129 0.0000 -0.0250
v  0.0056 -0.0005 -0.0684
v  0.0145 0.0000 -0.0564
v  0.0040 -0.0005 -0.0748
v  0.0087 -0.0001 -0.1080
v  0.0095 -0.0001 -0.1079
v  0.0112 -0.0000 -0.1071
v  0.0120 -0.0000 -0.1054
v  0.0134 -0.0000 -0.0906
v  0.0050 -0.0005 -0.0743
v  0.0134 0.0004 -0.0906
v  0.0120 0.0003 -0.1054
v  0.0112 0.0003 -0.1071
v  0.0095 0.0003 -0.1079
v  0.0087 0.0003 -0.1080
v  0.0040 0.0008 -0.0748
v  0.0050 0.0008 -0.0743
v  0.0068 -0.0004 -0.0723
v  0.0143 0.0000 -0.0748
v  0.0068 0.0009 -0.0723
v  0.0143 0.0004 -0.0748
v  0.0055 0.0008 -0.0684
v  0.0145 0.0004 -0.0564
v  -0.0008 0.0007 -0.0239
v  0.0067 -0.0004 -0.0233
v  0.0066 0.0009 -0.0233
v  0.0125 0.0000 -0.0243
v  0.0125 0.0004 -0.0243
v  -0.0008 -0.0006 -0.0246
v  -0.0008 0.0007 -0.0246
v  -0.0011 -0.0021 0.0183
v  0.0021 -0.0021 0.0182
v  0.0020 0.0138 0.0184
v  -0.0012 0.0137 0.0184
v  0.0053 -0.0021 0.0175
v  0.0052 0.0138 0.0177
v  0.0083 -0.0021 0.0163
v  0.0082 0.0138 0.0165
v  0.0110 -0.0021 0.0146
v  0.0110 0.0138 0.0147
v  0.0134 -0.0020 0.0124
v  0.0134 0.0139 0.0125
v  0.0154 -0.0020 0.0098
v  0.0153 0.0139 0.0099
v  0.0169 -0.0020 0.0069
v  0.0168 0.0139 0.0070
v  0.0178 -0.0019 0.0038
v  0.0177 0.0140 0.0039
v  0.0181 -0.0019 0.0006
v  0.0181 0.0140 0.0007
v  0.0179 -0.0019 -0.0027
v  0.0178 0.0140 -0.0025
v  0.0171 -0.0018 -0.0058
v  0.0170 0.0140 -0.0057
v  0.0158 -0.0018 -0.0088
v  0.0157 0.0141 -0.0086
v  0.0139 -0.0018 -0.0115
v  0.0138 0.0141 -0.0113
v  0.0116 -0.0018 -0.0137
v  0.0115 0.0141 -0.0136
v  0.0089 -0.0018 -0.0156
v  0.0088 0.0141 -0.0154
v  0.0059 -0.0018 -0.0169
v  0.0059 0.0141 -0.0168
v  0.0028 -0.0018 -0.0177
v  0.0027 0.0141 -0.0176
v  -0.0004 -0.0018 -0.0179
v  -0.0005 0.0141 -0.0178
v  -0.0037 -0.0018 -0.0175
v  -0.0037 0.0141 -0.0174
v  -0.0068 -0.0018 -0.0166
v  -0.0068 0.0140 -0.0164
v  -0.0097 -0.0019 -0.0151
v  -0.0097 0.0140 -0.0150
v  -0.0123 -0.0019 -0.0131
v  -0.0123 0.0140 -0.0130
v  -0.0144 -0.0019 -0.0107
v  -0.0145 0.0140 -0.0106
v  -0.0162 -0.0019 -0.0080
v  -0.0162 0.0139 -0.0078
v  -0.0174 -0.0020 -0.0049
v  -0.0174 0.0139 -0.0048
v  -0.0180 -0.0020 -0.0018
v  -0.0181 0.0139 -0.0016
v  -0.0181 -0.0020 0.0015
v  -0.0181 0.0138 0.0016
v  -0.0175 -0.0021 0.0047
v  -0.0176 0.0138 0.0048
v  -0.0165 -0.0021 0.0078
v  -0.0165 0.0138 0.0079
v  -0.0148 -0.0021 0.0106
v  -0.0149 0.0138 0.0107
v  -0.0128 -0.0021 0.0131
v  -0.0128 0.0138 0.0132
v  -0.0103 -0.0021 0.0151
v  -0.0103 0.0137 0.0153
v  -0.0074 -0.0021 0.0167
v  -0.0075 0.0137 0.0169
v  -0.0044 0.0137 0.0179
v  -0.0044 -0.0021 0.0178
v  0.0135 -0.0025 -0.0075
v  0.0119 -0.0025 -0.0098
v  -0.0154 -0.0027 -0.0015
v  -0.0154 -0.0044 -0.0015
v  -0.0155 -0.0044 0.0013
v  -0.0155 -0.0027 0.0013
v  -0.0083 -0.0025 -0.0129
v  -0.0105 -0.0026 -0.0112
v  -0.0127 -0.0028 0.0091
v  -0.0109 -0.0028 0.0112
v  0.0153 -0.0026 0.0033
v  0.0156 -0.0026 0.0005
v  0.0024 -0.0025 -0.0152
v  -0.0004 -0.0025 -0.0154
v  0.0095 -0.0027 0.0125
v  0.0115 -0.0027 0.0107
v  0.0100 -0.0025 -0.0118
v  -0.0124 -0.0026 -0.0092
v  -0.0010 -0.0028 0.0157
v  0.0018 -0.0028 0.0157
v  -0.0088 -0.0028 0.0130
v  0.0154 -0.0025 -0.0023
v  -0.0031 -0.0025 -0.0150
v  -0.0151 -0.0027 0.0041
v  0.0132 -0.0026 0.0084
v  0.0077 -0.0025 -0.0134
v  -0.0139 -0.0026 -0.0068
v  -0.0064 -0.0028 0.0144
v  0.0045 -0.0027 0.0151
v  0.0147 -0.0025 -0.0050
v  -0.0058 -0.0025 -0.0142
v  -0.0141 -0.0027 0.0067
v  0.0145 -0.0026 0.0059
v  0.0051 -0.0025 -0.0145
v  -0.0149 -0.0026 -0.0042
v  -0.0037 -0.0028 0.0153
v  0.0071 -0.0027 0.0140
v  -0.0010 -0.0045 0.0157
v  -0.0037 -0.0045 0.0153
v  -0.0064 -0.0045 0.0144
v  -0.0088 -0.0045 0.0130
v  -0.0109 -0.0044 0.0112
v  -0.0127 -0.0044 0.0091
v  -0.0141 -0.0044 0.0067
v  -0.0150 -0.0044 0.0040
v  -0.0149 -0.0043 -0.0042
v  -0.0139 -0.0043 -0.0068
v  -0.0124 -0.0043 -0.0092
v  -0.0105 -0.0042 -0.0113
v  -0.0083 -0.0042 -0.0130
v  -0.0058 -0.0042 -0.0142
v  -0.0031 -0.0042 -0.0150
v  -0.0004 -0.0042 -0.0154
v  0.0024 -0.0042 -0.0152
v  0.0051 -0.0042 -0.0145
v  0.0077 -0.0042 -0.0134
v  0.0100 -0.0042 -0.0118
v  0.0119 -0.0042 -0.0098
v  0.0135 -0.0042 -0.0075
v  0.0147 -0.0042 -0.0050
v  0.0154 -0.0042 -0.0023
v  0.0156 -0.0042 0.0005
v  0.0153 -0.0043 0.0033
v  0.0145 -0.0043 0.0059
v  0.0132 -0.0043 0.0084
v  0.0115 -0.0044 0.0106
v  0.0095 -0.0044 0.0125
v  0.0071 -0.0044 0.0140
v  0.0045 -0.0044 0.0151
v  0.0018 -0.0044 0.0156
# 388 vertices

vn -0.9920 0.0026 -0.1265
vn -0.3212 0.4677 0.8235
vn -0.0406 0.4582 0.8879
vn 0.0556 -0.5056 -0.8609
vn -0.1115 -0.5106 -0.8526
vn -0.1309 -0.0420 0.9905
vn 0.0655 -0.5361 -0.8416
vn -0.9989 -0.0047 0.0472
vn 0.0537 -0.5507 -0.8330
vn 0.0767 -0.5311 -0.8438
vn -0.0229 0.4649 0.8850
vn 0.9920 -0.0026 0.1265
vn 0.0555 -0.5605 -0.8263
vn 0.0773 -0.5542 -0.8288
vn -0.0250 0.4344 0.9004
vn -0.0554 0.4274 0.9024
vn -0.0581 0.4392 0.8965
vn 0.0616 -0.0418 0.9972
vn 0.0127 -0.0420 0.9990
vn -0.0362 -0.0421 0.9985
vn -0.0556 0.5056 0.8609
vn 0.1270 0.0420 -0.9910
vn 0.0556 -0.5056 -0.8610
vn 0.1463 0.0420 -0.9884
vn -0.0557 0.5056 0.8609
vn -0.0556 0.5057 0.8609
vn -0.9210 -0.0189 0.3891
vn -0.4834 -0.0381 0.8746
vn 0.1078 0.0421 -0.9933
vn -0.9578 -0.1118 0.2647
vn -0.6285 -0.5604 0.5394
vn -0.3535 0.1118 0.9287
vn -0.8856 0.0292 0.4636
vn -0.4408 -0.0389 0.8968
vn -0.9170 -0.0193 0.3984
vn -0.0719 -0.0421 0.9965
vn 0.0557 -0.5057 -0.8609
vn -0.0557 0.5057 0.8609
vn -0.0403 0.0419 -0.9983
vn -0.2877 0.0395 -0.9569
vn 0.1309 0.0420 -0.9905
vn 0.0556 -0.5057 -0.8609
vn -0.1769 0.0409 -0.9834
vn -0.4451 0.0364 -0.8947
vn 0.8909 -0.0167 0.4538
vn 0.4452 -0.0364 0.8947
vn 0.0972 -0.0416 0.9944
vn -0.1105 0.6712 0.7330
vn -0.1716 0.4937 0.8525
vn 0.0338 -0.4354 -0.8996
vn -0.0131 -0.5095 -0.8604
vn -0.0551 0.0418 -0.9976
vn -0.0426 -0.5032 -0.8631
vn -0.0031 -0.5150 -0.8572
vn -0.1526 0.4863 0.8604
vn -0.0625 -0.5030 -0.8620
vn -0.0524 -0.5131 -0.8567
vn -0.2317 0.4804 0.8459
vn -0.2563 0.4936 0.8310
vn -0.2242 0.4984 0.8375
vn -0.9986 -0.0050 0.0533
vn -1.0000 -0.0030 0.0076
vn -0.9993 -0.0011 -0.0382
vn 0.9924 -0.0025 0.1229
vn 0.9900 -0.0032 0.1409
vn -0.0556 0.5056 0.8610
vn -0.4148 0.0371 -0.9092
vn -0.8875 0.0170 -0.4606
vn 0.9945 -0.0017 0.1050
vn -0.3681 -0.0417 -0.9288
vn -0.6694 -0.2171 -0.7104
vn -0.9715 0.1955 -0.1341
vn -0.4610 0.0911 -0.8827
vn -0.9077 0.0152 -0.4194
vn -0.4244 0.0369 -0.9047
vn -0.9974 0.0003 -0.0715
vn 0.0557 -0.5056 -0.8610
vn 0.9994 0.0041 -0.0333
vn 0.9637 0.0138 -0.2666
vn 0.9868 0.0095 -0.1616
vn 0.9080 0.0201 -0.4186
vn -0.4764 -0.0382 0.8784
vn -0.9079 -0.0201 0.4187
vn -0.9962 -0.0064 0.0866
vn 0.2632 0.5025 0.8236
vn -0.0756 0.5669 0.8203
vn 0.2307 -0.4850 -0.8436
vn 0.0458 -0.4747 -0.8789
vn 0.9989 0.0047 -0.0472
vn 0.0573 -0.4618 -0.8851
vn 0.0343 -0.4793 -0.8770
vn -0.0980 0.5562 0.8252
vn -0.9920 0.0026 -0.1266
vn 0.0555 -0.4536 -0.8895
vn 0.0353 -0.4586 -0.8879
vn -0.1007 0.6052 0.7897
vn -0.0552 0.6194 0.7832
vn -0.0515 0.5980 0.7998
vn -0.0616 0.0418 -0.9972
vn -0.0127 0.0420 -0.9990
vn 0.0362 0.0421 -0.9985
vn -0.1270 -0.0420 0.9910
vn -0.1463 -0.0420 0.9884
vn 0.9210 0.0189 -0.3891
vn 0.4834 0.0381 -0.8746
vn -0.1078 -0.0421 0.9933
vn 0.8659 -0.0552 -0.4972
vn 0.3169 -0.1690 -0.9333
vn 0.5469 0.2662 -0.7937
vn 0.9409 0.0661 -0.3323
vn 0.4408 0.0389 -0.8968
vn 0.9170 0.0193 -0.3984
vn 0.0719 0.0421 -0.9965
vn -0.0557 0.5056 0.8610
vn 0.0402 -0.0419 0.9983
vn 0.2877 -0.0395 0.9569
vn 0.0556 -0.5058 -0.8609
vn -0.0557 0.5055 0.8610
vn 0.1769 -0.0409 0.9834
vn 0.4451 -0.0364 0.8948
vn -0.8909 0.0167 -0.4538
vn -0.4452 0.0364 -0.8947
vn -0.0972 0.0415 -0.9944
vn -0.0177 0.3825 0.9238
vn 0.0778 0.5108 0.8561
vn 0.0876 -0.6040 -0.7922
vn 0.1300 -0.4988 -0.8569
vn 0.0551 -0.0418 0.9976
vn 0.1638 -0.5027 -0.8488
vn 0.1181 -0.4937 -0.8616
vn 0.0596 0.5222 0.8507
vn 0.1850 -0.5003 -0.8458
vn 0.1700 -0.4911 -0.8543
vn 0.1542 0.5147 0.8434
vn 0.1697 0.4945 0.8524
vn 0.1324 0.4966 0.8578
vn 0.9986 0.0050 -0.0533
vn 1.0000 0.0030 -0.0076
vn 0.9993 0.0011 0.0382
vn 0.0557 -0.5056 -0.8609
vn -0.9924 0.0025 -0.1229
vn -0.9900 0.0032 -0.1409
vn 0.4148 -0.0371 0.9092
vn 0.8875 -0.0170 0.4606
vn -0.9945 0.0017 -0.1050
vn 0.4833 -0.1257 0.8664
vn 0.9560 -0.2905 -0.0405
vn 0.7877 0.1232 0.6036
vn 0.3941 0.0061 0.9191
vn 0.9076 -0.0152 0.4195
vn 0.4244 -0.0369 0.9047
vn 0.9974 -0.0003 0.0715
vn -0.9994 -0.0041 0.0333
vn -0.9637 -0.0138 0.2666
vn -0.9868 -0.0095 0.1616
vn -0.9079 -0.0201 0.4186
vn 0.4764 0.0382 -0.8784
vn 0.9079 0.0201 -0.4187
vn 0.9962 0.0064 -0.0866
vn -0.0664 -0.0436 0.9968
vn 0.1146 -0.0433 0.9925
vn 0.1237 -0.0432 0.9914
vn 0.2916 -0.0415 0.9557
vn 0.3085 -0.0413 0.9503
vn 0.4582 -0.0385 0.8880
vn 0.4806 -0.0379 0.8761
vn 0.6090 -0.0342 0.7924
vn 0.6338 -0.0333 0.7727
vn 0.7394 -0.0289 0.6727
vn 0.7635 -0.0277 0.6452
vn 0.8457 -0.0227 0.5331
vn 0.8665 -0.0212 0.4987
vn 0.9255 -0.0159 0.3784
vn 0.9408 -0.0142 0.3387
vn 0.9770 -0.0087 0.2130
vn 0.9854 -0.0068 0.1700
vn 0.9991 -0.0012 0.0415
vn 1.0000 0.0007 -0.0025
vn 0.9913 0.0064 -0.1318
vn 0.9846 0.0082 -0.1744
vn 0.9531 0.0138 -0.3023
vn 0.9398 0.0155 -0.3413
vn 0.8849 0.0209 -0.4652
vn 0.8665 0.0223 -0.4988
vn 0.7876 0.0274 -0.6156
vn 0.7661 0.0285 -0.6421
vn 0.6627 0.0331 -0.7482
vn 0.6411 0.0339 -0.7667
vn 0.5134 0.0378 -0.8573
vn 0.4947 0.0382 -0.8682
vn 0.3441 0.0412 -0.9380
vn 0.3314 0.0414 -0.9426
vn 0.1609 0.0431 -0.9860
vn 0.1564 0.0432 -0.9868
vn -0.0288 0.0436 -0.9986
vn -0.0242 0.0436 -0.9988
vn -0.2172 0.0424 -0.9752
vn -0.2040 0.0426 -0.9780
vn -0.3965 0.0398 -0.9172
vn -0.3765 0.0402 -0.9255
vn -0.5599 0.0358 -0.8278
vn -0.5359 0.0365 -0.8435
vn -0.7019 0.0306 -0.7117
vn -0.6770 0.0317 -0.7353
vn -0.8185 0.0245 -0.5740
vn -0.7957 0.0259 -0.6051
vn -0.9073 0.0178 -0.4201
vn -0.8891 0.0194 -0.4574
vn -0.9668 0.0105 -0.2551
vn -0.9549 0.0124 -0.2967
vn -0.9965 0.0030 -0.0840
vn -0.9918 0.0050 -0.1277
vn -0.9960 -0.0045 0.0888
vn -0.9990 -0.0026 0.0452
vn -0.9659 -0.0119 0.2588
vn -0.9760 -0.0101 0.2177
vn -0.9066 -0.0190 0.4215
vn -0.9228 -0.0174 0.3850
vn -0.8195 -0.0255 0.5725
vn -0.8398 -0.0242 0.5423
vn -0.7065 -0.0313 0.7070
vn -0.7284 -0.0303 0.6845
vn -0.5703 -0.0362 0.8206
vn -0.5908 -0.0356 0.8060
vn -0.4149 -0.0399 0.9090
vn -0.4309 -0.0396 0.9015
vn -0.0125 0.4924 0.8703
vn -0.2450 -0.0424 0.9686
vn -0.2538 -0.0423 0.9663
vn 0.4744 -0.3058 -0.8254
vn 0.4843 -0.3082 -0.8188
vn 0.4126 -0.2931 -0.8625
vn 0.4026 -0.2913 -0.8678
vn -0.2550 -0.2752 -0.9269
vn -0.2645 -0.2762 -0.9240
vn -0.3449 -0.2862 -0.8940
vn -0.3345 -0.2847 -0.8984
vn -0.7176 -0.5442 -0.4347
vn -0.7173 -0.5464 -0.4323
vn -0.6955 -0.6238 -0.3567
vn -0.6960 -0.6225 -0.3579
vn 0.6918 -0.4125 -0.5926
vn 0.6952 -0.4165 -0.5858
vn 0.6564 -0.3803 -0.6515
vn 0.6510 -0.3764 -0.6592
vn 0.0804 -0.2635 -0.9613
vn 0.0821 -0.2635 -0.9612
vn -0.0060 -0.2628 -0.9648
vn -0.0044 -0.2628 -0.9648
vn -0.6037 -0.3596 -0.7116
vn -0.6099 -0.3630 -0.7044
vn -0.6565 -0.3951 -0.6426
vn -0.6523 -0.3916 -0.6490
vn 0.6774 -0.6736 -0.2958
vn 0.6764 -0.6750 -0.2947
vn 0.7196 -0.5881 -0.3692
vn 0.7204 -0.5856 -0.3716
vn 0.3355 -0.2813 -0.8991
vn 0.3264 -0.2802 -0.9028
vn -0.4207 -0.2993 -0.8564
vn -0.4102 -0.2972 -0.8622
vn -0.0773 -0.9898 -0.1195
vn 0.2008 -0.9718 -0.1239
vn 0.2003 -0.9719 -0.1239
vn -0.6363 -0.7184 -0.2813
vn -0.6366 -0.7180 -0.2815
vn 0.6074 -0.3510 -0.7127
vn 0.6000 -0.3475 -0.7206
vn -0.0939 -0.2647 -0.9598
vn -0.0891 -0.2645 -0.9603
vn -0.6920 -0.4349 -0.5762
vn -0.6897 -0.4315 -0.5814
vn 0.7315 -0.5178 -0.4437
vn 0.7314 -0.5145 -0.4476
vn 0.2540 -0.2727 -0.9280
vn 0.2466 -0.2720 -0.9302
vn -0.4908 -0.3161 -0.8119
vn -0.4811 -0.3134 -0.8187
vn -0.5222 -0.8265 -0.2102
vn -0.5220 -0.8267 -0.2101
vn 0.4317 -0.8872 -0.1628
vn 0.4314 -0.8874 -0.1627
vn 0.5496 -0.3273 -0.7687
vn 0.5406 -0.3243 -0.7762
vn -0.1805 -0.2691 -0.9461
vn -0.1729 -0.2686 -0.9476
vn -0.7138 -0.4844 -0.5058
vn -0.7130 -0.4815 -0.5096
vn 0.7214 -0.4616 -0.5163
vn 0.7199 -0.4577 -0.5218
vn 0.1691 -0.2668 -0.9488
vn 0.1643 -0.2665 -0.9497
vn -0.5543 -0.3370 -0.7611
vn -0.5461 -0.3339 -0.7683
vn -0.3349 -0.9299 -0.1519
vn -0.3344 -0.9301 -0.1518
vn 0.5869 -0.7782 -0.2236
vn 0.5873 -0.7778 -0.2238
vn 0.0125 -0.4924 -0.8703
vn -0.5909 -0.0356 0.8060
vn -0.3966 0.0398 -0.9171
# 301 vertex normals

vt 0.3671 0.2550 0.0000
vt 0.3445 0.2550 0.0000
vt 0.3445 0.2776 0.0000
vt 0.3671 0.2776 0.0000
vt 1.6206 0.6367 0.0000
vt 1.6035 0.6394 0.0000
vt 1.6039 0.6401 0.0000
vt 1.6563 0.6413 0.0000
vt 1.6571 0.6398 0.0000
vt 1.6565 0.6389 0.0000
vt 1.6523 0.6364 0.0000
vt 1.6317 0.6360 0.0000
vt 1.5996 0.6441 0.0000
vt 1.6018 0.7081 0.0000
vt 1.6500 0.8114 0.0000
vt 1.6581 0.8141 0.0000
vt 1.6581 0.6431 0.0000
vt 1.6848 0.9815 0.0000
vt 1.7138 0.9808 0.0000
vt 1.7132 0.9547 0.0000
vt 1.7103 0.9519 0.0000
vt 1.6897 0.9524 0.0000
vt 1.6843 0.9581 0.0000
vt 1.7152 0.9485 0.0000
vt 1.7143 0.9471 0.0000
vt 1.6619 0.9482 0.0000
vt 1.6787 0.9517 0.0000
vt 1.6618 0.9490 0.0000
vt 1.7146 0.9495 0.0000
vt 0.0219 0.3013 0.0000
vt 0.0400 0.3013 0.0000
vt 0.0400 0.2787 0.0000
vt 0.0219 0.2787 0.0000
vt 1.7161 0.9452 0.0000
vt 1.7161 0.7742 0.0000
vt 1.7080 0.7770 0.0000
vt 1.6601 0.8802 0.0000
vt 1.6579 0.9442 0.0000
vt 0.0168 0.1758 0.0000
vt 0.0038 0.1816 0.0000
vt 0.0038 0.1882 0.0000
vt 0.0168 0.1984 0.0000
vt 1.7064 0.7699 0.0000
vt 1.6646 0.8151 0.0000
vt 1.7156 0.7448 0.0000
vt 1.7104 0.6069 0.0000
vt 1.7071 0.6070 0.0000
vt 1.7001 0.6098 0.0000
vt 1.6961 0.6162 0.0000
vt 1.6841 0.6760 0.0000
vt 1.7110 0.7463 0.0000
vt 1.6257 0.9123 0.0000
vt 1.6378 0.9721 0.0000
vt 1.6417 0.9785 0.0000
vt 1.6488 0.9813 0.0000
vt 1.6521 0.9814 0.0000
vt 1.6575 0.8436 0.0000
vt 1.6530 0.8421 0.0000
vt 0.0301 0.2395 0.0000
vt 0.0301 0.2421 0.0000
vt 0.0367 0.2421 0.0000
vt 0.0367 0.2395 0.0000
vt 1.7031 0.7536 0.0000
vt 1.6734 0.7404 0.0000
vt 1.6450 0.8347 0.0000
vt 1.6151 0.8479 0.0000
vt 1.6484 0.8184 0.0000
vt 1.6063 0.7732 0.0000
vt 1.6345 0.3917 0.0000
vt 1.6345 0.4426 0.0000
vt 1.6410 0.4426 0.0000
vt 1.6411 0.3917 0.0000
vt 1.6344 0.5014 0.0000
vt 1.6410 0.5014 0.0000
vt 1.6345 0.5523 0.0000
vt 1.6410 0.5523 0.0000
vt 1.6551 0.6337 0.0000
vt 1.6557 0.6075 0.0000
vt 1.6268 0.6069 0.0000
vt 1.6263 0.6303 0.0000
vt 0.8316 0.7399 0.0000
vt 0.8316 0.7627 0.0000
vt 0.8542 0.7627 0.0000
vt 0.8542 0.7399 0.0000
vt 0.8418 0.8694 0.0000
vt 0.8484 0.8694 0.0000
vt 1.6826 0.9539 0.0000
vt 1.6246 0.6345 0.0000
vt 0.0198 0.1984 0.0000
vt 0.0198 0.1758 0.0000
vt 0.0431 0.2787 0.0000
vt 0.0431 0.3013 0.0000
vt 0.8316 0.6070 0.0000
vt 0.8542 0.6070 0.0000
vt 0.0039 0.1757 0.0000
vt 0.0016 0.1816 0.0000
vt 1.6411 0.6045 0.0000
vt 1.6469 0.6050 0.0000
vt 1.6411 0.6022 0.0000
vt 1.6345 0.6022 0.0000
vt 1.6243 0.6050 0.0000
vt 1.6345 0.6045 0.0000
vt 0.0016 0.1882 0.0000
vt 0.0039 0.1983 0.0000
vt 1.7135 0.9520 0.0000
vt 1.6555 0.6364 0.0000
vt 0.8316 0.5994 0.0000
vt 0.8316 0.6015 0.0000
vt 0.8542 0.6015 0.0000
vt 0.8542 0.5994 0.0000
vt 0.8316 0.6035 0.0000
vt 0.8542 0.6035 0.0000
vt 0.8542 0.5791 0.0000
vt 0.8316 0.5791 0.0000
vt 0.8316 0.6043 0.0000
vt 0.8542 0.6043 0.0000
vt 0.0367 0.2342 0.0000
vt 0.0301 0.2342 0.0000
vt 1.6345 0.3389 0.0000
vt 1.6345 0.3442 0.0000
vt 1.6411 0.3442 0.0000
vt 1.6411 0.3389 0.0000
vt 0.3192 0.3124 0.0000
vt 0.3447 0.3124 0.0000
vt 0.3447 0.2854 0.0000
vt 0.3192 0.2854 0.0000
vt 1.6039 0.6406 0.0000
vt 1.6562 0.6418 0.0000
vt 1.6571 0.6403 0.0000
vt 1.6522 0.6369 0.0000
vt 1.6565 0.6393 0.0000
vt 1.6038 0.6402 0.0000
vt 1.6207 0.6372 0.0000
vt 1.6317 0.6364 0.0000
vt 1.5999 0.6449 0.0000
vt 1.6021 0.7088 0.0000
vt 1.6499 0.8114 0.0000
vt 1.6580 0.8142 0.0000
vt 1.6580 0.6436 0.0000
vt 1.6849 0.9812 0.0000
vt 1.7138 0.9805 0.0000
vt 1.7132 0.9544 0.0000
vt 1.7103 0.9517 0.0000
vt 1.6898 0.9522 0.0000
vt 1.6844 0.9579 0.0000
vt 1.7146 0.9493 0.0000
vt 1.7152 0.9483 0.0000
vt 1.7143 0.9468 0.0000
vt 1.6620 0.9488 0.0000
vt 1.6620 0.9480 0.0000
vt 1.6787 0.9514 0.0000
vt 0.0005 0.3004 0.0000
vt 0.0173 0.3004 0.0000
vt 0.0173 0.2785 0.0000
vt 0.0005 0.2785 0.0000
vt 1.7161 0.9450 0.0000
vt 1.7161 0.7744 0.0000
vt 1.7080 0.7771 0.0000
vt 1.6603 0.8801 0.0000
vt 1.6580 0.9440 0.0000
vt 0.0166 0.1757 0.0000
vt 0.0034 0.1819 0.0000
vt 0.0034 0.1888 0.0000
vt 0.0166 0.1995 0.0000
vt 1.7064 0.7701 0.0000
vt 1.6648 0.8152 0.0000
vt 1.7156 0.7450 0.0000
vt 1.7104 0.6074 0.0000
vt 1.7071 0.6075 0.0000
vt 1.7001 0.6103 0.0000
vt 1.6962 0.6167 0.0000
vt 1.6841 0.6764 0.0000
vt 1.7111 0.7465 0.0000
vt 1.6260 0.9124 0.0000
vt 1.6380 0.9722 0.0000
vt 1.6420 0.9786 0.0000
vt 1.6490 0.9813 0.0000
vt 1.6523 0.9814 0.0000
vt 0.0301 0.2394 0.0000
vt 0.0301 0.2420 0.0000
vt 0.0370 0.2420 0.0000
vt 0.0370 0.2394 0.0000
vt 1.7031 0.7538 0.0000
vt 1.6735 0.7406 0.0000
vt 1.6154 0.8482 0.0000
vt 1.6484 0.8185 0.0000
vt 1.6066 0.7737 0.0000
vt 1.6345 0.3943 0.0000
vt 1.6345 0.4440 0.0000
vt 1.6414 0.4440 0.0000
vt 1.6414 0.3943 0.0000
vt 1.6344 0.5018 0.0000
vt 1.6413 0.5018 0.0000
vt 1.6344 0.5523 0.0000
vt 1.6413 0.5523 0.0000
vt 1.6551 0.6342 0.0000
vt 1.6557 0.6081 0.0000
vt 1.6268 0.6074 0.0000
vt 1.6263 0.6307 0.0000
vt 0.8308 0.7400 0.0000
vt 0.8308 0.7629 0.0000
vt 0.8546 0.7629 0.0000
vt 0.8546 0.7400 0.0000
vt 0.8416 0.8698 0.0000
vt 0.8485 0.8698 0.0000
vt 1.6827 0.9537 0.0000
vt 1.6246 0.6349 0.0000
vt 0.0199 0.1995 0.0000
vt 0.0199 0.1757 0.0000
vt 0.0204 0.2785 0.0000
vt 0.0204 0.3004 0.0000
vt 0.8308 0.6070 0.0000
vt 0.8546 0.6070 0.0000
vt 0.0033 0.1757 0.0000
vt 0.0010 0.1819 0.0000
vt 1.6412 0.6045 0.0000
vt 1.6474 0.6053 0.0000
vt 1.6412 0.6020 0.0000
vt 1.6343 0.6020 0.0000
vt 1.6236 0.6053 0.0000
vt 1.6343 0.6045 0.0000
vt 0.0010 0.1888 0.0000
vt 0.0033 0.1995 0.0000
vt 1.7136 0.9518 0.0000
vt 1.6555 0.6368 0.0000
vt 0.8308 0.5994 0.0000
vt 0.8308 0.6015 0.0000
vt 0.8546 0.6015 0.0000
vt 0.8546 0.5995 0.0000
vt 0.8308 0.6035 0.0000
vt 0.8546 0.6035 0.0000
vt 0.8546 0.5791 0.0000
vt 0.8308 0.5791 0.0000
vt 0.8308 0.6043 0.0000
vt 0.8546 0.6043 0.0000
vt 0.0370 0.2342 0.0000
vt 1.6346 0.3434 0.0000
vt 1.6346 0.3482 0.0000
vt 1.6415 0.3482 0.0000
vt 1.6415 0.3434 0.0000
vt 0.0144 0.0358 0.0000
vt 0.0288 0.0357 0.0000
vt 0.0288 0.0197 0.0000
vt 0.0144 0.0197 0.0000
vt 1.6208 0.6375 0.0000
vt 1.6044 0.6403 0.0000
vt 1.6041 0.6410 0.0000
vt 1.6563 0.6421 0.0000
vt 1.6571 0.6406 0.0000
vt 1.6565 0.6397 0.0000
vt 1.6523 0.6373 0.0000
vt 1.6318 0.6368 0.0000
vt 1.6004 0.6450 0.0000
vt 1.6027 0.7088 0.0000
vt 1.6500 0.8115 0.0000
vt 1.6581 0.8142 0.0000
vt 1.6581 0.6439 0.0000
vt 1.6849 0.9804 0.0000
vt 1.7137 0.9797 0.0000
vt 1.7132 0.9537 0.0000
vt 1.7103 0.9510 0.0000
vt 1.6898 0.9514 0.0000
vt 1.6844 0.9571 0.0000
vt 1.7152 0.9476 0.0000
vt 1.7143 0.9461 0.0000
vt 1.6621 0.9473 0.0000
vt 1.6788 0.9507 0.0000
vt 1.7146 0.9486 0.0000
vt 0.0404 0.0180 0.0000
vt 0.0520 0.0180 0.0000
vt 0.0520 0.0020 0.0000
vt 0.0404 0.0020 0.0000
vt 1.7161 0.9443 0.0000
vt 1.7161 0.7740 0.0000
vt 1.7080 0.7768 0.0000
vt 1.6603 0.8796 0.0000
vt 1.6581 0.9433 0.0000
vt 0.0169 0.1748 0.0000
vt 0.0037 0.1812 0.0000
vt 0.0037 0.1885 0.0000
vt 0.0169 0.1997 0.0000
vt 1.7064 0.7697 0.0000
vt 1.6648 0.8148 0.0000
vt 1.7155 0.7447 0.0000
vt 1.6842 0.6763 0.0000
vt 1.7111 0.7462 0.0000
vt 1.6265 0.9120 0.0000
vt 1.6385 0.9716 0.0000
vt 1.6424 0.9780 0.0000
vt 1.6494 0.9808 0.0000
vt 1.6527 0.9809 0.0000
vt 1.6530 0.8420 0.0000
vt 0.0299 0.2397 0.0000
vt 0.0299 0.2423 0.0000
vt 0.0372 0.2423 0.0000
vt 0.0372 0.2397 0.0000
vt 1.7031 0.7535 0.0000
vt 1.6736 0.7404 0.0000
vt 1.6451 0.8347 0.0000
vt 1.6159 0.8479 0.0000
vt 1.6072 0.7735 0.0000
vt 1.6343 0.3926 0.0000
vt 1.6343 0.4432 0.0000
vt 1.6416 0.4432 0.0000
vt 1.6416 0.3926 0.0000
vt 1.6343 0.5018 0.0000
vt 1.6416 0.5018 0.0000
vt 1.6343 0.5525 0.0000
vt 1.6416 0.5525 0.0000
vt 1.6551 0.6345 0.0000
vt 1.6557 0.6085 0.0000
vt 1.6269 0.6079 0.0000
vt 1.6264 0.6311 0.0000
vt 0.8301 0.7392 0.0000
vt 0.8301 0.7619 0.0000
vt 0.8550 0.7619 0.0000
vt 0.8550 0.7392 0.0000
vt 0.8413 0.8682 0.0000
vt 0.8486 0.8682 0.0000
vt 1.6827 0.9529 0.0000
vt 1.6247 0.6353 0.0000
vt 0.0201 0.1998 0.0000
vt 0.0201 0.1748 0.0000
vt 0.0540 0.0020 0.0000
vt 0.0540 0.0180 0.0000
vt 0.8300 0.6069 0.0000
vt 0.8550 0.6069 0.0000
vt 0.0037 0.1748 0.0000
vt 0.0014 0.1812 0.0000
vt 1.6416 0.6045 0.0000
vt 1.6481 0.6050 0.0000
vt 1.6416 0.6022 0.0000
vt 1.6343 0.6022 0.0000
vt 1.6231 0.6050 0.0000
vt 1.6344 0.6045 0.0000
vt 0.0014 0.1885 0.0000
vt 0.0037 0.1997 0.0000
vt 1.7135 0.9510 0.0000
vt 1.6555 0.6372 0.0000
vt 0.8301 0.5993 0.0000
vt 0.8301 0.6014 0.0000
vt 0.8550 0.6014 0.0000
vt 0.8550 0.5993 0.0000
vt 0.8301 0.6034 0.0000
vt 0.8550 0.6034 0.0000
vt 0.8550 0.5792 0.0000
vt 0.8301 0.5791 0.0000
vt 0.8301 0.6042 0.0000
vt 0.8550 0.6042 0.0000
vt 0.0372 0.2342 0.0000
vt 0.0299 0.2342 0.0000
vt 1.6344 0.3400 0.0000
vt 1.6344 0.3453 0.0000
vt 1.6416 0.3453 0.0000
vt 1.6416 0.3400 0.0000
vt 0.3466 0.3146 0.0000
vt 0.3720 0.3145 0.0000
vt 0.3720 0.2847 0.0000
vt 0.3466 0.2847 0.0000
vt 1.6208 0.6380 0.0000
vt 1.6041 0.6403 0.0000
vt 1.6042 0.6414 0.0000
vt 1.6563 0.6426 0.0000
vt 1.6571 0.6411 0.0000
vt 1.6565 0.6402 0.0000
vt 1.6523 0.6378 0.0000
vt 1.6318 0.6373 0.0000
vt 1.6024 0.7087 0.0000
vt 1.6500 0.8116 0.0000
vt 1.6580 0.8143 0.0000
vt 1.6580 0.6444 0.0000
vt 1.6002 0.6451 0.0000
vt 1.6850 0.9801 0.0000
vt 1.7138 0.9794 0.0000
vt 1.7132 0.9534 0.0000
vt 1.7104 0.9507 0.0000
vt 1.6899 0.9512 0.0000
vt 1.6845 0.9569 0.0000
vt 1.7146 0.9483 0.0000
vt 1.7152 0.9474 0.0000
vt 1.7143 0.9459 0.0000
vt 1.6622 0.9471 0.0000
vt 1.6622 0.9478 0.0000
vt 1.6789 0.9505 0.0000
vt 0.2950 0.3152 0.0000
vt 0.3156 0.3152 0.0000
vt 0.3156 0.2854 0.0000
vt 0.2950 0.2854 0.0000
vt 1.7161 0.9441 0.0000
vt 1.7161 0.7741 0.0000
vt 1.7080 0.7769 0.0000
vt 1.6605 0.8794 0.0000
vt 1.6582 0.9430 0.0000
vt 0.0167 0.1746 0.0000
vt 0.0035 0.1814 0.0000
vt 0.0035 0.1890 0.0000
vt 0.0167 0.2008 0.0000
vt 1.7065 0.7699 0.0000
vt 1.6650 0.8148 0.0000
vt 1.7156 0.7449 0.0000
vt 1.7104 0.6079 0.0000
vt 1.7071 0.6080 0.0000
vt 1.7002 0.6107 0.0000
vt 1.6962 0.6171 0.0000
vt 1.6843 0.6766 0.0000
vt 1.7111 0.7464 0.0000
vt 1.6262 0.9115 0.0000
vt 1.6382 0.9709 0.0000
vt 1.6422 0.9773 0.0000
vt 1.6491 0.9801 0.0000
vt 1.6524 0.9801 0.0000
vt 0.0297 0.2394 0.0000
vt 0.0297 0.2420 0.0000
vt 0.0373 0.2420 0.0000
vt 0.0373 0.2394 0.0000
vt 1.7032 0.7537 0.0000
vt 1.6737 0.7405 0.0000
vt 1.6451 0.8348 0.0000
vt 1.6157 0.8475 0.0000
vt 1.6484 0.8186 0.0000
vt 1.6069 0.7733 0.0000
vt 1.6341 0.3931 0.0000
vt 1.6340 0.4435 0.0000
vt 1.6417 0.4435 0.0000
vt 1.6417 0.3931 0.0000
vt 1.6340 0.5019 0.0000
vt 1.6417 0.5019 0.0000
vt 1.6340 0.5525 0.0000
vt 1.6417 0.5525 0.0000
vt 1.6551 0.6350 0.0000
vt 1.6557 0.6091 0.0000
vt 1.6269 0.6084 0.0000
vt 1.6264 0.6316 0.0000
vt 0.8293 0.7393 0.0000
vt 0.8293 0.7621 0.0000
vt 0.8555 0.7621 0.0000
vt 0.8555 0.7392 0.0000
vt 0.8412 0.8692 0.0000
vt 0.8488 0.8692 0.0000
vt 1.6828 0.9527 0.0000
vt 1.6247 0.6358 0.0000
vt 0.0199 0.2008 0.0000
vt 0.0199 0.1746 0.0000
vt 0.3192 0.3152 0.0000
vt 0.8293 0.6067 0.0000
vt 0.8555 0.6066 0.0000
vt 0.0034 0.1746 0.0000
vt 0.0011 0.1814 0.0000
vt 1.6417 0.6046 0.0000
vt 1.6484 0.6052 0.0000
vt 1.6417 0.6022 0.0000
vt 1.6340 0.6022 0.0000
vt 1.6222 0.6052 0.0000
vt 1.6340 0.6046 0.0000
vt 0.0011 0.1890 0.0000
vt 0.0034 0.2008 0.0000
vt 1.7136 0.9508 0.0000
vt 1.6555 0.6377 0.0000
vt 0.8293 0.5994 0.0000
vt 0.8293 0.6015 0.0000
vt 0.8555 0.6015 0.0000
vt 0.8555 0.5994 0.0000
vt 0.8293 0.6034 0.0000
vt 0.8555 0.6034 0.0000
vt 0.8555 0.5791 0.0000
vt 0.8293 0.5791 0.0000
vt 0.8293 0.6041 0.0000
vt 0.8555 0.6041 0.0000
vt 0.0373 0.2342 0.0000
vt 0.0296 0.2342 0.0000
vt 1.6341 0.3409 0.0000
vt 1.6341 0.3461 0.0000
vt 1.6417 0.3461 0.0000
vt 1.6417 0.3409 0.0000
vt 0.4487 0.3230 0.0000
vt 0.4360 0.3230 0.0000
vt 0.4360 0.3961 0.0000
vt 0.4487 0.3961 0.0000
vt 0.3018 0.3245 0.0000
vt 0.2895 0.3245 0.0000
vt 0.2895 0.3955 0.0000
vt 0.3018 0.3955 0.0000
vt 0.2755 0.3245 0.0000
vt 0.2755 0.3955 0.0000
vt 0.2603 0.3245 0.0000
vt 0.2603 0.3955 0.0000
vt 0.2442 0.3245 0.0000
vt 0.2442 0.3955 0.0000
vt 0.2279 0.3245 0.0000
vt 0.2279 0.3955 0.0000
vt 0.2119 0.3245 0.0000
vt 0.2119 0.3955 0.0000
vt 0.1967 0.3245 0.0000
vt 0.1967 0.3955 0.0000
vt 0.1827 0.3245 0.0000
vt 0.1827 0.3955 0.0000
vt 0.1704 0.3245 0.0000
vt 0.1704 0.3955 0.0000
vt 0.4331 0.3245 0.0000
vt 0.4209 0.3245 0.0000
vt 0.4209 0.3955 0.0000
vt 0.4331 0.3955 0.0000
vt 0.4069 0.3245 0.0000
vt 0.4069 0.3955 0.0000
vt 0.3916 0.3245 0.0000
vt 0.3916 0.3955 0.0000
vt 0.3756 0.3245 0.0000
vt 0.3756 0.3955 0.0000
vt 0.3593 0.3245 0.0000
vt 0.3593 0.3955 0.0000
vt 0.3433 0.3245 0.0000
vt 0.3433 0.3955 0.0000
vt 0.3280 0.3245 0.0000
vt 0.3280 0.3955 0.0000
vt 0.3140 0.3245 0.0000
vt 0.3140 0.3955 0.0000
vt 0.6955 0.3229 0.0000
vt 0.6829 0.3229 0.0000
vt 0.6829 0.3960 0.0000
vt 0.6955 0.3960 0.0000
vt 0.6685 0.3229 0.0000
vt 0.6685 0.3960 0.0000
vt 0.6527 0.3229 0.0000
vt 0.6527 0.3960 0.0000
vt 0.6362 0.3229 0.0000
vt 0.6362 0.3960 0.0000
vt 0.6195 0.3229 0.0000
vt 0.6195 0.3960 0.0000
vt 0.6029 0.3229 0.0000
vt 0.6029 0.3960 0.0000
vt 0.5872 0.3229 0.0000
vt 0.5872 0.3960 0.0000
vt 0.5728 0.3229 0.0000
vt 0.5728 0.3960 0.0000
vt 0.5602 0.3229 0.0000
vt 0.5602 0.3960 0.0000
vt 0.5587 0.3230 0.0000
vt 0.5443 0.3230 0.0000
vt 0.5443 0.3961 0.0000
vt 0.5587 0.3961 0.0000
vt 0.5286 0.3230 0.0000
vt 0.5286 0.3961 0.0000
vt 0.5121 0.3230 0.0000
vt 0.5121 0.3961 0.0000
vt 0.4953 0.3230 0.0000
vt 0.4953 0.3961 0.0000
vt 0.4788 0.3230 0.0000
vt 0.4788 0.3961 0.0000
vt 0.0886 0.0456 0.0000
vt 0.0923 0.0489 0.0000
vt 0.0965 0.0516 0.0000
vt 0.1012 0.0535 0.0000
vt 0.1062 0.0546 0.0000
vt 0.1112 0.0549 0.0000
vt 0.1163 0.0542 0.0000
vt 0.1211 0.0527 0.0000
vt 0.1256 0.0504 0.0000
vt 0.1296 0.0473 0.0000
vt 0.1329 0.0436 0.0000
vt 0.1355 0.0394 0.0000
vt 0.1373 0.0349 0.0000
vt 0.1382 0.0301 0.0000
vt 0.1382 0.0252 0.0000
vt 0.1373 0.0204 0.0000
vt 0.1355 0.0158 0.0000
vt 0.1329 0.0116 0.0000
vt 0.1296 0.0079 0.0000
vt 0.1256 0.0048 0.0000
vt 0.1211 0.0025 0.0000
vt 0.1163 0.0010 0.0000
vt 0.1112 0.0004 0.0000
vt 0.1062 0.0006 0.0000
vt 0.1012 0.0017 0.0000
vt 0.0965 0.0036 0.0000
vt 0.0923 0.0063 0.0000
vt 0.0886 0.0097 0.0000
vt 0.0856 0.0136 0.0000
vt 0.0834 0.0180 0.0000
vt 0.0821 0.0227 0.0000
vt 0.0816 0.0276 0.0000
vt 0.0821 0.0325 0.0000
vt 0.0834 0.0372 0.0000
vt 0.0856 0.0416 0.0000
vt 0.4631 0.3230 0.0000
vt 0.4631 0.3961 0.0000
vt 0.0817 0.0077 0.0000
vt 0.0802 0.0084 0.0000
vt 0.0808 0.0101 0.0000
vt 0.0825 0.0097 0.0000
vt 1.6902 0.4076 0.0000
vt 1.7042 0.4076 0.0000
vt 1.7042 0.3882 0.0000
vt 1.6902 0.3882 0.0000
vt 0.0756 0.0236 0.0000
vt 0.0749 0.0220 0.0000
vt 0.0731 0.0226 0.0000
vt 0.0735 0.0242 0.0000
vt 0.0594 0.0169 0.0000
vt 0.0610 0.0163 0.0000
vt 0.0605 0.0146 0.0000
vt 0.0588 0.0149 0.0000
vt 0.0756 0.0020 0.0000
vt 0.0749 0.0036 0.0000
vt 0.0765 0.0044 0.0000
vt 0.0775 0.0030 0.0000
vt 0.0817 0.0179 0.0000
vt 0.0802 0.0172 0.0000
vt 0.0792 0.0187 0.0000
vt 0.0806 0.0197 0.0000
vt 0.0650 0.0231 0.0000
vt 0.0658 0.0217 0.0000
vt 0.0643 0.0207 0.0000
vt 0.0632 0.0220 0.0000
vt 0.0670 0.0017 0.0000
vt 0.0675 0.0032 0.0000
vt 0.0694 0.0028 0.0000
vt 0.0691 0.0012 0.0000
vt 0.0812 0.0119 0.0000
vt 0.0829 0.0118 0.0000
vt 0.0712 0.0228 0.0000
vt 0.0713 0.0245 0.0000
vt 0.0603 0.0068 0.0000
vt 0.0618 0.0076 0.0000
vt 0.0629 0.0062 0.0000
vt 0.0616 0.0051 0.0000
vt 0.0603 0.0128 0.0000
vt 0.0586 0.0128 0.0000
vt 0.0780 0.0055 0.0000
vt 0.0792 0.0043 0.0000
vt 0.0780 0.0201 0.0000
vt 0.0792 0.0213 0.0000
vt 0.0629 0.0194 0.0000
vt 0.0616 0.0205 0.0000
vt 0.0712 0.0028 0.0000
vt 0.0713 0.0011 0.0000
vt 0.0812 0.0137 0.0000
vt 0.0829 0.0139 0.0000
vt 0.0694 0.0228 0.0000
vt 0.0691 0.0244 0.0000
vt 0.0605 0.0110 0.0000
vt 0.0588 0.0107 0.0000
vt 0.0643 0.0049 0.0000
vt 0.0632 0.0037 0.0000
vt 0.0792 0.0069 0.0000
vt 0.0806 0.0059 0.0000
vt 0.0765 0.0212 0.0000
vt 0.0775 0.0226 0.0000
vt 0.0618 0.0180 0.0000
vt 0.0603 0.0188 0.0000
vt 0.0731 0.0030 0.0000
vt 0.0735 0.0014 0.0000
vt 0.0808 0.0155 0.0000
vt 0.0825 0.0159 0.0000
vt 0.0675 0.0224 0.0000
vt 0.0670 0.0239 0.0000
vt 0.0610 0.0093 0.0000
vt 0.0594 0.0087 0.0000
vt 0.0658 0.0040 0.0000
vt 0.0650 0.0025 0.0000
vt 0.0623 0.0177 0.0000
vt 0.0634 0.0191 0.0000
vt 0.0646 0.0202 0.0000
vt 0.0661 0.0212 0.0000
vt 0.0678 0.0218 0.0000
vt 0.0695 0.0222 0.0000
vt 0.0713 0.0223 0.0000
vt 0.0730 0.0221 0.0000
vt 0.0747 0.0215 0.0000
vt 0.0763 0.0207 0.0000
vt 0.0777 0.0197 0.0000
vt 0.0788 0.0184 0.0000
vt 0.0797 0.0169 0.0000
vt 0.0804 0.0153 0.0000
vt 0.0807 0.0136 0.0000
vt 0.0807 0.0119 0.0000
vt 0.0804 0.0103 0.0000
vt 0.0797 0.0087 0.0000
vt 0.0788 0.0072 0.0000
vt 0.0777 0.0059 0.0000
vt 0.0763 0.0049 0.0000
vt 0.0747 0.0040 0.0000
vt 0.0730 0.0035 0.0000
vt 0.0713 0.0033 0.0000
vt 0.0695 0.0034 0.0000
vt 0.0678 0.0037 0.0000
vt 0.0661 0.0044 0.0000
vt 0.0646 0.0054 0.0000
vt 0.0634 0.0065 0.0000
vt 0.0623 0.0079 0.0000
vt 0.0616 0.0094 0.0000
vt 0.0611 0.0111 0.0000
vt 0.0609 0.0128 0.0000
vt 0.0611 0.0145 0.0000
vt 0.0616 0.0161 0.0000
vt 1.7075 0.4642 0.0000
vt 1.7183 0.4642 0.0000
vt 1.7183 0.4517 0.0000
vt 1.7075 0.4517 0.0000
vt 1.6074 0.4626 0.0000
vt 1.6214 0.4626 0.0000
vt 1.6214 0.4455 0.0000
vt 1.6074 0.4455 0.0000
vt 1.6074 0.6281 0.0000
vt 1.6214 0.6281 0.0000
vt 1.6214 0.6111 0.0000
vt 1.6074 0.6111 0.0000
vt 1.7183 0.4391 0.0000
vt 1.7075 0.4391 0.0000
vt 1.7075 0.5989 0.0000
vt 1.7183 0.5989 0.0000
vt 1.7183 0.5894 0.0000
vt 1.7075 0.5894 0.0000
vt 1.6214 0.5916 0.0000
vt 1.6074 0.5916 0.0000
vt 1.7183 0.4266 0.0000
vt 1.7075 0.4266 0.0000
vt 1.7183 0.5785 0.0000
vt 1.7075 0.5785 0.0000
vt 1.6214 0.5704 0.0000
vt 1.6074 0.5704 0.0000
vt 1.7183 0.4147 0.0000
vt 1.7075 0.4147 0.0000
vt 1.7183 0.5666 0.0000
vt 1.7075 0.5666 0.0000
vt 1.6214 0.5481 0.0000
vt 1.6074 0.5481 0.0000
vt 1.7183 0.4038 0.0000
vt 1.7075 0.4038 0.0000
vt 1.7183 0.5541 0.0000
vt 1.7075 0.5541 0.0000
vt 1.6214 0.5255 0.0000
vt 1.6074 0.5255 0.0000
vt 1.7183 0.3942 0.0000
vt 1.7075 0.3942 0.0000
vt 1.7183 0.5414 0.0000
vt 1.7075 0.5414 0.0000
vt 1.6214 0.5032 0.0000
vt 1.6074 0.5032 0.0000
vt 1.6902 0.5537 0.0000
vt 1.7042 0.5537 0.0000
vt 1.7042 0.5367 0.0000
vt 1.6902 0.5367 0.0000
vt 1.7183 0.5289 0.0000
vt 1.7075 0.5289 0.0000
vt 1.6214 0.4820 0.0000
vt 1.6074 0.4820 0.0000
vt 1.7042 0.5173 0.0000
vt 1.6902 0.5173 0.0000
vt 1.7183 0.5170 0.0000
vt 1.7075 0.5170 0.0000
vt 1.7042 0.4961 0.0000
vt 1.6902 0.4961 0.0000
vt 1.7183 0.5061 0.0000
vt 1.7075 0.5061 0.0000
vt 1.7042 0.4738 0.0000
vt 1.6902 0.4738 0.0000
vt 1.7183 0.4966 0.0000
vt 1.7075 0.4966 0.0000
vt 1.7042 0.4511 0.0000
vt 1.6902 0.4511 0.0000
vt 1.7183 0.4870 0.0000
vt 1.7075 0.4870 0.0000
vt 1.7042 0.4288 0.0000
vt 1.6902 0.4288 0.0000
vt 1.7183 0.4761 0.0000
vt 1.7075 0.4761 0.0000
# 766 texture coords

o Motor4_Dron
g Motor4_Dron
usemtl Material__28
s off
f 1/1/1 2/2/1 3/3/1 4/4/1 
f 5/5/2 6/6/2 7/7/2 8/8/2 
f 5/5/2 8/8/2 9/9/2 10/10/2 
f 5/5/2 10/10/2 11/11/2 12/12/2 
f 13/13/3 14/14/3 15/15/3 16/16/3 
f 13/13/3 16/16/3 17/17/3 8/8/3 
f 13/13/3 8/8/3 7/7/3 
f 2/18/4 1/19/4 18/20/4 19/21/4 
f 2/18/4 19/21/4 20/22/4 21/23/4 
f 22/24/5 23/25/5 24/26/5 25/27/5 
f 24/26/5 26/28/5 25/27/5 
f 25/27/5 20/22/5 19/21/5 22/24/5 
f 27/29/5 22/24/5 19/21/5 
f 2/30/6 21/31/6 28/32/6 3/33/6 
f 29/34/7 30/35/7 31/36/7 32/37/7 
f 29/34/7 32/37/7 33/38/7 24/26/7 
f 29/34/7 24/26/7 23/25/7 
f 25/39/8 26/40/8 6/41/8 5/42/8 
f 32/37/9 31/36/9 34/43/9 35/44/9 
f 36/45/10 37/46/10 38/47/10 39/48/10 
f 36/45/10 39/48/10 40/49/10 41/50/10 
f 36/45/10 41/50/10 42/51/10 
f 43/52/11 44/53/11 45/54/11 46/55/11 
f 43/52/11 46/55/11 47/56/11 48/57/11 
f 43/52/11 48/57/11 49/58/11 
f 38/59/12 37/60/12 47/61/12 46/62/12 
f 35/44/13 34/43/13 50/63/13 51/64/13 
f 51/64/14 50/63/14 42/51/14 41/50/14 
f 43/52/15 49/58/15 52/65/15 53/66/15 
f 53/66/16 52/65/16 54/67/16 55/68/16 
f 55/68/17 54/67/17 15/15/17 14/14/17 
f 43/69/18 53/70/18 51/71/18 41/72/18 
f 53/70/19 55/73/19 35/74/19 51/71/19 
f 55/73/20 14/75/20 32/76/20 35/74/20 
f 12/12/21 11/11/21 56/77/21 4/78/21 
f 12/12/21 4/78/21 3/79/21 28/80/21 
f 42/51/4 50/63/4 34/43/4 31/36/4 
f 15/15/21 54/67/21 52/65/21 49/58/21 
f 16/81/22 48/82/22 36/83/22 30/84/22 
f 30/35/23 36/45/23 42/51/23 31/36/23 
f 15/15/21 49/58/21 48/57/21 16/16/21 
f 48/82/24 47/85/24 37/86/24 36/83/24 
f 21/23/23 20/22/23 57/87/23 
f 57/87/4 20/22/4 25/27/4 
f 5/5/25 12/12/25 58/88/25 
f 58/88/26 12/12/26 28/80/26 
f 5/42/27 58/89/27 57/90/27 25/39/27 
f 58/91/28 28/32/28 21/31/28 57/92/28 
f 17/93/29 16/81/29 30/84/29 29/94/29 
f 26/40/30 24/95/30 59/96/30 
f 59/97/31 24/98/31 33/99/31 
f 13/100/32 7/101/32 60/102/32 
f 60/103/33 7/104/33 6/41/33 
f 13/100/34 60/102/34 59/97/34 33/99/34 
f 60/103/35 6/41/35 26/40/35 59/96/35 
f 33/99/36 32/76/36 14/75/36 13/100/36 
f 27/29/37 19/21/37 61/105/37 
f 61/105/23 19/21/23 18/20/23 
f 56/77/26 11/11/26 62/106/26 
f 62/106/38 11/11/38 10/10/38 
f 56/107/39 62/108/39 61/109/39 18/110/39 
f 62/108/40 10/111/40 27/112/40 61/109/40 
f 18/110/41 1/113/41 4/114/41 56/107/41 
f 29/34/42 23/25/42 22/24/42 
f 9/9/26 8/8/26 17/17/26 
f 9/115/43 17/93/43 29/94/43 22/116/43 
f 10/111/44 9/115/44 22/116/44 27/112/44 
f 46/62/45 45/117/45 39/118/45 38/59/45 
f 45/119/46 44/120/46 40/121/46 39/122/46 
f 41/72/47 40/121/47 44/120/47 43/69/47 
f 63/123/41 64/124/41 65/125/41 66/126/41 
f 67/127/48 68/128/48 69/129/48 70/130/48 
f 69/129/48 71/131/48 70/130/48 
f 72/132/48 67/127/48 70/130/48 73/133/48 
f 73/133/48 70/130/48 74/134/48 
f 75/135/49 76/136/49 77/137/49 78/138/49 
f 75/135/49 78/138/49 79/139/49 68/128/49 
f 75/135/49 68/128/49 67/127/49 
f 64/140/4 63/141/4 80/142/4 81/143/4 
f 64/140/4 81/143/4 82/144/4 83/145/4 
f 84/146/50 85/147/50 86/148/50 87/149/50 
f 86/148/50 88/150/50 87/149/50 
f 84/146/50 87/149/50 89/151/50 82/144/50 
f 84/146/50 82/144/50 81/143/50 
f 64/152/1 83/153/1 90/154/1 65/155/1 
f 91/156/51 92/157/51 93/158/51 94/159/51 
f 91/156/51 94/159/51 95/160/51 88/150/51 
f 91/156/51 88/150/51 86/148/51 
f 89/161/52 87/162/52 72/163/52 73/164/52 
f 94/159/53 93/158/53 96/165/53 97/166/53 
f 98/167/54 99/168/54 100/169/54 101/170/54 
f 98/167/54 101/170/54 102/171/54 103/172/54 
f 98/167/54 103/172/54 104/173/54 
f 105/174/55 106/175/55 107/176/55 108/177/55 
f 105/174/55 108/177/55 109/178/55 110/57/55 
f 105/174/55 110/57/55 111/58/55 
f 100/179/6 99/180/6 109/181/6 108/182/6 
f 97/166/56 96/165/56 112/183/56 113/184/56 
f 113/184/57 112/183/57 104/173/57 103/172/57 
f 105/174/58 111/58/58 114/65/58 115/185/58 
f 115/185/59 114/65/59 116/186/59 117/187/59 
f 117/187/60 116/186/60 77/137/60 76/136/60 
f 105/188/61 115/189/61 113/190/61 103/191/61 
f 115/189/62 117/192/62 97/193/62 113/190/62 
f 117/192/63 76/194/63 94/195/63 97/193/63 
f 74/134/21 70/130/21 118/196/21 66/197/21 
f 74/134/21 66/197/21 65/198/21 90/199/21 
f 104/173/4 112/183/4 96/165/4 93/158/4 
f 77/137/21 116/186/21 114/65/21 111/58/21 
f 78/200/64 110/201/64 98/202/64 92/203/64 
f 92/157/4 98/167/4 104/173/4 93/158/4 
f 77/137/21 111/58/21 110/57/21 78/138/21 
f 110/201/65 109/204/65 99/205/65 98/202/65 
f 83/145/42 82/144/42 119/206/42 
f 119/206/42 82/144/42 89/151/42 
f 73/133/26 74/134/26 120/207/26 
f 120/207/66 74/134/66 90/199/66 
f 73/164/67 120/208/67 119/209/67 89/161/67 
f 120/210/68 90/154/68 83/153/68 119/211/68 
f 79/212/69 78/200/69 92/203/69 91/213/69 
f 87/162/70 88/214/70 121/215/70 
f 121/216/71 88/217/71 95/218/71 
f 75/219/72 67/220/72 122/221/72 
f 122/222/73 67/223/73 72/163/73 
f 75/219/74 122/221/74 121/216/74 95/218/74 
f 122/222/75 72/163/75 87/162/75 121/215/75 
f 95/218/76 94/195/76 76/194/76 75/219/76 
f 84/146/77 81/143/77 123/224/77 
f 123/224/42 81/143/42 80/142/42 
f 118/196/66 70/130/66 124/225/66 
f 124/225/66 70/130/66 71/131/66 
f 118/226/78 124/227/78 123/228/78 80/229/78 
f 124/227/79 71/230/79 84/231/79 123/228/79 
f 80/229/12 63/232/12 66/233/12 118/226/12 
f 91/156/23 86/148/23 85/147/23 
f 69/129/26 68/128/26 79/139/26 
f 69/234/80 79/212/80 91/213/80 85/235/80 
f 71/230/81 69/234/81 85/235/81 84/231/81 
f 108/182/82 107/236/82 101/118/82 100/179/82 
f 107/237/83 106/238/83 102/239/83 101/240/83 
f 103/191/84 102/239/84 106/238/84 105/188/84 
f 125/241/12 126/242/12 127/243/12 128/244/12 
f 129/245/85 130/246/85 131/247/85 132/248/85 
f 129/245/85 132/248/85 133/249/85 134/250/85 
f 129/245/85 134/250/85 135/251/85 136/252/85 
f 137/253/86 138/254/86 139/255/86 140/256/86 
f 137/253/86 140/256/86 141/257/86 132/248/86 
f 137/253/86 132/248/86 131/247/86 
f 126/258/4 125/259/4 142/260/4 143/261/4 
f 126/258/4 143/261/4 144/262/4 145/263/4 
f 146/264/87 147/265/87 148/266/87 149/267/87 
f 148/266/87 150/150/87 149/267/87 
f 149/267/87 144/262/87 143/261/87 146/264/87 
f 151/268/87 146/264/87 143/261/87 
f 126/269/41 145/270/41 152/271/41 127/272/41 
f 153/273/88 154/274/88 155/275/88 156/276/88 
f 153/273/88 156/276/88 157/277/88 148/266/88 
f 153/273/88 148/266/88 147/265/88 
f 149/278/89 150/279/89 130/280/89 129/281/89 
f 156/276/90 155/275/90 158/282/90 159/283/90 
f 160/284/91 161/168/91 162/169/91 163/170/91 
f 160/284/91 163/170/91 164/171/91 165/285/91 
f 160/284/91 165/285/91 166/286/91 
f 167/287/92 168/288/92 169/289/92 170/290/92 
f 167/287/92 170/290/92 171/291/92 172/57/92 
f 167/287/92 172/57/92 173/292/92 
f 162/293/93 161/294/93 171/295/93 170/296/93 
f 159/283/94 158/282/94 174/297/94 175/298/94 
f 175/298/95 174/297/95 166/286/95 165/285/95 
f 167/287/96 173/292/96 176/299/96 177/300/96 
f 177/300/97 176/299/97 178/186/97 179/301/97 
f 179/301/98 178/186/98 139/255/98 138/254/98 
f 167/302/99 177/303/99 175/304/99 165/305/99 
f 177/303/100 179/306/100 159/307/100 175/304/100 
f 179/306/101 138/308/101 156/309/101 159/307/101 
f 136/252/21 135/251/21 180/310/21 128/311/21 
f 136/252/21 128/311/21 127/312/21 152/313/21 
f 166/286/4 174/297/4 158/282/4 155/275/4 
f 139/255/66 178/186/66 176/299/66 173/292/66 
f 140/314/102 172/315/102 160/316/102 154/317/102 
f 154/274/42 160/284/42 166/286/42 155/275/42 
f 139/255/21 173/292/21 172/57/21 140/256/21 
f 172/315/103 171/318/103 161/319/103 160/316/103 
f 145/263/42 144/262/42 181/320/42 
f 181/320/23 144/262/23 149/267/23 
f 129/245/25 136/252/25 182/321/25 
f 182/321/26 136/252/26 152/313/26 
f 129/281/104 182/322/104 181/323/104 149/278/104 
f 182/324/105 152/271/105 145/270/105 181/325/105 
f 141/326/106 140/314/106 154/317/106 153/327/106 
f 150/279/107 148/328/107 183/329/107 
f 183/330/108 148/331/108 157/332/108 
f 137/333/109 131/334/109 184/335/109 
f 184/336/110 131/337/110 130/280/110 
f 137/333/111 184/335/111 183/330/111 157/332/111 
f 184/336/112 130/280/112 150/279/112 183/329/112 
f 157/332/113 156/309/113 138/308/113 137/333/113 
f 151/268/23 143/261/23 185/338/23 
f 185/338/42 143/261/42 142/260/42 
f 180/310/66 135/251/66 186/339/66 
f 186/339/114 135/251/114 134/250/114 
f 180/340/115 186/341/115 185/342/115 142/343/115 
f 186/341/116 134/344/116 151/345/116 185/342/116 
f 142/343/6 125/346/6 128/347/6 180/340/6 
f 153/273/117 147/265/117 146/264/117 
f 133/249/118 132/248/118 141/257/118 
f 133/348/119 141/326/119 153/327/119 146/349/119 
f 134/344/120 133/348/120 146/349/120 151/345/120 
f 170/296/121 169/350/121 163/351/121 162/293/121 
f 169/352/122 168/353/122 164/354/122 163/355/122 
f 165/305/123 164/354/123 168/353/123 167/302/123 
f 187/356/6 188/357/6 189/358/6 190/359/6 
f 191/360/124 192/361/124 193/362/124 194/363/124 
f 191/360/124 194/363/124 195/364/124 196/365/124 
f 191/360/124 196/365/124 197/366/124 198/367/124 
f 199/368/125 200/369/125 201/370/125 194/363/125 
f 201/370/125 202/371/125 194/363/125 
f 199/368/125 194/363/125 193/362/125 203/372/125 
f 188/373/4 187/374/4 204/375/4 205/376/4 
f 188/373/4 205/376/4 206/377/4 207/378/4 
f 208/379/126 209/380/126 210/381/126 206/377/126 
f 210/381/126 211/382/126 212/383/126 206/377/126 
f 212/383/126 213/384/126 206/377/126 
f 208/379/126 206/377/126 205/376/126 
f 188/385/12 207/386/12 214/387/12 189/388/12 
f 215/389/127 216/390/127 217/391/127 218/392/127 
f 215/389/127 218/392/127 219/393/127 211/382/127 
f 215/389/127 211/382/127 210/381/127 
f 213/394/128 212/395/128 192/396/128 191/397/128 
f 218/392/129 217/391/129 220/398/129 221/399/129 
f 222/400/130 223/401/130 224/402/130 225/403/130 
f 222/400/130 225/403/130 226/404/130 227/405/130 
f 222/400/130 227/405/130 228/406/130 
f 229/407/131 230/408/131 231/409/131 232/410/131 
f 229/407/131 232/410/131 233/411/131 234/57/131 
f 229/407/131 234/57/131 235/58/131 
f 224/412/41 223/413/41 233/414/41 232/415/41 
f 221/399/132 220/398/132 236/416/132 237/417/132 
f 237/417/133 236/416/133 228/406/133 227/405/133 
f 229/407/134 235/58/134 238/418/134 239/419/134 
f 239/419/135 238/418/135 240/420/135 241/421/135 
f 241/421/136 240/420/136 200/369/136 199/368/136 
f 229/422/137 239/423/137 237/424/137 227/425/137 
f 239/423/138 241/426/138 221/427/138 237/424/138 
f 241/426/139 199/428/139 218/429/139 221/427/139 
f 198/367/21 197/366/21 242/430/21 190/431/21 
f 198/367/21 190/431/21 189/432/21 214/433/21 
f 228/406/140 236/416/140 220/398/140 217/391/140 
f 200/369/26 240/420/26 238/418/26 235/58/26 
f 201/434/141 234/435/141 222/436/141 216/437/141 
f 216/390/4 222/400/4 228/406/4 217/391/4 
f 200/369/25 235/58/25 234/57/25 201/370/25 
f 234/435/142 233/438/142 223/439/142 222/436/142 
f 207/378/23 206/377/23 243/440/23 
f 243/440/23 206/377/23 213/384/23 
f 191/360/66 198/367/66 244/441/66 
f 244/441/26 198/367/26 214/433/26 
f 191/397/143 244/442/143 243/443/143 213/394/143 
f 244/126/144 214/387/144 207/386/144 243/444/144 
f 202/445/145 201/434/145 216/437/145 215/446/145 
f 212/395/146 211/447/146 245/448/146 
f 245/449/147 211/450/147 219/451/147 
f 203/452/148 193/453/148 246/454/148 
f 246/455/149 193/456/149 192/396/149 
f 203/452/150 246/454/150 245/449/150 219/451/150 
f 246/455/151 192/396/151 212/395/151 245/448/151 
f 219/451/152 218/429/152 199/428/152 203/452/152 
f 208/379/23 205/376/23 247/457/23 
f 247/457/23 205/376/23 204/375/23 
f 242/430/38 197/366/38 248/458/38 
f 248/458/26 197/366/26 196/365/26 
f 242/459/153 248/460/153 247/461/153 204/462/153 
f 248/460/154 196/463/154 208/464/154 247/461/154 
f 204/462/1 187/465/1 190/466/1 242/459/1 
f 215/389/37 210/381/37 209/380/37 
f 195/364/38 194/363/38 202/371/38 
f 195/467/155 202/445/155 215/446/155 209/468/155 
f 196/463/156 195/467/156 209/468/156 208/464/156 
f 232/415/157 231/469/157 225/470/157 224/412/157 
f 231/471/158 230/472/158 226/473/158 225/474/158 
f 227/425/159 226/473/159 230/472/159 229/422/159 
f 249/475/160 250/476/161 251/477/162 252/478/160 
f 250/479/161 253/480/163 254/481/164 251/482/162 
f 253/480/163 255/483/165 256/484/166 254/481/164 
f 255/483/165 257/485/167 258/486/168 256/484/166 
f 257/485/167 259/487/169 260/488/170 258/486/168 
f 259/487/169 261/489/171 262/490/172 260/488/170 
f 261/489/171 263/491/173 264/492/174 262/490/172 
f 263/491/173 265/493/175 266/494/176 264/492/174 
f 265/493/175 267/495/177 268/496/178 266/494/176 
f 267/495/177 269/497/179 270/498/180 268/496/178 
f 269/499/179 271/500/181 272/501/182 270/502/180 
f 271/500/181 273/503/183 274/504/184 272/501/182 
f 273/503/183 275/505/185 276/506/186 274/504/184 
f 275/505/185 277/507/187 278/508/188 276/506/186 
f 277/507/187 279/509/189 280/510/190 278/508/188 
f 279/509/189 281/511/191 282/512/192 280/510/190 
f 281/511/191 283/513/193 284/514/194 282/512/192 
f 283/513/193 285/515/195 286/516/196 284/514/194 
f 285/515/195 287/479/197 288/482/198 286/516/196 
f 287/517/197 289/518/199 290/519/200 288/520/198 
f 289/518/199 291/521/201 292/522/202 290/519/200 
f 291/521/201 293/523/203 294/524/204 292/522/202 
f 293/523/203 295/525/205 296/526/206 294/524/204 
f 295/525/205 297/527/207 298/528/208 296/526/206 
f 297/527/207 299/529/209 300/530/210 298/528/208 
f 299/529/209 301/531/211 302/532/212 300/530/210 
f 301/531/211 303/533/213 304/534/214 302/532/212 
f 303/533/213 305/535/215 306/536/216 304/534/214 
f 305/537/215 307/538/217 308/539/218 306/540/216 
f 307/538/217 309/541/219 310/542/220 308/539/218 
f 309/541/219 311/543/221 312/544/222 310/542/220 
f 311/543/221 313/545/223 314/546/224 312/544/222 
f 313/545/223 315/547/225 316/548/226 314/546/224 
f 251/549/227 254/550/227 256/551/227 258/552/227 
f 251/549/227 258/552/227 260/553/227 262/554/227 
f 251/549/227 262/554/227 264/555/227 266/556/227 
f 251/549/227 266/556/227 268/557/227 270/558/227 
f 251/549/227 270/558/227 272/559/227 274/560/227 
f 251/549/227 274/560/227 276/561/227 278/562/227 
f 251/549/227 278/562/227 280/563/227 282/564/227 
f 251/549/227 282/564/227 284/565/227 286/566/227 
f 251/549/227 286/566/227 288/567/227 290/568/227 
f 251/549/227 290/568/227 292/569/227 294/570/227 
f 251/549/227 294/570/227 296/571/227 298/572/227 
f 251/549/227 298/572/227 300/573/227 302/574/227 
f 251/549/227 302/574/227 304/575/227 306/576/227 
f 251/549/227 306/576/227 308/577/227 310/578/227 
f 251/549/227 310/578/227 312/579/227 314/580/227 
f 251/549/227 314/580/227 316/581/227 317/582/227 
f 251/549/227 317/582/227 252/583/227 
f 315/547/225 318/584/228 317/585/229 316/548/226 
f 318/584/228 249/475/160 252/478/160 317/585/229 
f 273/586/230 319/587/231 320/588/232 275/589/233 
f 321/590/212 322/591/211 323/592/213 324/593/214 
f 291/594/234 325/595/235 326/596/236 293/597/237 
f 309/598/238 327/599/239 328/600/240 311/601/241 
f 265/602/242 329/603/243 330/604/244 267/605/245 
f 283/606/246 331/607/247 332/608/248 285/609/249 
f 301/610/250 321/611/251 324/612/252 303/613/253 
f 257/614/254 333/615/255 334/616/256 259/617/257 
f 275/589/233 320/588/232 335/618/258 277/619/259 
f 293/597/237 326/596/236 336/620/260 295/621/261 
f 249/622/262 337/623/262 338/624/263 250/625/264 
f 311/601/241 328/600/240 339/626/265 313/627/266 
f 267/605/245 330/604/244 340/628/267 269/629/268 
f 285/609/249 332/608/248 341/630/269 287/631/270 
f 303/613/253 324/612/252 342/632/271 305/633/272 
f 259/617/257 334/616/256 343/634/273 261/635/274 
f 277/619/259 335/618/258 344/636/275 279/637/276 
f 295/621/261 336/620/260 345/638/277 297/639/278 
f 313/627/266 339/626/265 346/640/279 315/641/280 
f 250/625/264 338/624/263 347/642/281 253/643/282 
f 269/629/268 340/628/267 348/644/283 271/645/284 
f 287/631/270 341/630/269 349/646/285 289/647/286 
f 305/633/272 342/632/271 350/648/287 307/649/288 
f 261/635/274 343/634/273 351/650/289 263/651/290 
f 279/637/276 344/636/275 352/652/291 281/653/292 
f 297/639/278 345/638/277 353/654/293 299/655/294 
f 315/641/280 346/640/279 354/656/295 318/657/296 
f 253/643/282 347/642/281 355/658/297 255/659/298 
f 271/645/284 348/644/283 319/587/231 273/586/230 
f 289/647/286 349/646/285 325/595/235 291/594/234 
f 307/649/288 350/648/287 327/599/239 309/598/238 
f 263/651/290 351/650/289 329/603/243 265/602/242 
f 281/653/292 352/652/291 331/607/247 283/606/246 
f 299/655/294 353/654/293 321/611/251 301/610/250 
f 318/657/296 354/656/295 337/623/262 249/622/262 
f 255/659/298 355/658/297 333/615/255 257/614/254 
f 356/660/299 357/661/299 358/662/299 359/663/299 
f 356/660/299 359/663/299 360/664/299 361/665/299 
f 356/660/299 361/665/299 362/666/299 363/667/299 
f 356/660/299 363/667/299 323/668/299 322/669/299 
f 356/660/299 322/669/299 364/670/299 365/671/299 
f 356/660/299 365/671/299 366/672/299 367/673/299 
f 356/660/299 367/673/299 368/674/299 369/675/299 
f 356/660/299 369/675/299 370/676/299 371/677/299 
f 356/660/299 371/677/299 372/678/299 373/679/299 
f 356/660/299 373/679/299 374/680/299 375/681/299 
f 356/660/299 375/681/299 376/682/299 377/683/299 
f 356/660/299 377/683/299 378/684/299 379/685/299 
f 356/660/299 379/685/299 380/686/299 381/687/299 
f 356/660/299 381/687/299 382/688/299 383/689/299 
f 356/660/299 383/689/299 384/690/299 385/691/299 
f 356/660/299 385/691/299 386/692/299 387/693/299 
f 356/660/299 387/693/299 388/694/299 
f 320/695/186 376/696/185 375/697/187 335/698/188 
f 337/699/160 356/700/160 388/701/161 338/702/162 
f 324/703/214 323/704/213 363/705/215 342/706/216 
f 335/698/188 375/697/187 374/707/189 344/708/190 
f 338/709/162 388/710/161 387/711/163 347/712/164 
f 342/706/216 363/705/215 362/713/217 350/714/218 
f 344/708/190 374/707/189 373/715/191 352/716/192 
f 347/712/164 387/711/163 386/717/165 355/718/166 
f 350/714/218 362/713/217 361/719/219 327/720/220 
f 352/716/192 373/715/191 372/721/193 331/722/194 
f 355/718/166 386/717/165 385/723/167 333/724/168 
f 327/720/220 361/719/219 360/725/221 328/726/222 
f 331/722/194 372/721/193 371/727/195 332/728/196 
f 333/724/168 385/723/167 384/729/169 334/730/170 
f 328/726/222 360/725/221 359/731/223 339/732/300 
f 332/728/196 371/727/195 370/733/197 341/734/198 
f 334/730/170 384/729/169 383/735/171 343/736/172 
f 339/732/300 359/731/223 358/737/225 346/738/226 
f 341/739/198 370/740/197 369/741/301 349/742/200 
f 343/736/172 383/735/171 382/743/173 351/744/174 
f 346/738/226 358/737/225 357/745/228 354/746/229 
f 349/742/200 369/741/301 368/747/201 325/748/202 
f 351/744/174 382/743/173 381/749/175 329/750/176 
f 354/746/229 357/745/228 356/700/160 337/699/160 
f 325/748/202 368/747/201 367/751/203 326/752/204 
f 329/750/176 381/749/175 380/753/177 330/754/178 
f 326/752/204 367/751/203 366/755/205 336/756/206 
f 330/754/178 380/753/177 379/757/179 340/758/180 
f 336/756/206 366/755/205 365/759/207 345/760/208 
f 340/758/180 379/757/179 378/761/181 348/762/182 
f 345/760/208 365/759/207 364/763/209 353/764/210 
f 348/762/182 378/761/181 377/765/183 319/766/184 
f 353/764/210 364/763/209 322/591/211 321/590/212 
f 319/766/184 377/765/183 376/696/185 320/695/186 
# 336 polygons - 84 triangles

