# 3ds Max Wavefront OBJ Exporter v0.99 - (c)2007 guruware
# File Created: 16.05.2026 16:15:05

mtllib Motor1_Dron.mtl

#
# object Motor1_Dron
#

v  -0.0172 -0.0003 0.0023
v  -0.0166 -0.0003 -0.0048
v  -0.0166 0.0009 -0.0048
v  -0.0172 0.0008 0.0023
v  -0.0237 0.0009 -0.0068
v  -0.0241 0.0005 -0.0109
v  -0.0243 0.0010 -0.0109
v  -0.0254 0.0008 0.0019
v  -0.0251 0.0008 0.0021
v  -0.0248 0.0008 0.0020
v  -0.0242 0.0008 0.0010
v  -0.0237 0.0009 -0.0040
v  -0.0409 0.0006 -0.0124
v  -0.0669 0.0012 -0.0023
v  -0.0677 0.0011 -0.0004
v  -0.0259 0.0008 0.0023
v  -0.0252 0.0005 -0.0120
v  -0.0236 -0.0003 0.0017
v  -0.0242 -0.0003 0.0010
v  -0.0237 -0.0002 -0.0040
v  -0.0223 -0.0002 -0.0053
v  -0.0248 -0.0003 0.0020
v  -0.0251 -0.0003 0.0021
v  -0.0254 -0.0003 0.0019
v  -0.0243 -0.0001 -0.0109
v  -0.0241 0.0002 -0.0109
v  -0.0238 -0.0002 -0.0068
v  -0.0223 0.0009 -0.0053
v  -0.0259 -0.0003 0.0023
v  -0.0677 0.0000 -0.0004
v  -0.0669 0.0000 -0.0024
v  -0.0409 0.0003 -0.0124
v  -0.0253 0.0002 -0.0120
v  -0.0686 0.0001 -0.0028
v  -0.0569 0.0004 -0.0123
v  -0.0749 0.0001 -0.0010
v  -0.1085 0.0006 -0.0044
v  -0.1084 0.0007 -0.0052
v  -0.1077 0.0007 -0.0069
v  -0.1060 0.0007 -0.0078
v  -0.0912 0.0006 -0.0098
v  -0.0745 0.0001 -0.0021
v  -0.0912 0.0009 -0.0098
v  -0.1060 0.0010 -0.0078
v  -0.1077 0.0010 -0.0069
v  -0.1084 0.0010 -0.0052
v  -0.1085 0.0010 -0.0044
v  -0.0749 0.0012 -0.0010
v  -0.0745 0.0012 -0.0021
v  -0.0725 0.0001 -0.0039
v  -0.0753 0.0005 -0.0114
v  -0.0725 0.0012 -0.0039
v  -0.0753 0.0008 -0.0114
v  -0.0686 0.0012 -0.0028
v  -0.0569 0.0007 -0.0123
v  -0.0236 0.0008 0.0017
v  -0.0233 -0.0002 -0.0058
v  -0.0233 0.0009 -0.0058
v  -0.0245 0.0002 -0.0116
v  -0.0245 0.0005 -0.0116
v  -0.0242 -0.0003 0.0018
v  -0.0242 0.0008 0.0018
v  -0.0018 -0.0002 -0.0171
v  0.0052 -0.0003 -0.0165
v  0.0052 0.0009 -0.0165
v  -0.0018 0.0009 -0.0171
v  0.0072 0.0010 -0.0237
v  0.0114 0.0004 -0.0241
v  0.0114 0.0010 -0.0243
v  -0.0014 0.0011 -0.0254
v  -0.0016 0.0011 -0.0250
v  -0.0015 0.0010 -0.0248
v  -0.0005 0.0010 -0.0241
v  0.0045 0.0010 -0.0237
v  0.0124 0.0004 -0.0252
v  0.0129 0.0006 -0.0408
v  0.0028 0.0016 -0.0668
v  0.0009 0.0016 -0.0676
v  -0.0018 0.0011 -0.0258
v  -0.0013 -0.0001 -0.0235
v  -0.0005 -0.0001 -0.0241
v  0.0045 -0.0002 -0.0237
v  0.0057 -0.0002 -0.0222
v  -0.0017 -0.0001 -0.0250
v  -0.0014 -0.0001 -0.0254
v  0.0113 -0.0002 -0.0243
v  0.0072 -0.0002 -0.0237
v  0.0114 0.0001 -0.0241
v  -0.0015 -0.0001 -0.0248
v  0.0057 0.0010 -0.0222
v  -0.0018 -0.0001 -0.0259
v  0.0009 0.0004 -0.0676
v  0.0028 0.0004 -0.0668
v  0.0128 0.0003 -0.0408
v  0.0124 0.0001 -0.0252
v  0.0033 0.0004 -0.0685
v  0.0128 0.0005 -0.0568
v  0.0015 0.0005 -0.0747
v  0.0049 0.0012 -0.1083
v  0.0057 0.0012 -0.1082
v  0.0074 0.0012 -0.1074
v  0.0082 0.0012 -0.1058
v  0.0102 0.0010 -0.0910
v  0.0025 0.0005 -0.0743
v  0.0102 0.0013 -0.0910
v  0.0082 0.0015 -0.1058
v  0.0074 0.0016 -0.1074
v  0.0057 0.0016 -0.1082
v  0.0049 0.0016 -0.1083
v  0.0015 0.0017 -0.0747
v  0.0025 0.0017 -0.0743
v  0.0044 0.0005 -0.0724
v  0.0118 0.0008 -0.0751
v  0.0044 0.0016 -0.0724
v  0.0118 0.0011 -0.0751
v  0.0033 0.0016 -0.0684
v  0.0128 0.0008 -0.0568
v  -0.0013 0.0010 -0.0235
v  0.0062 -0.0002 -0.0232
v  0.0062 0.0010 -0.0232
v  0.0121 0.0001 -0.0245
v  0.0121 0.0004 -0.0244
v  -0.0013 -0.0001 -0.0242
v  -0.0013 0.0010 -0.0242
v  0.0176 -0.0006 -0.0018
v  0.0169 -0.0007 0.0052
v  0.0169 0.0006 0.0052
v  0.0176 0.0006 -0.0018
v  0.0247 0.0004 0.0113
v  0.0258 0.0006 -0.0014
v  0.0254 0.0006 -0.0016
v  0.0245 0.0006 -0.0005
v  0.0252 0.0006 -0.0015
v  0.0245 -0.0001 0.0113
v  0.0241 0.0005 0.0072
v  0.0241 0.0005 0.0045
v  0.0256 -0.0002 0.0124
v  0.0412 -0.0003 0.0128
v  0.0671 0.0002 0.0028
v  0.0679 0.0003 0.0009
v  0.0263 0.0006 -0.0018
v  0.0239 -0.0006 -0.0013
v  0.0245 -0.0007 -0.0005
v  0.0241 -0.0007 0.0045
v  0.0226 -0.0007 0.0057
v  0.0252 -0.0006 -0.0015
v  0.0254 -0.0006 -0.0017
v  0.0258 -0.0006 -0.0014
v  0.0245 -0.0005 0.0113
v  0.0247 -0.0008 0.0113
v  0.0241 -0.0008 0.0072
v  0.0226 0.0005 0.0057
v  0.0263 -0.0006 -0.0018
v  0.0679 -0.0010 0.0008
v  0.0671 -0.0010 0.0028
v  0.0412 -0.0006 0.0128
v  0.0256 -0.0005 0.0124
v  0.0688 -0.0010 0.0033
v  0.0571 -0.0007 0.0127
v  0.0750 -0.0010 0.0014
v  0.1085 -0.0010 0.0049
v  0.1084 -0.0010 0.0057
v  0.1076 -0.0010 0.0073
v  0.1060 -0.0010 0.0082
v  0.0913 -0.0009 0.0102
v  0.0746 -0.0010 0.0025
v  0.0913 -0.0006 0.0102
v  0.1060 -0.0006 0.0082
v  0.1076 -0.0006 0.0073
v  0.1084 -0.0006 0.0057
v  0.1085 -0.0006 0.0049
v  0.0750 0.0002 0.0015
v  0.0746 0.0002 0.0025
v  0.0727 -0.0010 0.0043
v  0.0754 -0.0008 0.0118
v  0.0727 0.0002 0.0044
v  0.0754 -0.0005 0.0118
v  0.0688 0.0002 0.0033
v  0.0571 -0.0004 0.0127
v  0.0239 0.0006 -0.0012
v  0.0236 -0.0007 0.0062
v  0.0236 0.0005 0.0062
v  0.0249 -0.0005 0.0120
v  0.0249 -0.0001 0.0121
v  0.0246 -0.0006 -0.0013
v  0.0246 0.0006 -0.0013
v  0.0023 -0.0008 0.0175
v  -0.0048 -0.0007 0.0169
v  -0.0048 0.0006 0.0169
v  0.0023 0.0005 0.0175
v  -0.0067 0.0005 0.0241
v  -0.0109 -0.0001 0.0244
v  -0.0108 0.0005 0.0246
v  0.0019 0.0004 0.0257
v  0.0021 0.0004 0.0254
v  0.0020 0.0004 0.0251
v  0.0010 0.0004 0.0245
v  -0.0040 0.0005 0.0241
v  -0.0119 -0.0001 0.0255
v  -0.0123 -0.0003 0.0411
v  -0.0023 -0.0001 0.0669
v  -0.0004 -0.0001 0.0677
v  0.0023 0.0004 0.0262
v  0.0017 -0.0009 0.0239
v  0.0010 -0.0009 0.0245
v  -0.0040 -0.0008 0.0240
v  -0.0053 -0.0008 0.0226
v  0.0021 -0.0009 0.0254
v  0.0019 -0.0009 0.0257
v  -0.0109 -0.0008 0.0246
v  -0.0067 -0.0008 0.0240
v  -0.0109 -0.0004 0.0244
v  0.0020 -0.0009 0.0251
v  -0.0053 0.0005 0.0226
v  0.0023 -0.0009 0.0262
v  -0.0004 -0.0014 0.0677
v  -0.0023 -0.0014 0.0669
v  -0.0123 -0.0007 0.0411
v  -0.0119 -0.0004 0.0255
v  -0.0028 -0.0014 0.0686
v  -0.0123 -0.0009 0.0570
v  -0.0010 -0.0015 0.0749
v  -0.0044 -0.0016 0.1083
v  -0.0052 -0.0016 0.1082
v  -0.0069 -0.0016 0.1074
v  -0.0077 -0.0015 0.1058
v  -0.0097 -0.0013 0.0911
v  -0.0021 -0.0015 0.0744
v  -0.0097 -0.0010 0.0911
v  -0.0077 -0.0012 0.1058
v  -0.0069 -0.0012 0.1074
v  -0.0052 -0.0012 0.1082
v  -0.0044 -0.0012 0.1083
v  -0.0010 -0.0002 0.0749
v  -0.0021 -0.0002 0.0744
v  -0.0039 -0.0015 0.0725
v  -0.0113 -0.0011 0.0753
v  -0.0039 -0.0002 0.0725
v  -0.0113 -0.0007 0.0753
v  -0.0028 -0.0001 0.0686
v  -0.0123 -0.0005 0.0570
v  0.0017 0.0004 0.0239
v  -0.0057 -0.0008 0.0236
v  -0.0057 0.0005 0.0236
v  -0.0116 -0.0004 0.0248
v  -0.0116 -0.0001 0.0248
v  0.0018 -0.0009 0.0245
v  0.0018 0.0004 0.0245
v  0.0004 -0.0019 -0.0183
v  -0.0028 -0.0019 -0.0181
v  -0.0029 0.0140 -0.0181
v  0.0003 0.0140 -0.0183
v  -0.0060 -0.0019 -0.0173
v  -0.0061 0.0140 -0.0173
v  -0.0089 -0.0019 -0.0160
v  -0.0090 0.0139 -0.0159
v  -0.0116 -0.0020 -0.0142
v  -0.0117 0.0139 -0.0141
v  -0.0139 -0.0020 -0.0119
v  -0.0140 0.0139 -0.0118
v  -0.0158 -0.0020 -0.0092
v  -0.0159 0.0139 -0.0091
v  -0.0171 -0.0020 -0.0062
v  -0.0172 0.0138 -0.0062
v  -0.0179 -0.0021 -0.0031
v  -0.0180 0.0138 -0.0030
v  -0.0181 -0.0021 0.0002
v  -0.0182 0.0138 0.0002
v  -0.0178 -0.0021 0.0034
v  -0.0179 0.0138 0.0035
v  -0.0169 -0.0021 0.0065
v  -0.0170 0.0138 0.0066
v  -0.0154 -0.0021 0.0094
v  -0.0155 0.0138 0.0095
v  -0.0134 -0.0021 0.0120
v  -0.0135 0.0138 0.0121
v  -0.0110 -0.0021 0.0142
v  -0.0111 0.0138 0.0142
v  -0.0083 -0.0021 0.0159
v  -0.0084 0.0138 0.0160
v  -0.0053 -0.0021 0.0171
v  -0.0054 0.0138 0.0172
v  -0.0021 -0.0020 0.0178
v  -0.0022 0.0138 0.0179
v  0.0012 -0.0020 0.0179
v  0.0011 0.0139 0.0179
v  0.0044 -0.0020 0.0174
v  0.0043 0.0139 0.0174
v  0.0074 -0.0020 0.0163
v  0.0073 0.0139 0.0164
v  0.0103 -0.0019 0.0147
v  0.0102 0.0139 0.0148
v  0.0128 -0.0019 0.0126
v  0.0127 0.0140 0.0127
v  0.0149 -0.0019 0.0101
v  0.0148 0.0140 0.0102
v  0.0165 -0.0019 0.0073
v  0.0164 0.0140 0.0074
v  0.0175 -0.0019 0.0042
v  0.0174 0.0140 0.0043
v  0.0181 -0.0018 0.0010
v  0.0180 0.0140 0.0011
v  0.0180 -0.0018 -0.0022
v  0.0179 0.0141 -0.0021
v  0.0173 -0.0018 -0.0054
v  0.0172 0.0141 -0.0053
v  0.0161 -0.0018 -0.0084
v  0.0160 0.0141 -0.0084
v  0.0144 -0.0018 -0.0112
v  0.0143 0.0141 -0.0111
v  0.0122 -0.0018 -0.0136
v  0.0121 0.0141 -0.0135
v  0.0096 -0.0018 -0.0155
v  0.0095 0.0141 -0.0155
v  0.0068 -0.0018 -0.0170
v  0.0067 0.0140 -0.0170
v  0.0035 0.0140 -0.0179
v  0.0036 -0.0018 -0.0180
v  -0.0132 -0.0027 0.0080
v  -0.0115 -0.0027 0.0103
v  0.0155 -0.0025 0.0009
v  0.0155 -0.0042 0.0008
v  0.0155 -0.0042 -0.0019
v  0.0154 -0.0025 -0.0019
v  0.0088 -0.0026 0.0126
v  0.0110 -0.0026 0.0108
v  0.0124 -0.0025 -0.0096
v  0.0105 -0.0025 -0.0117
v  -0.0154 -0.0027 -0.0027
v  -0.0156 -0.0027 0.0001
v  -0.0018 -0.0027 0.0152
v  0.0010 -0.0027 0.0153
v  -0.0100 -0.0026 -0.0122
v  -0.0119 -0.0026 -0.0102
v  -0.0095 -0.0027 0.0121
v  0.0128 -0.0026 0.0087
v  0.0004 -0.0025 -0.0158
v  -0.0024 -0.0026 -0.0156
v  0.0083 -0.0025 -0.0134
v  -0.0153 -0.0027 0.0029
v  0.0038 -0.0027 0.0149
v  0.0149 -0.0025 -0.0047
v  -0.0135 -0.0027 -0.0079
v  -0.0071 -0.0027 0.0136
v  0.0141 -0.0025 0.0062
v  0.0058 -0.0025 -0.0147
v  -0.0051 -0.0026 -0.0149
v  -0.0145 -0.0027 0.0055
v  0.0064 -0.0026 0.0140
v  0.0139 -0.0025 -0.0073
v  -0.0147 -0.0027 -0.0054
v  -0.0045 -0.0027 0.0147
v  0.0151 -0.0025 0.0036
v  0.0031 -0.0025 -0.0155
v  -0.0077 -0.0026 -0.0138
v  0.0004 -0.0042 -0.0158
v  0.0031 -0.0042 -0.0155
v  0.0058 -0.0042 -0.0147
v  0.0083 -0.0042 -0.0134
v  0.0105 -0.0042 -0.0117
v  0.0124 -0.0042 -0.0096
v  0.0139 -0.0042 -0.0073
v  0.0149 -0.0042 -0.0047
v  0.0151 -0.0042 0.0036
v  0.0141 -0.0042 0.0062
v  0.0128 -0.0043 0.0087
v  0.0110 -0.0043 0.0108
v  0.0088 -0.0043 0.0126
v  0.0064 -0.0043 0.0139
v  0.0038 -0.0043 0.0149
v  0.0010 -0.0044 0.0153
v  -0.0018 -0.0044 0.0152
v  -0.0045 -0.0044 0.0147
v  -0.0071 -0.0044 0.0136
v  -0.0094 -0.0044 0.0121
v  -0.0115 -0.0044 0.0102
v  -0.0132 -0.0044 0.0080
v  -0.0145 -0.0044 0.0055
v  -0.0153 -0.0044 0.0029
v  -0.0156 -0.0044 0.0001
v  -0.0154 -0.0044 -0.0027
v  -0.0147 -0.0044 -0.0054
v  -0.0135 -0.0044 -0.0079
v  -0.0119 -0.0043 -0.0102
v  -0.0100 -0.0043 -0.0122
v  -0.0077 -0.0043 -0.0138
v  -0.0051 -0.0043 -0.0149
v  -0.0024 -0.0042 -0.0156
# 388 vertices

vn 0.9947 -0.0491 0.0906
vn 0.9340 0.3572 0.0033
vn 0.8889 0.4537 -0.0626
vn -0.8930 -0.4483 -0.0397
vn -0.8532 -0.5170 -0.0683
vn 0.0866 -0.0021 -0.9962
vn -0.8912 -0.4431 -0.0969
vn 0.9940 -0.0487 -0.0976
vn -0.8865 -0.4460 -0.1231
vn -0.8940 -0.4395 -0.0875
vn 0.8859 0.4615 -0.0477
vn -0.9947 0.0491 -0.0906
vn -0.8849 -0.4444 -0.1396
vn -0.8900 -0.4377 -0.1278
vn 0.8805 0.4583 -0.1212
vn 0.8857 0.4441 -0.1355
vn 0.8894 0.4447 -0.1062
vn -0.0912 0.0067 -0.9958
vn -0.0461 0.0045 -0.9989
vn -0.0009 0.0022 -1.0000
vn 0.8930 0.4483 0.0397
vn -0.0830 0.0019 0.9965
vn -0.8930 -0.4483 -0.0396
vn 0.8930 0.4483 0.0396
vn -0.1009 0.0028 0.9949
vn 0.8889 -0.0428 -0.4560
vn 0.4210 -0.0187 -0.9069
vn -0.0653 0.0010 0.9979
vn 0.8221 -0.1513 -0.5489
vn -0.2321 -0.3164 -0.9198
vn 0.6224 0.1369 -0.7706
vn 0.9056 0.0073 -0.4240
vn 0.3794 -0.0166 -0.9251
vn 0.8841 -0.0425 -0.4653
vn 0.0320 0.0006 -0.9995
vn -0.8930 -0.4482 -0.0397
vn 0.8930 0.4482 0.0396
vn 0.0715 -0.0057 0.9974
vn 0.3010 -0.0169 0.9535
vn -0.0866 0.0021 0.9962
vn 0.1978 -0.0119 0.9802
vn 0.4498 -0.0241 0.8928
vn -0.8949 0.0450 -0.4440
vn -0.4500 0.0241 -0.8927
vn -0.1241 0.0083 -0.9922
vn 0.8624 0.4145 0.2905
vn 0.9133 0.4068 0.0227
vn -0.8829 -0.4546 0.1180
vn 0.9947 -0.0492 0.0906
vn -0.8786 -0.4749 -0.0507
vn 0.0852 -0.0064 0.9963
vn -0.8720 -0.4879 -0.0405
vn -0.8803 -0.4704 -0.0610
vn 0.9108 0.4128 0.0063
vn -0.8670 -0.4965 -0.0429
vn -0.8690 -0.4908 -0.0630
vn 0.9225 0.3860 0.0066
vn 0.9245 0.3796 0.0350
vn 0.9200 0.3900 0.0382
vn 0.9934 -0.0487 -0.1042
vn 0.9973 -0.0490 -0.0549
vn 0.9988 -0.0491 -0.0054
vn -0.9950 0.0492 -0.0867
vn -0.9931 0.0491 -0.1063
vn 0.4210 -0.0227 0.9068
vn 0.8913 -0.0449 0.4512
vn -0.9965 0.0492 -0.0672
vn 0.2846 -0.1114 0.9522
vn 0.5047 -0.5861 0.6339
vn 0.9437 0.0969 0.3164
vn 0.4997 0.0225 0.8659
vn 0.9121 -0.0458 0.4074
vn 0.4301 -0.0231 0.9025
vn 0.9983 -0.0492 0.0308
vn -0.8930 -0.4483 -0.0395
vn -0.8930 -0.4483 -0.0398
vn -0.9954 0.0488 0.0827
vn -0.9428 0.0457 0.3303
vn -0.8931 -0.4482 -0.0395
vn -0.9744 0.0475 0.2199
vn -0.8731 0.0419 0.4857
vn 0.4141 -0.0184 -0.9100
vn 0.8730 -0.0419 -0.4859
vn 0.9890 -0.0484 -0.1400
vn -0.9947 0.0492 -0.0906
vn 0.7973 0.5949 0.1020
vn 0.8870 0.4372 0.1488
vn -0.9220 -0.3868 -0.0149
vn -0.8915 -0.4523 0.0251
vn -0.9940 0.0487 0.0976
vn -0.8929 -0.4471 0.0534
vn -0.8893 -0.4570 0.0153
vn 0.8930 0.4307 0.1304
vn 0.9947 -0.0492 0.0907
vn -0.8915 -0.4472 0.0722
vn -0.8878 -0.4560 0.0620
vn 0.8814 0.4254 0.2054
vn 0.8697 0.4370 0.2296
vn 0.8750 0.4412 0.1992
vn 0.0912 -0.0067 0.9958
vn 0.0461 -0.0045 0.9989
vn 0.0009 -0.0022 1.0000
vn 0.0830 -0.0019 -0.9965
vn 0.1009 -0.0028 -0.9949
vn -0.8889 0.0428 0.4560
vn -0.4210 0.0187 0.9069
vn 0.0653 -0.0010 -0.9979
vn -0.9149 -0.0324 0.4024
vn -0.7073 -0.1990 0.6783
vn -0.0615 0.1853 0.9807
vn -0.8567 0.0950 0.5069
vn -0.3794 0.0166 0.9251
vn -0.8840 0.0425 0.4655
vn -0.0320 -0.0006 0.9995
vn 0.8930 0.4482 0.0397
vn -0.0715 0.0057 -0.9974
vn -0.3010 0.0169 -0.9535
vn -0.1978 0.0119 -0.9802
vn -0.4498 0.0241 -0.8928
vn 0.8949 -0.0450 0.4440
vn 0.4500 -0.0241 0.8927
vn 0.1241 -0.0083 0.9922
vn 0.8535 0.4503 -0.2624
vn 0.8626 0.5020 0.0621
vn -0.8796 -0.4295 -0.2046
vn -0.9065 -0.4212 -0.0286
vn -0.0852 0.0064 -0.9963
vn -0.9114 -0.4098 -0.0387
vn -0.9049 -0.4253 -0.0179
vn 0.8664 0.4924 0.0827
vn -0.9146 -0.4027 -0.0366
vn -0.9132 -0.4072 -0.0177
vn 0.8398 0.5357 0.0883
vn 0.8347 0.5488 0.0463
vn 0.8471 0.5298 0.0414
vn -0.9934 0.0487 0.1042
vn -0.9973 0.0490 0.0549
vn -0.9988 0.0491 0.0054
vn 0.9950 -0.0492 0.0867
vn 0.9931 -0.0491 0.1063
vn -0.8930 -0.4483 -0.0399
vn -0.4210 0.0227 -0.9068
vn -0.8913 0.0449 -0.4512
vn 0.9965 -0.0492 0.0672
vn -0.5352 -0.0468 -0.8434
vn -0.9483 -0.1493 -0.2800
vn -0.8030 0.2742 -0.5291
vn -0.3585 0.0677 -0.9311
vn -0.9121 0.0458 -0.4074
vn -0.4301 0.0231 -0.9025
vn -0.9983 0.0492 -0.0308
vn 0.9954 -0.0488 -0.0827
vn 0.9427 -0.0457 -0.3304
vn 0.8930 0.4483 0.0398
vn 0.9744 -0.0475 -0.2200
vn 0.8732 -0.0419 -0.4856
vn -0.4141 0.0184 0.9100
vn -0.8730 0.0419 0.4858
vn -0.9890 0.0484 0.1400
vn 0.0460 -0.0015 -0.9989
vn -0.1262 0.0066 -0.9920
vn -0.1685 0.0086 -0.9857
vn 0.0026 0.0006 -1.0000
vn -0.2960 0.0146 -0.9551
vn -0.3350 0.0164 -0.9421
vn -0.4586 0.0222 -0.8883
vn -0.4924 0.0237 -0.8700
vn -0.6093 0.0292 -0.7924
vn -0.6363 0.0304 -0.7709
vn -0.7427 0.0353 -0.6687
vn -0.7618 0.0362 -0.6467
vn -0.8531 0.0404 -0.5202
vn -0.8646 0.0409 -0.5008
vn -0.9353 0.0442 -0.3510
vn -0.9404 0.0444 -0.3373
vn -0.9848 0.0463 -0.1674
vn -0.9858 0.0464 -0.1616
vn -0.9986 0.0469 0.0232
vn -0.9987 0.0469 0.0199
vn -0.9760 0.0457 0.2127
vn -0.9786 0.0458 0.2007
vn -0.9185 0.0428 0.3931
vn -0.9264 0.0432 0.3742
vn -0.8294 0.0385 0.5573
vn -0.8444 0.0393 0.5342
vn -0.7136 0.0330 0.6998
vn -0.7364 0.0341 0.6757
vn -0.5763 0.0265 0.8168
vn -0.6066 0.0279 0.7945
vn -0.4230 0.0192 0.9059
vn -0.4595 0.0209 0.8880
vn -0.2589 0.0115 0.9658
vn -0.2997 0.0134 0.9539
vn -0.0887 0.0035 0.9961
vn -0.1317 0.0055 0.9913
vn 0.0833 -0.0046 0.9965
vn 0.0401 -0.0026 0.9992
vn 0.2526 -0.0125 0.9675
vn 0.2117 -0.0106 0.9773
vn 0.4151 -0.0201 0.9095
vn 0.3785 -0.0184 0.9254
vn 0.5663 -0.0272 0.8237
vn 0.5358 -0.0257 0.8439
vn 0.7016 -0.0334 0.7118
vn 0.6785 -0.0324 0.7339
vn 0.8164 -0.0387 0.5763
vn 0.8011 -0.0380 0.5973
vn 0.9061 -0.0428 0.4209
vn 0.8981 -0.0425 0.4378
vn 0.9670 -0.0456 0.2506
vn 0.9644 -0.0455 0.2606
vn 0.9964 -0.0468 0.0712
vn 0.9963 -0.0468 0.0725
vn 0.9928 -0.0465 -0.1108
vn 0.9919 -0.0465 -0.1186
vn 0.9564 -0.0447 -0.2888
vn 0.9515 -0.0444 -0.3045
vn 0.8889 -0.0414 -0.4562
vn 0.8776 -0.0409 -0.4776
vn 0.7934 -0.0368 -0.6075
vn 0.7745 -0.0359 -0.6315
vn 0.6739 -0.0311 -0.7381
vn 0.6472 -0.0298 -0.7617
vn 0.5349 -0.0245 -0.8446
vn 0.5013 -0.0229 -0.8650
vn 0.3809 -0.0172 -0.9245
vn 0.3420 -0.0154 -0.9396
vn 0.8849 0.4657 0.0134
vn 0.2165 -0.0095 -0.9762
vn 0.1743 -0.0075 -0.9847
vn -0.9329 -0.2642 0.2446
vn -0.9303 -0.2651 0.2534
vn -0.9025 -0.2748 0.3316
vn -0.9065 -0.2734 0.3217
vn -0.4892 -0.5256 0.6960
vn -0.4870 -0.5280 0.6958
vn -0.4232 -0.6036 0.6757
vn -0.4243 -0.6021 0.6763
vn -0.3662 -0.6568 -0.6592
vn -0.3654 -0.6581 -0.6583
vn -0.4269 -0.5721 -0.7003
vn -0.4288 -0.5698 -0.7010
vn -0.9641 -0.2529 -0.0810
vn -0.9639 -0.2530 -0.0830
vn -0.9677 -0.2522 0.0024
vn -0.9677 -0.2522 0.0013
vn -0.7349 -0.3461 0.5833
vn -0.7283 -0.3495 0.5895
vn -0.6723 -0.3807 0.6349
vn -0.6782 -0.3771 0.6307
vn -0.2363 -0.9684 0.0802
vn -0.2363 -0.9684 0.0803
vn -0.2375 -0.9522 -0.1924
vn -0.2374 -0.9523 -0.1919
vn -0.8755 -0.2804 -0.3936
vn -0.8705 -0.2821 -0.4033
vn -0.9049 -0.2706 -0.3287
vn -0.9084 -0.2694 -0.3197
vn -0.8678 -0.2876 0.4052
vn -0.8731 -0.2856 0.3952
vn -0.3615 -0.6964 0.6200
vn -0.3619 -0.6958 0.6204
vn -0.6823 -0.3640 -0.6340
vn -0.6755 -0.3677 -0.6391
vn -0.7315 -0.3389 -0.5917
vn -0.7386 -0.3356 -0.5847
vn -0.4905 -0.5028 -0.7117
vn -0.4938 -0.4998 -0.7116
vn -0.9632 -0.2539 0.0878
vn -0.9636 -0.2538 0.0835
vn -0.6128 -0.4194 0.6698
vn -0.6177 -0.4159 0.6674
vn -0.2641 -0.8687 -0.4191
vn -0.2641 -0.8688 -0.4188
vn -0.9322 -0.2620 -0.2497
vn -0.9343 -0.2614 -0.2423
vn -0.8268 -0.3039 0.4734
vn -0.8330 -0.3013 0.4641
vn -0.3056 -0.8033 0.5112
vn -0.3055 -0.8033 0.5112
vn -0.5541 -0.4475 -0.7019
vn -0.5587 -0.4439 -0.7005
vn -0.7831 -0.3157 -0.5358
vn -0.7900 -0.3128 -0.5273
vn -0.9507 -0.2582 0.1718
vn -0.9520 -0.2578 0.1649
vn -0.5507 -0.4676 0.6915
vn -0.5542 -0.4646 0.6907
vn -0.3093 -0.7604 -0.5710
vn -0.3095 -0.7601 -0.5714
vn -0.9520 -0.2562 -0.1675
vn -0.9529 -0.2559 -0.1625
vn -0.7800 -0.3242 0.5352
vn -0.7867 -0.3212 0.5272
vn -0.2611 -0.9068 0.3309
vn -0.2611 -0.9070 0.3305
vn -0.6161 -0.4033 -0.6766
vn -0.6220 -0.3995 -0.6734
vn -0.8297 -0.2970 -0.4727
vn -0.8358 -0.2947 -0.4632
vn -0.8849 -0.4657 -0.0134
vn -0.6066 0.0279 0.7946
vn -0.6362 0.0304 -0.7709
vn 0.6473 -0.0298 -0.7617
vn -0.8531 0.0404 -0.5201
vn -0.9858 0.0464 -0.1617
vn -0.9263 0.0432 0.3742
# 307 vertex normals

vt 0.3671 0.2550 0.0000
vt 0.3445 0.2550 0.0000
vt 0.3445 0.2776 0.0000
vt 0.3671 0.2776 0.0000
vt 1.6206 0.6367 0.0000
vt 1.6035 0.6394 0.0000
vt 1.6039 0.6401 0.0000
vt 1.6563 0.6413 0.0000
vt 1.6571 0.6398 0.0000
vt 1.6565 0.6389 0.0000
vt 1.6523 0.6364 0.0000
vt 1.6317 0.6360 0.0000
vt 1.6018 0.7081 0.0000
vt 1.6500 0.8114 0.0000
vt 1.6581 0.8141 0.0000
vt 1.6581 0.6431 0.0000
vt 1.5996 0.6441 0.0000
vt 1.6848 0.9815 0.0000
vt 1.7138 0.9808 0.0000
vt 1.7132 0.9547 0.0000
vt 1.7103 0.9519 0.0000
vt 1.6897 0.9524 0.0000
vt 1.6843 0.9581 0.0000
vt 1.7146 0.9495 0.0000
vt 1.7152 0.9485 0.0000
vt 1.7143 0.9471 0.0000
vt 1.6619 0.9482 0.0000
vt 1.6618 0.9490 0.0000
vt 1.6787 0.9517 0.0000
vt 0.0219 0.3013 0.0000
vt 0.0400 0.3013 0.0000
vt 0.0400 0.2787 0.0000
vt 0.0219 0.2787 0.0000
vt 1.7161 0.9452 0.0000
vt 1.7161 0.7742 0.0000
vt 1.7080 0.7770 0.0000
vt 1.6601 0.8802 0.0000
vt 1.6579 0.9442 0.0000
vt 0.0168 0.1758 0.0000
vt 0.0038 0.1816 0.0000
vt 0.0038 0.1882 0.0000
vt 0.0168 0.1984 0.0000
vt 1.7064 0.7699 0.0000
vt 1.6646 0.8151 0.0000
vt 1.7156 0.7448 0.0000
vt 1.7104 0.6069 0.0000
vt 1.7071 0.6070 0.0000
vt 1.7001 0.6098 0.0000
vt 1.6961 0.6162 0.0000
vt 1.6841 0.6760 0.0000
vt 1.7110 0.7463 0.0000
vt 1.6257 0.9123 0.0000
vt 1.6378 0.9721 0.0000
vt 1.6417 0.9785 0.0000
vt 1.6488 0.9813 0.0000
vt 1.6521 0.9814 0.0000
vt 1.6575 0.8436 0.0000
vt 1.6530 0.8421 0.0000
vt 0.0301 0.2395 0.0000
vt 0.0301 0.2421 0.0000
vt 0.0367 0.2421 0.0000
vt 0.0367 0.2395 0.0000
vt 1.7031 0.7536 0.0000
vt 1.6734 0.7404 0.0000
vt 1.6450 0.8347 0.0000
vt 1.6151 0.8479 0.0000
vt 1.6484 0.8184 0.0000
vt 1.6063 0.7732 0.0000
vt 1.6345 0.3917 0.0000
vt 1.6345 0.4426 0.0000
vt 1.6410 0.4426 0.0000
vt 1.6411 0.3917 0.0000
vt 1.6344 0.5014 0.0000
vt 1.6410 0.5014 0.0000
vt 1.6345 0.5523 0.0000
vt 1.6410 0.5523 0.0000
vt 1.6551 0.6337 0.0000
vt 1.6557 0.6075 0.0000
vt 1.6268 0.6069 0.0000
vt 1.6263 0.6303 0.0000
vt 0.8316 0.7399 0.0000
vt 0.8316 0.7627 0.0000
vt 0.8542 0.7627 0.0000
vt 0.8542 0.7399 0.0000
vt 0.8418 0.8694 0.0000
vt 0.8484 0.8694 0.0000
vt 1.6826 0.9539 0.0000
vt 1.6246 0.6345 0.0000
vt 0.0198 0.1984 0.0000
vt 0.0198 0.1758 0.0000
vt 0.0431 0.2787 0.0000
vt 0.0431 0.3013 0.0000
vt 0.8316 0.6070 0.0000
vt 0.8542 0.6070 0.0000
vt 0.0039 0.1757 0.0000
vt 0.0016 0.1816 0.0000
vt 1.6411 0.6045 0.0000
vt 1.6469 0.6050 0.0000
vt 1.6411 0.6022 0.0000
vt 1.6345 0.6022 0.0000
vt 1.6243 0.6050 0.0000
vt 1.6345 0.6045 0.0000
vt 0.0016 0.1882 0.0000
vt 0.0039 0.1983 0.0000
vt 1.7135 0.9520 0.0000
vt 1.6555 0.6364 0.0000
vt 0.8316 0.5994 0.0000
vt 0.8316 0.6015 0.0000
vt 0.8542 0.6015 0.0000
vt 0.8542 0.5994 0.0000
vt 0.8316 0.6035 0.0000
vt 0.8542 0.6035 0.0000
vt 0.8542 0.5791 0.0000
vt 0.8316 0.5791 0.0000
vt 0.8316 0.6043 0.0000
vt 0.8542 0.6043 0.0000
vt 0.0367 0.2342 0.0000
vt 0.0301 0.2342 0.0000
vt 1.6345 0.3389 0.0000
vt 1.6345 0.3442 0.0000
vt 1.6411 0.3442 0.0000
vt 1.6411 0.3389 0.0000
vt 0.3192 0.3124 0.0000
vt 0.3447 0.3124 0.0000
vt 0.3447 0.2854 0.0000
vt 0.3192 0.2854 0.0000
vt 1.6207 0.6372 0.0000
vt 1.6038 0.6402 0.0000
vt 1.6039 0.6406 0.0000
vt 1.6562 0.6418 0.0000
vt 1.6571 0.6403 0.0000
vt 1.6565 0.6393 0.0000
vt 1.6522 0.6369 0.0000
vt 1.6317 0.6364 0.0000
vt 1.5999 0.6449 0.0000
vt 1.6021 0.7088 0.0000
vt 1.6499 0.8114 0.0000
vt 1.6580 0.8142 0.0000
vt 1.6580 0.6436 0.0000
vt 1.6849 0.9812 0.0000
vt 1.7138 0.9805 0.0000
vt 1.7132 0.9544 0.0000
vt 1.7103 0.9517 0.0000
vt 1.6898 0.9522 0.0000
vt 1.6844 0.9579 0.0000
vt 1.7152 0.9483 0.0000
vt 1.7143 0.9468 0.0000
vt 1.6620 0.9480 0.0000
vt 1.6787 0.9514 0.0000
vt 1.6620 0.9488 0.0000
vt 1.7146 0.9493 0.0000
vt 0.0005 0.3004 0.0000
vt 0.0173 0.3004 0.0000
vt 0.0173 0.2785 0.0000
vt 0.0005 0.2785 0.0000
vt 1.7161 0.9450 0.0000
vt 1.7161 0.7744 0.0000
vt 1.7080 0.7771 0.0000
vt 1.6603 0.8801 0.0000
vt 1.6580 0.9440 0.0000
vt 0.0166 0.1757 0.0000
vt 0.0034 0.1819 0.0000
vt 0.0034 0.1888 0.0000
vt 0.0166 0.1995 0.0000
vt 1.7064 0.7701 0.0000
vt 1.6648 0.8152 0.0000
vt 1.7156 0.7450 0.0000
vt 1.7104 0.6074 0.0000
vt 1.7071 0.6075 0.0000
vt 1.7001 0.6103 0.0000
vt 1.6962 0.6167 0.0000
vt 1.6841 0.6764 0.0000
vt 1.7111 0.7465 0.0000
vt 1.6260 0.9124 0.0000
vt 1.6380 0.9722 0.0000
vt 1.6420 0.9786 0.0000
vt 1.6490 0.9813 0.0000
vt 1.6523 0.9814 0.0000
vt 0.0301 0.2394 0.0000
vt 0.0301 0.2420 0.0000
vt 0.0370 0.2420 0.0000
vt 0.0370 0.2394 0.0000
vt 1.7031 0.7538 0.0000
vt 1.6735 0.7406 0.0000
vt 1.6154 0.8482 0.0000
vt 1.6484 0.8185 0.0000
vt 1.6066 0.7737 0.0000
vt 1.6345 0.3943 0.0000
vt 1.6345 0.4440 0.0000
vt 1.6414 0.4440 0.0000
vt 1.6414 0.3943 0.0000
vt 1.6344 0.5018 0.0000
vt 1.6413 0.5018 0.0000
vt 1.6344 0.5523 0.0000
vt 1.6413 0.5523 0.0000
vt 1.6551 0.6342 0.0000
vt 1.6557 0.6081 0.0000
vt 1.6268 0.6074 0.0000
vt 1.6263 0.6307 0.0000
vt 0.8308 0.7400 0.0000
vt 0.8308 0.7629 0.0000
vt 0.8546 0.7629 0.0000
vt 0.8546 0.7400 0.0000
vt 0.8416 0.8698 0.0000
vt 0.8485 0.8698 0.0000
vt 1.6827 0.9537 0.0000
vt 1.6246 0.6349 0.0000
vt 0.0199 0.1995 0.0000
vt 0.0199 0.1757 0.0000
vt 0.0204 0.2785 0.0000
vt 0.0204 0.3004 0.0000
vt 0.8308 0.6070 0.0000
vt 0.8546 0.6070 0.0000
vt 0.0033 0.1757 0.0000
vt 0.0010 0.1819 0.0000
vt 1.6412 0.6045 0.0000
vt 1.6474 0.6053 0.0000
vt 1.6412 0.6020 0.0000
vt 1.6343 0.6020 0.0000
vt 1.6236 0.6053 0.0000
vt 1.6343 0.6045 0.0000
vt 0.0010 0.1888 0.0000
vt 0.0033 0.1995 0.0000
vt 1.7136 0.9518 0.0000
vt 1.6555 0.6368 0.0000
vt 0.8308 0.5994 0.0000
vt 0.8308 0.6015 0.0000
vt 0.8546 0.6015 0.0000
vt 0.8546 0.5995 0.0000
vt 0.8308 0.6035 0.0000
vt 0.8546 0.6035 0.0000
vt 0.8546 0.5791 0.0000
vt 0.8308 0.5791 0.0000
vt 0.8308 0.6043 0.0000
vt 0.8546 0.6043 0.0000
vt 0.0370 0.2342 0.0000
vt 1.6346 0.3434 0.0000
vt 1.6346 0.3482 0.0000
vt 1.6415 0.3482 0.0000
vt 1.6415 0.3434 0.0000
vt 0.0144 0.0358 0.0000
vt 0.0288 0.0357 0.0000
vt 0.0288 0.0197 0.0000
vt 0.0144 0.0197 0.0000
vt 1.6041 0.6410 0.0000
vt 1.6563 0.6421 0.0000
vt 1.6571 0.6406 0.0000
vt 1.6523 0.6373 0.0000
vt 1.6565 0.6397 0.0000
vt 1.6044 0.6403 0.0000
vt 1.6208 0.6375 0.0000
vt 1.6318 0.6368 0.0000
vt 1.6004 0.6450 0.0000
vt 1.6027 0.7088 0.0000
vt 1.6500 0.8115 0.0000
vt 1.6581 0.8142 0.0000
vt 1.6581 0.6439 0.0000
vt 1.6849 0.9804 0.0000
vt 1.7137 0.9797 0.0000
vt 1.7132 0.9537 0.0000
vt 1.7103 0.9510 0.0000
vt 1.6898 0.9514 0.0000
vt 1.6844 0.9571 0.0000
vt 1.7146 0.9486 0.0000
vt 1.7152 0.9476 0.0000
vt 1.7143 0.9461 0.0000
vt 1.6621 0.9473 0.0000
vt 1.6788 0.9507 0.0000
vt 0.0404 0.0180 0.0000
vt 0.0520 0.0180 0.0000
vt 0.0520 0.0020 0.0000
vt 0.0404 0.0020 0.0000
vt 1.7161 0.9443 0.0000
vt 1.7161 0.7740 0.0000
vt 1.7080 0.7768 0.0000
vt 1.6603 0.8796 0.0000
vt 1.6581 0.9433 0.0000
vt 0.0169 0.1748 0.0000
vt 0.0037 0.1812 0.0000
vt 0.0037 0.1885 0.0000
vt 0.0169 0.1997 0.0000
vt 1.7064 0.7697 0.0000
vt 1.6648 0.8148 0.0000
vt 1.7155 0.7447 0.0000
vt 1.6842 0.6763 0.0000
vt 1.7111 0.7462 0.0000
vt 1.6265 0.9120 0.0000
vt 1.6385 0.9716 0.0000
vt 1.6424 0.9780 0.0000
vt 1.6494 0.9808 0.0000
vt 1.6527 0.9809 0.0000
vt 1.6530 0.8420 0.0000
vt 0.0299 0.2397 0.0000
vt 0.0299 0.2423 0.0000
vt 0.0372 0.2423 0.0000
vt 0.0372 0.2397 0.0000
vt 1.7031 0.7535 0.0000
vt 1.6736 0.7404 0.0000
vt 1.6451 0.8347 0.0000
vt 1.6159 0.8479 0.0000
vt 1.6072 0.7735 0.0000
vt 1.6343 0.3926 0.0000
vt 1.6343 0.4432 0.0000
vt 1.6416 0.4432 0.0000
vt 1.6416 0.3926 0.0000
vt 1.6343 0.5018 0.0000
vt 1.6416 0.5018 0.0000
vt 1.6343 0.5525 0.0000
vt 1.6416 0.5525 0.0000
vt 1.6551 0.6345 0.0000
vt 1.6557 0.6085 0.0000
vt 1.6269 0.6079 0.0000
vt 1.6264 0.6311 0.0000
vt 0.8301 0.7392 0.0000
vt 0.8301 0.7619 0.0000
vt 0.8550 0.7619 0.0000
vt 0.8550 0.7392 0.0000
vt 0.8413 0.8682 0.0000
vt 0.8486 0.8682 0.0000
vt 1.6827 0.9529 0.0000
vt 1.6247 0.6353 0.0000
vt 0.0201 0.1998 0.0000
vt 0.0201 0.1748 0.0000
vt 0.0540 0.0020 0.0000
vt 0.0540 0.0180 0.0000
vt 0.8300 0.6069 0.0000
vt 0.8550 0.6069 0.0000
vt 0.0037 0.1748 0.0000
vt 0.0014 0.1812 0.0000
vt 1.6416 0.6045 0.0000
vt 1.6481 0.6050 0.0000
vt 1.6416 0.6022 0.0000
vt 1.6343 0.6022 0.0000
vt 1.6231 0.6050 0.0000
vt 1.6344 0.6045 0.0000
vt 0.0014 0.1885 0.0000
vt 0.0037 0.1997 0.0000
vt 1.7135 0.9510 0.0000
vt 1.6555 0.6372 0.0000
vt 0.8301 0.5993 0.0000
vt 0.8301 0.6014 0.0000
vt 0.8550 0.6014 0.0000
vt 0.8550 0.5993 0.0000
vt 0.8301 0.6034 0.0000
vt 0.8550 0.6034 0.0000
vt 0.8550 0.5792 0.0000
vt 0.8301 0.5791 0.0000
vt 0.8301 0.6042 0.0000
vt 0.8550 0.6042 0.0000
vt 0.0372 0.2342 0.0000
vt 0.0299 0.2342 0.0000
vt 1.6344 0.3400 0.0000
vt 1.6344 0.3453 0.0000
vt 1.6416 0.3453 0.0000
vt 1.6416 0.3400 0.0000
vt 0.3466 0.3146 0.0000
vt 0.3720 0.3145 0.0000
vt 0.3720 0.2847 0.0000
vt 0.3466 0.2847 0.0000
vt 1.6208 0.6380 0.0000
vt 1.6041 0.6403 0.0000
vt 1.6042 0.6414 0.0000
vt 1.6563 0.6426 0.0000
vt 1.6571 0.6411 0.0000
vt 1.6565 0.6402 0.0000
vt 1.6523 0.6378 0.0000
vt 1.6318 0.6373 0.0000
vt 1.6002 0.6451 0.0000
vt 1.6024 0.7087 0.0000
vt 1.6500 0.8116 0.0000
vt 1.6580 0.8143 0.0000
vt 1.6580 0.6444 0.0000
vt 1.6850 0.9801 0.0000
vt 1.7138 0.9794 0.0000
vt 1.7132 0.9534 0.0000
vt 1.7104 0.9507 0.0000
vt 1.6899 0.9512 0.0000
vt 1.6845 0.9569 0.0000
vt 1.7152 0.9474 0.0000
vt 1.7143 0.9459 0.0000
vt 1.6622 0.9471 0.0000
vt 1.6789 0.9505 0.0000
vt 1.6622 0.9478 0.0000
vt 1.7146 0.9483 0.0000
vt 0.2950 0.3152 0.0000
vt 0.3156 0.3152 0.0000
vt 0.3156 0.2854 0.0000
vt 0.2950 0.2854 0.0000
vt 1.7161 0.9441 0.0000
vt 1.7161 0.7741 0.0000
vt 1.7080 0.7769 0.0000
vt 1.6605 0.8794 0.0000
vt 1.6582 0.9430 0.0000
vt 0.0167 0.1746 0.0000
vt 0.0035 0.1814 0.0000
vt 0.0035 0.1890 0.0000
vt 0.0167 0.2008 0.0000
vt 1.7065 0.7699 0.0000
vt 1.6650 0.8148 0.0000
vt 1.7156 0.7449 0.0000
vt 1.7104 0.6079 0.0000
vt 1.7071 0.6080 0.0000
vt 1.7002 0.6107 0.0000
vt 1.6962 0.6171 0.0000
vt 1.6843 0.6766 0.0000
vt 1.7111 0.7464 0.0000
vt 1.6262 0.9115 0.0000
vt 1.6382 0.9709 0.0000
vt 1.6422 0.9773 0.0000
vt 1.6491 0.9801 0.0000
vt 1.6524 0.9801 0.0000
vt 0.0297 0.2394 0.0000
vt 0.0297 0.2420 0.0000
vt 0.0373 0.2420 0.0000
vt 0.0373 0.2394 0.0000
vt 1.7032 0.7537 0.0000
vt 1.6737 0.7405 0.0000
vt 1.6451 0.8348 0.0000
vt 1.6157 0.8475 0.0000
vt 1.6484 0.8186 0.0000
vt 1.6069 0.7733 0.0000
vt 1.6341 0.3931 0.0000
vt 1.6340 0.4435 0.0000
vt 1.6417 0.4435 0.0000
vt 1.6417 0.3931 0.0000
vt 1.6340 0.5019 0.0000
vt 1.6417 0.5019 0.0000
vt 1.6340 0.5525 0.0000
vt 1.6417 0.5525 0.0000
vt 1.6551 0.6350 0.0000
vt 1.6557 0.6091 0.0000
vt 1.6269 0.6084 0.0000
vt 1.6264 0.6316 0.0000
vt 0.8293 0.7393 0.0000
vt 0.8293 0.7621 0.0000
vt 0.8555 0.7621 0.0000
vt 0.8555 0.7392 0.0000
vt 0.8412 0.8692 0.0000
vt 0.8488 0.8692 0.0000
vt 1.6828 0.9527 0.0000
vt 1.6247 0.6358 0.0000
vt 0.0199 0.2008 0.0000
vt 0.0199 0.1746 0.0000
vt 0.3192 0.3152 0.0000
vt 0.8293 0.6067 0.0000
vt 0.8555 0.6066 0.0000
vt 0.0034 0.1746 0.0000
vt 0.0011 0.1814 0.0000
vt 1.6417 0.6046 0.0000
vt 1.6484 0.6052 0.0000
vt 1.6417 0.6022 0.0000
vt 1.6340 0.6022 0.0000
vt 1.6222 0.6052 0.0000
vt 1.6340 0.6046 0.0000
vt 0.0011 0.1890 0.0000
vt 0.0034 0.2008 0.0000
vt 1.7136 0.9508 0.0000
vt 1.6555 0.6377 0.0000
vt 0.8293 0.5994 0.0000
vt 0.8293 0.6015 0.0000
vt 0.8555 0.6015 0.0000
vt 0.8555 0.5994 0.0000
vt 0.8293 0.6034 0.0000
vt 0.8555 0.6034 0.0000
vt 0.8555 0.5791 0.0000
vt 0.8293 0.5791 0.0000
vt 0.8293 0.6041 0.0000
vt 0.8555 0.6041 0.0000
vt 0.0373 0.2342 0.0000
vt 0.0296 0.2342 0.0000
vt 1.6341 0.3409 0.0000
vt 1.6341 0.3461 0.0000
vt 1.6417 0.3461 0.0000
vt 1.6417 0.3409 0.0000
vt 0.4487 0.3230 0.0000
vt 0.4360 0.3230 0.0000
vt 0.4360 0.3961 0.0000
vt 0.4487 0.3961 0.0000
vt 0.3018 0.3245 0.0000
vt 0.2895 0.3245 0.0000
vt 0.2895 0.3955 0.0000
vt 0.3018 0.3955 0.0000
vt 0.2755 0.3245 0.0000
vt 0.2755 0.3955 0.0000
vt 0.2603 0.3245 0.0000
vt 0.2603 0.3955 0.0000
vt 0.2442 0.3245 0.0000
vt 0.2442 0.3955 0.0000
vt 0.2279 0.3245 0.0000
vt 0.2279 0.3955 0.0000
vt 0.2119 0.3245 0.0000
vt 0.2119 0.3955 0.0000
vt 0.1967 0.3245 0.0000
vt 0.1967 0.3955 0.0000
vt 0.1827 0.3245 0.0000
vt 0.1827 0.3955 0.0000
vt 0.1704 0.3245 0.0000
vt 0.1704 0.3955 0.0000
vt 0.4331 0.3245 0.0000
vt 0.4209 0.3245 0.0000
vt 0.4209 0.3955 0.0000
vt 0.4331 0.3955 0.0000
vt 0.4069 0.3245 0.0000
vt 0.4069 0.3955 0.0000
vt 0.3916 0.3245 0.0000
vt 0.3916 0.3955 0.0000
vt 0.3756 0.3245 0.0000
vt 0.3756 0.3955 0.0000
vt 0.3593 0.3245 0.0000
vt 0.3593 0.3955 0.0000
vt 0.3433 0.3245 0.0000
vt 0.3433 0.3955 0.0000
vt 0.3280 0.3245 0.0000
vt 0.3280 0.3955 0.0000
vt 0.3140 0.3245 0.0000
vt 0.3140 0.3955 0.0000
vt 0.6955 0.3229 0.0000
vt 0.6829 0.3229 0.0000
vt 0.6829 0.3960 0.0000
vt 0.6955 0.3960 0.0000
vt 0.6685 0.3229 0.0000
vt 0.6685 0.3960 0.0000
vt 0.6527 0.3229 0.0000
vt 0.6527 0.3960 0.0000
vt 0.6362 0.3229 0.0000
vt 0.6362 0.3960 0.0000
vt 0.6195 0.3229 0.0000
vt 0.6195 0.3960 0.0000
vt 0.6029 0.3229 0.0000
vt 0.6029 0.3960 0.0000
vt 0.5872 0.3229 0.0000
vt 0.5872 0.3960 0.0000
vt 0.5728 0.3229 0.0000
vt 0.5728 0.3960 0.0000
vt 0.5602 0.3229 0.0000
vt 0.5602 0.3960 0.0000
vt 0.5587 0.3230 0.0000
vt 0.5443 0.3230 0.0000
vt 0.5443 0.3961 0.0000
vt 0.5587 0.3961 0.0000
vt 0.5286 0.3230 0.0000
vt 0.5286 0.3961 0.0000
vt 0.5121 0.3230 0.0000
vt 0.5121 0.3961 0.0000
vt 0.4953 0.3230 0.0000
vt 0.4953 0.3961 0.0000
vt 0.4788 0.3230 0.0000
vt 0.4788 0.3961 0.0000
vt 0.0886 0.0456 0.0000
vt 0.0923 0.0489 0.0000
vt 0.0965 0.0516 0.0000
vt 0.1012 0.0535 0.0000
vt 0.1062 0.0546 0.0000
vt 0.1112 0.0549 0.0000
vt 0.1163 0.0542 0.0000
vt 0.1211 0.0527 0.0000
vt 0.1256 0.0504 0.0000
vt 0.1296 0.0473 0.0000
vt 0.1329 0.0436 0.0000
vt 0.1355 0.0394 0.0000
vt 0.1373 0.0349 0.0000
vt 0.1382 0.0301 0.0000
vt 0.1382 0.0252 0.0000
vt 0.1373 0.0204 0.0000
vt 0.1355 0.0158 0.0000
vt 0.1329 0.0116 0.0000
vt 0.1296 0.0079 0.0000
vt 0.1256 0.0048 0.0000
vt 0.1211 0.0025 0.0000
vt 0.1163 0.0010 0.0000
vt 0.1112 0.0004 0.0000
vt 0.1062 0.0006 0.0000
vt 0.1012 0.0017 0.0000
vt 0.0965 0.0036 0.0000
vt 0.0923 0.0063 0.0000
vt 0.0886 0.0097 0.0000
vt 0.0856 0.0136 0.0000
vt 0.0834 0.0180 0.0000
vt 0.0821 0.0227 0.0000
vt 0.0816 0.0276 0.0000
vt 0.0821 0.0325 0.0000
vt 0.0834 0.0372 0.0000
vt 0.0856 0.0416 0.0000
vt 0.4631 0.3230 0.0000
vt 0.4631 0.3961 0.0000
vt 0.0817 0.0077 0.0000
vt 0.0802 0.0084 0.0000
vt 0.0808 0.0101 0.0000
vt 0.0825 0.0097 0.0000
vt 1.6902 0.4076 0.0000
vt 1.7042 0.4076 0.0000
vt 1.7042 0.3882 0.0000
vt 1.6902 0.3882 0.0000
vt 0.0756 0.0236 0.0000
vt 0.0749 0.0220 0.0000
vt 0.0731 0.0226 0.0000
vt 0.0735 0.0242 0.0000
vt 0.0594 0.0169 0.0000
vt 0.0610 0.0163 0.0000
vt 0.0605 0.0146 0.0000
vt 0.0588 0.0149 0.0000
vt 0.0756 0.0020 0.0000
vt 0.0749 0.0036 0.0000
vt 0.0765 0.0044 0.0000
vt 0.0775 0.0030 0.0000
vt 0.0817 0.0179 0.0000
vt 0.0802 0.0172 0.0000
vt 0.0792 0.0187 0.0000
vt 0.0806 0.0197 0.0000
vt 0.0650 0.0231 0.0000
vt 0.0658 0.0217 0.0000
vt 0.0643 0.0207 0.0000
vt 0.0632 0.0220 0.0000
vt 0.0670 0.0017 0.0000
vt 0.0675 0.0032 0.0000
vt 0.0694 0.0028 0.0000
vt 0.0691 0.0012 0.0000
vt 0.0812 0.0119 0.0000
vt 0.0829 0.0118 0.0000
vt 0.0712 0.0228 0.0000
vt 0.0713 0.0245 0.0000
vt 0.0603 0.0068 0.0000
vt 0.0618 0.0076 0.0000
vt 0.0629 0.0062 0.0000
vt 0.0616 0.0051 0.0000
vt 0.0603 0.0128 0.0000
vt 0.0586 0.0128 0.0000
vt 0.0780 0.0055 0.0000
vt 0.0792 0.0043 0.0000
vt 0.0780 0.0201 0.0000
vt 0.0792 0.0213 0.0000
vt 0.0629 0.0194 0.0000
vt 0.0616 0.0205 0.0000
vt 0.0712 0.0028 0.0000
vt 0.0713 0.0011 0.0000
vt 0.0812 0.0137 0.0000
vt 0.0829 0.0139 0.0000
vt 0.0694 0.0228 0.0000
vt 0.0691 0.0244 0.0000
vt 0.0605 0.0110 0.0000
vt 0.0588 0.0107 0.0000
vt 0.0643 0.0049 0.0000
vt 0.0632 0.0037 0.0000
vt 0.0792 0.0069 0.0000
vt 0.0806 0.0059 0.0000
vt 0.0765 0.0212 0.0000
vt 0.0775 0.0226 0.0000
vt 0.0618 0.0180 0.0000
vt 0.0603 0.0188 0.0000
vt 0.0731 0.0030 0.0000
vt 0.0735 0.0014 0.0000
vt 0.0808 0.0155 0.0000
vt 0.0825 0.0159 0.0000
vt 0.0675 0.0224 0.0000
vt 0.0670 0.0239 0.0000
vt 0.0610 0.0093 0.0000
vt 0.0594 0.0087 0.0000
vt 0.0658 0.0040 0.0000
vt 0.0650 0.0025 0.0000
vt 0.0623 0.0177 0.0000
vt 0.0634 0.0191 0.0000
vt 0.0646 0.0202 0.0000
vt 0.0661 0.0212 0.0000
vt 0.0678 0.0218 0.0000
vt 0.0695 0.0222 0.0000
vt 0.0713 0.0223 0.0000
vt 0.0730 0.0221 0.0000
vt 0.0747 0.0215 0.0000
vt 0.0763 0.0207 0.0000
vt 0.0777 0.0197 0.0000
vt 0.0788 0.0184 0.0000
vt 0.0797 0.0169 0.0000
vt 0.0804 0.0153 0.0000
vt 0.0807 0.0136 0.0000
vt 0.0807 0.0119 0.0000
vt 0.0804 0.0103 0.0000
vt 0.0797 0.0087 0.0000
vt 0.0788 0.0072 0.0000
vt 0.0777 0.0059 0.0000
vt 0.0763 0.0049 0.0000
vt 0.0747 0.0040 0.0000
vt 0.0730 0.0035 0.0000
vt 0.0713 0.0033 0.0000
vt 0.0695 0.0034 0.0000
vt 0.0678 0.0037 0.0000
vt 0.0661 0.0044 0.0000
vt 0.0646 0.0054 0.0000
vt 0.0634 0.0065 0.0000
vt 0.0623 0.0079 0.0000
vt 0.0616 0.0094 0.0000
vt 0.0611 0.0111 0.0000
vt 0.0609 0.0128 0.0000
vt 0.0611 0.0145 0.0000
vt 0.0616 0.0161 0.0000
vt 1.7075 0.4642 0.0000
vt 1.7183 0.4642 0.0000
vt 1.7183 0.4517 0.0000
vt 1.7075 0.4517 0.0000
vt 1.6074 0.4626 0.0000
vt 1.6214 0.4626 0.0000
vt 1.6214 0.4455 0.0000
vt 1.6074 0.4455 0.0000
vt 1.6074 0.6281 0.0000
vt 1.6214 0.6281 0.0000
vt 1.6214 0.6111 0.0000
vt 1.6074 0.6111 0.0000
vt 1.7183 0.4391 0.0000
vt 1.7075 0.4391 0.0000
vt 1.7075 0.5989 0.0000
vt 1.7183 0.5989 0.0000
vt 1.7183 0.5894 0.0000
vt 1.7075 0.5894 0.0000
vt 1.6214 0.5916 0.0000
vt 1.6074 0.5916 0.0000
vt 1.7183 0.4266 0.0000
vt 1.7075 0.4266 0.0000
vt 1.7183 0.5785 0.0000
vt 1.7075 0.5785 0.0000
vt 1.6214 0.5704 0.0000
vt 1.6074 0.5704 0.0000
vt 1.7183 0.4147 0.0000
vt 1.7075 0.4147 0.0000
vt 1.7183 0.5666 0.0000
vt 1.7075 0.5666 0.0000
vt 1.6214 0.5481 0.0000
vt 1.6074 0.5481 0.0000
vt 1.7183 0.4038 0.0000
vt 1.7075 0.4038 0.0000
vt 1.7183 0.5541 0.0000
vt 1.7075 0.5541 0.0000
vt 1.6214 0.5255 0.0000
vt 1.6074 0.5255 0.0000
vt 1.7183 0.3942 0.0000
vt 1.7075 0.3942 0.0000
vt 1.7183 0.5414 0.0000
vt 1.7075 0.5414 0.0000
vt 1.6214 0.5032 0.0000
vt 1.6074 0.5032 0.0000
vt 1.6902 0.5537 0.0000
vt 1.7042 0.5537 0.0000
vt 1.7042 0.5367 0.0000
vt 1.6902 0.5367 0.0000
vt 1.7183 0.5289 0.0000
vt 1.7075 0.5289 0.0000
vt 1.6214 0.4820 0.0000
vt 1.6074 0.4820 0.0000
vt 1.7042 0.5173 0.0000
vt 1.6902 0.5173 0.0000
vt 1.7183 0.5170 0.0000
vt 1.7075 0.5170 0.0000
vt 1.7042 0.4961 0.0000
vt 1.6902 0.4961 0.0000
vt 1.7183 0.5061 0.0000
vt 1.7075 0.5061 0.0000
vt 1.7042 0.4738 0.0000
vt 1.6902 0.4738 0.0000
vt 1.7183 0.4966 0.0000
vt 1.7075 0.4966 0.0000
vt 1.7042 0.4511 0.0000
vt 1.6902 0.4511 0.0000
vt 1.7183 0.4870 0.0000
vt 1.7075 0.4870 0.0000
vt 1.7042 0.4288 0.0000
vt 1.6902 0.4288 0.0000
vt 1.7183 0.4761 0.0000
vt 1.7075 0.4761 0.0000
# 766 texture coords

o Motor1_Dron
g Motor1_Dron
usemtl Material__28
s off
f 1/1/1 2/2/1 3/3/1 4/4/1 
f 5/5/2 6/6/2 7/7/2 8/8/2 
f 5/5/2 8/8/2 9/9/2 10/10/2 
f 5/5/2 10/10/2 11/11/2 12/12/2 
f 13/13/3 14/14/3 15/15/3 8/8/3 
f 15/15/3 16/16/3 8/8/3 
f 13/13/3 8/8/3 7/7/3 17/17/3 
f 2/18/4 1/19/4 18/20/4 19/21/4 
f 2/18/4 19/21/4 20/22/4 21/23/4 
f 22/24/5 23/25/5 24/26/5 20/22/5 
f 24/26/5 25/27/5 26/28/5 20/22/5 
f 26/28/5 27/29/5 20/22/5 
f 22/24/5 20/22/5 19/21/5 
f 2/30/6 21/31/6 28/32/6 3/33/6 
f 29/34/7 30/35/7 31/36/7 32/37/7 
f 29/34/7 32/37/7 33/38/7 25/27/7 
f 29/34/7 25/27/7 24/26/7 
f 27/39/8 26/40/8 6/41/8 5/42/8 
f 32/37/9 31/36/9 34/43/9 35/44/9 
f 36/45/10 37/46/10 38/47/10 39/48/10 
f 36/45/10 39/48/10 40/49/10 41/50/10 
f 36/45/10 41/50/10 42/51/10 
f 43/52/11 44/53/11 45/54/11 46/55/11 
f 43/52/11 46/55/11 47/56/11 48/57/11 
f 43/52/11 48/57/11 49/58/11 
f 38/59/12 37/60/12 47/61/12 46/62/12 
f 35/44/13 34/43/13 50/63/13 51/64/13 
f 51/64/14 50/63/14 42/51/14 41/50/14 
f 43/52/15 49/58/15 52/65/15 53/66/15 
f 53/66/16 52/65/16 54/67/16 55/68/16 
f 55/68/17 54/67/17 14/14/17 13/13/17 
f 43/69/18 53/70/18 51/71/18 41/72/18 
f 53/70/19 55/73/19 35/74/19 51/71/19 
f 55/73/20 13/75/20 32/76/20 35/74/20 
f 12/12/21 11/11/21 56/77/21 4/78/21 
f 12/12/21 4/78/21 3/79/21 28/80/21 
f 42/51/4 50/63/4 34/43/4 31/36/4 
f 14/14/21 54/67/21 52/65/21 49/58/21 
f 15/81/22 48/82/22 36/83/22 30/84/22 
f 30/35/23 36/45/23 42/51/23 31/36/23 
f 14/14/24 49/58/24 48/57/24 15/15/24 
f 48/82/25 47/85/25 37/86/25 36/83/25 
f 21/23/23 20/22/23 57/87/23 
f 57/87/23 20/22/23 27/29/23 
f 5/5/21 12/12/21 58/88/21 
f 58/88/21 12/12/21 28/80/21 
f 5/42/26 58/89/26 57/90/26 27/39/26 
f 58/91/27 28/32/27 21/31/27 57/92/27 
f 16/93/28 15/81/28 30/84/28 29/94/28 
f 26/40/29 25/95/29 59/96/29 
f 59/97/30 25/98/30 33/99/30 
f 17/100/31 7/101/31 60/102/31 
f 60/103/32 7/104/32 6/41/32 
f 17/100/33 60/102/33 59/97/33 33/99/33 
f 60/103/34 6/41/34 26/40/34 59/96/34 
f 33/99/35 32/76/35 13/75/35 17/100/35 
f 22/24/23 19/21/23 61/105/23 
f 61/105/36 19/21/36 18/20/36 
f 56/77/21 11/11/21 62/106/21 
f 62/106/37 11/11/37 10/10/37 
f 56/107/38 62/108/38 61/109/38 18/110/38 
f 62/108/39 10/111/39 22/112/39 61/109/39 
f 18/110/40 1/113/40 4/114/40 56/107/40 
f 29/34/23 24/26/23 23/25/23 
f 9/9/21 8/8/21 16/16/21 
f 9/115/41 16/93/41 29/94/41 23/116/41 
f 10/111/42 9/115/42 23/116/42 22/112/42 
f 46/62/43 45/117/43 39/118/43 38/59/43 
f 45/119/44 44/120/44 40/121/44 39/122/44 
f 41/72/45 40/121/45 44/120/45 43/69/45 
f 63/123/40 64/124/40 65/125/40 66/126/40 
f 67/127/46 68/128/46 69/129/46 70/130/46 
f 67/127/46 70/130/46 71/131/46 72/132/46 
f 67/127/46 72/132/46 73/133/46 74/134/46 
f 75/135/47 76/136/47 77/137/47 78/138/47 
f 75/135/47 78/138/47 79/139/47 70/130/47 
f 75/135/47 70/130/47 69/129/47 
f 64/140/23 63/141/23 80/142/23 81/143/23 
f 64/140/23 81/143/23 82/144/23 83/145/23 
f 84/146/48 85/147/48 86/148/48 87/149/48 
f 86/148/48 88/150/48 87/149/48 
f 87/149/48 82/144/48 81/143/48 84/146/48 
f 89/151/48 84/146/48 81/143/48 
f 64/152/49 83/153/49 90/154/49 65/155/49 
f 91/156/50 92/157/50 93/158/50 94/159/50 
f 91/156/50 94/159/50 95/160/50 86/148/50 
f 91/156/50 86/148/50 85/147/50 
f 87/161/51 88/162/51 68/163/51 67/164/51 
f 94/159/52 93/158/52 96/165/52 97/166/52 
f 98/167/53 99/168/53 100/169/53 101/170/53 
f 98/167/53 101/170/53 102/171/53 103/172/53 
f 98/167/53 103/172/53 104/173/53 
f 105/174/54 106/175/54 107/176/54 108/177/54 
f 105/174/54 108/177/54 109/178/54 110/57/54 
f 105/174/54 110/57/54 111/58/54 
f 100/179/6 99/180/6 109/181/6 108/182/6 
f 97/166/55 96/165/55 112/183/55 113/184/55 
f 113/184/56 112/183/56 104/173/56 103/172/56 
f 105/174/57 111/58/57 114/65/57 115/185/57 
f 115/185/58 114/65/58 116/186/58 117/187/58 
f 117/187/59 116/186/59 77/137/59 76/136/59 
f 105/188/60 115/189/60 113/190/60 103/191/60 
f 115/189/61 117/192/61 97/193/61 113/190/61 
f 117/192/62 76/194/62 94/195/62 97/193/62 
f 74/134/21 73/133/21 118/196/21 66/197/21 
f 74/134/21 66/197/21 65/198/21 90/199/21 
f 104/173/4 112/183/4 96/165/4 93/158/4 
f 77/137/24 116/186/24 114/65/24 111/58/24 
f 78/200/63 110/201/63 98/202/63 92/203/63 
f 92/157/23 98/167/23 104/173/23 93/158/23 
f 77/137/21 111/58/21 110/57/21 78/138/21 
f 110/201/64 109/204/64 99/205/64 98/202/64 
f 83/145/23 82/144/23 119/206/23 
f 119/206/23 82/144/23 87/149/23 
f 67/127/21 74/134/21 120/207/21 
f 120/207/24 74/134/24 90/199/24 
f 67/164/65 120/208/65 119/209/65 87/161/65 
f 120/210/66 90/154/66 83/153/66 119/211/66 
f 79/212/67 78/200/67 92/203/67 91/213/67 
f 88/162/68 86/214/68 121/215/68 
f 121/216/69 86/217/69 95/218/69 
f 75/219/70 69/220/70 122/221/70 
f 122/222/71 69/223/71 68/163/71 
f 75/219/72 122/221/72 121/216/72 95/218/72 
f 122/222/73 68/163/73 88/162/73 121/215/73 
f 95/218/74 94/195/74 76/194/74 75/219/74 
f 89/151/75 81/143/75 123/224/75 
f 123/224/76 81/143/76 80/142/76 
f 118/196/24 73/133/24 124/225/24 
f 124/225/21 73/133/21 72/132/21 
f 118/226/77 124/227/77 123/228/77 80/229/77 
f 124/227/78 72/230/78 89/231/78 123/228/78 
f 80/229/12 63/232/12 66/233/12 118/226/12 
f 91/156/79 85/147/79 84/146/79 
f 71/131/24 70/130/24 79/139/24 
f 71/234/80 79/212/80 91/213/80 84/235/80 
f 72/230/81 71/234/81 84/235/81 89/231/81 
f 108/182/82 107/236/82 101/118/82 100/179/82 
f 107/237/83 106/238/83 102/239/83 101/240/83 
f 103/191/84 102/239/84 106/238/84 105/188/84 
f 125/241/85 126/242/85 127/243/85 128/244/85 
f 129/245/86 130/246/86 131/247/86 132/248/86 
f 131/247/86 133/249/86 132/248/86 
f 134/250/86 129/245/86 132/248/86 135/251/86 
f 135/251/86 132/248/86 136/252/86 
f 137/253/87 138/254/87 139/255/87 140/256/87 
f 137/253/87 140/256/87 141/257/87 130/246/87 
f 137/253/87 130/246/87 129/245/87 
f 126/258/23 125/259/23 142/260/23 143/261/23 
f 126/258/23 143/261/23 144/262/23 145/263/23 
f 146/264/88 147/265/88 148/266/88 149/148/88 
f 148/266/88 150/267/88 149/148/88 
f 146/264/88 149/148/88 151/268/88 144/262/88 
f 146/264/88 144/262/88 143/261/88 
f 126/269/40 145/270/40 152/271/40 127/272/40 
f 153/273/89 154/274/89 155/275/89 156/276/89 
f 153/273/89 156/276/89 157/277/89 150/267/89 
f 153/273/89 150/267/89 148/266/89 
f 151/278/90 149/279/90 134/280/90 135/281/90 
f 156/276/91 155/275/91 158/282/91 159/283/91 
f 160/284/92 161/168/92 162/169/92 163/170/92 
f 160/284/92 163/170/92 164/171/92 165/285/92 
f 160/284/92 165/285/92 166/286/92 
f 167/287/93 168/288/93 169/289/93 170/290/93 
f 167/287/93 170/290/93 171/291/93 172/57/93 
f 167/287/93 172/57/93 173/292/93 
f 162/293/94 161/294/94 171/295/94 170/296/94 
f 159/283/95 158/282/95 174/297/95 175/298/95 
f 175/298/96 174/297/96 166/286/96 165/285/96 
f 167/287/97 173/292/97 176/299/97 177/300/97 
f 177/300/98 176/299/98 178/186/98 179/301/98 
f 179/301/99 178/186/99 139/255/99 138/254/99 
f 167/302/100 177/303/100 175/304/100 165/305/100 
f 177/303/101 179/306/101 159/307/101 175/304/101 
f 179/306/102 138/308/102 156/309/102 159/307/102 
f 136/252/21 132/248/21 180/310/21 128/311/21 
f 136/252/21 128/311/21 127/312/21 152/313/21 
f 166/286/4 174/297/4 158/282/4 155/275/4 
f 139/255/21 178/186/21 176/299/21 173/292/21 
f 140/314/103 172/315/103 160/316/103 154/317/103 
f 154/274/23 160/284/23 166/286/23 155/275/23 
f 139/255/21 173/292/21 172/57/21 140/256/21 
f 172/315/104 171/318/104 161/319/104 160/316/104 
f 145/263/4 144/262/4 181/320/4 
f 181/320/4 144/262/4 151/268/4 
f 135/251/21 136/252/21 182/321/21 
f 182/321/21 136/252/21 152/313/21 
f 135/281/105 182/322/105 181/323/105 151/278/105 
f 182/324/106 152/271/106 145/270/106 181/325/106 
f 141/326/107 140/314/107 154/317/107 153/327/107 
f 149/279/108 150/328/108 183/329/108 
f 183/330/109 150/331/109 157/332/109 
f 137/333/110 129/334/110 184/335/110 
f 184/336/111 129/337/111 134/280/111 
f 137/333/112 184/335/112 183/330/112 157/332/112 
f 184/336/113 134/280/113 149/279/113 183/329/113 
f 157/332/114 156/309/114 138/308/114 137/333/114 
f 146/264/23 143/261/23 185/338/23 
f 185/338/36 143/261/36 142/260/36 
f 180/310/115 132/248/115 186/339/115 
f 186/339/21 132/248/21 133/249/21 
f 180/340/116 186/341/116 185/342/116 142/343/116 
f 186/341/117 133/344/117 146/345/117 185/342/117 
f 142/343/6 125/346/6 128/347/6 180/340/6 
f 153/273/76 148/266/76 147/265/76 
f 131/247/37 130/246/37 141/257/37 
f 131/348/118 141/326/118 153/327/118 147/349/118 
f 133/344/119 131/348/119 147/349/119 146/345/119 
f 170/296/120 169/350/120 163/351/120 162/293/120 
f 169/352/121 168/353/121 164/354/121 163/355/121 
f 165/305/122 164/354/122 168/353/122 167/302/122 
f 187/356/6 188/357/6 189/358/6 190/359/6 
f 191/360/123 192/361/123 193/362/123 194/363/123 
f 191/360/123 194/363/123 195/364/123 196/365/123 
f 191/360/123 196/365/123 197/366/123 198/367/123 
f 199/368/124 200/369/124 201/370/124 202/371/124 
f 199/368/124 202/371/124 203/372/124 194/363/124 
f 199/368/124 194/363/124 193/362/124 
f 188/373/23 187/374/23 204/375/23 205/376/23 
f 188/373/23 205/376/23 206/377/23 207/378/23 
f 208/379/125 209/380/125 210/381/125 211/382/125 
f 210/381/125 212/383/125 211/382/125 
f 211/382/125 206/377/125 205/376/125 208/379/125 
f 213/384/125 208/379/125 205/376/125 
f 188/385/12 207/386/12 214/387/12 189/388/12 
f 215/389/126 216/390/126 217/391/126 218/392/126 
f 215/389/126 218/392/126 219/393/126 210/381/126 
f 215/389/126 210/381/126 209/380/126 
f 211/394/127 212/395/127 192/396/127 191/397/127 
f 218/392/128 217/391/128 220/398/128 221/399/128 
f 222/400/129 223/401/129 224/402/129 225/403/129 
f 222/400/129 225/403/129 226/404/129 227/405/129 
f 222/400/129 227/405/129 228/406/129 
f 229/407/130 230/408/130 231/409/130 232/410/130 
f 229/407/130 232/410/130 233/411/130 234/57/130 
f 229/407/130 234/57/130 235/58/130 
f 224/412/40 223/413/40 233/414/40 232/415/40 
f 221/399/131 220/398/131 236/416/131 237/417/131 
f 237/417/132 236/416/132 228/406/132 227/405/132 
f 229/407/133 235/58/133 238/418/133 239/419/133 
f 239/419/134 238/418/134 240/420/134 241/421/134 
f 241/421/135 240/420/135 201/370/135 200/369/135 
f 229/422/136 239/423/136 237/424/136 227/425/136 
f 239/423/137 241/426/137 221/427/137 237/424/137 
f 241/426/138 200/428/138 218/429/138 221/427/138 
f 198/367/21 197/366/21 242/430/21 190/431/21 
f 198/367/21 190/431/21 189/432/21 214/433/21 
f 228/406/4 236/416/4 220/398/4 217/391/4 
f 201/370/24 240/420/24 238/418/24 235/58/24 
f 202/434/139 234/435/139 222/436/139 216/437/139 
f 216/390/4 222/400/4 228/406/4 217/391/4 
f 201/370/21 235/58/21 234/57/21 202/371/21 
f 234/435/140 233/438/140 223/439/140 222/436/140 
f 207/378/23 206/377/23 243/440/23 
f 243/440/141 206/377/141 211/382/141 
f 191/360/24 198/367/24 244/441/24 
f 244/441/21 198/367/21 214/433/21 
f 191/397/142 244/442/142 243/443/142 211/394/142 
f 244/126/143 214/387/143 207/386/143 243/444/143 
f 203/445/144 202/434/144 216/437/144 215/446/144 
f 212/395/145 210/447/145 245/448/145 
f 245/449/146 210/450/146 219/451/146 
f 199/452/147 193/453/147 246/454/147 
f 246/455/148 193/456/148 192/396/148 
f 199/452/149 246/454/149 245/449/149 219/451/149 
f 246/455/150 192/396/150 212/395/150 245/448/150 
f 219/451/151 218/429/151 200/428/151 199/452/151 
f 213/384/4 205/376/4 247/457/4 
f 247/457/4 205/376/4 204/375/4 
f 242/430/24 197/366/24 248/458/24 
f 248/458/115 197/366/115 196/365/115 
f 242/459/152 248/460/152 247/461/152 204/462/152 
f 248/460/153 196/463/153 213/464/153 247/461/153 
f 204/462/1 187/465/1 190/466/1 242/459/1 
f 215/389/75 209/380/75 208/379/75 
f 195/364/154 194/363/154 203/372/154 
f 195/467/155 203/445/155 215/446/155 208/468/155 
f 196/463/156 195/467/156 208/468/156 213/464/156 
f 232/415/157 231/469/157 225/470/157 224/412/157 
f 231/471/158 230/472/158 226/473/158 225/474/158 
f 227/425/159 226/473/159 230/472/159 229/422/159 
f 249/475/160 250/476/161 251/477/162 252/478/163 
f 250/479/161 253/480/164 254/481/165 251/482/162 
f 253/480/164 255/483/166 256/484/167 254/481/165 
f 255/483/166 257/485/168 258/486/169 256/484/167 
f 257/485/168 259/487/170 260/488/171 258/486/169 
f 259/487/170 261/489/172 262/490/173 260/488/171 
f 261/489/172 263/491/174 264/492/175 262/490/173 
f 263/491/174 265/493/176 266/494/177 264/492/175 
f 265/493/176 267/495/178 268/496/179 266/494/177 
f 267/495/178 269/497/180 270/498/181 268/496/179 
f 269/499/180 271/500/182 272/501/183 270/502/181 
f 271/500/182 273/503/184 274/504/185 272/501/183 
f 273/503/184 275/505/186 276/506/187 274/504/185 
f 275/505/186 277/507/188 278/508/189 276/506/187 
f 277/507/188 279/509/190 280/510/191 278/508/189 
f 279/509/190 281/511/192 282/512/193 280/510/191 
f 281/511/192 283/513/194 284/514/195 282/512/193 
f 283/513/194 285/515/196 286/516/197 284/514/195 
f 285/515/196 287/479/198 288/482/199 286/516/197 
f 287/517/198 289/518/200 290/519/201 288/520/199 
f 289/518/200 291/521/202 292/522/203 290/519/201 
f 291/521/202 293/523/204 294/524/205 292/522/203 
f 293/523/204 295/525/206 296/526/207 294/524/205 
f 295/525/206 297/527/208 298/528/209 296/526/207 
f 297/527/208 299/529/210 300/530/211 298/528/209 
f 299/529/210 301/531/212 302/532/213 300/530/211 
f 301/531/212 303/533/214 304/534/215 302/532/213 
f 303/533/214 305/535/216 306/536/217 304/534/215 
f 305/537/216 307/538/218 308/539/219 306/540/217 
f 307/538/218 309/541/220 310/542/221 308/539/219 
f 309/541/220 311/543/222 312/544/223 310/542/221 
f 311/543/222 313/545/224 314/546/225 312/544/223 
f 313/545/224 315/547/226 316/548/227 314/546/225 
f 251/549/228 254/550/228 256/551/228 258/552/228 
f 251/549/228 258/552/228 260/553/228 262/554/228 
f 251/549/228 262/554/228 264/555/228 266/556/228 
f 251/549/228 266/556/228 268/557/228 270/558/228 
f 251/549/228 270/558/228 272/559/228 274/560/228 
f 251/549/228 274/560/228 276/561/228 278/562/228 
f 251/549/228 278/562/228 280/563/228 282/564/228 
f 251/549/228 282/564/228 284/565/228 286/566/228 
f 251/549/228 286/566/228 288/567/228 290/568/228 
f 251/549/228 290/568/228 292/569/228 294/570/228 
f 251/549/228 294/570/228 296/571/228 298/572/228 
f 251/549/228 298/572/228 300/573/228 302/574/228 
f 251/549/228 302/574/228 304/575/228 306/576/228 
f 251/549/228 306/576/228 308/577/228 310/578/228 
f 251/549/228 310/578/228 312/579/228 314/580/228 
f 251/549/228 314/580/228 316/581/228 317/582/228 
f 251/549/228 317/582/228 252/583/228 
f 315/547/226 318/584/229 317/585/230 316/548/227 
f 318/584/229 249/475/160 252/478/163 317/585/230 
f 273/586/231 319/587/232 320/588/233 275/589/234 
f 321/590/213 322/591/212 323/592/214 324/593/215 
f 291/594/235 325/595/236 326/596/237 293/597/238 
f 309/598/239 327/599/240 328/600/241 311/601/242 
f 265/602/243 329/603/244 330/604/245 267/605/246 
f 283/606/247 331/607/248 332/608/249 285/609/250 
f 301/610/251 321/611/252 324/612/253 303/613/254 
f 257/614/255 333/615/256 334/616/257 259/617/258 
f 275/589/234 320/588/233 335/618/259 277/619/260 
f 293/597/238 326/596/237 336/620/261 295/621/262 
f 249/622/263 337/623/264 338/624/265 250/625/266 
f 311/601/242 328/600/241 339/626/267 313/627/268 
f 267/605/246 330/604/245 340/628/269 269/629/270 
f 285/609/250 332/608/249 341/630/271 287/631/272 
f 303/613/254 324/612/253 342/632/273 305/633/274 
f 259/617/258 334/616/257 343/634/275 261/635/276 
f 277/619/260 335/618/259 344/636/277 279/637/278 
f 295/621/262 336/620/261 345/638/279 297/639/280 
f 313/627/268 339/626/267 346/640/281 315/641/282 
f 250/625/266 338/624/265 347/642/283 253/643/284 
f 269/629/270 340/628/269 348/644/285 271/645/286 
f 287/631/272 341/630/271 349/646/287 289/647/288 
f 305/633/274 342/632/273 350/648/289 307/649/290 
f 261/635/276 343/634/275 351/650/291 263/651/292 
f 279/637/278 344/636/277 352/652/293 281/653/294 
f 297/639/280 345/638/279 353/654/295 299/655/296 
f 315/641/282 346/640/281 354/656/297 318/657/298 
f 253/643/284 347/642/283 355/658/299 255/659/300 
f 271/645/286 348/644/285 319/587/232 273/586/231 
f 289/647/288 349/646/287 325/595/236 291/594/235 
f 307/649/290 350/648/289 327/599/240 309/598/239 
f 263/651/292 351/650/291 329/603/244 265/602/243 
f 281/653/294 352/652/293 331/607/248 283/606/247 
f 299/655/296 353/654/295 321/611/252 301/610/251 
f 318/657/298 354/656/297 337/623/264 249/622/263 
f 255/659/300 355/658/299 333/615/256 257/614/255 
f 356/660/301 357/661/301 358/662/301 359/663/301 
f 356/660/301 359/663/301 360/664/301 361/665/301 
f 356/660/301 361/665/301 362/666/301 363/667/301 
f 356/660/301 363/667/301 323/668/301 322/669/301 
f 356/660/301 322/669/301 364/670/301 365/671/301 
f 356/660/301 365/671/301 366/672/301 367/673/301 
f 356/660/301 367/673/301 368/674/301 369/675/301 
f 356/660/301 369/675/301 370/676/301 371/677/301 
f 356/660/301 371/677/301 372/678/301 373/679/301 
f 356/660/301 373/679/301 374/680/301 375/681/301 
f 356/660/301 375/681/301 376/682/301 377/683/301 
f 356/660/301 377/683/301 378/684/301 379/685/301 
f 356/660/301 379/685/301 380/686/301 381/687/301 
f 356/660/301 381/687/301 382/688/301 383/689/301 
f 356/660/301 383/689/301 384/690/301 385/691/301 
f 356/660/301 385/691/301 386/692/301 387/693/301 
f 356/660/301 387/693/301 388/694/301 
f 320/695/187 376/696/186 375/697/188 335/698/302 
f 337/699/163 356/700/160 388/701/161 338/702/162 
f 324/703/215 323/704/214 363/705/216 342/706/217 
f 335/698/302 375/697/188 374/707/190 344/708/191 
f 338/709/162 388/710/161 387/711/164 347/712/165 
f 342/706/217 363/705/216 362/713/218 350/714/219 
f 344/708/191 374/707/190 373/715/192 352/716/193 
f 347/712/165 387/711/164 386/717/166 355/718/167 
f 350/714/219 362/713/218 361/719/220 327/720/221 
f 352/716/193 373/715/192 372/721/194 331/722/195 
f 355/718/167 386/717/166 385/723/168 333/724/303 
f 327/720/221 361/719/220 360/725/222 328/726/304 
f 331/722/195 372/721/194 371/727/196 332/728/197 
f 333/724/303 385/723/168 384/729/170 334/730/171 
f 328/726/304 360/725/222 359/731/224 339/732/225 
f 332/728/197 371/727/196 370/733/198 341/734/199 
f 334/730/171 384/729/170 383/735/305 343/736/173 
f 339/732/225 359/731/224 358/737/226 346/738/227 
f 341/739/199 370/740/198 369/741/200 349/742/201 
f 343/736/173 383/735/305 382/743/174 351/744/175 
f 346/738/227 358/737/226 357/745/229 354/746/230 
f 349/742/201 369/741/200 368/747/202 325/748/203 
f 351/744/175 382/743/174 381/749/176 329/750/306 
f 354/746/230 357/745/229 356/700/160 337/699/163 
f 325/748/203 368/747/202 367/751/204 326/752/205 
f 329/750/306 381/749/176 380/753/178 330/754/179 
f 326/752/205 367/751/204 366/755/206 336/756/207 
f 330/754/179 380/753/178 379/757/180 340/758/181 
f 336/756/207 366/755/206 365/759/208 345/760/209 
f 340/758/181 379/757/180 378/761/182 348/762/307 
f 345/760/209 365/759/208 364/763/210 353/764/211 
f 348/762/307 378/761/182 377/765/184 319/766/185 
f 353/764/211 364/763/210 322/591/212 321/590/213 
f 319/766/185 377/765/184 376/696/186 320/695/187 
# 336 polygons - 84 triangles

