# 3ds Max Wavefront OBJ Exporter v0.99 - (c)2007 guruware
# File Created: 16.05.2026 16:20:00

mtllib Motor2_Dron.mtl

#
# object Motor2_Dron
#

v  0.0169 -0.0053 0.0038
v  0.0169 -0.0042 0.0038
v  0.0169 -0.0042 -0.0033
v  0.0169 -0.0053 -0.0033
v  0.0243 -0.0042 -0.0047
v  0.0240 -0.0042 -0.0019
v  0.0240 -0.0042 0.0031
v  0.0246 -0.0042 0.0041
v  0.0248 -0.0042 0.0043
v  0.0252 -0.0042 0.0041
v  0.0252 -0.0042 -0.0088
v  0.0250 -0.0047 -0.0088
v  0.0262 -0.0047 -0.0097
v  0.0256 -0.0042 0.0045
v  0.0675 -0.0042 0.0055
v  0.0669 -0.0042 0.0035
v  0.0419 -0.0047 -0.0088
v  0.0227 -0.0053 -0.0033
v  0.0240 -0.0053 -0.0019
v  0.0240 -0.0053 0.0031
v  0.0233 -0.0053 0.0038
v  0.0246 -0.0053 0.0041
v  0.0243 -0.0053 -0.0047
v  0.0250 -0.0050 -0.0088
v  0.0252 -0.0053 -0.0088
v  0.0252 -0.0053 0.0041
v  0.0248 -0.0053 0.0043
v  0.0227 -0.0042 -0.0033
v  0.0256 -0.0053 0.0045
v  0.0262 -0.0050 -0.0097
v  0.0419 -0.0050 -0.0088
v  0.0669 -0.0053 0.0035
v  0.0675 -0.0053 0.0055
v  0.0578 -0.0050 -0.0073
v  0.0686 -0.0053 0.0031
v  0.0747 -0.0053 0.0055
v  0.0744 -0.0053 0.0044
v  0.0917 -0.0050 -0.0018
v  0.1063 -0.0050 0.0015
v  0.1079 -0.0050 0.0025
v  0.1085 -0.0050 0.0042
v  0.1085 -0.0050 0.0050
v  0.0917 -0.0047 -0.0018
v  0.0744 -0.0042 0.0044
v  0.0747 -0.0042 0.0055
v  0.1085 -0.0047 0.0050
v  0.1085 -0.0047 0.0042
v  0.1079 -0.0047 0.0025
v  0.1063 -0.0047 0.0015
v  0.0760 -0.0050 -0.0048
v  0.0726 -0.0053 0.0024
v  0.0760 -0.0047 -0.0048
v  0.0726 -0.0042 0.0024
v  0.0578 -0.0047 -0.0073
v  0.0686 -0.0042 0.0031
v  0.0233 -0.0042 0.0038
v  0.0237 -0.0053 -0.0037
v  0.0237 -0.0042 -0.0037
v  0.0254 -0.0050 -0.0095
v  0.0254 -0.0047 -0.0095
v  0.0240 -0.0053 0.0039
v  0.0240 -0.0042 0.0039
v  0.0033 -0.0053 -0.0169
v  0.0033 -0.0041 -0.0169
v  -0.0038 -0.0041 -0.0169
v  -0.0038 -0.0053 -0.0169
v  -0.0051 -0.0041 -0.0242
v  -0.0024 -0.0041 -0.0240
v  0.0026 -0.0041 -0.0240
v  0.0037 -0.0041 -0.0245
v  0.0038 -0.0041 -0.0248
v  0.0036 -0.0041 -0.0251
v  -0.0092 -0.0041 -0.0251
v  -0.0092 -0.0047 -0.0250
v  -0.0101 -0.0047 -0.0262
v  0.0041 -0.0041 -0.0256
v  0.0050 -0.0041 -0.0674
v  0.0030 -0.0041 -0.0667
v  -0.0092 -0.0047 -0.0418
v  -0.0038 -0.0053 -0.0226
v  -0.0024 -0.0053 -0.0240
v  0.0026 -0.0053 -0.0240
v  0.0033 -0.0053 -0.0233
v  0.0037 -0.0053 -0.0245
v  -0.0051 -0.0053 -0.0242
v  -0.0092 -0.0050 -0.0250
v  -0.0092 -0.0053 -0.0251
v  0.0036 -0.0053 -0.0251
v  0.0038 -0.0053 -0.0248
v  -0.0038 -0.0041 -0.0226
v  0.0041 -0.0053 -0.0256
v  -0.0101 -0.0050 -0.0262
v  -0.0092 -0.0050 -0.0418
v  0.0030 -0.0053 -0.0667
v  0.0050 -0.0053 -0.0674
v  -0.0078 -0.0050 -0.0577
v  0.0027 -0.0053 -0.0685
v  0.0050 -0.0053 -0.0746
v  0.0039 -0.0053 -0.0742
v  -0.0023 -0.0050 -0.0915
v  0.0010 -0.0050 -0.1061
v  0.0020 -0.0050 -0.1076
v  0.0037 -0.0050 -0.1083
v  0.0045 -0.0050 -0.1083
v  -0.0023 -0.0047 -0.0915
v  0.0039 -0.0041 -0.0742
v  0.0050 -0.0041 -0.0746
v  0.0045 -0.0047 -0.1083
v  0.0037 -0.0047 -0.1083
v  0.0020 -0.0047 -0.1076
v  0.0010 -0.0047 -0.1061
v  -0.0052 -0.0050 -0.0759
v  0.0019 -0.0053 -0.0725
v  -0.0052 -0.0047 -0.0759
v  0.0019 -0.0041 -0.0725
v  -0.0078 -0.0047 -0.0577
v  0.0027 -0.0041 -0.0685
v  0.0033 -0.0041 -0.0233
v  -0.0042 -0.0053 -0.0236
v  -0.0042 -0.0041 -0.0236
v  -0.0099 -0.0050 -0.0254
v  -0.0099 -0.0047 -0.0254
v  0.0034 -0.0053 -0.0239
v  0.0034 -0.0041 -0.0239
v  -0.0173 -0.0053 -0.0033
v  -0.0173 -0.0041 -0.0033
v  -0.0173 -0.0041 0.0038
v  -0.0173 -0.0053 0.0038
v  -0.0246 -0.0041 0.0051
v  -0.0244 -0.0041 0.0024
v  -0.0244 -0.0041 -0.0026
v  -0.0249 -0.0041 -0.0037
v  -0.0252 -0.0041 -0.0038
v  -0.0255 -0.0041 -0.0036
v  -0.0255 -0.0041 0.0092
v  -0.0254 -0.0047 0.0092
v  -0.0266 -0.0047 0.0101
v  -0.0260 -0.0041 -0.0041
v  -0.0677 -0.0041 -0.0050
v  -0.0671 -0.0041 -0.0030
v  -0.0421 -0.0047 0.0092
v  -0.0230 -0.0053 0.0038
v  -0.0244 -0.0053 0.0024
v  -0.0244 -0.0053 -0.0026
v  -0.0237 -0.0053 -0.0033
v  -0.0249 -0.0053 -0.0037
v  -0.0246 -0.0053 0.0051
v  -0.0254 -0.0050 0.0092
v  -0.0255 -0.0053 0.0092
v  -0.0255 -0.0053 -0.0036
v  -0.0252 -0.0053 -0.0038
v  -0.0230 -0.0041 0.0038
v  -0.0260 -0.0053 -0.0041
v  -0.0266 -0.0050 0.0101
v  -0.0421 -0.0050 0.0092
v  -0.0671 -0.0053 -0.0030
v  -0.0677 -0.0053 -0.0050
v  -0.0580 -0.0050 0.0078
v  -0.0688 -0.0053 -0.0027
v  -0.0749 -0.0053 -0.0050
v  -0.0745 -0.0053 -0.0039
v  -0.0918 -0.0050 0.0023
v  -0.1063 -0.0050 -0.0010
v  -0.1079 -0.0050 -0.0020
v  -0.1085 -0.0050 -0.0037
v  -0.1085 -0.0050 -0.0045
v  -0.0918 -0.0047 0.0023
v  -0.0745 -0.0041 -0.0039
v  -0.0749 -0.0041 -0.0050
v  -0.1085 -0.0047 -0.0045
v  -0.1085 -0.0047 -0.0037
v  -0.1079 -0.0047 -0.0020
v  -0.1063 -0.0047 -0.0010
v  -0.0762 -0.0050 0.0052
v  -0.0728 -0.0053 -0.0019
v  -0.0762 -0.0047 0.0052
v  -0.0728 -0.0041 -0.0019
v  -0.0580 -0.0047 0.0078
v  -0.0688 -0.0041 -0.0027
v  -0.0237 -0.0041 -0.0033
v  -0.0241 -0.0053 0.0042
v  -0.0241 -0.0041 0.0042
v  -0.0258 -0.0050 0.0099
v  -0.0258 -0.0047 0.0099
v  -0.0243 -0.0053 -0.0034
v  -0.0243 -0.0041 -0.0034
v  -0.0038 -0.0054 0.0173
v  -0.0038 -0.0041 0.0173
v  0.0033 -0.0041 0.0173
v  0.0033 -0.0054 0.0173
v  0.0046 -0.0041 0.0246
v  0.0019 -0.0041 0.0243
v  -0.0031 -0.0041 0.0243
v  -0.0041 -0.0041 0.0249
v  -0.0043 -0.0041 0.0251
v  -0.0041 -0.0041 0.0255
v  0.0087 -0.0041 0.0255
v  0.0087 -0.0046 0.0253
v  0.0096 -0.0046 0.0265
v  -0.0045 -0.0041 0.0259
v  -0.0055 -0.0041 0.0675
v  -0.0035 -0.0041 0.0669
v  0.0087 -0.0046 0.0421
v  0.0033 -0.0054 0.0230
v  0.0019 -0.0054 0.0243
v  -0.0031 -0.0054 0.0243
v  -0.0038 -0.0054 0.0236
v  -0.0041 -0.0054 0.0249
v  0.0046 -0.0054 0.0246
v  0.0087 -0.0050 0.0253
v  0.0087 -0.0054 0.0255
v  -0.0041 -0.0054 0.0255
v  -0.0043 -0.0054 0.0251
v  0.0033 -0.0041 0.0230
v  -0.0045 -0.0054 0.0259
v  0.0096 -0.0050 0.0265
v  0.0087 -0.0050 0.0421
v  -0.0035 -0.0054 0.0669
v  -0.0055 -0.0054 0.0675
v  0.0073 -0.0050 0.0579
v  -0.0031 -0.0054 0.0686
v  -0.0055 -0.0054 0.0747
v  -0.0044 -0.0054 0.0744
v  0.0018 -0.0050 0.0916
v  -0.0014 -0.0050 0.1061
v  -0.0024 -0.0050 0.1076
v  -0.0042 -0.0050 0.1083
v  -0.0050 -0.0050 0.1083
v  0.0018 -0.0046 0.0916
v  -0.0044 -0.0041 0.0744
v  -0.0055 -0.0041 0.0747
v  -0.0050 -0.0046 0.1083
v  -0.0042 -0.0046 0.1083
v  -0.0024 -0.0046 0.1076
v  -0.0014 -0.0046 0.1061
v  0.0048 -0.0050 0.0760
v  -0.0024 -0.0054 0.0726
v  0.0048 -0.0046 0.0760
v  -0.0024 -0.0041 0.0726
v  0.0073 -0.0046 0.0579
v  -0.0031 -0.0041 0.0686
v  -0.0038 -0.0041 0.0236
v  0.0037 -0.0054 0.0240
v  0.0037 -0.0041 0.0240
v  0.0094 -0.0050 0.0257
v  0.0094 -0.0046 0.0257
v  -0.0039 -0.0054 0.0243
v  -0.0039 -0.0041 0.0243
v  0.0012 -0.0069 -0.0183
v  0.0014 0.0089 -0.0184
v  0.0046 0.0089 -0.0179
v  0.0044 -0.0070 -0.0178
v  0.0077 0.0089 -0.0168
v  0.0075 -0.0070 -0.0167
v  0.0105 0.0088 -0.0152
v  0.0103 -0.0070 -0.0151
v  0.0130 0.0088 -0.0132
v  0.0128 -0.0071 -0.0130
v  0.0151 0.0088 -0.0107
v  0.0149 -0.0071 -0.0106
v  0.0167 0.0088 -0.0079
v  0.0165 -0.0071 -0.0077
v  0.0178 0.0088 -0.0048
v  0.0176 -0.0071 -0.0047
v  0.0183 0.0088 -0.0016
v  0.0181 -0.0071 -0.0015
v  0.0183 0.0089 0.0017
v  0.0181 -0.0070 0.0018
v  0.0176 0.0089 0.0048
v  0.0174 -0.0070 0.0050
v  0.0164 0.0089 0.0079
v  0.0162 -0.0070 0.0080
v  0.0147 0.0090 0.0106
v  0.0145 -0.0069 0.0107
v  0.0125 0.0090 0.0130
v  0.0123 -0.0069 0.0131
v  0.0100 0.0091 0.0150
v  0.0097 -0.0068 0.0151
v  0.0071 0.0091 0.0165
v  0.0069 -0.0068 0.0166
v  0.0040 0.0092 0.0174
v  0.0038 -0.0067 0.0176
v  0.0008 0.0092 0.0178
v  0.0005 -0.0067 0.0179
v  -0.0025 0.0093 0.0176
v  -0.0027 -0.0066 0.0177
v  -0.0056 0.0093 0.0168
v  -0.0059 -0.0066 0.0170
v  -0.0086 0.0093 0.0155
v  -0.0088 -0.0065 0.0156
v  -0.0113 0.0094 0.0137
v  -0.0115 -0.0065 0.0138
v  -0.0136 0.0094 0.0114
v  -0.0138 -0.0065 0.0115
v  -0.0155 0.0094 0.0087
v  -0.0157 -0.0065 0.0088
v  -0.0168 0.0094 0.0058
v  -0.0170 -0.0065 0.0059
v  -0.0176 0.0094 0.0026
v  -0.0178 -0.0065 0.0027
v  -0.0179 0.0093 -0.0006
v  -0.0181 -0.0065 -0.0005
v  -0.0175 0.0093 -0.0038
v  -0.0177 -0.0066 -0.0037
v  -0.0166 0.0093 -0.0070
v  -0.0168 -0.0066 -0.0068
v  -0.0151 0.0092 -0.0099
v  -0.0154 -0.0066 -0.0097
v  -0.0132 0.0092 -0.0125
v  -0.0134 -0.0067 -0.0123
v  -0.0108 0.0091 -0.0147
v  -0.0110 -0.0067 -0.0145
v  -0.0080 0.0091 -0.0164
v  -0.0083 -0.0068 -0.0163
v  -0.0050 0.0090 -0.0176
v  -0.0053 -0.0068 -0.0175
v  -0.0019 0.0090 -0.0183
v  -0.0021 -0.0069 -0.0182
v  0.0106 -0.0075 0.0113
v  0.0124 -0.0076 0.0092
v  -0.0155 -0.0072 -0.0004
v  -0.0152 -0.0073 -0.0032
v  -0.0152 -0.0089 -0.0032
v  -0.0155 -0.0089 -0.0004
v  -0.0119 -0.0072 0.0099
v  -0.0099 -0.0072 0.0118
v  -0.0095 -0.0074 -0.0125
v  -0.0115 -0.0074 -0.0106
v  0.0155 -0.0077 0.0015
v  0.0155 -0.0077 -0.0013
v  -0.0023 -0.0073 0.0152
v  0.0004 -0.0073 0.0154
v  0.0128 -0.0077 -0.0091
v  0.0110 -0.0077 -0.0112
v  0.0084 -0.0075 0.0130
v  -0.0135 -0.0072 0.0076
v  0.0038 -0.0076 -0.0153
v  0.0010 -0.0076 -0.0157
v  -0.0071 -0.0075 -0.0140
v  0.0149 -0.0076 0.0042
v  -0.0050 -0.0073 0.0145
v  -0.0144 -0.0073 -0.0059
v  0.0142 -0.0077 -0.0067
v  0.0059 -0.0074 0.0142
v  -0.0146 -0.0072 0.0050
v  -0.0045 -0.0075 -0.0150
v  0.0064 -0.0076 -0.0144
v  0.0139 -0.0076 0.0068
v  -0.0076 -0.0072 0.0134
v  -0.0132 -0.0073 -0.0084
v  0.0151 -0.0077 -0.0040
v  0.0032 -0.0074 0.0151
v  -0.0153 -0.0072 0.0023
v  -0.0018 -0.0075 -0.0156
v  0.0088 -0.0077 -0.0130
v  0.0010 -0.0093 -0.0157
v  0.0037 -0.0093 -0.0153
v  0.0064 -0.0093 -0.0143
v  0.0088 -0.0094 -0.0130
v  0.0110 -0.0094 -0.0112
v  0.0128 -0.0094 -0.0091
v  0.0141 -0.0094 -0.0067
v  0.0151 -0.0094 -0.0040
v  0.0155 -0.0094 -0.0013
v  0.0155 -0.0093 0.0015
v  0.0149 -0.0093 0.0043
v  0.0139 -0.0093 0.0068
v  0.0124 -0.0092 0.0092
v  0.0106 -0.0092 0.0113
v  0.0083 -0.0091 0.0130
v  0.0059 -0.0091 0.0143
v  0.0032 -0.0091 0.0151
v  0.0004 -0.0090 0.0154
v  -0.0024 -0.0090 0.0152
v  -0.0051 -0.0089 0.0146
v  -0.0076 -0.0089 0.0134
v  -0.0099 -0.0089 0.0118
v  -0.0119 -0.0089 0.0099
v  -0.0135 -0.0089 0.0076
v  -0.0147 -0.0089 0.0051
v  -0.0153 -0.0089 0.0024
v  -0.0145 -0.0090 -0.0059
v  -0.0132 -0.0090 -0.0084
v  -0.0115 -0.0091 -0.0106
v  -0.0095 -0.0091 -0.0125
v  -0.0071 -0.0091 -0.0140
v  -0.0045 -0.0092 -0.0150
v  -0.0018 -0.0092 -0.0156
# 388 vertices

vn -1.0000 0.0000 -0.0000
vn -0.4746 0.8736 -0.1079
vn 0.0476 0.9769 -0.2081
vn -0.0000 -1.0000 -0.0000
vn -0.2965 -0.9526 -0.0674
vn 0.0000 0.0000 -1.0000
vn 0.0277 -0.9923 -0.1211
vn -0.9838 0.0000 -0.1793
vn 0.0112 -0.9843 -0.1759
vn 0.0467 -0.9938 -0.1008
vn 0.0806 0.9815 -0.1738
vn 1.0000 0.0000 -0.0000
vn 0.0172 -0.9776 -0.2098
vn 0.0529 -0.9811 -0.1860
vn 0.0889 0.9456 -0.3129
vn 0.0288 0.9361 -0.3506
vn 0.0189 0.9545 -0.2977
vn 0.1855 0.0000 -0.9827
vn 0.1387 0.0000 -0.9903
vn 0.0917 0.0000 -0.9958
vn -0.0000 1.0000 -0.0000
vn 0.0000 -1.0000 -0.0000
vn 0.0000 1.0000 -0.0000
vn -0.0038 0.0000 1.0000
vn 0.0150 0.0000 0.9999
vn -0.8563 0.0000 -0.5165
vn -0.3547 0.0000 -0.9350
vn -0.0224 0.0000 0.9997
vn -0.8475 -0.0887 -0.5233
vn -0.2953 -0.3084 -0.9043
vn -0.3052 0.1826 -0.9346
vn -0.8498 0.0510 -0.5247
vn -0.3104 0.0000 -0.9506
vn -0.8509 0.0000 -0.5254
vn 0.0573 0.0000 -0.9984
vn -0.1651 0.0000 0.9863
vn -0.3985 0.0000 0.9172
vn 0.0000 0.0000 1.0000
vn -0.2946 0.0000 0.9556
vn -0.5445 0.0000 0.8388
vn 0.9377 0.0000 -0.3474
vn 0.5446 0.0000 -0.8387
vn 0.2193 0.0000 -0.9757
vn -0.1121 0.8626 0.4933
vn -0.2185 0.9746 -0.0500
vn -0.0706 -0.9479 0.3106
vn -0.1274 -0.9914 -0.0292
vn -0.1793 0.0000 0.9838
vn -0.1849 -0.9827 -0.0118
vn -0.1061 -0.9931 -0.0492
vn -0.1826 0.9795 -0.0846
vn -0.2203 -0.9753 -0.0181
vn -0.1954 -0.9791 -0.0555
vn -0.3275 0.9402 -0.0931
vn -0.3667 0.9299 -0.0301
vn -0.3119 0.9499 -0.0198
vn -0.9827 0.0000 -0.1855
vn -0.9903 0.0000 -0.1387
vn -0.9958 0.0000 -0.0917
vn 1.0000 0.0000 0.0038
vn 0.9999 0.0000 -0.0150
vn -0.5165 0.0000 0.8563
vn -0.9350 0.0000 0.3547
vn 0.9997 0.0000 0.0224
vn -0.5235 -0.0843 0.8478
vn -0.9085 -0.2944 0.2966
vn -0.9361 0.1738 0.3057
vn -0.5248 0.0484 0.8499
vn -0.9506 0.0000 0.3104
vn -0.5254 0.0000 0.8509
vn -0.9984 0.0000 -0.0573
vn 0.9863 0.0000 0.1651
vn 0.9172 0.0000 0.3985
vn 0.9556 0.0000 0.2947
vn 0.8388 0.0000 0.5445
vn -0.3474 0.0000 -0.9377
vn -0.8387 0.0000 -0.5446
vn -0.9757 0.0000 -0.2193
vn 0.5122 0.8509 0.1164
vn -0.0525 0.9719 0.2294
vn 0.3252 -0.9428 0.0739
vn -0.0307 -0.9905 0.1339
vn 0.9838 0.0000 0.1793
vn -0.0123 -0.9809 0.1942
vn -0.0517 -0.9924 0.1116
vn -0.0889 0.9774 0.1918
vn -0.0190 -0.9727 0.2313
vn -0.0583 -0.9770 0.2052
vn -0.0974 0.9344 0.3426
vn -0.0314 0.9231 0.3832
vn -0.0208 0.9449 0.3266
vn -0.1855 0.0000 0.9827
vn -0.1387 0.0000 0.9903
vn -0.0917 0.0000 0.9958
vn 0.0038 0.0000 -1.0000
vn -0.0150 0.0000 -0.9999
vn 0.8563 0.0000 0.5165
vn 0.3547 0.0000 0.9350
vn 0.0224 0.0000 -0.9997
vn 0.8481 -0.0801 0.5237
vn 0.2979 -0.2808 0.9123
vn 0.3061 0.1653 0.9375
vn 0.8500 0.0460 0.5248
vn 0.3104 0.0000 0.9506
vn 0.8509 0.0000 0.5254
vn -0.0573 0.0000 0.9984
vn 0.1651 0.0000 -0.9863
vn 0.3985 0.0000 -0.9172
vn 0.2947 0.0000 -0.9556
vn 0.5444 0.0000 -0.8388
vn -0.9377 0.0000 0.3474
vn -0.5446 0.0000 0.8387
vn -0.2193 0.0000 0.9757
vn 0.1208 0.8385 -0.5314
vn 0.2408 0.9690 0.0551
vn 0.0773 -0.9372 -0.3402
vn 0.1408 -0.9895 0.0322
vn 0.1793 0.0000 -0.9838
vn 0.2040 -0.9789 0.0130
vn 0.1173 -0.9916 0.0544
vn 0.2014 0.9751 0.0934
vn 0.2428 -0.9699 0.0199
vn 0.2155 -0.9746 0.0612
vn 0.3582 0.9281 0.1018
vn 0.4002 0.9159 0.0328
vn 0.3418 0.9395 0.0217
vn 0.9827 0.0000 0.1855
vn 0.9903 0.0000 0.1387
vn 0.9958 0.0000 0.0917
vn -1.0000 0.0000 -0.0038
vn -0.9999 0.0000 0.0150
vn 0.5165 0.0000 -0.8563
vn 0.9350 0.0000 -0.3547
vn -0.9997 0.0000 -0.0224
vn 0.5239 -0.0761 -0.8484
vn 0.9159 -0.2678 -0.2991
vn 0.9388 0.1573 -0.3065
vn 0.5249 0.0437 -0.8501
vn 0.9506 0.0000 -0.3104
vn 0.5254 0.0000 -0.8509
vn 0.9984 0.0000 0.0573
vn -0.9863 0.0000 -0.1651
vn -0.9172 0.0000 -0.3985
vn -0.9556 0.0000 -0.2947
vn -0.8388 0.0000 -0.5445
vn 0.3474 0.0000 0.9377
vn 0.8387 0.0000 0.5446
vn 0.9757 0.0000 0.2193
vn 0.0626 -0.0014 -0.9980
vn 0.2398 -0.0017 -0.9708
vn 0.4093 -0.0020 -0.9124
vn 0.5656 -0.0022 -0.8246
vn 0.7038 -0.0024 -0.7104
vn 0.8194 -0.0025 -0.5733
vn 0.9086 -0.0025 -0.4177
vn 0.9686 -0.0024 -0.2488
vn 0.9974 -0.0023 -0.0718
vn 0.9942 -0.0021 0.1074
vn 0.9590 -0.0018 0.2832
vn 0.8931 -0.0014 0.4499
vn 0.7984 -0.0010 0.6022
vn 0.6780 -0.0006 0.7350
vn 0.5359 -0.0001 0.8443
vn 0.3766 0.0003 0.9264
vn 0.2051 0.0007 0.9787
vn 0.0271 0.0012 0.9996
vn -0.1518 0.0015 0.9884
vn -0.3259 0.0019 0.9454
vn -0.4894 0.0021 0.8720
vn -0.6373 0.0023 0.7706
vn -0.7647 0.0025 0.6444
vn -0.8675 0.0025 0.4975
vn -0.9424 0.0025 0.3346
vn -0.9870 0.0024 0.1609
vn -0.9998 0.0022 -0.0179
vn -0.9806 0.0019 -0.1961
vn -0.9298 0.0016 -0.3681
vn -0.8491 0.0012 -0.5282
vn -0.7412 0.0008 -0.6713
vn -0.6094 0.0004 -0.7928
vn -0.4581 -0.0001 -0.8889
vn -0.2920 -0.0005 -0.9564
vn 0.0884 0.9949 -0.0491
vn -0.1166 -0.0010 -0.9932
vn 0.6464 -0.5299 0.5490
vn 0.5377 -0.5255 0.6593
vn -0.5669 -0.4976 0.6565
vn -0.6700 -0.4965 0.5519
vn -0.6689 -0.5116 -0.5393
vn -0.5623 -0.5159 -0.6463
vn 0.8385 -0.5436 -0.0371
vn 0.8321 -0.5411 0.1217
vn -0.0226 -0.5083 0.8609
vn -0.1711 -0.5048 0.8461
vn -0.8665 -0.4991 0.0100
vn -0.8543 -0.5014 -0.1371
vn 0.5790 -0.5451 -0.6063
vn 0.6831 -0.5461 -0.4849
vn 0.4120 -0.5210 0.7476
vn -0.7535 -0.4961 0.4314
vn 0.0074 -0.5335 -0.8458
vn 0.1633 -0.5373 -0.8274
vn -0.4374 -0.5203 -0.7335
vn 0.7967 -0.5378 0.2758
vn -0.3140 -0.5018 0.8060
vn -0.8167 -0.5043 -0.2806
vn 0.7628 -0.5461 -0.3461
vn 0.2736 -0.5165 0.8114
vn -0.8152 -0.4964 0.2983
vn -0.2979 -0.5248 -0.7974
vn 0.3142 -0.5406 -0.7804
vn 0.7338 -0.5341 0.4198
vn -0.4471 -0.4994 0.7421
vn -0.7544 -0.5078 -0.4160
vn 0.8152 -0.5453 -0.1950
vn 0.1272 -0.5123 0.8494
vn -0.8533 -0.4974 0.1565
vn -0.8533 -0.4974 0.1566
vn -0.1481 -0.5292 -0.8355
vn 0.4545 -0.5432 -0.7059
vn -0.0884 -0.9949 0.0491
# 221 vertex normals

vt 0.3671 0.2550 0.0000
vt 0.3671 0.2776 0.0000
vt 0.3445 0.2776 0.0000
vt 0.3445 0.2550 0.0000
vt 1.6206 0.6367 0.0000
vt 1.6317 0.6360 0.0000
vt 1.6523 0.6364 0.0000
vt 1.6565 0.6389 0.0000
vt 1.6571 0.6398 0.0000
vt 1.6563 0.6413 0.0000
vt 1.6039 0.6401 0.0000
vt 1.6035 0.6394 0.0000
vt 1.5996 0.6441 0.0000
vt 1.6581 0.6431 0.0000
vt 1.6581 0.8141 0.0000
vt 1.6500 0.8114 0.0000
vt 1.6018 0.7081 0.0000
vt 1.6848 0.9815 0.0000
vt 1.6843 0.9581 0.0000
vt 1.6897 0.9524 0.0000
vt 1.7103 0.9519 0.0000
vt 1.7132 0.9547 0.0000
vt 1.7138 0.9808 0.0000
vt 1.7146 0.9495 0.0000
vt 1.6787 0.9517 0.0000
vt 1.6618 0.9490 0.0000
vt 1.6619 0.9482 0.0000
vt 1.7143 0.9471 0.0000
vt 1.7152 0.9485 0.0000
vt 0.0219 0.3013 0.0000
vt 0.0219 0.2787 0.0000
vt 0.0400 0.2787 0.0000
vt 0.0400 0.3013 0.0000
vt 1.7161 0.9452 0.0000
vt 1.6579 0.9442 0.0000
vt 1.6601 0.8802 0.0000
vt 1.7080 0.7770 0.0000
vt 1.7161 0.7742 0.0000
vt 0.0168 0.1758 0.0000
vt 0.0168 0.1984 0.0000
vt 0.0038 0.1882 0.0000
vt 0.0038 0.1816 0.0000
vt 1.6646 0.8151 0.0000
vt 1.7064 0.7699 0.0000
vt 1.7156 0.7448 0.0000
vt 1.7110 0.7463 0.0000
vt 1.6841 0.6760 0.0000
vt 1.6961 0.6162 0.0000
vt 1.7001 0.6098 0.0000
vt 1.7071 0.6070 0.0000
vt 1.7104 0.6069 0.0000
vt 1.6257 0.9123 0.0000
vt 1.6530 0.8421 0.0000
vt 1.6575 0.8436 0.0000
vt 1.6521 0.9814 0.0000
vt 1.6488 0.9813 0.0000
vt 1.6417 0.9785 0.0000
vt 1.6378 0.9721 0.0000
vt 0.0301 0.2395 0.0000
vt 0.0367 0.2395 0.0000
vt 0.0367 0.2421 0.0000
vt 0.0301 0.2421 0.0000
vt 1.6734 0.7404 0.0000
vt 1.7031 0.7536 0.0000
vt 1.6151 0.8479 0.0000
vt 1.6450 0.8347 0.0000
vt 1.6063 0.7732 0.0000
vt 1.6484 0.8184 0.0000
vt 1.6345 0.3917 0.0000
vt 1.6411 0.3917 0.0000
vt 1.6410 0.4426 0.0000
vt 1.6345 0.4426 0.0000
vt 1.6410 0.5014 0.0000
vt 1.6344 0.5014 0.0000
vt 1.6410 0.5523 0.0000
vt 1.6345 0.5523 0.0000
vt 1.6263 0.6303 0.0000
vt 1.6268 0.6069 0.0000
vt 1.6557 0.6075 0.0000
vt 1.6551 0.6337 0.0000
vt 0.8316 0.7399 0.0000
vt 0.8542 0.7399 0.0000
vt 0.8542 0.7627 0.0000
vt 0.8316 0.7627 0.0000
vt 0.8484 0.8694 0.0000
vt 0.8418 0.8694 0.0000
vt 1.6826 0.9539 0.0000
vt 1.6246 0.6345 0.0000
vt 0.0198 0.1758 0.0000
vt 0.0198 0.1984 0.0000
vt 0.0431 0.2787 0.0000
vt 0.0431 0.3013 0.0000
vt 0.8316 0.6070 0.0000
vt 0.8542 0.6070 0.0000
vt 0.0016 0.1816 0.0000
vt 0.0039 0.1757 0.0000
vt 1.6411 0.6045 0.0000
vt 1.6411 0.6022 0.0000
vt 1.6469 0.6050 0.0000
vt 1.6345 0.6022 0.0000
vt 1.6345 0.6045 0.0000
vt 1.6243 0.6050 0.0000
vt 0.0016 0.1882 0.0000
vt 0.0039 0.1983 0.0000
vt 1.7135 0.9520 0.0000
vt 1.6555 0.6364 0.0000
vt 0.8316 0.5994 0.0000
vt 0.8542 0.5994 0.0000
vt 0.8542 0.6015 0.0000
vt 0.8316 0.6015 0.0000
vt 0.8542 0.6035 0.0000
vt 0.8316 0.6035 0.0000
vt 0.8316 0.5791 0.0000
vt 0.8542 0.5791 0.0000
vt 0.8316 0.6043 0.0000
vt 0.8542 0.6043 0.0000
vt 0.0301 0.2342 0.0000
vt 0.0367 0.2342 0.0000
vt 1.6345 0.3389 0.0000
vt 1.6411 0.3389 0.0000
vt 1.6411 0.3442 0.0000
vt 1.6345 0.3442 0.0000
vt 0.3192 0.3124 0.0000
vt 0.3192 0.2854 0.0000
vt 0.3447 0.2854 0.0000
vt 0.3447 0.3124 0.0000
vt 1.6207 0.6372 0.0000
vt 1.6317 0.6364 0.0000
vt 1.6522 0.6369 0.0000
vt 1.6565 0.6393 0.0000
vt 1.6571 0.6403 0.0000
vt 1.6562 0.6418 0.0000
vt 1.6039 0.6406 0.0000
vt 1.6038 0.6402 0.0000
vt 1.5999 0.6449 0.0000
vt 1.6580 0.6436 0.0000
vt 1.6580 0.8142 0.0000
vt 1.6499 0.8114 0.0000
vt 1.6021 0.7088 0.0000
vt 1.6849 0.9812 0.0000
vt 1.6844 0.9579 0.0000
vt 1.6898 0.9522 0.0000
vt 1.7103 0.9517 0.0000
vt 1.7132 0.9544 0.0000
vt 1.7138 0.9805 0.0000
vt 1.7146 0.9493 0.0000
vt 1.6787 0.9514 0.0000
vt 1.6620 0.9488 0.0000
vt 1.6620 0.9480 0.0000
vt 1.7143 0.9468 0.0000
vt 1.7152 0.9483 0.0000
vt 0.0005 0.3004 0.0000
vt 0.0005 0.2785 0.0000
vt 0.0173 0.2785 0.0000
vt 0.0173 0.3004 0.0000
vt 1.7161 0.9450 0.0000
vt 1.6580 0.9440 0.0000
vt 1.6603 0.8801 0.0000
vt 1.7080 0.7771 0.0000
vt 1.7161 0.7744 0.0000
vt 0.0166 0.1757 0.0000
vt 0.0166 0.1995 0.0000
vt 0.0034 0.1888 0.0000
vt 0.0034 0.1819 0.0000
vt 1.6648 0.8152 0.0000
vt 1.7064 0.7701 0.0000
vt 1.7156 0.7450 0.0000
vt 1.7111 0.7465 0.0000
vt 1.6841 0.6764 0.0000
vt 1.6962 0.6167 0.0000
vt 1.7001 0.6103 0.0000
vt 1.7071 0.6075 0.0000
vt 1.7104 0.6074 0.0000
vt 1.6260 0.9124 0.0000
vt 1.6523 0.9814 0.0000
vt 1.6490 0.9813 0.0000
vt 1.6420 0.9786 0.0000
vt 1.6380 0.9722 0.0000
vt 0.0301 0.2394 0.0000
vt 0.0370 0.2394 0.0000
vt 0.0370 0.2420 0.0000
vt 0.0301 0.2420 0.0000
vt 1.6735 0.7406 0.0000
vt 1.7031 0.7538 0.0000
vt 1.6154 0.8482 0.0000
vt 1.6066 0.7737 0.0000
vt 1.6484 0.8185 0.0000
vt 1.6345 0.3943 0.0000
vt 1.6414 0.3943 0.0000
vt 1.6414 0.4440 0.0000
vt 1.6345 0.4440 0.0000
vt 1.6413 0.5018 0.0000
vt 1.6344 0.5018 0.0000
vt 1.6413 0.5523 0.0000
vt 1.6344 0.5523 0.0000
vt 1.6263 0.6307 0.0000
vt 1.6268 0.6074 0.0000
vt 1.6557 0.6081 0.0000
vt 1.6551 0.6342 0.0000
vt 0.8308 0.7400 0.0000
vt 0.8546 0.7400 0.0000
vt 0.8546 0.7629 0.0000
vt 0.8308 0.7629 0.0000
vt 0.8485 0.8698 0.0000
vt 0.8416 0.8698 0.0000
vt 1.6827 0.9537 0.0000
vt 1.6246 0.6349 0.0000
vt 0.0199 0.1757 0.0000
vt 0.0199 0.1995 0.0000
vt 0.0204 0.2785 0.0000
vt 0.0204 0.3004 0.0000
vt 0.8308 0.6070 0.0000
vt 0.8546 0.6070 0.0000
vt 0.0010 0.1819 0.0000
vt 0.0033 0.1757 0.0000
vt 1.6412 0.6045 0.0000
vt 1.6412 0.6020 0.0000
vt 1.6474 0.6053 0.0000
vt 1.6343 0.6020 0.0000
vt 1.6343 0.6045 0.0000
vt 1.6236 0.6053 0.0000
vt 0.0010 0.1888 0.0000
vt 0.0033 0.1995 0.0000
vt 1.7136 0.9518 0.0000
vt 1.6555 0.6368 0.0000
vt 0.8308 0.5994 0.0000
vt 0.8546 0.5995 0.0000
vt 0.8546 0.6015 0.0000
vt 0.8308 0.6015 0.0000
vt 0.8546 0.6035 0.0000
vt 0.8308 0.6035 0.0000
vt 0.8308 0.5791 0.0000
vt 0.8546 0.5791 0.0000
vt 0.8308 0.6043 0.0000
vt 0.8546 0.6043 0.0000
vt 0.0370 0.2342 0.0000
vt 1.6346 0.3434 0.0000
vt 1.6415 0.3434 0.0000
vt 1.6415 0.3482 0.0000
vt 1.6346 0.3482 0.0000
vt 0.0144 0.0358 0.0000
vt 0.0144 0.0197 0.0000
vt 0.0288 0.0197 0.0000
vt 0.0288 0.0357 0.0000
vt 1.6208 0.6375 0.0000
vt 1.6318 0.6368 0.0000
vt 1.6523 0.6373 0.0000
vt 1.6565 0.6397 0.0000
vt 1.6571 0.6406 0.0000
vt 1.6563 0.6421 0.0000
vt 1.6041 0.6410 0.0000
vt 1.6044 0.6403 0.0000
vt 1.6004 0.6450 0.0000
vt 1.6581 0.6439 0.0000
vt 1.6581 0.8142 0.0000
vt 1.6500 0.8115 0.0000
vt 1.6027 0.7088 0.0000
vt 1.6849 0.9804 0.0000
vt 1.6844 0.9571 0.0000
vt 1.6898 0.9514 0.0000
vt 1.7103 0.9510 0.0000
vt 1.7132 0.9537 0.0000
vt 1.7137 0.9797 0.0000
vt 1.7146 0.9486 0.0000
vt 1.6788 0.9507 0.0000
vt 1.6621 0.9473 0.0000
vt 1.7143 0.9461 0.0000
vt 1.7152 0.9476 0.0000
vt 0.0404 0.0180 0.0000
vt 0.0404 0.0020 0.0000
vt 0.0520 0.0020 0.0000
vt 0.0520 0.0180 0.0000
vt 1.7161 0.9443 0.0000
vt 1.6581 0.9433 0.0000
vt 1.6603 0.8796 0.0000
vt 1.7080 0.7768 0.0000
vt 1.7161 0.7740 0.0000
vt 0.0169 0.1748 0.0000
vt 0.0169 0.1997 0.0000
vt 0.0037 0.1885 0.0000
vt 0.0037 0.1812 0.0000
vt 1.6648 0.8148 0.0000
vt 1.7064 0.7697 0.0000
vt 1.7155 0.7447 0.0000
vt 1.7111 0.7462 0.0000
vt 1.6842 0.6763 0.0000
vt 1.6265 0.9120 0.0000
vt 1.6530 0.8420 0.0000
vt 1.6527 0.9809 0.0000
vt 1.6494 0.9808 0.0000
vt 1.6424 0.9780 0.0000
vt 1.6385 0.9716 0.0000
vt 0.0299 0.2397 0.0000
vt 0.0372 0.2397 0.0000
vt 0.0372 0.2423 0.0000
vt 0.0299 0.2423 0.0000
vt 1.6736 0.7404 0.0000
vt 1.7031 0.7535 0.0000
vt 1.6159 0.8479 0.0000
vt 1.6451 0.8347 0.0000
vt 1.6072 0.7735 0.0000
vt 1.6343 0.3926 0.0000
vt 1.6416 0.3926 0.0000
vt 1.6416 0.4432 0.0000
vt 1.6343 0.4432 0.0000
vt 1.6416 0.5018 0.0000
vt 1.6343 0.5018 0.0000
vt 1.6416 0.5525 0.0000
vt 1.6343 0.5525 0.0000
vt 1.6264 0.6311 0.0000
vt 1.6269 0.6079 0.0000
vt 1.6557 0.6085 0.0000
vt 1.6551 0.6345 0.0000
vt 0.8301 0.7392 0.0000
vt 0.8550 0.7392 0.0000
vt 0.8550 0.7619 0.0000
vt 0.8301 0.7619 0.0000
vt 0.8486 0.8682 0.0000
vt 0.8413 0.8682 0.0000
vt 1.6827 0.9529 0.0000
vt 1.6247 0.6353 0.0000
vt 0.0201 0.1748 0.0000
vt 0.0201 0.1998 0.0000
vt 0.0540 0.0020 0.0000
vt 0.0540 0.0180 0.0000
vt 0.8300 0.6069 0.0000
vt 0.8550 0.6069 0.0000
vt 0.0014 0.1812 0.0000
vt 0.0037 0.1748 0.0000
vt 1.6416 0.6045 0.0000
vt 1.6416 0.6022 0.0000
vt 1.6481 0.6050 0.0000
vt 1.6343 0.6022 0.0000
vt 1.6344 0.6045 0.0000
vt 1.6231 0.6050 0.0000
vt 0.0014 0.1885 0.0000
vt 0.0037 0.1997 0.0000
vt 1.7135 0.9510 0.0000
vt 1.6555 0.6372 0.0000
vt 0.8301 0.5993 0.0000
vt 0.8550 0.5993 0.0000
vt 0.8550 0.6014 0.0000
vt 0.8301 0.6014 0.0000
vt 0.8550 0.6034 0.0000
vt 0.8301 0.6034 0.0000
vt 0.8301 0.5791 0.0000
vt 0.8550 0.5792 0.0000
vt 0.8301 0.6042 0.0000
vt 0.8550 0.6042 0.0000
vt 0.0299 0.2342 0.0000
vt 0.0372 0.2342 0.0000
vt 1.6344 0.3400 0.0000
vt 1.6416 0.3400 0.0000
vt 1.6416 0.3453 0.0000
vt 1.6344 0.3453 0.0000
vt 0.3466 0.3146 0.0000
vt 0.3466 0.2847 0.0000
vt 0.3720 0.2847 0.0000
vt 0.3720 0.3145 0.0000
vt 1.6208 0.6380 0.0000
vt 1.6318 0.6373 0.0000
vt 1.6523 0.6378 0.0000
vt 1.6565 0.6402 0.0000
vt 1.6571 0.6411 0.0000
vt 1.6563 0.6426 0.0000
vt 1.6042 0.6414 0.0000
vt 1.6041 0.6403 0.0000
vt 1.6002 0.6451 0.0000
vt 1.6580 0.6444 0.0000
vt 1.6580 0.8143 0.0000
vt 1.6500 0.8116 0.0000
vt 1.6024 0.7087 0.0000
vt 1.6850 0.9801 0.0000
vt 1.6845 0.9569 0.0000
vt 1.6899 0.9512 0.0000
vt 1.7104 0.9507 0.0000
vt 1.7132 0.9534 0.0000
vt 1.7138 0.9794 0.0000
vt 1.7146 0.9483 0.0000
vt 1.6789 0.9505 0.0000
vt 1.6622 0.9478 0.0000
vt 1.6622 0.9471 0.0000
vt 1.7143 0.9459 0.0000
vt 1.7152 0.9474 0.0000
vt 0.2950 0.3152 0.0000
vt 0.2950 0.2854 0.0000
vt 0.3156 0.2854 0.0000
vt 0.3156 0.3152 0.0000
vt 1.7161 0.9441 0.0000
vt 1.6582 0.9430 0.0000
vt 1.6605 0.8794 0.0000
vt 1.7080 0.7769 0.0000
vt 1.7161 0.7741 0.0000
vt 0.0167 0.1746 0.0000
vt 0.0167 0.2008 0.0000
vt 0.0035 0.1890 0.0000
vt 0.0035 0.1814 0.0000
vt 1.6650 0.8148 0.0000
vt 1.7065 0.7699 0.0000
vt 1.7156 0.7449 0.0000
vt 1.7111 0.7464 0.0000
vt 1.6843 0.6766 0.0000
vt 1.6962 0.6171 0.0000
vt 1.7002 0.6107 0.0000
vt 1.7071 0.6080 0.0000
vt 1.7104 0.6079 0.0000
vt 1.6262 0.9115 0.0000
vt 1.6524 0.9801 0.0000
vt 1.6491 0.9801 0.0000
vt 1.6422 0.9773 0.0000
vt 1.6382 0.9709 0.0000
vt 0.0297 0.2394 0.0000
vt 0.0373 0.2394 0.0000
vt 0.0373 0.2420 0.0000
vt 0.0297 0.2420 0.0000
vt 1.6737 0.7405 0.0000
vt 1.7032 0.7537 0.0000
vt 1.6157 0.8475 0.0000
vt 1.6451 0.8348 0.0000
vt 1.6069 0.7733 0.0000
vt 1.6484 0.8186 0.0000
vt 1.6341 0.3931 0.0000
vt 1.6417 0.3931 0.0000
vt 1.6417 0.4435 0.0000
vt 1.6340 0.4435 0.0000
vt 1.6417 0.5019 0.0000
vt 1.6340 0.5019 0.0000
vt 1.6417 0.5525 0.0000
vt 1.6340 0.5525 0.0000
vt 1.6264 0.6316 0.0000
vt 1.6269 0.6084 0.0000
vt 1.6557 0.6091 0.0000
vt 1.6551 0.6350 0.0000
vt 0.8293 0.7393 0.0000
vt 0.8555 0.7392 0.0000
vt 0.8555 0.7621 0.0000
vt 0.8293 0.7621 0.0000
vt 0.8488 0.8692 0.0000
vt 0.8412 0.8692 0.0000
vt 1.6828 0.9527 0.0000
vt 1.6247 0.6358 0.0000
vt 0.0199 0.1746 0.0000
vt 0.0199 0.2008 0.0000
vt 0.3192 0.3152 0.0000
vt 0.8293 0.6067 0.0000
vt 0.8555 0.6066 0.0000
vt 0.0011 0.1814 0.0000
vt 0.0034 0.1746 0.0000
vt 1.6417 0.6046 0.0000
vt 1.6417 0.6022 0.0000
vt 1.6484 0.6052 0.0000
vt 1.6340 0.6022 0.0000
vt 1.6340 0.6046 0.0000
vt 1.6222 0.6052 0.0000
vt 0.0011 0.1890 0.0000
vt 0.0034 0.2008 0.0000
vt 1.7136 0.9508 0.0000
vt 1.6555 0.6377 0.0000
vt 0.8293 0.5994 0.0000
vt 0.8555 0.5994 0.0000
vt 0.8555 0.6015 0.0000
vt 0.8293 0.6015 0.0000
vt 0.8555 0.6034 0.0000
vt 0.8293 0.6034 0.0000
vt 0.8293 0.5791 0.0000
vt 0.8555 0.5791 0.0000
vt 0.8293 0.6041 0.0000
vt 0.8555 0.6041 0.0000
vt 0.0296 0.2342 0.0000
vt 0.0373 0.2342 0.0000
vt 1.6341 0.3409 0.0000
vt 1.6417 0.3409 0.0000
vt 1.6417 0.3461 0.0000
vt 1.6341 0.3461 0.0000
vt 0.4487 0.3230 0.0000
vt 0.4487 0.3961 0.0000
vt 0.4360 0.3961 0.0000
vt 0.4360 0.3230 0.0000
vt 0.3018 0.3245 0.0000
vt 0.3018 0.3955 0.0000
vt 0.2895 0.3955 0.0000
vt 0.2895 0.3245 0.0000
vt 0.2755 0.3955 0.0000
vt 0.2755 0.3245 0.0000
vt 0.2603 0.3955 0.0000
vt 0.2603 0.3245 0.0000
vt 0.2442 0.3955 0.0000
vt 0.2442 0.3245 0.0000
vt 0.2279 0.3955 0.0000
vt 0.2279 0.3245 0.0000
vt 0.2119 0.3955 0.0000
vt 0.2119 0.3245 0.0000
vt 0.1967 0.3955 0.0000
vt 0.1967 0.3245 0.0000
vt 0.1827 0.3955 0.0000
vt 0.1827 0.3245 0.0000
vt 0.1704 0.3955 0.0000
vt 0.1704 0.3245 0.0000
vt 0.4331 0.3245 0.0000
vt 0.4331 0.3955 0.0000
vt 0.4209 0.3955 0.0000
vt 0.4209 0.3245 0.0000
vt 0.4069 0.3955 0.0000
vt 0.4069 0.3245 0.0000
vt 0.3916 0.3955 0.0000
vt 0.3916 0.3245 0.0000
vt 0.3756 0.3955 0.0000
vt 0.3756 0.3245 0.0000
vt 0.3593 0.3955 0.0000
vt 0.3593 0.3245 0.0000
vt 0.3433 0.3955 0.0000
vt 0.3433 0.3245 0.0000
vt 0.3280 0.3955 0.0000
vt 0.3280 0.3245 0.0000
vt 0.3140 0.3955 0.0000
vt 0.3140 0.3245 0.0000
vt 0.6955 0.3229 0.0000
vt 0.6955 0.3960 0.0000
vt 0.6829 0.3960 0.0000
vt 0.6829 0.3229 0.0000
vt 0.6685 0.3960 0.0000
vt 0.6685 0.3229 0.0000
vt 0.6527 0.3960 0.0000
vt 0.6527 0.3229 0.0000
vt 0.6362 0.3960 0.0000
vt 0.6362 0.3229 0.0000
vt 0.6195 0.3960 0.0000
vt 0.6195 0.3229 0.0000
vt 0.6029 0.3960 0.0000
vt 0.6029 0.3229 0.0000
vt 0.5872 0.3960 0.0000
vt 0.5872 0.3229 0.0000
vt 0.5728 0.3960 0.0000
vt 0.5728 0.3229 0.0000
vt 0.5602 0.3960 0.0000
vt 0.5602 0.3229 0.0000
vt 0.5587 0.3230 0.0000
vt 0.5587 0.3961 0.0000
vt 0.5443 0.3961 0.0000
vt 0.5443 0.3230 0.0000
vt 0.5286 0.3961 0.0000
vt 0.5286 0.3230 0.0000
vt 0.5121 0.3961 0.0000
vt 0.5121 0.3230 0.0000
vt 0.4953 0.3961 0.0000
vt 0.4953 0.3230 0.0000
vt 0.4788 0.3961 0.0000
vt 0.4788 0.3230 0.0000
vt 0.0886 0.0456 0.0000
vt 0.0856 0.0416 0.0000
vt 0.0834 0.0372 0.0000
vt 0.0821 0.0325 0.0000
vt 0.0816 0.0276 0.0000
vt 0.0821 0.0227 0.0000
vt 0.0834 0.0180 0.0000
vt 0.0856 0.0136 0.0000
vt 0.0886 0.0097 0.0000
vt 0.0923 0.0063 0.0000
vt 0.0965 0.0036 0.0000
vt 0.1012 0.0017 0.0000
vt 0.1062 0.0006 0.0000
vt 0.1112 0.0004 0.0000
vt 0.1163 0.0010 0.0000
vt 0.1211 0.0025 0.0000
vt 0.1256 0.0048 0.0000
vt 0.1296 0.0079 0.0000
vt 0.1329 0.0116 0.0000
vt 0.1355 0.0158 0.0000
vt 0.1373 0.0204 0.0000
vt 0.1382 0.0252 0.0000
vt 0.1382 0.0301 0.0000
vt 0.1373 0.0349 0.0000
vt 0.1355 0.0394 0.0000
vt 0.1329 0.0436 0.0000
vt 0.1296 0.0473 0.0000
vt 0.1256 0.0504 0.0000
vt 0.1211 0.0527 0.0000
vt 0.1163 0.0542 0.0000
vt 0.1112 0.0549 0.0000
vt 0.1062 0.0546 0.0000
vt 0.1012 0.0535 0.0000
vt 0.0965 0.0516 0.0000
vt 0.0923 0.0489 0.0000
vt 0.4631 0.3961 0.0000
vt 0.4631 0.3230 0.0000
vt 0.0817 0.0077 0.0000
vt 0.0825 0.0097 0.0000
vt 0.0808 0.0101 0.0000
vt 0.0802 0.0084 0.0000
vt 1.6902 0.4076 0.0000
vt 1.6902 0.3882 0.0000
vt 1.7042 0.3882 0.0000
vt 1.7042 0.4076 0.0000
vt 0.0756 0.0236 0.0000
vt 0.0735 0.0242 0.0000
vt 0.0731 0.0226 0.0000
vt 0.0749 0.0220 0.0000
vt 0.0594 0.0169 0.0000
vt 0.0588 0.0149 0.0000
vt 0.0605 0.0146 0.0000
vt 0.0610 0.0163 0.0000
vt 0.0756 0.0020 0.0000
vt 0.0775 0.0030 0.0000
vt 0.0765 0.0044 0.0000
vt 0.0749 0.0036 0.0000
vt 0.0817 0.0179 0.0000
vt 0.0806 0.0197 0.0000
vt 0.0792 0.0187 0.0000
vt 0.0802 0.0172 0.0000
vt 0.0650 0.0231 0.0000
vt 0.0632 0.0220 0.0000
vt 0.0643 0.0207 0.0000
vt 0.0658 0.0217 0.0000
vt 0.0670 0.0017 0.0000
vt 0.0691 0.0012 0.0000
vt 0.0694 0.0028 0.0000
vt 0.0675 0.0032 0.0000
vt 0.0829 0.0118 0.0000
vt 0.0812 0.0119 0.0000
vt 0.0713 0.0245 0.0000
vt 0.0712 0.0228 0.0000
vt 0.0603 0.0068 0.0000
vt 0.0616 0.0051 0.0000
vt 0.0629 0.0062 0.0000
vt 0.0618 0.0076 0.0000
vt 0.0586 0.0128 0.0000
vt 0.0603 0.0128 0.0000
vt 0.0792 0.0043 0.0000
vt 0.0780 0.0055 0.0000
vt 0.0792 0.0213 0.0000
vt 0.0780 0.0201 0.0000
vt 0.0616 0.0205 0.0000
vt 0.0629 0.0194 0.0000
vt 0.0713 0.0011 0.0000
vt 0.0712 0.0028 0.0000
vt 0.0829 0.0139 0.0000
vt 0.0812 0.0137 0.0000
vt 0.0691 0.0244 0.0000
vt 0.0694 0.0228 0.0000
vt 0.0588 0.0107 0.0000
vt 0.0605 0.0110 0.0000
vt 0.0632 0.0037 0.0000
vt 0.0643 0.0049 0.0000
vt 0.0806 0.0059 0.0000
vt 0.0792 0.0069 0.0000
vt 0.0775 0.0226 0.0000
vt 0.0765 0.0212 0.0000
vt 0.0603 0.0188 0.0000
vt 0.0618 0.0180 0.0000
vt 0.0735 0.0014 0.0000
vt 0.0731 0.0030 0.0000
vt 0.0825 0.0159 0.0000
vt 0.0808 0.0155 0.0000
vt 0.0670 0.0239 0.0000
vt 0.0675 0.0224 0.0000
vt 0.0594 0.0087 0.0000
vt 0.0610 0.0093 0.0000
vt 0.0650 0.0025 0.0000
vt 0.0658 0.0040 0.0000
vt 0.0623 0.0177 0.0000
vt 0.0616 0.0161 0.0000
vt 0.0611 0.0145 0.0000
vt 0.0609 0.0128 0.0000
vt 0.0611 0.0111 0.0000
vt 0.0616 0.0094 0.0000
vt 0.0623 0.0079 0.0000
vt 0.0634 0.0065 0.0000
vt 0.0646 0.0054 0.0000
vt 0.0661 0.0044 0.0000
vt 0.0678 0.0037 0.0000
vt 0.0695 0.0034 0.0000
vt 0.0713 0.0033 0.0000
vt 0.0730 0.0035 0.0000
vt 0.0747 0.0040 0.0000
vt 0.0763 0.0049 0.0000
vt 0.0777 0.0059 0.0000
vt 0.0788 0.0072 0.0000
vt 0.0797 0.0087 0.0000
vt 0.0804 0.0103 0.0000
vt 0.0807 0.0119 0.0000
vt 0.0807 0.0136 0.0000
vt 0.0804 0.0153 0.0000
vt 0.0797 0.0169 0.0000
vt 0.0788 0.0184 0.0000
vt 0.0777 0.0197 0.0000
vt 0.0763 0.0207 0.0000
vt 0.0747 0.0215 0.0000
vt 0.0730 0.0221 0.0000
vt 0.0713 0.0223 0.0000
vt 0.0695 0.0222 0.0000
vt 0.0678 0.0218 0.0000
vt 0.0661 0.0212 0.0000
vt 0.0646 0.0202 0.0000
vt 0.0634 0.0191 0.0000
vt 1.7075 0.4642 0.0000
vt 1.7075 0.4517 0.0000
vt 1.7183 0.4517 0.0000
vt 1.7183 0.4642 0.0000
vt 1.6074 0.4626 0.0000
vt 1.6074 0.4455 0.0000
vt 1.6214 0.4455 0.0000
vt 1.6214 0.4626 0.0000
vt 1.6074 0.6281 0.0000
vt 1.6074 0.6111 0.0000
vt 1.6214 0.6111 0.0000
vt 1.6214 0.6281 0.0000
vt 1.7075 0.4391 0.0000
vt 1.7183 0.4391 0.0000
vt 1.7075 0.5989 0.0000
vt 1.7075 0.5894 0.0000
vt 1.7183 0.5894 0.0000
vt 1.7183 0.5989 0.0000
vt 1.6074 0.5916 0.0000
vt 1.6214 0.5916 0.0000
vt 1.7075 0.4266 0.0000
vt 1.7183 0.4266 0.0000
vt 1.7075 0.5785 0.0000
vt 1.7183 0.5785 0.0000
vt 1.6074 0.5704 0.0000
vt 1.6214 0.5704 0.0000
vt 1.7075 0.4147 0.0000
vt 1.7183 0.4147 0.0000
vt 1.7075 0.5666 0.0000
vt 1.7183 0.5666 0.0000
vt 1.6074 0.5481 0.0000
vt 1.6214 0.5481 0.0000
vt 1.7075 0.4038 0.0000
vt 1.7183 0.4038 0.0000
vt 1.7075 0.5541 0.0000
vt 1.7183 0.5541 0.0000
vt 1.6074 0.5255 0.0000
vt 1.6214 0.5255 0.0000
vt 1.7075 0.3942 0.0000
vt 1.7183 0.3942 0.0000
vt 1.7075 0.5414 0.0000
vt 1.7183 0.5414 0.0000
vt 1.6074 0.5032 0.0000
vt 1.6214 0.5032 0.0000
vt 1.6902 0.5537 0.0000
vt 1.6902 0.5367 0.0000
vt 1.7042 0.5367 0.0000
vt 1.7042 0.5537 0.0000
vt 1.7075 0.5289 0.0000
vt 1.7183 0.5289 0.0000
vt 1.6074 0.4820 0.0000
vt 1.6214 0.4820 0.0000
vt 1.6902 0.5173 0.0000
vt 1.7042 0.5173 0.0000
vt 1.7075 0.5170 0.0000
vt 1.7183 0.5170 0.0000
vt 1.6902 0.4961 0.0000
vt 1.7042 0.4961 0.0000
vt 1.7075 0.5061 0.0000
vt 1.7183 0.5061 0.0000
vt 1.6902 0.4738 0.0000
vt 1.7042 0.4738 0.0000
vt 1.7075 0.4966 0.0000
vt 1.7183 0.4966 0.0000
vt 1.6902 0.4511 0.0000
vt 1.7042 0.4511 0.0000
vt 1.7075 0.4870 0.0000
vt 1.7183 0.4870 0.0000
vt 1.6902 0.4288 0.0000
vt 1.7042 0.4288 0.0000
vt 1.7075 0.4761 0.0000
vt 1.7183 0.4761 0.0000
# 766 texture coords

o Motor2_Dron
g Motor2_Dron
usemtl Material__28
s off
f 1/1/1 2/2/1 3/3/1 4/4/1 
f 5/5/2 6/6/2 7/7/2 8/8/2 
f 5/5/2 8/8/2 9/9/2 10/10/2 
f 5/5/2 10/10/2 11/11/2 12/12/2 
f 13/13/3 11/11/3 10/10/3 14/14/3 
f 13/13/3 14/14/3 15/15/3 16/16/3 
f 13/13/3 16/16/3 17/17/3 
f 4/18/4 18/19/4 19/20/4 20/21/4 
f 4/18/4 20/21/4 21/22/4 1/23/4 
f 22/24/5 20/21/5 19/20/5 23/25/5 
f 23/25/5 24/26/5 25/27/5 22/24/5 
f 22/24/5 25/27/5 26/28/5 27/29/5 
f 4/30/6 3/31/6 28/32/6 18/33/6 
f 29/34/7 26/28/7 25/27/7 30/35/7 
f 29/34/7 30/35/7 31/36/7 32/37/7 
f 29/34/7 32/37/7 33/38/7 
f 23/39/8 5/40/8 12/41/8 24/42/8 
f 31/36/9 34/43/9 35/44/9 32/37/9 
f 36/45/10 37/46/10 38/47/10 39/48/10 
f 36/45/10 39/48/10 40/49/10 41/50/10 
f 36/45/10 41/50/10 42/51/10 
f 43/52/11 44/53/11 45/54/11 46/55/11 
f 43/52/11 46/55/11 47/56/11 48/57/11 
f 43/52/11 48/57/11 49/58/11 
f 41/59/12 47/60/12 46/61/12 42/62/12 
f 34/43/13 50/63/13 51/64/13 35/44/13 
f 50/63/14 38/47/14 37/46/14 51/64/14 
f 43/52/15 52/65/15 53/66/15 44/53/15 
f 52/65/16 54/67/16 55/68/16 53/66/16 
f 54/67/17 17/17/17 16/16/17 55/68/17 
f 43/69/18 38/70/18 50/71/18 52/72/18 
f 52/72/19 50/71/19 34/73/19 54/74/19 
f 54/74/20 34/73/20 31/75/20 17/76/20 
f 6/6/21 28/77/21 3/78/21 2/79/21 
f 6/6/21 2/79/21 56/80/21 7/7/21 
f 37/46/22 32/37/22 35/44/22 51/64/22 
f 16/16/23 44/53/23 53/66/23 55/68/23 
f 15/81/24 33/82/24 36/83/24 45/84/24 
f 33/38/4 32/37/4 37/46/4 36/45/4 
f 16/16/23 15/15/23 45/54/23 44/53/23 
f 45/84/25 36/83/25 42/85/25 46/86/25 
f 18/19/22 57/87/22 19/20/22 
f 57/87/4 23/25/4 19/20/4 
f 5/5/23 58/88/23 6/6/23 
f 58/88/23 28/77/23 6/6/23 
f 5/40/26 23/39/26 57/89/26 58/90/26 
f 58/91/27 57/92/27 18/33/27 28/32/27 
f 14/93/28 29/94/28 33/82/28 15/81/28 
f 24/42/29 59/95/29 25/96/29 
f 59/97/30 30/98/30 25/99/30 
f 13/100/31 60/101/31 11/102/31 
f 60/103/32 12/41/32 11/104/32 
f 13/100/33 30/98/33 59/97/33 60/101/33 
f 60/103/34 59/95/34 24/42/34 12/41/34 
f 30/98/35 13/100/35 17/76/35 31/75/35 
f 22/24/22 61/105/22 20/21/22 
f 61/105/22 21/22/22 20/21/22 
f 56/80/23 62/106/23 7/7/23 
f 62/106/23 8/8/23 7/7/23 
f 56/107/36 21/108/36 61/109/36 62/110/36 
f 62/110/37 61/109/37 22/111/37 8/112/37 
f 21/108/38 56/107/38 2/113/38 1/114/38 
f 29/34/4 27/29/4 26/28/4 
f 9/9/23 14/14/23 10/10/23 
f 9/115/39 27/116/39 29/94/39 14/93/39 
f 8/112/40 22/111/40 27/116/40 9/115/40 
f 47/60/41 41/59/41 40/117/41 48/118/41 
f 48/119/42 40/120/42 39/121/42 49/122/42 
f 38/70/43 43/69/43 49/122/43 39/121/43 
f 63/123/38 64/124/38 65/125/38 66/126/38 
f 67/127/44 68/128/44 69/129/44 70/130/44 
f 67/127/44 70/130/44 71/131/44 72/132/44 
f 67/127/44 72/132/44 73/133/44 74/134/44 
f 75/135/45 73/133/45 72/132/45 76/136/45 
f 75/135/45 76/136/45 77/137/45 78/138/45 
f 75/135/45 78/138/45 79/139/45 
f 66/140/22 80/141/22 81/142/22 82/143/22 
f 66/140/22 82/143/22 83/144/22 63/145/22 
f 84/146/46 82/143/46 81/142/46 85/147/46 
f 85/147/46 86/148/46 87/149/46 84/146/46 
f 84/146/46 87/149/46 88/150/46 89/151/46 
f 66/152/1 65/153/1 90/154/1 80/155/1 
f 91/156/47 88/150/47 87/149/47 92/157/47 
f 91/156/47 92/157/47 93/158/47 94/159/47 
f 91/156/47 94/159/47 95/160/47 
f 85/161/48 67/162/48 74/163/48 86/164/48 
f 93/158/49 96/165/49 97/166/49 94/159/49 
f 98/167/50 99/168/50 100/169/50 101/170/50 
f 98/167/50 101/170/50 102/171/50 103/172/50 
f 98/167/50 103/172/50 104/173/50 
f 105/174/51 106/53/51 107/54/51 108/175/51 
f 105/174/51 108/175/51 109/176/51 110/177/51 
f 105/174/51 110/177/51 111/178/51 
f 103/179/6 109/180/6 108/181/6 104/182/6 
f 96/165/52 112/183/52 113/184/52 97/166/52 
f 112/183/53 100/169/53 99/168/53 113/184/53 
f 105/174/54 114/185/54 115/66/54 106/53/54 
f 114/185/55 116/186/55 117/187/55 115/66/55 
f 116/186/56 79/139/56 78/138/56 117/187/56 
f 105/188/57 100/189/57 112/190/57 114/191/57 
f 114/191/58 112/190/58 96/192/58 116/193/58 
f 116/193/59 96/192/59 93/194/59 79/195/59 
f 68/128/23 90/196/23 65/197/23 64/198/23 
f 68/128/23 64/198/23 118/199/23 69/129/23 
f 99/168/22 94/159/22 97/166/22 113/184/22 
f 78/138/23 106/53/23 115/66/23 117/187/23 
f 77/200/60 95/201/60 98/202/60 107/203/60 
f 95/160/22 94/159/22 99/168/22 98/167/22 
f 78/138/21 77/137/21 107/54/21 106/53/21 
f 107/203/61 98/202/61 104/204/61 108/205/61 
f 80/141/22 119/206/22 81/142/22 
f 119/206/4 85/147/4 81/142/4 
f 67/127/23 120/207/23 68/128/23 
f 120/207/21 90/196/21 68/128/21 
f 67/162/62 85/161/62 119/208/62 120/209/62 
f 120/210/63 119/211/63 80/155/63 90/154/63 
f 76/212/64 91/213/64 95/201/64 77/200/64 
f 86/164/65 121/214/65 87/215/65 
f 121/216/66 92/217/66 87/218/66 
f 75/219/67 122/220/67 73/221/67 
f 122/222/68 74/163/68 73/223/68 
f 75/219/69 92/217/69 121/216/69 122/220/69 
f 122/222/70 121/214/70 86/164/70 74/163/70 
f 92/217/71 75/219/71 79/195/71 93/194/71 
f 84/146/4 123/224/4 82/143/4 
f 123/224/22 83/144/22 82/143/22 
f 118/199/21 124/225/21 69/129/21 
f 124/225/21 70/130/21 69/129/21 
f 118/226/72 83/227/72 123/228/72 124/229/72 
f 124/229/73 123/228/73 84/230/73 70/231/73 
f 83/227/12 118/226/12 64/232/12 63/233/12 
f 91/156/22 89/151/22 88/150/22 
f 71/131/23 76/136/23 72/132/23 
f 71/234/74 89/235/74 91/213/74 76/212/74 
f 70/231/75 84/230/75 89/235/75 71/234/75 
f 109/180/76 103/179/76 102/117/76 110/236/76 
f 110/237/77 102/238/77 101/239/77 111/240/77 
f 100/189/78 105/188/78 111/240/78 101/239/78 
f 125/241/12 126/242/12 127/243/12 128/244/12 
f 129/245/79 130/246/79 131/247/79 132/248/79 
f 129/245/79 132/248/79 133/249/79 134/250/79 
f 129/245/79 134/250/79 135/251/79 136/252/79 
f 137/253/80 135/251/80 134/250/80 138/254/80 
f 137/253/80 138/254/80 139/255/80 140/256/80 
f 137/253/80 140/256/80 141/257/80 
f 128/258/22 142/259/22 143/260/22 144/261/22 
f 128/258/22 144/261/22 145/262/22 125/263/22 
f 146/264/81 144/261/81 143/260/81 147/265/81 
f 147/265/81 148/149/81 149/266/81 146/264/81 
f 146/264/81 149/266/81 150/267/81 151/268/81 
f 128/269/38 127/270/38 152/271/38 142/272/38 
f 153/273/82 150/267/82 149/266/82 154/274/82 
f 153/273/82 154/274/82 155/275/82 156/276/82 
f 153/273/82 156/276/82 157/277/82 
f 147/278/83 129/279/83 136/280/83 148/281/83 
f 155/275/84 158/282/84 159/283/84 156/276/84 
f 160/284/85 161/285/85 162/286/85 163/170/85 
f 160/284/85 163/170/85 164/171/85 165/172/85 
f 160/284/85 165/172/85 166/173/85 
f 167/287/86 168/288/86 169/54/86 170/289/86 
f 167/287/86 170/289/86 171/290/86 172/291/86 
f 167/287/86 172/291/86 173/292/86 
f 165/293/1 171/294/1 170/295/1 166/296/1 
f 158/282/87 174/297/87 175/298/87 159/283/87 
f 174/297/88 162/286/88 161/285/88 175/298/88 
f 167/287/89 176/299/89 177/300/89 168/288/89 
f 176/299/90 178/301/90 179/187/90 177/300/90 
f 178/301/91 141/257/91 140/256/91 179/187/91 
f 167/302/92 162/303/92 174/304/92 176/305/92 
f 176/305/93 174/304/93 158/306/93 178/307/93 
f 178/307/94 158/306/94 155/308/94 141/309/94 
f 130/246/21 152/310/21 127/311/21 126/312/21 
f 130/246/21 126/312/21 180/313/21 131/247/21 
f 161/285/22 156/276/22 159/283/22 175/298/22 
f 140/256/21 168/288/21 177/300/21 179/187/21 
f 139/314/95 157/315/95 160/316/95 169/317/95 
f 157/277/22 156/276/22 161/285/22 160/284/22 
f 140/256/23 139/255/23 169/54/23 168/288/23 
f 169/317/96 160/316/96 166/318/96 170/319/96 
f 142/259/22 181/320/22 143/260/22 
f 181/320/22 147/265/22 143/260/22 
f 129/245/23 182/321/23 130/246/23 
f 182/321/23 152/310/23 130/246/23 
f 129/279/97 147/278/97 181/322/97 182/323/97 
f 182/324/98 181/325/98 142/272/98 152/271/98 
f 138/326/99 153/327/99 157/315/99 139/314/99 
f 148/281/100 183/328/100 149/329/100 
f 183/330/101 154/331/101 149/332/101 
f 137/333/102 184/334/102 135/335/102 
f 184/336/103 136/280/103 135/337/103 
f 137/333/104 154/331/104 183/330/104 184/334/104 
f 184/336/105 183/328/105 148/281/105 136/280/105 
f 154/331/106 137/333/106 141/309/106 155/308/106 
f 146/264/22 185/338/22 144/261/22 
f 185/338/4 145/262/4 144/261/4 
f 180/313/23 186/339/23 131/247/23 
f 186/339/23 132/248/23 131/247/23 
f 180/340/107 145/341/107 185/342/107 186/343/107 
f 186/343/108 185/342/108 146/344/108 132/345/108 
f 145/341/6 180/340/6 126/346/6 125/347/6 
f 153/273/22 151/268/22 150/267/22 
f 133/249/23 138/254/23 134/250/23 
f 133/348/109 151/349/109 153/327/109 138/326/109 
f 132/345/110 146/344/110 151/349/110 133/348/110 
f 171/294/111 165/293/111 164/350/111 172/351/111 
f 172/352/112 164/353/112 163/354/112 173/355/112 
f 162/303/113 167/302/113 173/355/113 163/354/113 
f 187/356/6 188/357/6 189/358/6 190/359/6 
f 191/360/114 192/361/114 193/362/114 194/363/114 
f 191/360/114 194/363/114 195/364/114 196/365/114 
f 191/360/114 196/365/114 197/366/114 198/367/114 
f 199/368/115 197/366/115 196/365/115 200/369/115 
f 199/368/115 200/369/115 201/370/115 202/371/115 
f 199/368/115 202/371/115 203/372/115 
f 190/373/22 204/374/22 205/375/22 206/376/22 
f 190/373/22 206/376/22 207/377/22 187/378/22 
f 208/379/116 206/376/116 205/375/116 209/380/116 
f 209/380/116 210/381/116 211/382/116 208/379/116 
f 208/379/116 211/382/116 212/383/116 213/384/116 
f 190/385/12 189/386/12 214/387/12 204/388/12 
f 215/389/117 212/383/117 211/382/117 216/390/117 
f 215/389/117 216/390/117 217/391/117 218/392/117 
f 215/389/117 218/392/117 219/393/117 
f 209/394/118 191/395/118 198/396/118 210/397/118 
f 217/391/119 220/398/119 221/399/119 218/392/119 
f 222/400/120 223/401/120 224/402/120 225/403/120 
f 222/400/120 225/403/120 226/404/120 227/405/120 
f 222/400/120 227/405/120 228/406/120 
f 229/407/121 230/53/121 231/54/121 232/408/121 
f 229/407/121 232/408/121 233/409/121 234/410/121 
f 229/407/121 234/410/121 235/411/121 
f 227/412/38 233/413/38 232/414/38 228/415/38 
f 220/398/122 236/416/122 237/417/122 221/399/122 
f 236/416/123 224/402/123 223/401/123 237/417/123 
f 229/407/124 238/418/124 239/419/124 230/53/124 
f 238/418/125 240/420/125 241/421/125 239/419/125 
f 240/420/126 203/372/126 202/371/126 241/421/126 
f 229/422/127 224/423/127 236/424/127 238/425/127 
f 238/425/128 236/424/128 220/426/128 240/427/128 
f 240/427/129 220/426/129 217/428/129 203/429/129 
f 192/361/21 214/430/21 189/431/21 188/432/21 
f 192/361/21 188/432/21 242/433/21 193/362/21 
f 223/401/4 218/392/4 221/399/4 237/417/4 
f 202/371/23 230/53/23 239/419/23 241/421/23 
f 201/434/130 219/435/130 222/436/130 231/437/130 
f 219/393/22 218/392/22 223/401/22 222/400/22 
f 202/371/21 201/370/21 231/54/21 230/53/21 
f 231/437/131 222/436/131 228/438/131 232/439/131 
f 204/374/22 243/440/22 205/375/22 
f 243/440/22 209/380/22 205/375/22 
f 191/360/23 244/441/23 192/361/23 
f 244/441/23 214/430/23 192/361/23 
f 191/395/132 209/394/132 243/442/132 244/443/132 
f 244/124/133 243/444/133 204/388/133 214/387/133 
f 200/445/134 215/446/134 219/435/134 201/434/134 
f 210/397/135 245/447/135 211/448/135 
f 245/449/136 216/450/136 211/451/136 
f 199/452/137 246/453/137 197/454/137 
f 246/455/138 198/396/138 197/456/138 
f 199/452/139 216/450/139 245/449/139 246/453/139 
f 246/455/140 245/447/140 210/397/140 198/396/140 
f 216/450/141 199/452/141 203/429/141 217/428/141 
f 208/379/22 247/457/22 206/376/22 
f 247/457/22 207/377/22 206/376/22 
f 242/433/23 248/458/23 193/362/23 
f 248/458/23 194/363/23 193/362/23 
f 242/459/142 207/460/142 247/461/142 248/462/142 
f 248/462/143 247/461/143 208/463/143 194/464/143 
f 207/460/1 242/459/1 188/465/1 187/466/1 
f 215/389/4 213/384/4 212/383/4 
f 195/364/23 200/369/23 196/365/23 
f 195/467/144 213/468/144 215/446/144 200/445/144 
f 194/464/145 208/463/145 213/468/145 195/467/145 
f 233/413/146 227/412/146 226/469/146 234/470/146 
f 234/471/147 226/472/147 225/473/147 235/474/147 
f 224/423/148 229/422/148 235/474/148 225/473/148 
f 249/475/149 250/476/149 251/477/150 252/478/150 
f 252/479/150 251/480/150 253/481/151 254/482/151 
f 254/482/151 253/481/151 255/483/152 256/484/152 
f 256/484/152 255/483/152 257/485/153 258/486/153 
f 258/486/153 257/485/153 259/487/154 260/488/154 
f 260/488/154 259/487/154 261/489/155 262/490/155 
f 262/490/155 261/489/155 263/491/156 264/492/156 
f 264/492/156 263/491/156 265/493/157 266/494/157 
f 266/494/157 265/493/157 267/495/158 268/496/158 
f 268/496/158 267/495/158 269/497/159 270/498/159 
f 270/499/159 269/500/159 271/501/160 272/502/160 
f 272/502/160 271/501/160 273/503/161 274/504/161 
f 274/504/161 273/503/161 275/505/162 276/506/162 
f 276/506/162 275/505/162 277/507/163 278/508/163 
f 278/508/163 277/507/163 279/509/164 280/510/164 
f 280/510/164 279/509/164 281/511/165 282/512/165 
f 282/512/165 281/511/165 283/513/166 284/514/166 
f 284/514/166 283/513/166 285/515/167 286/516/167 
f 286/516/167 285/515/167 287/480/168 288/479/168 
f 288/517/168 287/518/168 289/519/169 290/520/169 
f 290/520/169 289/519/169 291/521/170 292/522/170 
f 292/522/170 291/521/170 293/523/171 294/524/171 
f 294/524/171 293/523/171 295/525/172 296/526/172 
f 296/526/172 295/525/172 297/527/173 298/528/173 
f 298/528/173 297/527/173 299/529/174 300/530/174 
f 300/530/174 299/529/174 301/531/175 302/532/175 
f 302/532/175 301/531/175 303/533/176 304/534/176 
f 304/534/176 303/533/176 305/535/177 306/536/177 
f 306/537/177 305/538/177 307/539/178 308/540/178 
f 308/540/178 307/539/178 309/541/179 310/542/179 
f 310/542/179 309/541/179 311/543/180 312/544/180 
f 312/544/180 311/543/180 313/545/181 314/546/181 
f 314/546/181 313/545/181 315/547/182 316/548/182 
f 251/549/183 250/550/183 317/551/183 315/552/183 
f 251/549/183 315/552/183 313/553/183 311/554/183 
f 251/549/183 311/554/183 309/555/183 307/556/183 
f 251/549/183 307/556/183 305/557/183 303/558/183 
f 251/549/183 303/558/183 301/559/183 299/560/183 
f 251/549/183 299/560/183 297/561/183 295/562/183 
f 251/549/183 295/562/183 293/563/183 291/564/183 
f 251/549/183 291/564/183 289/565/183 287/566/183 
f 251/549/183 287/566/183 285/567/183 283/568/183 
f 251/549/183 283/568/183 281/569/183 279/570/183 
f 251/549/183 279/570/183 277/571/183 275/572/183 
f 251/549/183 275/572/183 273/573/183 271/574/183 
f 251/549/183 271/574/183 269/575/183 267/576/183 
f 251/549/183 267/576/183 265/577/183 263/578/183 
f 251/549/183 263/578/183 261/579/183 259/580/183 
f 251/549/183 259/580/183 257/581/183 255/582/183 
f 251/549/183 255/582/183 253/583/183 
f 316/548/182 315/547/182 317/584/184 318/585/184 
f 318/585/184 317/584/184 250/476/149 249/475/149 
f 274/586/185 276/587/186 319/588/186 320/589/185 
f 321/590/175 322/591/176 323/592/176 324/593/175 
f 292/594/187 294/595/188 325/596/188 326/597/187 
f 310/598/189 312/599/190 327/600/190 328/601/189 
f 266/602/191 268/603/192 329/604/192 330/605/191 
f 284/606/193 286/607/194 331/608/194 332/609/193 
f 302/610/195 304/611/196 322/612/196 321/613/195 
f 258/614/197 260/615/198 333/616/198 334/617/197 
f 276/587/186 278/618/199 335/619/199 319/588/186 
f 294/595/188 296/620/200 336/621/200 325/596/188 
f 249/622/201 252/623/202 337/624/202 338/625/201 
f 312/599/190 314/626/203 339/627/203 327/600/190 
f 268/603/192 270/628/204 340/629/204 329/604/192 
f 286/607/194 288/630/205 341/631/205 331/608/194 
f 304/611/196 306/632/206 342/633/206 322/612/196 
f 260/615/198 262/634/207 343/635/207 333/616/198 
f 278/618/199 280/636/208 344/637/208 335/619/199 
f 296/620/200 298/638/209 345/639/209 336/621/200 
f 314/626/203 316/640/210 346/641/210 339/627/203 
f 252/623/202 254/642/211 347/643/211 337/624/202 
f 270/628/204 272/644/212 348/645/212 340/629/204 
f 288/630/205 290/646/213 349/647/213 341/631/205 
f 306/632/206 308/648/214 350/649/214 342/633/206 
f 262/634/207 264/650/215 351/651/215 343/635/207 
f 280/636/208 282/652/216 352/653/216 344/637/208 
f 298/638/209 300/654/217 353/655/218 345/639/209 
f 316/640/210 318/656/219 354/657/219 346/641/210 
f 254/642/211 256/658/220 355/659/220 347/643/211 
f 272/644/212 274/586/185 320/589/185 348/645/212 
f 290/646/213 292/594/187 326/597/187 349/647/213 
f 308/648/214 310/598/189 328/601/189 350/649/214 
f 264/650/215 266/602/191 330/605/191 351/651/215 
f 282/652/216 284/606/193 332/609/193 352/653/216 
f 300/654/217 302/610/195 321/613/195 353/655/218 
f 318/656/219 249/622/201 338/625/201 354/657/219 
f 256/658/220 258/614/197 334/617/197 355/659/220 
f 356/660/221 357/661/221 358/662/221 359/663/221 
f 356/660/221 359/663/221 360/664/221 361/665/221 
f 356/660/221 361/665/221 362/666/221 363/667/221 
f 356/660/221 363/667/221 364/668/221 365/669/221 
f 356/660/221 365/669/221 366/670/221 367/671/221 
f 356/660/221 367/671/221 368/672/221 369/673/221 
f 356/660/221 369/673/221 370/674/221 371/675/221 
f 356/660/221 371/675/221 372/676/221 373/677/221 
f 356/660/221 373/677/221 374/678/221 375/679/221 
f 356/660/221 375/679/221 376/680/221 377/681/221 
f 356/660/221 377/681/221 378/682/221 379/683/221 
f 356/660/221 379/683/221 380/684/221 381/685/221 
f 356/660/221 381/685/221 324/686/221 323/687/221 
f 356/660/221 323/687/221 382/688/221 383/689/221 
f 356/660/221 383/689/221 384/690/221 385/691/221 
f 356/660/221 385/691/221 386/692/221 387/693/221 
f 356/660/221 387/693/221 388/694/221 
f 319/695/162 335/696/163 370/697/163 369/698/162 
f 338/699/149 337/700/150 357/701/150 356/702/149 
f 322/703/176 342/704/177 382/705/177 323/706/176 
f 335/696/163 344/707/164 371/708/164 370/697/163 
f 337/709/150 347/710/151 358/711/151 357/712/150 
f 342/704/177 350/713/178 383/714/178 382/705/177 
f 344/707/164 352/715/165 372/716/165 371/708/164 
f 347/710/151 355/717/152 359/718/152 358/711/151 
f 350/713/178 328/719/179 384/720/179 383/714/178 
f 352/715/165 332/721/166 373/722/166 372/716/165 
f 355/717/152 334/723/153 360/724/153 359/718/152 
f 328/719/179 327/725/180 385/726/180 384/720/179 
f 332/721/166 331/727/167 374/728/167 373/722/166 
f 334/723/153 333/729/154 361/730/154 360/724/153 
f 327/725/180 339/731/181 386/732/181 385/726/180 
f 331/727/167 341/733/168 375/734/168 374/728/167 
f 333/729/154 343/735/155 362/736/155 361/730/154 
f 339/731/181 346/737/182 387/738/182 386/732/181 
f 341/739/168 349/740/169 376/741/169 375/742/168 
f 343/735/155 351/743/156 363/744/156 362/736/155 
f 346/737/182 354/745/184 388/746/184 387/738/182 
f 349/740/169 326/747/170 377/748/170 376/741/169 
f 351/743/156 330/749/157 364/750/157 363/744/156 
f 354/745/184 338/699/149 356/702/149 388/746/184 
f 326/747/170 325/751/171 378/752/171 377/748/170 
f 330/749/157 329/753/158 365/754/158 364/750/157 
f 325/751/171 336/755/172 379/756/172 378/752/171 
f 329/753/158 340/757/159 366/758/159 365/754/158 
f 336/755/172 345/759/173 380/760/173 379/756/172 
f 340/757/159 348/761/160 367/762/160 366/758/159 
f 345/759/173 353/763/174 381/764/174 380/760/173 
f 348/761/160 320/765/161 368/766/161 367/762/160 
f 353/763/174 321/590/175 324/593/175 381/764/174 
f 320/765/161 319/695/162 369/698/162 368/766/161 
# 341 polygons - 74 triangles

