# 3ds Max Wavefront OBJ Exporter v0.99 - (c)2007 guruware
# File Created: 16.05.2026 16:20:47

mtllib Motor3_Dron.mtl

#
# object Motor3_Dron
#

v  -0.0167 -0.0005 -0.0046
v  -0.0167 0.0006 -0.0046
v  -0.0171 0.0008 0.0025
v  -0.0171 -0.0003 0.0025
v  -0.0245 0.0009 0.0035
v  -0.0241 0.0008 0.0008
v  -0.0238 0.0007 -0.0043
v  -0.0244 0.0006 -0.0053
v  -0.0246 0.0006 -0.0055
v  -0.0250 0.0006 -0.0053
v  -0.0256 0.0010 0.0075
v  -0.0254 0.0005 0.0075
v  -0.0266 0.0005 0.0084
v  -0.0254 0.0006 -0.0058
v  -0.0671 0.0008 -0.0088
v  -0.0666 0.0009 -0.0068
v  -0.0422 0.0006 0.0068
v  -0.0228 -0.0003 0.0022
v  -0.0241 -0.0003 0.0008
v  -0.0238 -0.0004 -0.0042
v  -0.0231 -0.0005 -0.0049
v  -0.0244 -0.0005 -0.0053
v  -0.0254 0.0002 0.0076
v  -0.0245 -0.0002 0.0035
v  -0.0256 -0.0001 0.0075
v  -0.0250 -0.0005 -0.0053
v  -0.0246 -0.0005 -0.0055
v  -0.0228 0.0008 0.0022
v  -0.0254 -0.0005 -0.0058
v  -0.0266 0.0002 0.0084
v  -0.0422 0.0003 0.0068
v  -0.0666 -0.0002 -0.0067
v  -0.0672 -0.0003 -0.0088
v  -0.0581 0.0003 0.0045
v  -0.0684 -0.0002 -0.0065
v  -0.0744 -0.0002 -0.0091
v  -0.0741 -0.0002 -0.0080
v  -0.0917 0.0003 -0.0027
v  -0.1061 0.0003 -0.0067
v  -0.1076 0.0003 -0.0077
v  -0.1082 0.0003 -0.0095
v  -0.1081 0.0003 -0.0103
v  -0.0917 0.0007 -0.0027
v  -0.0741 0.0009 -0.0080
v  -0.0744 0.0009 -0.0092
v  -0.1081 0.0006 -0.0103
v  -0.1082 0.0006 -0.0095
v  -0.1076 0.0006 -0.0077
v  -0.1061 0.0007 -0.0067
v  -0.0762 0.0003 0.0011
v  -0.0724 -0.0002 -0.0059
v  -0.0762 0.0007 0.0011
v  -0.0724 0.0010 -0.0060
v  -0.0581 0.0006 0.0045
v  -0.0684 0.0009 -0.0065
v  -0.0231 0.0006 -0.0049
v  -0.0238 -0.0003 0.0026
v  -0.0238 0.0008 0.0026
v  -0.0259 0.0002 0.0082
v  -0.0259 0.0005 0.0082
v  -0.0238 -0.0005 -0.0050
v  -0.0238 0.0006 -0.0050
v  -0.0041 -0.0001 0.0167
v  -0.0041 0.0011 0.0167
v  0.0029 0.0011 0.0171
v  0.0029 -0.0001 0.0171
v  0.0012 0.0013 0.0241
v  -0.0038 0.0013 0.0238
v  -0.0049 0.0013 0.0243
v  0.0080 0.0007 0.0254
v  -0.0050 0.0013 0.0246
v  -0.0049 0.0013 0.0249
v  0.0080 0.0013 0.0256
v  0.0039 0.0013 0.0244
v  0.0089 0.0007 0.0266
v  -0.0053 0.0013 0.0254
v  -0.0083 0.0024 0.0670
v  -0.0063 0.0024 0.0665
v  0.0072 0.0012 0.0422
v  0.0027 0.0000 0.0228
v  0.0012 0.0001 0.0241
v  -0.0038 0.0001 0.0238
v  -0.0044 0.0001 0.0231
v  -0.0049 0.0001 0.0244
v  0.0039 0.0001 0.0245
v  0.0080 0.0004 0.0254
v  0.0079 0.0001 0.0256
v  -0.0049 0.0002 0.0250
v  -0.0050 0.0001 0.0246
v  0.0027 0.0012 0.0228
v  -0.0053 0.0002 0.0254
v  0.0088 0.0004 0.0266
v  0.0072 0.0008 0.0422
v  -0.0063 0.0012 0.0665
v  -0.0083 0.0013 0.0671
v  0.0049 0.0012 0.0580
v  -0.0060 0.0013 0.0683
v  -0.0087 0.0015 0.0742
v  -0.0076 0.0014 0.0740
v  -0.0022 0.0022 0.0915
v  -0.0062 0.0026 0.1059
v  -0.0073 0.0026 0.1074
v  -0.0090 0.0026 0.1080
v  -0.0098 0.0026 0.1079
v  -0.0022 0.0025 0.0915
v  -0.0076 0.0026 0.0739
v  -0.0087 0.0026 0.0742
v  -0.0098 0.0030 0.1079
v  -0.0090 0.0030 0.1080
v  -0.0073 0.0029 0.1074
v  -0.0062 0.0029 0.1059
v  0.0015 0.0017 0.0760
v  -0.0055 0.0014 0.0723
v  0.0015 0.0021 0.0760
v  -0.0055 0.0026 0.0723
v  0.0050 0.0016 0.0580
v  -0.0060 0.0025 0.0682
v  -0.0044 0.0013 0.0231
v  0.0030 0.0001 0.0239
v  0.0030 0.0012 0.0238
v  0.0086 0.0004 0.0259
v  0.0086 0.0007 0.0259
v  -0.0046 0.0001 0.0238
v  -0.0046 0.0013 0.0237
v  0.0171 -0.0006 0.0042
v  0.0171 0.0007 0.0042
v  0.0175 0.0005 -0.0029
v  0.0175 -0.0007 -0.0029
v  0.0245 0.0005 -0.0012
v  0.0242 0.0006 0.0038
v  0.0247 0.0006 0.0049
v  0.0258 -0.0003 -0.0079
v  0.0250 0.0006 0.0051
v  0.0253 0.0006 0.0049
v  0.0260 0.0003 -0.0079
v  0.0248 0.0004 -0.0039
v  0.0270 -0.0003 -0.0088
v  0.0258 0.0006 0.0054
v  0.0674 0.0004 0.0083
v  0.0668 0.0004 0.0063
v  0.0426 -0.0004 -0.0071
v  0.0232 -0.0008 -0.0026
v  0.0245 -0.0008 -0.0012
v  0.0242 -0.0006 0.0039
v  0.0235 -0.0006 0.0045
v  0.0247 -0.0006 0.0049
v  0.0248 -0.0008 -0.0038
v  0.0258 -0.0006 -0.0079
v  0.0260 -0.0009 -0.0079
v  0.0253 -0.0006 0.0049
v  0.0250 -0.0006 0.0051
v  0.0232 0.0004 -0.0026
v  0.0258 -0.0006 0.0054
v  0.0270 -0.0006 -0.0088
v  0.0426 -0.0007 -0.0071
v  0.0668 -0.0008 0.0063
v  0.0674 -0.0008 0.0084
v  0.0583 -0.0008 -0.0049
v  0.0686 -0.0009 0.0061
v  0.0745 -0.0008 0.0088
v  0.0742 -0.0009 0.0076
v  0.0918 -0.0008 0.0023
v  0.1061 -0.0008 0.0063
v  0.1076 -0.0008 0.0073
v  0.1082 -0.0007 0.0091
v  0.1082 -0.0007 0.0099
v  0.0918 -0.0004 0.0023
v  0.0742 0.0004 0.0076
v  0.0745 0.0004 0.0087
v  0.1082 -0.0004 0.0099
v  0.1082 -0.0004 0.0091
v  0.1076 -0.0004 0.0073
v  0.1061 -0.0004 0.0062
v  0.0763 -0.0008 -0.0014
v  0.0726 -0.0009 0.0056
v  0.0763 -0.0004 -0.0014
v  0.0726 0.0003 0.0055
v  0.0583 -0.0004 -0.0049
v  0.0686 0.0004 0.0061
v  0.0235 0.0006 0.0045
v  0.0242 -0.0008 -0.0029
v  0.0242 0.0004 -0.0030
v  0.0262 -0.0006 -0.0086
v  0.0262 -0.0003 -0.0086
v  0.0241 -0.0006 0.0046
v  0.0242 0.0006 0.0046
v  0.0046 -0.0011 -0.0170
v  0.0046 0.0002 -0.0171
v  -0.0024 0.0003 -0.0174
v  -0.0024 -0.0010 -0.0174
v  -0.0034 0.0001 -0.0247
v  -0.0007 0.0001 -0.0244
v  0.0043 0.0001 -0.0241
v  0.0053 0.0000 -0.0246
v  0.0055 0.0000 -0.0249
v  0.0053 0.0000 -0.0252
v  -0.0074 0.0001 -0.0259
v  -0.0075 -0.0005 -0.0257
v  -0.0083 -0.0005 -0.0269
v  0.0058 0.0000 -0.0257
v  0.0088 -0.0011 -0.0672
v  0.0067 -0.0011 -0.0666
v  -0.0067 -0.0009 -0.0424
v  -0.0022 -0.0012 -0.0231
v  -0.0007 -0.0012 -0.0243
v  0.0043 -0.0012 -0.0241
v  0.0049 -0.0012 -0.0234
v  0.0053 -0.0013 -0.0246
v  -0.0075 -0.0009 -0.0257
v  -0.0034 -0.0012 -0.0247
v  -0.0074 -0.0012 -0.0258
v  0.0053 -0.0013 -0.0252
v  0.0055 -0.0013 -0.0248
v  -0.0022 0.0001 -0.0231
v  0.0058 -0.0013 -0.0256
v  -0.0083 -0.0009 -0.0269
v  -0.0067 -0.0013 -0.0424
v  0.0067 -0.0024 -0.0666
v  0.0088 -0.0024 -0.0671
v  -0.0044 -0.0017 -0.0581
v  0.0065 -0.0024 -0.0683
v  0.0091 -0.0026 -0.0743
v  0.0080 -0.0026 -0.0740
v  0.0027 -0.0026 -0.0915
v  0.0067 -0.0030 -0.1058
v  0.0077 -0.0031 -0.1073
v  0.0095 -0.0031 -0.1079
v  0.0103 -0.0031 -0.1078
v  0.0027 -0.0023 -0.0915
v  0.0080 -0.0013 -0.0740
v  0.0091 -0.0013 -0.0743
v  0.0103 -0.0027 -0.1078
v  0.0095 -0.0027 -0.1079
v  0.0077 -0.0027 -0.1073
v  0.0067 -0.0027 -0.1058
v  -0.0010 -0.0022 -0.0761
v  0.0059 -0.0025 -0.0723
v  -0.0010 -0.0018 -0.0761
v  0.0060 -0.0012 -0.0724
v  -0.0044 -0.0014 -0.0581
v  0.0065 -0.0011 -0.0684
v  0.0049 0.0001 -0.0234
v  -0.0025 -0.0012 -0.0241
v  -0.0025 0.0001 -0.0241
v  -0.0081 -0.0009 -0.0261
v  -0.0081 -0.0005 -0.0261
v  0.0050 -0.0012 -0.0240
v  0.0051 0.0000 -0.0241
v  -0.0021 -0.0017 0.0183
v  -0.0022 0.0142 0.0180
v  -0.0054 0.0142 0.0173
v  -0.0053 -0.0017 0.0176
v  -0.0084 0.0141 0.0161
v  -0.0083 -0.0018 0.0164
v  -0.0111 0.0141 0.0144
v  -0.0110 -0.0018 0.0147
v  -0.0135 0.0140 0.0122
v  -0.0134 -0.0019 0.0125
v  -0.0155 0.0139 0.0096
v  -0.0154 -0.0019 0.0099
v  -0.0170 0.0139 0.0067
v  -0.0169 -0.0020 0.0070
v  -0.0179 0.0138 0.0036
v  -0.0178 -0.0021 0.0039
v  -0.0183 0.0137 0.0004
v  -0.0182 -0.0021 0.0007
v  -0.0181 0.0137 -0.0029
v  -0.0180 -0.0022 -0.0026
v  -0.0173 0.0136 -0.0060
v  -0.0172 -0.0023 -0.0057
v  -0.0159 0.0136 -0.0090
v  -0.0158 -0.0023 -0.0087
v  -0.0141 0.0135 -0.0117
v  -0.0140 -0.0023 -0.0114
v  -0.0118 0.0135 -0.0140
v  -0.0117 -0.0024 -0.0137
v  -0.0091 0.0135 -0.0158
v  -0.0090 -0.0024 -0.0155
v  -0.0062 0.0135 -0.0171
v  -0.0060 -0.0024 -0.0169
v  -0.0030 0.0135 -0.0179
v  -0.0029 -0.0024 -0.0176
v  0.0002 0.0135 -0.0182
v  0.0003 -0.0023 -0.0179
v  0.0035 0.0136 -0.0178
v  0.0036 -0.0023 -0.0175
v  0.0066 0.0136 -0.0169
v  0.0067 -0.0023 -0.0166
v  0.0095 0.0137 -0.0154
v  0.0096 -0.0022 -0.0151
v  0.0120 0.0137 -0.0134
v  0.0122 -0.0022 -0.0131
v  0.0142 0.0138 -0.0110
v  0.0144 -0.0021 -0.0107
v  0.0160 0.0138 -0.0083
v  0.0161 -0.0020 -0.0080
v  0.0172 0.0139 -0.0053
v  0.0173 -0.0020 -0.0050
v  0.0178 0.0140 -0.0021
v  0.0180 -0.0019 -0.0018
v  0.0179 0.0140 0.0012
v  0.0180 -0.0019 0.0015
v  0.0174 0.0141 0.0044
v  0.0175 -0.0018 0.0047
v  0.0163 0.0141 0.0074
v  0.0164 -0.0017 0.0077
v  0.0147 0.0142 0.0103
v  0.0148 -0.0017 0.0106
v  0.0126 0.0142 0.0128
v  0.0128 -0.0017 0.0131
v  0.0102 0.0142 0.0148
v  0.0103 -0.0017 0.0151
v  0.0073 0.0142 0.0164
v  0.0074 -0.0016 0.0167
v  0.0043 0.0142 0.0175
v  0.0044 -0.0016 0.0178
v  0.0011 0.0142 0.0180
v  0.0012 -0.0017 0.0183
v  -0.0100 -0.0030 -0.0117
v  -0.0120 -0.0029 -0.0097
v  0.0155 -0.0025 0.0013
v  0.0150 -0.0025 0.0041
v  0.0150 -0.0042 0.0041
v  0.0155 -0.0042 0.0013
v  0.0123 -0.0028 -0.0092
v  0.0104 -0.0028 -0.0112
v  0.0088 -0.0024 0.0130
v  0.0110 -0.0024 0.0113
v  -0.0154 -0.0028 -0.0022
v  -0.0156 -0.0028 0.0006
v  0.0031 -0.0029 -0.0150
v  0.0003 -0.0030 -0.0153
v  -0.0132 -0.0026 0.0085
v  -0.0115 -0.0026 0.0108
v  -0.0077 -0.0030 -0.0133
v  0.0138 -0.0027 -0.0068
v  -0.0045 -0.0024 0.0152
v  -0.0018 -0.0024 0.0157
v  0.0064 -0.0024 0.0144
v  -0.0147 -0.0029 -0.0049
v  0.0057 -0.0029 -0.0142
v  0.0141 -0.0024 0.0067
v  -0.0145 -0.0027 0.0061
v  -0.0052 -0.0030 -0.0144
v  0.0148 -0.0026 -0.0042
v  0.0038 -0.0024 0.0153
v  -0.0071 -0.0025 0.0141
v  -0.0136 -0.0029 -0.0074
v  0.0082 -0.0029 -0.0129
v  0.0127 -0.0024 0.0091
v  -0.0153 -0.0027 0.0034
v  -0.0025 -0.0030 -0.0151
v  0.0154 -0.0026 -0.0015
v  0.0010 -0.0024 0.0158
v  -0.0095 -0.0025 0.0126
v  -0.0018 -0.0041 0.0158
v  -0.0045 -0.0041 0.0152
v  -0.0071 -0.0041 0.0142
v  -0.0095 -0.0042 0.0127
v  -0.0115 -0.0042 0.0108
v  -0.0132 -0.0043 0.0086
v  -0.0145 -0.0044 0.0061
v  -0.0153 -0.0044 0.0034
v  -0.0156 -0.0045 0.0007
v  -0.0154 -0.0045 -0.0021
v  -0.0147 -0.0046 -0.0048
v  -0.0136 -0.0046 -0.0074
v  -0.0120 -0.0046 -0.0097
v  -0.0100 -0.0047 -0.0116
v  -0.0077 -0.0047 -0.0132
v  -0.0052 -0.0047 -0.0144
v  -0.0025 -0.0047 -0.0151
v  0.0003 -0.0046 -0.0153
v  0.0031 -0.0046 -0.0149
v  0.0057 -0.0046 -0.0141
v  0.0082 -0.0045 -0.0129
v  0.0105 -0.0045 -0.0112
v  0.0123 -0.0044 -0.0091
v  0.0138 -0.0044 -0.0068
v  0.0149 -0.0043 -0.0042
v  0.0154 -0.0043 -0.0015
v  0.0141 -0.0041 0.0067
v  0.0128 -0.0041 0.0091
v  0.0110 -0.0041 0.0113
v  0.0088 -0.0040 0.0131
v  0.0064 -0.0040 0.0145
v  0.0038 -0.0040 0.0154
v  0.0010 -0.0041 0.0158
# 388 vertices

vn 0.9981 -0.0462 -0.0416
vn 0.7509 0.2895 0.5935
vn 0.6307 0.3311 0.7018
vn -0.6756 -0.3464 -0.6508
vn -0.6159 -0.3849 -0.6874
vn -0.0414 -0.0443 0.9982
vn -0.7012 -0.3548 -0.6184
vn 0.9886 -0.0542 0.1406
vn -0.7073 -0.3618 -0.6074
vn -0.7016 -0.3510 -0.6201
vn 0.6291 0.3373 0.7003
vn -0.9981 0.0462 0.0416
vn -0.7144 -0.3644 -0.5973
vn -0.7173 -0.3582 -0.5976
vn 0.6019 0.3239 0.7299
vn 0.6093 0.3152 0.7276
vn 0.6214 0.3199 0.7153
vn -0.2220 -0.0345 0.9744
vn -0.1771 -0.0371 0.9835
vn -0.1316 -0.0396 0.9905
vn 0.6756 0.3464 0.6508
vn -0.6756 -0.3463 -0.6509
vn 0.0452 0.0441 -0.9980
vn 0.0265 0.0451 -0.9986
vn -0.6755 -0.3464 -0.6509
vn 0.8640 -0.0648 0.4994
vn 0.3231 -0.0594 0.9445
vn 0.0636 0.0432 -0.9970
vn 0.8771 -0.1964 0.4383
vn -0.5492 -0.6008 0.5809
vn 0.4347 0.0855 0.8965
vn 0.8456 -0.0126 0.5337
vn 0.2763 -0.0578 0.9593
vn 0.8583 -0.0650 0.5090
vn -0.0979 -0.0414 0.9943
vn -0.6757 -0.3463 -0.6507
vn 0.6757 0.3463 0.6508
vn 0.6757 0.3464 0.6508
vn 0.2025 0.0357 -0.9786
vn 0.4225 0.0217 -0.9061
vn 0.0414 0.0443 -0.9982
vn -0.6755 -0.3463 -0.6510
vn 0.6756 0.3463 0.6509
vn 0.3256 0.0282 -0.9451
vn 0.5568 0.0117 -0.8306
vn -0.9259 0.0271 0.3768
vn -0.5570 -0.0117 0.8304
vn -0.2543 -0.0326 0.9666
vn 0.7908 0.3823 0.4780
vn 0.7104 0.3213 0.6261
vn -0.6069 -0.3227 -0.7263
vn -0.6527 -0.3617 -0.6656
vn 0.2161 0.0349 -0.9757
vn -0.6360 -0.3659 -0.6794
vn -0.6610 -0.3616 -0.6576
vn 0.6981 0.3218 0.6395
vn -0.6281 -0.3703 -0.6843
vn -0.6409 -0.3718 -0.6716
vn 0.7244 0.3070 0.6172
vn 0.7417 0.3079 0.5959
vn 0.7329 0.3144 0.6033
vn 0.9876 -0.0544 0.1470
vn 0.9937 -0.0525 0.0988
vn 0.9974 -0.0504 0.0508
vn -0.6756 -0.3464 -0.6509
vn -0.9982 0.0463 0.0378
vn 0.6756 0.3464 0.6509
vn -0.9974 0.0454 0.0566
vn -0.6756 -0.3463 -0.6508
vn 0.5313 0.0137 -0.8471
vn 0.9231 -0.0267 -0.3836
vn -0.9987 0.0472 0.0191
vn 0.3639 -0.0611 -0.9294
vn 0.3726 -0.3139 -0.8733
vn 0.9939 0.1070 -0.0251
vn 0.6361 0.0587 -0.7693
vn 0.9392 -0.0294 -0.3421
vn 0.5394 0.0131 -0.8420
vn 0.9987 -0.0489 0.0158
vn -0.6755 -0.3463 -0.6509
vn 0.6756 0.3463 0.6508
vn -0.9906 0.0536 -0.1259
vn -0.9262 0.0619 -0.3719
vn -0.9981 0.0462 0.0415
vn 0.6755 0.3464 0.6509
vn -0.9635 0.0585 -0.2612
vn -0.8457 0.0653 -0.5297
vn 0.3153 -0.0592 0.9471
vn 0.8456 -0.0653 0.5299
vn 0.9817 -0.0558 0.1821
vn 0.5452 0.4246 0.7228
vn 0.7249 0.3624 0.5858
vn -0.7270 -0.3088 -0.6133
vn -0.6471 -0.3367 -0.6840
vn -0.9886 0.0542 -0.1406
vn -0.6409 -0.3294 -0.6933
vn -0.6462 -0.3407 -0.6829
vn 0.7254 0.3548 0.5898
vn 0.9981 -0.0462 -0.0415
vn -0.6331 -0.3264 -0.7019
vn -0.6288 -0.3323 -0.7030
vn 0.7550 0.3682 0.5426
vn 0.7502 0.3809 0.5405
vn 0.7367 0.3760 0.5620
vn 0.2221 0.0345 -0.9744
vn 0.1772 0.0371 -0.9835
vn 0.1316 0.0396 -0.9905
vn -0.0452 -0.0442 0.9980
vn -0.0265 -0.0451 0.9986
vn -0.8640 0.0648 -0.4994
vn -0.3231 0.0594 -0.9445
vn -0.0636 -0.0432 0.9970
vn -0.8384 -0.0123 -0.5448
vn -0.4827 -0.1322 -0.8658
vn 0.0638 0.3221 -0.9446
vn -0.8693 0.1252 -0.4781
vn -0.2762 0.0578 -0.9594
vn -0.8583 0.0650 -0.5090
vn 0.0979 0.0414 -0.9943
vn -0.2025 -0.0357 0.9786
vn -0.4225 -0.0217 0.9061
vn -0.3256 -0.0282 0.9451
vn -0.5568 -0.0117 0.8306
vn 0.9259 -0.0271 -0.3769
vn 0.5570 0.0117 -0.8304
vn 0.2543 0.0326 -0.9666
vn 0.5448 0.3004 0.7829
vn 0.6292 0.3768 0.6798
vn -0.7506 -0.3704 -0.5472
vn -0.6984 -0.3302 -0.6350
vn -0.2161 -0.0349 0.9757
vn -0.7135 -0.3257 -0.6203
vn -0.6903 -0.3305 -0.6436
vn 0.6460 0.3767 0.6640
vn -0.7198 -0.3214 -0.6153
vn -0.7081 -0.3207 -0.6291
vn 0.6031 0.3975 0.6916
vn 0.5762 0.3937 0.7162
vn 0.5939 0.3847 0.7066
vn -0.9876 0.0544 -0.1470
vn -0.9937 0.0525 -0.0988
vn -0.9974 0.0504 -0.0508
vn 0.9982 -0.0463 -0.0378
vn 0.9974 -0.0454 -0.0566
vn -0.5313 -0.0137 0.8471
vn -0.9231 0.0267 0.3837
vn 0.9987 -0.0472 -0.0191
vn -0.6878 -0.0849 0.7209
vn -0.9826 -0.1567 -0.0997
vn -0.7078 0.1947 0.6790
vn -0.4484 0.0266 0.8934
vn -0.9392 0.0294 0.3421
vn -0.5394 -0.0131 0.8420
vn -0.9987 0.0489 -0.0159
vn 0.9906 -0.0536 0.1259
vn 0.9262 -0.0619 0.3719
vn -0.6757 -0.3464 -0.6508
vn 0.9635 -0.0585 0.2613
vn 0.8456 -0.0653 0.5297
vn -0.3153 0.0591 -0.9471
vn -0.8456 0.0653 -0.5299
vn -0.9817 0.0558 -0.1821
vn -0.0830 -0.0437 0.9956
vn -0.1270 -0.0415 0.9910
vn -0.3001 -0.0317 0.9534
vn -0.2532 -0.0345 0.9668
vn -0.4594 -0.0213 0.8880
vn -0.4129 -0.0245 0.9105
vn -0.6020 -0.0105 0.7984
vn -0.5586 -0.0140 0.8293
vn -0.7261 0.0004 0.6876
vn -0.6878 -0.0031 0.7259
vn -0.8296 0.0113 0.5582
vn -0.7982 0.0078 0.6023
vn -0.9107 0.0220 0.4126
vn -0.8875 0.0186 0.4605
vn -0.9669 0.0322 0.2532
vn -0.9527 0.0292 0.3026
vn -0.9956 0.0416 0.0834
vn -0.9906 0.0391 0.1313
vn -0.9944 0.0499 -0.0926
vn -0.9976 0.0480 -0.0497
vn -0.9613 0.0568 -0.2696
vn -0.9704 0.0556 -0.2350
vn -0.8955 0.0620 -0.4408
vn -0.9067 0.0614 -0.4172
vn -0.7981 0.0651 -0.5990
vn -0.8066 0.0649 -0.5875
vn -0.6724 0.0659 -0.7373
vn -0.6733 0.0659 -0.7364
vn -0.5234 0.0645 -0.8496
vn -0.5134 0.0643 -0.8558
vn -0.3578 0.0608 -0.9318
vn -0.3355 0.0602 -0.9401
vn -0.1826 0.0552 -0.9816
vn -0.1494 0.0539 -0.9873
vn -0.0049 0.0479 -0.9988
vn 0.0364 0.0459 -0.9983
vn 0.1692 0.0392 -0.9848
vn 0.2150 0.0367 -0.9759
vn 0.3346 0.0296 -0.9419
vn 0.3817 0.0266 -0.9239
vn 0.4877 0.0193 -0.8728
vn 0.5329 0.0160 -0.8460
vn 0.6254 0.0086 -0.7802
vn 0.6665 0.0051 -0.7455
vn 0.7455 -0.0023 -0.6665
vn 0.7805 -0.0059 -0.6251
vn 0.8457 -0.0132 -0.5336
vn 0.8731 -0.0167 -0.4873
vn 0.9233 -0.0240 -0.3834
vn 0.9420 -0.0272 -0.3344
vn 0.9752 -0.0342 -0.2185
vn 0.9848 -0.0370 -0.1694
vn 0.9982 -0.0437 -0.0417
vn 0.9989 -0.0459 0.0041
vn 0.9885 -0.0520 0.1422
vn 0.9820 -0.0536 0.1814
vn 0.9432 -0.0588 0.3270
vn 0.9325 -0.0597 0.3563
vn 0.8611 -0.0635 0.5044
vn 0.8506 -0.0638 0.5219
vn 0.7438 -0.0658 0.6652
vn 0.7385 -0.0658 0.6710
vn 0.5962 -0.0654 0.8002
vn 0.6004 -0.0655 0.7970
vn 0.4261 -0.0625 0.9025
vn 0.4422 -0.0629 0.8947
vn 0.2429 -0.0573 0.9683
vn 0.2709 -0.0582 0.9608
vn 0.6485 0.3501 0.6759
vn 0.0560 -0.0501 0.9972
vn 0.0936 -0.0517 0.9943
vn -0.7205 -0.2030 -0.6631
vn -0.6712 -0.2023 -0.7131
vn -0.6715 -0.2023 -0.7129
vn -0.7236 -0.2031 -0.6597
vn 0.9819 -0.0536 0.1814
vn -0.2047 -0.2800 -0.9379
vn -0.1535 -0.3055 -0.9398
vn -0.1471 -0.3093 -0.9395
vn -0.1957 -0.2839 -0.9387
vn -0.4163 -0.7278 -0.5449
vn -0.5640 -0.7216 -0.4015
vn -0.5651 -0.7213 -0.4004
vn -0.4146 -0.7276 -0.5466
vn -0.8720 -0.2270 -0.4337
vn -0.8419 -0.2175 -0.4939
vn -0.8479 -0.2191 -0.4827
vn -0.8773 -0.2293 -0.4215
vn -0.4429 -0.2197 -0.8692
vn -0.3816 -0.2299 -0.8953
vn -0.3693 -0.2323 -0.8998
vn -0.4317 -0.2214 -0.8744
vn -0.0627 -0.4805 -0.8747
vn -0.0946 -0.5481 -0.8311
vn -0.0933 -0.5460 -0.8326
vn -0.0625 -0.4799 -0.8751
vn -0.9322 -0.2988 -0.2042
vn -0.9266 -0.2746 -0.2568
vn -0.9280 -0.2781 -0.2479
vn -0.9325 -0.3022 -0.1979
vn -0.6182 -0.2035 -0.7592
vn -0.6153 -0.2036 -0.7616
vn -0.1098 -0.3368 -0.9351
vn -0.1062 -0.3402 -0.9343
vn -0.8799 -0.4654 -0.0961
vn -0.9064 -0.4105 -0.0996
vn -0.9061 -0.4111 -0.0995
vn -0.8804 -0.4645 -0.0959
vn -0.6884 -0.6730 -0.2707
vn -0.6910 -0.6714 -0.2678
vn -0.8063 -0.2105 -0.5528
vn -0.8123 -0.2114 -0.5435
vn -0.3205 -0.2430 -0.9155
vn -0.3083 -0.2460 -0.9189
vn -0.1636 -0.6215 -0.7662
vn -0.1606 -0.6190 -0.7688
vn -0.9146 -0.2551 -0.3138
vn -0.9173 -0.2584 -0.3029
vn -0.5621 -0.2067 -0.8008
vn -0.5558 -0.2072 -0.8051
vn -0.0770 -0.3755 -0.9236
vn -0.0756 -0.3779 -0.9227
vn -0.7785 -0.6028 -0.1747
vn -0.7810 -0.6003 -0.1722
vn -0.9228 -0.3654 -0.1222
vn -0.9222 -0.3673 -0.1207
vn -0.7657 -0.2057 -0.6094
vn -0.7707 -0.2061 -0.6029
vn -0.2610 -0.2595 -0.9298
vn -0.2500 -0.2631 -0.9318
vn -0.2739 -0.6885 -0.6716
vn -0.2704 -0.6869 -0.6746
vn -0.8963 -0.2394 -0.3732
vn -0.9005 -0.2423 -0.3612
vn -0.5034 -0.2121 -0.8376
vn -0.4943 -0.2131 -0.8428
vn -0.0593 -0.4230 -0.9042
vn -0.0592 -0.4240 -0.9037
vn -0.8395 -0.5304 -0.1184
vn -0.8410 -0.5282 -0.1172
vn -0.9311 -0.3286 -0.1583
vn -0.9307 -0.3316 -0.1547
vn -0.6485 -0.3501 -0.6759
vn -0.1269 -0.0415 0.9910
vn 0.3816 0.0266 -0.9239
vn -0.9669 0.0322 0.2533
vn 0.9752 -0.0342 -0.2184
# 309 vertex normals

vt 0.3671 0.2550 0.0000
vt 0.3671 0.2776 0.0000
vt 0.3445 0.2776 0.0000
vt 0.3445 0.2550 0.0000
vt 1.6206 0.6367 0.0000
vt 1.6317 0.6360 0.0000
vt 1.6523 0.6364 0.0000
vt 1.6565 0.6389 0.0000
vt 1.6571 0.6398 0.0000
vt 1.6563 0.6413 0.0000
vt 1.6039 0.6401 0.0000
vt 1.6035 0.6394 0.0000
vt 1.5996 0.6441 0.0000
vt 1.6581 0.6431 0.0000
vt 1.6581 0.8141 0.0000
vt 1.6500 0.8114 0.0000
vt 1.6018 0.7081 0.0000
vt 1.6848 0.9815 0.0000
vt 1.6843 0.9581 0.0000
vt 1.6897 0.9524 0.0000
vt 1.7103 0.9519 0.0000
vt 1.7132 0.9547 0.0000
vt 1.7138 0.9808 0.0000
vt 1.7146 0.9495 0.0000
vt 1.6618 0.9490 0.0000
vt 1.6787 0.9517 0.0000
vt 1.6619 0.9482 0.0000
vt 1.7143 0.9471 0.0000
vt 1.7152 0.9485 0.0000
vt 0.0219 0.3013 0.0000
vt 0.0219 0.2787 0.0000
vt 0.0400 0.2787 0.0000
vt 0.0400 0.3013 0.0000
vt 1.7161 0.9452 0.0000
vt 1.6579 0.9442 0.0000
vt 1.6601 0.8802 0.0000
vt 1.7080 0.7770 0.0000
vt 1.7161 0.7742 0.0000
vt 0.0168 0.1758 0.0000
vt 0.0168 0.1984 0.0000
vt 0.0038 0.1882 0.0000
vt 0.0038 0.1816 0.0000
vt 1.6646 0.8151 0.0000
vt 1.7064 0.7699 0.0000
vt 1.7156 0.7448 0.0000
vt 1.7110 0.7463 0.0000
vt 1.6841 0.6760 0.0000
vt 1.6961 0.6162 0.0000
vt 1.7001 0.6098 0.0000
vt 1.7071 0.6070 0.0000
vt 1.7104 0.6069 0.0000
vt 1.6257 0.9123 0.0000
vt 1.6530 0.8421 0.0000
vt 1.6575 0.8436 0.0000
vt 1.6521 0.9814 0.0000
vt 1.6488 0.9813 0.0000
vt 1.6417 0.9785 0.0000
vt 1.6378 0.9721 0.0000
vt 0.0301 0.2395 0.0000
vt 0.0367 0.2395 0.0000
vt 0.0367 0.2421 0.0000
vt 0.0301 0.2421 0.0000
vt 1.6734 0.7404 0.0000
vt 1.7031 0.7536 0.0000
vt 1.6151 0.8479 0.0000
vt 1.6450 0.8347 0.0000
vt 1.6063 0.7732 0.0000
vt 1.6484 0.8184 0.0000
vt 1.6345 0.3917 0.0000
vt 1.6411 0.3917 0.0000
vt 1.6410 0.4426 0.0000
vt 1.6345 0.4426 0.0000
vt 1.6410 0.5014 0.0000
vt 1.6344 0.5014 0.0000
vt 1.6410 0.5523 0.0000
vt 1.6345 0.5523 0.0000
vt 1.6263 0.6303 0.0000
vt 1.6268 0.6069 0.0000
vt 1.6557 0.6075 0.0000
vt 1.6551 0.6337 0.0000
vt 0.8316 0.7399 0.0000
vt 0.8542 0.7399 0.0000
vt 0.8542 0.7627 0.0000
vt 0.8316 0.7627 0.0000
vt 0.8484 0.8694 0.0000
vt 0.8418 0.8694 0.0000
vt 1.6826 0.9539 0.0000
vt 1.6246 0.6345 0.0000
vt 0.0198 0.1758 0.0000
vt 0.0198 0.1984 0.0000
vt 0.0431 0.2787 0.0000
vt 0.0431 0.3013 0.0000
vt 0.8316 0.6070 0.0000
vt 0.8542 0.6070 0.0000
vt 0.0016 0.1816 0.0000
vt 0.0039 0.1757 0.0000
vt 1.6411 0.6045 0.0000
vt 1.6411 0.6022 0.0000
vt 1.6469 0.6050 0.0000
vt 1.6345 0.6022 0.0000
vt 1.6345 0.6045 0.0000
vt 1.6243 0.6050 0.0000
vt 0.0016 0.1882 0.0000
vt 0.0039 0.1983 0.0000
vt 1.7135 0.9520 0.0000
vt 1.6555 0.6364 0.0000
vt 0.8316 0.5994 0.0000
vt 0.8542 0.5994 0.0000
vt 0.8542 0.6015 0.0000
vt 0.8316 0.6015 0.0000
vt 0.8542 0.6035 0.0000
vt 0.8316 0.6035 0.0000
vt 0.8316 0.5791 0.0000
vt 0.8542 0.5791 0.0000
vt 0.8316 0.6043 0.0000
vt 0.8542 0.6043 0.0000
vt 0.0301 0.2342 0.0000
vt 0.0367 0.2342 0.0000
vt 1.6345 0.3389 0.0000
vt 1.6411 0.3389 0.0000
vt 1.6411 0.3442 0.0000
vt 1.6345 0.3442 0.0000
vt 0.3192 0.3124 0.0000
vt 0.3192 0.2854 0.0000
vt 0.3447 0.2854 0.0000
vt 0.3447 0.3124 0.0000
vt 1.6317 0.6364 0.0000
vt 1.6522 0.6369 0.0000
vt 1.6565 0.6393 0.0000
vt 1.6038 0.6402 0.0000
vt 1.6571 0.6403 0.0000
vt 1.6562 0.6418 0.0000
vt 1.6039 0.6406 0.0000
vt 1.6207 0.6372 0.0000
vt 1.5999 0.6449 0.0000
vt 1.6580 0.6436 0.0000
vt 1.6580 0.8142 0.0000
vt 1.6499 0.8114 0.0000
vt 1.6021 0.7088 0.0000
vt 1.6849 0.9812 0.0000
vt 1.6844 0.9579 0.0000
vt 1.6898 0.9522 0.0000
vt 1.7103 0.9517 0.0000
vt 1.7132 0.9544 0.0000
vt 1.7138 0.9805 0.0000
vt 1.7146 0.9493 0.0000
vt 1.6787 0.9514 0.0000
vt 1.6620 0.9488 0.0000
vt 1.6620 0.9480 0.0000
vt 1.7143 0.9468 0.0000
vt 1.7152 0.9483 0.0000
vt 0.0005 0.3004 0.0000
vt 0.0005 0.2785 0.0000
vt 0.0173 0.2785 0.0000
vt 0.0173 0.3004 0.0000
vt 1.7161 0.9450 0.0000
vt 1.6580 0.9440 0.0000
vt 1.6603 0.8801 0.0000
vt 1.7080 0.7771 0.0000
vt 1.7161 0.7744 0.0000
vt 0.0166 0.1757 0.0000
vt 0.0166 0.1995 0.0000
vt 0.0034 0.1888 0.0000
vt 0.0034 0.1819 0.0000
vt 1.6648 0.8152 0.0000
vt 1.7064 0.7701 0.0000
vt 1.7156 0.7450 0.0000
vt 1.7111 0.7465 0.0000
vt 1.6841 0.6764 0.0000
vt 1.6962 0.6167 0.0000
vt 1.7001 0.6103 0.0000
vt 1.7071 0.6075 0.0000
vt 1.7104 0.6074 0.0000
vt 1.6260 0.9124 0.0000
vt 1.6523 0.9814 0.0000
vt 1.6490 0.9813 0.0000
vt 1.6420 0.9786 0.0000
vt 1.6380 0.9722 0.0000
vt 0.0301 0.2394 0.0000
vt 0.0370 0.2394 0.0000
vt 0.0370 0.2420 0.0000
vt 0.0301 0.2420 0.0000
vt 1.6735 0.7406 0.0000
vt 1.7031 0.7538 0.0000
vt 1.6154 0.8482 0.0000
vt 1.6066 0.7737 0.0000
vt 1.6484 0.8185 0.0000
vt 1.6345 0.3943 0.0000
vt 1.6414 0.3943 0.0000
vt 1.6414 0.4440 0.0000
vt 1.6345 0.4440 0.0000
vt 1.6413 0.5018 0.0000
vt 1.6344 0.5018 0.0000
vt 1.6413 0.5523 0.0000
vt 1.6344 0.5523 0.0000
vt 1.6263 0.6307 0.0000
vt 1.6268 0.6074 0.0000
vt 1.6557 0.6081 0.0000
vt 1.6551 0.6342 0.0000
vt 0.8308 0.7400 0.0000
vt 0.8546 0.7400 0.0000
vt 0.8546 0.7629 0.0000
vt 0.8308 0.7629 0.0000
vt 0.8485 0.8698 0.0000
vt 0.8416 0.8698 0.0000
vt 1.6827 0.9537 0.0000
vt 1.6246 0.6349 0.0000
vt 0.0199 0.1757 0.0000
vt 0.0199 0.1995 0.0000
vt 0.0204 0.2785 0.0000
vt 0.0204 0.3004 0.0000
vt 0.8308 0.6070 0.0000
vt 0.8546 0.6070 0.0000
vt 0.0010 0.1819 0.0000
vt 0.0033 0.1757 0.0000
vt 1.6412 0.6045 0.0000
vt 1.6412 0.6020 0.0000
vt 1.6474 0.6053 0.0000
vt 1.6343 0.6020 0.0000
vt 1.6343 0.6045 0.0000
vt 1.6236 0.6053 0.0000
vt 0.0010 0.1888 0.0000
vt 0.0033 0.1995 0.0000
vt 1.7136 0.9518 0.0000
vt 1.6555 0.6368 0.0000
vt 0.8308 0.5994 0.0000
vt 0.8546 0.5995 0.0000
vt 0.8546 0.6015 0.0000
vt 0.8308 0.6015 0.0000
vt 0.8546 0.6035 0.0000
vt 0.8308 0.6035 0.0000
vt 0.8308 0.5791 0.0000
vt 0.8546 0.5791 0.0000
vt 0.8308 0.6043 0.0000
vt 0.8546 0.6043 0.0000
vt 0.0370 0.2342 0.0000
vt 1.6346 0.3434 0.0000
vt 1.6415 0.3434 0.0000
vt 1.6415 0.3482 0.0000
vt 1.6346 0.3482 0.0000
vt 0.0144 0.0358 0.0000
vt 0.0144 0.0197 0.0000
vt 0.0288 0.0197 0.0000
vt 0.0288 0.0357 0.0000
vt 1.6318 0.6368 0.0000
vt 1.6523 0.6373 0.0000
vt 1.6565 0.6397 0.0000
vt 1.6044 0.6403 0.0000
vt 1.6571 0.6406 0.0000
vt 1.6563 0.6421 0.0000
vt 1.6041 0.6410 0.0000
vt 1.6208 0.6375 0.0000
vt 1.6004 0.6450 0.0000
vt 1.6581 0.6439 0.0000
vt 1.6581 0.8142 0.0000
vt 1.6500 0.8115 0.0000
vt 1.6027 0.7088 0.0000
vt 1.6849 0.9804 0.0000
vt 1.6844 0.9571 0.0000
vt 1.6898 0.9514 0.0000
vt 1.7103 0.9510 0.0000
vt 1.7132 0.9537 0.0000
vt 1.7137 0.9797 0.0000
vt 1.7146 0.9486 0.0000
vt 1.6788 0.9507 0.0000
vt 1.6621 0.9473 0.0000
vt 1.7143 0.9461 0.0000
vt 1.7152 0.9476 0.0000
vt 0.0404 0.0180 0.0000
vt 0.0404 0.0020 0.0000
vt 0.0520 0.0020 0.0000
vt 0.0520 0.0180 0.0000
vt 1.7161 0.9443 0.0000
vt 1.6581 0.9433 0.0000
vt 1.6603 0.8796 0.0000
vt 1.7080 0.7768 0.0000
vt 1.7161 0.7740 0.0000
vt 0.0169 0.1748 0.0000
vt 0.0169 0.1997 0.0000
vt 0.0037 0.1885 0.0000
vt 0.0037 0.1812 0.0000
vt 1.6648 0.8148 0.0000
vt 1.7064 0.7697 0.0000
vt 1.7155 0.7447 0.0000
vt 1.7111 0.7462 0.0000
vt 1.6842 0.6763 0.0000
vt 1.6265 0.9120 0.0000
vt 1.6530 0.8420 0.0000
vt 1.6527 0.9809 0.0000
vt 1.6494 0.9808 0.0000
vt 1.6424 0.9780 0.0000
vt 1.6385 0.9716 0.0000
vt 0.0299 0.2397 0.0000
vt 0.0372 0.2397 0.0000
vt 0.0372 0.2423 0.0000
vt 0.0299 0.2423 0.0000
vt 1.6736 0.7404 0.0000
vt 1.7031 0.7535 0.0000
vt 1.6159 0.8479 0.0000
vt 1.6451 0.8347 0.0000
vt 1.6072 0.7735 0.0000
vt 1.6343 0.3926 0.0000
vt 1.6416 0.3926 0.0000
vt 1.6416 0.4432 0.0000
vt 1.6343 0.4432 0.0000
vt 1.6416 0.5018 0.0000
vt 1.6343 0.5018 0.0000
vt 1.6416 0.5525 0.0000
vt 1.6343 0.5525 0.0000
vt 1.6264 0.6311 0.0000
vt 1.6269 0.6079 0.0000
vt 1.6557 0.6085 0.0000
vt 1.6551 0.6345 0.0000
vt 0.8301 0.7392 0.0000
vt 0.8550 0.7392 0.0000
vt 0.8550 0.7619 0.0000
vt 0.8301 0.7619 0.0000
vt 0.8486 0.8682 0.0000
vt 0.8413 0.8682 0.0000
vt 1.6827 0.9529 0.0000
vt 1.6247 0.6353 0.0000
vt 0.0201 0.1748 0.0000
vt 0.0201 0.1998 0.0000
vt 0.0540 0.0020 0.0000
vt 0.0540 0.0180 0.0000
vt 0.8300 0.6069 0.0000
vt 0.8550 0.6069 0.0000
vt 0.0014 0.1812 0.0000
vt 0.0037 0.1748 0.0000
vt 1.6416 0.6045 0.0000
vt 1.6416 0.6022 0.0000
vt 1.6481 0.6050 0.0000
vt 1.6343 0.6022 0.0000
vt 1.6344 0.6045 0.0000
vt 1.6231 0.6050 0.0000
vt 0.0014 0.1885 0.0000
vt 0.0037 0.1997 0.0000
vt 1.7135 0.9510 0.0000
vt 1.6555 0.6372 0.0000
vt 0.8301 0.5993 0.0000
vt 0.8550 0.5993 0.0000
vt 0.8550 0.6014 0.0000
vt 0.8301 0.6014 0.0000
vt 0.8550 0.6034 0.0000
vt 0.8301 0.6034 0.0000
vt 0.8301 0.5791 0.0000
vt 0.8550 0.5792 0.0000
vt 0.8301 0.6042 0.0000
vt 0.8550 0.6042 0.0000
vt 0.0299 0.2342 0.0000
vt 0.0372 0.2342 0.0000
vt 1.6344 0.3400 0.0000
vt 1.6416 0.3400 0.0000
vt 1.6416 0.3453 0.0000
vt 1.6344 0.3453 0.0000
vt 0.3466 0.3146 0.0000
vt 0.3466 0.2847 0.0000
vt 0.3720 0.2847 0.0000
vt 0.3720 0.3145 0.0000
vt 1.6208 0.6380 0.0000
vt 1.6318 0.6373 0.0000
vt 1.6523 0.6378 0.0000
vt 1.6565 0.6402 0.0000
vt 1.6571 0.6411 0.0000
vt 1.6563 0.6426 0.0000
vt 1.6042 0.6414 0.0000
vt 1.6041 0.6403 0.0000
vt 1.6002 0.6451 0.0000
vt 1.6580 0.6444 0.0000
vt 1.6580 0.8143 0.0000
vt 1.6500 0.8116 0.0000
vt 1.6024 0.7087 0.0000
vt 1.6850 0.9801 0.0000
vt 1.6845 0.9569 0.0000
vt 1.6899 0.9512 0.0000
vt 1.7104 0.9507 0.0000
vt 1.7132 0.9534 0.0000
vt 1.7138 0.9794 0.0000
vt 1.7146 0.9483 0.0000
vt 1.6622 0.9478 0.0000
vt 1.6789 0.9505 0.0000
vt 1.6622 0.9471 0.0000
vt 1.7143 0.9459 0.0000
vt 1.7152 0.9474 0.0000
vt 0.2950 0.3152 0.0000
vt 0.2950 0.2854 0.0000
vt 0.3156 0.2854 0.0000
vt 0.3156 0.3152 0.0000
vt 1.7161 0.9441 0.0000
vt 1.6582 0.9430 0.0000
vt 1.6605 0.8794 0.0000
vt 1.7080 0.7769 0.0000
vt 1.7161 0.7741 0.0000
vt 0.0167 0.1746 0.0000
vt 0.0167 0.2008 0.0000
vt 0.0035 0.1890 0.0000
vt 0.0035 0.1814 0.0000
vt 1.6650 0.8148 0.0000
vt 1.7065 0.7699 0.0000
vt 1.7156 0.7449 0.0000
vt 1.7111 0.7464 0.0000
vt 1.6843 0.6766 0.0000
vt 1.6962 0.6171 0.0000
vt 1.7002 0.6107 0.0000
vt 1.7071 0.6080 0.0000
vt 1.7104 0.6079 0.0000
vt 1.6262 0.9115 0.0000
vt 1.6524 0.9801 0.0000
vt 1.6491 0.9801 0.0000
vt 1.6422 0.9773 0.0000
vt 1.6382 0.9709 0.0000
vt 0.0297 0.2394 0.0000
vt 0.0373 0.2394 0.0000
vt 0.0373 0.2420 0.0000
vt 0.0297 0.2420 0.0000
vt 1.6737 0.7405 0.0000
vt 1.7032 0.7537 0.0000
vt 1.6157 0.8475 0.0000
vt 1.6451 0.8348 0.0000
vt 1.6069 0.7733 0.0000
vt 1.6484 0.8186 0.0000
vt 1.6341 0.3931 0.0000
vt 1.6417 0.3931 0.0000
vt 1.6417 0.4435 0.0000
vt 1.6340 0.4435 0.0000
vt 1.6417 0.5019 0.0000
vt 1.6340 0.5019 0.0000
vt 1.6417 0.5525 0.0000
vt 1.6340 0.5525 0.0000
vt 1.6264 0.6316 0.0000
vt 1.6269 0.6084 0.0000
vt 1.6557 0.6091 0.0000
vt 1.6551 0.6350 0.0000
vt 0.8293 0.7393 0.0000
vt 0.8555 0.7392 0.0000
vt 0.8555 0.7621 0.0000
vt 0.8293 0.7621 0.0000
vt 0.8488 0.8692 0.0000
vt 0.8412 0.8692 0.0000
vt 1.6828 0.9527 0.0000
vt 1.6247 0.6358 0.0000
vt 0.0199 0.1746 0.0000
vt 0.0199 0.2008 0.0000
vt 0.3192 0.3152 0.0000
vt 0.8293 0.6067 0.0000
vt 0.8555 0.6066 0.0000
vt 0.0011 0.1814 0.0000
vt 0.0034 0.1746 0.0000
vt 1.6417 0.6046 0.0000
vt 1.6417 0.6022 0.0000
vt 1.6484 0.6052 0.0000
vt 1.6340 0.6022 0.0000
vt 1.6340 0.6046 0.0000
vt 1.6222 0.6052 0.0000
vt 0.0011 0.1890 0.0000
vt 0.0034 0.2008 0.0000
vt 1.7136 0.9508 0.0000
vt 1.6555 0.6377 0.0000
vt 0.8293 0.5994 0.0000
vt 0.8555 0.5994 0.0000
vt 0.8555 0.6015 0.0000
vt 0.8293 0.6015 0.0000
vt 0.8555 0.6034 0.0000
vt 0.8293 0.6034 0.0000
vt 0.8293 0.5791 0.0000
vt 0.8555 0.5791 0.0000
vt 0.8293 0.6041 0.0000
vt 0.8555 0.6041 0.0000
vt 0.0296 0.2342 0.0000
vt 0.0373 0.2342 0.0000
vt 1.6341 0.3409 0.0000
vt 1.6417 0.3409 0.0000
vt 1.6417 0.3461 0.0000
vt 1.6341 0.3461 0.0000
vt 0.4487 0.3230 0.0000
vt 0.4487 0.3961 0.0000
vt 0.4360 0.3961 0.0000
vt 0.4360 0.3230 0.0000
vt 0.3018 0.3245 0.0000
vt 0.3018 0.3955 0.0000
vt 0.2895 0.3955 0.0000
vt 0.2895 0.3245 0.0000
vt 0.2755 0.3955 0.0000
vt 0.2755 0.3245 0.0000
vt 0.2603 0.3955 0.0000
vt 0.2603 0.3245 0.0000
vt 0.2442 0.3955 0.0000
vt 0.2442 0.3245 0.0000
vt 0.2279 0.3955 0.0000
vt 0.2279 0.3245 0.0000
vt 0.2119 0.3955 0.0000
vt 0.2119 0.3245 0.0000
vt 0.1967 0.3955 0.0000
vt 0.1967 0.3245 0.0000
vt 0.1827 0.3955 0.0000
vt 0.1827 0.3245 0.0000
vt 0.1704 0.3955 0.0000
vt 0.1704 0.3245 0.0000
vt 0.4331 0.3245 0.0000
vt 0.4331 0.3955 0.0000
vt 0.4209 0.3955 0.0000
vt 0.4209 0.3245 0.0000
vt 0.4069 0.3955 0.0000
vt 0.4069 0.3245 0.0000
vt 0.3916 0.3955 0.0000
vt 0.3916 0.3245 0.0000
vt 0.3756 0.3955 0.0000
vt 0.3756 0.3245 0.0000
vt 0.3593 0.3955 0.0000
vt 0.3593 0.3245 0.0000
vt 0.3433 0.3955 0.0000
vt 0.3433 0.3245 0.0000
vt 0.3280 0.3955 0.0000
vt 0.3280 0.3245 0.0000
vt 0.3140 0.3955 0.0000
vt 0.3140 0.3245 0.0000
vt 0.6955 0.3229 0.0000
vt 0.6955 0.3960 0.0000
vt 0.6829 0.3960 0.0000
vt 0.6829 0.3229 0.0000
vt 0.6685 0.3960 0.0000
vt 0.6685 0.3229 0.0000
vt 0.6527 0.3960 0.0000
vt 0.6527 0.3229 0.0000
vt 0.6362 0.3960 0.0000
vt 0.6362 0.3229 0.0000
vt 0.6195 0.3960 0.0000
vt 0.6195 0.3229 0.0000
vt 0.6029 0.3960 0.0000
vt 0.6029 0.3229 0.0000
vt 0.5872 0.3960 0.0000
vt 0.5872 0.3229 0.0000
vt 0.5728 0.3960 0.0000
vt 0.5728 0.3229 0.0000
vt 0.5602 0.3960 0.0000
vt 0.5602 0.3229 0.0000
vt 0.5587 0.3230 0.0000
vt 0.5587 0.3961 0.0000
vt 0.5443 0.3961 0.0000
vt 0.5443 0.3230 0.0000
vt 0.5286 0.3961 0.0000
vt 0.5286 0.3230 0.0000
vt 0.5121 0.3961 0.0000
vt 0.5121 0.3230 0.0000
vt 0.4953 0.3961 0.0000
vt 0.4953 0.3230 0.0000
vt 0.4788 0.3961 0.0000
vt 0.4788 0.3230 0.0000
vt 0.0886 0.0456 0.0000
vt 0.0856 0.0416 0.0000
vt 0.0834 0.0372 0.0000
vt 0.0821 0.0325 0.0000
vt 0.0816 0.0276 0.0000
vt 0.0821 0.0227 0.0000
vt 0.0834 0.0180 0.0000
vt 0.0856 0.0136 0.0000
vt 0.0886 0.0097 0.0000
vt 0.0923 0.0063 0.0000
vt 0.0965 0.0036 0.0000
vt 0.1012 0.0017 0.0000
vt 0.1062 0.0006 0.0000
vt 0.1112 0.0004 0.0000
vt 0.1163 0.0010 0.0000
vt 0.1211 0.0025 0.0000
vt 0.1256 0.0048 0.0000
vt 0.1296 0.0079 0.0000
vt 0.1329 0.0116 0.0000
vt 0.1355 0.0158 0.0000
vt 0.1373 0.0204 0.0000
vt 0.1382 0.0252 0.0000
vt 0.1382 0.0301 0.0000
vt 0.1373 0.0349 0.0000
vt 0.1355 0.0394 0.0000
vt 0.1329 0.0436 0.0000
vt 0.1296 0.0473 0.0000
vt 0.1256 0.0504 0.0000
vt 0.1211 0.0527 0.0000
vt 0.1163 0.0542 0.0000
vt 0.1112 0.0549 0.0000
vt 0.1062 0.0546 0.0000
vt 0.1012 0.0535 0.0000
vt 0.0965 0.0516 0.0000
vt 0.0923 0.0489 0.0000
vt 0.4631 0.3961 0.0000
vt 0.4631 0.3230 0.0000
vt 0.0817 0.0077 0.0000
vt 0.0825 0.0097 0.0000
vt 0.0808 0.0101 0.0000
vt 0.0802 0.0084 0.0000
vt 1.6902 0.4076 0.0000
vt 1.6902 0.3882 0.0000
vt 1.7042 0.3882 0.0000
vt 1.7042 0.4076 0.0000
vt 0.0756 0.0236 0.0000
vt 0.0735 0.0242 0.0000
vt 0.0731 0.0226 0.0000
vt 0.0749 0.0220 0.0000
vt 0.0594 0.0169 0.0000
vt 0.0588 0.0149 0.0000
vt 0.0605 0.0146 0.0000
vt 0.0610 0.0163 0.0000
vt 0.0756 0.0020 0.0000
vt 0.0775 0.0030 0.0000
vt 0.0765 0.0044 0.0000
vt 0.0749 0.0036 0.0000
vt 0.0817 0.0179 0.0000
vt 0.0806 0.0197 0.0000
vt 0.0792 0.0187 0.0000
vt 0.0802 0.0172 0.0000
vt 0.0650 0.0231 0.0000
vt 0.0632 0.0220 0.0000
vt 0.0643 0.0207 0.0000
vt 0.0658 0.0217 0.0000
vt 0.0670 0.0017 0.0000
vt 0.0691 0.0012 0.0000
vt 0.0694 0.0028 0.0000
vt 0.0675 0.0032 0.0000
vt 0.0829 0.0118 0.0000
vt 0.0812 0.0119 0.0000
vt 0.0713 0.0245 0.0000
vt 0.0712 0.0228 0.0000
vt 0.0603 0.0068 0.0000
vt 0.0616 0.0051 0.0000
vt 0.0629 0.0062 0.0000
vt 0.0618 0.0076 0.0000
vt 0.0586 0.0128 0.0000
vt 0.0603 0.0128 0.0000
vt 0.0792 0.0043 0.0000
vt 0.0780 0.0055 0.0000
vt 0.0792 0.0213 0.0000
vt 0.0780 0.0201 0.0000
vt 0.0616 0.0205 0.0000
vt 0.0629 0.0194 0.0000
vt 0.0713 0.0011 0.0000
vt 0.0712 0.0028 0.0000
vt 0.0829 0.0139 0.0000
vt 0.0812 0.0137 0.0000
vt 0.0691 0.0244 0.0000
vt 0.0694 0.0228 0.0000
vt 0.0588 0.0107 0.0000
vt 0.0605 0.0110 0.0000
vt 0.0632 0.0037 0.0000
vt 0.0643 0.0049 0.0000
vt 0.0806 0.0059 0.0000
vt 0.0792 0.0069 0.0000
vt 0.0775 0.0226 0.0000
vt 0.0765 0.0212 0.0000
vt 0.0603 0.0188 0.0000
vt 0.0618 0.0180 0.0000
vt 0.0735 0.0014 0.0000
vt 0.0731 0.0030 0.0000
vt 0.0825 0.0159 0.0000
vt 0.0808 0.0155 0.0000
vt 0.0670 0.0239 0.0000
vt 0.0675 0.0224 0.0000
vt 0.0594 0.0087 0.0000
vt 0.0610 0.0093 0.0000
vt 0.0650 0.0025 0.0000
vt 0.0658 0.0040 0.0000
vt 0.0623 0.0177 0.0000
vt 0.0616 0.0161 0.0000
vt 0.0611 0.0145 0.0000
vt 0.0609 0.0128 0.0000
vt 0.0611 0.0111 0.0000
vt 0.0616 0.0094 0.0000
vt 0.0623 0.0079 0.0000
vt 0.0634 0.0065 0.0000
vt 0.0646 0.0054 0.0000
vt 0.0661 0.0044 0.0000
vt 0.0678 0.0037 0.0000
vt 0.0695 0.0034 0.0000
vt 0.0713 0.0033 0.0000
vt 0.0730 0.0035 0.0000
vt 0.0747 0.0040 0.0000
vt 0.0763 0.0049 0.0000
vt 0.0777 0.0059 0.0000
vt 0.0788 0.0072 0.0000
vt 0.0797 0.0087 0.0000
vt 0.0804 0.0103 0.0000
vt 0.0807 0.0119 0.0000
vt 0.0807 0.0136 0.0000
vt 0.0804 0.0153 0.0000
vt 0.0797 0.0169 0.0000
vt 0.0788 0.0184 0.0000
vt 0.0777 0.0197 0.0000
vt 0.0763 0.0207 0.0000
vt 0.0747 0.0215 0.0000
vt 0.0730 0.0221 0.0000
vt 0.0713 0.0223 0.0000
vt 0.0695 0.0222 0.0000
vt 0.0678 0.0218 0.0000
vt 0.0661 0.0212 0.0000
vt 0.0646 0.0202 0.0000
vt 0.0634 0.0191 0.0000
vt 1.7075 0.4642 0.0000
vt 1.7075 0.4517 0.0000
vt 1.7183 0.4517 0.0000
vt 1.7183 0.4642 0.0000
vt 1.6074 0.4626 0.0000
vt 1.6074 0.4455 0.0000
vt 1.6214 0.4455 0.0000
vt 1.6214 0.4626 0.0000
vt 1.6074 0.6281 0.0000
vt 1.6074 0.6111 0.0000
vt 1.6214 0.6111 0.0000
vt 1.6214 0.6281 0.0000
vt 1.7075 0.4391 0.0000
vt 1.7183 0.4391 0.0000
vt 1.7075 0.5989 0.0000
vt 1.7075 0.5894 0.0000
vt 1.7183 0.5894 0.0000
vt 1.7183 0.5989 0.0000
vt 1.6074 0.5916 0.0000
vt 1.6214 0.5916 0.0000
vt 1.7075 0.4266 0.0000
vt 1.7183 0.4266 0.0000
vt 1.7075 0.5785 0.0000
vt 1.7183 0.5785 0.0000
vt 1.6074 0.5704 0.0000
vt 1.6214 0.5704 0.0000
vt 1.7075 0.4147 0.0000
vt 1.7183 0.4147 0.0000
vt 1.7075 0.5666 0.0000
vt 1.7183 0.5666 0.0000
vt 1.6074 0.5481 0.0000
vt 1.6214 0.5481 0.0000
vt 1.7075 0.4038 0.0000
vt 1.7183 0.4038 0.0000
vt 1.7075 0.5541 0.0000
vt 1.7183 0.5541 0.0000
vt 1.6074 0.5255 0.0000
vt 1.6214 0.5255 0.0000
vt 1.7075 0.3942 0.0000
vt 1.7183 0.3942 0.0000
vt 1.7075 0.5414 0.0000
vt 1.7183 0.5414 0.0000
vt 1.6074 0.5032 0.0000
vt 1.6214 0.5032 0.0000
vt 1.6902 0.5537 0.0000
vt 1.6902 0.5367 0.0000
vt 1.7042 0.5367 0.0000
vt 1.7042 0.5537 0.0000
vt 1.7075 0.5289 0.0000
vt 1.7183 0.5289 0.0000
vt 1.6074 0.4820 0.0000
vt 1.6214 0.4820 0.0000
vt 1.6902 0.5173 0.0000
vt 1.7042 0.5173 0.0000
vt 1.7075 0.5170 0.0000
vt 1.7183 0.5170 0.0000
vt 1.6902 0.4961 0.0000
vt 1.7042 0.4961 0.0000
vt 1.7075 0.5061 0.0000
vt 1.7183 0.5061 0.0000
vt 1.6902 0.4738 0.0000
vt 1.7042 0.4738 0.0000
vt 1.7075 0.4966 0.0000
vt 1.7183 0.4966 0.0000
vt 1.6902 0.4511 0.0000
vt 1.7042 0.4511 0.0000
vt 1.7075 0.4870 0.0000
vt 1.7183 0.4870 0.0000
vt 1.6902 0.4288 0.0000
vt 1.7042 0.4288 0.0000
vt 1.7075 0.4761 0.0000
vt 1.7183 0.4761 0.0000
# 766 texture coords

o Motor3_Dron
g Motor3_Dron
usemtl Material__28
s off
f 1/1/1 2/2/1 3/3/1 4/4/1 
f 5/5/2 6/6/2 7/7/2 8/8/2 
f 5/5/2 8/8/2 9/9/2 10/10/2 
f 5/5/2 10/10/2 11/11/2 12/12/2 
f 13/13/3 11/11/3 10/10/3 14/14/3 
f 13/13/3 14/14/3 15/15/3 16/16/3 
f 13/13/3 16/16/3 17/17/3 
f 4/18/4 18/19/4 19/20/4 20/21/4 
f 4/18/4 20/21/4 21/22/4 1/23/4 
f 22/24/5 20/21/5 19/20/5 23/25/5 
f 19/20/5 24/26/5 23/25/5 
f 22/24/5 23/25/5 25/27/5 26/28/5 
f 22/24/5 26/28/5 27/29/5 
f 4/30/6 3/31/6 28/32/6 18/33/6 
f 29/34/7 26/28/7 25/27/7 30/35/7 
f 29/34/7 30/35/7 31/36/7 32/37/7 
f 29/34/7 32/37/7 33/38/7 
f 24/39/8 5/40/8 12/41/8 23/42/8 
f 31/36/9 34/43/9 35/44/9 32/37/9 
f 36/45/10 37/46/10 38/47/10 39/48/10 
f 36/45/10 39/48/10 40/49/10 41/50/10 
f 36/45/10 41/50/10 42/51/10 
f 43/52/11 44/53/11 45/54/11 46/55/11 
f 43/52/11 46/55/11 47/56/11 48/57/11 
f 43/52/11 48/57/11 49/58/11 
f 41/59/12 47/60/12 46/61/12 42/62/12 
f 34/43/13 50/63/13 51/64/13 35/44/13 
f 50/63/14 38/47/14 37/46/14 51/64/14 
f 43/52/15 52/65/15 53/66/15 44/53/15 
f 52/65/16 54/67/16 55/68/16 53/66/16 
f 54/67/17 17/17/17 16/16/17 55/68/17 
f 43/69/18 38/70/18 50/71/18 52/72/18 
f 52/72/19 50/71/19 34/73/19 54/74/19 
f 54/74/20 34/73/20 31/75/20 17/76/20 
f 6/6/21 28/77/21 3/78/21 2/79/21 
f 6/6/21 2/79/21 56/80/21 7/7/21 
f 37/46/22 32/37/22 35/44/22 51/64/22 
f 16/16/21 44/53/21 53/66/21 55/68/21 
f 15/81/23 33/82/23 36/83/23 45/84/23 
f 33/38/4 32/37/4 37/46/4 36/45/4 
f 16/16/21 15/15/21 45/54/21 44/53/21 
f 45/84/24 36/83/24 42/85/24 46/86/24 
f 18/19/4 57/87/4 19/20/4 
f 57/87/25 24/26/25 19/20/25 
f 5/5/21 58/88/21 6/6/21 
f 58/88/21 28/77/21 6/6/21 
f 5/40/26 24/39/26 57/89/26 58/90/26 
f 58/91/27 57/92/27 18/33/27 28/32/27 
f 14/93/28 29/94/28 33/82/28 15/81/28 
f 23/42/29 59/95/29 25/96/29 
f 59/97/30 30/98/30 25/99/30 
f 13/100/31 60/101/31 11/102/31 
f 60/103/32 12/41/32 11/104/32 
f 13/100/33 30/98/33 59/97/33 60/101/33 
f 60/103/34 59/95/34 23/42/34 12/41/34 
f 30/98/35 13/100/35 17/76/35 31/75/35 
f 22/24/36 61/105/36 20/21/36 
f 61/105/22 21/22/22 20/21/22 
f 56/80/37 62/106/37 7/7/37 
f 62/106/38 8/8/38 7/7/38 
f 56/107/39 21/108/39 61/109/39 62/110/39 
f 62/110/40 61/109/40 22/111/40 8/112/40 
f 21/108/41 56/107/41 2/113/41 1/114/41 
f 29/34/42 27/29/42 26/28/42 
f 9/9/43 14/14/43 10/10/43 
f 9/115/44 27/116/44 29/94/44 14/93/44 
f 8/112/45 22/111/45 27/116/45 9/115/45 
f 47/60/46 41/59/46 40/117/46 48/118/46 
f 48/119/47 40/120/47 39/121/47 49/122/47 
f 38/70/48 43/69/48 49/122/48 39/121/48 
f 63/123/41 64/124/41 65/125/41 66/126/41 
f 67/127/49 68/128/49 69/129/49 70/130/49 
f 69/129/49 71/131/49 72/132/49 73/133/49 
f 69/129/49 73/133/49 70/130/49 
f 74/134/49 67/127/49 70/130/49 
f 75/135/50 73/133/50 72/132/50 76/136/50 
f 75/135/50 76/136/50 77/137/50 78/138/50 
f 75/135/50 78/138/50 79/139/50 
f 66/140/4 80/141/4 81/142/4 82/143/4 
f 66/140/4 82/143/4 83/144/4 63/145/4 
f 84/146/51 82/143/51 81/142/51 85/147/51 
f 85/147/51 86/148/51 87/149/51 84/146/51 
f 84/146/51 87/149/51 88/150/51 89/151/51 
f 66/152/1 65/153/1 90/154/1 80/155/1 
f 91/156/52 88/150/52 87/149/52 92/157/52 
f 91/156/52 92/157/52 93/158/52 94/159/52 
f 91/156/52 94/159/52 95/160/52 
f 85/161/53 74/162/53 70/163/53 86/164/53 
f 93/158/54 96/165/54 97/166/54 94/159/54 
f 98/167/55 99/168/55 100/169/55 101/170/55 
f 98/167/55 101/170/55 102/171/55 103/172/55 
f 98/167/55 103/172/55 104/173/55 
f 105/174/56 106/53/56 107/54/56 108/175/56 
f 105/174/56 108/175/56 109/176/56 110/177/56 
f 105/174/56 110/177/56 111/178/56 
f 103/179/6 109/180/6 108/181/6 104/182/6 
f 96/165/57 112/183/57 113/184/57 97/166/57 
f 112/183/58 100/169/58 99/168/58 113/184/58 
f 105/174/59 114/185/59 115/66/59 106/53/59 
f 114/185/60 116/186/60 117/187/60 115/66/60 
f 116/186/61 79/139/61 78/138/61 117/187/61 
f 105/188/62 100/189/62 112/190/62 114/191/62 
f 114/191/63 112/190/63 96/192/63 116/193/63 
f 116/193/64 96/192/64 93/194/64 79/195/64 
f 67/127/21 90/196/21 65/197/21 64/198/21 
f 67/127/21 64/198/21 118/199/21 68/128/21 
f 99/168/65 94/159/65 97/166/65 113/184/65 
f 78/138/21 106/53/21 115/66/21 117/187/21 
f 77/200/66 95/201/66 98/202/66 107/203/66 
f 95/160/4 94/159/4 99/168/4 98/167/4 
f 78/138/67 77/137/67 107/54/67 106/53/67 
f 107/203/68 98/202/68 104/204/68 108/205/68 
f 80/141/69 119/206/69 81/142/69 
f 119/206/65 85/147/65 81/142/65 
f 74/134/43 120/207/43 67/127/43 
f 120/207/67 90/196/67 67/127/67 
f 74/162/70 85/161/70 119/208/70 120/209/70 
f 120/210/71 119/211/71 80/155/71 90/154/71 
f 76/212/72 91/213/72 95/201/72 77/200/72 
f 86/164/73 121/214/73 87/215/73 
f 121/216/74 92/217/74 87/218/74 
f 75/219/75 122/220/75 73/221/75 
f 122/222/76 70/163/76 73/223/76 
f 75/219/77 92/217/77 121/216/77 122/220/77 
f 122/222/78 121/214/78 86/164/78 70/163/78 
f 92/217/79 75/219/79 79/195/79 93/194/79 
f 84/146/65 123/224/65 82/143/65 
f 123/224/80 83/144/80 82/143/80 
f 118/199/21 124/225/21 68/128/21 
f 124/225/81 69/129/81 68/128/81 
f 118/226/82 83/227/82 123/228/82 124/229/82 
f 124/229/83 123/228/83 84/230/83 69/231/83 
f 83/227/84 118/226/84 64/232/84 63/233/84 
f 91/156/69 89/151/69 88/150/69 
f 71/131/85 76/136/85 72/132/85 
f 71/234/86 89/235/86 91/213/86 76/212/86 
f 69/231/87 84/230/87 89/235/87 71/234/87 
f 109/180/88 103/179/88 102/117/88 110/236/88 
f 110/237/89 102/238/89 101/239/89 111/240/89 
f 100/189/90 105/188/90 111/240/90 101/239/90 
f 125/241/12 126/242/12 127/243/12 128/244/12 
f 129/245/91 130/246/91 131/247/91 132/248/91 
f 131/247/91 133/249/91 134/250/91 135/251/91 
f 131/247/91 135/251/91 132/248/91 
f 136/252/91 129/245/91 132/248/91 
f 137/253/92 135/251/92 134/250/92 138/254/92 
f 137/253/92 138/254/92 139/255/92 140/256/92 
f 137/253/92 140/256/92 141/257/92 
f 128/258/4 142/259/4 143/260/4 144/261/4 
f 128/258/4 144/261/4 145/262/4 125/263/4 
f 146/264/93 144/261/93 143/260/93 147/265/93 
f 147/265/93 148/149/93 149/266/93 146/264/93 
f 146/264/93 149/266/93 150/267/93 151/268/93 
f 128/269/41 127/270/41 152/271/41 142/272/41 
f 153/273/94 150/267/94 149/266/94 154/274/94 
f 153/273/94 154/274/94 155/275/94 156/276/94 
f 153/273/94 156/276/94 157/277/94 
f 147/278/95 136/279/95 132/280/95 148/281/95 
f 155/275/96 158/282/96 159/283/96 156/276/96 
f 160/284/97 161/285/97 162/286/97 163/170/97 
f 160/284/97 163/170/97 164/171/97 165/172/97 
f 160/284/97 165/172/97 166/173/97 
f 167/287/98 168/288/98 169/54/98 170/289/98 
f 167/287/98 170/289/98 171/290/98 172/291/98 
f 167/287/98 172/291/98 173/292/98 
f 165/293/99 171/294/99 170/295/99 166/296/99 
f 158/282/100 174/297/100 175/298/100 159/283/100 
f 174/297/101 162/286/101 161/285/101 175/298/101 
f 167/287/102 176/299/102 177/300/102 168/288/102 
f 176/299/103 178/301/103 179/187/103 177/300/103 
f 178/301/104 141/257/104 140/256/104 179/187/104 
f 167/302/105 162/303/105 174/304/105 176/305/105 
f 176/305/106 174/304/106 158/306/106 178/307/106 
f 178/307/107 158/306/107 155/308/107 141/309/107 
f 129/245/21 152/310/21 127/311/21 126/312/21 
f 129/245/21 126/312/21 180/313/21 130/246/21 
f 161/285/4 156/276/4 159/283/4 175/298/4 
f 140/256/21 168/288/21 177/300/21 179/187/21 
f 139/314/108 157/315/108 160/316/108 169/317/108 
f 157/277/4 156/276/4 161/285/4 160/284/4 
f 140/256/67 139/255/67 169/54/67 168/288/67 
f 169/317/109 160/316/109 166/318/109 170/319/109 
f 142/259/69 181/320/69 143/260/69 
f 181/320/65 147/265/65 143/260/65 
f 136/252/21 182/321/21 129/245/21 
f 182/321/43 152/310/43 129/245/43 
f 136/279/110 147/278/110 181/322/110 182/323/110 
f 182/324/111 181/325/111 142/272/111 152/271/111 
f 138/326/112 153/327/112 157/315/112 139/314/112 
f 148/281/113 183/328/113 149/329/113 
f 183/330/114 154/331/114 149/332/114 
f 137/333/115 184/334/115 135/335/115 
f 184/336/116 132/280/116 135/337/116 
f 137/333/117 154/331/117 183/330/117 184/334/117 
f 184/336/118 183/328/118 148/281/118 132/280/118 
f 154/331/119 137/333/119 141/309/119 155/308/119 
f 146/264/22 185/338/22 144/261/22 
f 185/338/69 145/262/69 144/261/69 
f 180/313/21 186/339/21 130/246/21 
f 186/339/21 131/247/21 130/246/21 
f 180/340/120 145/341/120 185/342/120 186/343/120 
f 186/343/121 185/342/121 146/344/121 131/345/121 
f 145/341/6 180/340/6 126/346/6 125/347/6 
f 153/273/65 151/268/65 150/267/65 
f 133/249/21 138/254/21 134/250/21 
f 133/348/122 151/349/122 153/327/122 138/326/122 
f 131/345/123 146/344/123 151/349/123 133/348/123 
f 171/294/124 165/293/124 164/350/124 172/351/124 
f 172/352/125 164/353/125 163/354/125 173/355/125 
f 162/303/126 167/302/126 173/355/126 163/354/126 
f 187/356/6 188/357/6 189/358/6 190/359/6 
f 191/360/127 192/361/127 193/362/127 194/363/127 
f 191/360/127 194/363/127 195/364/127 196/365/127 
f 191/360/127 196/365/127 197/366/127 198/367/127 
f 199/368/128 197/366/128 196/365/128 200/369/128 
f 199/368/128 200/369/128 201/370/128 202/371/128 
f 199/368/128 202/371/128 203/372/128 
f 190/373/4 204/374/4 205/375/4 206/376/4 
f 190/373/4 206/376/4 207/377/4 187/378/4 
f 208/379/129 206/376/129 205/375/129 209/380/129 
f 205/375/129 210/381/129 209/380/129 
f 208/379/129 209/380/129 211/382/129 212/383/129 
f 208/379/129 212/383/129 213/384/129 
f 190/385/12 189/386/12 214/387/12 204/388/12 
f 215/389/130 212/383/130 211/382/130 216/390/130 
f 215/389/130 216/390/130 217/391/130 218/392/130 
f 215/389/130 218/392/130 219/393/130 
f 210/394/131 191/395/131 198/396/131 209/397/131 
f 217/391/132 220/398/132 221/399/132 218/392/132 
f 222/400/133 223/401/133 224/402/133 225/403/133 
f 222/400/133 225/403/133 226/404/133 227/405/133 
f 222/400/133 227/405/133 228/406/133 
f 229/407/134 230/53/134 231/54/134 232/408/134 
f 229/407/134 232/408/134 233/409/134 234/410/134 
f 229/407/134 234/410/134 235/411/134 
f 227/412/41 233/413/41 232/414/41 228/415/41 
f 220/398/135 236/416/135 237/417/135 221/399/135 
f 236/416/136 224/402/136 223/401/136 237/417/136 
f 229/407/137 238/418/137 239/419/137 230/53/137 
f 238/418/138 240/420/138 241/421/138 239/419/138 
f 240/420/139 203/372/139 202/371/139 241/421/139 
f 229/422/140 224/423/140 236/424/140 238/425/140 
f 238/425/141 236/424/141 220/426/141 240/427/141 
f 240/427/142 220/426/142 217/428/142 203/429/142 
f 192/361/21 214/430/21 189/431/21 188/432/21 
f 192/361/21 188/432/21 242/433/21 193/362/21 
f 223/401/4 218/392/4 221/399/4 237/417/4 
f 202/371/67 230/53/67 239/419/67 241/421/67 
f 201/434/143 219/435/143 222/436/143 231/437/143 
f 219/393/65 218/392/65 223/401/65 222/400/65 
f 202/371/21 201/370/21 231/54/21 230/53/21 
f 231/437/144 222/436/144 228/438/144 232/439/144 
f 204/374/4 243/440/4 205/375/4 
f 243/440/22 210/381/22 205/375/22 
f 191/360/21 244/441/21 192/361/21 
f 244/441/43 214/430/43 192/361/43 
f 191/395/145 210/394/145 243/442/145 244/443/145 
f 244/124/146 243/444/146 204/388/146 214/387/146 
f 200/445/147 215/446/147 219/435/147 201/434/147 
f 209/397/148 245/447/148 211/448/148 
f 245/449/149 216/450/149 211/451/149 
f 199/452/150 246/453/150 197/454/150 
f 246/455/151 198/396/151 197/456/151 
f 199/452/152 216/450/152 245/449/152 246/453/152 
f 246/455/153 245/447/153 209/397/153 198/396/153 
f 216/450/154 199/452/154 203/429/154 217/428/154 
f 208/379/65 247/457/65 206/376/65 
f 247/457/4 207/377/4 206/376/4 
f 242/433/38 248/458/38 193/362/38 
f 248/458/43 194/363/43 193/362/43 
f 242/459/155 207/460/155 247/461/155 248/462/155 
f 248/462/156 247/461/156 208/463/156 194/464/156 
f 207/460/1 242/459/1 188/465/1 187/466/1 
f 215/389/157 213/384/157 212/383/157 
f 195/364/85 200/369/85 196/365/85 
f 195/467/158 213/468/158 215/446/158 200/445/158 
f 194/464/159 208/463/159 213/468/159 195/467/159 
f 233/413/160 227/412/160 226/469/160 234/470/160 
f 234/471/161 226/472/161 225/473/161 235/474/161 
f 224/423/162 229/422/162 235/474/162 225/473/162 
f 249/475/163 250/476/164 251/477/165 252/478/166 
f 252/479/166 251/480/165 253/481/167 254/482/168 
f 254/482/168 253/481/167 255/483/169 256/484/170 
f 256/484/170 255/483/169 257/485/171 258/486/172 
f 258/486/172 257/485/171 259/487/173 260/488/174 
f 260/488/174 259/487/173 261/489/175 262/490/176 
f 262/490/176 261/489/175 263/491/177 264/492/178 
f 264/492/178 263/491/177 265/493/179 266/494/180 
f 266/494/180 265/493/179 267/495/181 268/496/182 
f 268/496/182 267/495/181 269/497/183 270/498/184 
f 270/499/184 269/500/183 271/501/185 272/502/186 
f 272/502/186 271/501/185 273/503/187 274/504/188 
f 274/504/188 273/503/187 275/505/189 276/506/190 
f 276/506/190 275/505/189 277/507/191 278/508/192 
f 278/508/192 277/507/191 279/509/193 280/510/194 
f 280/510/194 279/509/193 281/511/195 282/512/196 
f 282/512/196 281/511/195 283/513/197 284/514/198 
f 284/514/198 283/513/197 285/515/199 286/516/200 
f 286/516/200 285/515/199 287/480/201 288/479/202 
f 288/517/202 287/518/201 289/519/203 290/520/204 
f 290/520/204 289/519/203 291/521/205 292/522/206 
f 292/522/206 291/521/205 293/523/207 294/524/208 
f 294/524/208 293/523/207 295/525/209 296/526/210 
f 296/526/210 295/525/209 297/527/211 298/528/212 
f 298/528/212 297/527/211 299/529/213 300/530/214 
f 300/530/214 299/529/213 301/531/215 302/532/216 
f 302/532/216 301/531/215 303/533/217 304/534/218 
f 304/534/218 303/533/217 305/535/219 306/536/220 
f 306/537/220 305/538/219 307/539/221 308/540/222 
f 308/540/222 307/539/221 309/541/223 310/542/224 
f 310/542/224 309/541/223 311/543/225 312/544/226 
f 312/544/226 311/543/225 313/545/227 314/546/228 
f 314/546/228 313/545/227 315/547/229 316/548/230 
f 251/549/231 250/550/231 317/551/231 315/552/231 
f 251/549/231 315/552/231 313/553/231 311/554/231 
f 251/549/231 311/554/231 309/555/231 307/556/231 
f 251/549/231 307/556/231 305/557/231 303/558/231 
f 251/549/231 303/558/231 301/559/231 299/560/231 
f 251/549/231 299/560/231 297/561/231 295/562/231 
f 251/549/231 295/562/231 293/563/231 291/564/231 
f 251/549/231 291/564/231 289/565/231 287/566/231 
f 251/549/231 287/566/231 285/567/231 283/568/231 
f 251/549/231 283/568/231 281/569/231 279/570/231 
f 251/549/231 279/570/231 277/571/231 275/572/231 
f 251/549/231 275/572/231 273/573/231 271/574/231 
f 251/549/231 271/574/231 269/575/231 267/576/231 
f 251/549/231 267/576/231 265/577/231 263/578/231 
f 251/549/231 263/578/231 261/579/231 259/580/231 
f 251/549/231 259/580/231 257/581/231 255/582/231 
f 251/549/231 255/582/231 253/583/231 
f 316/548/230 315/547/229 317/584/232 318/585/233 
f 318/585/233 317/584/232 250/476/164 249/475/163 
f 274/586/234 276/587/235 319/588/236 320/589/237 
f 321/590/215 322/591/217 323/592/238 324/593/216 
f 292/594/239 294/595/240 325/596/241 326/597/242 
f 310/598/243 312/599/244 327/600/245 328/601/246 
f 266/602/247 268/603/248 329/604/249 330/605/250 
f 284/606/251 286/607/252 331/608/253 332/609/254 
f 302/610/255 304/611/256 322/612/257 321/613/258 
f 258/614/259 260/615/260 333/616/261 334/617/262 
f 276/587/235 278/618/263 335/619/264 319/588/236 
f 294/595/240 296/620/265 336/621/266 325/596/241 
f 249/622/267 252/623/268 337/624/269 338/625/270 
f 312/599/244 314/626/271 339/627/272 327/600/245 
f 268/603/248 270/628/273 340/629/274 329/604/249 
f 286/607/252 288/630/275 341/631/276 331/608/253 
f 304/611/256 306/632/277 342/633/278 322/612/257 
f 260/615/260 262/634/279 343/635/280 333/616/261 
f 278/618/263 280/636/281 344/637/282 335/619/264 
f 296/620/265 298/638/283 345/639/284 336/621/266 
f 314/626/271 316/640/285 346/641/286 339/627/272 
f 252/623/268 254/642/287 347/643/288 337/624/269 
f 270/628/273 272/644/289 348/645/290 340/629/274 
f 288/630/275 290/646/291 349/647/292 341/631/276 
f 306/632/277 308/648/293 350/649/294 342/633/278 
f 262/634/279 264/650/295 351/651/296 343/635/280 
f 280/636/281 282/652/297 352/653/298 344/637/282 
f 298/638/283 300/654/299 353/655/300 345/639/284 
f 316/640/285 318/656/301 354/657/302 346/641/286 
f 254/642/287 256/658/303 355/659/304 347/643/288 
f 272/644/289 274/586/234 320/589/237 348/645/290 
f 290/646/291 292/594/239 326/597/242 349/647/292 
f 308/648/293 310/598/243 328/601/246 350/649/294 
f 264/650/295 266/602/247 330/605/250 351/651/296 
f 282/652/297 284/606/251 332/609/254 352/653/298 
f 300/654/299 302/610/255 321/613/258 353/655/300 
f 318/656/301 249/622/267 338/625/270 354/657/302 
f 256/658/303 258/614/259 334/617/262 355/659/304 
f 356/660/305 357/661/305 358/662/305 359/663/305 
f 356/660/305 359/663/305 360/664/305 361/665/305 
f 356/660/305 361/665/305 362/666/305 363/667/305 
f 356/660/305 363/667/305 364/668/305 365/669/305 
f 356/660/305 365/669/305 366/670/305 367/671/305 
f 356/660/305 367/671/305 368/672/305 369/673/305 
f 356/660/305 369/673/305 370/674/305 371/675/305 
f 356/660/305 371/675/305 372/676/305 373/677/305 
f 356/660/305 373/677/305 374/678/305 375/679/305 
f 356/660/305 375/679/305 376/680/305 377/681/305 
f 356/660/305 377/681/305 378/682/305 379/683/305 
f 356/660/305 379/683/305 380/684/305 381/685/305 
f 356/660/305 381/685/305 324/686/305 323/687/305 
f 356/660/305 323/687/305 382/688/305 383/689/305 
f 356/660/305 383/689/305 384/690/305 385/691/305 
f 356/660/305 385/691/305 386/692/305 387/693/305 
f 356/660/305 387/693/305 388/694/305 
f 319/695/189 335/696/191 370/697/192 369/698/190 
f 338/699/306 337/700/165 357/701/166 356/702/163 
f 322/703/217 342/704/219 382/705/220 323/706/238 
f 335/696/191 344/707/193 371/708/194 370/697/192 
f 337/709/165 347/710/167 358/711/168 357/712/166 
f 342/704/219 350/713/221 383/714/222 382/705/220 
f 344/707/193 352/715/195 372/716/196 371/708/194 
f 347/710/167 355/717/169 359/718/170 358/711/168 
f 350/713/221 328/719/223 384/720/224 383/714/222 
f 352/715/195 332/721/197 373/722/198 372/716/196 
f 355/717/169 334/723/171 360/724/172 359/718/170 
f 328/719/223 327/725/225 385/726/226 384/720/224 
f 332/721/197 331/727/199 374/728/200 373/722/198 
f 334/723/171 333/729/173 361/730/174 360/724/172 
f 327/725/225 339/731/227 386/732/228 385/726/226 
f 331/727/199 341/733/201 375/734/307 374/728/200 
f 333/729/173 343/735/175 362/736/176 361/730/174 
f 339/731/227 346/737/229 387/738/230 386/732/228 
f 341/739/201 349/740/203 376/741/204 375/742/307 
f 343/735/175 351/743/308 363/744/178 362/736/176 
f 346/737/229 354/745/232 388/746/233 387/738/230 
f 349/740/203 326/747/205 377/748/206 376/741/204 
f 351/743/308 330/749/179 364/750/180 363/744/178 
f 354/745/232 338/699/306 356/702/163 388/746/233 
f 326/747/205 325/751/207 378/752/208 377/748/206 
f 330/749/179 329/753/181 365/754/182 364/750/180 
f 325/751/207 336/755/209 379/756/210 378/752/208 
f 329/753/181 340/757/183 366/758/184 365/754/182 
f 336/755/209 345/759/211 380/760/212 379/756/210 
f 340/757/183 348/761/185 367/762/186 366/758/184 
f 345/759/211 353/763/309 381/764/214 380/760/212 
f 348/761/185 320/765/187 368/766/188 367/762/186 
f 353/763/309 321/590/215 324/593/216 381/764/214 
f 320/765/187 319/695/189 369/698/190 368/766/188 
# 337 polygons - 82 triangles

