# 3ds Max Wavefront OBJ Exporter v0.99 - (c)2007 guruware
# File Created: 16.05.2026 18:51:05

mtllib Brazo_Derecho.mtl

#
# object Brazo_Derecho
#

v  -0.3016 -0.8969 0.0872
v  -0.3071 -0.8967 0.0872
v  -0.3071 -0.8967 0.0801
v  -0.3016 -0.8969 0.0794
v  -0.1493 -0.0903 0.1086
v  -0.0316 -0.1909 0.1086
v  0.0244 -0.1432 0.1086
v  -0.0178 0.1412 0.1086
v  -0.0178 0.1412 -0.0931
v  -0.1493 -0.0903 -0.0931
v  0.0244 -0.1432 -0.0931
v  -0.0316 -0.1909 -0.0931
v  -0.2218 -0.2493 0.0609
v  -0.1319 -0.3313 0.0609
v  -0.2218 -0.2493 -0.0461
v  -0.1319 -0.3313 -0.0461
v  -0.2858 -0.4239 0.0588
v  -0.1979 -0.4729 0.0588
v  -0.2858 -0.4239 -0.0931
v  -0.1979 -0.4729 -0.0931
v  -0.3188 -0.5455 0.1086
v  -0.2423 -0.5944 0.1086
v  -0.3188 -0.5455 -0.0931
v  -0.2423 -0.5944 -0.0931
v  -0.3510 -0.6529 0.1086
v  -0.2765 -0.6696 0.1086
v  -0.3510 -0.6529 -0.0931
v  -0.2765 -0.6696 -0.0931
v  -0.2992 -0.7051 0.1086
v  -0.3603 -0.6996 0.1086
v  -0.3603 -0.6996 -0.0931
v  -0.2992 -0.7051 -0.0931
v  -0.3251 -0.8249 0.1513
v  -0.3187 -0.8183 0.1582
v  -0.3472 -0.8157 0.1582
v  -0.3469 -0.8241 0.1513
v  -0.3596 -0.7471 -0.0931
v  -0.3596 -0.7471 -0.0415
v  -0.3596 -0.7471 0.0099
v  -0.3596 -0.7471 0.0614
v  -0.3596 -0.7471 0.1086
v  -0.3130 -0.7488 -0.0931
v  -0.3130 -0.7488 0.1086
v  -0.3130 -0.7488 0.0550
v  -0.3130 -0.7488 0.0025
v  -0.3130 -0.7488 -0.0472
v  -0.3016 -0.8915 -0.0158
v  -0.3071 -0.8913 -0.0149
v  -0.3071 -0.8913 -0.0225
v  -0.3016 -0.8915 -0.0232
v  -0.3016 -0.9066 0.0360
v  -0.3071 -0.9064 0.0368
v  -0.3071 -0.9064 0.0285
v  -0.3016 -0.9066 0.0277
v  -0.3016 -0.8829 -0.0658
v  -0.3071 -0.8827 -0.0652
v  -0.3071 -0.8827 -0.0721
v  -0.3016 -0.8829 -0.0721
v  -0.3591 -0.7480 0.0645
v  -0.3502 -0.8176 0.0720
v  -0.3502 -0.8176 0.0964
v  -0.3139 -0.7511 0.0585
v  -0.3279 -0.8184 0.0689
v  -0.3279 -0.8184 0.0964
v  -0.3577 -0.7489 -0.0354
v  -0.3502 -0.8176 -0.0307
v  -0.3502 -0.8176 -0.0043
v  -0.3588 -0.7482 0.0069
v  -0.3162 -0.7519 -0.0402
v  -0.3279 -0.8184 -0.0335
v  -0.3147 -0.7525 -0.0005
v  -0.3279 -0.8184 -0.0078
v  -0.3589 -0.7476 0.0122
v  -0.3502 -0.8176 0.0203
v  -0.3502 -0.8176 0.0475
v  -0.3591 -0.7479 0.0577
v  -0.3146 -0.7519 0.0056
v  -0.3279 -0.8184 0.0167
v  -0.3139 -0.7510 0.0512
v  -0.3279 -0.8184 0.0444
v  -0.3502 -0.8176 -0.0809
v  -0.3502 -0.8176 -0.0552
v  -0.3577 -0.7490 -0.0490
v  -0.3279 -0.8184 -0.0809
v  -0.3161 -0.7514 -0.0542
v  -0.3279 -0.8184 -0.0579
v  -0.3305 -0.8749 0.0927
v  -0.3305 -0.8749 0.0758
v  -0.3196 -0.8753 0.0744
v  -0.3196 -0.8753 0.0927
v  -0.3305 -0.8695 -0.0087
v  -0.3305 -0.8695 -0.0271
v  -0.3196 -0.8699 -0.0285
v  -0.3196 -0.8699 -0.0104
v  -0.3305 -0.8846 0.0433
v  -0.3305 -0.8846 0.0230
v  -0.3196 -0.8850 0.0213
v  -0.3196 -0.8850 0.0418
v  -0.3305 -0.8609 -0.0600
v  -0.3305 -0.8609 -0.0764
v  -0.3196 -0.8614 -0.0764
v  -0.3196 -0.8614 -0.0613
v  -0.3603 -0.7600 0.1492
v  -0.2992 -0.7655 0.1492
v  -0.3596 -0.7653 0.1344
v  -0.3130 -0.7671 0.1344
# 106 vertices

vn -0.0379 -0.9993 0.0000
vn 0.0000 -0.0000 1.0000
vn -0.8694 0.4941 0.0000
vn -0.0000 0.0000 -1.0000
vn 0.6484 -0.7613 -0.0000
vn -0.1788 -0.2034 0.9626
vn -0.9100 0.4147 0.0000
vn -0.1764 -0.2005 -0.9637
vn 0.8138 -0.5811 -0.0000
vn -0.0073 -0.0099 0.9999
vn -0.9389 0.3442 0.0000
vn 0.1616 0.2193 -0.9622
vn 0.9062 -0.4229 -0.0000
vn 0.1899 0.3194 0.9284
vn -0.9651 0.2620 0.0000
vn 0.0000 0.0000 -1.0000
vn 0.9394 -0.3429 -0.0000
vn -0.0000 -0.0000 1.0000
vn -0.9578 0.2873 0.0000
vn 0.9101 -0.4143 -0.0000
vn -0.9810 0.1939 0.0000
vn 0.8428 -0.5383 -0.0000
vn -0.0449 -0.6674 0.7434
vn -0.9999 -0.0154 -0.0000
vn 0.9540 -0.2997 -0.0000
vn -0.0378 -0.9993 0.0000
vn -0.0379 -0.9993 -0.0000
vn -0.9912 -0.1321 -0.0044
vn -0.1388 -0.1240 -0.9825
vn 0.9776 -0.2106 -0.0060
vn -0.0065 -0.1705 0.9853
vn -0.9905 -0.1366 -0.0142
vn -0.1223 -0.0793 -0.9893
vn 0.9756 -0.2185 -0.0236
vn 0.0464 -0.7907 0.6104
vn -0.9910 -0.1335 -0.0041
vn -0.1587 -0.1325 -0.9784
vn 0.9771 -0.2128 -0.0062
vn 0.0029 -0.9287 0.3709
vn -0.9905 -0.1357 0.0224
vn -0.0065 -0.1705 -0.9853
vn 0.9757 -0.2152 0.0401
vn -0.0089 -0.9554 0.2953
vn -0.9455 -0.3257 0.0000
vn -0.1393 -0.1139 -0.9837
vn 0.9896 0.1439 -0.0000
vn -0.0025 -0.0656 0.9978
vn -0.9347 -0.3555 0.0000
vn -0.1250 -0.1161 -0.9853
vn 0.9873 0.1586 -0.0000
vn 0.1552 -0.0245 0.9876
vn -0.9592 -0.2827 0.0000
vn -0.1588 -0.0875 -0.9834
vn 0.9924 0.1233 -0.0000
vn 0.1351 -0.0228 0.9906
vn -0.9101 -0.4143 0.0000
vn -0.0040 -0.1055 -0.9944
vn 0.9820 0.1891 -0.0000
vn 0.1192 -0.0552 0.9913
vn -0.6815 -0.7318 0.0000
vn -0.1406 -0.3341 -0.9320
vn 0.7680 0.6404 -0.0000
vn -0.0097 -0.2547 0.9670
vn -0.1269 -0.3348 -0.9337
vn 0.1506 -0.1198 0.9813
vn -0.1579 -0.3979 -0.9037
vn 0.1286 -0.1549 0.9795
vn -0.6815 -0.7318 -0.0000
vn -0.0077 -0.2037 -0.9790
vn 0.1167 -0.1087 0.9872
vn 0.0501 0.5579 0.8284
vn -0.9995 -0.0208 -0.0246
vn -0.0309 -0.8164 -0.5766
vn 0.8280 -0.3621 -0.4281
vn 0.0146 0.1628 0.9866
vn -0.9762 -0.2022 0.0788
vn -0.0105 -0.2784 -0.9604
vn 0.7496 -0.3462 -0.5641
vn 0.1195 -0.0764 0.9899
vn -0.0933 -0.9282 -0.3603
vn -0.1416 -0.8085 -0.5712
vn 0.1507 -0.1388 0.9788
vn 0.1310 -0.1266 0.9833
vn -0.1072 -0.8895 -0.4441
# 84 vertex normals

vt 10.8229 0.0000 0.0000
vt 0.0000 0.0000 0.0000
vt 0.0000 -2.8572 0.0000
vt 10.8229 -3.2448 0.0000
vt 0.0000 -12.2194 0.0000
vt 10.8229 -12.2194 0.0000
vt 0.0000 -9.0939 0.0000
vt 0.0000 -5.9793 0.0000
vt 10.8229 -6.4257 0.0000
vt 10.8229 -9.4395 0.0000
# 10 texture coords

o Brazo_Derecho
g Brazo_Derecho
usemtl Material__81
s 64
f 1/1/1 2/2/1 3/3/1 4/4/1 
s off
f 5/2/2 6/1/2 7/1/2 8/2/2 
f 5/2/3 8/2/3 9/5/3 10/5/3 
f 10/5/4 9/5/4 11/6/4 12/6/4 
f 12/6/5 11/6/5 7/1/5 6/1/5 
f 13/2/6 14/1/6 6/1/6 5/2/6 
f 13/2/7 5/2/7 10/5/7 15/5/7 
f 15/5/8 10/5/8 12/6/8 16/6/8 
f 16/6/9 12/6/9 6/1/9 14/1/9 
f 17/2/10 18/1/10 14/1/10 13/2/10 
f 17/2/11 13/2/11 15/5/11 19/5/11 
f 19/5/12 15/5/12 16/6/12 20/6/12 
f 18/1/13 20/6/13 16/6/13 14/1/13 
f 21/2/14 22/1/14 18/1/14 17/2/14 
f 23/5/15 21/2/15 17/2/15 19/5/15 
f 23/5/16 19/5/16 20/6/16 24/6/16 
f 24/6/17 20/6/17 18/1/17 22/1/17 
f 25/2/18 26/1/18 22/1/18 21/2/18 
f 25/2/19 21/2/19 23/5/19 27/5/19 
f 27/5/16 23/5/16 24/6/16 28/6/16 
f 28/6/20 24/6/20 22/1/20 26/1/20 
f 29/1/18 26/1/18 25/2/18 30/2/18 
f 30/2/21 25/2/21 27/5/21 31/5/21 
f 32/6/16 31/5/16 27/5/16 28/6/16 
f 32/6/22 28/6/22 26/1/22 29/1/22 
f 33/1/23 34/1/23 35/2/23 36/2/23 
f 30/2/24 31/5/24 37/5/24 38/7/24 
f 30/2/24 38/7/24 39/8/24 40/3/24 
f 30/2/24 40/3/24 41/2/24 
f 42/6/16 37/5/16 31/5/16 32/6/16 
f 32/6/25 29/1/25 43/1/25 44/4/25 
f 32/6/25 44/4/25 45/9/25 46/10/25 
f 32/6/25 46/10/25 42/6/25 
s 64
f 47/9/1 48/8/26 49/7/1 50/10/1 
f 51/4/1 52/3/1 53/8/27 54/9/27 
f 55/10/27 56/7/27 57/5/27 58/6/27 
s off
f 41/2/28 40/3/28 59/3/28 60/3/28 
f 41/2/28 60/3/28 61/2/28 
f 59/3/29 62/4/29 63/4/29 60/3/29 
f 43/1/30 64/1/30 63/4/30 62/4/30 
f 43/1/30 62/4/30 44/4/30 
f 64/1/31 43/1/31 41/2/31 61/2/31 
f 65/7/32 66/7/32 67/8/32 68/8/32 
f 68/8/32 39/8/32 38/7/32 65/7/32 
f 66/7/33 65/7/33 69/10/33 70/10/33 
f 71/9/34 72/9/34 70/10/34 69/10/34 
f 69/10/34 46/10/34 45/9/34 71/9/34 
f 68/8/35 71/9/35 45/9/35 39/8/35 
f 73/8/36 74/8/36 75/3/36 76/3/36 
f 76/3/36 40/3/36 39/8/36 73/8/36 
f 74/8/37 73/8/37 77/9/37 78/9/37 
f 79/4/38 80/4/38 78/9/38 77/9/38 
f 77/9/38 45/9/38 44/4/38 79/4/38 
f 76/3/39 79/4/39 44/4/39 40/3/39 
f 37/5/40 81/5/40 82/7/40 83/7/40 
f 37/5/40 83/7/40 38/7/40 
f 81/5/41 37/5/41 42/6/41 84/6/41 
f 42/6/42 46/10/42 85/10/42 86/10/42 
f 42/6/42 86/10/42 84/6/42 
f 83/7/43 85/10/43 46/10/43 38/7/43 
f 87/2/44 61/2/44 60/3/44 88/3/44 
f 88/3/45 60/3/45 63/4/45 89/4/45 
f 89/4/46 63/4/46 64/1/46 90/1/46 
f 87/2/47 90/1/47 64/1/47 61/2/47 
f 91/8/48 67/8/48 66/7/48 92/7/48 
f 92/7/49 66/7/49 70/10/49 93/10/49 
f 93/10/50 70/10/50 72/9/50 94/9/50 
f 91/8/51 94/9/51 72/9/51 67/8/51 
f 95/3/52 75/3/52 74/8/52 96/8/52 
f 96/8/53 74/8/53 78/9/53 97/9/53 
f 97/9/54 78/9/54 80/4/54 98/4/54 
f 95/3/55 98/4/55 80/4/55 75/3/55 
f 99/7/56 82/7/56 81/5/56 100/5/56 
f 100/5/57 81/5/57 84/6/57 101/6/57 
f 101/6/58 84/6/58 86/10/58 102/10/58 
f 99/7/59 102/10/59 86/10/59 82/7/59 
f 2/2/60 87/2/60 88/3/60 3/3/60 
f 3/3/61 88/3/61 89/4/61 4/4/61 
f 1/1/62 4/4/62 89/4/62 90/1/62 
f 2/2/63 1/1/63 90/1/63 87/2/63 
f 48/8/60 91/8/60 92/7/60 49/7/60 
f 49/7/64 92/7/64 93/10/64 50/10/64 
f 50/10/62 93/10/62 94/9/62 47/9/62 
f 48/8/65 47/9/65 94/9/65 91/8/65 
f 52/3/60 95/3/60 96/8/60 53/8/60 
f 53/8/66 96/8/66 97/9/66 54/9/66 
f 54/9/62 97/9/62 98/4/62 51/4/62 
f 52/3/67 51/4/67 98/4/67 95/3/67 
f 56/7/68 99/7/68 100/5/68 57/5/68 
f 57/5/69 100/5/69 101/6/69 58/6/69 
f 58/6/62 101/6/62 102/10/62 55/10/62 
f 56/7/70 55/10/70 102/10/70 99/7/70 
f 103/2/71 104/1/71 29/1/71 30/2/71 
f 103/2/72 30/2/72 41/2/72 105/2/72 
f 105/2/73 41/2/73 43/1/73 106/1/73 
f 104/1/74 106/1/74 43/1/74 29/1/74 
f 35/2/75 34/1/75 104/1/75 103/2/75 
f 35/2/76 103/2/76 105/2/76 36/2/76 
f 36/2/77 105/2/77 106/1/77 33/1/77 
f 34/1/78 33/1/78 106/1/78 104/1/78 
f 85/10/79 83/7/79 82/7/79 86/10/79 
f 69/10/80 65/7/80 38/7/80 46/10/80 
f 77/9/81 73/8/81 39/8/81 45/9/81 
f 71/9/82 68/8/82 67/8/82 72/9/82 
f 79/4/83 76/3/83 75/3/83 80/4/83 
f 62/4/84 59/3/84 40/3/84 44/4/84 
# 100 polygons - 6 triangles

