# 3ds Max Wavefront OBJ Exporter v0.99 - (c)2007 guruware
# File Created: 16.05.2026 18:50:35

mtllib Brazo_Izquierdo.mtl

#
# object Brazo_Izquierdo
#

v  0.3147 -0.8868 0.0792
v  0.3147 -0.8868 0.0863
v  0.3092 -0.8870 0.0863
v  0.3092 -0.8870 0.0785
v  -0.0168 -0.1333 0.1077
v  0.0392 -0.1809 0.1077
v  0.1570 -0.0804 0.1077
v  0.0254 0.1511 0.1077
v  0.1570 -0.0804 -0.0939
v  0.0254 0.1511 -0.0939
v  -0.0168 -0.1333 -0.0939
v  0.0392 -0.1809 -0.0939
v  0.1395 -0.3214 0.0600
v  0.2294 -0.2394 0.0600
v  0.2294 -0.2394 -0.0470
v  0.1395 -0.3214 -0.0470
v  0.2056 -0.4630 0.0580
v  0.2935 -0.4140 0.0580
v  0.2935 -0.4140 -0.0939
v  0.2056 -0.4630 -0.0939
v  0.2499 -0.5844 0.1077
v  0.3265 -0.5356 0.1077
v  0.3265 -0.5356 -0.0939
v  0.2499 -0.5844 -0.0939
v  0.2842 -0.6597 0.1077
v  0.3587 -0.6430 0.1077
v  0.3587 -0.6430 -0.0939
v  0.2842 -0.6597 -0.0939
v  0.3069 -0.6952 0.1077
v  0.3679 -0.6897 0.1077
v  0.3679 -0.6897 -0.0939
v  0.3069 -0.6952 -0.0939
v  0.3548 -0.8058 0.1573
v  0.3263 -0.8084 0.1573
v  0.3327 -0.8150 0.1504
v  0.3545 -0.8142 0.1504
v  0.3672 -0.7372 -0.0424
v  0.3672 -0.7372 -0.0939
v  0.3672 -0.7372 0.0090
v  0.3672 -0.7372 0.1077
v  0.3672 -0.7372 0.0605
v  0.3206 -0.7389 -0.0939
v  0.3206 -0.7389 0.0541
v  0.3206 -0.7389 0.1077
v  0.3206 -0.7389 0.0017
v  0.3206 -0.7389 -0.0481
v  0.3147 -0.8813 -0.0234
v  0.3147 -0.8813 -0.0158
v  0.3092 -0.8815 -0.0167
v  0.3092 -0.8815 -0.0241
v  0.3147 -0.8964 0.0277
v  0.3147 -0.8964 0.0359
v  0.3092 -0.8966 0.0351
v  0.3092 -0.8966 0.0268
v  0.3147 -0.8728 -0.0729
v  0.3147 -0.8728 -0.0660
v  0.3092 -0.8730 -0.0667
v  0.3092 -0.8730 -0.0729
v  0.3668 -0.7381 0.0636
v  0.3579 -0.8077 0.0711
v  0.3579 -0.8077 0.0955
v  0.3216 -0.7412 0.0576
v  0.3355 -0.8085 0.0681
v  0.3355 -0.8085 0.0955
v  0.3665 -0.7383 0.0060
v  0.3579 -0.8077 -0.0052
v  0.3579 -0.8077 -0.0316
v  0.3654 -0.7390 -0.0362
v  0.3238 -0.7420 -0.0411
v  0.3355 -0.8085 -0.0344
v  0.3355 -0.8085 -0.0087
v  0.3223 -0.7426 -0.0014
v  0.3668 -0.7380 0.0568
v  0.3579 -0.8077 0.0466
v  0.3579 -0.8077 0.0194
v  0.3665 -0.7377 0.0113
v  0.3222 -0.7420 0.0047
v  0.3355 -0.8085 0.0159
v  0.3355 -0.8085 0.0436
v  0.3215 -0.7411 0.0504
v  0.3654 -0.7391 -0.0499
v  0.3579 -0.8077 -0.0561
v  0.3579 -0.8077 -0.0818
v  0.3355 -0.8085 -0.0818
v  0.3237 -0.7415 -0.0551
v  0.3355 -0.8085 -0.0588
v  0.3381 -0.8650 0.0918
v  0.3381 -0.8650 0.0750
v  0.3272 -0.8654 0.0735
v  0.3272 -0.8654 0.0918
v  0.3381 -0.8596 -0.0096
v  0.3381 -0.8596 -0.0280
v  0.3272 -0.8600 -0.0294
v  0.3272 -0.8600 -0.0113
v  0.3381 -0.8747 0.0424
v  0.3381 -0.8747 0.0222
v  0.3272 -0.8751 0.0204
v  0.3272 -0.8751 0.0409
v  0.3381 -0.8510 -0.0609
v  0.3381 -0.8510 -0.0773
v  0.3272 -0.8514 -0.0773
v  0.3272 -0.8514 -0.0622
v  0.3069 -0.7556 0.1484
v  0.3679 -0.7501 0.1484
v  0.3672 -0.7554 0.1335
v  0.3206 -0.7572 0.1335
# 106 vertices

vn 0.0379 -0.9993 0.0000
vn -0.0000 -0.0000 1.0000
vn 0.8694 0.4941 0.0000
vn 0.0000 0.0000 -1.0000
vn 0.1788 -0.2034 0.9626
vn 0.9100 0.4147 0.0000
vn 0.1764 -0.2005 -0.9637
vn -0.8138 -0.5811 -0.0000
vn 0.0073 -0.0099 0.9999
vn 0.9389 0.3442 0.0000
vn -0.1616 0.2193 -0.9622
vn -0.9062 -0.4229 -0.0000
vn -0.1899 0.3194 0.9284
vn 0.9651 0.2620 0.0000
vn -0.0000 0.0000 -1.0000
vn -0.9394 -0.3429 -0.0000
vn 0.0000 -0.0000 1.0000
vn 0.9578 0.2873 0.0000
vn -0.9101 -0.4143 -0.0000
vn 0.9810 0.1939 0.0000
vn -0.8428 -0.5383 -0.0000
vn 0.0449 -0.6674 0.7434
vn 0.9999 -0.0154 -0.0000
vn -0.9540 -0.2997 -0.0000
vn 0.0378 -0.9993 0.0000
vn 0.0379 -0.9993 -0.0000
vn 0.9912 -0.1321 -0.0044
vn 0.1388 -0.1240 -0.9825
vn -0.9776 -0.2106 -0.0060
vn 0.0065 -0.1705 0.9853
vn 0.9905 -0.1366 -0.0142
vn 0.1223 -0.0793 -0.9893
vn -0.9756 -0.2185 -0.0236
vn -0.0464 -0.7907 0.6104
vn 0.9910 -0.1335 -0.0041
vn 0.1587 -0.1325 -0.9784
vn -0.9771 -0.2128 -0.0062
vn -0.0029 -0.9287 0.3709
vn 0.9905 -0.1357 0.0224
vn 0.0065 -0.1705 -0.9853
vn -0.9757 -0.2152 0.0401
vn 0.0089 -0.9554 0.2953
vn 0.9455 -0.3257 0.0000
vn 0.1393 -0.1139 -0.9837
vn -0.9896 0.1439 -0.0000
vn 0.0025 -0.0656 0.9978
vn 0.9347 -0.3555 0.0000
vn 0.1250 -0.1161 -0.9853
vn -0.9873 0.1586 -0.0000
vn -0.1552 -0.0245 0.9876
vn 0.9592 -0.2827 0.0000
vn 0.1588 -0.0875 -0.9834
vn -0.9924 0.1233 -0.0000
vn -0.1351 -0.0228 0.9906
vn 0.9101 -0.4143 0.0000
vn 0.0040 -0.1055 -0.9944
vn -0.9820 0.1891 -0.0000
vn -0.1192 -0.0552 0.9913
vn 0.6815 -0.7318 0.0000
vn 0.1406 -0.3341 -0.9320
vn -0.7680 0.6404 -0.0000
vn 0.0097 -0.2547 0.9670
vn 0.1269 -0.3348 -0.9337
vn -0.1506 -0.1198 0.9813
vn 0.1579 -0.3979 -0.9037
vn -0.1286 -0.1549 0.9795
vn 0.6815 -0.7318 -0.0000
vn 0.0077 -0.2037 -0.9790
vn -0.1167 -0.1087 0.9872
vn -0.0501 0.5579 0.8284
vn 0.9995 -0.0208 -0.0246
vn 0.0309 -0.8164 -0.5766
vn -0.8280 -0.3621 -0.4281
vn -0.0146 0.1628 0.9866
vn 0.9762 -0.2022 0.0788
vn 0.0105 -0.2784 -0.9604
vn -0.7496 -0.3462 -0.5641
vn -0.1195 -0.0764 0.9899
vn 0.0933 -0.9282 -0.3603
vn 0.1416 -0.8085 -0.5712
vn -0.1507 -0.1388 0.9788
vn -0.1310 -0.1266 0.9833
vn 0.1072 -0.8895 -0.4441
# 83 vertex normals

vt 0.0000 -2.8572 0.0000
vt 0.0000 0.0000 0.0000
vt 10.8229 0.0000 0.0000
vt 10.8229 -3.2448 0.0000
vt 0.0000 -12.2194 0.0000
vt 10.8229 -12.2194 0.0000
vt 0.0000 -9.0939 0.0000
vt 0.0000 -5.9793 0.0000
vt 10.8229 -6.4257 0.0000
vt 10.8229 -9.4395 0.0000
# 10 texture coords

o Brazo_Izquierdo
g Brazo_Izquierdo
usemtl Material__81
s 64
f 1/1/1 2/2/1 3/3/1 4/4/1 
s off
f 5/3/2 6/3/2 7/2/2 8/2/2 
f 8/2/3 7/2/3 9/5/3 10/5/3 
f 11/6/4 10/5/4 9/5/4 12/6/4 
f 6/3/5 13/3/5 14/2/5 7/2/5 
f 7/2/6 14/2/6 15/5/6 9/5/6 
f 12/6/7 9/5/7 15/5/7 16/6/7 
f 12/6/8 16/6/8 13/3/8 6/3/8 
f 13/3/9 17/3/9 18/2/9 14/2/9 
f 15/5/10 14/2/10 18/2/10 19/5/10 
f 16/6/11 15/5/11 19/5/11 20/6/11 
f 16/6/12 20/6/12 17/3/12 13/3/12 
f 17/3/13 21/3/13 22/2/13 18/2/13 
f 18/2/14 22/2/14 23/5/14 19/5/14 
f 20/6/15 19/5/15 23/5/15 24/6/15 
f 17/3/16 20/6/16 24/6/16 21/3/16 
f 21/3/17 25/3/17 26/2/17 22/2/17 
f 22/2/18 26/2/18 27/5/18 23/5/18 
f 24/6/15 23/5/15 27/5/15 28/6/15 
f 24/6/19 28/6/19 25/3/19 21/3/19 
f 26/2/17 25/3/17 29/3/17 30/2/17 
f 26/2/20 30/2/20 31/5/20 27/5/20 
f 27/5/15 31/5/15 32/6/15 28/6/15 
f 28/6/21 32/6/21 29/3/21 25/3/21 
f 33/2/22 34/3/22 35/3/22 36/2/22 
f 37/7/23 38/5/23 31/5/23 39/8/23 
f 31/5/23 30/2/23 40/2/23 41/1/23 
f 31/5/23 41/1/23 39/8/23 
f 31/5/15 38/5/15 42/6/15 32/6/15 
f 43/4/24 44/3/24 29/3/24 45/9/24 
f 29/3/24 32/6/24 42/6/24 46/10/24 
f 29/3/24 46/10/24 45/9/24 
s 64
f 47/7/1 48/8/25 49/9/1 50/10/1 
f 51/8/26 52/1/1 53/4/1 54/9/26 
f 55/5/26 56/7/26 57/10/26 58/6/26 
s off
f 59/1/27 41/1/27 40/2/27 60/1/27 
f 40/2/27 61/2/27 60/1/27 
f 62/4/28 59/1/28 60/1/28 63/4/28 
f 62/4/29 63/4/29 64/3/29 44/3/29 
f 62/4/29 44/3/29 43/4/29 
f 44/3/30 64/3/30 61/2/30 40/2/30 
f 65/8/31 66/8/31 67/7/31 68/7/31 
f 65/8/31 68/7/31 37/7/31 39/8/31 
f 69/10/32 68/7/32 67/7/32 70/10/32 
f 69/10/33 70/10/33 71/9/33 72/9/33 
f 69/10/33 72/9/33 45/9/33 46/10/33 
f 45/9/34 72/9/34 65/8/34 39/8/34 
f 73/1/35 74/1/35 75/8/35 76/8/35 
f 73/1/35 76/8/35 39/8/35 41/1/35 
f 77/9/36 76/8/36 75/8/36 78/9/36 
f 77/9/37 78/9/37 79/4/37 80/4/37 
f 77/9/37 80/4/37 43/4/37 45/9/37 
f 43/4/38 80/4/38 73/1/38 41/1/38 
f 81/7/39 82/7/39 83/5/39 38/5/39 
f 81/7/39 38/5/39 37/7/39 
f 38/5/40 83/5/40 84/6/40 42/6/40 
f 85/10/41 46/10/41 42/6/41 86/10/41 
f 42/6/41 84/6/41 86/10/41 
f 46/10/42 85/10/42 81/7/42 37/7/42 
f 61/2/43 87/2/43 88/1/43 60/1/43 
f 63/4/44 60/1/44 88/1/44 89/4/44 
f 64/3/45 63/4/45 89/4/45 90/3/45 
f 64/3/46 90/3/46 87/2/46 61/2/46 
f 66/8/47 91/8/47 92/7/47 67/7/47 
f 70/10/48 67/7/48 92/7/48 93/10/48 
f 71/9/49 70/10/49 93/10/49 94/9/49 
f 71/9/50 94/9/50 91/8/50 66/8/50 
f 75/8/51 74/1/51 95/1/51 96/8/51 
f 78/9/52 75/8/52 96/8/52 97/9/52 
f 79/4/53 78/9/53 97/9/53 98/4/53 
f 79/4/54 98/4/54 95/1/54 74/1/54 
f 82/7/55 99/7/55 100/5/55 83/5/55 
f 84/6/56 83/5/56 100/5/56 101/6/56 
f 86/10/57 84/6/57 101/6/57 102/10/57 
f 86/10/58 102/10/58 99/7/58 82/7/58 
f 88/1/59 87/2/59 2/2/59 1/1/59 
f 89/4/60 88/1/60 1/1/60 4/4/60 
f 89/4/61 4/4/61 3/3/61 90/3/61 
f 90/3/62 3/3/62 2/2/62 87/2/62 
f 92/7/59 91/8/59 48/8/59 47/7/59 
f 93/10/63 92/7/63 47/7/63 50/10/63 
f 93/10/61 50/10/61 49/9/61 94/9/61 
f 94/9/64 49/9/64 48/8/64 91/8/64 
f 96/8/59 95/1/59 52/1/59 51/8/59 
f 97/9/65 96/8/65 51/8/65 54/9/65 
f 98/4/61 97/9/61 54/9/61 53/4/61 
f 98/4/66 53/4/66 52/1/66 95/1/66 
f 100/5/67 99/7/67 56/7/67 55/5/67 
f 101/6/68 100/5/68 55/5/68 58/6/68 
f 101/6/61 58/6/61 57/10/61 102/10/61 
f 102/10/69 57/10/69 56/7/69 99/7/69 
f 29/3/70 103/3/70 104/2/70 30/2/70 
f 40/2/71 30/2/71 104/2/71 105/2/71 
f 44/3/72 40/2/72 105/2/72 106/3/72 
f 44/3/73 106/3/73 103/3/73 29/3/73 
f 103/3/74 34/3/74 33/2/74 104/2/74 
f 105/2/75 104/2/75 33/2/75 36/2/75 
f 106/3/76 105/2/76 36/2/76 35/3/76 
f 106/3/77 35/3/77 34/3/77 103/3/77 
f 82/7/78 81/7/78 85/10/78 86/10/78 
f 37/7/79 68/7/79 69/10/79 46/10/79 
f 39/8/80 76/8/80 77/9/80 45/9/80 
f 66/8/81 65/8/81 72/9/81 71/9/81 
f 74/1/82 73/1/82 80/4/82 79/4/82 
f 41/1/83 59/1/83 62/4/83 43/4/83 
# 99 polygons - 6 triangles

