# 3ds Max Wavefront OBJ Exporter v0.99 - (c)2007 guruware
# File Created: 13.05.2026 00:15:52

mtllib Cuerpo.mtl

#
# object Cuerpo
#

v  0.2161 1.0702 -0.0140
v  0.2222 1.3042 -0.0140
v  0.1081 1.3042 -0.0140
v  0.1081 1.0702 -0.0140
v  -0.0005 1.3042 -0.0140
v  -0.0005 1.0702 -0.0140
v  0.2015 1.5573 -0.0140
v  0.1081 1.5573 -0.0140
v  -0.0005 1.5573 -0.0140
v  0.2140 1.7419 -0.0140
v  0.1081 1.7419 -0.0140
v  -0.0005 1.7419 -0.0140
v  0.2280 1.9308 -0.0140
v  0.1081 2.0458 -0.0140
v  -0.0005 2.0458 -0.0140
v  0.2702 2.2152 -0.0140
v  0.1351 2.2674 -0.0140
v  -0.0005 2.2243 -0.0140
v  0.2161 1.0702 -0.2156
v  0.1081 1.0702 -0.2156
v  0.1081 1.3042 -0.2156
v  0.2222 1.3042 -0.2653
v  -0.0005 1.0702 -0.2156
v  -0.0005 1.3042 -0.2156
v  0.2015 1.5573 -0.2156
v  0.1081 1.5573 -0.2156
v  -0.0005 1.5573 -0.2156
v  0.1081 1.7419 -0.2156
v  0.2140 1.7419 -0.2156
v  -0.0005 1.7419 -0.2156
v  0.2280 1.9308 -0.2156
v  0.1081 2.0458 -0.2156
v  -0.0005 2.0458 -0.2156
v  0.2702 2.2152 -0.2156
v  0.1351 2.2674 -0.2156
v  -0.0005 2.2243 -0.2156
v  -0.0005 2.7712 -0.0140
v  0.1212 2.7331 -0.0140
v  0.1212 2.7331 -0.2156
v  -0.0005 2.7712 -0.2156
v  0.1147 2.3169 -0.0140
v  -0.0005 2.2659 -0.0140
v  -0.0005 2.2659 -0.2156
v  0.1147 2.3169 -0.2156
v  0.1227 2.4535 -0.0140
v  -0.0005 2.4535 -0.0140
v  -0.0005 2.4535 -0.2156
v  0.1227 2.4535 -0.2156
v  0.1372 2.6206 -0.0140
v  -0.0005 2.6206 -0.0140
v  -0.0005 2.6206 -0.2156
v  0.1372 2.6206 -0.2156
v  0.2840 1.8832 -0.2156
v  0.2840 1.8832 -0.0140
v  -0.1092 1.3042 -0.0140
v  -0.2232 1.3042 -0.0140
v  -0.2171 1.0702 -0.0140
v  -0.1092 1.0702 -0.0140
v  -0.2026 1.5573 -0.0140
v  -0.1092 1.5573 -0.0140
v  -0.1092 1.7419 -0.0140
v  -0.2150 1.7419 -0.0140
v  -0.2291 1.9308 -0.0140
v  -0.1092 2.0458 -0.0140
v  -0.2713 2.2152 -0.0140
v  -0.1361 2.2674 -0.0140
v  -0.1092 1.3042 -0.2156
v  -0.1092 1.0702 -0.2156
v  -0.2171 1.0702 -0.2156
v  -0.2232 1.3042 -0.2653
v  -0.2026 1.5573 -0.2156
v  -0.1092 1.5573 -0.2156
v  -0.1092 1.7419 -0.2156
v  -0.2150 1.7419 -0.2156
v  -0.2291 1.9308 -0.2156
v  -0.1092 2.0458 -0.2156
v  -0.2713 2.2152 -0.2156
v  -0.1361 2.2674 -0.2156
v  -0.1222 2.7331 -0.0140
v  -0.1222 2.7331 -0.2156
v  -0.1158 2.3169 -0.0140
v  -0.1158 2.3169 -0.2156
v  -0.1237 2.4535 -0.0140
v  -0.1237 2.4535 -0.2156
v  -0.1383 2.6206 -0.0140
v  -0.1383 2.6206 -0.2156
# 86 vertices

vn 0.0000 -0.0000 1.0000
vn -0.0000 -0.0000 1.0000
vn -0.1226 -0.0565 -0.9908
vn 0.0000 0.0000 -1.0000
vn -0.1765 -0.0345 -0.9837
vn -0.3560 -0.0699 -0.9319
vn 0.0000 0.0972 -0.9953
vn -0.0291 0.0355 -0.9989
vn -0.0000 0.0000 -1.0000
vn 0.2987 0.9543 0.0000
vn 0.3603 0.9328 0.0000
vn 0.9973 -0.0741 -0.0000
vn 0.9975 -0.0707 -0.0000
vn 1.0000 0.0070 0.0000
vn 0.9999 0.0114 -0.0000
vn 0.9996 0.0276 0.0000
vn 0.9996 0.0279 0.0000
vn 0.9997 -0.0262 -0.0000
vn -1.0000 0.0000 -0.0000
vn 0.9247 0.3807 0.0000
vn 0.9983 -0.0581 -0.0000
vn 0.9962 -0.0866 -0.0000
vn 0.9900 0.1408 0.0000
vn -0.6484 -0.7613 -0.0000
vn 0.1765 -0.0345 -0.9837
vn 0.1226 -0.0565 -0.9908
vn 0.3560 -0.0699 -0.9319
vn 0.0291 0.0355 -0.9989
vn -0.2987 0.9543 0.0000
vn -0.3603 0.9328 0.0000
vn -0.9975 -0.0707 -0.0000
vn -0.9973 -0.0741 -0.0000
vn -1.0000 0.0070 0.0000
vn -0.9999 0.0114 -0.0000
vn -0.9996 0.0276 0.0000
vn -0.9996 0.0279 0.0000
vn -0.9997 -0.0262 -0.0000
vn 1.0000 0.0000 -0.0000
vn -0.9247 0.3807 0.0000
vn -0.9983 -0.0581 -0.0000
vn -0.9962 -0.0866 -0.0000
vn -0.9900 0.1408 0.0000
# 42 vertex normals

vt 1.0000 0.0000 0.0000
vt 1.0000 10.8229 0.0000
vt -4.6858 10.8229 0.0000
vt -4.6858 0.0000 0.0000
vt -10.3716 10.8229 0.0000
vt -10.3716 0.0000 0.0000
vt 1.0000 21.6459 0.0000
vt -4.6858 21.6459 0.0000
vt -10.3716 21.6459 0.0000
vt 1.0000 32.4688 0.0000
vt -4.6858 32.4688 0.0000
vt -10.3716 32.4688 0.0000
vt 1.0000 43.2918 0.0000
vt -4.6858 43.2918 0.0000
vt -10.3716 43.2918 0.0000
vt 1.0000 54.1147 0.0000
vt -4.6858 54.1147 0.0000
vt -10.3716 54.1147 0.0000
vt 0.0000 0.0000 0.0000
vt 5.6858 0.0000 0.0000
vt 5.6858 10.8229 0.0000
vt 0.0000 10.8229 0.0000
vt 11.3716 0.0000 0.0000
vt 11.3716 10.8229 0.0000
vt 0.0000 21.6459 0.0000
vt 5.6858 21.6459 0.0000
vt 11.3716 21.6459 0.0000
vt 5.6858 32.4688 0.0000
vt 0.0000 32.4688 0.0000
vt 11.3716 32.4688 0.0000
vt 0.0000 43.2918 0.0000
vt 5.6858 43.2918 0.0000
vt 11.3716 43.2918 0.0000
vt 0.0000 54.1147 0.0000
vt 5.6858 54.1147 0.0000
vt 11.3716 54.1147 0.0000
vt 17.0574 0.0000 0.0000
vt 22.7431 0.0000 0.0000
vt 22.7431 -12.2194 0.0000
vt 17.0574 -12.2194 0.0000
vt 28.4289 0.0000 0.0000
vt 28.4289 -12.2194 0.0000
vt 10.8229 0.0000 0.0000
vt 21.6459 0.0000 0.0000
vt 21.6459 -12.2194 0.0000
vt 10.8229 -12.2194 0.0000
vt 32.4688 0.0000 0.0000
vt 32.4688 -12.2194 0.0000
vt 43.2918 0.0000 0.0000
vt 43.2918 -12.2194 0.0000
vt 54.1147 0.0000 0.0000
vt 54.1147 -12.2194 0.0000
# 52 texture coords

o Cuerpo
g Cuerpo
usemtl Material__81
s 2
f 1/1/1 2/2/1 3/3/1 4/4/1 
f 4/4/1 3/3/1 5/5/1 6/6/1 
f 3/3/1 2/2/1 7/7/1 8/8/1 
f 3/3/1 8/8/1 9/9/1 5/5/1 
f 7/7/1 10/10/2 11/11/1 8/8/1 
f 8/8/1 11/11/1 12/12/1 9/9/1 
f 11/11/1 10/10/2 13/13/2 14/14/2 
f 11/11/1 14/14/2 15/15/1 12/12/1 
f 14/14/2 13/13/2 16/16/2 17/17/2 
f 14/14/2 17/17/2 18/18/1 15/15/1 
s 4
f 19/19/3 20/20/4 21/21/5 22/22/6 
f 20/20/4 23/23/4 24/24/4 21/21/5 
f 25/25/7 22/22/6 21/21/5 26/26/8 
f 21/21/5 24/24/4 27/27/4 26/26/8 
f 25/25/7 26/26/8 28/28/4 29/29/4 
f 26/26/8 27/27/4 30/30/4 28/28/4 
f 31/31/4 29/29/4 28/28/4 32/32/4 
f 28/28/4 30/30/4 33/33/4 32/32/4 
f 34/34/4 31/31/4 32/32/4 35/35/9 
f 32/32/4 33/33/4 36/36/9 35/35/9 
s 32
f 37/37/10 38/38/10 39/39/10 40/40/10 
f 17/38/11 16/41/11 34/42/11 35/39/11 
s 64
f 13/43/12 10/44/13 29/45/13 31/46/12 
f 10/44/13 7/47/14 25/48/15 29/45/13 
f 25/48/15 7/47/14 2/49/16 22/50/17 
f 2/49/16 1/51/18 19/52/18 22/50/17 
s off
f 17/38/1 41/38/1 42/37/1 18/37/1 
f 18/37/19 42/37/19 43/40/19 36/40/19 
f 35/39/9 36/40/9 43/40/9 44/39/9 
f 35/39/20 44/39/20 41/38/20 17/38/20 
f 41/38/1 45/38/1 46/37/1 42/37/1 
f 42/37/19 46/37/19 47/40/19 43/40/19 
f 44/39/9 43/40/9 47/40/9 48/39/9 
f 44/39/21 48/39/21 45/38/21 41/38/21 
f 45/38/1 49/38/1 50/37/1 46/37/1 
f 46/37/19 50/37/19 51/40/19 47/40/19 
f 48/39/4 47/40/4 51/40/4 52/39/4 
f 48/39/22 52/39/22 49/38/22 45/38/22 
f 50/37/2 49/38/2 38/38/2 37/37/2 
f 50/37/19 37/37/19 40/40/19 51/40/19 
f 51/40/4 40/40/4 39/39/4 52/39/4 
f 52/39/23 39/39/23 38/38/23 49/38/23 
f 31/46/24 53/46/24 54/43/24 13/43/24 
s 2
f 55/3/1 56/2/1 57/1/1 58/4/1 
f 55/3/1 58/4/1 6/6/1 5/5/1 
f 59/7/1 56/2/1 55/3/1 60/8/1 
f 60/8/1 55/3/1 5/5/1 9/9/1 
f 61/11/1 62/10/1 59/7/1 60/8/1 
f 61/11/1 60/8/1 9/9/1 12/12/1 
f 63/13/1 62/10/1 61/11/1 64/14/1 
f 64/14/1 61/11/1 12/12/1 15/15/1 
f 65/16/1 63/13/1 64/14/1 66/17/1 
f 18/18/2 66/17/1 64/14/1 15/15/1 
s 4
f 67/21/25 68/20/4 69/19/26 70/22/27 
f 23/23/4 68/20/4 67/21/25 24/24/4 
f 67/21/25 70/22/27 71/25/7 72/26/28 
f 24/24/4 67/21/25 72/26/28 27/27/4 
f 73/28/4 72/26/28 71/25/7 74/29/9 
f 27/27/4 72/26/28 73/28/4 30/30/4 
f 73/28/4 74/29/9 75/31/9 76/32/9 
f 30/30/4 73/28/4 76/32/9 33/33/4 
f 76/32/9 75/31/9 77/34/9 78/35/4 
f 36/36/4 33/33/4 76/32/9 78/35/4 
s 32
f 79/38/29 37/37/29 40/40/29 80/39/29 
f 65/41/30 66/38/30 78/39/30 77/42/30 
s 64
f 62/44/31 63/43/32 75/46/32 74/45/31 
f 59/47/33 62/44/31 74/45/31 71/48/34 
f 56/49/35 59/47/33 71/48/34 70/50/36 
f 69/52/37 57/51/37 56/49/35 70/50/36 
s off
f 42/37/2 81/38/2 66/38/2 18/37/2 
f 42/37/38 18/37/38 36/40/38 43/40/38 
f 43/40/4 36/40/4 78/39/4 82/39/4 
f 82/39/39 78/39/39 66/38/39 81/38/39 
f 46/37/2 83/38/2 81/38/2 42/37/2 
f 46/37/38 42/37/38 43/40/38 47/40/38 
f 47/40/4 43/40/4 82/39/4 84/39/4 
f 84/39/40 82/39/40 81/38/40 83/38/40 
f 50/37/2 85/38/2 83/38/2 46/37/2 
f 50/37/38 46/37/38 47/40/38 51/40/38 
f 51/40/4 47/40/4 84/39/4 86/39/4 
f 86/39/41 84/39/41 83/38/41 85/38/41 
f 79/38/1 85/38/1 50/37/1 37/37/1 
f 37/37/38 50/37/38 51/40/38 40/40/38 
f 80/39/9 40/40/9 51/40/9 86/39/9 
f 80/39/42 86/39/42 85/38/42 79/38/42 
# 85 polygons

