# 3ds Max Wavefront OBJ Exporter v0.99 - (c)2007 guruware
# File Created: 16.05.2026 18:52:44

mtllib Pierna_Izquierda.mtl

#
# object Pierna_Izquierda
#

v  0.0894 -1.0470 0.1032
v  0.0004 -1.0470 0.1032
v  0.0004 -1.0470 -0.0984
v  0.0894 -1.0470 -0.0984
v  -0.0721 -1.0470 0.1032
v  -0.0721 -1.0470 -0.0984
v  0.0004 0.0131 0.1032
v  0.0004 -0.1781 0.1353
v  0.1083 -0.1781 0.1353
v  0.1083 0.0131 0.1032
v  0.1083 -0.1781 -0.0984
v  0.1083 0.0131 -0.0984
v  0.0004 -0.1781 -0.0984
v  0.0004 0.0131 -0.0984
v  -0.0953 -0.1781 -0.0984
v  -0.1083 0.0131 -0.0984
v  -0.1083 0.0131 0.1032
v  -0.0953 -0.1781 0.1353
v  0.0004 -0.3476 0.1032
v  0.1083 -0.3476 0.1032
v  0.1083 -0.3476 -0.0984
v  0.0004 -0.3476 -0.0984
v  -0.0822 -0.3476 -0.0984
v  -0.0822 -0.3476 0.1032
v  0.0004 -0.5171 0.1032
v  0.1017 -0.5171 0.1032
v  0.1017 -0.5171 -0.0604
v  0.0004 -0.5171 -0.0604
v  -0.0721 -0.5171 -0.0604
v  -0.0721 -0.5171 0.1032
v  0.0004 -0.6867 0.0682
v  0.0956 -0.6867 0.0682
v  0.0956 -0.6867 -0.0720
v  0.0004 -0.6867 -0.0720
v  -0.0721 -0.6867 -0.0720
v  -0.0721 -0.6867 0.0682
v  0.0004 -0.8562 0.0740
v  0.0894 -0.8562 0.0740
v  0.0894 -0.8562 -0.0984
v  0.0004 -0.8562 -0.0984
v  -0.0721 -0.8562 -0.0984
v  -0.0721 -0.8562 0.0740
v  0.0004 -0.9331 0.0726
v  0.0894 -0.9331 0.0726
v  0.0894 -0.9681 -0.0984
v  0.0004 -0.9681 -0.0984
v  -0.0721 -0.9681 -0.0984
v  -0.0721 -0.9331 0.0726
v  0.0004 -1.0000 0.4340
v  0.0004 -1.0470 0.4340
v  0.0685 -1.0470 0.4340
v  0.0685 -1.0000 0.4340
v  -0.0464 -1.0000 0.4340
v  -0.0464 -1.0470 0.4340
v  0.0004 -0.9681 0.2686
v  0.0833 -0.9681 0.2686
v  0.0833 -1.0470 0.2686
v  0.0004 -1.0470 0.2686
v  -0.0668 -1.0470 0.2686
v  -0.0668 -0.9681 0.2686
# 60 vertices

vn -0.0000 -1.0000 -0.0000
vn 0.0000 -1.0000 -0.0000
vn 0.0000 0.1653 0.9862
vn 1.0000 0.0000 -0.0000
vn 0.0000 0.0000 -1.0000
vn -0.9977 -0.0680 -0.0000
vn 0.0000 -0.1858 0.9826
vn -0.9970 -0.0768 -0.0000
vn -0.0000 -0.1858 0.9826
vn 0.0000 -0.0000 1.0000
vn 0.9993 -0.0386 -0.0000
vn 0.0000 -0.2190 -0.9757
vn -0.0000 -0.2190 -0.9757
vn -0.9982 -0.0597 -0.0000
vn -0.0000 -0.0000 1.0000
vn 0.0000 -0.2026 0.9793
vn 0.9993 -0.0364 -0.0000
vn 0.0000 0.0687 -0.9976
vn -0.0000 0.0687 -0.9976
vn -1.0000 0.0000 -0.0000
vn 0.0000 0.0343 0.9994
vn 0.0000 0.1537 -0.9881
vn -0.0000 0.1537 -0.9881
vn 0.0000 -0.0180 0.9998
vn -0.0000 0.0000 -1.0000
vn -0.0000 0.9845 0.1755
vn 0.9994 0.0055 0.0343
vn -0.9996 0.0047 0.0296
vn 0.0000 0.9845 0.1755
vn -0.0000 0.9819 0.1894
vn 0.9960 -0.0000 0.0890
vn -0.9925 -0.0000 0.1226
vn 0.0000 0.9819 0.1894
# 33 vertex normals

vt 0.0000 0.0000 0.0000
vt 5.6858 0.0000 0.0000
vt 5.6858 -12.2194 0.0000
vt 0.0000 -12.2194 0.0000
vt 11.3716 0.0000 0.0000
vt 11.3716 -12.2194 0.0000
# 6 texture coords

o Pierna_Izquierda
g Pierna_Izquierda
usemtl Material__81
s 8
f 1/1/1 2/2/1 3/3/1 4/4/2 
f 2/2/1 5/5/2 6/6/1 3/3/1 
s off
f 7/2/3 8/2/3 9/1/3 10/1/3 
f 10/1/4 9/1/4 11/4/4 12/4/4 
f 12/4/5 11/4/5 13/3/5 14/3/5 
f 14/3/5 13/3/5 15/6/5 16/6/5 
f 17/5/6 16/6/6 15/6/6 18/5/6 
f 7/2/3 17/5/3 18/5/3 8/2/3 
f 8/2/7 19/2/7 20/1/7 9/1/7 
f 11/4/4 9/1/4 20/1/4 21/4/4 
f 11/4/5 21/4/5 22/3/5 13/3/5 
f 13/3/5 22/3/5 23/6/5 15/6/5 
f 15/6/8 23/6/8 24/5/8 18/5/8 
f 8/2/9 18/5/9 24/5/9 19/2/9 
f 19/2/10 25/2/10 26/1/10 20/1/10 
f 20/1/11 26/1/11 27/4/11 21/4/11 
f 22/3/12 21/4/12 27/4/12 28/3/12 
f 22/3/13 28/3/13 29/6/13 23/6/13 
f 24/5/14 23/6/14 29/6/14 30/5/14 
f 19/2/15 24/5/15 30/5/15 25/2/15 
f 25/2/16 31/2/16 32/1/16 26/1/16 
f 27/4/17 26/1/17 32/1/17 33/4/17 
f 28/3/18 27/4/18 33/4/18 34/3/18 
f 28/3/19 34/3/19 35/6/19 29/6/19 
f 29/6/20 35/6/20 36/5/20 30/5/20 
f 30/5/16 36/5/16 31/2/16 25/2/16 
f 31/2/21 37/2/21 38/1/21 32/1/21 
f 33/4/17 32/1/17 38/1/17 39/4/17 
f 34/3/22 33/4/22 39/4/22 40/3/22 
f 34/3/23 40/3/23 41/6/23 35/6/23 
f 35/6/20 41/6/20 42/5/20 36/5/20 
f 36/5/21 42/5/21 37/2/21 31/2/21 
f 37/2/24 43/2/24 44/1/24 38/1/24 
f 39/4/4 38/1/4 44/1/4 45/4/4 
f 39/4/5 45/4/5 46/3/5 40/3/5 
f 40/3/25 46/3/25 47/6/25 41/6/25 
f 41/6/20 47/6/20 48/5/20 42/5/20 
f 42/5/24 48/5/24 43/2/24 37/2/24 
f 49/2/10 50/2/10 51/1/10 52/1/10 
f 44/1/4 1/1/4 4/4/4 45/4/4 
f 45/4/5 4/4/5 3/3/5 46/3/5 
f 46/3/25 3/3/25 6/6/25 47/6/25 
f 48/5/20 47/6/20 6/6/20 5/5/20 
f 53/5/10 54/5/10 50/2/10 49/2/10 
f 43/2/26 55/2/26 56/1/26 44/1/26 
f 1/1/27 44/1/27 56/1/27 57/1/27 
f 2/2/2 1/1/2 57/1/2 58/2/2 
f 2/2/2 58/2/2 59/5/2 5/5/2 
f 5/5/28 59/5/28 60/5/28 48/5/28 
f 43/2/29 48/5/29 60/5/29 55/2/29 
f 55/2/30 49/2/30 52/1/30 56/1/30 
f 57/1/31 56/1/31 52/1/31 51/1/31 
f 58/2/2 57/1/2 51/1/2 50/2/2 
f 58/2/2 50/2/2 54/5/2 59/5/2 
f 59/5/32 54/5/32 53/5/32 60/5/32 
f 55/2/33 60/5/33 53/5/33 49/2/33 
# 56 polygons

