# 3ds Max Wavefront OBJ Exporter v0.99 - (c)2007 guruware
# File Created: 16.05.2026 18:52:14

mtllib Pierna_Derecha.mtl

#
# object Pierna_Derecha
#

v  -0.0004 -1.0455 0.0913
v  -0.0894 -1.0455 0.0913
v  -0.0894 -1.0455 -0.1103
v  -0.0004 -1.0455 -0.1103
v  0.0721 -1.0455 0.0913
v  0.0721 -1.0455 -0.1103
v  -0.0004 -0.1766 0.1233
v  -0.0004 0.0146 0.0913
v  -0.1083 0.0146 0.0913
v  -0.1083 -0.1766 0.1233
v  -0.1083 -0.1766 -0.1103
v  -0.1083 0.0146 -0.1103
v  -0.0004 0.0146 -0.1103
v  -0.0004 -0.1766 -0.1103
v  0.0953 -0.1766 -0.1103
v  0.1083 0.0146 -0.1103
v  0.1083 0.0146 0.0913
v  0.0953 -0.1766 0.1233
v  -0.0004 -0.3461 0.0913
v  -0.1083 -0.3461 0.0913
v  -0.1083 -0.3461 -0.1103
v  -0.0004 -0.3461 -0.1103
v  0.0822 -0.3461 -0.1103
v  0.0822 -0.3461 0.0913
v  -0.1017 -0.5156 0.0913
v  -0.0004 -0.5156 0.0913
v  -0.1017 -0.5156 -0.0723
v  -0.0004 -0.5156 -0.0723
v  0.0721 -0.5156 -0.0723
v  0.0721 -0.5156 0.0913
v  -0.0956 -0.6851 0.0562
v  -0.0004 -0.6851 0.0562
v  -0.0956 -0.6851 -0.0840
v  -0.0004 -0.6851 -0.0840
v  0.0721 -0.6851 -0.0840
v  0.0721 -0.6851 0.0562
v  -0.0894 -0.8546 0.0620
v  -0.0004 -0.8546 0.0620
v  -0.0894 -0.8546 -0.1103
v  -0.0004 -0.8546 -0.1103
v  0.0721 -0.8546 -0.1103
v  0.0721 -0.8546 0.0620
v  -0.0004 -0.9316 0.0606
v  -0.0894 -0.9316 0.0606
v  -0.0894 -0.9665 -0.1103
v  -0.0004 -0.9665 -0.1103
v  0.0721 -0.9665 -0.1103
v  0.0721 -0.9316 0.0606
v  -0.0004 -1.0455 0.4221
v  -0.0004 -0.9984 0.4221
v  -0.0685 -0.9984 0.4221
v  -0.0685 -1.0455 0.4221
v  0.0464 -1.0455 0.4221
v  0.0464 -0.9984 0.4221
v  -0.0833 -0.9665 0.2567
v  -0.0004 -0.9665 0.2567
v  -0.0833 -1.0455 0.2567
v  -0.0004 -1.0455 0.2567
v  0.0668 -1.0455 0.2567
v  0.0668 -0.9665 0.2567
# 60 vertices

vn 0.0000 -1.0000 -0.0000
vn -0.0000 -1.0000 -0.0000
vn 0.0000 0.1653 0.9862
vn -1.0000 0.0000 -0.0000
vn 0.0000 0.0000 -1.0000
vn 0.9977 -0.0680 -0.0000
vn 0.0000 -0.1858 0.9826
vn 0.9970 -0.0768 -0.0000
vn -0.0000 -0.0000 1.0000
vn -0.9993 -0.0386 -0.0000
vn -0.0000 -0.2190 -0.9757
vn 0.0000 -0.2190 -0.9757
vn 0.9982 -0.0597 -0.0000
vn 0.0000 -0.0000 1.0000
vn -0.0000 -0.2026 0.9793
vn -0.9993 -0.0364 -0.0000
vn -0.0000 0.0687 -0.9976
vn 0.0000 0.0687 -0.9976
vn 1.0000 0.0000 -0.0000
vn 0.0000 -0.2026 0.9793
vn -0.0000 0.0343 0.9994
vn 0.0000 0.1537 -0.9881
vn 0.0000 0.0343 0.9994
vn -0.0000 -0.0180 0.9998
vn 0.0000 -0.0180 0.9998
vn 0.0000 0.9845 0.1755
vn -0.9994 0.0055 0.0343
vn 0.9996 0.0047 0.0296
vn -0.0000 0.9845 0.1755
vn 0.0000 0.9819 0.1894
vn -0.9960 -0.0000 0.0890
vn 0.9925 -0.0000 0.1226
vn -0.0000 0.9819 0.1894
# 33 vertex normals

vt 5.6858 0.0000 0.0000
vt 0.0000 0.0000 0.0000
vt 0.0000 -12.2194 0.0000
vt 5.6858 -12.2194 0.0000
vt 11.3716 0.0000 0.0000
vt 11.3716 -12.2194 0.0000
# 6 texture coords

o Pierna_Derecha
g Pierna_Derecha
usemtl Material__81
s 8
f 1/1/1 2/2/1 3/3/1 4/4/1 
f 5/5/2 1/1/1 4/4/1 6/6/1 
s off
f 7/1/3 8/1/3 9/2/3 10/2/3 
f 11/3/4 10/2/4 9/2/4 12/3/4 
f 11/3/5 12/3/5 13/4/5 14/4/5 
f 15/6/5 14/4/5 13/4/5 16/6/5 
f 15/6/6 16/6/6 17/5/6 18/5/6 
f 18/5/3 17/5/3 8/1/3 7/1/3 
f 19/1/7 7/1/7 10/2/7 20/2/7 
f 20/2/4 10/2/4 11/3/4 21/3/4 
f 21/3/5 11/3/5 14/4/5 22/4/5 
f 23/6/5 22/4/5 14/4/5 15/6/5 
f 24/5/8 23/6/8 15/6/8 18/5/8 
f 24/5/7 18/5/7 7/1/7 19/1/7 
f 25/2/9 26/1/9 19/1/9 20/2/9 
f 27/3/10 25/2/10 20/2/10 21/3/10 
f 27/3/11 21/3/11 22/4/11 28/4/11 
f 29/6/12 28/4/12 22/4/12 23/6/12 
f 29/6/13 23/6/13 24/5/13 30/5/13 
f 30/5/14 24/5/14 19/1/14 26/1/14 
f 31/2/15 32/1/15 26/1/15 25/2/15 
f 31/2/16 25/2/16 27/3/16 33/3/16 
f 33/3/17 27/3/17 28/4/17 34/4/17 
f 34/4/18 28/4/18 29/6/18 35/6/18 
f 36/5/19 35/6/19 29/6/19 30/5/19 
f 36/5/20 30/5/20 26/1/20 32/1/20 
f 37/2/21 38/1/21 32/1/21 31/2/21 
f 37/2/16 31/2/16 33/3/16 39/3/16 
f 39/3/22 33/3/22 34/4/22 40/4/22 
f 40/4/22 34/4/22 35/6/22 41/6/22 
f 42/5/19 41/6/19 35/6/19 36/5/19 
f 42/5/23 36/5/23 32/1/23 38/1/23 
f 43/1/24 38/1/24 37/2/24 44/2/24 
f 44/2/4 37/2/4 39/3/4 45/3/4 
f 45/3/5 39/3/5 40/4/5 46/4/5 
f 46/4/5 40/4/5 41/6/5 47/6/5 
f 48/5/19 47/6/19 41/6/19 42/5/19 
f 48/5/25 42/5/25 38/1/25 43/1/25 
f 49/1/14 50/1/14 51/2/14 52/2/14 
f 3/3/4 2/2/4 44/2/4 45/3/4 
f 3/3/5 45/3/5 46/4/5 4/4/5 
f 4/4/5 46/4/5 47/6/5 6/6/5 
f 6/6/19 47/6/19 48/5/19 5/5/19 
f 53/5/14 54/5/14 50/1/14 49/1/14 
f 55/2/26 56/1/26 43/1/26 44/2/26 
f 55/2/27 44/2/27 2/2/27 57/2/27 
f 57/2/1 2/2/1 1/1/1 58/1/1 
f 59/5/1 58/1/1 1/1/1 5/5/1 
f 60/5/28 59/5/28 5/5/28 48/5/28 
f 60/5/29 48/5/29 43/1/29 56/1/29 
f 51/2/30 50/1/30 56/1/30 55/2/30 
f 51/2/31 55/2/31 57/2/31 52/2/31 
f 52/2/1 57/2/1 58/1/1 49/1/1 
f 53/5/1 49/1/1 58/1/1 59/5/1 
f 54/5/32 53/5/32 59/5/32 60/5/32 
f 54/5/33 60/5/33 56/1/33 50/1/33 
# 56 polygons

