# 3ds Max Wavefront OBJ Exporter v0.99 - (c)2007 guruware
# File Created: 07.05.2026 23:14:41

mtllib Reja_Entorno.mtl

#
# object Reja_Entorno
#

v  9.4400 0.0000 35.5280
v  9.4400 0.0000 33.5280
v  10.4400 0.0000 33.5280
v  10.4400 0.0000 35.5280
v  9.4400 6.0000 35.5280
v  10.4400 6.0000 35.5280
v  10.4400 6.0000 33.5280
v  9.4400 6.0000 33.5280
v  10.1500 4.2271 41.5530
v  10.1500 4.5271 41.5530
v  10.1500 4.5271 27.5030
v  10.1500 4.2271 27.5030
v  10.4500 4.2271 41.5530
v  10.4500 4.2271 27.5030
v  10.4500 4.5271 27.5030
v  10.4500 4.5271 41.5530
v  10.2552 4.4829 33.4500
v  10.2552 4.4829 33.3500
v  10.3552 4.4829 33.3500
v  10.3552 4.4829 33.4500
v  10.2552 5.9829 33.4500
v  10.3552 5.9829 33.4500
v  10.3552 5.9829 33.3500
v  10.2552 5.9829 33.3500
v  10.2552 4.4829 33.0500
v  10.2552 4.4829 32.9500
v  10.3552 4.4829 32.9500
v  10.3552 4.4829 33.0500
v  10.2552 5.9829 33.0500
v  10.3552 5.9829 33.0500
v  10.3552 5.9829 32.9500
v  10.2552 5.9829 32.9500
v  10.2552 4.4829 32.6500
v  10.2552 4.4829 32.5500
v  10.3552 4.4829 32.5500
v  10.3552 4.4829 32.6500
v  10.2552 5.9829 32.6500
v  10.3552 5.9829 32.6500
v  10.3552 5.9829 32.5500
v  10.2552 5.9829 32.5500
v  10.2552 4.4829 32.2500
v  10.2552 4.4829 32.1500
v  10.3552 4.4829 32.1500
v  10.3552 4.4829 32.2500
v  10.2552 5.9829 32.2500
v  10.3552 5.9829 32.2500
v  10.3552 5.9829 32.1500
v  10.2552 5.9829 32.1500
v  10.2552 4.4829 31.8500
v  10.2552 4.4829 31.7500
v  10.3552 4.4829 31.7500
v  10.3552 4.4829 31.8500
v  10.2552 5.9829 31.8500
v  10.3552 5.9829 31.8500
v  10.3552 5.9829 31.7500
v  10.2552 5.9829 31.7500
v  10.2552 4.4829 31.4500
v  10.2552 4.4829 31.3500
v  10.3552 4.4829 31.3500
v  10.3552 4.4829 31.4500
v  10.2552 5.9829 31.4500
v  10.3552 5.9829 31.4500
v  10.3552 5.9829 31.3500
v  10.2552 5.9829 31.3500
v  10.2552 4.4829 31.0500
v  10.2552 4.4829 30.9500
v  10.3552 4.4829 30.9500
v  10.3552 4.4829 31.0500
v  10.2552 5.9829 31.0500
v  10.3552 5.9829 31.0500
v  10.3552 5.9829 30.9500
v  10.2552 5.9829 30.9500
v  10.2552 4.4829 30.6500
v  10.2552 4.4829 30.5500
v  10.3552 4.4829 30.5500
v  10.3552 4.4829 30.6500
v  10.2552 5.9829 30.6500
v  10.3552 5.9829 30.6500
v  10.3552 5.9829 30.5500
v  10.2552 5.9829 30.5500
v  10.2552 4.4829 30.2500
v  10.2552 4.4829 30.1500
v  10.3552 4.4829 30.1500
v  10.3552 4.4829 30.2500
v  10.2552 5.9829 30.2500
v  10.3552 5.9829 30.2500
v  10.3552 5.9829 30.1500
v  10.2552 5.9829 30.1500
v  10.2552 4.4829 29.8500
v  10.2552 4.4829 29.7500
v  10.3552 4.4829 29.7500
v  10.3552 4.4829 29.8500
v  10.2552 5.9829 29.8500
v  10.3552 5.9829 29.8500
v  10.3552 5.9829 29.7500
v  10.2552 5.9829 29.7500
v  10.2552 4.4829 29.4500
v  10.2552 4.4829 29.3500
v  10.3552 4.4829 29.3500
v  10.3552 4.4829 29.4500
v  10.2552 5.9829 29.4500
v  10.3552 5.9829 29.4500
v  10.3552 5.9829 29.3500
v  10.2552 5.9829 29.3500
v  10.2552 4.4829 29.0500
v  10.2552 4.4829 28.9500
v  10.3552 4.4829 28.9500
v  10.3552 4.4829 29.0500
v  10.2552 5.9829 29.0500
v  10.3552 5.9829 29.0500
v  10.3552 5.9829 28.9500
v  10.2552 5.9829 28.9500
v  10.2552 4.4829 28.6500
v  10.2552 4.4829 28.5500
v  10.3552 4.4829 28.5500
v  10.3552 4.4829 28.6500
v  10.2552 5.9829 28.6500
v  10.3552 5.9829 28.6500
v  10.3552 5.9829 28.5500
v  10.2552 5.9829 28.5500
v  10.2552 4.4829 28.2500
v  10.2552 4.4829 28.1500
v  10.3552 4.4829 28.1500
v  10.3552 4.4829 28.2500
v  10.2552 5.9829 28.2500
v  10.3552 5.9829 28.2500
v  10.3552 5.9829 28.1500
v  10.2552 5.9829 28.1500
v  10.2552 4.4829 27.8500
v  10.2552 4.4829 27.7500
v  10.3552 4.4829 27.7500
v  10.3552 4.4829 27.8500
v  10.2552 5.9829 27.8500
v  10.3552 5.9829 27.8500
v  10.3552 5.9829 27.7500
v  10.2552 5.9829 27.7500
v  10.2552 4.4829 41.3886
v  10.2552 4.4829 41.2886
v  10.3552 4.4829 41.2886
v  10.3552 4.4829 41.3886
v  10.2552 5.9829 41.3886
v  10.3552 5.9829 41.3886
v  10.3552 5.9829 41.2886
v  10.2552 5.9829 41.2886
v  10.2552 4.4829 40.9886
v  10.2552 4.4829 40.8886
v  10.3552 4.4829 40.8886
v  10.3552 4.4829 40.9886
v  10.2552 5.9829 40.9886
v  10.3552 5.9829 40.9886
v  10.3552 5.9829 40.8886
v  10.2552 5.9829 40.8886
v  10.2552 4.4829 40.5886
v  10.2552 4.4829 40.4886
v  10.3552 4.4829 40.4886
v  10.3552 4.4829 40.5886
v  10.2552 5.9829 40.5886
v  10.3552 5.9829 40.5886
v  10.3552 5.9829 40.4886
v  10.2552 5.9829 40.4886
v  10.2552 4.4829 40.1886
v  10.2552 4.4829 40.0886
v  10.3552 4.4829 40.0886
v  10.3552 4.4829 40.1886
v  10.2552 5.9829 40.1886
v  10.3552 5.9829 40.1886
v  10.3552 5.9829 40.0886
v  10.2552 5.9829 40.0886
v  10.2552 4.4829 39.7886
v  10.2552 4.4829 39.6886
v  10.3552 4.4829 39.6886
v  10.3552 4.4829 39.7886
v  10.2552 5.9829 39.7886
v  10.3552 5.9829 39.7886
v  10.3552 5.9829 39.6886
v  10.2552 5.9829 39.6886
v  10.2552 4.4829 39.3886
v  10.2552 4.4829 39.2886
v  10.3552 4.4829 39.2886
v  10.3552 4.4829 39.3886
v  10.2552 5.9829 39.3886
v  10.3552 5.9829 39.3886
v  10.3552 5.9829 39.2886
v  10.2552 5.9829 39.2886
v  10.2552 4.4829 38.9886
v  10.2552 4.4829 38.8886
v  10.3552 4.4829 38.8886
v  10.3552 4.4829 38.9886
v  10.2552 5.9829 38.9886
v  10.3552 5.9829 38.9886
v  10.3552 5.9829 38.8886
v  10.2552 5.9829 38.8886
v  10.2552 4.4829 38.5886
v  10.2552 4.4829 38.4886
v  10.3552 4.4829 38.4886
v  10.3552 4.4829 38.5886
v  10.2552 5.9829 38.5886
v  10.3552 5.9829 38.5886
v  10.3552 5.9829 38.4886
v  10.2552 5.9829 38.4886
v  10.2552 4.4829 38.1886
v  10.2552 4.4829 38.0886
v  10.3552 4.4829 38.0886
v  10.3552 4.4829 38.1886
v  10.2552 5.9829 38.1886
v  10.3552 5.9829 38.1886
v  10.3552 5.9829 38.0886
v  10.2552 5.9829 38.0886
v  10.2552 4.4829 37.7886
v  10.2552 4.4829 37.6886
v  10.3552 4.4829 37.6886
v  10.3552 4.4829 37.7886
v  10.2552 5.9829 37.7886
v  10.3552 5.9829 37.7886
v  10.3552 5.9829 37.6886
v  10.2552 5.9829 37.6886
v  10.2552 4.4829 37.3886
v  10.2552 4.4829 37.2886
v  10.3552 4.4829 37.2886
v  10.3552 4.4829 37.3886
v  10.2552 5.9829 37.3886
v  10.3552 5.9829 37.3886
v  10.3552 5.9829 37.2886
v  10.2552 5.9829 37.2886
v  10.2552 4.4829 36.9886
v  10.2552 4.4829 36.8886
v  10.3552 4.4829 36.8886
v  10.3552 4.4829 36.9886
v  10.2552 5.9829 36.9886
v  10.3552 5.9829 36.9886
v  10.3552 5.9829 36.8886
v  10.2552 5.9829 36.8886
v  10.2552 4.4829 36.5886
v  10.2552 4.4829 36.4886
v  10.3552 4.4829 36.4886
v  10.3552 4.4829 36.5886
v  10.2552 5.9829 36.5886
v  10.3552 5.9829 36.5886
v  10.3552 5.9829 36.4886
v  10.2552 5.9829 36.4886
v  10.2552 4.4829 36.1886
v  10.2552 4.4829 36.0886
v  10.3552 4.4829 36.0886
v  10.3552 4.4829 36.1886
v  10.2552 5.9829 36.1886
v  10.3552 5.9829 36.1886
v  10.3552 5.9829 36.0886
v  10.2552 5.9829 36.0886
v  10.2552 4.4829 35.7886
v  10.2552 4.4829 35.6886
v  10.3552 4.4829 35.6886
v  10.3552 4.4829 35.7886
v  10.2552 5.9829 35.7886
v  10.3552 5.9829 35.7886
v  10.3552 5.9829 35.6886
v  10.2552 5.9829 35.6886
# 256 vertices

vn 0.0000 -1.0000 -0.0000
vn 0.0000 1.0000 -0.0000
vn 0.0000 0.0000 1.0000
vn 1.0000 0.0000 -0.0000
vn 0.0000 0.0000 -1.0000
vn -1.0000 0.0000 -0.0000
vn -1.0000 0.0000 0.0000
# 7 vertex normals

vt 3.0000 0.0000 0.0000
vt 3.0000 3.0000 0.0000
vt 0.0000 3.0000 0.0000
vt 0.0000 0.0000 0.0000
vt 0.0000 0.0000 1.0000
vt 3.0000 0.0000 1.0000
vt 3.0000 3.0000 1.0000
vt 0.0000 3.0000 1.0000
vt 17.0304 0.0000 0.0000
vt 17.0304 1.0000 0.0000
vt -0.0304 1.0000 0.0000
vt -0.0304 0.0000 0.0000
vt -0.0304 0.0000 1.0000
vt 17.0304 0.0000 1.0000
vt 17.0304 1.0000 1.0000
vt -0.0304 1.0000 1.0000
vt 0.0000 0.0000 1.0018
vt 16.9998 0.0000 1.0018
vt 16.9998 1.0000 1.0018
vt 0.0000 1.0000 1.0018
vt 0.0000 0.0000 -0.0018
vt 16.9998 0.0000 -0.0018
vt 16.9998 1.0000 -0.0018
vt 0.0000 1.0000 -0.0018
vt 0.1000 0.0000 0.0000
vt 0.1000 1.0000 0.0000
vt 0.0000 1.0000 0.0000
vt 0.1000 0.0000 1.0000
vt 0.1000 1.0000 1.0000
vt 0.0000 1.0000 1.0000
# 30 texture coords

o Reja_Entorno
g Reja_Entorno
usemtl Material__58
s 2
f 1/1/1 2/2/1 3/3/1 4/4/1 
s 4
f 5/5/2 6/6/2 7/7/2 8/8/2 
s 8
f 1/4/3 4/1/3 6/2/3 5/3/3 
s 16
f 4/5/4 3/6/4 7/7/4 6/8/4 
s 32
f 3/5/5 2/6/5 8/7/5 7/8/5 
s 64
f 2/4/6 1/1/6 5/2/6 8/3/6 
usemtl Material__68
s 2
f 9/9/7 10/10/7 11/11/7 12/12/7 
s 4
f 13/13/4 14/14/4 15/15/4 16/16/4 
s 8
f 9/12/1 12/9/1 14/10/1 13/11/1 
s 16
f 12/17/5 11/18/5 15/19/5 14/20/5 
s 32
f 11/13/2 10/14/2 16/15/2 15/16/2 
s 64
f 10/21/3 9/22/3 13/23/3 16/24/3 
s 2
f 17/25/1 18/26/1 19/27/1 20/4/1 
s 4
f 21/5/2 22/28/2 23/29/2 24/30/2 
s 8
f 17/4/3 20/25/3 22/26/3 21/27/3 
s 16
f 20/5/4 19/28/4 23/29/4 22/30/4 
s 32
f 19/5/5 18/28/5 24/29/5 23/30/5 
s 64
f 18/4/6 17/25/6 21/26/6 24/27/6 
s 2
f 25/25/1 26/26/1 27/27/1 28/4/1 
s 4
f 29/5/2 30/28/2 31/29/2 32/30/2 
s 8
f 25/4/3 28/25/3 30/26/3 29/27/3 
s 16
f 28/5/4 27/28/4 31/29/4 30/30/4 
s 32
f 27/5/5 26/28/5 32/29/5 31/30/5 
s 64
f 26/4/6 25/25/6 29/26/6 32/27/6 
s 2
f 33/25/1 34/26/1 35/27/1 36/4/1 
s 4
f 37/5/2 38/28/2 39/29/2 40/30/2 
s 8
f 33/4/3 36/25/3 38/26/3 37/27/3 
s 16
f 36/5/4 35/28/4 39/29/4 38/30/4 
s 32
f 35/5/5 34/28/5 40/29/5 39/30/5 
s 64
f 34/4/6 33/25/6 37/26/6 40/27/6 
s 2
f 41/25/1 42/26/1 43/27/1 44/4/1 
s 4
f 45/5/2 46/28/2 47/29/2 48/30/2 
s 8
f 41/4/3 44/25/3 46/26/3 45/27/3 
s 16
f 44/5/4 43/28/4 47/29/4 46/30/4 
s 32
f 43/5/5 42/28/5 48/29/5 47/30/5 
s 64
f 42/4/6 41/25/6 45/26/6 48/27/6 
s 2
f 49/25/1 50/26/1 51/27/1 52/4/1 
s 4
f 53/5/2 54/28/2 55/29/2 56/30/2 
s 8
f 49/4/3 52/25/3 54/26/3 53/27/3 
s 16
f 52/5/4 51/28/4 55/29/4 54/30/4 
s 32
f 51/5/5 50/28/5 56/29/5 55/30/5 
s 64
f 50/4/6 49/25/6 53/26/6 56/27/6 
s 2
f 57/25/1 58/26/1 59/27/1 60/4/1 
s 4
f 61/5/2 62/28/2 63/29/2 64/30/2 
s 8
f 57/4/3 60/25/3 62/26/3 61/27/3 
s 16
f 60/5/4 59/28/4 63/29/4 62/30/4 
s 32
f 59/5/5 58/28/5 64/29/5 63/30/5 
s 64
f 58/4/6 57/25/6 61/26/6 64/27/6 
s 2
f 65/25/1 66/26/1 67/27/1 68/4/1 
s 4
f 69/5/2 70/28/2 71/29/2 72/30/2 
s 8
f 65/4/3 68/25/3 70/26/3 69/27/3 
s 16
f 68/5/4 67/28/4 71/29/4 70/30/4 
s 32
f 67/5/5 66/28/5 72/29/5 71/30/5 
s 64
f 66/4/6 65/25/6 69/26/6 72/27/6 
s 2
f 73/25/1 74/26/1 75/27/1 76/4/1 
s 4
f 77/5/2 78/28/2 79/29/2 80/30/2 
s 8
f 73/4/3 76/25/3 78/26/3 77/27/3 
s 16
f 76/5/4 75/28/4 79/29/4 78/30/4 
s 32
f 75/5/5 74/28/5 80/29/5 79/30/5 
s 64
f 74/4/6 73/25/6 77/26/6 80/27/6 
s 2
f 81/25/1 82/26/1 83/27/1 84/4/1 
s 4
f 85/5/2 86/28/2 87/29/2 88/30/2 
s 8
f 81/4/3 84/25/3 86/26/3 85/27/3 
s 16
f 84/5/4 83/28/4 87/29/4 86/30/4 
s 32
f 83/5/5 82/28/5 88/29/5 87/30/5 
s 64
f 82/4/6 81/25/6 85/26/6 88/27/6 
s 2
f 89/25/1 90/26/1 91/27/1 92/4/1 
s 4
f 93/5/2 94/28/2 95/29/2 96/30/2 
s 8
f 89/4/3 92/25/3 94/26/3 93/27/3 
s 16
f 92/5/4 91/28/4 95/29/4 94/30/4 
s 32
f 91/5/5 90/28/5 96/29/5 95/30/5 
s 64
f 90/4/6 89/25/6 93/26/6 96/27/6 
s 2
f 97/25/1 98/26/1 99/27/1 100/4/1 
s 4
f 101/5/2 102/28/2 103/29/2 104/30/2 
s 8
f 97/4/3 100/25/3 102/26/3 101/27/3 
s 16
f 100/5/4 99/28/4 103/29/4 102/30/4 
s 32
f 99/5/5 98/28/5 104/29/5 103/30/5 
s 64
f 98/4/6 97/25/6 101/26/6 104/27/6 
s 2
f 105/25/1 106/26/1 107/27/1 108/4/1 
s 4
f 109/5/2 110/28/2 111/29/2 112/30/2 
s 8
f 105/4/3 108/25/3 110/26/3 109/27/3 
s 16
f 108/5/4 107/28/4 111/29/4 110/30/4 
s 32
f 107/5/5 106/28/5 112/29/5 111/30/5 
s 64
f 106/4/6 105/25/6 109/26/6 112/27/6 
s 2
f 113/25/1 114/26/1 115/27/1 116/4/1 
s 4
f 117/5/2 118/28/2 119/29/2 120/30/2 
s 8
f 113/4/3 116/25/3 118/26/3 117/27/3 
s 16
f 116/5/4 115/28/4 119/29/4 118/30/4 
s 32
f 115/5/5 114/28/5 120/29/5 119/30/5 
s 64
f 114/4/6 113/25/6 117/26/6 120/27/6 
s 2
f 121/25/1 122/26/1 123/27/1 124/4/1 
s 4
f 125/5/2 126/28/2 127/29/2 128/30/2 
s 8
f 121/4/3 124/25/3 126/26/3 125/27/3 
s 16
f 124/5/4 123/28/4 127/29/4 126/30/4 
s 32
f 123/5/5 122/28/5 128/29/5 127/30/5 
s 64
f 122/4/6 121/25/6 125/26/6 128/27/6 
s 2
f 129/25/1 130/26/1 131/27/1 132/4/1 
s 4
f 133/5/2 134/28/2 135/29/2 136/30/2 
s 8
f 129/4/3 132/25/3 134/26/3 133/27/3 
s 16
f 132/5/4 131/28/4 135/29/4 134/30/4 
s 32
f 131/5/5 130/28/5 136/29/5 135/30/5 
s 64
f 130/4/6 129/25/6 133/26/6 136/27/6 
s 2
f 137/25/1 138/26/1 139/27/1 140/4/1 
s 4
f 141/5/2 142/28/2 143/29/2 144/30/2 
s 8
f 137/4/3 140/25/3 142/26/3 141/27/3 
s 16
f 140/5/4 139/28/4 143/29/4 142/30/4 
s 32
f 139/5/5 138/28/5 144/29/5 143/30/5 
s 64
f 138/4/6 137/25/6 141/26/6 144/27/6 
s 2
f 145/25/1 146/26/1 147/27/1 148/4/1 
s 4
f 149/5/2 150/28/2 151/29/2 152/30/2 
s 8
f 145/4/3 148/25/3 150/26/3 149/27/3 
s 16
f 148/5/4 147/28/4 151/29/4 150/30/4 
s 32
f 147/5/5 146/28/5 152/29/5 151/30/5 
s 64
f 146/4/6 145/25/6 149/26/6 152/27/6 
s 2
f 153/25/1 154/26/1 155/27/1 156/4/1 
s 4
f 157/5/2 158/28/2 159/29/2 160/30/2 
s 8
f 153/4/3 156/25/3 158/26/3 157/27/3 
s 16
f 156/5/4 155/28/4 159/29/4 158/30/4 
s 32
f 155/5/5 154/28/5 160/29/5 159/30/5 
s 64
f 154/4/6 153/25/6 157/26/6 160/27/6 
s 2
f 161/25/1 162/26/1 163/27/1 164/4/1 
s 4
f 165/5/2 166/28/2 167/29/2 168/30/2 
s 8
f 161/4/3 164/25/3 166/26/3 165/27/3 
s 16
f 164/5/4 163/28/4 167/29/4 166/30/4 
s 32
f 163/5/5 162/28/5 168/29/5 167/30/5 
s 64
f 162/4/6 161/25/6 165/26/6 168/27/6 
s 2
f 169/25/1 170/26/1 171/27/1 172/4/1 
s 4
f 173/5/2 174/28/2 175/29/2 176/30/2 
s 8
f 169/4/3 172/25/3 174/26/3 173/27/3 
s 16
f 172/5/4 171/28/4 175/29/4 174/30/4 
s 32
f 171/5/5 170/28/5 176/29/5 175/30/5 
s 64
f 170/4/6 169/25/6 173/26/6 176/27/6 
s 2
f 177/25/1 178/26/1 179/27/1 180/4/1 
s 4
f 181/5/2 182/28/2 183/29/2 184/30/2 
s 8
f 177/4/3 180/25/3 182/26/3 181/27/3 
s 16
f 180/5/4 179/28/4 183/29/4 182/30/4 
s 32
f 179/5/5 178/28/5 184/29/5 183/30/5 
s 64
f 178/4/6 177/25/6 181/26/6 184/27/6 
s 2
f 185/25/1 186/26/1 187/27/1 188/4/1 
s 4
f 189/5/2 190/28/2 191/29/2 192/30/2 
s 8
f 185/4/3 188/25/3 190/26/3 189/27/3 
s 16
f 188/5/4 187/28/4 191/29/4 190/30/4 
s 32
f 187/5/5 186/28/5 192/29/5 191/30/5 
s 64
f 186/4/6 185/25/6 189/26/6 192/27/6 
s 2
f 193/25/1 194/26/1 195/27/1 196/4/1 
s 4
f 197/5/2 198/28/2 199/29/2 200/30/2 
s 8
f 193/4/3 196/25/3 198/26/3 197/27/3 
s 16
f 196/5/4 195/28/4 199/29/4 198/30/4 
s 32
f 195/5/5 194/28/5 200/29/5 199/30/5 
s 64
f 194/4/6 193/25/6 197/26/6 200/27/6 
s 2
f 201/25/1 202/26/1 203/27/1 204/4/1 
s 4
f 205/5/2 206/28/2 207/29/2 208/30/2 
s 8
f 201/4/3 204/25/3 206/26/3 205/27/3 
s 16
f 204/5/4 203/28/4 207/29/4 206/30/4 
s 32
f 203/5/5 202/28/5 208/29/5 207/30/5 
s 64
f 202/4/6 201/25/6 205/26/6 208/27/6 
s 2
f 209/25/1 210/26/1 211/27/1 212/4/1 
s 4
f 213/5/2 214/28/2 215/29/2 216/30/2 
s 8
f 209/4/3 212/25/3 214/26/3 213/27/3 
s 16
f 212/5/4 211/28/4 215/29/4 214/30/4 
s 32
f 211/5/5 210/28/5 216/29/5 215/30/5 
s 64
f 210/4/6 209/25/6 213/26/6 216/27/6 
s 2
f 217/25/1 218/26/1 219/27/1 220/4/1 
s 4
f 221/5/2 222/28/2 223/29/2 224/30/2 
s 8
f 217/4/3 220/25/3 222/26/3 221/27/3 
s 16
f 220/5/4 219/28/4 223/29/4 222/30/4 
s 32
f 219/5/5 218/28/5 224/29/5 223/30/5 
s 64
f 218/4/6 217/25/6 221/26/6 224/27/6 
s 2
f 225/25/1 226/26/1 227/27/1 228/4/1 
s 4
f 229/5/2 230/28/2 231/29/2 232/30/2 
s 8
f 225/4/3 228/25/3 230/26/3 229/27/3 
s 16
f 228/5/4 227/28/4 231/29/4 230/30/4 
s 32
f 227/5/5 226/28/5 232/29/5 231/30/5 
s 64
f 226/4/6 225/25/6 229/26/6 232/27/6 
s 2
f 233/25/1 234/26/1 235/27/1 236/4/1 
s 4
f 237/5/2 238/28/2 239/29/2 240/30/2 
s 8
f 233/4/3 236/25/3 238/26/3 237/27/3 
s 16
f 236/5/4 235/28/4 239/29/4 238/30/4 
s 32
f 235/5/5 234/28/5 240/29/5 239/30/5 
s 64
f 234/4/6 233/25/6 237/26/6 240/27/6 
s 2
f 241/25/1 242/26/1 243/27/1 244/4/1 
s 4
f 245/5/2 246/28/2 247/29/2 248/30/2 
s 8
f 241/4/3 244/25/3 246/26/3 245/27/3 
s 16
f 244/5/4 243/28/4 247/29/4 246/30/4 
s 32
f 243/5/5 242/28/5 248/29/5 247/30/5 
s 64
f 242/4/6 241/25/6 245/26/6 248/27/6 
s 2
f 249/25/1 250/26/1 251/27/1 252/4/1 
s 4
f 253/5/2 254/28/2 255/29/2 256/30/2 
s 8
f 249/4/3 252/25/3 254/26/3 253/27/3 
s 16
f 252/5/4 251/28/4 255/29/4 254/30/4 
s 32
f 251/5/5 250/28/5 256/29/5 255/30/5 
s 64
f 250/4/6 249/25/6 253/26/6 256/27/6 
# 192 polygons

