# 3ds Max Wavefront OBJ Exporter v0.99 - (c)2007 guruware
# File Created: 07.05.2026 23:15:18

mtllib Techo_Entorno.mtl

#
# object Techo_Entorno
#

v  13.1500 6.0100 -44.2044
v  6.8853 6.0100 -44.2158
v  6.8838 6.0100 -44.2064
v  13.1500 6.0100 -27.5000
v  4.1500 6.0100 -27.5000
v  4.1500 6.0100 -44.1968
v  -12.9343 6.0100 -27.2844
v  -22.9156 6.0100 -28.9177
v  -22.9156 6.0100 -27.2844
v  -4.4959 6.0100 -27.2844
v  -4.4959 6.0100 -34.9036
v  -22.9156 6.0100 -34.9036
v  4.1500 6.0100 -44.2044
v  -2.1147 6.0100 -44.2158
v  -2.1162 6.0100 -44.2064
v  -4.8500 6.0100 -27.5000
v  -4.8500 6.0100 -44.1968
v  4.5000 6.0100 27.4995
v  -4.5000 6.0100 27.4995
v  -4.5000 6.0100 41.6506
v  2.1886 6.0100 41.6250
v  4.5000 6.0100 41.6161
v  4.4988 6.0100 27.4995
v  4.4988 6.0100 41.7141
v  10.5686 6.0100 41.6442
v  10.6177 6.0100 27.4995
v  -4.6417 6.0100 24.9563
v  -4.6417 6.0100 41.6731
v  -3.7430 6.0100 36.1812
v  -3.7677 6.0100 24.9575
v  -3.7659 6.0100 41.6731
v  -3.7366 6.0100 36.1420
v  13.1500 6.0100 -44.2168
v  14.0487 6.0100 -32.9919
v  14.0240 6.0100 -44.2156
v  14.0257 6.0100 -27.5000
v  14.0551 6.0100 -33.0311
# 37 vertices

vn 0.0000 1.0000 -0.0000
# 1 vertex normals

vt 3.0000 5.4669 0.5000
vt 0.9118 5.4706 0.5000
vt 0.9113 5.4675 0.5000
vt 3.0000 0.0000 0.5000
vt 0.0000 0.0000 0.5000
vt 0.0000 5.4644 0.5000
vt 0.4603 2.7617 0.5000
vt 1.0047 6.0283 0.5000
vt 0.4603 6.0283 0.5000
vt 0.4603 0.0000 0.5000
vt 3.0000 6.0283 0.5000
vt 3.0000 18.0000 0.5000
vt 0.0000 18.0000 0.5000
vt 0.0000 13.3687 0.5000
vt 2.2295 13.3771 0.5000
vt 3.0000 13.3800 0.5000
vt 0.0000 13.3480 0.5000
vt 2.0233 13.3708 0.5000
vt 2.0397 18.0000 0.5000
vt 0.0000 5.4710 0.5000
vt 0.2996 1.7974 0.5000
vt 0.2913 5.4705 0.5000
vt 0.2919 0.0000 0.5000
vt 0.3017 1.8102 0.5000
# 24 texture coords

o Techo_Entorno
g Techo_Entorno
usemtl Material__35
s 1
f 1/1/1 2/2/1 3/3/1 4/4/1 
f 4/4/1 3/3/1 5/5/1 
f 6/6/1 5/5/1 3/3/1 
f 7/7/1 8/8/1 9/9/1 
f 7/7/1 10/10/1 11/4/1 8/8/1 
f 8/8/1 11/4/1 12/11/1 
f 13/1/1 14/2/1 15/3/1 5/4/1 
f 5/4/1 15/3/1 16/5/1 
f 17/6/1 16/5/1 15/3/1 
f 18/12/1 19/13/1 20/14/1 21/15/1 
f 22/16/1 18/12/1 21/15/1 
f 23/13/1 24/17/1 25/18/1 26/19/1 
f 27/20/1 28/5/1 29/21/1 30/22/1 
f 31/23/1 32/24/1 29/21/1 28/5/1 
f 33/20/1 4/5/1 34/21/1 35/22/1 
f 36/23/1 37/24/1 34/21/1 4/5/1 
# 9 polygons - 7 triangles

